<?xml version="1.0" encoding="UTF-8" standalone="no"?>
<!DOCTYPE svg PUBLIC "-//W3C//DTD SVG 1.1//EN"
 "http://www.w3.org/Graphics/SVG/1.1/DTD/svg11.dtd">
<!-- Generated by graphviz version 2.43.0 (0)
 -->
<!-- Title: RuntimeException Pages: 1 -->
<svg width="482pt" height="182pt"
 viewBox="0.00 0.00 482.00 182.00" xmlns="http://www.w3.org/2000/svg" xmlns:xlink="http://www.w3.org/1999/xlink">
<g id="graph0" class="graph" transform="scale(1 1) rotate(0) translate(4 178)">
<title>RuntimeException</title>
<!-- Node1 -->
<g id="node1" class="node">
<title>Node1</title>
<g id="a_node1"><a xlink:title=" ">
<polygon fill="#bfbfbf" stroke="black" points="177,-116.5 177,-173.5 283,-173.5 283,-116.5 177,-116.5"/>
<text text-anchor="middle" x="230" y="-161.5" font-family="Helvetica,sans-Serif" font-size="10.00">RuntimeException</text>
<polyline fill="none" stroke="black" points="177,-154.5 283,-154.5 "/>
<text text-anchor="middle" x="230" y="-142.5" font-family="Helvetica,sans-Serif" font-size="10.00"> </text>
<polyline fill="none" stroke="black" points="177,-135.5 283,-135.5 "/>
<text text-anchor="middle" x="230" y="-123.5" font-family="Helvetica,sans-Serif" font-size="10.00"> </text>
</a>
</g>
</g>
<!-- Node2 -->
<g id="node2" class="node">
<title>Node2</title>
<g id="a_node2"><a xlink:href="classfspm_1_1util_1_1exceptions_1_1KeyConflictException.html" target="_top" xlink:title=" ">
<polygon fill="none" stroke="black" points="0,-0.5 0,-79.5 138,-79.5 138,-0.5 0,-0.5"/>
<text text-anchor="start" x="8" y="-67.5" font-family="Helvetica,sans-Serif" font-size="10.00">fspm.util.exceptions.Key</text>
<text text-anchor="middle" x="69" y="-56.5" font-family="Helvetica,sans-Serif" font-size="10.00">ConflictException</text>
<polyline fill="none" stroke="black" points="0,-49.5 138,-49.5 "/>
<text text-anchor="middle" x="69" y="-37.5" font-family="Helvetica,sans-Serif" font-size="10.00"> </text>
<polyline fill="none" stroke="black" points="0,-30.5 138,-30.5 "/>
<text text-anchor="start" x="8" y="-18.5" font-family="Helvetica,sans-Serif" font-size="10.00">+ KeyConflictException()</text>
<text text-anchor="start" x="8" y="-7.5" font-family="Helvetica,sans-Serif" font-size="10.00">+ KeyConflictException()</text>
</a>
</g>
</g>
<!-- Node1&#45;&gt;Node2 -->
<g id="edge1" class="edge">
<title>Node1&#45;&gt;Node2</title>
<path fill="none" stroke="midnightblue" d="M178.35,-110.96C162.7,-100.94 145.37,-89.86 129.21,-79.52"/>
<polygon fill="none" stroke="midnightblue" points="176.55,-113.96 186.85,-116.4 180.32,-108.06 176.55,-113.96"/>
</g>
<!-- Node3 -->
<g id="node3" class="node">
<title>Node3</title>
<g id="a_node3"><a xlink:href="classfspm_1_1util_1_1exceptions_1_1KeyNotFoundException.html" target="_top" xlink:title=" ">
<polygon fill="none" stroke="black" points="156,-0.5 156,-79.5 304,-79.5 304,-0.5 156,-0.5"/>
<text text-anchor="start" x="164" y="-67.5" font-family="Helvetica,sans-Serif" font-size="10.00">fspm.util.exceptions.Key</text>
<text text-anchor="middle" x="230" y="-56.5" font-family="Helvetica,sans-Serif" font-size="10.00">NotFoundException</text>
<polyline fill="none" stroke="black" points="156,-49.5 304,-49.5 "/>
<text text-anchor="middle" x="230" y="-37.5" font-family="Helvetica,sans-Serif" font-size="10.00"> </text>
<polyline fill="none" stroke="black" points="156,-30.5 304,-30.5 "/>
<text text-anchor="start" x="164" y="-18.5" font-family="Helvetica,sans-Serif" font-size="10.00">+ KeyNotFoundException()</text>
<text text-anchor="start" x="164" y="-7.5" font-family="Helvetica,sans-Serif" font-size="10.00">+ KeyNotFoundException()</text>
</a>
</g>
</g>
<!-- Node1&#45;&gt;Node3 -->
<g id="edge2" class="edge">
<title>Node1&#45;&gt;Node3</title>
<path fill="none" stroke="midnightblue" d="M230,-106.16C230,-97.47 230,-88.23 230,-79.52"/>
<polygon fill="none" stroke="midnightblue" points="226.5,-106.4 230,-116.4 233.5,-106.4 226.5,-106.4"/>
</g>
<!-- Node4 -->
<g id="node4" class="node">
<title>Node4</title>
<g id="a_node4"><a xlink:href="classfspm_1_1util_1_1exceptions_1_1TypeNotFoundException.html" target="_top" xlink:title=" ">
<polygon fill="none" stroke="black" points="322,-6 322,-74 474,-74 474,-6 322,-6"/>
<text text-anchor="start" x="330" y="-62" font-family="Helvetica,sans-Serif" font-size="10.00">fspm.util.exceptions.Type</text>
<text text-anchor="middle" x="398" y="-51" font-family="Helvetica,sans-Serif" font-size="10.00">NotFoundException</text>
<polyline fill="none" stroke="black" points="322,-44 474,-44 "/>
<text text-anchor="middle" x="398" y="-32" font-family="Helvetica,sans-Serif" font-size="10.00"> </text>
<polyline fill="none" stroke="black" points="322,-25 474,-25 "/>
<text text-anchor="start" x="330" y="-13" font-family="Helvetica,sans-Serif" font-size="10.00">+ TypeNotFoundException()</text>
</a>
</g>
</g>
<!-- Node1&#45;&gt;Node4 -->
<g id="edge3" class="edge">
<title>Node1&#45;&gt;Node4</title>
<path fill="none" stroke="midnightblue" d="M283.67,-111.09C302.91,-99.3 324.6,-86 343.88,-74.18"/>
<polygon fill="none" stroke="midnightblue" points="281.72,-108.19 275.02,-116.4 285.38,-114.15 281.72,-108.19"/>
</g>
</g>
</svg>
