<?xml version="1.0" encoding="UTF-8" standalone="no"?>
<!DOCTYPE svg PUBLIC "-//W3C//DTD SVG 1.1//EN"
 "http://www.w3.org/Graphics/SVG/1.1/DTD/svg11.dtd">
<!-- Generated by graphviz version 2.43.0 (0)
 -->
<!-- Title: fspm.config.adapters.JsonFileReader.parse Pages: 1 -->
<!--zoomable 382 -->
<svg id="main" version="1.1" xmlns="http://www.w3.org/2000/svg" xmlns:xlink="http://www.w3.org/1999/xlink" xml:space="preserve" onload="init(evt)">
<style type="text/css"><![CDATA[
.edge:hover path { stroke: red; }
.edge:hover polygon { stroke: red; fill: red; }
]]></style>
<script type="text/javascript"><![CDATA[
var edges = document.getElementsByTagName('g');
if (edges && edges.length) {
  for (var i=0;i<edges.length;i++) {
    if (edges[i].id.substr(0,4)=='edge') {
      edges[i].setAttribute('class','edge');
    }
  }
}
]]></script>
        <defs>
                <circle id="rim" cx="0" cy="0" r="7"/>
                <circle id="rim2" cx="0" cy="0" r="3.5"/>
                <g id="zoomPlus">
                        <use xlink:href="#rim" fill="#404040">
                                <set attributeName="fill" to="#808080" begin="zoomplus.mouseover" end="zoomplus.mouseout"/>
                        </use>
                        <path d="M-4,0h8M0,-4v8" fill="none" stroke="white" stroke-width="1.5" pointer-events="none"/>
                </g>
                <g id="zoomMin">
                        <use xlink:href="#rim" fill="#404040">
                                <set attributeName="fill" to="#808080" begin="zoomminus.mouseover" end="zoomminus.mouseout"/>
                        </use>
                        <path d="M-4,0h8" fill="none" stroke="white" stroke-width="1.5" pointer-events="none"/>
                </g>
                <g id="dirArrow">
                        <path fill="none" stroke="white" stroke-width="1.5" d="M0,-3.0v7 M-2.5,-0.5L0,-3.0L2.5,-0.5"/>
                </g>
               <g id="resetDef">
                       <use xlink:href="#rim2" fill="#404040">
                               <set attributeName="fill" to="#808080" begin="reset.mouseover" end="reset.mouseout"/>
                       </use>
               </g>
        </defs>

<script type="text/javascript">
var viewWidth = 1061;
var viewHeight = 382;
var sectionId = 'dynsection-0';
</script>
<script xlink:href="svgpan.js"/>
<svg id="graph" class="graph">
<g id="viewport">
<title>fspm.config.adapters.JsonFileReader.parse</title>
<!-- Node1 -->
<g id="node1" class="node">
<title>Node1</title>
<g id="a_node1"><a xlink:title="Parses and returns a ParamGroup with the parameter contents of the provided file.">
<polygon fill="#bfbfbf" stroke="black" points="0,-277.5 0,-307.5 143,-307.5 143,-277.5 0,-277.5"/>
<text text-anchor="start" x="8" y="-295.5" font-family="Helvetica,sans-Serif" font-size="10.00">fspm.config.adapters.Json</text>
<text text-anchor="middle" x="71.5" y="-284.5" font-family="Helvetica,sans-Serif" font-size="10.00">FileReader.parse</text>
</a>
</g>
</g>
<!-- Node2 -->
<g id="node2" class="node">
<title>Node2</title>
<g id="a_node2"><a xlink:href="classfspm_1_1config_1_1adapters_1_1JsonFileReader_ade656b5e0e5d950b9997ee04ec01964d.html#ade656b5e0e5d950b9997ee04ec01964d" target="_top" xlink:title="Helper function for getting root/tree node from a JSON file.">
<polygon fill="none" stroke="black" points="684,-343.5 684,-373.5 833,-373.5 833,-343.5 684,-343.5"/>
<text text-anchor="start" x="692" y="-361.5" font-family="Helvetica,sans-Serif" font-size="10.00">fspm.config.adapters.Json</text>
<text text-anchor="middle" x="758.5" y="-350.5" font-family="Helvetica,sans-Serif" font-size="10.00">FileReader.getTreeFromFile</text>
</a>
</g>
</g>
<!-- Node1&#45;&gt;Node2 -->
<g id="edge1" class="edge">
<title>Node1&#45;&gt;Node2</title>
<path fill="none" stroke="midnightblue" d="M132.49,-307.55C147.59,-310.91 163.83,-314.17 179,-316.5 353.46,-343.29 560.21,-353.09 673.26,-356.6"/>
<polygon fill="midnightblue" stroke="midnightblue" points="673.46,-360.11 683.56,-356.91 673.67,-353.11 673.46,-360.11"/>
</g>
<!-- Node3 -->
<g id="node3" class="node">
<title>Node3</title>
<g id="a_node3"><a xlink:href="classfspm_1_1config_1_1adapters_1_1handlers_1_1DictionaryHandler_a55603453bc56522c2b8dd6c98c0f6d0c.html#a55603453bc56522c2b8dd6c98c0f6d0c" target="_top" xlink:title=" ">
<polygon fill="none" stroke="black" points="455,-299.5 455,-329.5 622,-329.5 622,-299.5 455,-299.5"/>
<text text-anchor="start" x="463" y="-317.5" font-family="Helvetica,sans-Serif" font-size="10.00">fspm.config.adapters.handlers.</text>
<text text-anchor="middle" x="538.5" y="-306.5" font-family="Helvetica,sans-Serif" font-size="10.00">DictionaryHandler.parse</text>
</a>
</g>
</g>
<!-- Node1&#45;&gt;Node3 -->
<g id="edge2" class="edge">
<title>Node1&#45;&gt;Node3</title>
<path fill="none" stroke="midnightblue" d="M143.12,-295.84C223.73,-299.66 355.88,-305.91 444.73,-310.11"/>
<polygon fill="midnightblue" stroke="midnightblue" points="444.65,-313.61 454.81,-310.59 444.99,-306.62 444.65,-313.61"/>
</g>
<!-- Node4 -->
<g id="node4" class="node">
<title>Node4</title>
<g id="a_node4"><a xlink:href="classfspm_1_1config_1_1adapters_1_1handlers_1_1DocumentCategoryNameHandler_a14c971bed31f4417a5cf1b7341971fff.html#a14c971bed31f4417a5cf1b7341971fff" target="_top" xlink:title=" ">
<polygon fill="none" stroke="black" points="195,-255.5 195,-285.5 403,-285.5 403,-255.5 195,-255.5"/>
<text text-anchor="start" x="203" y="-273.5" font-family="Helvetica,sans-Serif" font-size="10.00">fspm.config.adapters.handlers.</text>
<text text-anchor="middle" x="299" y="-262.5" font-family="Helvetica,sans-Serif" font-size="10.00">DocumentCategoryNameHandler.parse</text>
</a>
</g>
</g>
<!-- Node1&#45;&gt;Node4 -->
<g id="edge4" class="edge">
<title>Node1&#45;&gt;Node4</title>
<path fill="none" stroke="midnightblue" d="M143.23,-285.6C156.43,-284.31 170.53,-282.94 184.64,-281.56"/>
<polygon fill="midnightblue" stroke="midnightblue" points="185.29,-285.01 194.9,-280.56 184.61,-278.05 185.29,-285.01"/>
</g>
<!-- Node11 -->
<g id="node11" class="node">
<title>Node11</title>
<g id="a_node11"><a xlink:href="classfspm_1_1config_1_1adapters_1_1handlers_1_1DocumentHybridCategoryNameHandler_a2f0e1a530f1048eeabf572e5108cd1f1.html#a2f0e1a530f1048eeabf572e5108cd1f1" target="_top" xlink:title=" ">
<polygon fill="none" stroke="black" points="179,-206.5 179,-236.5 419,-236.5 419,-206.5 179,-206.5"/>
<text text-anchor="start" x="187" y="-224.5" font-family="Helvetica,sans-Serif" font-size="10.00">fspm.config.adapters.handlers.</text>
<text text-anchor="middle" x="299" y="-213.5" font-family="Helvetica,sans-Serif" font-size="10.00">DocumentHybridCategoryNameHandler.parse</text>
</a>
</g>
</g>
<!-- Node1&#45;&gt;Node11 -->
<g id="edge13" class="edge">
<title>Node1&#45;&gt;Node11</title>
<path fill="none" stroke="midnightblue" d="M103.09,-277.33C124.05,-267.44 152.7,-254.85 179,-246.5 187.64,-243.76 196.74,-241.23 205.89,-238.92"/>
<polygon fill="midnightblue" stroke="midnightblue" points="206.93,-242.27 215.82,-236.51 205.28,-235.47 206.93,-242.27"/>
</g>
<!-- Node3&#45;&gt;Node2 -->
<g id="edge3" class="edge">
<title>Node3&#45;&gt;Node2</title>
<path fill="none" stroke="midnightblue" d="M613.91,-329.52C633.22,-333.42 654.15,-337.64 673.9,-341.63"/>
<polygon fill="midnightblue" stroke="midnightblue" points="673.3,-345.08 683.79,-343.62 674.68,-338.21 673.3,-345.08"/>
</g>
<!-- Node5 -->
<g id="node5" class="node">
<title>Node5</title>
<g id="a_node5"><a xlink:href="classfspm_1_1config_1_1params_1_1hierarchy_1_1CategoryHierarchy_ace6e5895f31f542bd87cd5b9650577b8.html#ace6e5895f31f542bd87cd5b9650577b8" target="_top" xlink:title=" ">
<polygon fill="none" stroke="black" points="456.5,-245.5 456.5,-275.5 620.5,-275.5 620.5,-245.5 456.5,-245.5"/>
<text text-anchor="start" x="464.5" y="-263.5" font-family="Helvetica,sans-Serif" font-size="10.00">fspm.config.params.hierarchy.</text>
<text text-anchor="middle" x="538.5" y="-252.5" font-family="Helvetica,sans-Serif" font-size="10.00">CategoryHierarchy.parse</text>
</a>
</g>
</g>
<!-- Node4&#45;&gt;Node5 -->
<g id="edge5" class="edge">
<title>Node4&#45;&gt;Node5</title>
<path fill="none" stroke="midnightblue" d="M403.13,-266.16C417.44,-265.56 432.05,-264.94 446.12,-264.35"/>
<polygon fill="midnightblue" stroke="midnightblue" points="446.41,-267.84 456.26,-263.92 446.12,-260.84 446.41,-267.84"/>
</g>
<!-- Node5&#45;&gt;Node2 -->
<g id="edge11" class="edge">
<title>Node5&#45;&gt;Node2</title>
<path fill="none" stroke="midnightblue" d="M593.95,-275.57C603.76,-279.58 613.55,-284.5 622,-290.5 642.61,-305.12 636.6,-321.06 658,-334.5 663.06,-337.68 668.51,-340.44 674.16,-342.83"/>
<polygon fill="midnightblue" stroke="midnightblue" points="673.22,-346.22 683.81,-346.52 675.72,-339.68 673.22,-346.22"/>
</g>
<!-- Node6 -->
<g id="node6" class="node">
<title>Node6</title>
<g id="a_node6"><a xlink:href="classfspm_1_1config_1_1params_1_1hierarchy_1_1CategoryHierarchy_a1749c4a4dba84b42cc2abdab39aa0e3e.html#a1749c4a4dba84b42cc2abdab39aa0e3e" target="_top" xlink:title="Adds a new category.">
<polygon fill="none" stroke="black" points="672.5,-196.5 672.5,-226.5 844.5,-226.5 844.5,-196.5 672.5,-196.5"/>
<text text-anchor="start" x="680.5" y="-214.5" font-family="Helvetica,sans-Serif" font-size="10.00">fspm.config.params.hierarchy.</text>
<text text-anchor="middle" x="758.5" y="-203.5" font-family="Helvetica,sans-Serif" font-size="10.00">CategoryHierarchy.addCategory</text>
</a>
</g>
</g>
<!-- Node5&#45;&gt;Node6 -->
<g id="edge6" class="edge">
<title>Node5&#45;&gt;Node6</title>
<path fill="none" stroke="midnightblue" d="M606.39,-245.47C629.93,-240.17 656.57,-234.19 680.85,-228.73"/>
<polygon fill="midnightblue" stroke="midnightblue" points="681.75,-232.11 690.74,-226.51 680.21,-225.28 681.75,-232.11"/>
</g>
<!-- Node8 -->
<g id="node8" class="node">
<title>Node8</title>
<g id="a_node8"><a xlink:href="classfspm_1_1config_1_1params_1_1ParamCategory_a142ca4734877ac3625b6b95d8b81055a.html#a142ca4734877ac3625b6b95d8b81055a" target="_top" xlink:title="Adds a new Parameter to the category.">
<polygon fill="none" stroke="black" points="685,-294.5 685,-324.5 832,-324.5 832,-294.5 685,-294.5"/>
<text text-anchor="start" x="693" y="-312.5" font-family="Helvetica,sans-Serif" font-size="10.00">fspm.config.params.Param</text>
<text text-anchor="middle" x="758.5" y="-301.5" font-family="Helvetica,sans-Serif" font-size="10.00">Category.addParameter</text>
</a>
</g>
</g>
<!-- Node5&#45;&gt;Node8 -->
<g id="edge8" class="edge">
<title>Node5&#45;&gt;Node8</title>
<path fill="none" stroke="midnightblue" d="M606.39,-275.53C629.93,-280.83 656.57,-286.81 680.85,-292.27"/>
<polygon fill="midnightblue" stroke="midnightblue" points="680.21,-295.72 690.74,-294.49 681.75,-288.89 680.21,-295.72"/>
</g>
<!-- Node9 -->
<g id="node9" class="node">
<title>Node9</title>
<g id="a_node9"><a xlink:href="classfspm_1_1config_1_1params_1_1hierarchy_1_1CategoryHierarchy_aaee7106d64014154be33e5ec077c7a89.html#aaee7106d64014154be33e5ec077c7a89" target="_top" xlink:title=" ">
<polygon fill="none" stroke="black" points="658,-245.5 658,-275.5 859,-275.5 859,-245.5 658,-245.5"/>
<text text-anchor="start" x="666" y="-263.5" font-family="Helvetica,sans-Serif" font-size="10.00">fspm.config.params.hierarchy.</text>
<text text-anchor="middle" x="758.5" y="-252.5" font-family="Helvetica,sans-Serif" font-size="10.00">CategoryHierarchy.CategoryHierarchy</text>
</a>
</g>
</g>
<!-- Node5&#45;&gt;Node9 -->
<g id="edge10" class="edge">
<title>Node5&#45;&gt;Node9</title>
<path fill="none" stroke="midnightblue" d="M620.68,-260.5C629.47,-260.5 638.53,-260.5 647.59,-260.5"/>
<polygon fill="midnightblue" stroke="midnightblue" points="647.81,-264 657.81,-260.5 647.81,-257 647.81,-264"/>
</g>
<!-- Node10 -->
<g id="node10" class="node">
<title>Node10</title>
<g id="a_node10"><a xlink:href="classfspm_1_1config_1_1params_1_1ParamFactory_aadcecc67803da778c697f1b6683cd5c7.html#aadcecc67803da778c697f1b6683cd5c7" target="_top" xlink:title="Returns a concrete Parameter instance depending on the data type of the JsonNode passed in.">
<polygon fill="none" stroke="black" points="685,-147.5 685,-177.5 832,-177.5 832,-147.5 685,-147.5"/>
<text text-anchor="start" x="693" y="-165.5" font-family="Helvetica,sans-Serif" font-size="10.00">fspm.config.params.Param</text>
<text text-anchor="middle" x="758.5" y="-154.5" font-family="Helvetica,sans-Serif" font-size="10.00">Factory.parseParameter</text>
</a>
</g>
</g>
<!-- Node5&#45;&gt;Node10 -->
<g id="edge12" class="edge">
<title>Node5&#45;&gt;Node10</title>
<path fill="none" stroke="midnightblue" d="M559.38,-245.27C582.07,-228.57 620.88,-202.08 658,-186.5 663.46,-184.21 669.18,-182.11 675.01,-180.19"/>
<polygon fill="midnightblue" stroke="midnightblue" points="676.37,-183.43 684.88,-177.12 674.29,-176.74 676.37,-183.43"/>
</g>
<!-- Node7 -->
<g id="node7" class="node">
<title>Node7</title>
<g id="a_node7"><a xlink:href="classfspm_1_1util_1_1KeyElement_a653aac67328f98c1201974736671fe0d.html#a653aac67328f98c1201974736671fe0d" target="_top" xlink:title=" ">
<polygon fill="none" stroke="black" points="895,-202 895,-221 1053,-221 1053,-202 895,-202"/>
<text text-anchor="middle" x="974" y="-209" font-family="Helvetica,sans-Serif" font-size="10.00">fspm.util.KeyElement.getKey</text>
</a>
</g>
</g>
<!-- Node6&#45;&gt;Node7 -->
<g id="edge7" class="edge">
<title>Node6&#45;&gt;Node7</title>
<path fill="none" stroke="midnightblue" d="M844.8,-211.5C857.94,-211.5 871.54,-211.5 884.75,-211.5"/>
<polygon fill="midnightblue" stroke="midnightblue" points="884.75,-215 894.75,-211.5 884.75,-208 884.75,-215"/>
</g>
<!-- Node8&#45;&gt;Node7 -->
<g id="edge9" class="edge">
<title>Node8&#45;&gt;Node7</title>
<path fill="none" stroke="midnightblue" d="M832.18,-295.02C841.37,-292.31 850.51,-289.15 859,-285.5 894.43,-270.26 931.1,-244.31 952.98,-227.54"/>
<polygon fill="midnightblue" stroke="midnightblue" points="955.4,-230.09 961.13,-221.18 951.09,-224.57 955.4,-230.09"/>
</g>
<!-- Node11&#45;&gt;Node5 -->
<g id="edge14" class="edge">
<title>Node11&#45;&gt;Node5</title>
<path fill="none" stroke="midnightblue" d="M391.48,-236.52C409.46,-239.47 428.31,-242.57 446.27,-245.52"/>
<polygon fill="midnightblue" stroke="midnightblue" points="445.71,-248.97 456.15,-247.14 446.85,-242.07 445.71,-248.97"/>
</g>
<!-- Node12 -->
<g id="node12" class="node">
<title>Node12</title>
<g id="a_node12"><a xlink:href="classfspm_1_1config_1_1params_1_1hierarchy_1_1TableHierarchy_a43301537b61d4e184566f4518c9c8bc7.html#a43301537b61d4e184566f4518c9c8bc7" target="_top" xlink:title=" ">
<polygon fill="none" stroke="black" points="456.5,-123.5 456.5,-153.5 620.5,-153.5 620.5,-123.5 456.5,-123.5"/>
<text text-anchor="start" x="464.5" y="-141.5" font-family="Helvetica,sans-Serif" font-size="10.00">fspm.config.params.hierarchy.</text>
<text text-anchor="middle" x="538.5" y="-130.5" font-family="Helvetica,sans-Serif" font-size="10.00">TableHierarchy.parse</text>
</a>
</g>
</g>
<!-- Node11&#45;&gt;Node12 -->
<g id="edge15" class="edge">
<title>Node11&#45;&gt;Node12</title>
<path fill="none" stroke="midnightblue" d="M343.01,-206.47C382.82,-192.56 442.12,-171.83 484.76,-156.93"/>
<polygon fill="midnightblue" stroke="midnightblue" points="486.12,-160.16 494.41,-153.56 483.82,-153.55 486.12,-160.16"/>
</g>
<!-- Node12&#45;&gt;Node2 -->
<g id="edge19" class="edge">
<title>Node12&#45;&gt;Node2</title>
<path fill="none" stroke="midnightblue" d="M555.39,-153.82C573.58,-172.08 603.24,-204.19 622,-236.5 645.29,-276.63 623.35,-303.64 658,-334.5 662.88,-338.84 668.4,-342.44 674.29,-345.4"/>
<polygon fill="midnightblue" stroke="midnightblue" points="673.24,-348.76 683.81,-349.56 676.05,-342.35 673.24,-348.76"/>
</g>
<!-- Node12&#45;&gt;Node10 -->
<g id="edge20" class="edge">
<title>Node12&#45;&gt;Node10</title>
<path fill="none" stroke="midnightblue" d="M620.68,-147.44C638.28,-149.38 656.93,-151.43 674.6,-153.37"/>
<polygon fill="midnightblue" stroke="midnightblue" points="674.56,-156.89 684.88,-154.51 675.32,-149.93 674.56,-156.89"/>
</g>
<!-- Node13 -->
<g id="node13" class="node">
<title>Node13</title>
<g id="a_node13"><a xlink:href="classfspm_1_1config_1_1params_1_1ParamTable_a399e39364c1efcbbe169e6373e722c2f.html#a399e39364c1efcbbe169e6373e722c2f" target="_top" xlink:title=" ">
<polygon fill="none" stroke="black" points="685,-49.5 685,-79.5 832,-79.5 832,-49.5 685,-49.5"/>
<text text-anchor="start" x="693" y="-67.5" font-family="Helvetica,sans-Serif" font-size="10.00">fspm.config.params.Param</text>
<text text-anchor="middle" x="758.5" y="-56.5" font-family="Helvetica,sans-Serif" font-size="10.00">Table.add</text>
</a>
</g>
</g>
<!-- Node12&#45;&gt;Node13 -->
<g id="edge16" class="edge">
<title>Node12&#45;&gt;Node13</title>
<path fill="none" stroke="midnightblue" d="M571.15,-123.48C594.72,-112.71 627.88,-98.41 658,-88.5 664.79,-86.27 671.9,-84.14 679.06,-82.15"/>
<polygon fill="midnightblue" stroke="midnightblue" points="680.1,-85.49 688.84,-79.51 678.28,-78.73 680.1,-85.49"/>
</g>
<!-- Node14 -->
<g id="node14" class="node">
<title>Node14</title>
<g id="a_node14"><a xlink:href="classfspm_1_1config_1_1params_1_1hierarchy_1_1TableHierarchy_abc2eae14dccf78994e72a387599192dd.html#abc2eae14dccf78994e72a387599192dd" target="_top" xlink:title=" ">
<polygon fill="none" stroke="black" points="676.5,-98.5 676.5,-128.5 840.5,-128.5 840.5,-98.5 676.5,-98.5"/>
<text text-anchor="start" x="684.5" y="-116.5" font-family="Helvetica,sans-Serif" font-size="10.00">fspm.config.params.hierarchy.</text>
<text text-anchor="middle" x="758.5" y="-105.5" font-family="Helvetica,sans-Serif" font-size="10.00">TableHierarchy.addTable</text>
</a>
</g>
</g>
<!-- Node12&#45;&gt;Node14 -->
<g id="edge17" class="edge">
<title>Node12&#45;&gt;Node14</title>
<path fill="none" stroke="midnightblue" d="M620.68,-129.19C635.43,-127.5 650.91,-125.72 665.94,-124"/>
<polygon fill="midnightblue" stroke="midnightblue" points="666.72,-127.43 676.26,-122.82 665.92,-120.48 666.72,-127.43"/>
</g>
<!-- Node15 -->
<g id="node15" class="node">
<title>Node15</title>
<g id="a_node15"><a xlink:href="classfspm_1_1config_1_1params_1_1hierarchy_1_1TableHierarchy_a8e7d715c59f3acf3e79fb53f9d1ef884.html#a8e7d715c59f3acf3e79fb53f9d1ef884" target="_top" xlink:title=" ">
<polygon fill="none" stroke="black" points="676.5,-0.5 676.5,-30.5 840.5,-30.5 840.5,-0.5 676.5,-0.5"/>
<text text-anchor="start" x="684.5" y="-18.5" font-family="Helvetica,sans-Serif" font-size="10.00">fspm.config.params.hierarchy.</text>
<text text-anchor="middle" x="758.5" y="-7.5" font-family="Helvetica,sans-Serif" font-size="10.00">TableHierarchy.TableHierarchy</text>
</a>
</g>
</g>
<!-- Node12&#45;&gt;Node15 -->
<g id="edge21" class="edge">
<title>Node12&#45;&gt;Node15</title>
<path fill="none" stroke="midnightblue" d="M553.23,-123.24C573.82,-101.33 614.9,-61.2 658,-39.5 661.84,-37.57 665.84,-35.79 669.94,-34.14"/>
<polygon fill="midnightblue" stroke="midnightblue" points="671.48,-37.31 679.65,-30.56 669.06,-30.74 671.48,-37.31"/>
</g>
<!-- Node14&#45;&gt;Node7 -->
<g id="edge18" class="edge">
<title>Node14&#45;&gt;Node7</title>
<path fill="none" stroke="midnightblue" d="M834.04,-128.53C842.59,-131.12 851.08,-134.09 859,-137.5 894.43,-152.74 931.1,-178.69 952.98,-195.46"/>
<polygon fill="midnightblue" stroke="midnightblue" points="951.09,-198.43 961.13,-201.82 955.4,-192.91 951.09,-198.43"/>
</g>
</g>
</svg>
        <g id="navigator" transform="translate(0 0)" fill="#404254">
                <rect fill="#f2f5e9" fill-opacity="0.5" stroke="#606060" stroke-width=".5" x="0" y="0" width="60" height="60"/>
                <use id="zoomplus" xlink:href="#zoomPlus" x="17" y="9" onmousedown="handleZoom(evt,'in')"/>
                <use id="zoomminus" xlink:href="#zoomMin" x="42" y="9" onmousedown="handleZoom(evt,'out')"/>
                <use id="reset" xlink:href="#resetDef" x="30" y="36" onmousedown="handleReset()"/>
                <g id="arrowUp" xlink:href="#dirArrow" transform="translate(30 24)" onmousedown="handlePan(0,-1)">
                  <use xlink:href="#rim" fill="#404040">
                        <set attributeName="fill" to="#808080" begin="arrowUp.mouseover" end="arrowUp.mouseout"/>
                  </use>
                  <path fill="none" stroke="white" stroke-width="1.5" d="M0,-3.0v7 M-2.5,-0.5L0,-3.0L2.5,-0.5"/>
                </g>
                <g id="arrowRight" xlink:href="#dirArrow" transform="rotate(90) translate(36 -43)" onmousedown="handlePan(1,0)">
                  <use xlink:href="#rim" fill="#404040">
                        <set attributeName="fill" to="#808080" begin="arrowRight.mouseover" end="arrowRight.mouseout"/>
                  </use>
                  <path fill="none" stroke="white" stroke-width="1.5" d="M0,-3.0v7 M-2.5,-0.5L0,-3.0L2.5,-0.5"/>
                </g>
                <g id="arrowDown" xlink:href="#dirArrow" transform="rotate(180) translate(-30 -48)" onmousedown="handlePan(0,1)">
                  <use xlink:href="#rim" fill="#404040">
                        <set attributeName="fill" to="#808080" begin="arrowDown.mouseover" end="arrowDown.mouseout"/>
                  </use>
                  <path fill="none" stroke="white" stroke-width="1.5" d="M0,-3.0v7 M-2.5,-0.5L0,-3.0L2.5,-0.5"/>
                </g>
                <g id="arrowLeft" xlink:href="#dirArrow" transform="rotate(270) translate(-36 17)" onmousedown="handlePan(-1,0)">
                  <use xlink:href="#rim" fill="#404040">
                        <set attributeName="fill" to="#808080" begin="arrowLeft.mouseover" end="arrowLeft.mouseout"/>
                  </use>
                  <path fill="none" stroke="white" stroke-width="1.5" d="M0,-3.0v7 M-2.5,-0.5L0,-3.0L2.5,-0.5"/>
                </g>
        </g>
        <svg viewBox="0 0 15 15" width="100%" height="30px" preserveAspectRatio="xMaxYMin meet">
         <g id="arrow_out" transform="scale(0.3 0.3)">
          <a xlink:href="classfspm_1_1config_1_1adapters_1_1JsonFileReader_a66baa6fc9e08972e7a71cac73d560312_a66baa6fc9e08972e7a71cac73d560312_cgraph_org.svg" target="_base">
           <rect id="button" ry="5" rx="5" y="6" x="6" height="38" width="38"
                fill="#f2f5e9" fill-opacity="0.5" stroke="#606060" stroke-width="1.0"/>
           <path id="arrow"
             d="M 11.500037,31.436501 C 11.940474,20.09759 22.043105,11.32322 32.158766,21.979434 L 37.068811,17.246167 C 37.068811,17.246167 37.088388,32 37.088388,32 L 22.160133,31.978069 C 22.160133,31.978069 26.997745,27.140456 26.997745,27.140456 C 18.528582,18.264221 13.291696,25.230495 11.500037,31.436501 z"
             style="fill:#404040;"/>
          </a>
         </g>
        </svg>
</svg>
