<?xml version="1.0" encoding="UTF-8" standalone="no"?>
<!DOCTYPE svg PUBLIC "-//W3C//DTD SVG 1.1//EN"
 "http://www.w3.org/Graphics/SVG/1.1/DTD/svg11.dtd">
<!-- Generated by graphviz version 2.43.0 (0)
 -->
<!-- Title: fspm.config.params.hierarchy.CategoryHierarchy.getArray Pages: 1 -->
<!--zoomable 130 -->
<svg id="main" version="1.1" xmlns="http://www.w3.org/2000/svg" xmlns:xlink="http://www.w3.org/1999/xlink" xml:space="preserve" onload="init(evt)">
<style type="text/css"><![CDATA[
.edge:hover path { stroke: red; }
.edge:hover polygon { stroke: red; fill: red; }
]]></style>
<script type="text/javascript"><![CDATA[
var edges = document.getElementsByTagName('g');
if (edges && edges.length) {
  for (var i=0;i<edges.length;i++) {
    if (edges[i].id.substr(0,4)=='edge') {
      edges[i].setAttribute('class','edge');
    }
  }
}
]]></script>
        <defs>
                <circle id="rim" cx="0" cy="0" r="7"/>
                <circle id="rim2" cx="0" cy="0" r="3.5"/>
                <g id="zoomPlus">
                        <use xlink:href="#rim" fill="#404040">
                                <set attributeName="fill" to="#808080" begin="zoomplus.mouseover" end="zoomplus.mouseout"/>
                        </use>
                        <path d="M-4,0h8M0,-4v8" fill="none" stroke="white" stroke-width="1.5" pointer-events="none"/>
                </g>
                <g id="zoomMin">
                        <use xlink:href="#rim" fill="#404040">
                                <set attributeName="fill" to="#808080" begin="zoomminus.mouseover" end="zoomminus.mouseout"/>
                        </use>
                        <path d="M-4,0h8" fill="none" stroke="white" stroke-width="1.5" pointer-events="none"/>
                </g>
                <g id="dirArrow">
                        <path fill="none" stroke="white" stroke-width="1.5" d="M0,-3.0v7 M-2.5,-0.5L0,-3.0L2.5,-0.5"/>
                </g>
               <g id="resetDef">
                       <use xlink:href="#rim2" fill="#404040">
                               <set attributeName="fill" to="#808080" begin="reset.mouseover" end="reset.mouseout"/>
                       </use>
               </g>
        </defs>

<script type="text/javascript">
var viewWidth = 1312;
var viewHeight = 130;
var sectionId = 'dynsection-0';
</script>
<script xlink:href="svgpan.js"/>
<svg id="graph" class="graph">
<g id="viewport">
<title>fspm.config.params.hierarchy.CategoryHierarchy.getArray</title>
<!-- Node1 -->
<g id="node1" class="node">
<title>Node1</title>
<g id="a_node1"><a xlink:title=" ">
<polygon fill="#bfbfbf" stroke="black" points="0,-65.5 0,-95.5 164,-95.5 164,-65.5 0,-65.5"/>
<text text-anchor="start" x="8" y="-83.5" font-family="Helvetica,sans-Serif" font-size="10.00">fspm.config.params.hierarchy.</text>
<text text-anchor="middle" x="82" y="-72.5" font-family="Helvetica,sans-Serif" font-size="10.00">CategoryHierarchy.getArray</text>
</a>
</g>
</g>
<!-- Node2 -->
<g id="node2" class="node">
<title>Node2</title>
<g id="a_node2"><a xlink:href="classfspm_1_1config_1_1params_1_1hierarchy_1_1CategoryHierarchy_acac58ead81a0e7ce29fc33e0ccfb95b4.html#acac58ead81a0e7ce29fc33e0ccfb95b4" target="_top" xlink:title=" ">
<polygon fill="none" stroke="black" points="200,-65.5 200,-95.5 364,-95.5 364,-65.5 200,-65.5"/>
<text text-anchor="start" x="208" y="-83.5" font-family="Helvetica,sans-Serif" font-size="10.00">fspm.config.params.hierarchy.</text>
<text text-anchor="middle" x="282" y="-72.5" font-family="Helvetica,sans-Serif" font-size="10.00">CategoryHierarchy.getArray</text>
</a>
</g>
</g>
<!-- Node1&#45;&gt;Node2 -->
<g id="edge1" class="edge">
<title>Node1&#45;&gt;Node2</title>
<path fill="none" stroke="midnightblue" d="M164.11,-80.5C172.46,-80.5 180.99,-80.5 189.44,-80.5"/>
<polygon fill="midnightblue" stroke="midnightblue" points="189.7,-84 199.7,-80.5 189.7,-77 189.7,-84"/>
</g>
<!-- Node3 -->
<g id="node3" class="node">
<title>Node3</title>
<g id="a_node3"><a xlink:href="classfspm_1_1config_1_1params_1_1ParamCategory_addcc002dbf650fbc675a1ef472dfa088.html#addcc002dbf650fbc675a1ef472dfa088" target="_top" xlink:title=" ">
<polygon fill="none" stroke="black" points="670,-90.5 670,-120.5 817,-120.5 817,-90.5 670,-90.5"/>
<text text-anchor="start" x="678" y="-108.5" font-family="Helvetica,sans-Serif" font-size="10.00">fspm.config.params.Param</text>
<text text-anchor="middle" x="743.5" y="-97.5" font-family="Helvetica,sans-Serif" font-size="10.00">Category.getArray</text>
</a>
</g>
</g>
<!-- Node2&#45;&gt;Node3 -->
<g id="edge2" class="edge">
<title>Node2&#45;&gt;Node3</title>
<path fill="none" stroke="midnightblue" d="M364.09,-84.91C447.28,-89.44 576.03,-96.44 659.8,-101"/>
<polygon fill="midnightblue" stroke="midnightblue" points="659.61,-104.5 669.79,-101.54 659.99,-97.51 659.61,-104.5"/>
</g>
<!-- Node8 -->
<g id="node8" class="node">
<title>Node8</title>
<g id="a_node8"><a xlink:href="classfspm_1_1config_1_1params_1_1hierarchy_1_1CategoryHierarchy_a97a3787601b2a1964f925a5509267602.html#a97a3787601b2a1964f925a5509267602" target="_top" xlink:title=" ">
<polygon fill="none" stroke="black" points="400,-36 400,-77 596,-77 596,-36 400,-36"/>
<text text-anchor="start" x="408" y="-65" font-family="Helvetica,sans-Serif" font-size="10.00">fspm.config.params.hierarchy.</text>
<text text-anchor="start" x="408" y="-54" font-family="Helvetica,sans-Serif" font-size="10.00">CategoryHierarchy.validateFlattened</text>
<text text-anchor="middle" x="498" y="-43" font-family="Helvetica,sans-Serif" font-size="10.00">Access</text>
</a>
</g>
</g>
<!-- Node2&#45;&gt;Node8 -->
<g id="edge8" class="edge">
<title>Node2&#45;&gt;Node8</title>
<path fill="none" stroke="midnightblue" d="M364.21,-71.39C372.54,-70.46 381.09,-69.5 389.64,-68.54"/>
<polygon fill="midnightblue" stroke="midnightblue" points="390.12,-72.01 399.67,-67.42 389.34,-65.05 390.12,-72.01"/>
</g>
<!-- Node4 -->
<g id="node4" class="node">
<title>Node4</title>
<g id="a_node4"><a xlink:href="classfspm_1_1config_1_1params_1_1Parameter_a2dced470a20701940042f6dacad7f78e.html#a2dced470a20701940042f6dacad7f78e" target="_top" xlink:title=" ">
<polygon fill="none" stroke="black" points="891,-91.5 891,-121.5 1071,-121.5 1071,-91.5 891,-91.5"/>
<text text-anchor="start" x="899" y="-109.5" font-family="Helvetica,sans-Serif" font-size="10.00">fspm.config.params.Parameter.as</text>
<text text-anchor="middle" x="981" y="-98.5" font-family="Helvetica,sans-Serif" font-size="10.00">Array</text>
</a>
</g>
</g>
<!-- Node3&#45;&gt;Node4 -->
<g id="edge3" class="edge">
<title>Node3&#45;&gt;Node4</title>
<path fill="none" stroke="midnightblue" d="M817.08,-105.81C837.15,-105.89 859.28,-105.99 880.59,-106.08"/>
<polygon fill="midnightblue" stroke="midnightblue" points="880.62,-109.58 890.64,-106.12 880.65,-102.58 880.62,-109.58"/>
</g>
<!-- Node7 -->
<g id="node7" class="node">
<title>Node7</title>
<g id="a_node7"><a xlink:href="classfspm_1_1config_1_1params_1_1ParamCategory_ac81e6b98fa48fc3426eed6f60e81da5b.html#ac81e6b98fa48fc3426eed6f60e81da5b" target="_top" xlink:title="Get generic Parameter with the given key.">
<polygon fill="none" stroke="black" points="907.5,-42.5 907.5,-72.5 1054.5,-72.5 1054.5,-42.5 907.5,-42.5"/>
<text text-anchor="start" x="915.5" y="-60.5" font-family="Helvetica,sans-Serif" font-size="10.00">fspm.config.params.Param</text>
<text text-anchor="middle" x="981" y="-49.5" font-family="Helvetica,sans-Serif" font-size="10.00">Category.getParameter</text>
</a>
</g>
</g>
<!-- Node3&#45;&gt;Node7 -->
<g id="edge6" class="edge">
<title>Node3&#45;&gt;Node7</title>
<path fill="none" stroke="midnightblue" d="M817.08,-90.71C842.48,-85.53 871.2,-79.68 897.36,-74.34"/>
<polygon fill="midnightblue" stroke="midnightblue" points="898.16,-77.75 907.25,-72.33 896.76,-70.89 898.16,-77.75"/>
</g>
<!-- Node5 -->
<g id="node5" class="node">
<title>Node5</title>
<g id="a_node5"><a xlink:href="classfspm_1_1util_1_1KeyElement_a653aac67328f98c1201974736671fe0d.html#a653aac67328f98c1201974736671fe0d" target="_top" xlink:title=" ">
<polygon fill="none" stroke="black" points="1126.5,-54 1126.5,-73 1284.5,-73 1284.5,-54 1126.5,-54"/>
<text text-anchor="middle" x="1205.5" y="-61" font-family="Helvetica,sans-Serif" font-size="10.00">fspm.util.KeyElement.getKey</text>
</a>
</g>
</g>
<!-- Node4&#45;&gt;Node5 -->
<g id="edge4" class="edge">
<title>Node4&#45;&gt;Node5</title>
<path fill="none" stroke="midnightblue" d="M1059.82,-91.46C1087.81,-86.05 1118.91,-80.04 1145.08,-74.98"/>
<polygon fill="midnightblue" stroke="midnightblue" points="1146.07,-78.36 1155.23,-73.02 1144.75,-71.48 1146.07,-78.36"/>
</g>
<!-- Node6 -->
<g id="node6" class="node">
<title>Node6</title>
<g id="a_node6"><a xlink:href="classfspm_1_1config_1_1params_1_1Parameter_a2fd72835a908354fea23f92e3f3b1800.html#a2fd72835a908354fea23f92e3f3b1800" target="_top" xlink:title=" ">
<polygon fill="none" stroke="black" points="1107,-97 1107,-116 1304,-116 1304,-97 1107,-97"/>
<text text-anchor="middle" x="1205.5" y="-104" font-family="Helvetica,sans-Serif" font-size="10.00">fspm.config.params.Parameter.isNull</text>
</a>
</g>
</g>
<!-- Node4&#45;&gt;Node6 -->
<g id="edge5" class="edge">
<title>Node4&#45;&gt;Node6</title>
<path fill="none" stroke="midnightblue" d="M1071.22,-106.5C1079.65,-106.5 1088.25,-106.5 1096.83,-106.5"/>
<polygon fill="midnightblue" stroke="midnightblue" points="1096.87,-110 1106.87,-106.5 1096.87,-103 1096.87,-110"/>
</g>
<!-- Node7&#45;&gt;Node5 -->
<g id="edge7" class="edge">
<title>Node7&#45;&gt;Node5</title>
<path fill="none" stroke="midnightblue" d="M1054.55,-59.46C1074.18,-59.99 1095.66,-60.56 1116.06,-61.12"/>
<polygon fill="midnightblue" stroke="midnightblue" points="1116.21,-64.62 1126.3,-61.39 1116.4,-57.62 1116.21,-64.62"/>
</g>
<!-- Node8&#45;&gt;Node7 -->
<g id="edge11" class="edge">
<title>Node8&#45;&gt;Node7</title>
<path fill="none" stroke="midnightblue" d="M596.05,-56.7C684.43,-56.89 813.55,-57.15 897.18,-57.33"/>
<polygon fill="midnightblue" stroke="midnightblue" points="897.39,-60.83 907.4,-57.35 897.41,-53.83 897.39,-60.83"/>
</g>
<!-- Node9 -->
<g id="node9" class="node">
<title>Node9</title>
<g id="a_node9"><a xlink:href="classfspm_1_1config_1_1params_1_1hierarchy_1_1CategoryHierarchy_a9c1b08f5e63a4e2ae1092e048db34237.html#a9c1b08f5e63a4e2ae1092e048db34237" target="_top" xlink:title=" ">
<polygon fill="none" stroke="black" points="632,-0.5 632,-30.5 855,-30.5 855,-0.5 632,-0.5"/>
<text text-anchor="start" x="640" y="-18.5" font-family="Helvetica,sans-Serif" font-size="10.00">fspm.config.params.hierarchy.</text>
<text text-anchor="middle" x="743.5" y="-7.5" font-family="Helvetica,sans-Serif" font-size="10.00">CategoryHierarchy.getCategoryWithParam</text>
</a>
</g>
</g>
<!-- Node8&#45;&gt;Node9 -->
<g id="edge9" class="edge">
<title>Node8&#45;&gt;Node9</title>
<path fill="none" stroke="midnightblue" d="M596.29,-40.12C611.72,-37.52 627.7,-34.83 643.17,-32.22"/>
<polygon fill="midnightblue" stroke="midnightblue" points="643.98,-35.64 653.26,-30.53 642.82,-28.74 643.98,-35.64"/>
</g>
<!-- Node9&#45;&gt;Node7 -->
<g id="edge10" class="edge">
<title>Node9&#45;&gt;Node7</title>
<path fill="none" stroke="midnightblue" d="M828.86,-30.54C851.06,-34.5 874.99,-38.77 897.12,-42.72"/>
<polygon fill="midnightblue" stroke="midnightblue" points="896.68,-46.2 907.14,-44.51 897.91,-39.3 896.68,-46.2"/>
</g>
</g>
</svg>
        <g id="navigator" transform="translate(0 0)" fill="#404254">
                <rect fill="#f2f5e9" fill-opacity="0.5" stroke="#606060" stroke-width=".5" x="0" y="0" width="60" height="60"/>
                <use id="zoomplus" xlink:href="#zoomPlus" x="17" y="9" onmousedown="handleZoom(evt,'in')"/>
                <use id="zoomminus" xlink:href="#zoomMin" x="42" y="9" onmousedown="handleZoom(evt,'out')"/>
                <use id="reset" xlink:href="#resetDef" x="30" y="36" onmousedown="handleReset()"/>
                <g id="arrowUp" xlink:href="#dirArrow" transform="translate(30 24)" onmousedown="handlePan(0,-1)">
                  <use xlink:href="#rim" fill="#404040">
                        <set attributeName="fill" to="#808080" begin="arrowUp.mouseover" end="arrowUp.mouseout"/>
                  </use>
                  <path fill="none" stroke="white" stroke-width="1.5" d="M0,-3.0v7 M-2.5,-0.5L0,-3.0L2.5,-0.5"/>
                </g>
                <g id="arrowRight" xlink:href="#dirArrow" transform="rotate(90) translate(36 -43)" onmousedown="handlePan(1,0)">
                  <use xlink:href="#rim" fill="#404040">
                        <set attributeName="fill" to="#808080" begin="arrowRight.mouseover" end="arrowRight.mouseout"/>
                  </use>
                  <path fill="none" stroke="white" stroke-width="1.5" d="M0,-3.0v7 M-2.5,-0.5L0,-3.0L2.5,-0.5"/>
                </g>
                <g id="arrowDown" xlink:href="#dirArrow" transform="rotate(180) translate(-30 -48)" onmousedown="handlePan(0,1)">
                  <use xlink:href="#rim" fill="#404040">
                        <set attributeName="fill" to="#808080" begin="arrowDown.mouseover" end="arrowDown.mouseout"/>
                  </use>
                  <path fill="none" stroke="white" stroke-width="1.5" d="M0,-3.0v7 M-2.5,-0.5L0,-3.0L2.5,-0.5"/>
                </g>
                <g id="arrowLeft" xlink:href="#dirArrow" transform="rotate(270) translate(-36 17)" onmousedown="handlePan(-1,0)">
                  <use xlink:href="#rim" fill="#404040">
                        <set attributeName="fill" to="#808080" begin="arrowLeft.mouseover" end="arrowLeft.mouseout"/>
                  </use>
                  <path fill="none" stroke="white" stroke-width="1.5" d="M0,-3.0v7 M-2.5,-0.5L0,-3.0L2.5,-0.5"/>
                </g>
        </g>
        <svg viewBox="0 0 15 15" width="100%" height="30px" preserveAspectRatio="xMaxYMin meet">
         <g id="arrow_out" transform="scale(0.3 0.3)">
          <a xlink:href="classfspm_1_1config_1_1params_1_1hierarchy_1_1CategoryHierarchy_ad3b6d28c086ea8df8940cbfd35a72022_ad3b6d28c086ea8df8940cbfd35a72022_cgraph_org.svg" target="_base">
           <rect id="button" ry="5" rx="5" y="6" x="6" height="38" width="38"
                fill="#f2f5e9" fill-opacity="0.5" stroke="#606060" stroke-width="1.0"/>
           <path id="arrow"
             d="M 11.500037,31.436501 C 11.940474,20.09759 22.043105,11.32322 32.158766,21.979434 L 37.068811,17.246167 C 37.068811,17.246167 37.088388,32 37.088388,32 L 22.160133,31.978069 C 22.160133,31.978069 26.997745,27.140456 26.997745,27.140456 C 18.528582,18.264221 13.291696,25.230495 11.500037,31.436501 z"
             style="fill:#404040;"/>
          </a>
         </g>
        </svg>
</svg>
