<?xml version="1.0" encoding="UTF-8" standalone="no"?>
<!DOCTYPE svg PUBLIC "-//W3C//DTD SVG 1.1//EN"
 "http://www.w3.org/Graphics/SVG/1.1/DTD/svg11.dtd">
<!-- Generated by graphviz version 2.43.0 (0)
 -->
<!-- Title: fspm.config.params.groups.DocumentCategoryNameGroup Pages: 1 -->
<svg width="643pt" height="1009pt"
 viewBox="0.00 0.00 643.00 1009.00" xmlns="http://www.w3.org/2000/svg" xmlns:xlink="http://www.w3.org/1999/xlink">
<g id="graph0" class="graph" transform="scale(1 1) rotate(0) translate(4 1005)">
<title>fspm.config.params.groups.DocumentCategoryNameGroup</title>
<!-- Node1 -->
<g id="node1" class="node">
<title>Node1</title>
<g id="a_node1"><a xlink:title="Represents and encapsulates access for the document&#45;category&#45;name format.">
<polygon fill="#bfbfbf" stroke="black" points="60,-0.5 60,-101.5 248,-101.5 248,-0.5 60,-0.5"/>
<text text-anchor="start" x="68" y="-89.5" font-family="Helvetica,sans-Serif" font-size="10.00">fspm.config.params.groups.</text>
<text text-anchor="middle" x="154" y="-78.5" font-family="Helvetica,sans-Serif" font-size="10.00">DocumentCategoryNameGroup</text>
<polyline fill="none" stroke="black" points="60,-71.5 248,-71.5 "/>
<text text-anchor="middle" x="154" y="-59.5" font-family="Helvetica,sans-Serif" font-size="10.00"> </text>
<polyline fill="none" stroke="black" points="60,-52.5 248,-52.5 "/>
<text text-anchor="start" x="68" y="-40.5" font-family="Helvetica,sans-Serif" font-size="10.00">+ DocumentCategoryNameGroup()</text>
<text text-anchor="start" x="68" y="-29.5" font-family="Helvetica,sans-Serif" font-size="10.00">+ getCategoryStore()</text>
<text text-anchor="start" x="68" y="-18.5" font-family="Helvetica,sans-Serif" font-size="10.00">+ toString()</text>
<text text-anchor="start" x="68" y="-7.5" font-family="Helvetica,sans-Serif" font-size="10.00">+ parse()</text>
</a>
</g>
</g>
<!-- Node2 -->
<g id="node2" class="node">
<title>Node2</title>
<g id="a_node2"><a xlink:href="classfspm_1_1config_1_1params_1_1groups_1_1ParamGroup.html" target="_top" xlink:title="Parameter configuration class for storing parameter categories.">
<polygon fill="none" stroke="black" points="0,-390.5 0,-458.5 152,-458.5 152,-390.5 0,-390.5"/>
<text text-anchor="start" x="8" y="-446.5" font-family="Helvetica,sans-Serif" font-size="10.00">fspm.config.params.groups.</text>
<text text-anchor="middle" x="76" y="-435.5" font-family="Helvetica,sans-Serif" font-size="10.00">ParamGroup</text>
<polyline fill="none" stroke="black" points="0,-428.5 152,-428.5 "/>
<text text-anchor="middle" x="76" y="-416.5" font-family="Helvetica,sans-Serif" font-size="10.00"> </text>
<polyline fill="none" stroke="black" points="0,-409.5 152,-409.5 "/>
<text text-anchor="start" x="8" y="-397.5" font-family="Helvetica,sans-Serif" font-size="10.00"># ParamGroup()</text>
</a>
</g>
</g>
<!-- Node2&#45;&gt;Node1 -->
<g id="edge1" class="edge">
<title>Node2&#45;&gt;Node1</title>
<path fill="none" stroke="midnightblue" d="M85.12,-380.05C99.71,-310.57 128.2,-174.86 143.57,-101.66"/>
<polygon fill="none" stroke="midnightblue" points="81.62,-379.7 82.99,-390.2 88.47,-381.14 81.62,-379.7"/>
</g>
<!-- Node3 -->
<g id="node3" class="node">
<title>Node3</title>
<g id="a_node3"><a xlink:href="classfspm_1_1util_1_1KeyElement.html" target="_top" xlink:title="Represents an element which contains a key.">
<polygon fill="none" stroke="black" points="47,-816.5 47,-884.5 169,-884.5 169,-816.5 47,-816.5"/>
<text text-anchor="middle" x="108" y="-872.5" font-family="Helvetica,sans-Serif" font-size="10.00">fspm.util.KeyElement</text>
<polyline fill="none" stroke="black" points="47,-865.5 169,-865.5 "/>
<text text-anchor="middle" x="108" y="-853.5" font-family="Helvetica,sans-Serif" font-size="10.00"> </text>
<polyline fill="none" stroke="black" points="47,-846.5 169,-846.5 "/>
<text text-anchor="start" x="55" y="-834.5" font-family="Helvetica,sans-Serif" font-size="10.00">+ KeyElement()</text>
<text text-anchor="start" x="55" y="-823.5" font-family="Helvetica,sans-Serif" font-size="10.00">+ getKey()</text>
</a>
</g>
</g>
<!-- Node3&#45;&gt;Node2 -->
<g id="edge2" class="edge">
<title>Node3&#45;&gt;Node2</title>
<path fill="none" stroke="midnightblue" d="M103.62,-806.19C100.69,-776.36 96.85,-735.8 94,-700 87.08,-613.12 80.88,-510.6 77.89,-458.9"/>
<polygon fill="none" stroke="midnightblue" points="100.15,-806.66 104.62,-816.27 107.12,-805.98 100.15,-806.66"/>
</g>
<!-- Node8 -->
<g id="node8" class="node">
<title>Node8</title>
<g id="a_node8"><a xlink:href="classfspm_1_1config_1_1params_1_1ParamCategory.html" target="_top" xlink:title="Stores Parameters that belong to a common category.">
<polygon fill="none" stroke="black" points="103.5,-477.5 103.5,-699.5 250.5,-699.5 250.5,-477.5 103.5,-477.5"/>
<text text-anchor="start" x="111.5" y="-687.5" font-family="Helvetica,sans-Serif" font-size="10.00">fspm.config.params.Param</text>
<text text-anchor="middle" x="177" y="-676.5" font-family="Helvetica,sans-Serif" font-size="10.00">Category</text>
<polyline fill="none" stroke="black" points="103.5,-669.5 250.5,-669.5 "/>
<text text-anchor="middle" x="177" y="-657.5" font-family="Helvetica,sans-Serif" font-size="10.00"> </text>
<polyline fill="none" stroke="black" points="103.5,-650.5 250.5,-650.5 "/>
<text text-anchor="start" x="111.5" y="-638.5" font-family="Helvetica,sans-Serif" font-size="10.00">+ ParamCategory()</text>
<text text-anchor="start" x="111.5" y="-627.5" font-family="Helvetica,sans-Serif" font-size="10.00">+ addParameter()</text>
<text text-anchor="start" x="111.5" y="-616.5" font-family="Helvetica,sans-Serif" font-size="10.00">+ setParameter()</text>
<text text-anchor="start" x="111.5" y="-605.5" font-family="Helvetica,sans-Serif" font-size="10.00">+ getBoolean()</text>
<text text-anchor="start" x="111.5" y="-594.5" font-family="Helvetica,sans-Serif" font-size="10.00">+ getString()</text>
<text text-anchor="start" x="111.5" y="-583.5" font-family="Helvetica,sans-Serif" font-size="10.00">+ getInteger()</text>
<text text-anchor="start" x="111.5" y="-572.5" font-family="Helvetica,sans-Serif" font-size="10.00">+ getDouble()</text>
<text text-anchor="start" x="111.5" y="-561.5" font-family="Helvetica,sans-Serif" font-size="10.00">+ getBooleanArray()</text>
<text text-anchor="start" x="111.5" y="-550.5" font-family="Helvetica,sans-Serif" font-size="10.00">+ getStringArray()</text>
<text text-anchor="start" x="111.5" y="-539.5" font-family="Helvetica,sans-Serif" font-size="10.00">+ getIntegerArray()</text>
<text text-anchor="start" x="111.5" y="-528.5" font-family="Helvetica,sans-Serif" font-size="10.00">+ getDoubleArray()</text>
<text text-anchor="start" x="111.5" y="-517.5" font-family="Helvetica,sans-Serif" font-size="10.00">+ isNull()</text>
<text text-anchor="start" x="111.5" y="-506.5" font-family="Helvetica,sans-Serif" font-size="10.00">+ getParameter()</text>
<text text-anchor="start" x="111.5" y="-495.5" font-family="Helvetica,sans-Serif" font-size="10.00">+ toString()</text>
<text text-anchor="start" x="111.5" y="-484.5" font-family="Helvetica,sans-Serif" font-size="10.00">~ getArray()</text>
</a>
</g>
</g>
<!-- Node3&#45;&gt;Node8 -->
<g id="edge9" class="edge">
<title>Node3&#45;&gt;Node8</title>
<path fill="none" stroke="midnightblue" d="M109.37,-806.06C110.99,-780.15 114.49,-746.8 122,-718 123.59,-711.9 125.43,-705.7 127.44,-699.51"/>
<polygon fill="none" stroke="midnightblue" points="105.86,-806.14 108.81,-816.32 112.85,-806.53 105.86,-806.14"/>
</g>
<!-- Node4 -->
<g id="node4" class="node">
<title>Node4</title>
<g id="a_node4"><a xlink:title=" ">
<polygon fill="none" stroke="#bfbfbf" points="151.5,-943.5 151.5,-1000.5 196.5,-1000.5 196.5,-943.5 151.5,-943.5"/>
<text text-anchor="middle" x="174" y="-988.5" font-family="Helvetica,sans-Serif" font-size="10.00">String</text>
<polyline fill="none" stroke="#bfbfbf" points="151.5,-981.5 196.5,-981.5 "/>
<text text-anchor="middle" x="174" y="-969.5" font-family="Helvetica,sans-Serif" font-size="10.00"> </text>
<polyline fill="none" stroke="#bfbfbf" points="151.5,-962.5 196.5,-962.5 "/>
<text text-anchor="middle" x="174" y="-950.5" font-family="Helvetica,sans-Serif" font-size="10.00"> </text>
</a>
</g>
</g>
<!-- Node4&#45;&gt;Node3 -->
<g id="edge3" class="edge">
<title>Node4&#45;&gt;Node3</title>
<path fill="none" stroke="#404040" d="M158.69,-943.28C150.83,-929.05 141.07,-911.38 132.22,-895.36"/>
<polygon fill="none" stroke="#404040" points="132.08,-895.09 125.67,-891.78 126.28,-884.59 132.68,-887.91 132.08,-895.09"/>
<text text-anchor="middle" x="159.5" y="-911.5" font-family="Helvetica,sans-Serif" font-size="10.00"> &#45;key</text>
</g>
<!-- Node6 -->
<g id="node6" class="node">
<title>Node6</title>
<g id="a_node6"><a xlink:href="classfspm_1_1config_1_1params_1_1structures_1_1ParamStructure.html" target="_top" xlink:title="Represents a structure found in ParamGroups that store parameters.">
<polygon fill="none" stroke="black" points="123,-718.5 123,-797.5 291,-797.5 291,-718.5 123,-718.5"/>
<text text-anchor="start" x="131" y="-785.5" font-family="Helvetica,sans-Serif" font-size="10.00">fspm.config.params.structures.</text>
<text text-anchor="middle" x="207" y="-774.5" font-family="Helvetica,sans-Serif" font-size="10.00">ParamStructure</text>
<polyline fill="none" stroke="black" points="123,-767.5 291,-767.5 "/>
<text text-anchor="middle" x="207" y="-755.5" font-family="Helvetica,sans-Serif" font-size="10.00"> </text>
<polyline fill="none" stroke="black" points="123,-748.5 291,-748.5 "/>
<text text-anchor="start" x="131" y="-736.5" font-family="Helvetica,sans-Serif" font-size="10.00">+ ParamStructure()</text>
<text text-anchor="start" x="131" y="-725.5" font-family="Helvetica,sans-Serif" font-size="10.00">+ getGroupKey()</text>
</a>
</g>
</g>
<!-- Node4&#45;&gt;Node6 -->
<g id="edge6" class="edge">
<title>Node4&#45;&gt;Node6</title>
<path fill="none" stroke="#404040" d="M178.31,-943.28C183.58,-909.47 192.58,-851.65 199.1,-809.78"/>
<polygon fill="none" stroke="#404040" points="199.1,-809.74 196.07,-803.19 200.95,-797.88 203.98,-804.42 199.1,-809.74"/>
<text text-anchor="middle" x="211.5" y="-911.5" font-family="Helvetica,sans-Serif" font-size="10.00"> &#45;groupKey</text>
</g>
<!-- Node5 -->
<g id="node5" class="node">
<title>Node5</title>
<g id="a_node5"><a xlink:href="classfspm_1_1config_1_1params_1_1structures_1_1CategoryStore.html" target="_top" xlink:title="Represents the collection of categories in a document.">
<polygon fill="none" stroke="black" points="211,-149.5 211,-371.5 379,-371.5 379,-149.5 211,-149.5"/>
<text text-anchor="start" x="219" y="-359.5" font-family="Helvetica,sans-Serif" font-size="10.00">fspm.config.params.structures.</text>
<text text-anchor="middle" x="295" y="-348.5" font-family="Helvetica,sans-Serif" font-size="10.00">CategoryStore</text>
<polyline fill="none" stroke="black" points="211,-341.5 379,-341.5 "/>
<text text-anchor="middle" x="295" y="-329.5" font-family="Helvetica,sans-Serif" font-size="10.00"> </text>
<polyline fill="none" stroke="black" points="211,-322.5 379,-322.5 "/>
<text text-anchor="start" x="219" y="-310.5" font-family="Helvetica,sans-Serif" font-size="10.00">+ CategoryStore()</text>
<text text-anchor="start" x="219" y="-299.5" font-family="Helvetica,sans-Serif" font-size="10.00">+ addCategory()</text>
<text text-anchor="start" x="219" y="-288.5" font-family="Helvetica,sans-Serif" font-size="10.00">+ getCategory()</text>
<text text-anchor="start" x="219" y="-277.5" font-family="Helvetica,sans-Serif" font-size="10.00">+ getCategoryWithParam()</text>
<text text-anchor="start" x="219" y="-266.5" font-family="Helvetica,sans-Serif" font-size="10.00">+ setCategoryContext()</text>
<text text-anchor="start" x="219" y="-255.5" font-family="Helvetica,sans-Serif" font-size="10.00">+ getBoolean()</text>
<text text-anchor="start" x="219" y="-244.5" font-family="Helvetica,sans-Serif" font-size="10.00">+ getString()</text>
<text text-anchor="start" x="219" y="-233.5" font-family="Helvetica,sans-Serif" font-size="10.00">+ getInteger()</text>
<text text-anchor="start" x="219" y="-222.5" font-family="Helvetica,sans-Serif" font-size="10.00">+ getDouble()</text>
<text text-anchor="start" x="219" y="-211.5" font-family="Helvetica,sans-Serif" font-size="10.00">+ getBooleanArray()</text>
<text text-anchor="start" x="219" y="-200.5" font-family="Helvetica,sans-Serif" font-size="10.00">and 18 more...</text>
<text text-anchor="start" x="219" y="-189.5" font-family="Helvetica,sans-Serif" font-size="10.00">+ parse()</text>
<text text-anchor="start" x="219" y="-178.5" font-family="Helvetica,sans-Serif" font-size="10.00">~ getArray()</text>
<text text-anchor="start" x="219" y="-167.5" font-family="Helvetica,sans-Serif" font-size="10.00">~ getArray()</text>
<text text-anchor="start" x="219" y="-156.5" font-family="Helvetica,sans-Serif" font-size="10.00">&#45; validateFlattenedAccess()</text>
</a>
</g>
</g>
<!-- Node5&#45;&gt;Node1 -->
<g id="edge4" class="edge">
<title>Node5&#45;&gt;Node1</title>
<path fill="none" stroke="#404040" d="M220.17,-149.37C211.4,-136.47 202.72,-123.69 194.67,-111.86"/>
<polygon fill="none" stroke="#404040" points="194.53,-111.64 187.85,-108.93 187.78,-101.72 194.46,-104.43 194.53,-111.64"/>
<text text-anchor="middle" x="241" y="-123" font-family="Helvetica,sans-Serif" font-size="10.00"> &#45;categoryStore</text>
</g>
<!-- Node6&#45;&gt;Node5 -->
<g id="edge5" class="edge">
<title>Node6&#45;&gt;Node5</title>
<path fill="none" stroke="midnightblue" d="M254.69,-710.01C256.7,-706.76 258.5,-703.42 260,-700 284.98,-643.2 292.35,-481.83 294.4,-371.52"/>
<polygon fill="none" stroke="midnightblue" points="251.73,-708.13 248.94,-718.35 257.5,-712.11 251.73,-708.13"/>
</g>
<!-- Node7 -->
<g id="node7" class="node">
<title>Node7</title>
<g id="a_node7"><a xlink:title=" ">
<polygon fill="none" stroke="#bfbfbf" points="531.5,-560 531.5,-617 630.5,-617 630.5,-560 531.5,-560"/>
<text text-anchor="middle" x="581" y="-605" font-family="Helvetica,sans-Serif" font-size="10.00">static final String</text>
<polyline fill="none" stroke="#bfbfbf" points="531.5,-598 630.5,-598 "/>
<text text-anchor="middle" x="581" y="-586" font-family="Helvetica,sans-Serif" font-size="10.00"> </text>
<polyline fill="none" stroke="#bfbfbf" points="531.5,-579 630.5,-579 "/>
<text text-anchor="middle" x="581" y="-567" font-family="Helvetica,sans-Serif" font-size="10.00"> </text>
</a>
</g>
</g>
<!-- Node7&#45;&gt;Node5 -->
<g id="edge7" class="edge">
<title>Node7&#45;&gt;Node5</title>
<path fill="none" stroke="#404040" d="M569.84,-559.99C552.52,-519.59 516.2,-443.24 469,-390 446.04,-364.1 417.05,-340.19 389.36,-320.19"/>
<polygon fill="none" stroke="#404040" points="389.01,-319.95 381.81,-319.74 379.23,-313.01 386.43,-313.22 389.01,-319.95"/>
<text text-anchor="middle" x="575.5" y="-422" font-family="Helvetica,sans-Serif" font-size="10.00"> +CATEGORIES_HEADER</text>
</g>
<!-- Node8&#45;&gt;Node5 -->
<g id="edge8" class="edge">
<title>Node8&#45;&gt;Node5</title>
<path fill="none" stroke="#404040" d="M162.84,-477.47C162.85,-448.24 166.39,-417.24 177,-390 183.25,-373.95 192.55,-358.69 203.23,-344.66"/>
<polygon fill="none" stroke="#404040" points="203.34,-344.52 203.96,-337.34 210.83,-335.14 210.21,-342.33 203.34,-344.52"/>
<text text-anchor="middle" x="221" y="-422" font-family="Helvetica,sans-Serif" font-size="10.00"> &#45;categoryContext</text>
</g>
<!-- Node9 -->
<g id="node9" class="node">
<title>Node9</title>
<g id="a_node9"><a xlink:title=" ">
<polygon fill="none" stroke="#bfbfbf" points="226.5,-816.5 226.5,-884.5 409.5,-884.5 409.5,-816.5 226.5,-816.5"/>
<text text-anchor="start" x="234.5" y="-872.5" font-family="Helvetica,sans-Serif" font-size="10.00">Map&lt; String, fspm.config.params.</text>
<text text-anchor="middle" x="318" y="-861.5" font-family="Helvetica,sans-Serif" font-size="10.00">Parameter &gt;</text>
<polyline fill="none" stroke="#bfbfbf" points="226.5,-854.5 409.5,-854.5 "/>
<text text-anchor="middle" x="318" y="-842.5" font-family="Helvetica,sans-Serif" font-size="10.00"> </text>
<polyline fill="none" stroke="#bfbfbf" points="226.5,-835.5 409.5,-835.5 "/>
<text text-anchor="middle" x="318" y="-823.5" font-family="Helvetica,sans-Serif" font-size="10.00"> </text>
</a>
</g>
</g>
<!-- Node9&#45;&gt;Node8 -->
<g id="edge10" class="edge">
<title>Node9&#45;&gt;Node8</title>
<path fill="none" stroke="#404040" d="M313.51,-816.46C308.64,-783.35 300.44,-734.92 292,-718 283.26,-700.47 271.48,-683.51 258.77,-667.97"/>
<polygon fill="none" stroke="#404040" points="258.51,-667.66 251.58,-665.65 250.77,-658.49 257.69,-660.49 258.51,-667.66"/>
<text text-anchor="middle" x="332" y="-755.5" font-family="Helvetica,sans-Serif" font-size="10.00"> &#45;params</text>
</g>
<!-- Node10 -->
<g id="node10" class="node">
<title>Node10</title>
<g id="a_node10"><a xlink:title=" ">
<polygon fill="none" stroke="#bfbfbf" points="367,-943.5 367,-1000.5 405,-1000.5 405,-943.5 367,-943.5"/>
<text text-anchor="middle" x="386" y="-988.5" font-family="Helvetica,sans-Serif" font-size="10.00">Map</text>
<polyline fill="none" stroke="#bfbfbf" points="367,-981.5 405,-981.5 "/>
<text text-anchor="middle" x="386" y="-969.5" font-family="Helvetica,sans-Serif" font-size="10.00"> </text>
<polyline fill="none" stroke="#bfbfbf" points="367,-962.5 405,-962.5 "/>
<text text-anchor="middle" x="386" y="-950.5" font-family="Helvetica,sans-Serif" font-size="10.00"> </text>
</a>
</g>
</g>
<!-- Node10&#45;&gt;Node9 -->
<g id="edge11" class="edge">
<title>Node10&#45;&gt;Node9</title>
<path fill="none" stroke="orange" d="M357.79,-958.54C344.16,-950.94 329.05,-939.8 321,-925 314.41,-912.88 312.85,-897.91 313.24,-884.64"/>
<polygon fill="orange" stroke="orange" points="356.4,-961.76 366.89,-963.24 359.61,-955.54 356.4,-961.76"/>
<text text-anchor="start" x="321" y="-917" font-family="Helvetica,sans-Serif" font-size="10.00"> &lt; String, fspm::config</text>
<text text-anchor="middle" x="376.5" y="-906" font-family="Helvetica,sans-Serif" font-size="10.00">::params::Parameter &gt;</text>
</g>
<!-- Node11 -->
<g id="node11" class="node">
<title>Node11</title>
<g id="a_node11"><a xlink:title=" ">
<polygon fill="none" stroke="#bfbfbf" points="363.5,-724 363.5,-792 546.5,-792 546.5,-724 363.5,-724"/>
<text text-anchor="start" x="371.5" y="-780" font-family="Helvetica,sans-Serif" font-size="10.00">Map&lt; String, fspm.config.params.</text>
<text text-anchor="middle" x="455" y="-769" font-family="Helvetica,sans-Serif" font-size="10.00">ParamCategory &gt;</text>
<polyline fill="none" stroke="#bfbfbf" points="363.5,-762 546.5,-762 "/>
<text text-anchor="middle" x="455" y="-750" font-family="Helvetica,sans-Serif" font-size="10.00"> </text>
<polyline fill="none" stroke="#bfbfbf" points="363.5,-743 546.5,-743 "/>
<text text-anchor="middle" x="455" y="-731" font-family="Helvetica,sans-Serif" font-size="10.00"> </text>
</a>
</g>
</g>
<!-- Node10&#45;&gt;Node11 -->
<g id="edge13" class="edge">
<title>Node10&#45;&gt;Node11</title>
<path fill="none" stroke="orange" d="M412.98,-949.79C420.28,-942.69 427.42,-934.21 432,-925 453.05,-882.67 456.65,-827.19 456.46,-792.32"/>
<polygon fill="orange" stroke="orange" points="410.16,-947.61 405.1,-956.92 414.86,-952.8 410.16,-947.61"/>
<text text-anchor="start" x="440" y="-917" font-family="Helvetica,sans-Serif" font-size="10.00"> &lt; String, fspm::config</text>
<text text-anchor="middle" x="508" y="-906" font-family="Helvetica,sans-Serif" font-size="10.00">::params::ParamCategory &gt;</text>
</g>
<!-- Node11&#45;&gt;Node5 -->
<g id="edge12" class="edge">
<title>Node11&#45;&gt;Node5</title>
<path fill="none" stroke="#404040" d="M457.02,-723.84C461.3,-644.97 468.78,-448.45 441,-390 429.01,-364.76 409.51,-342.41 388.62,-323.72"/>
<polygon fill="none" stroke="#404040" points="388.36,-323.5 381.2,-322.61 379.27,-315.67 386.43,-316.55 388.36,-323.5"/>
<text text-anchor="middle" x="490" y="-586" font-family="Helvetica,sans-Serif" font-size="10.00"> &#45;categories</text>
</g>
<!-- Node12 -->
<g id="node12" class="node">
<title>Node12</title>
<g id="a_node12"><a xlink:title=" ">
<polygon fill="none" stroke="#bfbfbf" points="307,-560 307,-617 363,-617 363,-560 307,-560"/>
<text text-anchor="middle" x="335" y="-605" font-family="Helvetica,sans-Serif" font-size="10.00">boolean</text>
<polyline fill="none" stroke="#bfbfbf" points="307,-598 363,-598 "/>
<text text-anchor="middle" x="335" y="-586" font-family="Helvetica,sans-Serif" font-size="10.00"> </text>
<polyline fill="none" stroke="#bfbfbf" points="307,-579 363,-579 "/>
<text text-anchor="middle" x="335" y="-567" font-family="Helvetica,sans-Serif" font-size="10.00"> </text>
</a>
</g>
</g>
<!-- Node12&#45;&gt;Node5 -->
<g id="edge14" class="edge">
<title>Node12&#45;&gt;Node5</title>
<path fill="none" stroke="#404040" d="M329.6,-559.77C324.71,-533.81 317.57,-493.9 313,-459 309.82,-434.72 307.02,-408.69 304.63,-383.76"/>
<polygon fill="none" stroke="#404040" points="304.61,-383.57 300.07,-377.97 303.49,-371.62 308.03,-377.22 304.61,-383.57"/>
<text text-anchor="middle" x="377" y="-422" font-family="Helvetica,sans-Serif" font-size="10.00"> +useFlattenedCategories</text>
</g>
</g>
</svg>
