<?xml version="1.0" encoding="UTF-8" standalone="no"?>
<!DOCTYPE svg PUBLIC "-//W3C//DTD SVG 1.1//EN"
 "http://www.w3.org/Graphics/SVG/1.1/DTD/svg11.dtd">
<!-- Generated by graphviz version 2.43.0 (0)
 -->
<!-- Title: fspm.config.params.ParamFactory.parseParameter Pages: 1 -->
<svg width="810pt" height="88pt"
 viewBox="0.00 0.00 810.00 88.00" xmlns="http://www.w3.org/2000/svg" xmlns:xlink="http://www.w3.org/1999/xlink">
<g id="graph0" class="graph" transform="scale(1 1) rotate(0) translate(4 84)">
<title>fspm.config.params.ParamFactory.parseParameter</title>
<!-- Node1 -->
<g id="node1" class="node">
<title>Node1</title>
<g id="a_node1"><a xlink:title="Returns a concrete Parameter instance depending on the data type of the JsonNode passed in.">
<polygon fill="#bfbfbf" stroke="black" points="655,-24.5 655,-54.5 802,-54.5 802,-24.5 655,-24.5"/>
<text text-anchor="start" x="663" y="-42.5" font-family="Helvetica,sans-Serif" font-size="10.00">fspm.config.params.Param</text>
<text text-anchor="middle" x="728.5" y="-31.5" font-family="Helvetica,sans-Serif" font-size="10.00">Factory.parseParameter</text>
</a>
</g>
</g>
<!-- Node2 -->
<g id="node2" class="node">
<title>Node2</title>
<g id="a_node2"><a xlink:href="classfspm_1_1config_1_1params_1_1hierarchy_1_1CategoryHierarchy_ace6e5895f31f542bd87cd5b9650577b8.html#ace6e5895f31f542bd87cd5b9650577b8" target="_top" xlink:title=" ">
<polygon fill="none" stroke="black" points="455,-49.5 455,-79.5 619,-79.5 619,-49.5 455,-49.5"/>
<text text-anchor="start" x="463" y="-67.5" font-family="Helvetica,sans-Serif" font-size="10.00">fspm.config.params.hierarchy.</text>
<text text-anchor="middle" x="537" y="-56.5" font-family="Helvetica,sans-Serif" font-size="10.00">CategoryHierarchy.parse</text>
</a>
</g>
</g>
<!-- Node1&#45;&gt;Node2 -->
<g id="edge1" class="edge">
<title>Node1&#45;&gt;Node2</title>
<path fill="none" stroke="midnightblue" d="M644.82,-50.41C636.27,-51.54 627.58,-52.68 619.05,-53.81"/>
<polygon fill="midnightblue" stroke="midnightblue" points="645.32,-53.87 654.78,-49.09 644.4,-46.93 645.32,-53.87"/>
</g>
<!-- Node6 -->
<g id="node6" class="node">
<title>Node6</title>
<g id="a_node6"><a xlink:href="classfspm_1_1config_1_1params_1_1hierarchy_1_1TableHierarchy_a43301537b61d4e184566f4518c9c8bc7.html#a43301537b61d4e184566f4518c9c8bc7" target="_top" xlink:title=" ">
<polygon fill="none" stroke="black" points="455,-0.5 455,-30.5 619,-30.5 619,-0.5 455,-0.5"/>
<text text-anchor="start" x="463" y="-18.5" font-family="Helvetica,sans-Serif" font-size="10.00">fspm.config.params.hierarchy.</text>
<text text-anchor="middle" x="537" y="-7.5" font-family="Helvetica,sans-Serif" font-size="10.00">TableHierarchy.parse</text>
</a>
</g>
</g>
<!-- Node1&#45;&gt;Node6 -->
<g id="edge6" class="edge">
<title>Node1&#45;&gt;Node6</title>
<path fill="none" stroke="midnightblue" d="M644.82,-29.03C636.27,-27.95 627.58,-26.85 619.05,-25.77"/>
<polygon fill="midnightblue" stroke="midnightblue" points="644.42,-32.51 654.78,-30.29 645.3,-25.56 644.42,-32.51"/>
</g>
<!-- Node3 -->
<g id="node3" class="node">
<title>Node3</title>
<g id="a_node3"><a xlink:href="classfspm_1_1config_1_1adapters_1_1handlers_1_1DocumentCategoryNameHandler_a14c971bed31f4417a5cf1b7341971fff.html#a14c971bed31f4417a5cf1b7341971fff" target="_top" xlink:title=" ">
<polygon fill="none" stroke="black" points="195,-49.5 195,-79.5 403,-79.5 403,-49.5 195,-49.5"/>
<text text-anchor="start" x="203" y="-67.5" font-family="Helvetica,sans-Serif" font-size="10.00">fspm.config.adapters.handlers.</text>
<text text-anchor="middle" x="299" y="-56.5" font-family="Helvetica,sans-Serif" font-size="10.00">DocumentCategoryNameHandler.parse</text>
</a>
</g>
</g>
<!-- Node2&#45;&gt;Node3 -->
<g id="edge2" class="edge">
<title>Node2&#45;&gt;Node3</title>
<path fill="none" stroke="midnightblue" d="M444.5,-64.5C430.92,-64.5 416.84,-64.5 403.04,-64.5"/>
<polygon fill="midnightblue" stroke="midnightblue" points="444.78,-68 454.78,-64.5 444.78,-61 444.78,-68"/>
</g>
<!-- Node5 -->
<g id="node5" class="node">
<title>Node5</title>
<g id="a_node5"><a xlink:href="classfspm_1_1config_1_1adapters_1_1handlers_1_1DocumentHybridCategoryNameHandler_a2f0e1a530f1048eeabf572e5108cd1f1.html#a2f0e1a530f1048eeabf572e5108cd1f1" target="_top" xlink:title=" ">
<polygon fill="none" stroke="black" points="179,-0.5 179,-30.5 419,-30.5 419,-0.5 179,-0.5"/>
<text text-anchor="start" x="187" y="-18.5" font-family="Helvetica,sans-Serif" font-size="10.00">fspm.config.adapters.handlers.</text>
<text text-anchor="middle" x="299" y="-7.5" font-family="Helvetica,sans-Serif" font-size="10.00">DocumentHybridCategoryNameHandler.parse</text>
</a>
</g>
</g>
<!-- Node2&#45;&gt;Node5 -->
<g id="edge4" class="edge">
<title>Node2&#45;&gt;Node5</title>
<path fill="none" stroke="midnightblue" d="M453.58,-47.39C427.1,-41.89 397.97,-35.84 372.27,-30.51"/>
<polygon fill="midnightblue" stroke="midnightblue" points="453.09,-50.86 463.59,-49.47 454.51,-44.01 453.09,-50.86"/>
</g>
<!-- Node4 -->
<g id="node4" class="node">
<title>Node4</title>
<g id="a_node4"><a xlink:href="classfspm_1_1config_1_1adapters_1_1JsonFileReader_a66baa6fc9e08972e7a71cac73d560312.html#a66baa6fc9e08972e7a71cac73d560312" target="_top" xlink:title="Parses and returns a ParamGroup with the parameter contents of the provided file.">
<polygon fill="none" stroke="black" points="0,-24.5 0,-54.5 143,-54.5 143,-24.5 0,-24.5"/>
<text text-anchor="start" x="8" y="-42.5" font-family="Helvetica,sans-Serif" font-size="10.00">fspm.config.adapters.Json</text>
<text text-anchor="middle" x="71.5" y="-31.5" font-family="Helvetica,sans-Serif" font-size="10.00">FileReader.parse</text>
</a>
</g>
</g>
<!-- Node3&#45;&gt;Node4 -->
<g id="edge3" class="edge">
<title>Node3&#45;&gt;Node4</title>
<path fill="none" stroke="midnightblue" d="M184.54,-51.92C170.4,-50.35 156.28,-48.79 143.06,-47.32"/>
<polygon fill="midnightblue" stroke="midnightblue" points="184.49,-55.44 194.82,-53.06 185.27,-48.48 184.49,-55.44"/>
</g>
<!-- Node5&#45;&gt;Node4 -->
<g id="edge5" class="edge">
<title>Node5&#45;&gt;Node4</title>
<path fill="none" stroke="midnightblue" d="M168.94,-29.24C160.08,-30.18 151.37,-31.11 143.02,-31.99"/>
<polygon fill="midnightblue" stroke="midnightblue" points="169.4,-32.71 178.98,-28.17 168.66,-25.75 169.4,-32.71"/>
</g>
<!-- Node6&#45;&gt;Node5 -->
<g id="edge7" class="edge">
<title>Node6&#45;&gt;Node5</title>
<path fill="none" stroke="midnightblue" d="M444.72,-15.5C436.39,-15.5 427.87,-15.5 419.33,-15.5"/>
<polygon fill="midnightblue" stroke="midnightblue" points="444.78,-19 454.78,-15.5 444.78,-12 444.78,-19"/>
</g>
</g>
</svg>
