<?xml version="1.0" encoding="UTF-8" standalone="no"?>
<!DOCTYPE svg PUBLIC "-//W3C//DTD SVG 1.1//EN"
 "http://www.w3.org/Graphics/SVG/1.1/DTD/svg11.dtd">
<!-- Generated by graphviz version 2.43.0 (0)
 -->
<!-- Title: fspm.config.params.structures.CategoryStore.getBoolean Pages: 1 -->
<svg width="1087pt" height="165pt"
 viewBox="0.00 0.00 1087.00 165.00" xmlns="http://www.w3.org/2000/svg" xmlns:xlink="http://www.w3.org/1999/xlink">
<g id="graph0" class="graph" transform="scale(1 1) rotate(0) translate(4 161)">
<title>fspm.config.params.structures.CategoryStore.getBoolean</title>
<!-- Node1 -->
<g id="node1" class="node">
<title>Node1</title>
<g id="a_node1"><a xlink:title=" ">
<polygon fill="#bfbfbf" stroke="black" points="0,-62.5 0,-92.5 168,-92.5 168,-62.5 0,-62.5"/>
<text text-anchor="start" x="8" y="-80.5" font-family="Helvetica,sans-Serif" font-size="10.00">fspm.config.params.structures.</text>
<text text-anchor="middle" x="84" y="-69.5" font-family="Helvetica,sans-Serif" font-size="10.00">CategoryStore.getBoolean</text>
</a>
</g>
</g>
<!-- Node2 -->
<g id="node2" class="node">
<title>Node2</title>
<g id="a_node2"><a xlink:href="classfspm_1_1config_1_1params_1_1ParamCategory_afa61ab695415b052569467d379bf4a07.html#afa61ab695415b052569467d379bf4a07" target="_top" xlink:title=" ">
<polygon fill="none" stroke="black" points="235,-87.5 235,-117.5 382,-117.5 382,-87.5 235,-87.5"/>
<text text-anchor="start" x="243" y="-105.5" font-family="Helvetica,sans-Serif" font-size="10.00">fspm.config.params.Param</text>
<text text-anchor="middle" x="308.5" y="-94.5" font-family="Helvetica,sans-Serif" font-size="10.00">Category.getBoolean</text>
</a>
</g>
</g>
<!-- Node1&#45;&gt;Node2 -->
<g id="edge1" class="edge">
<title>Node1&#45;&gt;Node2</title>
<path fill="none" stroke="midnightblue" d="M168.17,-86.84C186.6,-88.92 206.14,-91.11 224.56,-93.18"/>
<polygon fill="midnightblue" stroke="midnightblue" points="224.34,-96.68 234.67,-94.32 225.12,-89.72 224.34,-96.68"/>
</g>
<!-- Node7 -->
<g id="node7" class="node">
<title>Node7</title>
<g id="a_node7"><a xlink:href="classfspm_1_1config_1_1params_1_1structures_1_1CategoryStore_ae066b355d784560a9c277722940d3d4a.html#ae066b355d784560a9c277722940d3d4a" target="_top" xlink:title=" ">
<polygon fill="none" stroke="black" points="204,-38.5 204,-68.5 413,-68.5 413,-38.5 204,-38.5"/>
<text text-anchor="start" x="212" y="-56.5" font-family="Helvetica,sans-Serif" font-size="10.00">fspm.config.params.structures.</text>
<text text-anchor="middle" x="308.5" y="-45.5" font-family="Helvetica,sans-Serif" font-size="10.00">CategoryStore.validateFlattenedAccess</text>
</a>
</g>
</g>
<!-- Node1&#45;&gt;Node7 -->
<g id="edge6" class="edge">
<title>Node1&#45;&gt;Node7</title>
<path fill="none" stroke="midnightblue" d="M168.17,-68.53C176.51,-67.63 185.07,-66.71 193.66,-65.78"/>
<polygon fill="midnightblue" stroke="midnightblue" points="194.17,-69.25 203.73,-64.69 193.41,-62.29 194.17,-69.25"/>
</g>
<!-- Node3 -->
<g id="node3" class="node">
<title>Node3</title>
<g id="a_node3"><a xlink:href="classfspm_1_1config_1_1params_1_1Parameter_aef72ee875f0fbf9d900f71d5a96c64f3.html#aef72ee875f0fbf9d900f71d5a96c64f3" target="_top" xlink:title=" ">
<polygon fill="none" stroke="black" points="460.5,-126.5 460.5,-156.5 640.5,-156.5 640.5,-126.5 460.5,-126.5"/>
<text text-anchor="start" x="468.5" y="-144.5" font-family="Helvetica,sans-Serif" font-size="10.00">fspm.config.params.Parameter.as</text>
<text text-anchor="middle" x="550.5" y="-133.5" font-family="Helvetica,sans-Serif" font-size="10.00">Boolean</text>
</a>
</g>
</g>
<!-- Node2&#45;&gt;Node3 -->
<g id="edge2" class="edge">
<title>Node2&#45;&gt;Node3</title>
<path fill="none" stroke="midnightblue" d="M382.16,-114.31C403.55,-117.78 427.33,-121.65 450.1,-125.35"/>
<polygon fill="midnightblue" stroke="midnightblue" points="449.69,-128.83 460.12,-126.98 450.82,-121.92 449.69,-128.83"/>
</g>
<!-- Node5 -->
<g id="node5" class="node">
<title>Node5</title>
<g id="a_node5"><a xlink:href="classfspm_1_1config_1_1params_1_1ParamCategory_ac81e6b98fa48fc3426eed6f60e81da5b.html#ac81e6b98fa48fc3426eed6f60e81da5b" target="_top" xlink:title="Get generic Parameter with the given key.">
<polygon fill="none" stroke="black" points="713,-44.5 713,-74.5 860,-74.5 860,-44.5 713,-44.5"/>
<text text-anchor="start" x="721" y="-62.5" font-family="Helvetica,sans-Serif" font-size="10.00">fspm.config.params.Param</text>
<text text-anchor="middle" x="786.5" y="-51.5" font-family="Helvetica,sans-Serif" font-size="10.00">Category.getParameter</text>
</a>
</g>
</g>
<!-- Node2&#45;&gt;Node5 -->
<g id="edge4" class="edge">
<title>Node2&#45;&gt;Node5</title>
<path fill="none" stroke="midnightblue" d="M382.05,-95.95C468.26,-88.16 611.78,-75.19 702.38,-67.01"/>
<polygon fill="midnightblue" stroke="midnightblue" points="702.97,-70.47 712.61,-66.08 702.34,-63.5 702.97,-70.47"/>
</g>
<!-- Node4 -->
<g id="node4" class="node">
<title>Node4</title>
<g id="a_node4"><a xlink:href="classfspm_1_1config_1_1params_1_1Parameter_a2fd72835a908354fea23f92e3f3b1800.html#a2fd72835a908354fea23f92e3f3b1800" target="_top" xlink:title=" ">
<polygon fill="none" stroke="black" points="688,-132 688,-151 885,-151 885,-132 688,-132"/>
<text text-anchor="middle" x="786.5" y="-139" font-family="Helvetica,sans-Serif" font-size="10.00">fspm.config.params.Parameter.isNull</text>
</a>
</g>
</g>
<!-- Node3&#45;&gt;Node4 -->
<g id="edge3" class="edge">
<title>Node3&#45;&gt;Node4</title>
<path fill="none" stroke="midnightblue" d="M640.63,-141.5C652.64,-141.5 665.06,-141.5 677.36,-141.5"/>
<polygon fill="midnightblue" stroke="midnightblue" points="677.64,-145 687.64,-141.5 677.64,-138 677.64,-145"/>
</g>
<!-- Node6 -->
<g id="node6" class="node">
<title>Node6</title>
<g id="a_node6"><a xlink:href="classfspm_1_1util_1_1KeyElement_a653aac67328f98c1201974736671fe0d.html#a653aac67328f98c1201974736671fe0d" target="_top" xlink:title=" ">
<polygon fill="none" stroke="black" points="921,-50 921,-69 1079,-69 1079,-50 921,-50"/>
<text text-anchor="middle" x="1000" y="-57" font-family="Helvetica,sans-Serif" font-size="10.00">fspm.util.KeyElement.getKey</text>
</a>
</g>
</g>
<!-- Node5&#45;&gt;Node6 -->
<g id="edge5" class="edge">
<title>Node5&#45;&gt;Node6</title>
<path fill="none" stroke="midnightblue" d="M860.29,-59.5C876.42,-59.5 893.68,-59.5 910.36,-59.5"/>
<polygon fill="midnightblue" stroke="midnightblue" points="910.66,-63 920.66,-59.5 910.66,-56 910.66,-63"/>
</g>
<!-- Node7&#45;&gt;Node5 -->
<g id="edge9" class="edge">
<title>Node7&#45;&gt;Node5</title>
<path fill="none" stroke="midnightblue" d="M413.08,-54.81C499.89,-55.9 622.21,-57.44 702.63,-58.46"/>
<polygon fill="midnightblue" stroke="midnightblue" points="702.68,-61.96 712.72,-58.58 702.76,-54.96 702.68,-61.96"/>
</g>
<!-- Node8 -->
<g id="node8" class="node">
<title>Node8</title>
<g id="a_node8"><a xlink:href="classfspm_1_1config_1_1params_1_1structures_1_1CategoryStore_a05635b1745cfdb9ed85c076ee762cbdf.html#a05635b1745cfdb9ed85c076ee762cbdf" target="_top" xlink:title=" ">
<polygon fill="none" stroke="black" points="449,-0.5 449,-30.5 652,-30.5 652,-0.5 449,-0.5"/>
<text text-anchor="start" x="457" y="-18.5" font-family="Helvetica,sans-Serif" font-size="10.00">fspm.config.params.structures.</text>
<text text-anchor="middle" x="550.5" y="-7.5" font-family="Helvetica,sans-Serif" font-size="10.00">CategoryStore.getCategoryWithParam</text>
</a>
</g>
</g>
<!-- Node7&#45;&gt;Node8 -->
<g id="edge7" class="edge">
<title>Node7&#45;&gt;Node8</title>
<path fill="none" stroke="midnightblue" d="M404.35,-38.48C417.51,-36.4 431.09,-34.25 444.42,-32.14"/>
<polygon fill="midnightblue" stroke="midnightblue" points="445.22,-35.55 454.55,-30.53 444.12,-28.64 445.22,-35.55"/>
</g>
<!-- Node8&#45;&gt;Node5 -->
<g id="edge8" class="edge">
<title>Node8&#45;&gt;Node5</title>
<path fill="none" stroke="midnightblue" d="M631.38,-30.52C654.33,-34.83 679.4,-39.55 702.54,-43.9"/>
<polygon fill="midnightblue" stroke="midnightblue" points="702.19,-47.4 712.66,-45.8 703.48,-40.52 702.19,-47.4"/>
</g>
</g>
</svg>
