<?xml version="1.0" encoding="UTF-8" standalone="no"?>
<!DOCTYPE svg PUBLIC "-//W3C//DTD SVG 1.1//EN"
 "http://www.w3.org/Graphics/SVG/1.1/DTD/svg11.dtd">
<!-- Generated by graphviz version 2.43.0 (0)
 -->
<!-- Title: fspm.config.Config.getDouble Pages: 1 -->
<!--zoomable 264 -->
<svg id="main" version="1.1" xmlns="http://www.w3.org/2000/svg" xmlns:xlink="http://www.w3.org/1999/xlink" xml:space="preserve" onload="init(evt)">
<style type="text/css"><![CDATA[
.edge:hover path { stroke: red; }
.edge:hover polygon { stroke: red; fill: red; }
]]></style>
<script type="text/javascript"><![CDATA[
var edges = document.getElementsByTagName('g');
if (edges && edges.length) {
  for (var i=0;i<edges.length;i++) {
    if (edges[i].id.substr(0,4)=='edge') {
      edges[i].setAttribute('class','edge');
    }
  }
}
]]></script>
        <defs>
                <circle id="rim" cx="0" cy="0" r="7"/>
                <circle id="rim2" cx="0" cy="0" r="3.5"/>
                <g id="zoomPlus">
                        <use xlink:href="#rim" fill="#404040">
                                <set attributeName="fill" to="#808080" begin="zoomplus.mouseover" end="zoomplus.mouseout"/>
                        </use>
                        <path d="M-4,0h8M0,-4v8" fill="none" stroke="white" stroke-width="1.5" pointer-events="none"/>
                </g>
                <g id="zoomMin">
                        <use xlink:href="#rim" fill="#404040">
                                <set attributeName="fill" to="#808080" begin="zoomminus.mouseover" end="zoomminus.mouseout"/>
                        </use>
                        <path d="M-4,0h8" fill="none" stroke="white" stroke-width="1.5" pointer-events="none"/>
                </g>
                <g id="dirArrow">
                        <path fill="none" stroke="white" stroke-width="1.5" d="M0,-3.0v7 M-2.5,-0.5L0,-3.0L2.5,-0.5"/>
                </g>
               <g id="resetDef">
                       <use xlink:href="#rim2" fill="#404040">
                               <set attributeName="fill" to="#808080" begin="reset.mouseover" end="reset.mouseout"/>
                       </use>
               </g>
        </defs>

<script type="text/javascript">
var viewWidth = 1114;
var viewHeight = 264;
var sectionId = 'dynsection-0';
</script>
<script xlink:href="svgpan.js"/>
<svg id="graph" class="graph">
<g id="viewport">
<title>fspm.config.Config.getDouble</title>
<!-- Node1 -->
<g id="node1" class="node">
<title>Node1</title>
<g id="a_node1"><a xlink:title=" ">
<polygon fill="#bfbfbf" stroke="black" points="0,-96 0,-115 161,-115 161,-96 0,-96"/>
<text text-anchor="middle" x="80.5" y="-103" font-family="Helvetica,sans-Serif" font-size="10.00">fspm.config.Config.getDouble</text>
</a>
</g>
</g>
<!-- Node2 -->
<g id="node2" class="node">
<title>Node2</title>
<g id="a_node2"><a xlink:href="classfspm_1_1config_1_1Config_ae462a8b94814530c25f796f0b4f48115.html#ae462a8b94814530c25f796f0b4f48115" target="_top" xlink:title=" ">
<polygon fill="none" stroke="black" points="197,-96 197,-115 358,-115 358,-96 197,-96"/>
<text text-anchor="middle" x="277.5" y="-103" font-family="Helvetica,sans-Serif" font-size="10.00">fspm.config.Config.getDouble</text>
</a>
</g>
</g>
<!-- Node1&#45;&gt;Node2 -->
<g id="edge1" class="edge">
<title>Node1&#45;&gt;Node2</title>
<path fill="none" stroke="midnightblue" d="M161.1,-105.5C169.57,-105.5 178.24,-105.5 186.82,-105.5"/>
<polygon fill="midnightblue" stroke="midnightblue" points="186.84,-109 196.84,-105.5 186.84,-102 186.84,-109"/>
</g>
<!-- Node3 -->
<g id="node3" class="node">
<title>Node3</title>
<g id="a_node3"><a xlink:href="classfspm_1_1config_1_1Config_abce61aaf26cf14b4ae2204ff22c27b57.html#abce61aaf26cf14b4ae2204ff22c27b57" target="_top" xlink:title=" ">
<polygon fill="none" stroke="black" points="398,-137.5 398,-167.5 537,-167.5 537,-137.5 398,-137.5"/>
<text text-anchor="start" x="406" y="-155.5" font-family="Helvetica,sans-Serif" font-size="10.00">fspm.config.Config.check</text>
<text text-anchor="middle" x="467.5" y="-144.5" font-family="Helvetica,sans-Serif" font-size="10.00">ContextsExists</text>
</a>
</g>
</g>
<!-- Node2&#45;&gt;Node3 -->
<g id="edge2" class="edge">
<title>Node2&#45;&gt;Node3</title>
<path fill="none" stroke="midnightblue" d="M316.54,-115.01C339.48,-120.74 369.4,-128.22 396.48,-134.99"/>
<polygon fill="midnightblue" stroke="midnightblue" points="395.75,-138.42 406.3,-137.45 397.45,-131.63 395.75,-138.42"/>
</g>
<!-- Node10 -->
<g id="node10" class="node">
<title>Node10</title>
<g id="a_node10"><a xlink:href="classfspm_1_1config_1_1params_1_1ParamCategory_ad9163381c1dfed699d3d74b2d36c1893.html#ad9163381c1dfed699d3d74b2d36c1893" target="_top" xlink:title=" ">
<polygon fill="none" stroke="black" points="394,-44.5 394,-74.5 541,-74.5 541,-44.5 394,-44.5"/>
<text text-anchor="start" x="402" y="-62.5" font-family="Helvetica,sans-Serif" font-size="10.00">fspm.config.params.Param</text>
<text text-anchor="middle" x="467.5" y="-51.5" font-family="Helvetica,sans-Serif" font-size="10.00">Category.getDouble</text>
</a>
</g>
</g>
<!-- Node2&#45;&gt;Node10 -->
<g id="edge10" class="edge">
<title>Node2&#45;&gt;Node10</title>
<path fill="none" stroke="midnightblue" d="M317.45,-95.97C339.87,-90.49 368.72,-83.42 395.07,-76.98"/>
<polygon fill="midnightblue" stroke="midnightblue" points="396.14,-80.32 405.02,-74.54 394.48,-73.52 396.14,-80.32"/>
</g>
<!-- Node4 -->
<g id="node4" class="node">
<title>Node4</title>
<g id="a_node4"><a xlink:href="classfspm_1_1config_1_1Config_a3024c037d3ee426c410cb46ee2cd3497.html#a3024c037d3ee426c410cb46ee2cd3497" target="_top" xlink:title=" ">
<polygon fill="none" stroke="black" points="589,-225.5 589,-255.5 728,-255.5 728,-225.5 589,-225.5"/>
<text text-anchor="start" x="597" y="-243.5" font-family="Helvetica,sans-Serif" font-size="10.00">fspm.config.Config.check</text>
<text text-anchor="middle" x="658.5" y="-232.5" font-family="Helvetica,sans-Serif" font-size="10.00">GroupContextExists</text>
</a>
</g>
</g>
<!-- Node3&#45;&gt;Node4 -->
<g id="edge3" class="edge">
<title>Node3&#45;&gt;Node4</title>
<path fill="none" stroke="midnightblue" d="M494.32,-167.57C515.99,-179.91 547.99,-197.41 577,-210.5 585.68,-214.41 595.03,-218.24 604.19,-221.78"/>
<polygon fill="midnightblue" stroke="midnightblue" points="603.03,-225.09 613.62,-225.36 605.51,-218.54 603.03,-225.09"/>
</g>
<!-- Node5 -->
<g id="node5" class="node">
<title>Node5</title>
<g id="a_node5"><a xlink:href="classfspm_1_1config_1_1params_1_1ParamCategory_a4e9b4d10f0f293ae181dd272d302d9b4.html#a4e9b4d10f0f293ae181dd272d302d9b4" target="_top" xlink:title="Get generic Parameter with the given key.">
<polygon fill="none" stroke="black" points="776,-181.5 776,-211.5 923,-211.5 923,-181.5 776,-181.5"/>
<text text-anchor="start" x="784" y="-199.5" font-family="Helvetica,sans-Serif" font-size="10.00">fspm.config.params.Param</text>
<text text-anchor="middle" x="849.5" y="-188.5" font-family="Helvetica,sans-Serif" font-size="10.00">Category.get</text>
</a>
</g>
</g>
<!-- Node3&#45;&gt;Node5 -->
<g id="edge4" class="edge">
<title>Node3&#45;&gt;Node5</title>
<path fill="none" stroke="midnightblue" d="M526.18,-167.55C542.51,-171.33 560.37,-175.02 577,-177.5 639.89,-186.89 711.69,-191.66 765.65,-194.07"/>
<polygon fill="midnightblue" stroke="midnightblue" points="765.71,-197.57 775.85,-194.5 766.01,-190.58 765.71,-197.57"/>
</g>
<!-- Node7 -->
<g id="node7" class="node">
<title>Node7</title>
<g id="a_node7"><a xlink:href="classfspm_1_1config_1_1params_1_1ParamGroup_a4ac641bb901b13ad2186c3d4fe0a75c9.html#a4ac641bb901b13ad2186c3d4fe0a75c9" target="_top" xlink:title=" ">
<polygon fill="none" stroke="black" points="577.5,-137.5 577.5,-167.5 739.5,-167.5 739.5,-137.5 577.5,-137.5"/>
<text text-anchor="start" x="585.5" y="-155.5" font-family="Helvetica,sans-Serif" font-size="10.00">fspm.config.params.Param</text>
<text text-anchor="middle" x="658.5" y="-144.5" font-family="Helvetica,sans-Serif" font-size="10.00">Group.getCategoryWithParam</text>
</a>
</g>
</g>
<!-- Node3&#45;&gt;Node7 -->
<g id="edge6" class="edge">
<title>Node3&#45;&gt;Node7</title>
<path fill="none" stroke="midnightblue" d="M537,-152.5C546.83,-152.5 557.06,-152.5 567.22,-152.5"/>
<polygon fill="midnightblue" stroke="midnightblue" points="567.35,-156 577.35,-152.5 567.35,-149 567.35,-156"/>
</g>
<!-- Node9 -->
<g id="node9" class="node">
<title>Node9</title>
<g id="a_node9"><a xlink:href="classfspm_1_1config_1_1Config_aa3784bee8f29e4340b60735055eb41a6.html#aa3784bee8f29e4340b60735055eb41a6" target="_top" xlink:title=" ">
<polygon fill="none" stroke="black" points="577,-88.5 577,-118.5 740,-118.5 740,-88.5 577,-88.5"/>
<text text-anchor="start" x="585" y="-106.5" font-family="Helvetica,sans-Serif" font-size="10.00">fspm.config.Config.isCategory</text>
<text text-anchor="middle" x="658.5" y="-95.5" font-family="Helvetica,sans-Serif" font-size="10.00">ContextExists</text>
</a>
</g>
</g>
<!-- Node3&#45;&gt;Node9 -->
<g id="edge9" class="edge">
<title>Node3&#45;&gt;Node9</title>
<path fill="none" stroke="midnightblue" d="M526.49,-137.47C546.54,-132.27 569.17,-126.4 589.92,-121.02"/>
<polygon fill="midnightblue" stroke="midnightblue" points="590.82,-124.4 599.62,-118.51 589.06,-117.63 590.82,-124.4"/>
</g>
<!-- Node6 -->
<g id="node6" class="node">
<title>Node6</title>
<g id="a_node6"><a xlink:href="classfspm_1_1config_1_1params_1_1ParamCategory_aac7a0ce7ab7fafe895ba689f644818ab.html#aac7a0ce7ab7fafe895ba689f644818ab" target="_top" xlink:title=" ">
<polygon fill="none" stroke="black" points="959,-181.5 959,-211.5 1106,-211.5 1106,-181.5 959,-181.5"/>
<text text-anchor="start" x="967" y="-199.5" font-family="Helvetica,sans-Serif" font-size="10.00">fspm.config.params.Param</text>
<text text-anchor="middle" x="1032.5" y="-188.5" font-family="Helvetica,sans-Serif" font-size="10.00">Category.getKey</text>
</a>
</g>
</g>
<!-- Node5&#45;&gt;Node6 -->
<g id="edge5" class="edge">
<title>Node5&#45;&gt;Node6</title>
<path fill="none" stroke="midnightblue" d="M923.08,-196.5C931.56,-196.5 940.26,-196.5 948.87,-196.5"/>
<polygon fill="midnightblue" stroke="midnightblue" points="948.91,-200 958.91,-196.5 948.91,-193 948.91,-200"/>
</g>
<!-- Node7&#45;&gt;Node5 -->
<g id="edge7" class="edge">
<title>Node7&#45;&gt;Node5</title>
<path fill="none" stroke="midnightblue" d="M724.01,-167.52C740.04,-171.25 757.36,-175.28 773.83,-179.12"/>
<polygon fill="midnightblue" stroke="midnightblue" points="773.42,-182.62 783.96,-181.47 775.01,-175.8 773.42,-182.62"/>
</g>
<!-- Node8 -->
<g id="node8" class="node">
<title>Node8</title>
<g id="a_node8"><a xlink:href="classfspm_1_1config_1_1params_1_1ParamGroup_a87d9e7182014d1d981c4067083815878.html#a87d9e7182014d1d981c4067083815878" target="_top" xlink:title=" ">
<polygon fill="none" stroke="black" points="776,-132.5 776,-162.5 923,-162.5 923,-132.5 776,-132.5"/>
<text text-anchor="start" x="784" y="-150.5" font-family="Helvetica,sans-Serif" font-size="10.00">fspm.config.params.Param</text>
<text text-anchor="middle" x="849.5" y="-139.5" font-family="Helvetica,sans-Serif" font-size="10.00">Group.getKey</text>
</a>
</g>
</g>
<!-- Node7&#45;&gt;Node8 -->
<g id="edge8" class="edge">
<title>Node7&#45;&gt;Node8</title>
<path fill="none" stroke="midnightblue" d="M739.65,-150.38C748.26,-150.15 757.03,-149.92 765.66,-149.69"/>
<polygon fill="midnightblue" stroke="midnightblue" points="765.82,-153.19 775.72,-149.43 765.63,-146.19 765.82,-153.19"/>
</g>
<!-- Node11 -->
<g id="node11" class="node">
<title>Node11</title>
<g id="a_node11"><a xlink:href="classfspm_1_1config_1_1params_1_1ParamCategory_aa2e79c693bd5784e3397c328d6363ba9.html#aa2e79c693bd5784e3397c328d6363ba9" target="_top" xlink:title="Helper method to get the parameter of a given key, if it is an instance of the Parameter type class p...">
<polygon fill="none" stroke="black" points="776,-22.5 776,-52.5 923,-52.5 923,-22.5 776,-22.5"/>
<text text-anchor="start" x="784" y="-40.5" font-family="Helvetica,sans-Serif" font-size="10.00">fspm.config.params.Param</text>
<text text-anchor="middle" x="849.5" y="-29.5" font-family="Helvetica,sans-Serif" font-size="10.00">Category.getIfInstanceOf</text>
</a>
</g>
</g>
<!-- Node10&#45;&gt;Node11 -->
<g id="edge11" class="edge">
<title>Node10&#45;&gt;Node11</title>
<path fill="none" stroke="midnightblue" d="M541.32,-55.28C605.48,-51.57 698.89,-46.16 765.83,-42.29"/>
<polygon fill="midnightblue" stroke="midnightblue" points="766.15,-45.77 775.93,-41.7 765.74,-38.79 766.15,-45.77"/>
</g>
<!-- Node12 -->
<g id="node12" class="node">
<title>Node12</title>
<g id="a_node12"><a xlink:href="classfspm_1_1config_1_1params_1_1ParamCategory_a9df71240a840aa7875fdd8834c4cdbde.html#a9df71240a840aa7875fdd8834c4cdbde" target="_top" xlink:title="Check and return if is NullParam.">
<polygon fill="none" stroke="black" points="585,-0.5 585,-30.5 732,-30.5 732,-0.5 585,-0.5"/>
<text text-anchor="start" x="593" y="-18.5" font-family="Helvetica,sans-Serif" font-size="10.00">fspm.config.params.Param</text>
<text text-anchor="middle" x="658.5" y="-7.5" font-family="Helvetica,sans-Serif" font-size="10.00">Category.isNull</text>
</a>
</g>
</g>
<!-- Node10&#45;&gt;Node12 -->
<g id="edge12" class="edge">
<title>Node10&#45;&gt;Node12</title>
<path fill="none" stroke="midnightblue" d="M533.01,-44.48C549.04,-40.75 566.36,-36.72 582.83,-32.88"/>
<polygon fill="midnightblue" stroke="midnightblue" points="584.01,-36.2 592.96,-30.53 582.42,-29.38 584.01,-36.2"/>
</g>
<!-- Node12&#45;&gt;Node11 -->
<g id="edge13" class="edge">
<title>Node12&#45;&gt;Node11</title>
<path fill="none" stroke="midnightblue" d="M732.03,-23.94C743.03,-25.22 754.45,-26.55 765.65,-27.86"/>
<polygon fill="midnightblue" stroke="midnightblue" points="765.51,-31.36 775.85,-29.04 766.32,-24.41 765.51,-31.36"/>
</g>
</g>
</svg>
        <g id="navigator" transform="translate(0 0)" fill="#404254">
                <rect fill="#f2f5e9" fill-opacity="0.5" stroke="#606060" stroke-width=".5" x="0" y="0" width="60" height="60"/>
                <use id="zoomplus" xlink:href="#zoomPlus" x="17" y="9" onmousedown="handleZoom(evt,'in')"/>
                <use id="zoomminus" xlink:href="#zoomMin" x="42" y="9" onmousedown="handleZoom(evt,'out')"/>
                <use id="reset" xlink:href="#resetDef" x="30" y="36" onmousedown="handleReset()"/>
                <g id="arrowUp" xlink:href="#dirArrow" transform="translate(30 24)" onmousedown="handlePan(0,-1)">
                  <use xlink:href="#rim" fill="#404040">
                        <set attributeName="fill" to="#808080" begin="arrowUp.mouseover" end="arrowUp.mouseout"/>
                  </use>
                  <path fill="none" stroke="white" stroke-width="1.5" d="M0,-3.0v7 M-2.5,-0.5L0,-3.0L2.5,-0.5"/>
                </g>
                <g id="arrowRight" xlink:href="#dirArrow" transform="rotate(90) translate(36 -43)" onmousedown="handlePan(1,0)">
                  <use xlink:href="#rim" fill="#404040">
                        <set attributeName="fill" to="#808080" begin="arrowRight.mouseover" end="arrowRight.mouseout"/>
                  </use>
                  <path fill="none" stroke="white" stroke-width="1.5" d="M0,-3.0v7 M-2.5,-0.5L0,-3.0L2.5,-0.5"/>
                </g>
                <g id="arrowDown" xlink:href="#dirArrow" transform="rotate(180) translate(-30 -48)" onmousedown="handlePan(0,1)">
                  <use xlink:href="#rim" fill="#404040">
                        <set attributeName="fill" to="#808080" begin="arrowDown.mouseover" end="arrowDown.mouseout"/>
                  </use>
                  <path fill="none" stroke="white" stroke-width="1.5" d="M0,-3.0v7 M-2.5,-0.5L0,-3.0L2.5,-0.5"/>
                </g>
                <g id="arrowLeft" xlink:href="#dirArrow" transform="rotate(270) translate(-36 17)" onmousedown="handlePan(-1,0)">
                  <use xlink:href="#rim" fill="#404040">
                        <set attributeName="fill" to="#808080" begin="arrowLeft.mouseover" end="arrowLeft.mouseout"/>
                  </use>
                  <path fill="none" stroke="white" stroke-width="1.5" d="M0,-3.0v7 M-2.5,-0.5L0,-3.0L2.5,-0.5"/>
                </g>
        </g>
        <svg viewBox="0 0 15 15" width="100%" height="30px" preserveAspectRatio="xMaxYMin meet">
         <g id="arrow_out" transform="scale(0.3 0.3)">
          <a xlink:href="classfspm_1_1config_1_1Config_a75f0ff59af54ebe3b864a01dc59b1663_a75f0ff59af54ebe3b864a01dc59b1663_cgraph_org.svg" target="_base">
           <rect id="button" ry="5" rx="5" y="6" x="6" height="38" width="38"
                fill="#f2f5e9" fill-opacity="0.5" stroke="#606060" stroke-width="1.0"/>
           <path id="arrow"
             d="M 11.500037,31.436501 C 11.940474,20.09759 22.043105,11.32322 32.158766,21.979434 L 37.068811,17.246167 C 37.068811,17.246167 37.088388,32 37.088388,32 L 22.160133,31.978069 C 22.160133,31.978069 26.997745,27.140456 26.997745,27.140456 C 18.528582,18.264221 13.291696,25.230495 11.500037,31.436501 z"
             style="fill:#404040;"/>
          </a>
         </g>
        </svg>
</svg>
