<?xml version="1.0" encoding="UTF-8" standalone="no"?>
<!DOCTYPE svg PUBLIC "-//W3C//DTD SVG 1.1//EN"
 "http://www.w3.org/Graphics/SVG/1.1/DTD/svg11.dtd">
<!-- Generated by graphviz version 2.43.0 (0)
 -->
<!-- Title: io.github.fruitcropxl.config.params.ParamCategory Pages: 1 -->
<svg width="347pt" height="363pt"
 viewBox="0.00 0.00 347.00 363.00" xmlns="http://www.w3.org/2000/svg" xmlns:xlink="http://www.w3.org/1999/xlink">

<svg id="main" version="1.1" xmlns="http://www.w3.org/2000/svg" xmlns:xlink="http://www.w3.org/1999/xlink" xml:space="preserve" onload="init(evt)">
<style type="text/css"><![CDATA[
.node, .edge {opacity: 0.7;}
.node.selected, .edge.selected {opacity: 1;}
.edge:hover path { stroke: red; }
.edge:hover polygon { stroke: red; fill: red; }
]]></style>
<script type="application/ecmascript" xlink:href="svg.min.js"/>
<svg id="graph" class="graph">
<g id="graph0" class="graph" transform="scale(1 1) rotate(0) translate(4 359)">
<title>io.github.fruitcropxl.config.params.ParamCategory</title>
<!-- Node1 -->
<g id="Node000001" class="node">
<title>Node1</title>
<g id="a_Node000001"><a xlink:title="Stores Parameters that belong to a common category.">
<polygon fill="#999999" stroke="transparent" points="229.5,-270 47.5,-270 47.5,0 229.5,0 229.5,-270"/>
<text text-anchor="start" x="52.5" y="-258" font-family="Helvetica,sans-Serif" font-size="10.00">io.github.fruitcropxl.config.params.</text>
<text text-anchor="start" x="100.5" y="-247" font-family="Helvetica,sans-Serif" font-size="10.00">ParamCategory</text>
<text text-anchor="start" x="73.5" y="-232" font-family="Helvetica,sans-Serif" font-size="10.00">&#45;</text>
<text text-anchor="start" x="103.5" y="-232" font-family="Helvetica,sans-Serif" font-size="10.00">params</text>
<text text-anchor="start" x="71" y="-217" font-family="Helvetica,sans-Serif" font-size="10.00">+</text>
<text text-anchor="start" x="103.5" y="-217" font-family="Helvetica,sans-Serif" font-size="10.00">ParamCategory()</text>
<text text-anchor="start" x="71" y="-202" font-family="Helvetica,sans-Serif" font-size="10.00">+</text>
<text text-anchor="start" x="103.5" y="-202" font-family="Helvetica,sans-Serif" font-size="10.00">addParameter()</text>
<text text-anchor="start" x="71" y="-187" font-family="Helvetica,sans-Serif" font-size="10.00">+</text>
<text text-anchor="start" x="103.5" y="-187" font-family="Helvetica,sans-Serif" font-size="10.00">setParameter()</text>
<text text-anchor="start" x="71" y="-172" font-family="Helvetica,sans-Serif" font-size="10.00">+</text>
<text text-anchor="start" x="103.5" y="-172" font-family="Helvetica,sans-Serif" font-size="10.00">getParameter()</text>
<text text-anchor="start" x="71" y="-157" font-family="Helvetica,sans-Serif" font-size="10.00">+</text>
<text text-anchor="start" x="103.5" y="-157" font-family="Helvetica,sans-Serif" font-size="10.00">toString()</text>
<text text-anchor="start" x="71" y="-142" font-family="Helvetica,sans-Serif" font-size="10.00">+</text>
<text text-anchor="start" x="103.5" y="-142" font-family="Helvetica,sans-Serif" font-size="10.00">isNull()</text>
<text text-anchor="start" x="71" y="-127" font-family="Helvetica,sans-Serif" font-size="10.00">+</text>
<text text-anchor="start" x="103.5" y="-127" font-family="Helvetica,sans-Serif" font-size="10.00">getBoolean()</text>
<text text-anchor="start" x="71" y="-112" font-family="Helvetica,sans-Serif" font-size="10.00">+</text>
<text text-anchor="start" x="103.5" y="-112" font-family="Helvetica,sans-Serif" font-size="10.00">getBoolean()</text>
<text text-anchor="start" x="71" y="-97" font-family="Helvetica,sans-Serif" font-size="10.00">+</text>
<text text-anchor="start" x="103.5" y="-97" font-family="Helvetica,sans-Serif" font-size="10.00">getString()</text>
<text text-anchor="start" x="71" y="-82" font-family="Helvetica,sans-Serif" font-size="10.00">+</text>
<text text-anchor="start" x="103.5" y="-82" font-family="Helvetica,sans-Serif" font-size="10.00">getString()</text>
<text text-anchor="start" x="103.5" y="-67" font-family="Helvetica,sans-Serif" font-size="10.00">and 12 more...</text>
<text text-anchor="start" x="71" y="-52" font-family="Helvetica,sans-Serif" font-size="10.00">~</text>
<text text-anchor="start" x="103.5" y="-52" font-family="Helvetica,sans-Serif" font-size="10.00">get()</text>
<text text-anchor="start" x="71" y="-37" font-family="Helvetica,sans-Serif" font-size="10.00">~</text>
<text text-anchor="start" x="103.5" y="-37" font-family="Helvetica,sans-Serif" font-size="10.00">get()</text>
<text text-anchor="start" x="71" y="-22" font-family="Helvetica,sans-Serif" font-size="10.00">~</text>
<text text-anchor="start" x="103.5" y="-22" font-family="Helvetica,sans-Serif" font-size="10.00">getArray()</text>
<text text-anchor="start" x="71" y="-7" font-family="Helvetica,sans-Serif" font-size="10.00">~</text>
<text text-anchor="start" x="103.5" y="-7" font-family="Helvetica,sans-Serif" font-size="10.00">getArray()</text>
<polygon fill="#666666" stroke="#666666" points="47.5,-242 47.5,-242 229.5,-242 229.5,-242 47.5,-242"/>
<polygon fill="#666666" stroke="#666666" points="47.5,-227 47.5,-227 101.5,-227 101.5,-227 47.5,-227"/>
<polygon fill="#666666" stroke="#666666" points="101.5,-227 101.5,-227 229.5,-227 229.5,-227 101.5,-227"/>
<polygon fill="none" stroke="#666666" points="47.5,0 47.5,-270 229.5,-270 229.5,0 47.5,0"/>
</a>
</g>
</g>
<!-- Node2 -->
<g id="Node000002" class="node">
<title>Node2</title>
<g id="a_Node000002"><a xlink:href="classKeyElement.html" target="_top" xlink:title=" ">
<polygon fill="white" stroke="transparent" points="69,-355 0,-355 0,-306 69,-306 69,-355"/>
<text text-anchor="start" x="5.5" y="-342.5" font-family="Helvetica,sans-Serif" font-size="10.00">KeyElement</text>
<text text-anchor="start" x="33" y="-327.5" font-family="Helvetica,sans-Serif" font-size="10.00"> </text>
<text text-anchor="start" x="33" y="-312.5" font-family="Helvetica,sans-Serif" font-size="10.00"> </text>
<polygon fill="#666666" stroke="#666666" points="0.5,-337.5 0.5,-337.5 69.5,-337.5 69.5,-337.5 0.5,-337.5"/>
<polygon fill="#666666" stroke="#666666" points="0.5,-322.5 0.5,-322.5 69.5,-322.5 69.5,-322.5 0.5,-322.5"/>
<polygon fill="none" stroke="#666666" points="0,-306 0,-355 69,-355 69,-306 0,-306"/>
</a>
</g>
</g>
<!-- Node2&#45;&gt;Node1 -->
<g id="edge1_Node000001_Node000002" class="edge">
<title>Node2&#45;&gt;Node1</title>
<g id="a_edge1_Node000001_Node000002"><a xlink:title=" ">
<path fill="none" stroke="#63b8ff" d="M52.03,-296.88C56.34,-288.86 61.23,-279.77 66.43,-270.1"/>
<polygon fill="none" stroke="#63b8ff" points="48.9,-295.31 47.25,-305.77 55.07,-298.62 48.9,-295.31"/>
</a>
</g>
</g>
<!-- Node3 -->
<g id="Node000003" class="node">
<title>Node3</title>
<g id="a_Node000003"><a xlink:href="classKeyParamAccessor.html" target="_top" xlink:title=" ">
<polygon fill="white" stroke="transparent" points="190,-355 87,-355 87,-306 190,-306 190,-355"/>
<text text-anchor="start" x="92.5" y="-342.5" font-family="Helvetica,sans-Serif" font-size="10.00">KeyParamAccessor</text>
<text text-anchor="start" x="137" y="-327.5" font-family="Helvetica,sans-Serif" font-size="10.00"> </text>
<text text-anchor="start" x="137" y="-312.5" font-family="Helvetica,sans-Serif" font-size="10.00"> </text>
<polygon fill="#666666" stroke="#666666" points="87.5,-337.5 87.5,-337.5 190.5,-337.5 190.5,-337.5 87.5,-337.5"/>
<polygon fill="#666666" stroke="#666666" points="87.5,-322.5 87.5,-322.5 190.5,-322.5 190.5,-322.5 87.5,-322.5"/>
<polygon fill="none" stroke="#666666" points="87,-306 87,-355 190,-355 190,-306 87,-306"/>
</a>
</g>
</g>
<!-- Node3&#45;&gt;Node1 -->
<g id="edge2_Node000001_Node000003" class="edge">
<title>Node3&#45;&gt;Node1</title>
<g id="a_edge2_Node000001_Node000003"><a xlink:title=" ">
<path fill="none" stroke="#63b8ff" d="M138.5,-295.56C138.5,-287.87 138.5,-279.25 138.5,-270.1"/>
<polygon fill="none" stroke="#63b8ff" points="135,-295.77 138.5,-305.77 142,-295.77 135,-295.77"/>
</a>
</g>
</g>
<!-- Node4 -->
<g id="Node000004" class="node">
<title>Node4</title>
<g id="a_Node000004"><a xlink:href="classTypedKeyParamAccessor.html" target="_top" xlink:title=" ">
<polygon fill="white" stroke="transparent" points="339,-355 208,-355 208,-306 339,-306 339,-355"/>
<text text-anchor="start" x="213.5" y="-342.5" font-family="Helvetica,sans-Serif" font-size="10.00">TypedKeyParamAccessor</text>
<text text-anchor="start" x="272" y="-327.5" font-family="Helvetica,sans-Serif" font-size="10.00"> </text>
<text text-anchor="start" x="272" y="-312.5" font-family="Helvetica,sans-Serif" font-size="10.00"> </text>
<polygon fill="#666666" stroke="#666666" points="208.5,-337.5 208.5,-337.5 339.5,-337.5 339.5,-337.5 208.5,-337.5"/>
<polygon fill="#666666" stroke="#666666" points="208.5,-322.5 208.5,-322.5 339.5,-322.5 339.5,-322.5 208.5,-322.5"/>
<polygon fill="none" stroke="#666666" points="208,-306 208,-355 339,-355 339,-306 208,-306"/>
</a>
</g>
</g>
<!-- Node4&#45;&gt;Node1 -->
<g id="edge3_Node000001_Node000004" class="edge">
<title>Node4&#45;&gt;Node1</title>
<g id="a_edge3_Node000001_Node000004"><a xlink:title=" ">
<path fill="none" stroke="#63b8ff" d="M251.19,-297.52C244.86,-288.44 237.54,-277.96 229.74,-266.78"/>
<polygon fill="none" stroke="#63b8ff" points="248.35,-299.57 256.95,-305.77 254.09,-295.57 248.35,-299.57"/>
</a>
</g>
</g>
</g>
</svg>
</svg>

<style type='text/css'>
<![CDATA[
[data-mouse-over-selected='false'] { opacity: 0.7; }
[data-mouse-over-selected='true']  { opacity: 1.0; }
]]>
</style>
<script type="application/ecmascript"><![CDATA[
document.addEventListener('DOMContentLoaded', (event) => {
  highlightEdges();
  highlightAdjacentNodes();
});
]]></script>
</svg>
