<?xml version="1.0" encoding="UTF-8" standalone="no"?>
<!DOCTYPE svg PUBLIC "-//W3C//DTD SVG 1.1//EN"
 "http://www.w3.org/Graphics/SVG/1.1/DTD/svg11.dtd">
<!-- Generated by graphviz version 2.43.0 (0)
 -->
<!-- Title: fspm.config.params.structures.CategoryStore.parse Pages: 1 -->
<svg width="574pt" height="235pt"
 viewBox="0.00 0.00 574.00 235.00" xmlns="http://www.w3.org/2000/svg" xmlns:xlink="http://www.w3.org/1999/xlink">
<g id="graph0" class="graph" transform="scale(1 1) rotate(0) translate(4 231)">
<title>fspm.config.params.structures.CategoryStore.parse</title>
<!-- Node1 -->
<g id="node1" class="node">
<title>Node1</title>
<g id="a_node1"><a xlink:title=" ">
<polygon fill="#bfbfbf" stroke="black" points="0,-98.5 0,-128.5 168,-128.5 168,-98.5 0,-98.5"/>
<text text-anchor="start" x="8" y="-116.5" font-family="Helvetica,sans-Serif" font-size="10.00">fspm.config.params.structures.</text>
<text text-anchor="middle" x="84" y="-105.5" font-family="Helvetica,sans-Serif" font-size="10.00">CategoryStore.parse</text>
</a>
</g>
</g>
<!-- Node2 -->
<g id="node2" class="node">
<title>Node2</title>
<g id="a_node2"><a xlink:href="classfspm_1_1config_1_1params_1_1structures_1_1CategoryStore_a848e878d6fbdff21c30ac6cfd8336ecb.html#a848e878d6fbdff21c30ac6cfd8336ecb" target="_top" xlink:title="Adds a new category.">
<polygon fill="none" stroke="black" points="204,-196.5 204,-226.5 372,-226.5 372,-196.5 204,-196.5"/>
<text text-anchor="start" x="212" y="-214.5" font-family="Helvetica,sans-Serif" font-size="10.00">fspm.config.params.structures.</text>
<text text-anchor="middle" x="288" y="-203.5" font-family="Helvetica,sans-Serif" font-size="10.00">CategoryStore.addCategory</text>
</a>
</g>
</g>
<!-- Node1&#45;&gt;Node2 -->
<g id="edge1" class="edge">
<title>Node1&#45;&gt;Node2</title>
<path fill="none" stroke="midnightblue" d="M105.52,-128.71C128.49,-145.15 167.33,-171.17 204,-187.5 208.39,-189.46 212.99,-191.3 217.67,-193.03"/>
<polygon fill="midnightblue" stroke="midnightblue" points="216.75,-196.41 227.34,-196.41 219.06,-189.8 216.75,-196.41"/>
</g>
<!-- Node4 -->
<g id="node4" class="node">
<title>Node4</title>
<g id="a_node4"><a xlink:href="classfspm_1_1config_1_1params_1_1ParamCategory_a142ca4734877ac3625b6b95d8b81055a.html#a142ca4734877ac3625b6b95d8b81055a" target="_top" xlink:title="Adds a new Parameter to the category.">
<polygon fill="none" stroke="black" points="214.5,-147.5 214.5,-177.5 361.5,-177.5 361.5,-147.5 214.5,-147.5"/>
<text text-anchor="start" x="222.5" y="-165.5" font-family="Helvetica,sans-Serif" font-size="10.00">fspm.config.params.Param</text>
<text text-anchor="middle" x="288" y="-154.5" font-family="Helvetica,sans-Serif" font-size="10.00">Category.addParameter</text>
</a>
</g>
</g>
<!-- Node1&#45;&gt;Node4 -->
<g id="edge3" class="edge">
<title>Node1&#45;&gt;Node4</title>
<path fill="none" stroke="midnightblue" d="M146.98,-128.53C168.6,-133.78 193.04,-139.71 215.37,-145.13"/>
<polygon fill="midnightblue" stroke="midnightblue" points="214.59,-148.54 225.14,-147.49 216.24,-141.74 214.59,-148.54"/>
</g>
<!-- Node5 -->
<g id="node5" class="node">
<title>Node5</title>
<g id="a_node5"><a xlink:href="classfspm_1_1config_1_1params_1_1structures_1_1CategoryStore_a62100f06bbe486cd123f091b31f248e2.html#a62100f06bbe486cd123f091b31f248e2" target="_top" xlink:title=" ">
<polygon fill="none" stroke="black" points="204,-98.5 204,-128.5 372,-128.5 372,-98.5 204,-98.5"/>
<text text-anchor="start" x="212" y="-116.5" font-family="Helvetica,sans-Serif" font-size="10.00">fspm.config.params.structures.</text>
<text text-anchor="middle" x="288" y="-105.5" font-family="Helvetica,sans-Serif" font-size="10.00">CategoryStore.CategoryStore</text>
</a>
</g>
</g>
<!-- Node1&#45;&gt;Node5 -->
<g id="edge5" class="edge">
<title>Node1&#45;&gt;Node5</title>
<path fill="none" stroke="midnightblue" d="M168.04,-113.5C176.56,-113.5 185.26,-113.5 193.89,-113.5"/>
<polygon fill="midnightblue" stroke="midnightblue" points="193.96,-117 203.96,-113.5 193.96,-110 193.96,-117"/>
</g>
<!-- Node6 -->
<g id="node6" class="node">
<title>Node6</title>
<g id="a_node6"><a xlink:href="classfspm_1_1config_1_1adapters_1_1JsonFileReader_ade656b5e0e5d950b9997ee04ec01964d.html#ade656b5e0e5d950b9997ee04ec01964d" target="_top" xlink:title="Helper function for getting root/tree node from a JSON file.">
<polygon fill="none" stroke="black" points="213.5,-49.5 213.5,-79.5 362.5,-79.5 362.5,-49.5 213.5,-49.5"/>
<text text-anchor="start" x="221.5" y="-67.5" font-family="Helvetica,sans-Serif" font-size="10.00">fspm.config.adapters.Json</text>
<text text-anchor="middle" x="288" y="-56.5" font-family="Helvetica,sans-Serif" font-size="10.00">FileReader.getTreeFromFile</text>
</a>
</g>
</g>
<!-- Node1&#45;&gt;Node6 -->
<g id="edge6" class="edge">
<title>Node1&#45;&gt;Node6</title>
<path fill="none" stroke="midnightblue" d="M146.98,-98.47C168.6,-93.22 193.04,-87.29 215.37,-81.87"/>
<polygon fill="midnightblue" stroke="midnightblue" points="216.24,-85.26 225.14,-79.51 214.59,-78.46 216.24,-85.26"/>
</g>
<!-- Node7 -->
<g id="node7" class="node">
<title>Node7</title>
<g id="a_node7"><a xlink:href="classfspm_1_1config_1_1params_1_1ParamFactory_aadcecc67803da778c697f1b6683cd5c7.html#aadcecc67803da778c697f1b6683cd5c7" target="_top" xlink:title="Returns a Parameter instance which can be used to retrieve the parsed value.">
<polygon fill="none" stroke="black" points="214.5,-0.5 214.5,-30.5 361.5,-30.5 361.5,-0.5 214.5,-0.5"/>
<text text-anchor="start" x="222.5" y="-18.5" font-family="Helvetica,sans-Serif" font-size="10.00">fspm.config.params.Param</text>
<text text-anchor="middle" x="288" y="-7.5" font-family="Helvetica,sans-Serif" font-size="10.00">Factory.parseParameter</text>
</a>
</g>
</g>
<!-- Node1&#45;&gt;Node7 -->
<g id="edge7" class="edge">
<title>Node1&#45;&gt;Node7</title>
<path fill="none" stroke="midnightblue" d="M106.01,-98.29C129.09,-82.15 167.73,-56.76 204,-40.5 209.28,-38.13 214.84,-35.91 220.49,-33.85"/>
<polygon fill="midnightblue" stroke="midnightblue" points="221.74,-37.12 230.03,-30.53 219.44,-30.51 221.74,-37.12"/>
</g>
<!-- Node3 -->
<g id="node3" class="node">
<title>Node3</title>
<g id="a_node3"><a xlink:href="classfspm_1_1util_1_1KeyElement_a653aac67328f98c1201974736671fe0d.html#a653aac67328f98c1201974736671fe0d" target="_top" xlink:title=" ">
<polygon fill="none" stroke="black" points="408,-177 408,-196 566,-196 566,-177 408,-177"/>
<text text-anchor="middle" x="487" y="-184" font-family="Helvetica,sans-Serif" font-size="10.00">fspm.util.KeyElement.getKey</text>
</a>
</g>
</g>
<!-- Node2&#45;&gt;Node3 -->
<g id="edge2" class="edge">
<title>Node2&#45;&gt;Node3</title>
<path fill="none" stroke="midnightblue" d="M372.26,-200.93C381.67,-199.74 391.27,-198.52 400.7,-197.32"/>
<polygon fill="midnightblue" stroke="midnightblue" points="401.38,-200.77 410.86,-196.04 400.5,-193.82 401.38,-200.77"/>
</g>
<!-- Node4&#45;&gt;Node3 -->
<g id="edge4" class="edge">
<title>Node4&#45;&gt;Node3</title>
<path fill="none" stroke="midnightblue" d="M361.52,-171.33C373.34,-172.78 385.71,-174.28 397.86,-175.76"/>
<polygon fill="midnightblue" stroke="midnightblue" points="397.66,-179.26 408.01,-177 398.5,-172.31 397.66,-179.26"/>
</g>
</g>
</svg>
