<?xml version="1.0" encoding="UTF-8" standalone="no"?>
<!DOCTYPE svg PUBLIC "-//W3C//DTD SVG 1.1//EN"
 "http://www.w3.org/Graphics/SVG/1.1/DTD/svg11.dtd">
<!-- Generated by graphviz version 2.43.0 (0)
 -->
<!-- Title: KeyElement Pages: 1 -->
<!--zoomable 575 -->

<svg id="main" version="1.1" xmlns="http://www.w3.org/2000/svg" xmlns:xlink="http://www.w3.org/1999/xlink" xml:space="preserve" onload="init(evt)">
<style type="text/css"><![CDATA[
.node, .edge {opacity: 0.7;}
.node.selected, .edge.selected {opacity: 1;}
.edge:hover path { stroke: red; }
.edge:hover polygon { stroke: red; fill: red; }
]]></style>

<defs>
  <circle id="rim" cx="0" cy="0" r="7"/>
  <circle id="rim2" cx="0" cy="0" r="3.5"/>
  <g id="zoomPlus">
    <use xlink:href="#rim" fill="#404040"><set attributeName="fill" to="#808080" begin="zoomplus.mouseover" end="zoomplus.mouseout"/></use>
    <path d="M-4,0h8M0,-4v8" fill="none" stroke="white" stroke-width="1.5" pointer-events="none"/>
  </g>
  <g id="zoomMin">
    <use xlink:href="#rim" fill="#404040"><set attributeName="fill" to="#808080" begin="zoomminus.mouseover" end="zoomminus.mouseout"/></use>
    <path d="M-4,0h8" fill="none" stroke="white" stroke-width="1.5" pointer-events="none"/>
  </g>
  <g id="arrowUp" transform="translate(30 24)">
    <use xlink:href="#rim"/>
    <path pointer-events="none" fill="none" stroke="white" stroke-width="1.5" d="M0,-3.0v7 M-2.5,-0.5L0,-3.0L2.5,-0.5"/>
  </g>
  <g id="arrowRight" transform="rotate(90) translate(36 -43)">
    <use xlink:href="#rim"/>
    <path pointer-events="none" fill="none" stroke="white" stroke-width="1.5" d="M0,-3.0v7 M-2.5,-0.5L0,-3.0L2.5,-0.5"/>
  </g>
  <g id="arrowDown" transform="rotate(180) translate(-30 -48)">
    <use xlink:href="#rim"/>
    <path pointer-events="none" fill="none" stroke="white" stroke-width="1.5" d="M0,-3.0v7 M-2.5,-0.5L0,-3.0L2.5,-0.5"/>
  </g>
  <g id="arrowLeft" transform="rotate(270) translate(-36 17)">
    <use xlink:href="#rim"/>
    <path pointer-events="none" fill="none" stroke="white" stroke-width="1.5" d="M0,-3.0v7 M-2.5,-0.5L0,-3.0L2.5,-0.5"/>
  </g>
  <g id="resetDef">
    <use xlink:href="#rim2" fill="#404040"><set attributeName="fill" to="#808080" begin="reset.mouseover" end="reset.mouseout"/></use>
  </g>
</defs>
<script type="application/ecmascript">
var viewWidth = 944;
var viewHeight = 575;
var sectionId = 'dynsection-0';
</script>
<script type="application/ecmascript" xlink:href="svg.min.js"/>
<svg id="graph" class="graph">
<g id="viewport">
<title>KeyElement</title>
<!-- Node1 -->
<g id="Node000001" class="node">
<title>Node1</title>
<g id="a_Node000001"><a xlink:title=" ">
<polygon fill="#999999" stroke="transparent" points="425.5,-567 356.5,-567 356.5,-518 425.5,-518 425.5,-567"/>
<text text-anchor="start" x="362" y="-554.5" font-family="Helvetica,sans-Serif" font-size="10.00">KeyElement</text>
<text text-anchor="start" x="389.5" y="-539.5" font-family="Helvetica,sans-Serif" font-size="10.00"> </text>
<text text-anchor="start" x="389.5" y="-524.5" font-family="Helvetica,sans-Serif" font-size="10.00"> </text>
<polygon fill="#666666" stroke="#666666" points="357,-549.5 357,-549.5 426,-549.5 426,-549.5 357,-549.5"/>
<polygon fill="#666666" stroke="#666666" points="357,-534.5 357,-534.5 426,-534.5 426,-534.5 357,-534.5"/>
<polygon fill="none" stroke="#666666" points="356.5,-518 356.5,-567 425.5,-567 425.5,-518 356.5,-518"/>
</a>
</g>
</g>
<!-- Node2 -->
<g id="Node000002" class="node">
<title>Node2</title>
<g id="a_Node000002"><a xlink:href="classio_1_1github_1_1fruitcropxl_1_1config_1_1params_1_1ParamCategory.html" target="_top" xlink:title="Stores Parameters that belong to a common category.">
<polygon fill="white" stroke="transparent" points="182,-467 0,-467 0,-197 182,-197 182,-467"/>
<text text-anchor="start" x="5" y="-455" font-family="Helvetica,sans-Serif" font-size="10.00">io.github.fruitcropxl.config.params.</text>
<text text-anchor="start" x="53" y="-444" font-family="Helvetica,sans-Serif" font-size="10.00">ParamCategory</text>
<text text-anchor="start" x="26" y="-429" font-family="Helvetica,sans-Serif" font-size="10.00">&#45;</text>
<text text-anchor="start" x="56" y="-429" font-family="Helvetica,sans-Serif" font-size="10.00">params</text>
<text text-anchor="start" x="23.5" y="-414" font-family="Helvetica,sans-Serif" font-size="10.00">+</text>
<text text-anchor="start" x="56" y="-414" font-family="Helvetica,sans-Serif" font-size="10.00">ParamCategory()</text>
<text text-anchor="start" x="23.5" y="-399" font-family="Helvetica,sans-Serif" font-size="10.00">+</text>
<text text-anchor="start" x="56" y="-399" font-family="Helvetica,sans-Serif" font-size="10.00">addParameter()</text>
<text text-anchor="start" x="23.5" y="-384" font-family="Helvetica,sans-Serif" font-size="10.00">+</text>
<text text-anchor="start" x="56" y="-384" font-family="Helvetica,sans-Serif" font-size="10.00">setParameter()</text>
<text text-anchor="start" x="23.5" y="-369" font-family="Helvetica,sans-Serif" font-size="10.00">+</text>
<text text-anchor="start" x="56" y="-369" font-family="Helvetica,sans-Serif" font-size="10.00">getParameter()</text>
<text text-anchor="start" x="23.5" y="-354" font-family="Helvetica,sans-Serif" font-size="10.00">+</text>
<text text-anchor="start" x="56" y="-354" font-family="Helvetica,sans-Serif" font-size="10.00">toString()</text>
<text text-anchor="start" x="23.5" y="-339" font-family="Helvetica,sans-Serif" font-size="10.00">+</text>
<text text-anchor="start" x="56" y="-339" font-family="Helvetica,sans-Serif" font-size="10.00">isNull()</text>
<text text-anchor="start" x="23.5" y="-324" font-family="Helvetica,sans-Serif" font-size="10.00">+</text>
<text text-anchor="start" x="56" y="-324" font-family="Helvetica,sans-Serif" font-size="10.00">getBoolean()</text>
<text text-anchor="start" x="23.5" y="-309" font-family="Helvetica,sans-Serif" font-size="10.00">+</text>
<text text-anchor="start" x="56" y="-309" font-family="Helvetica,sans-Serif" font-size="10.00">getBoolean()</text>
<text text-anchor="start" x="23.5" y="-294" font-family="Helvetica,sans-Serif" font-size="10.00">+</text>
<text text-anchor="start" x="56" y="-294" font-family="Helvetica,sans-Serif" font-size="10.00">getString()</text>
<text text-anchor="start" x="23.5" y="-279" font-family="Helvetica,sans-Serif" font-size="10.00">+</text>
<text text-anchor="start" x="56" y="-279" font-family="Helvetica,sans-Serif" font-size="10.00">getString()</text>
<text text-anchor="start" x="56" y="-264" font-family="Helvetica,sans-Serif" font-size="10.00">and 12 more...</text>
<text text-anchor="start" x="23.5" y="-249" font-family="Helvetica,sans-Serif" font-size="10.00">~</text>
<text text-anchor="start" x="56" y="-249" font-family="Helvetica,sans-Serif" font-size="10.00">get()</text>
<text text-anchor="start" x="23.5" y="-234" font-family="Helvetica,sans-Serif" font-size="10.00">~</text>
<text text-anchor="start" x="56" y="-234" font-family="Helvetica,sans-Serif" font-size="10.00">get()</text>
<text text-anchor="start" x="23.5" y="-219" font-family="Helvetica,sans-Serif" font-size="10.00">~</text>
<text text-anchor="start" x="56" y="-219" font-family="Helvetica,sans-Serif" font-size="10.00">getArray()</text>
<text text-anchor="start" x="23.5" y="-204" font-family="Helvetica,sans-Serif" font-size="10.00">~</text>
<text text-anchor="start" x="56" y="-204" font-family="Helvetica,sans-Serif" font-size="10.00">getArray()</text>
<polygon fill="#666666" stroke="#666666" points="0,-439 0,-439 182,-439 182,-439 0,-439"/>
<polygon fill="#666666" stroke="#666666" points="0,-424 0,-424 54,-424 54,-424 0,-424"/>
<polygon fill="#666666" stroke="#666666" points="54,-424 54,-424 182,-424 182,-424 54,-424"/>
<polygon fill="none" stroke="#666666" points="0,-197 0,-467 182,-467 182,-197 0,-197"/>
</a>
</g>
</g>
<!-- Node1&#45;&gt;Node2 -->
<g id="edge1_Node000001_Node000002" class="edge">
<title>Node1&#45;&gt;Node2</title>
<g id="a_edge1_Node000001_Node000002"><a xlink:title=" ">
<path fill="none" stroke="#63b8ff" d="M346.41,-537.02C303.12,-530.78 237.32,-516.09 191,-482 184.85,-477.48 178.97,-472.45 173.35,-467.07"/>
<polygon fill="none" stroke="#63b8ff" points="345.99,-540.5 356.37,-538.37 346.93,-533.56 345.99,-540.5"/>
</a>
</g>
</g>
<!-- Node3 -->
<g id="Node000003" class="node">
<title>Node3</title>
<g id="a_Node000003"><a xlink:href="classio_1_1github_1_1fruitcropxl_1_1config_1_1params_1_1ParamTable.html" target="_top" xlink:title="Stores Parameters in a tabular format as rows and columns (parameter key).">
<polygon fill="white" stroke="transparent" points="382,-482 200,-482 200,-182 382,-182 382,-482"/>
<text text-anchor="start" x="205" y="-470" font-family="Helvetica,sans-Serif" font-size="10.00">io.github.fruitcropxl.config.params.</text>
<text text-anchor="start" x="262.5" y="-459" font-family="Helvetica,sans-Serif" font-size="10.00">ParamTable</text>
<text text-anchor="start" x="228" y="-444" font-family="Helvetica,sans-Serif" font-size="10.00">&#45;</text>
<text text-anchor="start" x="260" y="-444" font-family="Helvetica,sans-Serif" font-size="10.00">rows</text>
<text text-anchor="start" x="225.5" y="-429" font-family="Helvetica,sans-Serif" font-size="10.00">+</text>
<text text-anchor="start" x="260" y="-429" font-family="Helvetica,sans-Serif" font-size="10.00">ParamTable()</text>
<text text-anchor="start" x="225.5" y="-414" font-family="Helvetica,sans-Serif" font-size="10.00">+</text>
<text text-anchor="start" x="260" y="-414" font-family="Helvetica,sans-Serif" font-size="10.00">addRow()</text>
<text text-anchor="start" x="225.5" y="-399" font-family="Helvetica,sans-Serif" font-size="10.00">+</text>
<text text-anchor="start" x="260" y="-399" font-family="Helvetica,sans-Serif" font-size="10.00">getBoolean()</text>
<text text-anchor="start" x="225.5" y="-384" font-family="Helvetica,sans-Serif" font-size="10.00">+</text>
<text text-anchor="start" x="260" y="-384" font-family="Helvetica,sans-Serif" font-size="10.00">getBoolean()</text>
<text text-anchor="start" x="225.5" y="-369" font-family="Helvetica,sans-Serif" font-size="10.00">+</text>
<text text-anchor="start" x="260" y="-369" font-family="Helvetica,sans-Serif" font-size="10.00">getString()</text>
<text text-anchor="start" x="225.5" y="-354" font-family="Helvetica,sans-Serif" font-size="10.00">+</text>
<text text-anchor="start" x="260" y="-354" font-family="Helvetica,sans-Serif" font-size="10.00">getString()</text>
<text text-anchor="start" x="225.5" y="-339" font-family="Helvetica,sans-Serif" font-size="10.00">+</text>
<text text-anchor="start" x="260" y="-339" font-family="Helvetica,sans-Serif" font-size="10.00">getInteger()</text>
<text text-anchor="start" x="225.5" y="-324" font-family="Helvetica,sans-Serif" font-size="10.00">+</text>
<text text-anchor="start" x="260" y="-324" font-family="Helvetica,sans-Serif" font-size="10.00">getInteger()</text>
<text text-anchor="start" x="225.5" y="-309" font-family="Helvetica,sans-Serif" font-size="10.00">+</text>
<text text-anchor="start" x="260" y="-309" font-family="Helvetica,sans-Serif" font-size="10.00">getDouble()</text>
<text text-anchor="start" x="225.5" y="-294" font-family="Helvetica,sans-Serif" font-size="10.00">+</text>
<text text-anchor="start" x="260" y="-294" font-family="Helvetica,sans-Serif" font-size="10.00">getDouble()</text>
<text text-anchor="start" x="260" y="-279" font-family="Helvetica,sans-Serif" font-size="10.00">and 10 more...</text>
<text text-anchor="start" x="225.5" y="-264" font-family="Helvetica,sans-Serif" font-size="10.00">~</text>
<text text-anchor="start" x="260" y="-264" font-family="Helvetica,sans-Serif" font-size="10.00">get()</text>
<text text-anchor="start" x="225.5" y="-249" font-family="Helvetica,sans-Serif" font-size="10.00">~</text>
<text text-anchor="start" x="260" y="-249" font-family="Helvetica,sans-Serif" font-size="10.00">get()</text>
<text text-anchor="start" x="225.5" y="-234" font-family="Helvetica,sans-Serif" font-size="10.00">~</text>
<text text-anchor="start" x="260" y="-234" font-family="Helvetica,sans-Serif" font-size="10.00">getArray()</text>
<text text-anchor="start" x="225.5" y="-219" font-family="Helvetica,sans-Serif" font-size="10.00">~</text>
<text text-anchor="start" x="260" y="-219" font-family="Helvetica,sans-Serif" font-size="10.00">getArray()</text>
<text text-anchor="start" x="228" y="-204" font-family="Helvetica,sans-Serif" font-size="10.00">&#45;</text>
<text text-anchor="start" x="260" y="-204" font-family="Helvetica,sans-Serif" font-size="10.00">setRow()</text>
<text text-anchor="start" x="228" y="-189" font-family="Helvetica,sans-Serif" font-size="10.00">&#45;</text>
<text text-anchor="start" x="260" y="-189" font-family="Helvetica,sans-Serif" font-size="10.00">getParameter()</text>
<polygon fill="#666666" stroke="#666666" points="200,-454 200,-454 382,-454 382,-454 200,-454"/>
<polygon fill="#666666" stroke="#666666" points="200,-439 200,-439 258,-439 258,-439 200,-439"/>
<polygon fill="#666666" stroke="#666666" points="258,-439 258,-439 382,-439 382,-439 258,-439"/>
<polygon fill="none" stroke="#666666" points="200,-182 200,-482 382,-482 382,-182 200,-182"/>
</a>
</g>
</g>
<!-- Node1&#45;&gt;Node3 -->
<g id="edge2_Node000001_Node000003" class="edge">
<title>Node1&#45;&gt;Node3</title>
<g id="a_edge2_Node000001_Node000003"><a xlink:title=" ">
<path fill="none" stroke="#63b8ff" d="M375.37,-508.91C371.58,-501 367.28,-492.04 362.67,-482.44"/>
<polygon fill="none" stroke="#63b8ff" points="372.24,-510.48 379.72,-517.99 378.55,-507.46 372.24,-510.48"/>
</a>
</g>
</g>
<!-- Node4 -->
<g id="Node000004" class="node">
<title>Node4</title>
<g id="a_Node000004"><a xlink:href="classio_1_1github_1_1fruitcropxl_1_1config_1_1params_1_1Parameter.html" target="_top" xlink:title="Parameter represents variables that can be stored as Java data types.">
<polygon fill="white" stroke="transparent" points="582,-467 400,-467 400,-197 582,-197 582,-467"/>
<text text-anchor="start" x="405" y="-455" font-family="Helvetica,sans-Serif" font-size="10.00">io.github.fruitcropxl.config.params.</text>
<text text-anchor="start" x="465.5" y="-444" font-family="Helvetica,sans-Serif" font-size="10.00">Parameter</text>
<text text-anchor="start" x="425.5" y="-429" font-family="Helvetica,sans-Serif" font-size="10.00">&#45;</text>
<text text-anchor="start" x="455" y="-429" font-family="Helvetica,sans-Serif" font-size="10.00">node</text>
<text text-anchor="start" x="423" y="-414" font-family="Helvetica,sans-Serif" font-size="10.00">+</text>
<text text-anchor="start" x="455" y="-414" font-family="Helvetica,sans-Serif" font-size="10.00">Parameter()</text>
<text text-anchor="start" x="423" y="-399" font-family="Helvetica,sans-Serif" font-size="10.00">+</text>
<text text-anchor="start" x="455" y="-399" font-family="Helvetica,sans-Serif" font-size="10.00">getType()</text>
<text text-anchor="start" x="423" y="-384" font-family="Helvetica,sans-Serif" font-size="10.00">+</text>
<text text-anchor="start" x="455" y="-384" font-family="Helvetica,sans-Serif" font-size="10.00">asBoolean()</text>
<text text-anchor="start" x="423" y="-369" font-family="Helvetica,sans-Serif" font-size="10.00">+</text>
<text text-anchor="start" x="455" y="-369" font-family="Helvetica,sans-Serif" font-size="10.00">asString()</text>
<text text-anchor="start" x="423" y="-354" font-family="Helvetica,sans-Serif" font-size="10.00">+</text>
<text text-anchor="start" x="455" y="-354" font-family="Helvetica,sans-Serif" font-size="10.00">asInteger()</text>
<text text-anchor="start" x="423" y="-339" font-family="Helvetica,sans-Serif" font-size="10.00">+</text>
<text text-anchor="start" x="455" y="-339" font-family="Helvetica,sans-Serif" font-size="10.00">asDouble()</text>
<text text-anchor="start" x="423" y="-324" font-family="Helvetica,sans-Serif" font-size="10.00">+</text>
<text text-anchor="start" x="455" y="-324" font-family="Helvetica,sans-Serif" font-size="10.00">asBooleanArray()</text>
<text text-anchor="start" x="423" y="-309" font-family="Helvetica,sans-Serif" font-size="10.00">+</text>
<text text-anchor="start" x="455" y="-309" font-family="Helvetica,sans-Serif" font-size="10.00">asStringArray()</text>
<text text-anchor="start" x="423" y="-294" font-family="Helvetica,sans-Serif" font-size="10.00">+</text>
<text text-anchor="start" x="455" y="-294" font-family="Helvetica,sans-Serif" font-size="10.00">asIntegerArray()</text>
<text text-anchor="start" x="423" y="-279" font-family="Helvetica,sans-Serif" font-size="10.00">+</text>
<text text-anchor="start" x="455" y="-279" font-family="Helvetica,sans-Serif" font-size="10.00">asDoubleArray()</text>
<text text-anchor="start" x="423" y="-264" font-family="Helvetica,sans-Serif" font-size="10.00">+</text>
<text text-anchor="start" x="455" y="-264" font-family="Helvetica,sans-Serif" font-size="10.00">isNull()</text>
<text text-anchor="start" x="423" y="-249" font-family="Helvetica,sans-Serif" font-size="10.00">+</text>
<text text-anchor="start" x="455" y="-249" font-family="Helvetica,sans-Serif" font-size="10.00">toString()</text>
<text text-anchor="start" x="423" y="-234" font-family="Helvetica,sans-Serif" font-size="10.00">~</text>
<text text-anchor="start" x="455" y="-234" font-family="Helvetica,sans-Serif" font-size="10.00">getValue()</text>
<text text-anchor="start" x="423" y="-219" font-family="Helvetica,sans-Serif" font-size="10.00">~</text>
<text text-anchor="start" x="455" y="-219" font-family="Helvetica,sans-Serif" font-size="10.00">asArray()</text>
<text text-anchor="start" x="425.5" y="-204" font-family="Helvetica,sans-Serif" font-size="10.00">&#45;</text>
<text text-anchor="start" x="455" y="-204" font-family="Helvetica,sans-Serif" font-size="10.00">getDoubleType()</text>
<polygon fill="#666666" stroke="#666666" points="400,-439 400,-439 582,-439 582,-439 400,-439"/>
<polygon fill="#666666" stroke="#666666" points="400,-424 400,-424 453,-424 453,-424 400,-424"/>
<polygon fill="#666666" stroke="#666666" points="453,-424 453,-424 582,-424 582,-424 453,-424"/>
<polygon fill="none" stroke="#666666" points="400,-197 400,-467 582,-467 582,-197 400,-197"/>
</a>
</g>
</g>
<!-- Node1&#45;&gt;Node4 -->
<g id="edge3_Node000001_Node000004" class="edge">
<title>Node1&#45;&gt;Node4</title>
<g id="a_edge3_Node000001_Node000004"><a xlink:title=" ">
<path fill="none" stroke="#63b8ff" d="M406.63,-508.91C412.39,-496.9 419.33,-482.43 426.73,-467.01"/>
<polygon fill="none" stroke="#63b8ff" points="403.45,-507.46 402.28,-517.99 409.76,-510.48 403.45,-507.46"/>
</a>
</g>
</g>
<!-- Node5 -->
<g id="Node000005" class="node">
<title>Node5</title>
<g id="a_Node000005"><a xlink:href="classio_1_1github_1_1fruitcropxl_1_1config_1_1params_1_1groups_1_1ParamGroup.html" target="_top" xlink:title="Parameter configuration class for storing parameter categories.">
<polygon fill="white" stroke="transparent" points="818,-362 600,-362 600,-302 818,-302 818,-362"/>
<text text-anchor="start" x="605" y="-350" font-family="Helvetica,sans-Serif" font-size="10.00">io.github.fruitcropxl.config.params.groups.</text>
<text text-anchor="start" x="678.5" y="-339" font-family="Helvetica,sans-Serif" font-size="10.00">ParamGroup</text>
<text text-anchor="start" x="707" y="-324" font-family="Helvetica,sans-Serif" font-size="10.00"> </text>
<text text-anchor="start" x="636" y="-309" font-family="Helvetica,sans-Serif" font-size="10.00">#</text>
<text text-anchor="start" x="681" y="-309" font-family="Helvetica,sans-Serif" font-size="10.00">ParamGroup()</text>
<polygon fill="#666666" stroke="#666666" points="600,-334 600,-334 818,-334 818,-334 600,-334"/>
<polygon fill="#666666" stroke="#666666" points="600,-319 600,-319 818,-319 818,-319 600,-319"/>
<polygon fill="none" stroke="#666666" points="600,-302 600,-362 818,-362 818,-302 600,-302"/>
</a>
</g>
</g>
<!-- Node1&#45;&gt;Node5 -->
<g id="edge4_Node000001_Node000005" class="edge">
<title>Node1&#45;&gt;Node5</title>
<g id="a_edge4_Node000001_Node000005"><a xlink:title=" ">
<path fill="none" stroke="#63b8ff" d="M435.67,-536.12C478.55,-529.23 543.61,-514.08 591,-482 637.18,-450.74 673.81,-395.82 693.38,-362.1"/>
<polygon fill="none" stroke="#63b8ff" points="434.9,-532.7 425.54,-537.66 435.95,-539.62 434.9,-532.7"/>
</a>
</g>
</g>
<!-- Node6 -->
<g id="Node000006" class="node">
<title>Node6</title>
<g id="a_Node000006"><a xlink:href="classio_1_1github_1_1fruitcropxl_1_1config_1_1params_1_1groups_1_1DocumentCategoryNameGroup.html" target="_top" xlink:title="Represents and encapsulates access for the document&#45;category&#45;name format.">
<polygon fill="white" stroke="transparent" points="700,-125.5 482,-125.5 482,-20.5 700,-20.5 700,-125.5"/>
<text text-anchor="start" x="487" y="-113" font-family="Helvetica,sans-Serif" font-size="10.00">io.github.fruitcropxl.config.params.groups.</text>
<text text-anchor="start" x="514" y="-102" font-family="Helvetica,sans-Serif" font-size="10.00">DocumentCategoryNameGroup</text>
<text text-anchor="start" x="497.5" y="-87" font-family="Helvetica,sans-Serif" font-size="10.00">&#45;</text>
<text text-anchor="start" x="517" y="-87" font-family="Helvetica,sans-Serif" font-size="10.00">categoryStore</text>
<text text-anchor="start" x="495" y="-72" font-family="Helvetica,sans-Serif" font-size="10.00">+</text>
<text text-anchor="start" x="517" y="-72" font-family="Helvetica,sans-Serif" font-size="10.00">DocumentCategoryNameGroup()</text>
<text text-anchor="start" x="495" y="-57" font-family="Helvetica,sans-Serif" font-size="10.00">+</text>
<text text-anchor="start" x="517" y="-57" font-family="Helvetica,sans-Serif" font-size="10.00">getCategoryStore()</text>
<text text-anchor="start" x="495" y="-42" font-family="Helvetica,sans-Serif" font-size="10.00">+</text>
<text text-anchor="start" x="517" y="-42" font-family="Helvetica,sans-Serif" font-size="10.00">toString()</text>
<text text-anchor="start" x="495" y="-27" font-family="Helvetica,sans-Serif" font-size="10.00">+</text>
<text text-anchor="start" x="517" y="-27" font-family="Helvetica,sans-Serif" font-size="10.00">parse()</text>
<polygon fill="#666666" stroke="#666666" points="482,-97 482,-97 700,-97 700,-97 482,-97"/>
<polygon fill="#666666" stroke="#666666" points="482,-82 482,-82 515,-82 515,-82 482,-82"/>
<polygon fill="#666666" stroke="#666666" points="515,-82 515,-82 700,-82 700,-82 515,-82"/>
<polygon fill="none" stroke="#666666" points="482,-20.5 482,-125.5 700,-125.5 700,-20.5 482,-20.5"/>
</a>
</g>
</g>
<!-- Node5&#45;&gt;Node6 -->
<g id="edge5_Node000005_Node000006" class="edge">
<title>Node5&#45;&gt;Node6</title>
<g id="a_edge5_Node000005_Node000006"><a xlink:title=" ">
<path fill="none" stroke="#63b8ff" d="M691.2,-292.23C670.82,-247.84 637.34,-174.93 614.75,-125.73"/>
<polygon fill="none" stroke="#63b8ff" points="688.11,-293.89 695.46,-301.52 694.47,-290.97 688.11,-293.89"/>
</a>
</g>
</g>
<!-- Node7 -->
<g id="Node000007" class="node">
<title>Node7</title>
<g id="a_Node000007"><a xlink:href="classio_1_1github_1_1fruitcropxl_1_1config_1_1params_1_1groups_1_1DocumentHybridCategoryNameGroup.html" target="_top" xlink:title="Represents and encapsulates access for the document&#45;hybrid&#45;category&#45;name format.">
<polygon fill="white" stroke="transparent" points="936,-146 718,-146 718,0 936,0 936,-146"/>
<text text-anchor="start" x="723" y="-134" font-family="Helvetica,sans-Serif" font-size="10.00">io.github.fruitcropxl.config.params.groups.</text>
<text text-anchor="start" x="734" y="-123" font-family="Helvetica,sans-Serif" font-size="10.00">DocumentHybridCategoryNameGroup</text>
<text text-anchor="start" x="734.5" y="-108" font-family="Helvetica,sans-Serif" font-size="10.00">&#45;</text>
<text text-anchor="start" x="755" y="-108" font-family="Helvetica,sans-Serif" font-size="10.00">categoryStore</text>
<text text-anchor="start" x="734.5" y="-93" font-family="Helvetica,sans-Serif" font-size="10.00">&#45;</text>
<text text-anchor="start" x="755" y="-93" font-family="Helvetica,sans-Serif" font-size="10.00">tableStore</text>
<text text-anchor="start" x="732" y="-78" font-family="Helvetica,sans-Serif" font-size="10.00">+</text>
<text text-anchor="start" x="755" y="-78" font-family="Helvetica,sans-Serif" font-size="10.00">DocumentHybridCategoryName</text>
<text text-anchor="start" x="755" y="-67" font-family="Helvetica,sans-Serif" font-size="10.00">Group()</text>
<text text-anchor="start" x="732" y="-52" font-family="Helvetica,sans-Serif" font-size="10.00">+</text>
<text text-anchor="start" x="755" y="-52" font-family="Helvetica,sans-Serif" font-size="10.00">getCategoryStore()</text>
<text text-anchor="start" x="732" y="-37" font-family="Helvetica,sans-Serif" font-size="10.00">+</text>
<text text-anchor="start" x="755" y="-37" font-family="Helvetica,sans-Serif" font-size="10.00">getTableStore()</text>
<text text-anchor="start" x="732" y="-22" font-family="Helvetica,sans-Serif" font-size="10.00">+</text>
<text text-anchor="start" x="755" y="-22" font-family="Helvetica,sans-Serif" font-size="10.00">toString()</text>
<text text-anchor="start" x="732" y="-7" font-family="Helvetica,sans-Serif" font-size="10.00">+</text>
<text text-anchor="start" x="755" y="-7" font-family="Helvetica,sans-Serif" font-size="10.00">parse()</text>
<polygon fill="#666666" stroke="#666666" points="718,-118 718,-118 936,-118 936,-118 718,-118"/>
<polygon fill="#666666" stroke="#666666" points="718,-88 718,-88 753,-88 753,-88 718,-88"/>
<polygon fill="#666666" stroke="#666666" points="753,-88 753,-88 936,-88 936,-88 753,-88"/>
<polygon fill="none" stroke="#666666" points="718,0 718,-146 936,-146 936,0 718,0"/>
</a>
</g>
</g>
<!-- Node5&#45;&gt;Node7 -->
<g id="edge6_Node000005_Node000007" class="edge">
<title>Node5&#45;&gt;Node7</title>
<g id="a_edge6_Node000005_Node000007"><a xlink:title=" ">
<path fill="none" stroke="#63b8ff" d="M726.82,-292.19C744.54,-253.59 772.15,-193.46 793.9,-146.08"/>
<polygon fill="none" stroke="#63b8ff" points="723.53,-290.97 722.54,-301.52 729.89,-293.89 723.53,-290.97"/>
</a>
</g>
</g>
</g>
</svg>

<g id="navigator" transform="translate(0 0)" fill="#404254">
  <rect fill="#f2f5e9" fill-opacity="0.5" stroke="#606060" stroke-width=".5" x="0" y="0" width="60" height="60"/>
  <use id="zoomplus" xlink:href="#zoomPlus" x="17" y="9" onmousedown="handleZoom(evt,'in')"/>
  <use id="zoomminus" xlink:href="#zoomMin" x="42" y="9" onmousedown="handleZoom(evt,'out')"/>
  <use id="reset" xlink:href="#resetDef" x="30" y="36" onmousedown="handleReset()"/>
   <use id="arrowup" xlink:href="#arrowUp" x="0" y="0" onmousedown="handlePan(0,-1)"/>
  <use id="arrowright" xlink:href="#arrowRight" x="0" y="0" onmousedown="handlePan(1,0)"/>
  <use id="arrowdown" xlink:href="#arrowDown" x="0" y="0" onmousedown="handlePan(0,1)"/>
  <use id="arrowleft" xlink:href="#arrowLeft" x="0" y="0" onmousedown="handlePan(-1,0)"/>
</g>
<svg viewBox="0 0 15 15" width="100%" height="30px" preserveAspectRatio="xMaxYMin meet">
 <g id="arrow_out" transform="scale(0.3 0.3)">
  <a xlink:href="classKeyElement__inherit__graph_org.svg" target="_base">
   <rect id="button" ry="5" rx="5" y="6" x="6" height="38" width="38"
        fill="#f2f5e9" fill-opacity="0.5" stroke="#606060" stroke-width="1.0"/>
   <path id="arrow"
     d="M 11.500037,31.436501 C 11.940474,20.09759 22.043105,11.32322 32.158766,21.979434 L 37.068811,17.246167 C 37.068811,17.246167 37.088388,32 37.088388,32 L 22.160133,31.978069 C 22.160133,31.978069 26.997745,27.140456 26.997745,27.140456 C 18.528582,18.264221 13.291696,25.230495 11.500037,31.436501 z"
     style="fill:#404040;"/>
  </a>
 </g>
</svg>

<style type='text/css'>
<![CDATA[
[data-mouse-over-selected='false'] { opacity: 0.7; }
[data-mouse-over-selected='true']  { opacity: 1.0; }
]]>
</style>
<script type="application/ecmascript"><![CDATA[
document.addEventListener('DOMContentLoaded', (event) => {
  highlightEdges();
  highlightAdjacentNodes();
});
]]></script>
</svg>
