<?xml version="1.0" encoding="UTF-8" standalone="no"?>
<!DOCTYPE svg PUBLIC "-//W3C//DTD SVG 1.1//EN"
 "http://www.w3.org/Graphics/SVG/1.1/DTD/svg11.dtd">
<!-- Generated by graphviz version 2.43.0 (0)
 -->
<!-- Title: io.github.fruitcropxl.config.params.groups.DocumentCategoryNameGroup Pages: 1 -->
<svg width="226pt" height="294pt"
 viewBox="0.00 0.00 226.00 294.00" xmlns="http://www.w3.org/2000/svg" xmlns:xlink="http://www.w3.org/1999/xlink">

<svg id="main" version="1.1" xmlns="http://www.w3.org/2000/svg" xmlns:xlink="http://www.w3.org/1999/xlink" xml:space="preserve" onload="init(evt)">
<style type="text/css"><![CDATA[
.node, .edge {opacity: 0.7;}
.node.selected, .edge.selected {opacity: 1;}
.edge:hover path { stroke: red; }
.edge:hover polygon { stroke: red; fill: red; }
]]></style>
<script type="application/ecmascript" xlink:href="svg.min.js"/>
<svg id="graph" class="graph">
<g id="graph0" class="graph" transform="scale(1 1) rotate(0) translate(4 290)">
<title>io.github.fruitcropxl.config.params.groups.DocumentCategoryNameGroup</title>
<!-- Node1 -->
<g id="Node000001" class="node">
<title>Node1</title>
<g id="a_Node000001"><a xlink:title="Represents and encapsulates access for the document&#45;category&#45;name format.">
<polygon fill="#999999" stroke="transparent" points="218,-105 0,-105 0,0 218,0 218,-105"/>
<text text-anchor="start" x="5" y="-92.5" font-family="Helvetica,sans-Serif" font-size="10.00">io.github.fruitcropxl.config.params.groups.</text>
<text text-anchor="start" x="32" y="-81.5" font-family="Helvetica,sans-Serif" font-size="10.00">DocumentCategoryNameGroup</text>
<text text-anchor="start" x="15.5" y="-66.5" font-family="Helvetica,sans-Serif" font-size="10.00">&#45;</text>
<text text-anchor="start" x="35" y="-66.5" font-family="Helvetica,sans-Serif" font-size="10.00">categoryStore</text>
<text text-anchor="start" x="13" y="-51.5" font-family="Helvetica,sans-Serif" font-size="10.00">+</text>
<text text-anchor="start" x="35" y="-51.5" font-family="Helvetica,sans-Serif" font-size="10.00">DocumentCategoryNameGroup()</text>
<text text-anchor="start" x="13" y="-36.5" font-family="Helvetica,sans-Serif" font-size="10.00">+</text>
<text text-anchor="start" x="35" y="-36.5" font-family="Helvetica,sans-Serif" font-size="10.00">getCategoryStore()</text>
<text text-anchor="start" x="13" y="-21.5" font-family="Helvetica,sans-Serif" font-size="10.00">+</text>
<text text-anchor="start" x="35" y="-21.5" font-family="Helvetica,sans-Serif" font-size="10.00">toString()</text>
<text text-anchor="start" x="13" y="-6.5" font-family="Helvetica,sans-Serif" font-size="10.00">+</text>
<text text-anchor="start" x="35" y="-6.5" font-family="Helvetica,sans-Serif" font-size="10.00">parse()</text>
<polygon fill="#666666" stroke="#666666" points="0,-76.5 0,-76.5 218,-76.5 218,-76.5 0,-76.5"/>
<polygon fill="#666666" stroke="#666666" points="0,-61.5 0,-61.5 33,-61.5 33,-61.5 0,-61.5"/>
<polygon fill="#666666" stroke="#666666" points="33,-61.5 33,-61.5 218,-61.5 218,-61.5 33,-61.5"/>
<polygon fill="none" stroke="#666666" points="0,0 0,-105 218,-105 218,0 0,0"/>
</a>
</g>
</g>
<!-- Node2 -->
<g id="Node000002" class="node">
<title>Node2</title>
<g id="a_Node000002"><a xlink:href="classio_1_1github_1_1fruitcropxl_1_1config_1_1params_1_1groups_1_1ParamGroup.html" target="_top" xlink:title="Parameter configuration class for storing parameter categories.">
<polygon fill="white" stroke="transparent" points="218,-201 0,-201 0,-141 218,-141 218,-201"/>
<text text-anchor="start" x="5" y="-189" font-family="Helvetica,sans-Serif" font-size="10.00">io.github.fruitcropxl.config.params.groups.</text>
<text text-anchor="start" x="78.5" y="-178" font-family="Helvetica,sans-Serif" font-size="10.00">ParamGroup</text>
<text text-anchor="start" x="107" y="-163" font-family="Helvetica,sans-Serif" font-size="10.00"> </text>
<text text-anchor="start" x="36" y="-148" font-family="Helvetica,sans-Serif" font-size="10.00">#</text>
<text text-anchor="start" x="81" y="-148" font-family="Helvetica,sans-Serif" font-size="10.00">ParamGroup()</text>
<polygon fill="#666666" stroke="#666666" points="0,-173 0,-173 218,-173 218,-173 0,-173"/>
<polygon fill="#666666" stroke="#666666" points="0,-158 0,-158 218,-158 218,-158 0,-158"/>
<polygon fill="none" stroke="#666666" points="0,-141 0,-201 218,-201 218,-141 0,-141"/>
</a>
</g>
</g>
<!-- Node2&#45;&gt;Node1 -->
<g id="edge1_Node000001_Node000002" class="edge">
<title>Node2&#45;&gt;Node1</title>
<g id="a_edge1_Node000001_Node000002"><a xlink:title=" ">
<path fill="none" stroke="#63b8ff" d="M109,-130.88C109,-122.68 109,-113.92 109,-105.34"/>
<polygon fill="none" stroke="#63b8ff" points="105.5,-130.9 109,-140.9 112.5,-130.9 105.5,-130.9"/>
</a>
</g>
</g>
<!-- Node3 -->
<g id="Node000003" class="node">
<title>Node3</title>
<g id="a_Node000003"><a xlink:href="classKeyElement.html" target="_top" xlink:title=" ">
<polygon fill="white" stroke="transparent" points="143.5,-286 74.5,-286 74.5,-237 143.5,-237 143.5,-286"/>
<text text-anchor="start" x="80" y="-273.5" font-family="Helvetica,sans-Serif" font-size="10.00">KeyElement</text>
<text text-anchor="start" x="107.5" y="-258.5" font-family="Helvetica,sans-Serif" font-size="10.00"> </text>
<text text-anchor="start" x="107.5" y="-243.5" font-family="Helvetica,sans-Serif" font-size="10.00"> </text>
<polygon fill="#666666" stroke="#666666" points="75,-268.5 75,-268.5 144,-268.5 144,-268.5 75,-268.5"/>
<polygon fill="#666666" stroke="#666666" points="75,-253.5 75,-253.5 144,-253.5 144,-253.5 75,-253.5"/>
<polygon fill="none" stroke="#666666" points="74.5,-237 74.5,-286 143.5,-286 143.5,-237 74.5,-237"/>
</a>
</g>
</g>
<!-- Node3&#45;&gt;Node2 -->
<g id="edge2_Node000002_Node000003" class="edge">
<title>Node3&#45;&gt;Node2</title>
<g id="a_edge2_Node000002_Node000003"><a xlink:title=" ">
<path fill="none" stroke="#63b8ff" d="M109,-226.55C109,-218.18 109,-209.28 109,-201.16"/>
<polygon fill="none" stroke="#63b8ff" points="105.5,-226.78 109,-236.78 112.5,-226.78 105.5,-226.78"/>
</a>
</g>
</g>
</g>
</svg>
</svg>

<style type='text/css'>
<![CDATA[
[data-mouse-over-selected='false'] { opacity: 0.7; }
[data-mouse-over-selected='true']  { opacity: 1.0; }
]]>
</style>
<script type="application/ecmascript"><![CDATA[
document.addEventListener('DOMContentLoaded', (event) => {
  highlightEdges();
  highlightAdjacentNodes();
});
]]></script>
</svg>
