<?xml version="1.0" encoding="UTF-8" standalone="no"?>
<!DOCTYPE svg PUBLIC "-//W3C//DTD SVG 1.1//EN"
 "http://www.w3.org/Graphics/SVG/1.1/DTD/svg11.dtd">
<!-- Generated by graphviz version 2.43.0 (0)
 -->
<!-- Title: fspm.config.params.Parameter.getDoubleType Pages: 1 -->
<svg width="1274pt" height="666pt"
 viewBox="0.00 0.00 1274.00 666.00" xmlns="http://www.w3.org/2000/svg" xmlns:xlink="http://www.w3.org/1999/xlink">
<g id="graph0" class="graph" transform="scale(1 1) rotate(0) translate(4 662)">
<title>fspm.config.params.Parameter.getDoubleType</title>
<!-- Node1 -->
<g id="node1" class="node">
<title>Node1</title>
<g id="a_node1"><a xlink:title=" ">
<polygon fill="#bfbfbf" stroke="black" points="1081,-289.5 1081,-319.5 1266,-319.5 1266,-289.5 1081,-289.5"/>
<text text-anchor="start" x="1089" y="-307.5" font-family="Helvetica,sans-Serif" font-size="10.00">fspm.config.params.Parameter.get</text>
<text text-anchor="middle" x="1173.5" y="-296.5" font-family="Helvetica,sans-Serif" font-size="10.00">DoubleType</text>
</a>
</g>
</g>
<!-- Node2 -->
<g id="node2" class="node">
<title>Node2</title>
<g id="a_node2"><a xlink:href="classfspm_1_1config_1_1params_1_1Parameter_a2dced470a20701940042f6dacad7f78e.html#a2dced470a20701940042f6dacad7f78e" target="_top" xlink:title=" ">
<polygon fill="none" stroke="black" points="865,-431.5 865,-461.5 1045,-461.5 1045,-431.5 865,-431.5"/>
<text text-anchor="start" x="873" y="-449.5" font-family="Helvetica,sans-Serif" font-size="10.00">fspm.config.params.Parameter.as</text>
<text text-anchor="middle" x="955" y="-438.5" font-family="Helvetica,sans-Serif" font-size="10.00">Array</text>
</a>
</g>
</g>
<!-- Node1&#45;&gt;Node2 -->
<g id="edge1" class="edge">
<title>Node1&#45;&gt;Node2</title>
<path fill="none" stroke="midnightblue" d="M1140.73,-325.34C1096.62,-354.27 1017.87,-405.92 979,-431.41"/>
<polygon fill="midnightblue" stroke="midnightblue" points="1142.89,-328.11 1149.33,-319.7 1139.05,-322.25 1142.89,-328.11"/>
</g>
<!-- Node23 -->
<g id="node23" class="node">
<title>Node23</title>
<g id="a_node23"><a xlink:href="classfspm_1_1config_1_1params_1_1Parameter_ad0857a4bb8cd3c4d354682f2e90bf362.html#ad0857a4bb8cd3c4d354682f2e90bf362" target="_top" xlink:title=" ">
<polygon fill="none" stroke="black" points="865,-147.5 865,-177.5 1045,-177.5 1045,-147.5 865,-147.5"/>
<text text-anchor="start" x="873" y="-165.5" font-family="Helvetica,sans-Serif" font-size="10.00">fspm.config.params.Parameter.as</text>
<text text-anchor="middle" x="955" y="-154.5" font-family="Helvetica,sans-Serif" font-size="10.00">Double</text>
</a>
</g>
</g>
<!-- Node1&#45;&gt;Node23 -->
<g id="edge23" class="edge">
<title>Node1&#45;&gt;Node23</title>
<path fill="none" stroke="midnightblue" d="M1140.73,-283.66C1096.62,-254.73 1017.87,-203.08 979,-177.59"/>
<polygon fill="midnightblue" stroke="midnightblue" points="1139.05,-286.75 1149.33,-289.3 1142.89,-280.89 1139.05,-286.75"/>
</g>
<!-- Node3 -->
<g id="node3" class="node">
<title>Node3</title>
<g id="a_node3"><a xlink:href="classfspm_1_1config_1_1params_1_1Parameter_a7bd98e842e2c8e7283b17017707da9be.html#a7bd98e842e2c8e7283b17017707da9be" target="_top" xlink:title=" ">
<polygon fill="none" stroke="black" points="649,-590.5 649,-620.5 829,-620.5 829,-590.5 649,-590.5"/>
<text text-anchor="start" x="657" y="-608.5" font-family="Helvetica,sans-Serif" font-size="10.00">fspm.config.params.Parameter.as</text>
<text text-anchor="middle" x="739" y="-597.5" font-family="Helvetica,sans-Serif" font-size="10.00">BooleanArray</text>
</a>
</g>
</g>
<!-- Node2&#45;&gt;Node3 -->
<g id="edge2" class="edge">
<title>Node2&#45;&gt;Node3</title>
<path fill="none" stroke="midnightblue" d="M935.59,-469.45C912.94,-496.46 872.13,-541.19 829,-569.5 816.18,-577.91 801.08,-584.93 787,-590.47"/>
<polygon fill="midnightblue" stroke="midnightblue" points="938.35,-471.62 942.03,-461.68 932.95,-467.15 938.35,-471.62"/>
</g>
<!-- Node7 -->
<g id="node7" class="node">
<title>Node7</title>
<g id="a_node7"><a xlink:href="classfspm_1_1config_1_1params_1_1Parameter_a9602723e39e140c1a5188f3f6bafacfa.html#a9602723e39e140c1a5188f3f6bafacfa" target="_top" xlink:title=" ">
<polygon fill="none" stroke="black" points="649,-529.5 649,-559.5 829,-559.5 829,-529.5 649,-529.5"/>
<text text-anchor="start" x="657" y="-547.5" font-family="Helvetica,sans-Serif" font-size="10.00">fspm.config.params.Parameter.as</text>
<text text-anchor="middle" x="739" y="-536.5" font-family="Helvetica,sans-Serif" font-size="10.00">DoubleArray</text>
</a>
</g>
</g>
<!-- Node2&#45;&gt;Node7 -->
<g id="edge6" class="edge">
<title>Node2&#45;&gt;Node7</title>
<path fill="none" stroke="midnightblue" d="M923.87,-467.51C899.28,-483.85 863.15,-506.1 829,-520.5 821.18,-523.79 812.79,-526.75 804.39,-529.38"/>
<polygon fill="midnightblue" stroke="midnightblue" points="926.04,-470.26 932.38,-461.78 922.13,-464.46 926.04,-470.26"/>
</g>
<!-- Node11 -->
<g id="node11" class="node">
<title>Node11</title>
<g id="a_node11"><a xlink:href="classfspm_1_1config_1_1params_1_1Parameter_a05e8bc0ef3f057f90004b4ec4b3d0efe.html#a05e8bc0ef3f057f90004b4ec4b3d0efe" target="_top" xlink:title=" ">
<polygon fill="none" stroke="black" points="649,-480.5 649,-510.5 829,-510.5 829,-480.5 649,-480.5"/>
<text text-anchor="start" x="657" y="-498.5" font-family="Helvetica,sans-Serif" font-size="10.00">fspm.config.params.Parameter.as</text>
<text text-anchor="middle" x="739" y="-487.5" font-family="Helvetica,sans-Serif" font-size="10.00">IntegerArray</text>
</a>
</g>
</g>
<!-- Node2&#45;&gt;Node11 -->
<g id="edge10" class="edge">
<title>Node2&#45;&gt;Node11</title>
<path fill="none" stroke="midnightblue" d="M878.31,-463.83C854.55,-469.27 828.53,-475.23 805.54,-480.49"/>
<polygon fill="midnightblue" stroke="midnightblue" points="879.37,-467.18 888.34,-461.53 877.81,-460.35 879.37,-467.18"/>
</g>
<!-- Node15 -->
<g id="node15" class="node">
<title>Node15</title>
<g id="a_node15"><a xlink:href="classfspm_1_1config_1_1params_1_1Parameter_a80c0cb3ad8030dd29fdc38382dffbb61.html#a80c0cb3ad8030dd29fdc38382dffbb61" target="_top" xlink:title=" ">
<polygon fill="none" stroke="black" points="649,-431.5 649,-461.5 829,-461.5 829,-431.5 649,-431.5"/>
<text text-anchor="start" x="657" y="-449.5" font-family="Helvetica,sans-Serif" font-size="10.00">fspm.config.params.Parameter.as</text>
<text text-anchor="middle" x="739" y="-438.5" font-family="Helvetica,sans-Serif" font-size="10.00">StringArray</text>
</a>
</g>
</g>
<!-- Node2&#45;&gt;Node15 -->
<g id="edge14" class="edge">
<title>Node2&#45;&gt;Node15</title>
<path fill="none" stroke="midnightblue" d="M854.77,-446.5C846.19,-446.5 837.55,-446.5 829.06,-446.5"/>
<polygon fill="midnightblue" stroke="midnightblue" points="854.79,-450 864.79,-446.5 854.79,-443 854.79,-450"/>
</g>
<!-- Node18 -->
<g id="node18" class="node">
<title>Node18</title>
<g id="a_node18"><a xlink:href="classfspm_1_1config_1_1params_1_1ParamCategory_addcc002dbf650fbc675a1ef472dfa088.html#addcc002dbf650fbc675a1ef472dfa088" target="_top" xlink:title=" ">
<polygon fill="none" stroke="black" points="665.5,-382.5 665.5,-412.5 812.5,-412.5 812.5,-382.5 665.5,-382.5"/>
<text text-anchor="start" x="673.5" y="-400.5" font-family="Helvetica,sans-Serif" font-size="10.00">fspm.config.params.Param</text>
<text text-anchor="middle" x="739" y="-389.5" font-family="Helvetica,sans-Serif" font-size="10.00">Category.getArray</text>
</a>
</g>
</g>
<!-- Node2&#45;&gt;Node18 -->
<g id="edge17" class="edge">
<title>Node2&#45;&gt;Node18</title>
<path fill="none" stroke="midnightblue" d="M878.31,-429.17C854.55,-423.73 828.53,-417.77 805.54,-412.51"/>
<polygon fill="midnightblue" stroke="midnightblue" points="877.81,-432.65 888.34,-431.47 879.37,-425.82 877.81,-432.65"/>
</g>
<!-- Node22 -->
<g id="node22" class="node">
<title>Node22</title>
<g id="a_node22"><a xlink:href="classfspm_1_1config_1_1params_1_1ParamTable_a941e459792096daaec6f6525f4e130df.html#a941e459792096daaec6f6525f4e130df" target="_top" xlink:title=" ">
<polygon fill="none" stroke="black" points="665.5,-333.5 665.5,-363.5 812.5,-363.5 812.5,-333.5 665.5,-333.5"/>
<text text-anchor="start" x="673.5" y="-351.5" font-family="Helvetica,sans-Serif" font-size="10.00">fspm.config.params.Param</text>
<text text-anchor="middle" x="739" y="-340.5" font-family="Helvetica,sans-Serif" font-size="10.00">Table.getArray</text>
</a>
</g>
</g>
<!-- Node2&#45;&gt;Node22 -->
<g id="edge22" class="edge">
<title>Node2&#45;&gt;Node22</title>
<path fill="none" stroke="midnightblue" d="M923.34,-425.61C898.72,-409.58 862.79,-387.84 829,-373.5 820.28,-369.8 810.86,-366.48 801.51,-363.56"/>
<polygon fill="midnightblue" stroke="midnightblue" points="921.6,-428.65 931.87,-431.23 925.45,-422.8 921.6,-428.65"/>
</g>
<!-- Node4 -->
<g id="node4" class="node">
<title>Node4</title>
<g id="a_node4"><a xlink:href="classfspm_1_1config_1_1params_1_1ParamCategory_a13e0ff70b1e28c8f3533eaee62c6abf3.html#a13e0ff70b1e28c8f3533eaee62c6abf3" target="_top" xlink:title=" ">
<polygon fill="none" stroke="black" points="455.5,-602.5 455.5,-632.5 602.5,-632.5 602.5,-602.5 455.5,-602.5"/>
<text text-anchor="start" x="463.5" y="-620.5" font-family="Helvetica,sans-Serif" font-size="10.00">fspm.config.params.Param</text>
<text text-anchor="middle" x="529" y="-609.5" font-family="Helvetica,sans-Serif" font-size="10.00">Category.getBooleanArray</text>
</a>
</g>
</g>
<!-- Node3&#45;&gt;Node4 -->
<g id="edge3" class="edge">
<title>Node3&#45;&gt;Node4</title>
<path fill="none" stroke="midnightblue" d="M638.7,-611.23C626.54,-611.93 614.3,-612.64 602.63,-613.31"/>
<polygon fill="midnightblue" stroke="midnightblue" points="639.1,-614.71 648.88,-610.64 638.7,-607.72 639.1,-614.71"/>
</g>
<!-- Node5 -->
<g id="node5" class="node">
<title>Node5</title>
<g id="a_node5"><a xlink:href="classfspm_1_1config_1_1params_1_1structures_1_1CategoryStore_aca9abcc056b90dadb0c476b829f77f92.html#aca9abcc056b90dadb0c476b829f77f92" target="_top" xlink:title=" ">
<polygon fill="none" stroke="black" points="225,-627.5 225,-657.5 396,-657.5 396,-627.5 225,-627.5"/>
<text text-anchor="start" x="233" y="-645.5" font-family="Helvetica,sans-Serif" font-size="10.00">fspm.config.params.structures.</text>
<text text-anchor="middle" x="310.5" y="-634.5" font-family="Helvetica,sans-Serif" font-size="10.00">CategoryStore.getBooleanArray</text>
</a>
</g>
</g>
<!-- Node4&#45;&gt;Node5 -->
<g id="edge4" class="edge">
<title>Node4&#45;&gt;Node5</title>
<path fill="none" stroke="midnightblue" d="M444.97,-627.09C429.04,-628.93 412.34,-630.86 396.36,-632.7"/>
<polygon fill="midnightblue" stroke="midnightblue" points="445.77,-630.52 455.31,-625.89 444.97,-623.56 445.77,-630.52"/>
</g>
<!-- Node6 -->
<g id="node6" class="node">
<title>Node6</title>
<g id="a_node6"><a xlink:href="classfspm_1_1config_1_1tests_1_1ParamAccess_1_1ArrayTest_aa473b3f7e16319b82590bc9558a94bd4.html#aa473b3f7e16319b82590bc9558a94bd4" target="_top" xlink:title=" ">
<polygon fill="none" stroke="black" points="0,-627.5 0,-657.5 176,-657.5 176,-627.5 0,-627.5"/>
<text text-anchor="start" x="8" y="-645.5" font-family="Helvetica,sans-Serif" font-size="10.00">fspm.config.tests.ParamAccess.</text>
<text text-anchor="middle" x="88" y="-634.5" font-family="Helvetica,sans-Serif" font-size="10.00">ArrayTest.testIncorrectArrayType</text>
</a>
</g>
</g>
<!-- Node5&#45;&gt;Node6 -->
<g id="edge5" class="edge">
<title>Node5&#45;&gt;Node6</title>
<path fill="none" stroke="midnightblue" d="M214.72,-642.5C201.97,-642.5 188.93,-642.5 176.32,-642.5"/>
<polygon fill="midnightblue" stroke="midnightblue" points="214.88,-646 224.88,-642.5 214.88,-639 214.88,-646"/>
</g>
<!-- Node8 -->
<g id="node8" class="node">
<title>Node8</title>
<g id="a_node8"><a xlink:href="classfspm_1_1config_1_1params_1_1ParamCategory_a480fdf398400180423780ae25a3c4656.html#a480fdf398400180423780ae25a3c4656" target="_top" xlink:title=" ">
<polygon fill="none" stroke="black" points="455.5,-529.5 455.5,-559.5 602.5,-559.5 602.5,-529.5 455.5,-529.5"/>
<text text-anchor="start" x="463.5" y="-547.5" font-family="Helvetica,sans-Serif" font-size="10.00">fspm.config.params.Param</text>
<text text-anchor="middle" x="529" y="-536.5" font-family="Helvetica,sans-Serif" font-size="10.00">Category.getDoubleArray</text>
</a>
</g>
</g>
<!-- Node7&#45;&gt;Node8 -->
<g id="edge7" class="edge">
<title>Node7&#45;&gt;Node8</title>
<path fill="none" stroke="midnightblue" d="M638.7,-544.5C626.54,-544.5 614.3,-544.5 602.63,-544.5"/>
<polygon fill="midnightblue" stroke="midnightblue" points="638.88,-548 648.88,-544.5 638.88,-541 638.88,-548"/>
</g>
<!-- Node9 -->
<g id="node9" class="node">
<title>Node9</title>
<g id="a_node9"><a xlink:href="classfspm_1_1config_1_1params_1_1structures_1_1CategoryStore_a9950176b2d1474857fac4ca1f0cb58ea.html#a9950176b2d1474857fac4ca1f0cb58ea" target="_top" xlink:title=" ">
<polygon fill="none" stroke="black" points="226.5,-578.5 226.5,-608.5 394.5,-608.5 394.5,-578.5 226.5,-578.5"/>
<text text-anchor="start" x="234.5" y="-596.5" font-family="Helvetica,sans-Serif" font-size="10.00">fspm.config.params.structures.</text>
<text text-anchor="middle" x="310.5" y="-585.5" font-family="Helvetica,sans-Serif" font-size="10.00">CategoryStore.getDoubleArray</text>
</a>
</g>
</g>
<!-- Node8&#45;&gt;Node9 -->
<g id="edge8" class="edge">
<title>Node8&#45;&gt;Node9</title>
<path fill="none" stroke="midnightblue" d="M451.75,-561.76C427.62,-567.22 401.17,-573.21 377.8,-578.49"/>
<polygon fill="midnightblue" stroke="midnightblue" points="452.59,-565.16 461.57,-559.53 451.05,-558.33 452.59,-565.16"/>
</g>
<!-- Node10 -->
<g id="node10" class="node">
<title>Node10</title>
<g id="a_node10"><a xlink:href="classfspm_1_1config_1_1tests_1_1ParamAccess_1_1ArrayTest_afdf9d3f4bfbd8e16cf4f4b46dfe3047b.html#afdf9d3f4bfbd8e16cf4f4b46dfe3047b" target="_top" xlink:title=" ">
<polygon fill="none" stroke="black" points="215,-529.5 215,-559.5 406,-559.5 406,-529.5 215,-529.5"/>
<text text-anchor="start" x="223" y="-547.5" font-family="Helvetica,sans-Serif" font-size="10.00">fspm.config.tests.ParamAccess.</text>
<text text-anchor="middle" x="310.5" y="-536.5" font-family="Helvetica,sans-Serif" font-size="10.00">ArrayTest.testGetDoubleArrayCases</text>
</a>
</g>
</g>
<!-- Node8&#45;&gt;Node10 -->
<g id="edge9" class="edge">
<title>Node8&#45;&gt;Node10</title>
<path fill="none" stroke="midnightblue" d="M445.22,-544.5C432.49,-544.5 419.27,-544.5 406.3,-544.5"/>
<polygon fill="midnightblue" stroke="midnightblue" points="445.31,-548 455.31,-544.5 445.31,-541 445.31,-548"/>
</g>
<!-- Node12 -->
<g id="node12" class="node">
<title>Node12</title>
<g id="a_node12"><a xlink:href="classfspm_1_1config_1_1params_1_1ParamCategory_a38b2d59e68a994758753fbe4e590a9d8.html#a38b2d59e68a994758753fbe4e590a9d8" target="_top" xlink:title=" ">
<polygon fill="none" stroke="black" points="455.5,-480.5 455.5,-510.5 602.5,-510.5 602.5,-480.5 455.5,-480.5"/>
<text text-anchor="start" x="463.5" y="-498.5" font-family="Helvetica,sans-Serif" font-size="10.00">fspm.config.params.Param</text>
<text text-anchor="middle" x="529" y="-487.5" font-family="Helvetica,sans-Serif" font-size="10.00">Category.getIntegerArray</text>
</a>
</g>
</g>
<!-- Node11&#45;&gt;Node12 -->
<g id="edge11" class="edge">
<title>Node11&#45;&gt;Node12</title>
<path fill="none" stroke="midnightblue" d="M638.7,-495.5C626.54,-495.5 614.3,-495.5 602.63,-495.5"/>
<polygon fill="midnightblue" stroke="midnightblue" points="638.88,-499 648.88,-495.5 638.88,-492 638.88,-499"/>
</g>
<!-- Node13 -->
<g id="node13" class="node">
<title>Node13</title>
<g id="a_node13"><a xlink:href="classfspm_1_1config_1_1params_1_1structures_1_1CategoryStore_a6759242817483869cfef2820dfb8afe4.html#a6759242817483869cfef2820dfb8afe4" target="_top" xlink:title=" ">
<polygon fill="none" stroke="black" points="226.5,-480.5 226.5,-510.5 394.5,-510.5 394.5,-480.5 226.5,-480.5"/>
<text text-anchor="start" x="234.5" y="-498.5" font-family="Helvetica,sans-Serif" font-size="10.00">fspm.config.params.structures.</text>
<text text-anchor="middle" x="310.5" y="-487.5" font-family="Helvetica,sans-Serif" font-size="10.00">CategoryStore.getIntegerArray</text>
</a>
</g>
</g>
<!-- Node12&#45;&gt;Node13 -->
<g id="edge12" class="edge">
<title>Node12&#45;&gt;Node13</title>
<path fill="none" stroke="midnightblue" d="M445.16,-495.5C428.67,-495.5 411.35,-495.5 394.84,-495.5"/>
<polygon fill="midnightblue" stroke="midnightblue" points="445.31,-499 455.31,-495.5 445.31,-492 445.31,-499"/>
</g>
<!-- Node14 -->
<g id="node14" class="node">
<title>Node14</title>
<g id="a_node14"><a xlink:href="classfspm_1_1config_1_1tests_1_1ParamAccess_1_1ArrayTest_a7f034099689706d2e263f1d7d04b0f9a.html#a7f034099689706d2e263f1d7d04b0f9a" target="_top" xlink:title=" ">
<polygon fill="none" stroke="black" points="2.5,-434.5 2.5,-464.5 173.5,-464.5 173.5,-434.5 2.5,-434.5"/>
<text text-anchor="start" x="10.5" y="-452.5" font-family="Helvetica,sans-Serif" font-size="10.00">fspm.config.tests.ParamAccess.</text>
<text text-anchor="middle" x="88" y="-441.5" font-family="Helvetica,sans-Serif" font-size="10.00">ArrayTest.testGetArrays</text>
</a>
</g>
</g>
<!-- Node13&#45;&gt;Node14 -->
<g id="edge13" class="edge">
<title>Node13&#45;&gt;Node14</title>
<path fill="none" stroke="midnightblue" d="M227.4,-478.37C205.59,-473.82 182.21,-468.95 160.99,-464.52"/>
<polygon fill="midnightblue" stroke="midnightblue" points="226.8,-481.82 237.3,-480.44 228.23,-474.97 226.8,-481.82"/>
</g>
<!-- Node16 -->
<g id="node16" class="node">
<title>Node16</title>
<g id="a_node16"><a xlink:href="classfspm_1_1config_1_1params_1_1ParamCategory_acfe96862fe8cea782cd628ff73071ed5.html#acfe96862fe8cea782cd628ff73071ed5" target="_top" xlink:title=" ">
<polygon fill="none" stroke="black" points="455.5,-431.5 455.5,-461.5 602.5,-461.5 602.5,-431.5 455.5,-431.5"/>
<text text-anchor="start" x="463.5" y="-449.5" font-family="Helvetica,sans-Serif" font-size="10.00">fspm.config.params.Param</text>
<text text-anchor="middle" x="529" y="-438.5" font-family="Helvetica,sans-Serif" font-size="10.00">Category.getStringArray</text>
</a>
</g>
</g>
<!-- Node15&#45;&gt;Node16 -->
<g id="edge15" class="edge">
<title>Node15&#45;&gt;Node16</title>
<path fill="none" stroke="midnightblue" d="M638.7,-446.5C626.54,-446.5 614.3,-446.5 602.63,-446.5"/>
<polygon fill="midnightblue" stroke="midnightblue" points="638.88,-450 648.88,-446.5 638.88,-443 638.88,-450"/>
</g>
<!-- Node17 -->
<g id="node17" class="node">
<title>Node17</title>
<g id="a_node17"><a xlink:href="classfspm_1_1config_1_1params_1_1structures_1_1CategoryStore_a9061f43fab298f2399489236e31c198d.html#a9061f43fab298f2399489236e31c198d" target="_top" xlink:title=" ">
<polygon fill="none" stroke="black" points="226.5,-431.5 226.5,-461.5 394.5,-461.5 394.5,-431.5 226.5,-431.5"/>
<text text-anchor="start" x="234.5" y="-449.5" font-family="Helvetica,sans-Serif" font-size="10.00">fspm.config.params.structures.</text>
<text text-anchor="middle" x="310.5" y="-438.5" font-family="Helvetica,sans-Serif" font-size="10.00">CategoryStore.getStringArray</text>
</a>
</g>
</g>
<!-- Node16&#45;&gt;Node17 -->
<g id="edge16" class="edge">
<title>Node16&#45;&gt;Node17</title>
<path fill="none" stroke="midnightblue" d="M445.16,-446.5C428.67,-446.5 411.35,-446.5 394.84,-446.5"/>
<polygon fill="midnightblue" stroke="midnightblue" points="445.31,-450 455.31,-446.5 445.31,-443 445.31,-450"/>
</g>
<!-- Node19 -->
<g id="node19" class="node">
<title>Node19</title>
<g id="a_node19"><a xlink:href="classfspm_1_1config_1_1params_1_1structures_1_1CategoryStore_ac2aa1d4fec9c78f0e9433016759c39e0.html#ac2aa1d4fec9c78f0e9433016759c39e0" target="_top" xlink:title=" ">
<polygon fill="none" stroke="black" points="445,-362.5 445,-392.5 613,-392.5 613,-362.5 445,-362.5"/>
<text text-anchor="start" x="453" y="-380.5" font-family="Helvetica,sans-Serif" font-size="10.00">fspm.config.params.structures.</text>
<text text-anchor="middle" x="529" y="-369.5" font-family="Helvetica,sans-Serif" font-size="10.00">CategoryStore.getArray</text>
</a>
</g>
</g>
<!-- Node18&#45;&gt;Node19 -->
<g id="edge18" class="edge">
<title>Node18&#45;&gt;Node19</title>
<path fill="none" stroke="midnightblue" d="M655.24,-389.54C641.35,-388.21 626.93,-386.82 613.03,-385.48"/>
<polygon fill="midnightblue" stroke="midnightblue" points="654.96,-393.03 665.25,-390.5 655.63,-386.06 654.96,-393.03"/>
</g>
<!-- Node19&#45;&gt;Node14 -->
<g id="edge20" class="edge">
<title>Node19&#45;&gt;Node14</title>
<path fill="none" stroke="midnightblue" d="M434.96,-388.89C371.86,-397.08 286.67,-409.01 212,-422.5 192.85,-425.96 172.15,-430.28 153.29,-434.44"/>
<polygon fill="midnightblue" stroke="midnightblue" points="435.42,-392.36 444.89,-387.61 434.53,-385.42 435.42,-392.36"/>
</g>
<!-- Node20 -->
<g id="node20" class="node">
<title>Node20</title>
<g id="a_node20"><a xlink:href="classfspm_1_1config_1_1params_1_1structures_1_1CategoryStore_a4131c35940f4f94adc66a52f714c31bb.html#a4131c35940f4f94adc66a52f714c31bb" target="_top" xlink:title=" ">
<polygon fill="none" stroke="black" points="226.5,-343.5 226.5,-373.5 394.5,-373.5 394.5,-343.5 226.5,-343.5"/>
<text text-anchor="start" x="234.5" y="-361.5" font-family="Helvetica,sans-Serif" font-size="10.00">fspm.config.params.structures.</text>
<text text-anchor="middle" x="310.5" y="-350.5" font-family="Helvetica,sans-Serif" font-size="10.00">CategoryStore.getArray</text>
</a>
</g>
</g>
<!-- Node19&#45;&gt;Node20 -->
<g id="edge19" class="edge">
<title>Node19&#45;&gt;Node20</title>
<path fill="none" stroke="midnightblue" d="M434.8,-369.32C421.47,-368.15 407.84,-366.95 394.72,-365.8"/>
<polygon fill="midnightblue" stroke="midnightblue" points="434.65,-372.82 444.91,-370.21 435.26,-365.85 434.65,-372.82"/>
</g>
<!-- Node21 -->
<g id="node21" class="node">
<title>Node21</title>
<g id="a_node21"><a xlink:href="classfspm_1_1config_1_1tests_1_1ParamAccess_1_1ArrayTest_aeb939f25bb8cc9702e5a4ad8d2cdbc2c.html#aeb939f25bb8cc9702e5a4ad8d2cdbc2c" target="_top" xlink:title=" ">
<polygon fill="none" stroke="black" points="225,-294.5 225,-324.5 396,-324.5 396,-294.5 225,-294.5"/>
<text text-anchor="start" x="233" y="-312.5" font-family="Helvetica,sans-Serif" font-size="10.00">fspm.config.tests.ParamAccess.</text>
<text text-anchor="middle" x="310.5" y="-301.5" font-family="Helvetica,sans-Serif" font-size="10.00">ArrayTest.testPhenology</text>
</a>
</g>
</g>
<!-- Node19&#45;&gt;Node21 -->
<g id="edge21" class="edge">
<title>Node19&#45;&gt;Node21</title>
<path fill="none" stroke="midnightblue" d="M479.64,-358.84C458.17,-350.86 432.48,-341.74 409,-334.5 397.73,-331.03 385.62,-327.65 373.9,-324.55"/>
<polygon fill="midnightblue" stroke="midnightblue" points="478.6,-362.18 489.19,-362.41 481.05,-355.63 478.6,-362.18"/>
</g>
<!-- Node24 -->
<g id="node24" class="node">
<title>Node24</title>
<g id="a_node24"><a xlink:href="classfspm_1_1config_1_1params_1_1ParamCategory_ad9163381c1dfed699d3d74b2d36c1893.html#ad9163381c1dfed699d3d74b2d36c1893" target="_top" xlink:title=" ">
<polygon fill="none" stroke="black" points="665.5,-147.5 665.5,-177.5 812.5,-177.5 812.5,-147.5 665.5,-147.5"/>
<text text-anchor="start" x="673.5" y="-165.5" font-family="Helvetica,sans-Serif" font-size="10.00">fspm.config.params.Param</text>
<text text-anchor="middle" x="739" y="-154.5" font-family="Helvetica,sans-Serif" font-size="10.00">Category.getDouble</text>
</a>
</g>
</g>
<!-- Node23&#45;&gt;Node24 -->
<g id="edge24" class="edge">
<title>Node23&#45;&gt;Node24</title>
<path fill="none" stroke="midnightblue" d="M854.59,-162.5C840.51,-162.5 826.26,-162.5 812.81,-162.5"/>
<polygon fill="midnightblue" stroke="midnightblue" points="854.79,-166 864.79,-162.5 854.79,-159 854.79,-166"/>
</g>
<!-- Node32 -->
<g id="node32" class="node">
<title>Node32</title>
<g id="a_node32"><a xlink:href="classfspm_1_1config_1_1params_1_1ParamTable_a36883c5705a953d8309e9d26fcdf7275.html#a36883c5705a953d8309e9d26fcdf7275" target="_top" xlink:title=" ">
<polygon fill="none" stroke="black" points="665.5,-98.5 665.5,-128.5 812.5,-128.5 812.5,-98.5 665.5,-98.5"/>
<text text-anchor="start" x="673.5" y="-116.5" font-family="Helvetica,sans-Serif" font-size="10.00">fspm.config.params.Param</text>
<text text-anchor="middle" x="739" y="-105.5" font-family="Helvetica,sans-Serif" font-size="10.00">Table.getDouble</text>
</a>
</g>
</g>
<!-- Node23&#45;&gt;Node32 -->
<g id="edge32" class="edge">
<title>Node23&#45;&gt;Node32</title>
<path fill="none" stroke="midnightblue" d="M878.31,-145.17C854.55,-139.73 828.53,-133.77 805.54,-128.51"/>
<polygon fill="midnightblue" stroke="midnightblue" points="877.81,-148.65 888.34,-147.47 879.37,-141.82 877.81,-148.65"/>
</g>
<!-- Node25 -->
<g id="node25" class="node">
<title>Node25</title>
<g id="a_node25"><a xlink:href="classfspm_1_1config_1_1params_1_1structures_1_1CategoryStore_a07f4c3b69f3b2f6a5d635aad33488b15.html#a07f4c3b69f3b2f6a5d635aad33488b15" target="_top" xlink:title=" ">
<polygon fill="none" stroke="black" points="445,-147.5 445,-177.5 613,-177.5 613,-147.5 445,-147.5"/>
<text text-anchor="start" x="453" y="-165.5" font-family="Helvetica,sans-Serif" font-size="10.00">fspm.config.params.structures.</text>
<text text-anchor="middle" x="529" y="-154.5" font-family="Helvetica,sans-Serif" font-size="10.00">CategoryStore.getDouble</text>
</a>
</g>
</g>
<!-- Node24&#45;&gt;Node25 -->
<g id="edge25" class="edge">
<title>Node24&#45;&gt;Node25</title>
<path fill="none" stroke="midnightblue" d="M655.24,-162.5C641.35,-162.5 626.93,-162.5 613.03,-162.5"/>
<polygon fill="midnightblue" stroke="midnightblue" points="655.25,-166 665.25,-162.5 655.25,-159 655.25,-166"/>
</g>
<!-- Node26 -->
<g id="node26" class="node">
<title>Node26</title>
<g id="a_node26"><a xlink:href="classfspm_1_1config_1_1params_1_1structures_1_1CategoryStore_aa6dbb5480c7d496c088b160822991b06.html#aa6dbb5480c7d496c088b160822991b06" target="_top" xlink:title=" ">
<polygon fill="none" stroke="black" points="226.5,-245.5 226.5,-275.5 394.5,-275.5 394.5,-245.5 226.5,-245.5"/>
<text text-anchor="start" x="234.5" y="-263.5" font-family="Helvetica,sans-Serif" font-size="10.00">fspm.config.params.structures.</text>
<text text-anchor="middle" x="310.5" y="-252.5" font-family="Helvetica,sans-Serif" font-size="10.00">CategoryStore.getDouble</text>
</a>
</g>
</g>
<!-- Node25&#45;&gt;Node26 -->
<g id="edge26" class="edge">
<title>Node25&#45;&gt;Node26</title>
<path fill="none" stroke="midnightblue" d="M499.67,-183.7C476.39,-200.21 442,-222.59 409,-236.5 400.97,-239.88 392.35,-242.86 383.69,-245.46"/>
<polygon fill="midnightblue" stroke="midnightblue" points="501.95,-186.38 508.02,-177.69 497.86,-180.69 501.95,-186.38"/>
</g>
<!-- Node27 -->
<g id="node27" class="node">
<title>Node27</title>
<g id="a_node27"><a xlink:href="classfspm_1_1config_1_1tests_1_1ParamAccess_1_1SimpleTest_a55f06c98bf87ce61c0a511a84ff4d506.html#a55f06c98bf87ce61c0a511a84ff4d506" target="_top" xlink:title=" ">
<polygon fill="none" stroke="black" points="225,-196.5 225,-226.5 396,-226.5 396,-196.5 225,-196.5"/>
<text text-anchor="start" x="233" y="-214.5" font-family="Helvetica,sans-Serif" font-size="10.00">fspm.config.tests.ParamAccess.</text>
<text text-anchor="middle" x="310.5" y="-203.5" font-family="Helvetica,sans-Serif" font-size="10.00">SimpleTest.testDefault</text>
</a>
</g>
</g>
<!-- Node25&#45;&gt;Node27 -->
<g id="edge27" class="edge">
<title>Node25&#45;&gt;Node27</title>
<path fill="none" stroke="midnightblue" d="M451.75,-179.76C427.62,-185.22 401.17,-191.21 377.8,-196.49"/>
<polygon fill="midnightblue" stroke="midnightblue" points="452.59,-183.16 461.57,-177.53 451.05,-176.33 452.59,-183.16"/>
</g>
<!-- Node28 -->
<g id="node28" class="node">
<title>Node28</title>
<g id="a_node28"><a xlink:href="classfspm_1_1config_1_1tests_1_1ParamAccess_1_1SimpleTest_a8a856d084a9f7cc18dd02285f8bff9b4.html#a8a856d084a9f7cc18dd02285f8bff9b4" target="_top" xlink:title=" ">
<polygon fill="none" stroke="black" points="225,-147.5 225,-177.5 396,-177.5 396,-147.5 225,-147.5"/>
<text text-anchor="start" x="233" y="-165.5" font-family="Helvetica,sans-Serif" font-size="10.00">fspm.config.tests.ParamAccess.</text>
<text text-anchor="middle" x="310.5" y="-154.5" font-family="Helvetica,sans-Serif" font-size="10.00">SimpleTest.testFlatCategories</text>
</a>
</g>
</g>
<!-- Node25&#45;&gt;Node28 -->
<g id="edge28" class="edge">
<title>Node25&#45;&gt;Node28</title>
<path fill="none" stroke="midnightblue" d="M434.71,-162.5C421.9,-162.5 408.8,-162.5 396.15,-162.5"/>
<polygon fill="midnightblue" stroke="midnightblue" points="434.91,-166 444.91,-162.5 434.91,-159 434.91,-166"/>
</g>
<!-- Node29 -->
<g id="node29" class="node">
<title>Node29</title>
<g id="a_node29"><a xlink:href="classfspm_1_1config_1_1tests_1_1ParamAccess_1_1SimpleTest_add14e7bad047c7089ed8e08680f4c2cf.html#add14e7bad047c7089ed8e08680f4c2cf" target="_top" xlink:title=" ">
<polygon fill="none" stroke="black" points="225,-98.5 225,-128.5 396,-128.5 396,-98.5 225,-98.5"/>
<text text-anchor="start" x="233" y="-116.5" font-family="Helvetica,sans-Serif" font-size="10.00">fspm.config.tests.ParamAccess.</text>
<text text-anchor="middle" x="310.5" y="-105.5" font-family="Helvetica,sans-Serif" font-size="10.00">SimpleTest.testNull</text>
</a>
</g>
</g>
<!-- Node25&#45;&gt;Node29 -->
<g id="edge29" class="edge">
<title>Node25&#45;&gt;Node29</title>
<path fill="none" stroke="midnightblue" d="M451.75,-145.24C427.62,-139.78 401.17,-133.79 377.8,-128.51"/>
<polygon fill="midnightblue" stroke="midnightblue" points="451.05,-148.67 461.57,-147.47 452.59,-141.84 451.05,-148.67"/>
</g>
<!-- Node30 -->
<g id="node30" class="node">
<title>Node30</title>
<g id="a_node30"><a xlink:href="classfspm_1_1config_1_1tests_1_1ParamAccess_1_1SimpleTest_ad0bca9bf9a2f6f7c6dc7aab7b0791fc5.html#ad0bca9bf9a2f6f7c6dc7aab7b0791fc5" target="_top" xlink:title=" ">
<polygon fill="none" stroke="black" points="212,-49.5 212,-79.5 409,-79.5 409,-49.5 212,-49.5"/>
<text text-anchor="start" x="220" y="-67.5" font-family="Helvetica,sans-Serif" font-size="10.00">fspm.config.tests.ParamAccess.</text>
<text text-anchor="middle" x="310.5" y="-56.5" font-family="Helvetica,sans-Serif" font-size="10.00">SimpleTest.testNullWithDefaultValue</text>
</a>
</g>
</g>
<!-- Node25&#45;&gt;Node30 -->
<g id="edge30" class="edge">
<title>Node25&#45;&gt;Node30</title>
<path fill="none" stroke="midnightblue" d="M451.7,-142.76C449.39,-141.43 447.15,-140.01 445,-138.5 422.62,-122.72 431.69,-103.83 409,-88.5 403.94,-85.08 398.45,-82.15 392.73,-79.64"/>
<polygon fill="midnightblue" stroke="midnightblue" points="450.42,-146.04 460.92,-147.46 453.6,-139.8 450.42,-146.04"/>
</g>
<!-- Node31 -->
<g id="node31" class="node">
<title>Node31</title>
<g id="a_node31"><a xlink:href="classfspm_1_1config_1_1tests_1_1ParamAccess_1_1SimpleTest_a6ff9e514f8013564285ff10fa6a0af6f.html#a6ff9e514f8013564285ff10fa6a0af6f" target="_top" xlink:title=" ">
<polygon fill="none" stroke="black" points="225,-0.5 225,-30.5 396,-30.5 396,-0.5 225,-0.5"/>
<text text-anchor="start" x="233" y="-18.5" font-family="Helvetica,sans-Serif" font-size="10.00">fspm.config.tests.ParamAccess.</text>
<text text-anchor="middle" x="310.5" y="-7.5" font-family="Helvetica,sans-Serif" font-size="10.00">SimpleTest.testTypes</text>
</a>
</g>
</g>
<!-- Node25&#45;&gt;Node31 -->
<g id="edge31" class="edge">
<title>Node25&#45;&gt;Node31</title>
<path fill="none" stroke="midnightblue" d="M448.52,-141.53C447.3,-140.57 446.13,-139.56 445,-138.5 410.8,-106.53 443.84,-70.78 409,-39.5 405.11,-36.01 400.79,-33 396.2,-30.42"/>
<polygon fill="midnightblue" stroke="midnightblue" points="446.77,-144.58 457.01,-147.29 450.7,-138.78 446.77,-144.58"/>
</g>
<!-- Node33 -->
<g id="node33" class="node">
<title>Node33</title>
<g id="a_node33"><a xlink:href="classfspm_1_1config_1_1tests_1_1Structure_1_1TableStoreTest_ae0ee4dcb8470b2e8fb2d14bd57eb6f7e.html#ae0ee4dcb8470b2e8fb2d14bd57eb6f7e" target="_top" xlink:title=" ">
<polygon fill="none" stroke="black" points="453,-98.5 453,-128.5 605,-128.5 605,-98.5 453,-98.5"/>
<text text-anchor="start" x="461" y="-116.5" font-family="Helvetica,sans-Serif" font-size="10.00">fspm.config.tests.Structure.</text>
<text text-anchor="middle" x="529" y="-105.5" font-family="Helvetica,sans-Serif" font-size="10.00">TableStoreTest.testGetTable</text>
</a>
</g>
</g>
<!-- Node32&#45;&gt;Node33 -->
<g id="edge33" class="edge">
<title>Node32&#45;&gt;Node33</title>
<path fill="none" stroke="midnightblue" d="M655.1,-113.5C638.61,-113.5 621.39,-113.5 605.18,-113.5"/>
<polygon fill="midnightblue" stroke="midnightblue" points="655.25,-117 665.25,-113.5 655.25,-110 655.25,-117"/>
</g>
</g>
</svg>
