<?xml version="1.0" encoding="UTF-8" standalone="no"?>
<!DOCTYPE svg PUBLIC "-//W3C//DTD SVG 1.1//EN"
 "http://www.w3.org/Graphics/SVG/1.1/DTD/svg11.dtd">
<!-- Generated by graphviz version 2.43.0 (0)
 -->
<!-- Title: fspm.config.Config.setGroupContext Pages: 1 -->
<svg width="568pt" height="235pt"
 viewBox="0.00 0.00 568.00 235.00" xmlns="http://www.w3.org/2000/svg" xmlns:xlink="http://www.w3.org/1999/xlink">
<g id="graph0" class="graph" transform="scale(1 1) rotate(0) translate(4 231)">
<title>fspm.config.Config.setGroupContext</title>
<!-- Node1 -->
<g id="node1" class="node">
<title>Node1</title>
<g id="a_node1"><a xlink:title=" ">
<polygon fill="#bfbfbf" stroke="black" points="405,-98.5 405,-128.5 560,-128.5 560,-98.5 405,-98.5"/>
<text text-anchor="start" x="413" y="-116.5" font-family="Helvetica,sans-Serif" font-size="10.00">fspm.config.Config.setGroup</text>
<text text-anchor="middle" x="482.5" y="-105.5" font-family="Helvetica,sans-Serif" font-size="10.00">Context</text>
</a>
</g>
</g>
<!-- Node2 -->
<g id="node2" class="node">
<title>Node2</title>
<g id="a_node2"><a xlink:href="classfspm_1_1config_1_1ConfigTest_a586a428c43c00668f273133c28ddd635.html#a586a428c43c00668f273133c28ddd635" target="_top" xlink:title=" ">
<polygon fill="none" stroke="black" points="206,-196.5 206,-226.5 369,-226.5 369,-196.5 206,-196.5"/>
<text text-anchor="start" x="214" y="-214.5" font-family="Helvetica,sans-Serif" font-size="10.00">fspm.config.ConfigTest.access</text>
<text text-anchor="middle" x="287.5" y="-203.5" font-family="Helvetica,sans-Serif" font-size="10.00">Examples</text>
</a>
</g>
</g>
<!-- Node1&#45;&gt;Node2 -->
<g id="edge1" class="edge">
<title>Node1&#45;&gt;Node2</title>
<path fill="none" stroke="midnightblue" d="M454.02,-134.88C432.03,-151.15 399.87,-173.13 369,-187.5 361.86,-190.82 354.15,-193.81 346.43,-196.46"/>
<polygon fill="midnightblue" stroke="midnightblue" points="456.32,-137.53 462.22,-128.73 452.12,-131.93 456.32,-137.53"/>
</g>
<!-- Node3 -->
<g id="node3" class="node">
<title>Node3</title>
<g id="a_node3"><a xlink:href="classfspm_1_1config_1_1ConfigTest_ab639b7af67e947577db2ab2c9bc95a87.html#ab639b7af67e947577db2ab2c9bc95a87" target="_top" xlink:title=" ">
<polygon fill="none" stroke="black" points="213,-147.5 213,-177.5 362,-177.5 362,-147.5 213,-147.5"/>
<text text-anchor="start" x="221" y="-165.5" font-family="Helvetica,sans-Serif" font-size="10.00">fspm.config.ConfigTest.test</text>
<text text-anchor="middle" x="287.5" y="-154.5" font-family="Helvetica,sans-Serif" font-size="10.00">_default</text>
</a>
</g>
</g>
<!-- Node1&#45;&gt;Node3 -->
<g id="edge2" class="edge">
<title>Node1&#45;&gt;Node3</title>
<path fill="none" stroke="midnightblue" d="M412.38,-131.05C391.18,-136.43 368.07,-142.3 347.61,-147.49"/>
<polygon fill="midnightblue" stroke="midnightblue" points="413.45,-134.39 422.28,-128.53 411.73,-127.6 413.45,-134.39"/>
</g>
<!-- Node4 -->
<g id="node4" class="node">
<title>Node4</title>
<g id="a_node4"><a xlink:href="classfspm_1_1config_1_1ConfigTest_a09a38b5eee655b088e4e144df5ad5a85.html#a09a38b5eee655b088e4e144df5ad5a85" target="_top" xlink:title=" ">
<polygon fill="none" stroke="black" points="213,-98.5 213,-128.5 362,-128.5 362,-98.5 213,-98.5"/>
<text text-anchor="start" x="221" y="-116.5" font-family="Helvetica,sans-Serif" font-size="10.00">fspm.config.ConfigTest.test</text>
<text text-anchor="middle" x="287.5" y="-105.5" font-family="Helvetica,sans-Serif" font-size="10.00">_flatCategories</text>
</a>
</g>
</g>
<!-- Node1&#45;&gt;Node4 -->
<g id="edge3" class="edge">
<title>Node1&#45;&gt;Node4</title>
<path fill="none" stroke="midnightblue" d="M394.61,-113.5C383.76,-113.5 372.75,-113.5 362.13,-113.5"/>
<polygon fill="midnightblue" stroke="midnightblue" points="394.94,-117 404.94,-113.5 394.94,-110 394.94,-117"/>
</g>
<!-- Node6 -->
<g id="node6" class="node">
<title>Node6</title>
<g id="a_node6"><a xlink:href="classfspm_1_1config_1_1ConfigTest_a06c9116c21e1df253ca6b4056a187bad.html#a06c9116c21e1df253ca6b4056a187bad" target="_top" xlink:title=" ">
<polygon fill="none" stroke="black" points="213,-49.5 213,-79.5 362,-79.5 362,-49.5 213,-49.5"/>
<text text-anchor="start" x="221" y="-67.5" font-family="Helvetica,sans-Serif" font-size="10.00">fspm.config.ConfigTest.test</text>
<text text-anchor="middle" x="287.5" y="-56.5" font-family="Helvetica,sans-Serif" font-size="10.00">_phenology</text>
</a>
</g>
</g>
<!-- Node1&#45;&gt;Node6 -->
<g id="edge5" class="edge">
<title>Node1&#45;&gt;Node6</title>
<path fill="none" stroke="midnightblue" d="M412.38,-95.95C391.18,-90.57 368.07,-84.7 347.61,-79.51"/>
<polygon fill="midnightblue" stroke="midnightblue" points="411.73,-99.4 422.28,-98.47 413.45,-92.61 411.73,-99.4"/>
</g>
<!-- Node7 -->
<g id="node7" class="node">
<title>Node7</title>
<g id="a_node7"><a xlink:href="classfspm_1_1config_1_1ConfigTest_a0ace3587e0462f748617e279d4d0c659.html#a0ace3587e0462f748617e279d4d0c659" target="_top" xlink:title=" ">
<polygon fill="none" stroke="black" points="213,-0.5 213,-30.5 362,-30.5 362,-0.5 213,-0.5"/>
<text text-anchor="start" x="221" y="-18.5" font-family="Helvetica,sans-Serif" font-size="10.00">fspm.config.ConfigTest.test</text>
<text text-anchor="middle" x="287.5" y="-7.5" font-family="Helvetica,sans-Serif" font-size="10.00">_types</text>
</a>
</g>
</g>
<!-- Node1&#45;&gt;Node7 -->
<g id="edge6" class="edge">
<title>Node1&#45;&gt;Node7</title>
<path fill="none" stroke="midnightblue" d="M453.53,-92.24C431.5,-76.28 399.52,-54.81 369,-40.5 361.18,-36.84 352.69,-33.53 344.25,-30.62"/>
<polygon fill="midnightblue" stroke="midnightblue" points="451.62,-95.18 461.75,-98.27 455.76,-89.53 451.62,-95.18"/>
</g>
<!-- Node5 -->
<g id="node5" class="node">
<title>Node5</title>
<g id="a_node5"><a xlink:href="classfspm_1_1config_1_1ConfigTest_aacca92fc43946c5a3d4613a1085d59f9.html#aacca92fc43946c5a3d4613a1085d59f9" target="_top" xlink:title=" ">
<polygon fill="none" stroke="black" points="0,-104 0,-123 170,-123 170,-104 0,-104"/>
<text text-anchor="middle" x="85" y="-111" font-family="Helvetica,sans-Serif" font-size="10.00">fspm.config.ConfigTest.runMain</text>
</a>
</g>
</g>
<!-- Node4&#45;&gt;Node5 -->
<g id="edge4" class="edge">
<title>Node4&#45;&gt;Node5</title>
<path fill="none" stroke="midnightblue" d="M202.71,-113.5C191.91,-113.5 180.84,-113.5 170.02,-113.5"/>
<polygon fill="midnightblue" stroke="midnightblue" points="202.98,-117 212.98,-113.5 202.98,-110 202.98,-117"/>
</g>
</g>
</svg>
