<?xml version="1.0" encoding="UTF-8" standalone="no"?>
<!DOCTYPE svg PUBLIC "-//W3C//DTD SVG 1.1//EN"
 "http://www.w3.org/Graphics/SVG/1.1/DTD/svg11.dtd">
<!-- Generated by graphviz version 2.43.0 (0)
 -->
<!-- Title: io.github.fruitcropxl.config.params.Parameter.getDoubleType Pages: 1 -->
<svg width="1194pt" height="1070pt"
 viewBox="0.00 0.00 1194.00 1070.00" xmlns="http://www.w3.org/2000/svg" xmlns:xlink="http://www.w3.org/1999/xlink">
<g id="graph0" class="graph" transform="scale(1 1) rotate(0) translate(4 1066)">
<title>io.github.fruitcropxl.config.params.Parameter.getDoubleType</title>
<!-- Node1 -->
<g id="Node000001" class="node">
<title>Node1</title>
<g id="a_Node000001"><a xlink:title="Check which type the double value has been parsed as.">
<polygon fill="#999999" stroke="#666666" points="1186,-630 998,-630 998,-600 1186,-600 1186,-630"/>
<text text-anchor="start" x="1006" y="-618" font-family="Helvetica,sans-Serif" font-size="10.00">io.github.fruitcropxl.config.params.</text>
<text text-anchor="middle" x="1092" y="-607" font-family="Helvetica,sans-Serif" font-size="10.00">Parameter.getDoubleType</text>
</a>
</g>
</g>
<!-- Node2 -->
<g id="Node000002" class="node">
<title>Node2</title>
<g id="a_Node000002"><a xlink:href="classio_1_1github_1_1fruitcropxl_1_1config_1_1params_1_1Parameter_af214f779c4a3550b86aef81d1aca6317.html#af214f779c4a3550b86aef81d1aca6317" target="_top" xlink:title="Generic method for getting arrays of a given type.">
<polygon fill="white" stroke="#666666" points="962,-654 774,-654 774,-624 962,-624 962,-654"/>
<text text-anchor="start" x="782" y="-642" font-family="Helvetica,sans-Serif" font-size="10.00">io.github.fruitcropxl.config.params.</text>
<text text-anchor="middle" x="868" y="-631" font-family="Helvetica,sans-Serif" font-size="10.00">Parameter.asArray</text>
</a>
</g>
</g>
<!-- Node1&#45;&gt;Node2 -->
<g id="edge1_Node000001_Node000002" class="edge">
<title>Node1&#45;&gt;Node2</title>
<g id="a_edge1_Node000001_Node000002"><a xlink:title=" ">
<path fill="none" stroke="#63b8ff" d="M987.85,-626.15C979.33,-627.07 970.74,-628 962.3,-628.91"/>
<polygon fill="#63b8ff" stroke="#63b8ff" points="988.25,-629.63 997.82,-625.07 987.5,-622.67 988.25,-629.63"/>
</a>
</g>
</g>
<!-- Node37 -->
<g id="Node000037" class="node">
<title>Node37</title>
<g id="a_Node000037"><a xlink:href="classio_1_1github_1_1fruitcropxl_1_1config_1_1params_1_1Parameter_a73ccffc07cfc7897705914df907d5528.html#a73ccffc07cfc7897705914df907d5528" target="_top" xlink:title=" ">
<polygon fill="white" stroke="#666666" points="962,-606 774,-606 774,-576 962,-576 962,-606"/>
<text text-anchor="start" x="782" y="-594" font-family="Helvetica,sans-Serif" font-size="10.00">io.github.fruitcropxl.config.params.</text>
<text text-anchor="middle" x="868" y="-583" font-family="Helvetica,sans-Serif" font-size="10.00">Parameter.asDouble</text>
</a>
</g>
</g>
<!-- Node1&#45;&gt;Node37 -->
<g id="edge36_Node000001_Node000037" class="edge">
<title>Node1&#45;&gt;Node37</title>
<g id="a_edge36_Node000001_Node000037"><a xlink:title=" ">
<path fill="none" stroke="#63b8ff" d="M987.85,-603.85C979.33,-602.93 970.74,-602 962.3,-601.09"/>
<polygon fill="#63b8ff" stroke="#63b8ff" points="987.5,-607.33 997.82,-604.93 988.25,-600.37 987.5,-607.33"/>
</a>
</g>
</g>
<!-- Node3 -->
<g id="Node000003" class="node">
<title>Node3</title>
<g id="a_Node000003"><a xlink:href="classio_1_1github_1_1fruitcropxl_1_1config_1_1params_1_1Parameter_ac8fb660e61218d5c311de69cefdcdf12.html#ac8fb660e61218d5c311de69cefdcdf12" target="_top" xlink:title=" ">
<polygon fill="white" stroke="#666666" points="738,-798 550,-798 550,-768 738,-768 738,-798"/>
<text text-anchor="start" x="558" y="-786" font-family="Helvetica,sans-Serif" font-size="10.00">io.github.fruitcropxl.config.params.</text>
<text text-anchor="middle" x="644" y="-775" font-family="Helvetica,sans-Serif" font-size="10.00">Parameter.asBooleanArray</text>
</a>
</g>
</g>
<!-- Node2&#45;&gt;Node3 -->
<g id="edge2_Node000002_Node000003" class="edge">
<title>Node2&#45;&gt;Node3</title>
<g id="a_edge2_Node000002_Node000003"><a xlink:title=" ">
<path fill="none" stroke="#63b8ff" d="M848.7,-661.89C825.72,-689.11 783.71,-733.97 738,-759 731.71,-762.44 724.91,-765.41 717.95,-767.96"/>
<polygon fill="#63b8ff" stroke="#63b8ff" points="851.51,-663.99 855.21,-654.06 846.13,-659.52 851.51,-663.99"/>
</a>
</g>
</g>
<!-- Node4 -->
<g id="Node000004" class="node">
<title>Node4</title>
<g id="a_Node000004"><a xlink:href="classio_1_1github_1_1fruitcropxl_1_1config_1_1params_1_1Parameter_a3b0d365c9f37381d4ffe632100566349.html#a3b0d365c9f37381d4ffe632100566349" target="_top" xlink:title=" ">
<polygon fill="white" stroke="#666666" points="738,-750 550,-750 550,-720 738,-720 738,-750"/>
<text text-anchor="start" x="558" y="-738" font-family="Helvetica,sans-Serif" font-size="10.00">io.github.fruitcropxl.config.params.</text>
<text text-anchor="middle" x="644" y="-727" font-family="Helvetica,sans-Serif" font-size="10.00">Parameter.asDoubleArray</text>
</a>
</g>
</g>
<!-- Node2&#45;&gt;Node4 -->
<g id="edge3_Node000002_Node000004" class="edge">
<title>Node2&#45;&gt;Node4</title>
<g id="a_edge3_Node000002_Node000004"><a xlink:title=" ">
<path fill="none" stroke="#63b8ff" d="M835.64,-659.52C810.19,-675.41 772.93,-697.02 738,-711 729.8,-714.28 721,-717.24 712.22,-719.86"/>
<polygon fill="#63b8ff" stroke="#63b8ff" points="837.54,-662.46 844.12,-654.16 833.8,-656.54 837.54,-662.46"/>
</a>
</g>
</g>
<!-- Node5 -->
<g id="Node000005" class="node">
<title>Node5</title>
<g id="a_Node000005"><a xlink:href="classio_1_1github_1_1fruitcropxl_1_1config_1_1params_1_1Parameter_a6a53eca6da34ecb292ef13349dfc0867.html#a6a53eca6da34ecb292ef13349dfc0867" target="_top" xlink:title=" ">
<polygon fill="white" stroke="#666666" points="738,-702 550,-702 550,-672 738,-672 738,-702"/>
<text text-anchor="start" x="558" y="-690" font-family="Helvetica,sans-Serif" font-size="10.00">io.github.fruitcropxl.config.params.</text>
<text text-anchor="middle" x="644" y="-679" font-family="Helvetica,sans-Serif" font-size="10.00">Parameter.asIntegerArray</text>
</a>
</g>
</g>
<!-- Node2&#45;&gt;Node5 -->
<g id="edge4_Node000002_Node000005" class="edge">
<title>Node2&#45;&gt;Node5</title>
<g id="a_edge4_Node000002_Node000005"><a xlink:title=" ">
<path fill="none" stroke="#63b8ff" d="M787.29,-656.23C763.45,-661.39 737.51,-667 714.39,-672"/>
<polygon fill="#63b8ff" stroke="#63b8ff" points="788.33,-659.59 797.37,-654.06 786.85,-652.75 788.33,-659.59"/>
</a>
</g>
</g>
<!-- Node6 -->
<g id="Node000006" class="node">
<title>Node6</title>
<g id="a_Node000006"><a xlink:href="classio_1_1github_1_1fruitcropxl_1_1config_1_1params_1_1Parameter_a9ff2c7334a7fce6a24f6996e304ddb73.html#a9ff2c7334a7fce6a24f6996e304ddb73" target="_top" xlink:title=" ">
<polygon fill="white" stroke="#666666" points="738,-654 550,-654 550,-624 738,-624 738,-654"/>
<text text-anchor="start" x="558" y="-642" font-family="Helvetica,sans-Serif" font-size="10.00">io.github.fruitcropxl.config.params.</text>
<text text-anchor="middle" x="644" y="-631" font-family="Helvetica,sans-Serif" font-size="10.00">Parameter.asStringArray</text>
</a>
</g>
</g>
<!-- Node2&#45;&gt;Node6 -->
<g id="edge5_Node000002_Node000006" class="edge">
<title>Node2&#45;&gt;Node6</title>
<g id="a_edge5_Node000002_Node000006"><a xlink:title=" ">
<path fill="none" stroke="#63b8ff" d="M763.57,-639C755.14,-639 746.65,-639 738.3,-639"/>
<polygon fill="#63b8ff" stroke="#63b8ff" points="763.82,-642.5 773.82,-639 763.82,-635.5 763.82,-642.5"/>
</a>
</g>
</g>
<!-- Node7 -->
<g id="Node000007" class="node">
<title>Node7</title>
<g id="a_Node000007"><a xlink:href="classio_1_1github_1_1fruitcropxl_1_1config_1_1params_1_1ParamCategory_ac64ba4716a6f5a7cbbe77b5b8154dd7d.html#ac64ba4716a6f5a7cbbe77b5b8154dd7d" target="_top" xlink:title=" ">
<polygon fill="white" stroke="#666666" points="738,-606 550,-606 550,-576 738,-576 738,-606"/>
<text text-anchor="start" x="558" y="-594" font-family="Helvetica,sans-Serif" font-size="10.00">io.github.fruitcropxl.config.params.</text>
<text text-anchor="middle" x="644" y="-583" font-family="Helvetica,sans-Serif" font-size="10.00">ParamCategory.getArray</text>
</a>
</g>
</g>
<!-- Node2&#45;&gt;Node7 -->
<g id="edge6_Node000002_Node000007" class="edge">
<title>Node2&#45;&gt;Node7</title>
<g id="a_edge6_Node000002_Node000007"><a xlink:title=" ">
<path fill="none" stroke="#63b8ff" d="M787.29,-621.77C763.45,-616.61 737.51,-611 714.39,-606"/>
<polygon fill="#63b8ff" stroke="#63b8ff" points="786.85,-625.25 797.37,-623.94 788.33,-618.41 786.85,-625.25"/>
</a>
</g>
</g>
<!-- Node27 -->
<g id="Node000027" class="node">
<title>Node27</title>
<g id="a_Node000027"><a xlink:href="classio_1_1github_1_1fruitcropxl_1_1config_1_1params_1_1ParamTable_a252c4fcfb67474d2bb200b1618341a14.html#a252c4fcfb67474d2bb200b1618341a14" target="_top" xlink:title=" ">
<polygon fill="white" stroke="#666666" points="738,-246 550,-246 550,-216 738,-216 738,-246"/>
<text text-anchor="start" x="558" y="-234" font-family="Helvetica,sans-Serif" font-size="10.00">io.github.fruitcropxl.config.params.</text>
<text text-anchor="middle" x="644" y="-223" font-family="Helvetica,sans-Serif" font-size="10.00">ParamTable.getArray</text>
</a>
</g>
</g>
<!-- Node2&#45;&gt;Node27 -->
<g id="edge26_Node000002_Node000027" class="edge">
<title>Node2&#45;&gt;Node27</title>
<g id="a_edge26_Node000002_Node000027"><a xlink:title=" ">
<path fill="none" stroke="#63b8ff" d="M777.55,-618.06C776.33,-617.08 775.14,-616.07 774,-615 716.73,-561.69 661.56,-310.97 648.11,-246.27"/>
<polygon fill="#63b8ff" stroke="#63b8ff" points="775.86,-621.14 786.09,-623.88 779.8,-615.36 775.86,-621.14"/>
</a>
</g>
</g>
<!-- Node36 -->
<g id="Node000036" class="node">
<title>Node36</title>
<g id="a_Node000036"><a xlink:href="classio_1_1github_1_1fruitcropxl_1_1config_1_1params_1_1ParamTable_a16664982e899fd609cf7af0558b32374.html#a16664982e899fd609cf7af0558b32374" target="_top" xlink:title=" ">
<polygon fill="white" stroke="#666666" points="738,-198 550,-198 550,-168 738,-168 738,-198"/>
<text text-anchor="start" x="558" y="-186" font-family="Helvetica,sans-Serif" font-size="10.00">io.github.fruitcropxl.config.params.</text>
<text text-anchor="middle" x="644" y="-175" font-family="Helvetica,sans-Serif" font-size="10.00">ParamTable.getArray</text>
</a>
</g>
</g>
<!-- Node2&#45;&gt;Node36 -->
<g id="edge35_Node000002_Node000036" class="edge">
<title>Node2&#45;&gt;Node36</title>
<g id="a_edge35_Node000002_Node000036"><a xlink:title=" ">
<path fill="none" stroke="#63b8ff" d="M776.26,-617.49C775.48,-616.69 774.73,-615.86 774,-615 715.15,-545.57 796.85,-276.43 738,-207 735.09,-203.57 731.76,-200.59 728.13,-198.01"/>
<polygon fill="#63b8ff" stroke="#63b8ff" points="774,-620.16 783.87,-623.99 778.54,-614.83 774,-620.16"/>
</a>
</g>
</g>
<!-- Node8 -->
<g id="Node000008" class="node">
<title>Node8</title>
<g id="a_Node000008"><a xlink:href="classio_1_1github_1_1fruitcropxl_1_1config_1_1params_1_1structures_1_1CategoryStore_a67390ee277336b6472d8ec095298f722.html#a67390ee277336b6472d8ec095298f722" target="_top" xlink:title=" ">
<polygon fill="white" stroke="#666666" points="514,-894 275,-894 275,-864 514,-864 514,-894"/>
<text text-anchor="start" x="283" y="-882" font-family="Helvetica,sans-Serif" font-size="10.00">io.github.fruitcropxl.config.params.structures.</text>
<text text-anchor="middle" x="394.5" y="-871" font-family="Helvetica,sans-Serif" font-size="10.00">CategoryStore.getArray</text>
</a>
</g>
</g>
<!-- Node7&#45;&gt;Node8 -->
<g id="edge7_Node000007_Node000008" class="edge">
<title>Node7&#45;&gt;Node8</title>
<g id="a_edge7_Node000007_Node000008"><a xlink:title=" ">
<path fill="none" stroke="#63b8ff" d="M552.33,-612.57C551.53,-613.36 550.75,-614.16 550,-615 477.79,-695.12 588.3,-776.81 514,-855 510.82,-858.35 507.31,-861.3 503.55,-863.89"/>
<polygon fill="#63b8ff" stroke="#63b8ff" points="554.58,-615.26 560.12,-606.23 550.16,-609.83 554.58,-615.26"/>
</a>
</g>
</g>
<!-- Node17 -->
<g id="Node000017" class="node">
<title>Node17</title>
<g id="a_Node000017"><a xlink:href="classio_1_1github_1_1fruitcropxl_1_1config_1_1params_1_1ParamCategory_af59b1d417f8e3f90df5148c96b8faf43.html#af59b1d417f8e3f90df5148c96b8faf43" target="_top" xlink:title=" ">
<polygon fill="white" stroke="#666666" points="488.5,-846 300.5,-846 300.5,-816 488.5,-816 488.5,-846"/>
<text text-anchor="start" x="308.5" y="-834" font-family="Helvetica,sans-Serif" font-size="10.00">io.github.fruitcropxl.config.params.</text>
<text text-anchor="middle" x="394.5" y="-823" font-family="Helvetica,sans-Serif" font-size="10.00">ParamCategory.getArray</text>
</a>
</g>
</g>
<!-- Node7&#45;&gt;Node17 -->
<g id="edge16_Node000007_Node000017" class="edge">
<title>Node7&#45;&gt;Node17</title>
<g id="a_edge16_Node000007_Node000017"><a xlink:title=" ">
<path fill="none" stroke="#63b8ff" d="M552.79,-612.23C551.83,-613.12 550.9,-614.04 550,-615 490.71,-678.42 574.95,-745.17 514,-807 506.85,-814.25 498.16,-819.62 488.77,-823.55"/>
<polygon fill="#63b8ff" stroke="#63b8ff" points="554.94,-614.99 560.68,-606.09 550.64,-609.46 554.94,-614.99"/>
</a>
</g>
</g>
<!-- Node18 -->
<g id="Node000018" class="node">
<title>Node18</title>
<g id="a_Node000018"><a xlink:href="classio_1_1github_1_1fruitcropxl_1_1config_1_1params_1_1structures_1_1CategoryStore_ac6258c35307415d9c7adeaeeab4095fb.html#ac6258c35307415d9c7adeaeeab4095fb" target="_top" xlink:title=" ">
<polygon fill="white" stroke="#666666" points="514,-798 275,-798 275,-768 514,-768 514,-798"/>
<text text-anchor="start" x="283" y="-786" font-family="Helvetica,sans-Serif" font-size="10.00">io.github.fruitcropxl.config.params.structures.</text>
<text text-anchor="middle" x="394.5" y="-775" font-family="Helvetica,sans-Serif" font-size="10.00">CategoryStore.getArray</text>
</a>
</g>
</g>
<!-- Node7&#45;&gt;Node18 -->
<g id="edge17_Node000007_Node000018" class="edge">
<title>Node7&#45;&gt;Node18</title>
<g id="a_edge17_Node000007_Node000018"><a xlink:title=" ">
<path fill="none" stroke="#63b8ff" d="M552.97,-612.21C551.95,-613.11 550.96,-614.03 550,-615 503.53,-661.82 561.69,-713.42 514,-759 510.51,-762.34 506.69,-765.27 502.63,-767.84"/>
<polygon fill="#63b8ff" stroke="#63b8ff" points="555.37,-614.8 561.34,-606.05 551.22,-609.16 555.37,-614.8"/>
</a>
</g>
</g>
<!-- Node19 -->
<g id="Node000019" class="node">
<title>Node19</title>
<g id="a_Node000019"><a xlink:href="classio_1_1github_1_1fruitcropxl_1_1config_1_1params_1_1ParamCategory_aaf8155a895956c8317c04e6a7c4cc516.html#aaf8155a895956c8317c04e6a7c4cc516" target="_top" xlink:title=" ">
<polygon fill="white" stroke="#666666" points="488.5,-750 300.5,-750 300.5,-720 488.5,-720 488.5,-750"/>
<text text-anchor="start" x="308.5" y="-738" font-family="Helvetica,sans-Serif" font-size="10.00">io.github.fruitcropxl.config.params.</text>
<text text-anchor="middle" x="394.5" y="-727" font-family="Helvetica,sans-Serif" font-size="10.00">ParamCategory.getBooleanArray</text>
</a>
</g>
</g>
<!-- Node7&#45;&gt;Node19 -->
<g id="edge18_Node000007_Node000019" class="edge">
<title>Node7&#45;&gt;Node19</title>
<g id="a_edge18_Node000007_Node000019"><a xlink:title=" ">
<path fill="none" stroke="#63b8ff" d="M554.11,-611.61C552.69,-612.68 551.32,-613.81 550,-615 516.11,-645.47 548.68,-681.44 514,-711 506.57,-717.33 497.93,-722.16 488.77,-725.81"/>
<polygon fill="#63b8ff" stroke="#63b8ff" points="556.21,-614.42 562.67,-606.02 552.38,-608.55 556.21,-614.42"/>
</a>
</g>
</g>
<!-- Node20 -->
<g id="Node000020" class="node">
<title>Node20</title>
<g id="a_Node000020"><a xlink:href="classio_1_1github_1_1fruitcropxl_1_1config_1_1params_1_1ParamCategory_a9b67eef8c274baaee12610d89da6ecc8.html#a9b67eef8c274baaee12610d89da6ecc8" target="_top" xlink:title=" ">
<polygon fill="white" stroke="#666666" points="488.5,-702 300.5,-702 300.5,-672 488.5,-672 488.5,-702"/>
<text text-anchor="start" x="308.5" y="-690" font-family="Helvetica,sans-Serif" font-size="10.00">io.github.fruitcropxl.config.params.</text>
<text text-anchor="middle" x="394.5" y="-679" font-family="Helvetica,sans-Serif" font-size="10.00">ParamCategory.getBooleanArray</text>
</a>
</g>
</g>
<!-- Node7&#45;&gt;Node20 -->
<g id="edge19_Node000007_Node000020" class="edge">
<title>Node7&#45;&gt;Node20</title>
<g id="a_edge19_Node000007_Node000020"><a xlink:title=" ">
<path fill="none" stroke="#63b8ff" d="M557.49,-610.49C554.91,-611.89 552.4,-613.39 550,-615 527.84,-629.83 536.54,-648.75 514,-663 506.19,-667.93 497.57,-671.88 488.64,-675.03"/>
<polygon fill="#63b8ff" stroke="#63b8ff" points="559.05,-613.62 566.52,-606.11 556,-607.32 559.05,-613.62"/>
</a>
</g>
</g>
<!-- Node21 -->
<g id="Node000021" class="node">
<title>Node21</title>
<g id="a_Node000021"><a xlink:href="classio_1_1github_1_1fruitcropxl_1_1config_1_1params_1_1ParamCategory_a082992e09866698509ecf8d4852be693.html#a082992e09866698509ecf8d4852be693" target="_top" xlink:title=" ">
<polygon fill="white" stroke="#666666" points="488.5,-654 300.5,-654 300.5,-624 488.5,-624 488.5,-654"/>
<text text-anchor="start" x="308.5" y="-642" font-family="Helvetica,sans-Serif" font-size="10.00">io.github.fruitcropxl.config.params.</text>
<text text-anchor="middle" x="394.5" y="-631" font-family="Helvetica,sans-Serif" font-size="10.00">ParamCategory.getDoubleArray</text>
</a>
</g>
</g>
<!-- Node7&#45;&gt;Node21 -->
<g id="edge20_Node000007_Node000021" class="edge">
<title>Node7&#45;&gt;Node21</title>
<g id="a_edge20_Node000007_Node000021"><a xlink:title=" ">
<path fill="none" stroke="#63b8ff" d="M555.2,-608.03C528.33,-613.24 498.98,-618.93 472.86,-624"/>
<polygon fill="#63b8ff" stroke="#63b8ff" points="556.22,-611.4 565.37,-606.06 554.89,-604.52 556.22,-611.4"/>
</a>
</g>
</g>
<!-- Node22 -->
<g id="Node000022" class="node">
<title>Node22</title>
<g id="a_Node000022"><a xlink:href="classio_1_1github_1_1fruitcropxl_1_1config_1_1params_1_1ParamCategory_a1bbc211bcd60c919616d9845d292b472.html#a1bbc211bcd60c919616d9845d292b472" target="_top" xlink:title=" ">
<polygon fill="white" stroke="#666666" points="488.5,-606 300.5,-606 300.5,-576 488.5,-576 488.5,-606"/>
<text text-anchor="start" x="308.5" y="-594" font-family="Helvetica,sans-Serif" font-size="10.00">io.github.fruitcropxl.config.params.</text>
<text text-anchor="middle" x="394.5" y="-583" font-family="Helvetica,sans-Serif" font-size="10.00">ParamCategory.getDoubleArray</text>
</a>
</g>
</g>
<!-- Node7&#45;&gt;Node22 -->
<g id="edge21_Node000007_Node000022" class="edge">
<title>Node7&#45;&gt;Node22</title>
<g id="a_edge21_Node000007_Node000022"><a xlink:title=" ">
<path fill="none" stroke="#63b8ff" d="M539.38,-591C522.54,-591 505.2,-591 488.63,-591"/>
<polygon fill="#63b8ff" stroke="#63b8ff" points="539.78,-594.5 549.78,-591 539.78,-587.5 539.78,-594.5"/>
</a>
</g>
</g>
<!-- Node23 -->
<g id="Node000023" class="node">
<title>Node23</title>
<g id="a_Node000023"><a xlink:href="classio_1_1github_1_1fruitcropxl_1_1config_1_1params_1_1ParamCategory_a90e58112bcc533598bb9f1a73e9d4d5d.html#a90e58112bcc533598bb9f1a73e9d4d5d" target="_top" xlink:title=" ">
<polygon fill="white" stroke="#666666" points="488.5,-558 300.5,-558 300.5,-528 488.5,-528 488.5,-558"/>
<text text-anchor="start" x="308.5" y="-546" font-family="Helvetica,sans-Serif" font-size="10.00">io.github.fruitcropxl.config.params.</text>
<text text-anchor="middle" x="394.5" y="-535" font-family="Helvetica,sans-Serif" font-size="10.00">ParamCategory.getIntegerArray</text>
</a>
</g>
</g>
<!-- Node7&#45;&gt;Node23 -->
<g id="edge22_Node000007_Node000023" class="edge">
<title>Node7&#45;&gt;Node23</title>
<g id="a_edge22_Node000007_Node000023"><a xlink:title=" ">
<path fill="none" stroke="#63b8ff" d="M555.2,-573.97C528.33,-568.76 498.98,-563.07 472.86,-558"/>
<polygon fill="#63b8ff" stroke="#63b8ff" points="554.89,-577.48 565.37,-575.94 556.22,-570.6 554.89,-577.48"/>
</a>
</g>
</g>
<!-- Node24 -->
<g id="Node000024" class="node">
<title>Node24</title>
<g id="a_Node000024"><a xlink:href="classio_1_1github_1_1fruitcropxl_1_1config_1_1params_1_1ParamCategory_a5dcc6f9b68264d7527c4934201912002.html#a5dcc6f9b68264d7527c4934201912002" target="_top" xlink:title=" ">
<polygon fill="white" stroke="#666666" points="488.5,-510 300.5,-510 300.5,-480 488.5,-480 488.5,-510"/>
<text text-anchor="start" x="308.5" y="-498" font-family="Helvetica,sans-Serif" font-size="10.00">io.github.fruitcropxl.config.params.</text>
<text text-anchor="middle" x="394.5" y="-487" font-family="Helvetica,sans-Serif" font-size="10.00">ParamCategory.getIntegerArray</text>
</a>
</g>
</g>
<!-- Node7&#45;&gt;Node24 -->
<g id="edge23_Node000007_Node000024" class="edge">
<title>Node7&#45;&gt;Node24</title>
<g id="a_edge23_Node000007_Node000024"><a xlink:title=" ">
<path fill="none" stroke="#63b8ff" d="M612.29,-570.27C586.95,-554.06 549.5,-532.14 514,-519 504.75,-515.58 494.9,-512.6 484.98,-510.02"/>
<polygon fill="#63b8ff" stroke="#63b8ff" points="610.44,-573.24 620.73,-575.74 614.25,-567.36 610.44,-573.24"/>
</a>
</g>
</g>
<!-- Node25 -->
<g id="Node000025" class="node">
<title>Node25</title>
<g id="a_Node000025"><a xlink:href="classio_1_1github_1_1fruitcropxl_1_1config_1_1params_1_1ParamCategory_aee6721bdcb2d4ff2ec2142f2845a0065.html#aee6721bdcb2d4ff2ec2142f2845a0065" target="_top" xlink:title=" ">
<polygon fill="white" stroke="#666666" points="488.5,-462 300.5,-462 300.5,-432 488.5,-432 488.5,-462"/>
<text text-anchor="start" x="308.5" y="-450" font-family="Helvetica,sans-Serif" font-size="10.00">io.github.fruitcropxl.config.params.</text>
<text text-anchor="middle" x="394.5" y="-439" font-family="Helvetica,sans-Serif" font-size="10.00">ParamCategory.getStringArray</text>
</a>
</g>
</g>
<!-- Node7&#45;&gt;Node25 -->
<g id="edge24_Node000007_Node000025" class="edge">
<title>Node7&#45;&gt;Node25</title>
<g id="a_edge24_Node000007_Node000025"><a xlink:title=" ">
<path fill="none" stroke="#63b8ff" d="M624.92,-567.7C602.15,-540.08 560.36,-494.81 514,-471 506.06,-466.92 497.5,-463.54 488.73,-460.73"/>
<polygon fill="#63b8ff" stroke="#63b8ff" points="622.35,-570.09 631.36,-575.66 627.79,-565.68 622.35,-570.09"/>
</a>
</g>
</g>
<!-- Node26 -->
<g id="Node000026" class="node">
<title>Node26</title>
<g id="a_Node000026"><a xlink:href="classio_1_1github_1_1fruitcropxl_1_1config_1_1params_1_1ParamCategory_ae35b663298256f3b048b4e5f81ca33f3.html#ae35b663298256f3b048b4e5f81ca33f3" target="_top" xlink:title=" ">
<polygon fill="white" stroke="#666666" points="488.5,-414 300.5,-414 300.5,-384 488.5,-384 488.5,-414"/>
<text text-anchor="start" x="308.5" y="-402" font-family="Helvetica,sans-Serif" font-size="10.00">io.github.fruitcropxl.config.params.</text>
<text text-anchor="middle" x="394.5" y="-391" font-family="Helvetica,sans-Serif" font-size="10.00">ParamCategory.getStringArray</text>
</a>
</g>
</g>
<!-- Node7&#45;&gt;Node26 -->
<g id="edge25_Node000007_Node000026" class="edge">
<title>Node7&#45;&gt;Node26</title>
<g id="a_edge25_Node000007_Node000026"><a xlink:title=" ">
<path fill="none" stroke="#63b8ff" d="M631.62,-566.86C612.75,-529.62 571.28,-458.74 514,-423 506.16,-418.11 497.52,-414.19 488.58,-411.06"/>
<polygon fill="#63b8ff" stroke="#63b8ff" points="628.57,-568.58 636.14,-575.99 634.84,-565.47 628.57,-568.58"/>
</a>
</g>
</g>
<!-- Node9 -->
<g id="Node000009" class="node">
<title>Node9</title>
<g id="a_Node000009"><a xlink:href="classio_1_1github_1_1fruitcropxl_1_1config_1_1params_1_1structures_1_1CategoryStore_af80f30c0abf379359b59730fd50573ba.html#af80f30c0abf379359b59730fd50573ba" target="_top" xlink:title=" ">
<polygon fill="white" stroke="#666666" points="239,-1062 0,-1062 0,-1032 239,-1032 239,-1062"/>
<text text-anchor="start" x="8" y="-1050" font-family="Helvetica,sans-Serif" font-size="10.00">io.github.fruitcropxl.config.params.structures.</text>
<text text-anchor="middle" x="119.5" y="-1039" font-family="Helvetica,sans-Serif" font-size="10.00">CategoryStore.getBooleanArray</text>
</a>
</g>
</g>
<!-- Node8&#45;&gt;Node9 -->
<g id="edge8_Node000008_Node000009" class="edge">
<title>Node8&#45;&gt;Node9</title>
<g id="a_edge8_Node000008_Node000009"><a xlink:title=" ">
<path fill="none" stroke="#63b8ff" d="M375.82,-902.1C349.65,-934.54 297.37,-992.98 239,-1023 232.28,-1026.46 225.11,-1029.41 217.74,-1031.95"/>
<polygon fill="#63b8ff" stroke="#63b8ff" points="378.72,-904.07 382.19,-894.06 373.24,-899.72 378.72,-904.07"/>
</a>
</g>
</g>
<!-- Node10 -->
<g id="Node000010" class="node">
<title>Node10</title>
<g id="a_Node000010"><a xlink:href="classio_1_1github_1_1fruitcropxl_1_1config_1_1params_1_1structures_1_1CategoryStore_a3f20ca6dad620b86d619f5f913d54c1b.html#a3f20ca6dad620b86d619f5f913d54c1b" target="_top" xlink:title=" ">
<polygon fill="white" stroke="#666666" points="239,-1014 0,-1014 0,-984 239,-984 239,-1014"/>
<text text-anchor="start" x="8" y="-1002" font-family="Helvetica,sans-Serif" font-size="10.00">io.github.fruitcropxl.config.params.structures.</text>
<text text-anchor="middle" x="119.5" y="-991" font-family="Helvetica,sans-Serif" font-size="10.00">CategoryStore.getBooleanArray</text>
</a>
</g>
</g>
<!-- Node8&#45;&gt;Node10 -->
<g id="edge9_Node000008_Node000010" class="edge">
<title>Node8&#45;&gt;Node10</title>
<g id="a_edge9_Node000008_Node000010"><a xlink:title=" ">
<path fill="none" stroke="#63b8ff" d="M366.04,-900.32C336.35,-922.32 286.82,-956.02 239,-975 230.32,-978.45 221.07,-981.42 211.73,-983.98"/>
<polygon fill="#63b8ff" stroke="#63b8ff" points="368.34,-902.97 374.24,-894.17 364.14,-897.37 368.34,-902.97"/>
</a>
</g>
</g>
<!-- Node11 -->
<g id="Node000011" class="node">
<title>Node11</title>
<g id="a_Node000011"><a xlink:href="classio_1_1github_1_1fruitcropxl_1_1config_1_1params_1_1structures_1_1CategoryStore_a44f2652477aa97d9b03517bcf8d1d8b7.html#a44f2652477aa97d9b03517bcf8d1d8b7" target="_top" xlink:title=" ">
<polygon fill="white" stroke="#666666" points="239,-966 0,-966 0,-936 239,-936 239,-966"/>
<text text-anchor="start" x="8" y="-954" font-family="Helvetica,sans-Serif" font-size="10.00">io.github.fruitcropxl.config.params.structures.</text>
<text text-anchor="middle" x="119.5" y="-943" font-family="Helvetica,sans-Serif" font-size="10.00">CategoryStore.getDoubleArray</text>
</a>
</g>
</g>
<!-- Node8&#45;&gt;Node11 -->
<g id="edge10_Node000008_Node000011" class="edge">
<title>Node8&#45;&gt;Node11</title>
<g id="a_edge10_Node000008_Node000011"><a xlink:title=" ">
<path fill="none" stroke="#63b8ff" d="M339.53,-897.24C310.04,-906.84 272.74,-918.37 239,-927 226.6,-930.17 213.37,-933.2 200.43,-935.96"/>
<polygon fill="#63b8ff" stroke="#63b8ff" points="340.81,-900.51 349.22,-894.07 338.63,-893.85 340.81,-900.51"/>
</a>
</g>
</g>
<!-- Node12 -->
<g id="Node000012" class="node">
<title>Node12</title>
<g id="a_Node000012"><a xlink:href="classio_1_1github_1_1fruitcropxl_1_1config_1_1params_1_1structures_1_1CategoryStore_ad68a65330093c84406367b533bd742dc.html#ad68a65330093c84406367b533bd742dc" target="_top" xlink:title=" ">
<polygon fill="white" stroke="#666666" points="239,-918 0,-918 0,-888 239,-888 239,-918"/>
<text text-anchor="start" x="8" y="-906" font-family="Helvetica,sans-Serif" font-size="10.00">io.github.fruitcropxl.config.params.structures.</text>
<text text-anchor="middle" x="119.5" y="-895" font-family="Helvetica,sans-Serif" font-size="10.00">CategoryStore.getDoubleArray</text>
</a>
</g>
</g>
<!-- Node8&#45;&gt;Node12 -->
<g id="edge11_Node000008_Node000012" class="edge">
<title>Node8&#45;&gt;Node12</title>
<g id="a_edge11_Node000008_Node000012"><a xlink:title=" ">
<path fill="none" stroke="#63b8ff" d="M264.96,-890.3C256.42,-891.05 247.85,-891.8 239.37,-892.55"/>
<polygon fill="#63b8ff" stroke="#63b8ff" points="265.29,-893.78 274.95,-889.42 264.68,-886.81 265.29,-893.78"/>
</a>
</g>
</g>
<!-- Node13 -->
<g id="Node000013" class="node">
<title>Node13</title>
<g id="a_Node000013"><a xlink:href="classio_1_1github_1_1fruitcropxl_1_1config_1_1params_1_1structures_1_1CategoryStore_a1640aa8fbd2902ddd7341ed39783eb1e.html#a1640aa8fbd2902ddd7341ed39783eb1e" target="_top" xlink:title=" ">
<polygon fill="white" stroke="#666666" points="239,-870 0,-870 0,-840 239,-840 239,-870"/>
<text text-anchor="start" x="8" y="-858" font-family="Helvetica,sans-Serif" font-size="10.00">io.github.fruitcropxl.config.params.structures.</text>
<text text-anchor="middle" x="119.5" y="-847" font-family="Helvetica,sans-Serif" font-size="10.00">CategoryStore.getIntegerArray</text>
</a>
</g>
</g>
<!-- Node8&#45;&gt;Node13 -->
<g id="edge12_Node000008_Node000013" class="edge">
<title>Node8&#45;&gt;Node13</title>
<g id="a_edge12_Node000008_Node000013"><a xlink:title=" ">
<path fill="none" stroke="#63b8ff" d="M264.96,-867.7C256.42,-866.95 247.85,-866.2 239.37,-865.45"/>
<polygon fill="#63b8ff" stroke="#63b8ff" points="264.68,-871.19 274.95,-868.58 265.29,-864.22 264.68,-871.19"/>
</a>
</g>
</g>
<!-- Node14 -->
<g id="Node000014" class="node">
<title>Node14</title>
<g id="a_Node000014"><a xlink:href="classio_1_1github_1_1fruitcropxl_1_1config_1_1params_1_1structures_1_1CategoryStore_a33d6cd04f1d908bfe44d61824e8a9aed.html#a33d6cd04f1d908bfe44d61824e8a9aed" target="_top" xlink:title=" ">
<polygon fill="white" stroke="#666666" points="239,-822 0,-822 0,-792 239,-792 239,-822"/>
<text text-anchor="start" x="8" y="-810" font-family="Helvetica,sans-Serif" font-size="10.00">io.github.fruitcropxl.config.params.structures.</text>
<text text-anchor="middle" x="119.5" y="-799" font-family="Helvetica,sans-Serif" font-size="10.00">CategoryStore.getIntegerArray</text>
</a>
</g>
</g>
<!-- Node8&#45;&gt;Node14 -->
<g id="edge13_Node000008_Node000014" class="edge">
<title>Node8&#45;&gt;Node14</title>
<g id="a_edge13_Node000008_Node000014"><a xlink:title=" ">
<path fill="none" stroke="#63b8ff" d="M291.58,-861.08C285.9,-859.24 280.34,-857.22 275,-855 257.24,-847.62 256.76,-838.38 239,-831 230.67,-827.54 221.79,-824.56 212.78,-822"/>
<polygon fill="#63b8ff" stroke="#63b8ff" points="290.63,-864.45 301.22,-864 292.66,-857.75 290.63,-864.45"/>
</a>
</g>
</g>
<!-- Node15 -->
<g id="Node000015" class="node">
<title>Node15</title>
<g id="a_Node000015"><a xlink:href="classio_1_1github_1_1fruitcropxl_1_1config_1_1params_1_1structures_1_1CategoryStore_ac1c0346a1e128fce0e74842c375fff39.html#ac1c0346a1e128fce0e74842c375fff39" target="_top" xlink:title=" ">
<polygon fill="white" stroke="#666666" points="239,-774 0,-774 0,-744 239,-744 239,-774"/>
<text text-anchor="start" x="8" y="-762" font-family="Helvetica,sans-Serif" font-size="10.00">io.github.fruitcropxl.config.params.structures.</text>
<text text-anchor="middle" x="119.5" y="-751" font-family="Helvetica,sans-Serif" font-size="10.00">CategoryStore.getStringArray</text>
</a>
</g>
</g>
<!-- Node8&#45;&gt;Node15 -->
<g id="edge14_Node000008_Node000015" class="edge">
<title>Node8&#45;&gt;Node15</title>
<g id="a_edge14_Node000008_Node000015"><a xlink:title=" ">
<path fill="none" stroke="#63b8ff" d="M280.11,-858.62C278.36,-857.47 276.66,-856.27 275,-855 246.59,-833.25 267.41,-804.75 239,-783 234.58,-779.62 229.81,-776.68 224.81,-774.13"/>
<polygon fill="#63b8ff" stroke="#63b8ff" points="278.79,-861.9 289.19,-863.87 282.29,-855.84 278.79,-861.9"/>
</a>
</g>
</g>
<!-- Node16 -->
<g id="Node000016" class="node">
<title>Node16</title>
<g id="a_Node000016"><a xlink:href="classio_1_1github_1_1fruitcropxl_1_1config_1_1params_1_1structures_1_1CategoryStore_ab975d7039f5845cea6393d10c729989a.html#ab975d7039f5845cea6393d10c729989a" target="_top" xlink:title=" ">
<polygon fill="white" stroke="#666666" points="239,-726 0,-726 0,-696 239,-696 239,-726"/>
<text text-anchor="start" x="8" y="-714" font-family="Helvetica,sans-Serif" font-size="10.00">io.github.fruitcropxl.config.params.structures.</text>
<text text-anchor="middle" x="119.5" y="-703" font-family="Helvetica,sans-Serif" font-size="10.00">CategoryStore.getStringArray</text>
</a>
</g>
</g>
<!-- Node8&#45;&gt;Node16 -->
<g id="edge15_Node000008_Node000016" class="edge">
<title>Node8&#45;&gt;Node16</title>
<g id="a_edge15_Node000008_Node000016"><a xlink:title=" ">
<path fill="none" stroke="#63b8ff" d="M278.59,-858.06C277.36,-857.08 276.16,-856.06 275,-855 233.87,-817.47 280.13,-772.53 239,-735 235.28,-731.6 231.21,-728.63 226.9,-726.04"/>
<polygon fill="#63b8ff" stroke="#63b8ff" points="276.89,-861.14 287.1,-863.96 280.87,-855.39 276.89,-861.14"/>
</a>
</g>
</g>
<!-- Node28 -->
<g id="Node000028" class="node">
<title>Node28</title>
<g id="a_Node000028"><a xlink:href="classio_1_1github_1_1fruitcropxl_1_1config_1_1params_1_1ParamTable_aee39335ddac2d95ec227b532a0474213.html#aee39335ddac2d95ec227b532a0474213" target="_top" xlink:title=" ">
<polygon fill="white" stroke="#666666" points="488.5,-366 300.5,-366 300.5,-336 488.5,-336 488.5,-366"/>
<text text-anchor="start" x="308.5" y="-354" font-family="Helvetica,sans-Serif" font-size="10.00">io.github.fruitcropxl.config.params.</text>
<text text-anchor="middle" x="394.5" y="-343" font-family="Helvetica,sans-Serif" font-size="10.00">ParamTable.getBooleanArray</text>
</a>
</g>
</g>
<!-- Node27&#45;&gt;Node28 -->
<g id="edge27_Node000027_Node000028" class="edge">
<title>Node27&#45;&gt;Node28</title>
<g id="a_edge27_Node000027_Node000028"><a xlink:title=" ">
<path fill="none" stroke="#63b8ff" d="M619.77,-253.35C595.39,-275.51 555,-308.7 514,-327 505.95,-330.59 497.35,-333.65 488.6,-336.26"/>
<polygon fill="#63b8ff" stroke="#63b8ff" points="622.43,-255.66 627.39,-246.3 617.67,-250.52 622.43,-255.66"/>
</a>
</g>
</g>
<!-- Node29 -->
<g id="Node000029" class="node">
<title>Node29</title>
<g id="a_Node000029"><a xlink:href="classio_1_1github_1_1fruitcropxl_1_1config_1_1params_1_1ParamTable_aebfe4ec1cc8de3b7c3968c4cc9769d3d.html#aebfe4ec1cc8de3b7c3968c4cc9769d3d" target="_top" xlink:title=" ">
<polygon fill="white" stroke="#666666" points="488.5,-318 300.5,-318 300.5,-288 488.5,-288 488.5,-318"/>
<text text-anchor="start" x="308.5" y="-306" font-family="Helvetica,sans-Serif" font-size="10.00">io.github.fruitcropxl.config.params.</text>
<text text-anchor="middle" x="394.5" y="-295" font-family="Helvetica,sans-Serif" font-size="10.00">ParamTable.getBooleanArray</text>
</a>
</g>
</g>
<!-- Node27&#45;&gt;Node29 -->
<g id="edge28_Node000027_Node000029" class="edge">
<title>Node27&#45;&gt;Node29</title>
<g id="a_edge28_Node000027_Node000029"><a xlink:title=" ">
<path fill="none" stroke="#63b8ff" d="M597.7,-249.84C573.22,-259.51 542.3,-270.92 514,-279 502.49,-282.28 490.24,-285.3 478.14,-287.99"/>
<polygon fill="#63b8ff" stroke="#63b8ff" points="599.1,-253.05 607.08,-246.09 596.5,-246.55 599.1,-253.05"/>
</a>
</g>
</g>
<!-- Node30 -->
<g id="Node000030" class="node">
<title>Node30</title>
<g id="a_Node000030"><a xlink:href="classio_1_1github_1_1fruitcropxl_1_1config_1_1params_1_1ParamTable_ac8e6b95fdac66911b5a1f7c4ad2b1c60.html#ac8e6b95fdac66911b5a1f7c4ad2b1c60" target="_top" xlink:title=" ">
<polygon fill="white" stroke="#666666" points="488.5,-270 300.5,-270 300.5,-240 488.5,-240 488.5,-270"/>
<text text-anchor="start" x="308.5" y="-258" font-family="Helvetica,sans-Serif" font-size="10.00">io.github.fruitcropxl.config.params.</text>
<text text-anchor="middle" x="394.5" y="-247" font-family="Helvetica,sans-Serif" font-size="10.00">ParamTable.getDoubleArray</text>
</a>
</g>
</g>
<!-- Node27&#45;&gt;Node30 -->
<g id="edge29_Node000027_Node000030" class="edge">
<title>Node27&#45;&gt;Node30</title>
<g id="a_edge29_Node000027_Node000030"><a xlink:title=" ">
<path fill="none" stroke="#63b8ff" d="M539.38,-241.05C522.54,-242.68 505.2,-244.36 488.63,-245.97"/>
<polygon fill="#63b8ff" stroke="#63b8ff" points="540.17,-244.49 549.78,-240.04 539.49,-237.52 540.17,-244.49"/>
</a>
</g>
</g>
<!-- Node31 -->
<g id="Node000031" class="node">
<title>Node31</title>
<g id="a_Node000031"><a xlink:href="classio_1_1github_1_1fruitcropxl_1_1config_1_1params_1_1ParamTable_a3498ead7efa149dd1d2bbad5007c1403.html#a3498ead7efa149dd1d2bbad5007c1403" target="_top" xlink:title=" ">
<polygon fill="white" stroke="#666666" points="488.5,-222 300.5,-222 300.5,-192 488.5,-192 488.5,-222"/>
<text text-anchor="start" x="308.5" y="-210" font-family="Helvetica,sans-Serif" font-size="10.00">io.github.fruitcropxl.config.params.</text>
<text text-anchor="middle" x="394.5" y="-199" font-family="Helvetica,sans-Serif" font-size="10.00">ParamTable.getDoubleArray</text>
</a>
</g>
</g>
<!-- Node27&#45;&gt;Node31 -->
<g id="edge30_Node000027_Node000031" class="edge">
<title>Node27&#45;&gt;Node31</title>
<g id="a_edge30_Node000027_Node000031"><a xlink:title=" ">
<path fill="none" stroke="#63b8ff" d="M539.38,-220.95C522.54,-219.32 505.2,-217.64 488.63,-216.03"/>
<polygon fill="#63b8ff" stroke="#63b8ff" points="539.49,-224.48 549.78,-221.96 540.17,-217.51 539.49,-224.48"/>
</a>
</g>
</g>
<!-- Node32 -->
<g id="Node000032" class="node">
<title>Node32</title>
<g id="a_Node000032"><a xlink:href="classio_1_1github_1_1fruitcropxl_1_1config_1_1params_1_1ParamTable_a7902e1e5fe828371ff64758d9d473aaf.html#a7902e1e5fe828371ff64758d9d473aaf" target="_top" xlink:title=" ">
<polygon fill="white" stroke="#666666" points="488.5,-174 300.5,-174 300.5,-144 488.5,-144 488.5,-174"/>
<text text-anchor="start" x="308.5" y="-162" font-family="Helvetica,sans-Serif" font-size="10.00">io.github.fruitcropxl.config.params.</text>
<text text-anchor="middle" x="394.5" y="-151" font-family="Helvetica,sans-Serif" font-size="10.00">ParamTable.getIntegerArray</text>
</a>
</g>
</g>
<!-- Node27&#45;&gt;Node32 -->
<g id="edge31_Node000027_Node000032" class="edge">
<title>Node27&#45;&gt;Node32</title>
<g id="a_edge31_Node000027_Node000032"><a xlink:title=" ">
<path fill="none" stroke="#63b8ff" d="M564.44,-212.77C559.49,-210.99 554.64,-209.07 550,-207 532.44,-199.15 531.76,-190.38 514,-183 505.67,-179.54 496.79,-176.56 487.78,-174"/>
<polygon fill="#63b8ff" stroke="#63b8ff" points="563.45,-216.13 574.04,-216 565.68,-209.49 563.45,-216.13"/>
</a>
</g>
</g>
<!-- Node33 -->
<g id="Node000033" class="node">
<title>Node33</title>
<g id="a_Node000033"><a xlink:href="classio_1_1github_1_1fruitcropxl_1_1config_1_1params_1_1ParamTable_aa04cedb31288a1f6d60afd6d802e61d7.html#aa04cedb31288a1f6d60afd6d802e61d7" target="_top" xlink:title=" ">
<polygon fill="white" stroke="#666666" points="488.5,-126 300.5,-126 300.5,-96 488.5,-96 488.5,-126"/>
<text text-anchor="start" x="308.5" y="-114" font-family="Helvetica,sans-Serif" font-size="10.00">io.github.fruitcropxl.config.params.</text>
<text text-anchor="middle" x="394.5" y="-103" font-family="Helvetica,sans-Serif" font-size="10.00">ParamTable.getIntegerArray</text>
</a>
</g>
</g>
<!-- Node27&#45;&gt;Node33 -->
<g id="edge32_Node000027_Node000033" class="edge">
<title>Node27&#45;&gt;Node33</title>
<g id="a_edge32_Node000027_Node000033"><a xlink:title=" ">
<path fill="none" stroke="#63b8ff" d="M554.99,-210.69C553.27,-209.53 551.6,-208.3 550,-207 522.18,-184.51 542.41,-156.75 514,-135 506.42,-129.19 497.79,-124.69 488.72,-121.22"/>
<polygon fill="#63b8ff" stroke="#63b8ff" points="553.58,-213.92 563.98,-215.97 557.13,-207.89 553.58,-213.92"/>
</a>
</g>
</g>
<!-- Node34 -->
<g id="Node000034" class="node">
<title>Node34</title>
<g id="a_Node000034"><a xlink:href="classio_1_1github_1_1fruitcropxl_1_1config_1_1params_1_1ParamTable_a2565a85e38144656726cef5422b3fdd9.html#a2565a85e38144656726cef5422b3fdd9" target="_top" xlink:title=" ">
<polygon fill="white" stroke="#666666" points="488.5,-78 300.5,-78 300.5,-48 488.5,-48 488.5,-78"/>
<text text-anchor="start" x="308.5" y="-66" font-family="Helvetica,sans-Serif" font-size="10.00">io.github.fruitcropxl.config.params.</text>
<text text-anchor="middle" x="394.5" y="-55" font-family="Helvetica,sans-Serif" font-size="10.00">ParamTable.getStringArray</text>
</a>
</g>
</g>
<!-- Node27&#45;&gt;Node34 -->
<g id="edge33_Node000027_Node000034" class="edge">
<title>Node27&#45;&gt;Node34</title>
<g id="a_edge33_Node000027_Node000034"><a xlink:title=" ">
<path fill="none" stroke="#63b8ff" d="M553.03,-209.72C551.99,-208.85 550.98,-207.94 550,-207 509.87,-168.4 555.13,-124.53 514,-87 506.63,-80.28 497.92,-75.23 488.62,-71.46"/>
<polygon fill="#63b8ff" stroke="#63b8ff" points="551.35,-212.82 561.53,-215.76 555.41,-207.12 551.35,-212.82"/>
</a>
</g>
</g>
<!-- Node35 -->
<g id="Node000035" class="node">
<title>Node35</title>
<g id="a_Node000035"><a xlink:href="classio_1_1github_1_1fruitcropxl_1_1config_1_1params_1_1ParamTable_a3f1163fc8de55f388e38c5efdf259ba9.html#a3f1163fc8de55f388e38c5efdf259ba9" target="_top" xlink:title=" ">
<polygon fill="white" stroke="#666666" points="488.5,-30 300.5,-30 300.5,0 488.5,0 488.5,-30"/>
<text text-anchor="start" x="308.5" y="-18" font-family="Helvetica,sans-Serif" font-size="10.00">io.github.fruitcropxl.config.params.</text>
<text text-anchor="middle" x="394.5" y="-7" font-family="Helvetica,sans-Serif" font-size="10.00">ParamTable.getStringArray</text>
</a>
</g>
</g>
<!-- Node27&#45;&gt;Node35 -->
<g id="edge34_Node000027_Node000035" class="edge">
<title>Node27&#45;&gt;Node35</title>
<g id="a_edge34_Node000027_Node000035"><a xlink:title=" ">
<path fill="none" stroke="#63b8ff" d="M552.82,-209.74C551.85,-208.86 550.91,-207.95 550,-207 497.13,-151.9 568.3,-92.69 514,-39 506.76,-31.84 498.01,-26.53 488.58,-22.63"/>
<polygon fill="#63b8ff" stroke="#63b8ff" points="550.71,-212.53 560.79,-215.82 554.96,-206.97 550.71,-212.53"/>
</a>
</g>
</g>
</g>
</svg>
