<?xml version="1.0" encoding="UTF-8" standalone="no"?>
<!DOCTYPE svg PUBLIC "-//W3C//DTD SVG 1.1//EN"
 "http://www.w3.org/Graphics/SVG/1.1/DTD/svg11.dtd">
<!-- Generated by graphviz version 2.43.0 (0)
 -->
<!-- Title: fspm.config.params.hierarchy.CategoryHierarchy.getDoubleArray Pages: 1 -->
<svg width="1134pt" height="165pt"
 viewBox="0.00 0.00 1134.00 165.00" xmlns="http://www.w3.org/2000/svg" xmlns:xlink="http://www.w3.org/1999/xlink">
<g id="graph0" class="graph" transform="scale(1 1) rotate(0) translate(4 161)">
<title>fspm.config.params.hierarchy.CategoryHierarchy.getDoubleArray</title>
<!-- Node1 -->
<g id="node1" class="node">
<title>Node1</title>
<g id="a_node1"><a xlink:title=" ">
<polygon fill="#bfbfbf" stroke="black" points="0,-62.5 0,-92.5 186,-92.5 186,-62.5 0,-62.5"/>
<text text-anchor="start" x="8" y="-80.5" font-family="Helvetica,sans-Serif" font-size="10.00">fspm.config.params.hierarchy.</text>
<text text-anchor="middle" x="93" y="-69.5" font-family="Helvetica,sans-Serif" font-size="10.00">CategoryHierarchy.getDoubleArray</text>
</a>
</g>
</g>
<!-- Node2 -->
<g id="node2" class="node">
<title>Node2</title>
<g id="a_node2"><a xlink:href="classfspm_1_1config_1_1params_1_1ParamCategory_a480fdf398400180423780ae25a3c4656.html#a480fdf398400180423780ae25a3c4656" target="_top" xlink:title=" ">
<polygon fill="none" stroke="black" points="246.5,-90.5 246.5,-120.5 393.5,-120.5 393.5,-90.5 246.5,-90.5"/>
<text text-anchor="start" x="254.5" y="-108.5" font-family="Helvetica,sans-Serif" font-size="10.00">fspm.config.params.Param</text>
<text text-anchor="middle" x="320" y="-97.5" font-family="Helvetica,sans-Serif" font-size="10.00">Category.getDoubleArray</text>
</a>
</g>
</g>
<!-- Node1&#45;&gt;Node2 -->
<g id="edge1" class="edge">
<title>Node1&#45;&gt;Node2</title>
<path fill="none" stroke="midnightblue" d="M186.17,-88.97C202.75,-91.03 219.94,-93.17 236.24,-95.2"/>
<polygon fill="midnightblue" stroke="midnightblue" points="235.9,-98.69 246.25,-96.45 236.76,-91.74 235.9,-98.69"/>
</g>
<!-- Node8 -->
<g id="node8" class="node">
<title>Node8</title>
<g id="a_node8"><a xlink:href="classfspm_1_1config_1_1params_1_1hierarchy_1_1CategoryHierarchy_a97a3787601b2a1964f925a5509267602.html#a97a3787601b2a1964f925a5509267602" target="_top" xlink:title=" ">
<polygon fill="none" stroke="black" points="222,-30 222,-71 418,-71 418,-30 222,-30"/>
<text text-anchor="start" x="230" y="-59" font-family="Helvetica,sans-Serif" font-size="10.00">fspm.config.params.hierarchy.</text>
<text text-anchor="start" x="230" y="-48" font-family="Helvetica,sans-Serif" font-size="10.00">CategoryHierarchy.validateFlattened</text>
<text text-anchor="middle" x="320" y="-37" font-family="Helvetica,sans-Serif" font-size="10.00">Access</text>
</a>
</g>
</g>
<!-- Node1&#45;&gt;Node8 -->
<g id="edge8" class="edge">
<title>Node1&#45;&gt;Node8</title>
<path fill="none" stroke="midnightblue" d="M186.17,-66.44C194.63,-65.42 203.25,-64.39 211.82,-63.36"/>
<polygon fill="midnightblue" stroke="midnightblue" points="212.35,-66.82 221.86,-62.16 211.52,-59.87 212.35,-66.82"/>
</g>
<!-- Node3 -->
<g id="node3" class="node">
<title>Node3</title>
<g id="a_node3"><a xlink:href="classfspm_1_1config_1_1params_1_1Parameter_a9602723e39e140c1a5188f3f6bafacfa.html#a9602723e39e140c1a5188f3f6bafacfa" target="_top" xlink:title=" ">
<polygon fill="none" stroke="black" points="475.5,-126.5 475.5,-156.5 655.5,-156.5 655.5,-126.5 475.5,-126.5"/>
<text text-anchor="start" x="483.5" y="-144.5" font-family="Helvetica,sans-Serif" font-size="10.00">fspm.config.params.Parameter.as</text>
<text text-anchor="middle" x="565.5" y="-133.5" font-family="Helvetica,sans-Serif" font-size="10.00">DoubleArray</text>
</a>
</g>
</g>
<!-- Node2&#45;&gt;Node3 -->
<g id="edge2" class="edge">
<title>Node2&#45;&gt;Node3</title>
<path fill="none" stroke="midnightblue" d="M393.73,-116.25C416.17,-119.57 441.27,-123.28 465.19,-126.82"/>
<polygon fill="midnightblue" stroke="midnightblue" points="464.94,-130.32 475.35,-128.32 465.97,-123.39 464.94,-130.32"/>
</g>
<!-- Node7 -->
<g id="node7" class="node">
<title>Node7</title>
<g id="a_node7"><a xlink:href="classfspm_1_1config_1_1params_1_1ParamCategory_ac81e6b98fa48fc3426eed6f60e81da5b.html#ac81e6b98fa48fc3426eed6f60e81da5b" target="_top" xlink:title="Get generic Parameter with the given key.">
<polygon fill="none" stroke="black" points="729.5,-60.5 729.5,-90.5 876.5,-90.5 876.5,-60.5 729.5,-60.5"/>
<text text-anchor="start" x="737.5" y="-78.5" font-family="Helvetica,sans-Serif" font-size="10.00">fspm.config.params.Param</text>
<text text-anchor="middle" x="803" y="-67.5" font-family="Helvetica,sans-Serif" font-size="10.00">Category.getParameter</text>
</a>
</g>
</g>
<!-- Node2&#45;&gt;Node7 -->
<g id="edge6" class="edge">
<title>Node2&#45;&gt;Node7</title>
<path fill="none" stroke="midnightblue" d="M393.53,-100.98C480.93,-95.53 627.44,-86.39 719.19,-80.66"/>
<polygon fill="midnightblue" stroke="midnightblue" points="719.51,-84.15 729.27,-80.04 719.07,-77.17 719.51,-84.15"/>
</g>
<!-- Node4 -->
<g id="node4" class="node">
<title>Node4</title>
<g id="a_node4"><a xlink:href="classfspm_1_1config_1_1params_1_1Parameter_a2dced470a20701940042f6dacad7f78e.html#a2dced470a20701940042f6dacad7f78e" target="_top" xlink:title=" ">
<polygon fill="none" stroke="black" points="713,-117.5 713,-147.5 893,-147.5 893,-117.5 713,-117.5"/>
<text text-anchor="start" x="721" y="-135.5" font-family="Helvetica,sans-Serif" font-size="10.00">fspm.config.params.Parameter.as</text>
<text text-anchor="middle" x="803" y="-124.5" font-family="Helvetica,sans-Serif" font-size="10.00">Array</text>
</a>
</g>
</g>
<!-- Node3&#45;&gt;Node4 -->
<g id="edge3" class="edge">
<title>Node3&#45;&gt;Node4</title>
<path fill="none" stroke="midnightblue" d="M655.53,-138.1C670.92,-137.51 687,-136.89 702.64,-136.3"/>
<polygon fill="midnightblue" stroke="midnightblue" points="702.98,-139.79 712.84,-135.91 702.72,-132.79 702.98,-139.79"/>
</g>
<!-- Node5 -->
<g id="node5" class="node">
<title>Node5</title>
<g id="a_node5"><a xlink:href="classfspm_1_1util_1_1KeyElement_a653aac67328f98c1201974736671fe0d.html#a653aac67328f98c1201974736671fe0d" target="_top" xlink:title=" ">
<polygon fill="none" stroke="black" points="948.5,-80 948.5,-99 1106.5,-99 1106.5,-80 948.5,-80"/>
<text text-anchor="middle" x="1027.5" y="-87" font-family="Helvetica,sans-Serif" font-size="10.00">fspm.util.KeyElement.getKey</text>
</a>
</g>
</g>
<!-- Node4&#45;&gt;Node5 -->
<g id="edge4" class="edge">
<title>Node4&#45;&gt;Node5</title>
<path fill="none" stroke="midnightblue" d="M881.82,-117.46C909.81,-112.05 940.91,-106.04 967.08,-100.98"/>
<polygon fill="midnightblue" stroke="midnightblue" points="968.07,-104.36 977.23,-99.02 966.75,-97.48 968.07,-104.36"/>
</g>
<!-- Node6 -->
<g id="node6" class="node">
<title>Node6</title>
<g id="a_node6"><a xlink:href="classfspm_1_1config_1_1params_1_1Parameter_a2fd72835a908354fea23f92e3f3b1800.html#a2fd72835a908354fea23f92e3f3b1800" target="_top" xlink:title=" ">
<polygon fill="none" stroke="black" points="929,-123 929,-142 1126,-142 1126,-123 929,-123"/>
<text text-anchor="middle" x="1027.5" y="-130" font-family="Helvetica,sans-Serif" font-size="10.00">fspm.config.params.Parameter.isNull</text>
</a>
</g>
</g>
<!-- Node4&#45;&gt;Node6 -->
<g id="edge5" class="edge">
<title>Node4&#45;&gt;Node6</title>
<path fill="none" stroke="midnightblue" d="M893.22,-132.5C901.65,-132.5 910.25,-132.5 918.83,-132.5"/>
<polygon fill="midnightblue" stroke="midnightblue" points="918.87,-136 928.87,-132.5 918.87,-129 918.87,-136"/>
</g>
<!-- Node7&#45;&gt;Node5 -->
<g id="edge7" class="edge">
<title>Node7&#45;&gt;Node5</title>
<path fill="none" stroke="midnightblue" d="M876.55,-80.06C896.18,-81.3 917.66,-82.65 938.06,-83.94"/>
<polygon fill="midnightblue" stroke="midnightblue" points="938.1,-87.44 948.3,-84.58 938.54,-80.46 938.1,-87.44"/>
</g>
<!-- Node8&#45;&gt;Node7 -->
<g id="edge11" class="edge">
<title>Node8&#45;&gt;Node7</title>
<path fill="none" stroke="midnightblue" d="M418.05,-55.54C506.43,-60.14 635.55,-66.85 719.18,-71.2"/>
<polygon fill="midnightblue" stroke="midnightblue" points="719.23,-74.7 729.4,-71.73 719.59,-67.71 719.23,-74.7"/>
</g>
<!-- Node9 -->
<g id="node9" class="node">
<title>Node9</title>
<g id="a_node9"><a xlink:href="classfspm_1_1config_1_1params_1_1hierarchy_1_1CategoryHierarchy_a9c1b08f5e63a4e2ae1092e048db34237.html#a9c1b08f5e63a4e2ae1092e048db34237" target="_top" xlink:title=" ">
<polygon fill="none" stroke="black" points="454,-0.5 454,-30.5 677,-30.5 677,-0.5 454,-0.5"/>
<text text-anchor="start" x="462" y="-18.5" font-family="Helvetica,sans-Serif" font-size="10.00">fspm.config.params.hierarchy.</text>
<text text-anchor="middle" x="565.5" y="-7.5" font-family="Helvetica,sans-Serif" font-size="10.00">CategoryHierarchy.getCategoryWithParam</text>
</a>
</g>
</g>
<!-- Node8&#45;&gt;Node9 -->
<g id="edge9" class="edge">
<title>Node8&#45;&gt;Node9</title>
<path fill="none" stroke="midnightblue" d="M418.29,-36.52C428.63,-35.03 439.21,-33.51 449.73,-32"/>
<polygon fill="midnightblue" stroke="midnightblue" points="450.38,-35.44 459.78,-30.55 449.38,-28.51 450.38,-35.44"/>
</g>
<!-- Node9&#45;&gt;Node7 -->
<g id="edge10" class="edge">
<title>Node9&#45;&gt;Node7</title>
<path fill="none" stroke="midnightblue" d="M625.62,-30.56C658.24,-38.87 698.91,-49.23 732.97,-57.91"/>
<polygon fill="midnightblue" stroke="midnightblue" points="732.3,-61.35 742.85,-60.43 734.03,-54.57 732.3,-61.35"/>
</g>
</g>
</svg>
