<?xml version="1.0" encoding="UTF-8" standalone="no"?>
<!DOCTYPE svg PUBLIC "-//W3C//DTD SVG 1.1//EN"
 "http://www.w3.org/Graphics/SVG/1.1/DTD/svg11.dtd">
<!-- Generated by graphviz version 2.43.0 (0)
 -->
<!-- Title: fspm.config.params.ParamCategory.getBoolean Pages: 1 -->
<!--zoomable 186 -->
<svg id="main" version="1.1" xmlns="http://www.w3.org/2000/svg" xmlns:xlink="http://www.w3.org/1999/xlink" xml:space="preserve" onload="init(evt)">
<style type="text/css"><![CDATA[
.edge:hover path { stroke: red; }
.edge:hover polygon { stroke: red; fill: red; }
]]></style>
<script type="text/javascript"><![CDATA[
var edges = document.getElementsByTagName('g');
if (edges && edges.length) {
  for (var i=0;i<edges.length;i++) {
    if (edges[i].id.substr(0,4)=='edge') {
      edges[i].setAttribute('class','edge');
    }
  }
}
]]></script>
        <defs>
                <circle id="rim" cx="0" cy="0" r="7"/>
                <circle id="rim2" cx="0" cy="0" r="3.5"/>
                <g id="zoomPlus">
                        <use xlink:href="#rim" fill="#404040">
                                <set attributeName="fill" to="#808080" begin="zoomplus.mouseover" end="zoomplus.mouseout"/>
                        </use>
                        <path d="M-4,0h8M0,-4v8" fill="none" stroke="white" stroke-width="1.5" pointer-events="none"/>
                </g>
                <g id="zoomMin">
                        <use xlink:href="#rim" fill="#404040">
                                <set attributeName="fill" to="#808080" begin="zoomminus.mouseover" end="zoomminus.mouseout"/>
                        </use>
                        <path d="M-4,0h8" fill="none" stroke="white" stroke-width="1.5" pointer-events="none"/>
                </g>
                <g id="dirArrow">
                        <path fill="none" stroke="white" stroke-width="1.5" d="M0,-3.0v7 M-2.5,-0.5L0,-3.0L2.5,-0.5"/>
                </g>
               <g id="resetDef">
                       <use xlink:href="#rim2" fill="#404040">
                               <set attributeName="fill" to="#808080" begin="reset.mouseover" end="reset.mouseout"/>
                       </use>
               </g>
        </defs>

<script type="text/javascript">
var viewWidth = 592;
var viewHeight = 186;
var sectionId = 'dynsection-1';
</script>
<script xlink:href="svgpan.js"/>
<svg id="graph" class="graph">
<g id="viewport">
<title>fspm.config.params.ParamCategory.getBoolean</title>
<!-- Node1 -->
<g id="node1" class="node">
<title>Node1</title>
<g id="a_node1"><a xlink:title=" ">
<polygon fill="#bfbfbf" stroke="black" points="437,-120.5 437,-150.5 584,-150.5 584,-120.5 437,-120.5"/>
<text text-anchor="start" x="445" y="-138.5" font-family="Helvetica,sans-Serif" font-size="10.00">fspm.config.params.Param</text>
<text text-anchor="middle" x="510.5" y="-127.5" font-family="Helvetica,sans-Serif" font-size="10.00">Category.getBoolean</text>
</a>
</g>
</g>
<!-- Node2 -->
<g id="node2" class="node">
<title>Node2</title>
<g id="a_node2"><a xlink:href="classfspm_1_1config_1_1params_1_1structures_1_1CategoryStore_adbcea0df7b9ee09a9981f4740c7400a6.html#adbcea0df7b9ee09a9981f4740c7400a6" target="_top" xlink:title=" ">
<polygon fill="none" stroke="black" points="233,-98.5 233,-128.5 401,-128.5 401,-98.5 233,-98.5"/>
<text text-anchor="start" x="241" y="-116.5" font-family="Helvetica,sans-Serif" font-size="10.00">fspm.config.params.structures.</text>
<text text-anchor="middle" x="317" y="-105.5" font-family="Helvetica,sans-Serif" font-size="10.00">CategoryStore.getBoolean</text>
</a>
</g>
</g>
<!-- Node1&#45;&gt;Node2 -->
<g id="edge1" class="edge">
<title>Node1&#45;&gt;Node2</title>
<path fill="none" stroke="midnightblue" d="M426.63,-125.98C418.2,-125.01 409.64,-124.03 401.21,-123.06"/>
<polygon fill="midnightblue" stroke="midnightblue" points="426.49,-129.49 436.83,-127.15 427.29,-122.53 426.49,-129.49"/>
</g>
<!-- Node4 -->
<g id="node4" class="node">
<title>Node4</title>
<g id="a_node4"><a xlink:href="classfspm_1_1config_1_1tests_1_1ParamAccess_1_1SimpleTest_a1ebf711e67df23a453e0ce50bc63b482.html#a1ebf711e67df23a453e0ce50bc63b482" target="_top" xlink:title=" ">
<polygon fill="none" stroke="black" points="12,-147.5 12,-177.5 185,-177.5 185,-147.5 12,-147.5"/>
<text text-anchor="start" x="20" y="-165.5" font-family="Helvetica,sans-Serif" font-size="10.00">fspm.config.tests.ParamAccess.</text>
<text text-anchor="middle" x="98.5" y="-154.5" font-family="Helvetica,sans-Serif" font-size="10.00">SimpleTest.testAccessExamples</text>
</a>
</g>
</g>
<!-- Node1&#45;&gt;Node4 -->
<g id="edge6" class="edge">
<title>Node1&#45;&gt;Node4</title>
<path fill="none" stroke="midnightblue" d="M426.54,-140.96C356.33,-145.59 256.09,-152.19 185.13,-156.86"/>
<polygon fill="midnightblue" stroke="midnightblue" points="426.92,-144.45 436.67,-140.3 426.46,-137.46 426.92,-144.45"/>
</g>
<!-- Node3 -->
<g id="node3" class="node">
<title>Node3</title>
<g id="a_node3"><a xlink:href="classfspm_1_1config_1_1params_1_1structures_1_1CategoryStore_a08b4f8afb977e4744fe02d17ad75f8af.html#a08b4f8afb977e4744fe02d17ad75f8af" target="_top" xlink:title=" ">
<polygon fill="none" stroke="black" points="14.5,-98.5 14.5,-128.5 182.5,-128.5 182.5,-98.5 14.5,-98.5"/>
<text text-anchor="start" x="22.5" y="-116.5" font-family="Helvetica,sans-Serif" font-size="10.00">fspm.config.params.structures.</text>
<text text-anchor="middle" x="98.5" y="-105.5" font-family="Helvetica,sans-Serif" font-size="10.00">CategoryStore.getBoolean</text>
</a>
</g>
</g>
<!-- Node2&#45;&gt;Node3 -->
<g id="edge2" class="edge">
<title>Node2&#45;&gt;Node3</title>
<path fill="none" stroke="midnightblue" d="M222.8,-113.5C209.47,-113.5 195.84,-113.5 182.72,-113.5"/>
<polygon fill="midnightblue" stroke="midnightblue" points="222.91,-117 232.91,-113.5 222.91,-110 222.91,-117"/>
</g>
<!-- Node2&#45;&gt;Node4 -->
<g id="edge3" class="edge">
<title>Node2&#45;&gt;Node4</title>
<path fill="none" stroke="midnightblue" d="M239.75,-130.76C215.62,-136.22 189.17,-142.21 165.8,-147.49"/>
<polygon fill="midnightblue" stroke="midnightblue" points="240.59,-134.16 249.57,-128.53 239.05,-127.33 240.59,-134.16"/>
</g>
<!-- Node5 -->
<g id="node5" class="node">
<title>Node5</title>
<g id="a_node5"><a xlink:href="classfspm_1_1config_1_1tests_1_1ParamAccess_1_1SimpleTest_a4612b4a76c0c5eb3a4d9fac2c0fa2bf8.html#a4612b4a76c0c5eb3a4d9fac2c0fa2bf8" target="_top" xlink:title=" ">
<polygon fill="none" stroke="black" points="0,-49.5 0,-79.5 197,-79.5 197,-49.5 0,-49.5"/>
<text text-anchor="start" x="8" y="-67.5" font-family="Helvetica,sans-Serif" font-size="10.00">fspm.config.tests.ParamAccess.</text>
<text text-anchor="middle" x="98.5" y="-56.5" font-family="Helvetica,sans-Serif" font-size="10.00">SimpleTest.testCrossCategoryAccess</text>
</a>
</g>
</g>
<!-- Node2&#45;&gt;Node5 -->
<g id="edge4" class="edge">
<title>Node2&#45;&gt;Node5</title>
<path fill="none" stroke="midnightblue" d="M239.75,-96.24C215.62,-90.78 189.17,-84.79 165.8,-79.51"/>
<polygon fill="midnightblue" stroke="midnightblue" points="239.05,-99.67 249.57,-98.47 240.59,-92.84 239.05,-99.67"/>
</g>
<!-- Node6 -->
<g id="node6" class="node">
<title>Node6</title>
<g id="a_node6"><a xlink:href="classfspm_1_1config_1_1tests_1_1ParamAccess_1_1SimpleTest_a8a856d084a9f7cc18dd02285f8bff9b4.html#a8a856d084a9f7cc18dd02285f8bff9b4" target="_top" xlink:title=" ">
<polygon fill="none" stroke="black" points="13,-0.5 13,-30.5 184,-30.5 184,-0.5 13,-0.5"/>
<text text-anchor="start" x="21" y="-18.5" font-family="Helvetica,sans-Serif" font-size="10.00">fspm.config.tests.ParamAccess.</text>
<text text-anchor="middle" x="98.5" y="-7.5" font-family="Helvetica,sans-Serif" font-size="10.00">SimpleTest.testFlatCategories</text>
</a>
</g>
</g>
<!-- Node2&#45;&gt;Node6 -->
<g id="edge5" class="edge">
<title>Node2&#45;&gt;Node6</title>
<path fill="none" stroke="midnightblue" d="M287.67,-92.3C264.39,-75.79 230,-53.41 197,-39.5 188.97,-36.12 180.35,-33.14 171.69,-30.54"/>
<polygon fill="midnightblue" stroke="midnightblue" points="285.86,-95.31 296.02,-98.31 289.95,-89.62 285.86,-95.31"/>
</g>
</g>
</svg>
        <g id="navigator" transform="translate(0 0)" fill="#404254">
                <rect fill="#f2f5e9" fill-opacity="0.5" stroke="#606060" stroke-width=".5" x="0" y="0" width="60" height="60"/>
                <use id="zoomplus" xlink:href="#zoomPlus" x="17" y="9" onmousedown="handleZoom(evt,'in')"/>
                <use id="zoomminus" xlink:href="#zoomMin" x="42" y="9" onmousedown="handleZoom(evt,'out')"/>
                <use id="reset" xlink:href="#resetDef" x="30" y="36" onmousedown="handleReset()"/>
                <g id="arrowUp" xlink:href="#dirArrow" transform="translate(30 24)" onmousedown="handlePan(0,-1)">
                  <use xlink:href="#rim" fill="#404040">
                        <set attributeName="fill" to="#808080" begin="arrowUp.mouseover" end="arrowUp.mouseout"/>
                  </use>
                  <path fill="none" stroke="white" stroke-width="1.5" d="M0,-3.0v7 M-2.5,-0.5L0,-3.0L2.5,-0.5"/>
                </g>
                <g id="arrowRight" xlink:href="#dirArrow" transform="rotate(90) translate(36 -43)" onmousedown="handlePan(1,0)">
                  <use xlink:href="#rim" fill="#404040">
                        <set attributeName="fill" to="#808080" begin="arrowRight.mouseover" end="arrowRight.mouseout"/>
                  </use>
                  <path fill="none" stroke="white" stroke-width="1.5" d="M0,-3.0v7 M-2.5,-0.5L0,-3.0L2.5,-0.5"/>
                </g>
                <g id="arrowDown" xlink:href="#dirArrow" transform="rotate(180) translate(-30 -48)" onmousedown="handlePan(0,1)">
                  <use xlink:href="#rim" fill="#404040">
                        <set attributeName="fill" to="#808080" begin="arrowDown.mouseover" end="arrowDown.mouseout"/>
                  </use>
                  <path fill="none" stroke="white" stroke-width="1.5" d="M0,-3.0v7 M-2.5,-0.5L0,-3.0L2.5,-0.5"/>
                </g>
                <g id="arrowLeft" xlink:href="#dirArrow" transform="rotate(270) translate(-36 17)" onmousedown="handlePan(-1,0)">
                  <use xlink:href="#rim" fill="#404040">
                        <set attributeName="fill" to="#808080" begin="arrowLeft.mouseover" end="arrowLeft.mouseout"/>
                  </use>
                  <path fill="none" stroke="white" stroke-width="1.5" d="M0,-3.0v7 M-2.5,-0.5L0,-3.0L2.5,-0.5"/>
                </g>
        </g>
        <svg viewBox="0 0 15 15" width="100%" height="30px" preserveAspectRatio="xMaxYMin meet">
         <g id="arrow_out" transform="scale(0.3 0.3)">
          <a xlink:href="classfspm_1_1config_1_1params_1_1ParamCategory_afa61ab695415b052569467d379bf4a07_afa61ab695415b052569467d379bf4a07_icgraph_org.svg" target="_base">
           <rect id="button" ry="5" rx="5" y="6" x="6" height="38" width="38"
                fill="#f2f5e9" fill-opacity="0.5" stroke="#606060" stroke-width="1.0"/>
           <path id="arrow"
             d="M 11.500037,31.436501 C 11.940474,20.09759 22.043105,11.32322 32.158766,21.979434 L 37.068811,17.246167 C 37.068811,17.246167 37.088388,32 37.088388,32 L 22.160133,31.978069 C 22.160133,31.978069 26.997745,27.140456 26.997745,27.140456 C 18.528582,18.264221 13.291696,25.230495 11.500037,31.436501 z"
             style="fill:#404040;"/>
          </a>
         </g>
        </svg>
</svg>
