<?xml version="1.0" encoding="UTF-8" standalone="no"?>
<!DOCTYPE svg PUBLIC "-//W3C//DTD SVG 1.1//EN"
 "http://www.w3.org/Graphics/SVG/1.1/DTD/svg11.dtd">
<!-- Generated by graphviz version 2.43.0 (0)
 -->
<!-- Title: TypedKeyParamAccessor Pages: 1 -->
<svg width="442pt" height="453pt"
 viewBox="0.00 0.00 441.50 453.00" xmlns="http://www.w3.org/2000/svg" xmlns:xlink="http://www.w3.org/1999/xlink">
<g id="graph0" class="graph" transform="scale(1 1) rotate(0) translate(4 449)">
<title>TypedKeyParamAccessor</title>
<!-- Node1 -->
<g id="Node000001" class="node">
<title>Node1</title>
<g id="a_Node000001"><a xlink:title=" ">
<polygon fill="#999999" stroke="transparent" points="269.5,-445 138.5,-445 138.5,-396 269.5,-396 269.5,-445"/>
<text text-anchor="start" x="144" y="-432.5" font-family="Helvetica,sans-Serif" font-size="10.00">TypedKeyParamAccessor</text>
<text text-anchor="start" x="202.5" y="-417.5" font-family="Helvetica,sans-Serif" font-size="10.00"> </text>
<text text-anchor="start" x="202.5" y="-402.5" font-family="Helvetica,sans-Serif" font-size="10.00"> </text>
<polygon fill="#666666" stroke="#666666" points="139,-427.5 139,-427.5 270,-427.5 270,-427.5 139,-427.5"/>
<polygon fill="#666666" stroke="#666666" points="139,-412.5 139,-412.5 270,-412.5 270,-412.5 139,-412.5"/>
<polygon fill="none" stroke="#666666" points="138.5,-396 138.5,-445 269.5,-445 269.5,-396 138.5,-396"/>
</a>
</g>
</g>
<!-- Node2 -->
<g id="Node000002" class="node">
<title>Node2</title>
<g id="a_Node000002"><a xlink:href="classio_1_1github_1_1fruitcropxl_1_1config_1_1params_1_1ParamCategory.html" target="_top" xlink:title="Stores Parameters that belong to a common category.">
<polygon fill="white" stroke="transparent" points="182,-315 0,-315 0,-45 182,-45 182,-315"/>
<text text-anchor="start" x="5" y="-303" font-family="Helvetica,sans-Serif" font-size="10.00">io.github.fruitcropxl.config.params.</text>
<text text-anchor="start" x="53" y="-292" font-family="Helvetica,sans-Serif" font-size="10.00">ParamCategory</text>
<text text-anchor="start" x="26" y="-277" font-family="Helvetica,sans-Serif" font-size="10.00">&#45;</text>
<text text-anchor="start" x="56" y="-277" font-family="Helvetica,sans-Serif" font-size="10.00">params</text>
<text text-anchor="start" x="23.5" y="-262" font-family="Helvetica,sans-Serif" font-size="10.00">+</text>
<text text-anchor="start" x="56" y="-262" font-family="Helvetica,sans-Serif" font-size="10.00">ParamCategory()</text>
<text text-anchor="start" x="23.5" y="-247" font-family="Helvetica,sans-Serif" font-size="10.00">+</text>
<text text-anchor="start" x="56" y="-247" font-family="Helvetica,sans-Serif" font-size="10.00">addParameter()</text>
<text text-anchor="start" x="23.5" y="-232" font-family="Helvetica,sans-Serif" font-size="10.00">+</text>
<text text-anchor="start" x="56" y="-232" font-family="Helvetica,sans-Serif" font-size="10.00">setParameter()</text>
<text text-anchor="start" x="23.5" y="-217" font-family="Helvetica,sans-Serif" font-size="10.00">+</text>
<text text-anchor="start" x="56" y="-217" font-family="Helvetica,sans-Serif" font-size="10.00">getParameter()</text>
<text text-anchor="start" x="23.5" y="-202" font-family="Helvetica,sans-Serif" font-size="10.00">+</text>
<text text-anchor="start" x="56" y="-202" font-family="Helvetica,sans-Serif" font-size="10.00">toString()</text>
<text text-anchor="start" x="23.5" y="-187" font-family="Helvetica,sans-Serif" font-size="10.00">+</text>
<text text-anchor="start" x="56" y="-187" font-family="Helvetica,sans-Serif" font-size="10.00">isNull()</text>
<text text-anchor="start" x="23.5" y="-172" font-family="Helvetica,sans-Serif" font-size="10.00">+</text>
<text text-anchor="start" x="56" y="-172" font-family="Helvetica,sans-Serif" font-size="10.00">getBoolean()</text>
<text text-anchor="start" x="23.5" y="-157" font-family="Helvetica,sans-Serif" font-size="10.00">+</text>
<text text-anchor="start" x="56" y="-157" font-family="Helvetica,sans-Serif" font-size="10.00">getBoolean()</text>
<text text-anchor="start" x="23.5" y="-142" font-family="Helvetica,sans-Serif" font-size="10.00">+</text>
<text text-anchor="start" x="56" y="-142" font-family="Helvetica,sans-Serif" font-size="10.00">getString()</text>
<text text-anchor="start" x="23.5" y="-127" font-family="Helvetica,sans-Serif" font-size="10.00">+</text>
<text text-anchor="start" x="56" y="-127" font-family="Helvetica,sans-Serif" font-size="10.00">getString()</text>
<text text-anchor="start" x="56" y="-112" font-family="Helvetica,sans-Serif" font-size="10.00">and 12 more...</text>
<text text-anchor="start" x="23.5" y="-97" font-family="Helvetica,sans-Serif" font-size="10.00">~</text>
<text text-anchor="start" x="56" y="-97" font-family="Helvetica,sans-Serif" font-size="10.00">get()</text>
<text text-anchor="start" x="23.5" y="-82" font-family="Helvetica,sans-Serif" font-size="10.00">~</text>
<text text-anchor="start" x="56" y="-82" font-family="Helvetica,sans-Serif" font-size="10.00">get()</text>
<text text-anchor="start" x="23.5" y="-67" font-family="Helvetica,sans-Serif" font-size="10.00">~</text>
<text text-anchor="start" x="56" y="-67" font-family="Helvetica,sans-Serif" font-size="10.00">getArray()</text>
<text text-anchor="start" x="23.5" y="-52" font-family="Helvetica,sans-Serif" font-size="10.00">~</text>
<text text-anchor="start" x="56" y="-52" font-family="Helvetica,sans-Serif" font-size="10.00">getArray()</text>
<polygon fill="#666666" stroke="#666666" points="0,-287 0,-287 182,-287 182,-287 0,-287"/>
<polygon fill="#666666" stroke="#666666" points="0,-272 0,-272 54,-272 54,-272 0,-272"/>
<polygon fill="#666666" stroke="#666666" points="54,-272 54,-272 182,-272 182,-272 54,-272"/>
<polygon fill="none" stroke="#666666" points="0,-45 0,-315 182,-315 182,-45 0,-45"/>
</a>
</g>
</g>
<!-- Node1&#45;&gt;Node2 -->
<g id="edge1_Node000001_Node000002" class="edge">
<title>Node1&#45;&gt;Node2</title>
<g id="a_edge1_Node000001_Node000002"><a xlink:title=" ">
<path fill="none" stroke="#63b8ff" d="M188.41,-386.6C179.31,-367.38 167.14,-341.71 154.51,-315.04"/>
<polygon fill="none" stroke="#63b8ff" points="185.31,-388.22 192.75,-395.76 191.63,-385.22 185.31,-388.22"/>
</a>
</g>
</g>
<!-- Node3 -->
<g id="Node000003" class="node">
<title>Node3</title>
<g id="a_Node000003"><a xlink:href="classio_1_1github_1_1fruitcropxl_1_1config_1_1params_1_1structures_1_1CategoryStore.html" target="_top" xlink:title="Represents the collection of categories in a document.">
<polygon fill="white" stroke="transparent" points="433.5,-360 200.5,-360 200.5,0 433.5,0 433.5,-360"/>
<text text-anchor="start" x="206" y="-348" font-family="Helvetica,sans-Serif" font-size="10.00">io.github.fruitcropxl.config.params.structures.</text>
<text text-anchor="start" x="282.5" y="-337" font-family="Helvetica,sans-Serif" font-size="10.00">CategoryStore</text>
<text text-anchor="start" x="226" y="-322" font-family="Helvetica,sans-Serif" font-size="10.00">+</text>
<text text-anchor="start" x="260" y="-322" font-family="Helvetica,sans-Serif" font-size="10.00">CATEGORIES_HEADER</text>
<text text-anchor="start" x="228.5" y="-307" font-family="Helvetica,sans-Serif" font-size="10.00">&#45;</text>
<text text-anchor="start" x="260" y="-307" font-family="Helvetica,sans-Serif" font-size="10.00">categoryContext</text>
<text text-anchor="start" x="228.5" y="-292" font-family="Helvetica,sans-Serif" font-size="10.00">&#45;</text>
<text text-anchor="start" x="260" y="-292" font-family="Helvetica,sans-Serif" font-size="10.00">categories</text>
<text text-anchor="start" x="228.5" y="-277" font-family="Helvetica,sans-Serif" font-size="10.00">&#45;</text>
<text text-anchor="start" x="260" y="-277" font-family="Helvetica,sans-Serif" font-size="10.00">useFlattenedCategories</text>
<text text-anchor="start" x="226" y="-262" font-family="Helvetica,sans-Serif" font-size="10.00">+</text>
<text text-anchor="start" x="260" y="-262" font-family="Helvetica,sans-Serif" font-size="10.00">CategoryStore()</text>
<text text-anchor="start" x="226" y="-247" font-family="Helvetica,sans-Serif" font-size="10.00">+</text>
<text text-anchor="start" x="260" y="-247" font-family="Helvetica,sans-Serif" font-size="10.00">addCategory()</text>
<text text-anchor="start" x="226" y="-232" font-family="Helvetica,sans-Serif" font-size="10.00">+</text>
<text text-anchor="start" x="260" y="-232" font-family="Helvetica,sans-Serif" font-size="10.00">getCategory()</text>
<text text-anchor="start" x="226" y="-217" font-family="Helvetica,sans-Serif" font-size="10.00">+</text>
<text text-anchor="start" x="260" y="-217" font-family="Helvetica,sans-Serif" font-size="10.00">getCategoryWithParam()</text>
<text text-anchor="start" x="226" y="-202" font-family="Helvetica,sans-Serif" font-size="10.00">+</text>
<text text-anchor="start" x="260" y="-202" font-family="Helvetica,sans-Serif" font-size="10.00">setCategoryContext()</text>
<text text-anchor="start" x="226" y="-187" font-family="Helvetica,sans-Serif" font-size="10.00">+</text>
<text text-anchor="start" x="260" y="-187" font-family="Helvetica,sans-Serif" font-size="10.00">setFlattenedAccess()</text>
<text text-anchor="start" x="226" y="-172" font-family="Helvetica,sans-Serif" font-size="10.00">+</text>
<text text-anchor="start" x="260" y="-172" font-family="Helvetica,sans-Serif" font-size="10.00">getBoolean()</text>
<text text-anchor="start" x="226" y="-157" font-family="Helvetica,sans-Serif" font-size="10.00">+</text>
<text text-anchor="start" x="260" y="-157" font-family="Helvetica,sans-Serif" font-size="10.00">getBoolean()</text>
<text text-anchor="start" x="226" y="-142" font-family="Helvetica,sans-Serif" font-size="10.00">+</text>
<text text-anchor="start" x="260" y="-142" font-family="Helvetica,sans-Serif" font-size="10.00">getString()</text>
<text text-anchor="start" x="226" y="-127" font-family="Helvetica,sans-Serif" font-size="10.00">+</text>
<text text-anchor="start" x="260" y="-127" font-family="Helvetica,sans-Serif" font-size="10.00">getString()</text>
<text text-anchor="start" x="260" y="-112" font-family="Helvetica,sans-Serif" font-size="10.00">and 19 more...</text>
<text text-anchor="start" x="226" y="-97" font-family="Helvetica,sans-Serif" font-size="10.00">+</text>
<text text-anchor="start" x="260" y="-97" font-family="Helvetica,sans-Serif" font-size="10.00">parse()</text>
<text text-anchor="start" x="226" y="-82" font-family="Helvetica,sans-Serif" font-size="10.00">~</text>
<text text-anchor="start" x="260" y="-82" font-family="Helvetica,sans-Serif" font-size="10.00">get()</text>
<text text-anchor="start" x="226" y="-67" font-family="Helvetica,sans-Serif" font-size="10.00">~</text>
<text text-anchor="start" x="260" y="-67" font-family="Helvetica,sans-Serif" font-size="10.00">get()</text>
<text text-anchor="start" x="226" y="-52" font-family="Helvetica,sans-Serif" font-size="10.00">~</text>
<text text-anchor="start" x="260" y="-52" font-family="Helvetica,sans-Serif" font-size="10.00">getArray()</text>
<text text-anchor="start" x="226" y="-37" font-family="Helvetica,sans-Serif" font-size="10.00">~</text>
<text text-anchor="start" x="260" y="-37" font-family="Helvetica,sans-Serif" font-size="10.00">getArray()</text>
<text text-anchor="start" x="226" y="-22" font-family="Helvetica,sans-Serif" font-size="10.00">~</text>
<text text-anchor="start" x="260" y="-22" font-family="Helvetica,sans-Serif" font-size="10.00">set()</text>
<text text-anchor="start" x="228.5" y="-7" font-family="Helvetica,sans-Serif" font-size="10.00">&#45;</text>
<text text-anchor="start" x="260" y="-7" font-family="Helvetica,sans-Serif" font-size="10.00">validateFlattenedAccess()</text>
<polygon fill="#666666" stroke="#666666" points="201,-332 201,-332 434,-332 434,-332 201,-332"/>
<polygon fill="#666666" stroke="#666666" points="201,-272 201,-272 258,-272 258,-272 201,-272"/>
<polygon fill="#666666" stroke="#666666" points="258,-272 258,-272 434,-272 434,-272 258,-272"/>
<polygon fill="none" stroke="#666666" points="200.5,0 200.5,-360 433.5,-360 433.5,0 200.5,0"/>
</a>
</g>
</g>
<!-- Node1&#45;&gt;Node3 -->
<g id="edge2_Node000001_Node000003" class="edge">
<title>Node1&#45;&gt;Node3</title>
<g id="a_edge2_Node000001_Node000003"><a xlink:title=" ">
<path fill="none" stroke="#63b8ff" d="M219.55,-386.68C223.29,-378.78 227.56,-369.78 232.16,-360.06"/>
<polygon fill="none" stroke="#63b8ff" points="216.37,-385.22 215.25,-395.76 222.69,-388.22 216.37,-385.22"/>
</a>
</g>
</g>
</g>
</svg>
