<?xml version="1.0" encoding="UTF-8" standalone="no"?>
<!DOCTYPE svg PUBLIC "-//W3C//DTD SVG 1.1//EN"
 "http://www.w3.org/Graphics/SVG/1.1/DTD/svg11.dtd">
<!-- Generated by graphviz version 2.43.0 (0)
 -->
<!-- Title: fspm.config.params.ParamCategory.isNull Pages: 1 -->
<svg width="948pt" height="537pt"
 viewBox="0.00 0.00 948.00 536.50" xmlns="http://www.w3.org/2000/svg" xmlns:xlink="http://www.w3.org/1999/xlink">
<g id="graph0" class="graph" transform="scale(1 1) rotate(0) translate(4 532.5)">
<title>fspm.config.params.ParamCategory.isNull</title>
<!-- Node1 -->
<g id="node1" class="node">
<title>Node1</title>
<g id="a_node1"><a xlink:title="Check and return if is NullParam.">
<polygon fill="#bfbfbf" stroke="black" points="793,-214.5 793,-244.5 940,-244.5 940,-214.5 793,-214.5"/>
<text text-anchor="start" x="801" y="-232.5" font-family="Helvetica,sans-Serif" font-size="10.00">fspm.config.params.Param</text>
<text text-anchor="middle" x="866.5" y="-221.5" font-family="Helvetica,sans-Serif" font-size="10.00">Category.isNull</text>
</a>
</g>
</g>
<!-- Node2 -->
<g id="node2" class="node">
<title>Node2</title>
<g id="a_node2"><a xlink:href="classfspm_1_1config_1_1params_1_1ParamCategory_afa61ab695415b052569467d379bf4a07.html#afa61ab695415b052569467d379bf4a07" target="_top" xlink:title=" ">
<polygon fill="none" stroke="black" points="610,-414.5 610,-444.5 757,-444.5 757,-414.5 610,-414.5"/>
<text text-anchor="start" x="618" y="-432.5" font-family="Helvetica,sans-Serif" font-size="10.00">fspm.config.params.Param</text>
<text text-anchor="middle" x="683.5" y="-421.5" font-family="Helvetica,sans-Serif" font-size="10.00">Category.getBoolean</text>
</a>
</g>
</g>
<!-- Node1&#45;&gt;Node2 -->
<g id="edge1" class="edge">
<title>Node1&#45;&gt;Node2</title>
<path fill="none" stroke="midnightblue" d="M848.93,-253.05C828.63,-281.23 792.56,-329.29 757,-366.5 740.18,-384.1 718.97,-402.12 703.84,-414.35"/>
<polygon fill="midnightblue" stroke="midnightblue" points="851.97,-254.8 854.94,-244.63 846.28,-250.73 851.97,-254.8"/>
</g>
<!-- Node8 -->
<g id="node8" class="node">
<title>Node8</title>
<g id="a_node8"><a xlink:href="classfspm_1_1config_1_1params_1_1ParamCategory_ad9163381c1dfed699d3d74b2d36c1893.html#ad9163381c1dfed699d3d74b2d36c1893" target="_top" xlink:title=" ">
<polygon fill="none" stroke="black" points="610,-233.5 610,-263.5 757,-263.5 757,-233.5 610,-233.5"/>
<text text-anchor="start" x="618" y="-251.5" font-family="Helvetica,sans-Serif" font-size="10.00">fspm.config.params.Param</text>
<text text-anchor="middle" x="683.5" y="-240.5" font-family="Helvetica,sans-Serif" font-size="10.00">Category.getDouble</text>
</a>
</g>
</g>
<!-- Node1&#45;&gt;Node8 -->
<g id="edge7" class="edge">
<title>Node1&#45;&gt;Node8</title>
<path fill="none" stroke="midnightblue" d="M782.88,-238.17C774.28,-239.08 765.58,-239.99 757.09,-240.88"/>
<polygon fill="midnightblue" stroke="midnightblue" points="783.34,-241.64 792.92,-237.12 782.61,-234.68 783.34,-241.64"/>
</g>
<!-- Node16 -->
<g id="node16" class="node">
<title>Node16</title>
<g id="a_node16"><a xlink:href="classfspm_1_1config_1_1params_1_1ParamCategory_a480fdf398400180423780ae25a3c4656.html#a480fdf398400180423780ae25a3c4656" target="_top" xlink:title=" ">
<polygon fill="none" stroke="black" points="610,-70.5 610,-100.5 757,-100.5 757,-70.5 610,-70.5"/>
<text text-anchor="start" x="618" y="-88.5" font-family="Helvetica,sans-Serif" font-size="10.00">fspm.config.params.Param</text>
<text text-anchor="middle" x="683.5" y="-77.5" font-family="Helvetica,sans-Serif" font-size="10.00">Category.getDoubleArray</text>
</a>
</g>
</g>
<!-- Node1&#45;&gt;Node16 -->
<g id="edge16" class="edge">
<title>Node1&#45;&gt;Node16</title>
<path fill="none" stroke="midnightblue" d="M844.14,-206.99C823.1,-185.48 789.48,-152.81 757,-128.5 743.29,-118.24 726.97,-108.38 713.29,-100.69"/>
<polygon fill="midnightblue" stroke="midnightblue" points="841.83,-209.63 851.3,-214.38 846.85,-204.76 841.83,-209.63"/>
</g>
<!-- Node20 -->
<g id="node20" class="node">
<title>Node20</title>
<g id="a_node20"><a xlink:href="classfspm_1_1config_1_1params_1_1ParamCategory_a176eab656e051784323f2132a4994fc6.html#a176eab656e051784323f2132a4994fc6" target="_top" xlink:title=" ">
<polygon fill="none" stroke="black" points="610,-138.5 610,-168.5 757,-168.5 757,-138.5 610,-138.5"/>
<text text-anchor="start" x="618" y="-156.5" font-family="Helvetica,sans-Serif" font-size="10.00">fspm.config.params.Param</text>
<text text-anchor="middle" x="683.5" y="-145.5" font-family="Helvetica,sans-Serif" font-size="10.00">Category.getInteger</text>
</a>
</g>
</g>
<!-- Node1&#45;&gt;Node20 -->
<g id="edge20" class="edge">
<title>Node1&#45;&gt;Node20</title>
<path fill="none" stroke="midnightblue" d="M820.49,-210.6C789.63,-197.64 749.22,-180.68 720.49,-168.61"/>
<polygon fill="midnightblue" stroke="midnightblue" points="819.16,-213.84 829.74,-214.48 821.88,-207.39 819.16,-213.84"/>
</g>
<!-- Node23 -->
<g id="node23" class="node">
<title>Node23</title>
<g id="a_node23"><a xlink:href="classfspm_1_1config_1_1params_1_1ParamCategory_a18b0a3b2a74f69aa936eaecf40927c5a.html#a18b0a3b2a74f69aa936eaecf40927c5a" target="_top" xlink:title=" ">
<polygon fill="none" stroke="black" points="610,-326.5 610,-356.5 757,-356.5 757,-326.5 610,-326.5"/>
<text text-anchor="start" x="618" y="-344.5" font-family="Helvetica,sans-Serif" font-size="10.00">fspm.config.params.Param</text>
<text text-anchor="middle" x="683.5" y="-333.5" font-family="Helvetica,sans-Serif" font-size="10.00">Category.getString</text>
</a>
</g>
</g>
<!-- Node1&#45;&gt;Node23 -->
<g id="edge24" class="edge">
<title>Node1&#45;&gt;Node23</title>
<path fill="none" stroke="midnightblue" d="M832.48,-249.93C796.77,-272.03 740.7,-306.73 708.81,-326.46"/>
<polygon fill="midnightblue" stroke="midnightblue" points="834.43,-252.84 841.09,-244.6 830.74,-246.89 834.43,-252.84"/>
</g>
<!-- Node26 -->
<g id="node26" class="node">
<title>Node26</title>
<g id="a_node26"><a xlink:href="classfspm_1_1config_1_1Config_a23eaad13093f0089ec76d726607956b5.html#a23eaad13093f0089ec76d726607956b5" target="_top" xlink:title=" ">
<polygon fill="none" stroke="black" points="422,-184 422,-203 560,-203 560,-184 422,-184"/>
<text text-anchor="middle" x="491" y="-191" font-family="Helvetica,sans-Serif" font-size="10.00">fspm.config.Config.isNull</text>
</a>
</g>
</g>
<!-- Node1&#45;&gt;Node26 -->
<g id="edge30" class="edge">
<title>Node1&#45;&gt;Node26</title>
<path fill="none" stroke="midnightblue" d="M782.52,-221.5C715.69,-215.06 622.89,-206.12 560.31,-200.08"/>
<polygon fill="midnightblue" stroke="midnightblue" points="782.31,-225 792.6,-222.47 782.98,-218.03 782.31,-225"/>
</g>
<!-- Node3 -->
<g id="node3" class="node">
<title>Node3</title>
<g id="a_node3"><a xlink:href="classfspm_1_1config_1_1Config_ae827f35da2e09b1d18f5a82538db57bc.html#ae827f35da2e09b1d18f5a82538db57bc" target="_top" xlink:title=" ">
<polygon fill="none" stroke="black" points="408,-440 408,-459 574,-459 574,-440 408,-440"/>
<text text-anchor="middle" x="491" y="-447" font-family="Helvetica,sans-Serif" font-size="10.00">fspm.config.Config.getBoolean</text>
</a>
</g>
</g>
<!-- Node2&#45;&gt;Node3 -->
<g id="edge2" class="edge">
<title>Node2&#45;&gt;Node3</title>
<path fill="none" stroke="midnightblue" d="M599.71,-438.19C591.26,-439.08 582.68,-439.98 574.23,-440.87"/>
<polygon fill="midnightblue" stroke="midnightblue" points="600.36,-441.64 609.94,-437.12 599.63,-434.68 600.36,-441.64"/>
</g>
<!-- Node4 -->
<g id="node4" class="node">
<title>Node4</title>
<g id="a_node4"><a xlink:href="classfspm_1_1config_1_1ConfigTest_a586a428c43c00668f273133c28ddd635.html#a586a428c43c00668f273133c28ddd635" target="_top" xlink:title=" ">
<polygon fill="none" stroke="black" points="207.5,-459.5 207.5,-489.5 370.5,-489.5 370.5,-459.5 207.5,-459.5"/>
<text text-anchor="start" x="215.5" y="-477.5" font-family="Helvetica,sans-Serif" font-size="10.00">fspm.config.ConfigTest.access</text>
<text text-anchor="middle" x="289" y="-466.5" font-family="Helvetica,sans-Serif" font-size="10.00">Examples</text>
</a>
</g>
</g>
<!-- Node3&#45;&gt;Node4 -->
<g id="edge3" class="edge">
<title>Node3&#45;&gt;Node4</title>
<path fill="none" stroke="midnightblue" d="M403.79,-460.28C392.78,-461.65 381.54,-463.06 370.63,-464.42"/>
<polygon fill="midnightblue" stroke="midnightblue" points="404.33,-463.74 413.82,-459.02 403.46,-456.79 404.33,-463.74"/>
</g>
<!-- Node5 -->
<g id="node5" class="node">
<title>Node5</title>
<g id="a_node5"><a xlink:href="classfspm_1_1config_1_1Config_a7ea65e4b8e2ba486cc4dca0c4e1eb234.html#a7ea65e4b8e2ba486cc4dca0c4e1eb234" target="_top" xlink:title=" ">
<polygon fill="none" stroke="black" points="206,-509 206,-528 372,-528 372,-509 206,-509"/>
<text text-anchor="middle" x="289" y="-516" font-family="Helvetica,sans-Serif" font-size="10.00">fspm.config.Config.getBoolean</text>
</a>
</g>
</g>
<!-- Node3&#45;&gt;Node5 -->
<g id="edge4" class="edge">
<title>Node3&#45;&gt;Node5</title>
<path fill="none" stroke="midnightblue" d="M461.27,-463.33C437.7,-474.27 403.24,-489.35 372,-499.5 361.02,-503.07 349.01,-506.24 337.65,-508.93"/>
<polygon fill="midnightblue" stroke="midnightblue" points="462.79,-466.48 470.36,-459.07 459.82,-460.15 462.79,-466.48"/>
</g>
<!-- Node6 -->
<g id="node6" class="node">
<title>Node6</title>
<g id="a_node6"><a xlink:href="classfspm_1_1config_1_1ConfigTest_a09a38b5eee655b088e4e144df5ad5a85.html#a09a38b5eee655b088e4e144df5ad5a85" target="_top" xlink:title=" ">
<polygon fill="none" stroke="black" points="214.5,-410.5 214.5,-440.5 363.5,-440.5 363.5,-410.5 214.5,-410.5"/>
<text text-anchor="start" x="222.5" y="-428.5" font-family="Helvetica,sans-Serif" font-size="10.00">fspm.config.ConfigTest.test</text>
<text text-anchor="middle" x="289" y="-417.5" font-family="Helvetica,sans-Serif" font-size="10.00">_flatCategories</text>
</a>
</g>
</g>
<!-- Node3&#45;&gt;Node6 -->
<g id="edge5" class="edge">
<title>Node3&#45;&gt;Node6</title>
<path fill="none" stroke="midnightblue" d="M400.42,-438.75C388.15,-437.28 375.66,-435.78 363.71,-434.34"/>
<polygon fill="midnightblue" stroke="midnightblue" points="400.32,-442.26 410.67,-439.98 401.16,-435.31 400.32,-442.26"/>
</g>
<!-- Node7 -->
<g id="node7" class="node">
<title>Node7</title>
<g id="a_node7"><a xlink:href="classfspm_1_1config_1_1ConfigTest_aacca92fc43946c5a3d4613a1085d59f9.html#aacca92fc43946c5a3d4613a1085d59f9" target="_top" xlink:title=" ">
<polygon fill="none" stroke="black" points="0,-416 0,-435 170,-435 170,-416 0,-416"/>
<text text-anchor="middle" x="85" y="-423" font-family="Helvetica,sans-Serif" font-size="10.00">fspm.config.ConfigTest.runMain</text>
</a>
</g>
</g>
<!-- Node6&#45;&gt;Node7 -->
<g id="edge6" class="edge">
<title>Node6&#45;&gt;Node7</title>
<path fill="none" stroke="midnightblue" d="M204.04,-425.5C192.85,-425.5 181.38,-425.5 170.18,-425.5"/>
<polygon fill="midnightblue" stroke="midnightblue" points="204.22,-429 214.22,-425.5 204.22,-422 204.22,-429"/>
</g>
<!-- Node9 -->
<g id="node9" class="node">
<title>Node9</title>
<g id="a_node9"><a xlink:href="classfspm_1_1config_1_1Config_ae462a8b94814530c25f796f0b4f48115.html#ae462a8b94814530c25f796f0b4f48115" target="_top" xlink:title=" ">
<polygon fill="none" stroke="black" points="410.5,-241 410.5,-260 571.5,-260 571.5,-241 410.5,-241"/>
<text text-anchor="middle" x="491" y="-248" font-family="Helvetica,sans-Serif" font-size="10.00">fspm.config.Config.getDouble</text>
</a>
</g>
</g>
<!-- Node8&#45;&gt;Node9 -->
<g id="edge8" class="edge">
<title>Node8&#45;&gt;Node9</title>
<path fill="none" stroke="midnightblue" d="M599.87,-249.37C590.51,-249.47 580.99,-249.57 571.67,-249.66"/>
<polygon fill="midnightblue" stroke="midnightblue" points="599.97,-252.87 609.94,-249.26 599.9,-245.87 599.97,-252.87"/>
</g>
<!-- Node9&#45;&gt;Node6 -->
<g id="edge11" class="edge">
<title>Node9&#45;&gt;Node6</title>
<path fill="none" stroke="midnightblue" d="M476.74,-268.57C448.85,-306.4 385.55,-391.23 372,-400.5 366.35,-404.37 360.08,-407.65 353.6,-410.44"/>
<polygon fill="midnightblue" stroke="midnightblue" points="479.91,-270.17 483.02,-260.04 474.27,-266.02 479.91,-270.17"/>
</g>
<!-- Node10 -->
<g id="node10" class="node">
<title>Node10</title>
<g id="a_node10"><a xlink:href="classfspm_1_1config_1_1Config_a75f0ff59af54ebe3b864a01dc59b1663.html#a75f0ff59af54ebe3b864a01dc59b1663" target="_top" xlink:title=" ">
<polygon fill="none" stroke="black" points="208.5,-334 208.5,-353 369.5,-353 369.5,-334 208.5,-334"/>
<text text-anchor="middle" x="289" y="-341" font-family="Helvetica,sans-Serif" font-size="10.00">fspm.config.Config.getDouble</text>
</a>
</g>
</g>
<!-- Node9&#45;&gt;Node10 -->
<g id="edge9" class="edge">
<title>Node9&#45;&gt;Node10</title>
<path fill="none" stroke="midnightblue" d="M469.51,-266.34C446.84,-283.13 408.67,-309.26 372,-324.5 362.82,-328.31 352.74,-331.44 342.87,-333.98"/>
<polygon fill="midnightblue" stroke="midnightblue" points="471.79,-269.01 477.67,-260.2 467.58,-263.41 471.79,-269.01"/>
</g>
<!-- Node11 -->
<g id="node11" class="node">
<title>Node11</title>
<g id="a_node11"><a xlink:href="classfspm_1_1config_1_1ConfigTest_ab639b7af67e947577db2ab2c9bc95a87.html#ab639b7af67e947577db2ab2c9bc95a87" target="_top" xlink:title=" ">
<polygon fill="none" stroke="black" points="214.5,-284.5 214.5,-314.5 363.5,-314.5 363.5,-284.5 214.5,-284.5"/>
<text text-anchor="start" x="222.5" y="-302.5" font-family="Helvetica,sans-Serif" font-size="10.00">fspm.config.ConfigTest.test</text>
<text text-anchor="middle" x="289" y="-291.5" font-family="Helvetica,sans-Serif" font-size="10.00">_default</text>
</a>
</g>
</g>
<!-- Node9&#45;&gt;Node11 -->
<g id="edge10" class="edge">
<title>Node9&#45;&gt;Node11</title>
<path fill="none" stroke="midnightblue" d="M440.96,-262.51C413.94,-269.14 380.14,-277.42 351.38,-284.46"/>
<polygon fill="midnightblue" stroke="midnightblue" points="442.08,-265.84 450.96,-260.06 440.42,-259.04 442.08,-265.84"/>
</g>
<!-- Node12 -->
<g id="node12" class="node">
<title>Node12</title>
<g id="a_node12"><a xlink:href="classfspm_1_1config_1_1ConfigTest_a0ff566e57202c3f9bf2125d70d9c6b41.html#a0ff566e57202c3f9bf2125d70d9c6b41" target="_top" xlink:title=" ">
<polygon fill="none" stroke="black" points="214.5,-235.5 214.5,-265.5 363.5,-265.5 363.5,-235.5 214.5,-235.5"/>
<text text-anchor="start" x="222.5" y="-253.5" font-family="Helvetica,sans-Serif" font-size="10.00">fspm.config.ConfigTest.test</text>
<text text-anchor="middle" x="289" y="-242.5" font-family="Helvetica,sans-Serif" font-size="10.00">_getFloatAsDouble</text>
</a>
</g>
</g>
<!-- Node9&#45;&gt;Node12 -->
<g id="edge12" class="edge">
<title>Node9&#45;&gt;Node12</title>
<path fill="none" stroke="midnightblue" d="M400.15,-250.5C387.89,-250.5 375.43,-250.5 363.5,-250.5"/>
<polygon fill="midnightblue" stroke="midnightblue" points="400.38,-254 410.38,-250.5 400.38,-247 400.38,-254"/>
</g>
<!-- Node13 -->
<g id="node13" class="node">
<title>Node13</title>
<g id="a_node13"><a xlink:href="classfspm_1_1config_1_1ConfigTest_a08a6bb001d92ffa4a466c0b0b816a878.html#a08a6bb001d92ffa4a466c0b0b816a878" target="_top" xlink:title=" ">
<polygon fill="none" stroke="black" points="214.5,-186.5 214.5,-216.5 363.5,-216.5 363.5,-186.5 214.5,-186.5"/>
<text text-anchor="start" x="222.5" y="-204.5" font-family="Helvetica,sans-Serif" font-size="10.00">fspm.config.ConfigTest.test</text>
<text text-anchor="middle" x="289" y="-193.5" font-family="Helvetica,sans-Serif" font-size="10.00">_getIntAsDouble</text>
</a>
</g>
</g>
<!-- Node9&#45;&gt;Node13 -->
<g id="edge13" class="edge">
<title>Node9&#45;&gt;Node13</title>
<path fill="none" stroke="midnightblue" d="M440.96,-238.49C413.94,-231.86 380.14,-223.58 351.38,-216.54"/>
<polygon fill="midnightblue" stroke="midnightblue" points="440.42,-241.96 450.96,-240.94 442.08,-235.16 440.42,-241.96"/>
</g>
<!-- Node14 -->
<g id="node14" class="node">
<title>Node14</title>
<g id="a_node14"><a xlink:href="classfspm_1_1config_1_1ConfigTest_aa9e41d045f61b82c742edbd88424aff3.html#aa9e41d045f61b82c742edbd88424aff3" target="_top" xlink:title=" ">
<polygon fill="none" stroke="black" points="214.5,-137.5 214.5,-167.5 363.5,-167.5 363.5,-137.5 214.5,-137.5"/>
<text text-anchor="start" x="222.5" y="-155.5" font-family="Helvetica,sans-Serif" font-size="10.00">fspm.config.ConfigTest.test</text>
<text text-anchor="middle" x="289" y="-144.5" font-family="Helvetica,sans-Serif" font-size="10.00">_getNullAsTypes</text>
</a>
</g>
</g>
<!-- Node9&#45;&gt;Node14 -->
<g id="edge14" class="edge">
<title>Node9&#45;&gt;Node14</title>
<path fill="none" stroke="midnightblue" d="M454.25,-237.05C439.33,-230.66 422.21,-222.28 408,-212.5 389.62,-199.85 391.21,-188.85 372,-177.5 365.59,-173.71 358.56,-170.45 351.39,-167.66"/>
<polygon fill="midnightblue" stroke="midnightblue" points="453.1,-240.36 463.68,-240.95 455.78,-233.9 453.1,-240.36"/>
</g>
<!-- Node15 -->
<g id="node15" class="node">
<title>Node15</title>
<g id="a_node15"><a xlink:href="classfspm_1_1config_1_1ConfigTest_a0ace3587e0462f748617e279d4d0c659.html#a0ace3587e0462f748617e279d4d0c659" target="_top" xlink:title=" ">
<polygon fill="none" stroke="black" points="10.5,-137.5 10.5,-167.5 159.5,-167.5 159.5,-137.5 10.5,-137.5"/>
<text text-anchor="start" x="18.5" y="-155.5" font-family="Helvetica,sans-Serif" font-size="10.00">fspm.config.ConfigTest.test</text>
<text text-anchor="middle" x="85" y="-144.5" font-family="Helvetica,sans-Serif" font-size="10.00">_types</text>
</a>
</g>
</g>
<!-- Node14&#45;&gt;Node15 -->
<g id="edge15" class="edge">
<title>Node14&#45;&gt;Node15</title>
<path fill="none" stroke="midnightblue" d="M204.09,-152.5C189.32,-152.5 174.04,-152.5 159.58,-152.5"/>
<polygon fill="midnightblue" stroke="midnightblue" points="204.22,-156 214.22,-152.5 204.22,-149 204.22,-156"/>
</g>
<!-- Node17 -->
<g id="node17" class="node">
<title>Node17</title>
<g id="a_node17"><a xlink:href="classfspm_1_1config_1_1Config_afa630b4bdff20121abd94ef706423f27.html#afa630b4bdff20121abd94ef706423f27" target="_top" xlink:title=" ">
<polygon fill="none" stroke="black" points="410.5,-49.5 410.5,-79.5 571.5,-79.5 571.5,-49.5 410.5,-49.5"/>
<text text-anchor="start" x="418.5" y="-67.5" font-family="Helvetica,sans-Serif" font-size="10.00">fspm.config.Config.getDouble</text>
<text text-anchor="middle" x="491" y="-56.5" font-family="Helvetica,sans-Serif" font-size="10.00">Array</text>
</a>
</g>
</g>
<!-- Node16&#45;&gt;Node17 -->
<g id="edge17" class="edge">
<title>Node16&#45;&gt;Node17</title>
<path fill="none" stroke="midnightblue" d="M599.87,-76.39C590.51,-75.36 580.99,-74.31 571.67,-73.28"/>
<polygon fill="midnightblue" stroke="midnightblue" points="599.61,-79.88 609.94,-77.5 600.38,-72.93 599.61,-79.88"/>
</g>
<!-- Node18 -->
<g id="node18" class="node">
<title>Node18</title>
<g id="a_node18"><a xlink:href="classfspm_1_1config_1_1Config_ab63abbac8c043b0cd64927d084bd4c49.html#ab63abbac8c043b0cd64927d084bd4c49" target="_top" xlink:title=" ">
<polygon fill="none" stroke="black" points="208.5,-49.5 208.5,-79.5 369.5,-79.5 369.5,-49.5 208.5,-49.5"/>
<text text-anchor="start" x="216.5" y="-67.5" font-family="Helvetica,sans-Serif" font-size="10.00">fspm.config.Config.getDouble</text>
<text text-anchor="middle" x="289" y="-56.5" font-family="Helvetica,sans-Serif" font-size="10.00">Array</text>
</a>
</g>
</g>
<!-- Node17&#45;&gt;Node18 -->
<g id="edge18" class="edge">
<title>Node17&#45;&gt;Node18</title>
<path fill="none" stroke="midnightblue" d="M400.25,-64.5C390.06,-64.5 379.72,-64.5 369.67,-64.5"/>
<polygon fill="midnightblue" stroke="midnightblue" points="400.38,-68 410.38,-64.5 400.38,-61 400.38,-68"/>
</g>
<!-- Node19 -->
<g id="node19" class="node">
<title>Node19</title>
<g id="a_node19"><a xlink:href="classfspm_1_1config_1_1ConfigTest_a06c9116c21e1df253ca6b4056a187bad.html#a06c9116c21e1df253ca6b4056a187bad" target="_top" xlink:title=" ">
<polygon fill="none" stroke="black" points="214.5,-0.5 214.5,-30.5 363.5,-30.5 363.5,-0.5 214.5,-0.5"/>
<text text-anchor="start" x="222.5" y="-18.5" font-family="Helvetica,sans-Serif" font-size="10.00">fspm.config.ConfigTest.test</text>
<text text-anchor="middle" x="289" y="-7.5" font-family="Helvetica,sans-Serif" font-size="10.00">_phenology</text>
</a>
</g>
</g>
<!-- Node17&#45;&gt;Node19 -->
<g id="edge19" class="edge">
<title>Node17&#45;&gt;Node19</title>
<path fill="none" stroke="midnightblue" d="M418.67,-47.02C396.62,-41.62 372.55,-35.72 351.25,-30.51"/>
<polygon fill="midnightblue" stroke="midnightblue" points="418.09,-50.49 428.63,-49.47 419.75,-43.69 418.09,-50.49"/>
</g>
<!-- Node21 -->
<g id="node21" class="node">
<title>Node21</title>
<g id="a_node21"><a xlink:href="classfspm_1_1config_1_1Config_a5e0b8f5ad9a3ead9ec4c4ab031918b94.html#a5e0b8f5ad9a3ead9ec4c4ab031918b94" target="_top" xlink:title=" ">
<polygon fill="none" stroke="black" points="410.5,-143 410.5,-162 571.5,-162 571.5,-143 410.5,-143"/>
<text text-anchor="middle" x="491" y="-150" font-family="Helvetica,sans-Serif" font-size="10.00">fspm.config.Config.getInteger</text>
</a>
</g>
</g>
<!-- Node20&#45;&gt;Node21 -->
<g id="edge21" class="edge">
<title>Node20&#45;&gt;Node21</title>
<path fill="none" stroke="midnightblue" d="M599.87,-153.07C590.51,-153.02 580.99,-152.97 571.67,-152.92"/>
<polygon fill="midnightblue" stroke="midnightblue" points="599.92,-156.57 609.94,-153.12 599.96,-149.57 599.92,-156.57"/>
</g>
<!-- Node21&#45;&gt;Node14 -->
<g id="edge23" class="edge">
<title>Node21&#45;&gt;Node14</title>
<path fill="none" stroke="midnightblue" d="M400.15,-152.5C387.89,-152.5 375.43,-152.5 363.5,-152.5"/>
<polygon fill="midnightblue" stroke="midnightblue" points="400.38,-156 410.38,-152.5 400.38,-149 400.38,-156"/>
</g>
<!-- Node22 -->
<g id="node22" class="node">
<title>Node22</title>
<g id="a_node22"><a xlink:href="classfspm_1_1config_1_1Config_ab43ca088e354eed9af2d74c813e08ff8.html#ab43ca088e354eed9af2d74c813e08ff8" target="_top" xlink:title=" ">
<polygon fill="none" stroke="black" points="208.5,-99 208.5,-118 369.5,-118 369.5,-99 208.5,-99"/>
<text text-anchor="middle" x="289" y="-106" font-family="Helvetica,sans-Serif" font-size="10.00">fspm.config.Config.getInteger</text>
</a>
</g>
</g>
<!-- Node21&#45;&gt;Node22 -->
<g id="edge22" class="edge">
<title>Node21&#45;&gt;Node22</title>
<path fill="none" stroke="midnightblue" d="M436.44,-140.72C404.15,-133.61 363.56,-124.68 333.31,-118.03"/>
<polygon fill="midnightblue" stroke="midnightblue" points="436.08,-144.22 446.6,-142.95 437.59,-137.39 436.08,-144.22"/>
</g>
<!-- Node24 -->
<g id="node24" class="node">
<title>Node24</title>
<g id="a_node24"><a xlink:href="classfspm_1_1config_1_1Config_a3be13c8aecc91ab1cd95692ec65df305.html#a3be13c8aecc91ab1cd95692ec65df305" target="_top" xlink:title=" ">
<polygon fill="none" stroke="black" points="413.5,-372 413.5,-391 568.5,-391 568.5,-372 413.5,-372"/>
<text text-anchor="middle" x="491" y="-379" font-family="Helvetica,sans-Serif" font-size="10.00">fspm.config.Config.getString</text>
</a>
</g>
</g>
<!-- Node23&#45;&gt;Node24 -->
<g id="edge25" class="edge">
<title>Node23&#45;&gt;Node24</title>
<path fill="none" stroke="midnightblue" d="M601.08,-358.6C579.24,-363.18 556.41,-367.98 537.31,-371.99"/>
<polygon fill="midnightblue" stroke="midnightblue" points="601.96,-361.99 611.02,-356.51 600.52,-355.14 601.96,-361.99"/>
</g>
<!-- Node24&#45;&gt;Node4 -->
<g id="edge26" class="edge">
<title>Node24&#45;&gt;Node4</title>
<path fill="none" stroke="midnightblue" d="M465.26,-396.4C433.57,-415.42 381.57,-446.38 372,-450.5 364.37,-453.79 356.16,-456.79 347.98,-459.46"/>
<polygon fill="midnightblue" stroke="midnightblue" points="467.22,-399.31 473.99,-391.16 463.61,-393.31 467.22,-399.31"/>
</g>
<!-- Node24&#45;&gt;Node6 -->
<g id="edge28" class="edge">
<title>Node24&#45;&gt;Node6</title>
<path fill="none" stroke="midnightblue" d="M436.63,-393.24C412.63,-398.52 384.03,-404.81 358.48,-410.43"/>
<polygon fill="midnightblue" stroke="midnightblue" points="437.59,-396.61 446.6,-391.05 436.08,-389.78 437.59,-396.61"/>
</g>
<!-- Node24&#45;&gt;Node14 -->
<g id="edge29" class="edge">
<title>Node24&#45;&gt;Node14</title>
<path fill="none" stroke="midnightblue" d="M475.02,-364.09C457.29,-342.85 427.69,-305.33 408,-269.5 386.85,-231.02 404.22,-207.33 372,-177.5 367.85,-173.66 363.12,-170.41 358.09,-167.65"/>
<polygon fill="midnightblue" stroke="midnightblue" points="472.49,-366.52 481.62,-371.9 477.83,-362 472.49,-366.52"/>
</g>
<!-- Node25 -->
<g id="node25" class="node">
<title>Node25</title>
<g id="a_node25"><a xlink:href="classfspm_1_1config_1_1Config_af23cb05ac69ea93fa48ed533f677ff1d.html#af23cb05ac69ea93fa48ed533f677ff1d" target="_top" xlink:title=" ">
<polygon fill="none" stroke="black" points="211.5,-372 211.5,-391 366.5,-391 366.5,-372 211.5,-372"/>
<text text-anchor="middle" x="289" y="-379" font-family="Helvetica,sans-Serif" font-size="10.00">fspm.config.Config.getString</text>
</a>
</g>
</g>
<!-- Node24&#45;&gt;Node25 -->
<g id="edge27" class="edge">
<title>Node24&#45;&gt;Node25</title>
<path fill="none" stroke="midnightblue" d="M403.1,-381.5C390.94,-381.5 378.5,-381.5 366.55,-381.5"/>
<polygon fill="midnightblue" stroke="midnightblue" points="403.25,-385 413.25,-381.5 403.25,-378 403.25,-385"/>
</g>
<!-- Node26&#45;&gt;Node14 -->
<g id="edge31" class="edge">
<title>Node26&#45;&gt;Node14</title>
<path fill="none" stroke="midnightblue" d="M433.56,-181.93C411.82,-177.47 386.67,-172.32 363.55,-167.58"/>
<polygon fill="midnightblue" stroke="midnightblue" points="433.11,-185.41 443.61,-183.99 434.52,-178.55 433.11,-185.41"/>
</g>
</g>
</svg>
