<?xml version="1.0" encoding="UTF-8" standalone="no"?>
<!DOCTYPE svg PUBLIC "-//W3C//DTD SVG 1.1//EN"
 "http://www.w3.org/Graphics/SVG/1.1/DTD/svg11.dtd">
<!-- Generated by graphviz version 2.43.0 (0)
 -->
<!-- Title: fspm.config.params.type.BooleanParam Pages: 1 -->
<svg width="258pt" height="353pt"
 viewBox="0.00 0.00 258.00 353.00" xmlns="http://www.w3.org/2000/svg" xmlns:xlink="http://www.w3.org/1999/xlink">
<g id="graph0" class="graph" transform="scale(1 1) rotate(0) translate(4 349)">
<title>fspm.config.params.type.BooleanParam</title>
<!-- Node1 -->
<g id="node1" class="node">
<title>Node1</title>
<g id="a_node1"><a xlink:title="Concrete Parameter implementation for booleans.">
<polygon fill="#bfbfbf" stroke="black" points="109,-0.5 109,-123.5 250,-123.5 250,-0.5 109,-0.5"/>
<text text-anchor="start" x="117" y="-111.5" font-family="Helvetica,sans-Serif" font-size="10.00">fspm.config.params.type.</text>
<text text-anchor="middle" x="179.5" y="-100.5" font-family="Helvetica,sans-Serif" font-size="10.00">BooleanParam</text>
<polyline fill="none" stroke="black" points="109,-93.5 250,-93.5 "/>
<text text-anchor="middle" x="179.5" y="-81.5" font-family="Helvetica,sans-Serif" font-size="10.00"> </text>
<polyline fill="none" stroke="black" points="109,-74.5 250,-74.5 "/>
<text text-anchor="start" x="117" y="-62.5" font-family="Helvetica,sans-Serif" font-size="10.00">+ BooleanParam(String</text>
<text text-anchor="start" x="117" y="-51.5" font-family="Helvetica,sans-Serif" font-size="10.00"> key, boolean value)</text>
<text text-anchor="start" x="117" y="-40.5" font-family="Helvetica,sans-Serif" font-size="10.00">+ boolean getValue()</text>
<text text-anchor="start" x="117" y="-29.5" font-family="Helvetica,sans-Serif" font-size="10.00">+ void setValue(boolean</text>
<text text-anchor="start" x="117" y="-18.5" font-family="Helvetica,sans-Serif" font-size="10.00"> value)</text>
<text text-anchor="start" x="117" y="-7.5" font-family="Helvetica,sans-Serif" font-size="10.00">+ String toString()</text>
</a>
</g>
</g>
<!-- Node2 -->
<g id="node2" class="node">
<title>Node2</title>
<g id="a_node2"><a xlink:href="classfspm_1_1config_1_1params_1_1Parameter.html" target="_top" xlink:title="Parameter represents variables that can be stored using Java data types or other user&#45;defined types.">
<polygon fill="none" stroke="black" points="0,-171.5 0,-239.5 167,-239.5 167,-171.5 0,-171.5"/>
<text text-anchor="middle" x="83.5" y="-227.5" font-family="Helvetica,sans-Serif" font-size="10.00">fspm.config.params.Parameter</text>
<polyline fill="none" stroke="black" points="0,-220.5 167,-220.5 "/>
<text text-anchor="middle" x="83.5" y="-208.5" font-family="Helvetica,sans-Serif" font-size="10.00"> </text>
<polyline fill="none" stroke="black" points="0,-201.5 167,-201.5 "/>
<text text-anchor="start" x="8" y="-189.5" font-family="Helvetica,sans-Serif" font-size="10.00">+ String getKey()</text>
<text text-anchor="start" x="8" y="-178.5" font-family="Helvetica,sans-Serif" font-size="10.00"># Parameter(String key)</text>
</a>
</g>
</g>
<!-- Node2&#45;&gt;Node1 -->
<g id="edge1" class="edge">
<title>Node2&#45;&gt;Node1</title>
<path fill="none" stroke="midnightblue" d="M111.86,-162.7C120.15,-150.47 129.39,-136.86 138.31,-123.71"/>
<polygon fill="none" stroke="midnightblue" points="108.73,-161.08 106.01,-171.32 114.52,-165.01 108.73,-161.08"/>
</g>
<!-- Node3 -->
<g id="node3" class="node">
<title>Node3</title>
<g id="a_node3"><a xlink:title=" ">
<polygon fill="none" stroke="#bfbfbf" points="61,-287.5 61,-344.5 106,-344.5 106,-287.5 61,-287.5"/>
<text text-anchor="middle" x="83.5" y="-332.5" font-family="Helvetica,sans-Serif" font-size="10.00">String</text>
<polyline fill="none" stroke="#bfbfbf" points="61,-325.5 106,-325.5 "/>
<text text-anchor="middle" x="83.5" y="-313.5" font-family="Helvetica,sans-Serif" font-size="10.00"> </text>
<polyline fill="none" stroke="#bfbfbf" points="61,-306.5 106,-306.5 "/>
<text text-anchor="middle" x="83.5" y="-294.5" font-family="Helvetica,sans-Serif" font-size="10.00"> </text>
</a>
</g>
</g>
<!-- Node3&#45;&gt;Node2 -->
<g id="edge2" class="edge">
<title>Node3&#45;&gt;Node2</title>
<path fill="none" stroke="#404040" d="M83.5,-287.34C83.5,-276.53 83.5,-263.85 83.5,-251.77"/>
<polygon fill="none" stroke="#404040" points="83.5,-251.52 79.5,-245.52 83.5,-239.52 87.5,-245.52 83.5,-251.52"/>
<text text-anchor="middle" x="96" y="-261" font-family="Helvetica,sans-Serif" font-size="10.00"> &#45;key</text>
</g>
<!-- Node4 -->
<g id="node4" class="node">
<title>Node4</title>
<g id="a_node4"><a xlink:title=" ">
<polygon fill="none" stroke="#bfbfbf" points="184.5,-177 184.5,-234 240.5,-234 240.5,-177 184.5,-177"/>
<text text-anchor="middle" x="212.5" y="-222" font-family="Helvetica,sans-Serif" font-size="10.00">boolean</text>
<polyline fill="none" stroke="#bfbfbf" points="184.5,-215 240.5,-215 "/>
<text text-anchor="middle" x="212.5" y="-203" font-family="Helvetica,sans-Serif" font-size="10.00"> </text>
<polyline fill="none" stroke="#bfbfbf" points="184.5,-196 240.5,-196 "/>
<text text-anchor="middle" x="212.5" y="-184" font-family="Helvetica,sans-Serif" font-size="10.00"> </text>
</a>
</g>
</g>
<!-- Node4&#45;&gt;Node1 -->
<g id="edge3" class="edge">
<title>Node4&#45;&gt;Node1</title>
<path fill="none" stroke="#404040" d="M206.06,-176.88C203.26,-164.89 199.84,-150.22 196.4,-135.45"/>
<polygon fill="none" stroke="#404040" points="196.37,-135.32 191.11,-130.39 193.64,-123.63 198.9,-128.57 196.37,-135.32"/>
<text text-anchor="middle" x="216.5" y="-145" font-family="Helvetica,sans-Serif" font-size="10.00"> &#45;value</text>
</g>
</g>
</svg>
