<?xml version="1.0" encoding="UTF-8" standalone="no"?>
<!DOCTYPE svg PUBLIC "-//W3C//DTD SVG 1.1//EN"
 "http://www.w3.org/Graphics/SVG/1.1/DTD/svg11.dtd">
<!-- Generated by graphviz version 2.43.0 (0)
 -->
<!-- Title: fspm.config.adapters.handlers.DocumentHybridCategoryNameHandler Pages: 1 -->
<svg width="219pt" height="182pt"
 viewBox="0.00 0.00 219.00 182.00" xmlns="http://www.w3.org/2000/svg" xmlns:xlink="http://www.w3.org/1999/xlink">
<g id="graph0" class="graph" transform="scale(1 1) rotate(0) translate(4 178)">
<title>fspm.config.adapters.handlers.DocumentHybridCategoryNameHandler</title>
<!-- Node1 -->
<g id="node1" class="node">
<title>Node1</title>
<g id="a_node1"><a xlink:title=" ">
<polygon fill="#bfbfbf" stroke="black" points="0,-0.5 0,-68.5 211,-68.5 211,-0.5 0,-0.5"/>
<text text-anchor="start" x="8" y="-56.5" font-family="Helvetica,sans-Serif" font-size="10.00">fspm.config.adapters.handlers.</text>
<text text-anchor="middle" x="105.5" y="-45.5" font-family="Helvetica,sans-Serif" font-size="10.00">DocumentHybridCategoryNameHandler</text>
<polyline fill="none" stroke="black" points="0,-38.5 211,-38.5 "/>
<text text-anchor="middle" x="105.5" y="-26.5" font-family="Helvetica,sans-Serif" font-size="10.00"> </text>
<polyline fill="none" stroke="black" points="0,-19.5 211,-19.5 "/>
<text text-anchor="start" x="8" y="-7.5" font-family="Helvetica,sans-Serif" font-size="10.00">+ parse()</text>
</a>
</g>
</g>
<!-- Node2 -->
<g id="node2" class="node">
<title>Node2</title>
<g id="a_node2"><a xlink:href="classfspm_1_1config_1_1adapters_1_1handlers_1_1MetaclassHandler.html" target="_top" xlink:title=" ">
<polygon fill="none" stroke="black" points="22,-105.5 22,-173.5 189,-173.5 189,-105.5 22,-105.5"/>
<text text-anchor="start" x="30" y="-161.5" font-family="Helvetica,sans-Serif" font-size="10.00">fspm.config.adapters.handlers.</text>
<text text-anchor="middle" x="105.5" y="-150.5" font-family="Helvetica,sans-Serif" font-size="10.00">MetaclassHandler</text>
<polyline fill="none" stroke="black" points="22,-143.5 189,-143.5 "/>
<text text-anchor="middle" x="105.5" y="-131.5" font-family="Helvetica,sans-Serif" font-size="10.00"> </text>
<polyline fill="none" stroke="black" points="22,-124.5 189,-124.5 "/>
<text text-anchor="start" x="30" y="-112.5" font-family="Helvetica,sans-Serif" font-size="10.00">+ parse()</text>
</a>
</g>
</g>
<!-- Node2&#45;&gt;Node1 -->
<g id="edge1" class="edge">
<title>Node2&#45;&gt;Node1</title>
<path fill="none" stroke="midnightblue" d="M105.5,-95.14C105.5,-86.26 105.5,-77.04 105.5,-68.59"/>
<polygon fill="none" stroke="midnightblue" points="102,-95.34 105.5,-105.34 109,-95.34 102,-95.34"/>
</g>
</g>
</svg>
