<?xml version="1.0" encoding="UTF-8" standalone="no"?>
<!DOCTYPE svg PUBLIC "-//W3C//DTD SVG 1.1//EN"
 "http://www.w3.org/Graphics/SVG/1.1/DTD/svg11.dtd">
<!-- Generated by graphviz version 2.43.0 (0)
 -->
<!-- Title: CellParamAccessor Pages: 1 -->
<svg width="190pt" height="393pt"
 viewBox="0.00 0.00 190.00 393.00" xmlns="http://www.w3.org/2000/svg" xmlns:xlink="http://www.w3.org/1999/xlink">
<g id="graph0" class="graph" transform="scale(1 1) rotate(0) translate(4 389)">
<title>CellParamAccessor</title>
<!-- Node1 -->
<g id="Node000001" class="node">
<title>Node1</title>
<g id="a_Node000001"><a xlink:title=" ">
<polygon fill="#999999" stroke="transparent" points="143,-385 39,-385 39,-336 143,-336 143,-385"/>
<text text-anchor="start" x="44" y="-372.5" font-family="Helvetica,sans-Serif" font-size="10.00">CellParamAccessor</text>
<text text-anchor="start" x="89" y="-357.5" font-family="Helvetica,sans-Serif" font-size="10.00"> </text>
<text text-anchor="start" x="89" y="-342.5" font-family="Helvetica,sans-Serif" font-size="10.00"> </text>
<polygon fill="#666666" stroke="#666666" points="39,-367.5 39,-367.5 143,-367.5 143,-367.5 39,-367.5"/>
<polygon fill="#666666" stroke="#666666" points="39,-352.5 39,-352.5 143,-352.5 143,-352.5 39,-352.5"/>
<polygon fill="none" stroke="#666666" points="39,-336 39,-385 143,-385 143,-336 39,-336"/>
</a>
</g>
</g>
<!-- Node2 -->
<g id="Node000002" class="node">
<title>Node2</title>
<g id="a_Node000002"><a xlink:href="classio_1_1github_1_1fruitcropxl_1_1config_1_1params_1_1ParamTable.html" target="_top" xlink:title="Stores Parameters in a tabular format as rows and columns (parameter key).">
<polygon fill="white" stroke="transparent" points="182,-300 0,-300 0,0 182,0 182,-300"/>
<text text-anchor="start" x="5" y="-288" font-family="Helvetica,sans-Serif" font-size="10.00">io.github.fruitcropxl.config.params.</text>
<text text-anchor="start" x="62.5" y="-277" font-family="Helvetica,sans-Serif" font-size="10.00">ParamTable</text>
<text text-anchor="start" x="28" y="-262" font-family="Helvetica,sans-Serif" font-size="10.00">&#45;</text>
<text text-anchor="start" x="60" y="-262" font-family="Helvetica,sans-Serif" font-size="10.00">rows</text>
<text text-anchor="start" x="25.5" y="-247" font-family="Helvetica,sans-Serif" font-size="10.00">+</text>
<text text-anchor="start" x="60" y="-247" font-family="Helvetica,sans-Serif" font-size="10.00">ParamTable()</text>
<text text-anchor="start" x="25.5" y="-232" font-family="Helvetica,sans-Serif" font-size="10.00">+</text>
<text text-anchor="start" x="60" y="-232" font-family="Helvetica,sans-Serif" font-size="10.00">addRow()</text>
<text text-anchor="start" x="25.5" y="-217" font-family="Helvetica,sans-Serif" font-size="10.00">+</text>
<text text-anchor="start" x="60" y="-217" font-family="Helvetica,sans-Serif" font-size="10.00">getBoolean()</text>
<text text-anchor="start" x="25.5" y="-202" font-family="Helvetica,sans-Serif" font-size="10.00">+</text>
<text text-anchor="start" x="60" y="-202" font-family="Helvetica,sans-Serif" font-size="10.00">getBoolean()</text>
<text text-anchor="start" x="25.5" y="-187" font-family="Helvetica,sans-Serif" font-size="10.00">+</text>
<text text-anchor="start" x="60" y="-187" font-family="Helvetica,sans-Serif" font-size="10.00">getString()</text>
<text text-anchor="start" x="25.5" y="-172" font-family="Helvetica,sans-Serif" font-size="10.00">+</text>
<text text-anchor="start" x="60" y="-172" font-family="Helvetica,sans-Serif" font-size="10.00">getString()</text>
<text text-anchor="start" x="25.5" y="-157" font-family="Helvetica,sans-Serif" font-size="10.00">+</text>
<text text-anchor="start" x="60" y="-157" font-family="Helvetica,sans-Serif" font-size="10.00">getInteger()</text>
<text text-anchor="start" x="25.5" y="-142" font-family="Helvetica,sans-Serif" font-size="10.00">+</text>
<text text-anchor="start" x="60" y="-142" font-family="Helvetica,sans-Serif" font-size="10.00">getInteger()</text>
<text text-anchor="start" x="25.5" y="-127" font-family="Helvetica,sans-Serif" font-size="10.00">+</text>
<text text-anchor="start" x="60" y="-127" font-family="Helvetica,sans-Serif" font-size="10.00">getDouble()</text>
<text text-anchor="start" x="25.5" y="-112" font-family="Helvetica,sans-Serif" font-size="10.00">+</text>
<text text-anchor="start" x="60" y="-112" font-family="Helvetica,sans-Serif" font-size="10.00">getDouble()</text>
<text text-anchor="start" x="60" y="-97" font-family="Helvetica,sans-Serif" font-size="10.00">and 10 more...</text>
<text text-anchor="start" x="25.5" y="-82" font-family="Helvetica,sans-Serif" font-size="10.00">~</text>
<text text-anchor="start" x="60" y="-82" font-family="Helvetica,sans-Serif" font-size="10.00">get()</text>
<text text-anchor="start" x="25.5" y="-67" font-family="Helvetica,sans-Serif" font-size="10.00">~</text>
<text text-anchor="start" x="60" y="-67" font-family="Helvetica,sans-Serif" font-size="10.00">get()</text>
<text text-anchor="start" x="25.5" y="-52" font-family="Helvetica,sans-Serif" font-size="10.00">~</text>
<text text-anchor="start" x="60" y="-52" font-family="Helvetica,sans-Serif" font-size="10.00">getArray()</text>
<text text-anchor="start" x="25.5" y="-37" font-family="Helvetica,sans-Serif" font-size="10.00">~</text>
<text text-anchor="start" x="60" y="-37" font-family="Helvetica,sans-Serif" font-size="10.00">getArray()</text>
<text text-anchor="start" x="28" y="-22" font-family="Helvetica,sans-Serif" font-size="10.00">&#45;</text>
<text text-anchor="start" x="60" y="-22" font-family="Helvetica,sans-Serif" font-size="10.00">setRow()</text>
<text text-anchor="start" x="28" y="-7" font-family="Helvetica,sans-Serif" font-size="10.00">&#45;</text>
<text text-anchor="start" x="60" y="-7" font-family="Helvetica,sans-Serif" font-size="10.00">getParameter()</text>
<polygon fill="#666666" stroke="#666666" points="0,-272 0,-272 182,-272 182,-272 0,-272"/>
<polygon fill="#666666" stroke="#666666" points="0,-257 0,-257 58,-257 58,-257 0,-257"/>
<polygon fill="#666666" stroke="#666666" points="58,-257 58,-257 182,-257 182,-257 58,-257"/>
<polygon fill="none" stroke="#666666" points="0,0 0,-300 182,-300 182,0 0,0"/>
</a>
</g>
</g>
<!-- Node1&#45;&gt;Node2 -->
<g id="edge1_Node000001_Node000002" class="edge">
<title>Node1&#45;&gt;Node2</title>
<g id="a_edge1_Node000001_Node000002"><a xlink:title=" ">
<path fill="none" stroke="#63b8ff" d="M91,-325.86C91,-318.21 91,-309.61 91,-300.44"/>
<polygon fill="none" stroke="#63b8ff" points="87.5,-325.99 91,-335.99 94.5,-325.99 87.5,-325.99"/>
</a>
</g>
</g>
</g>
</svg>
