<?xml version="1.0" encoding="UTF-8" standalone="no"?>
<!DOCTYPE svg PUBLIC "-//W3C//DTD SVG 1.1//EN"
 "http://www.w3.org/Graphics/SVG/1.1/DTD/svg11.dtd">
<!-- Generated by graphviz version 2.43.0 (0)
 -->
<!-- Title: io.github.fruitcropxl.config.params.structures.CategoryStore.validateFlattenedAccess Pages: 1 -->
<svg width="746pt" height="60pt"
 viewBox="0.00 0.00 746.00 60.00" xmlns="http://www.w3.org/2000/svg" xmlns:xlink="http://www.w3.org/1999/xlink">
<g id="graph0" class="graph" transform="scale(1 1) rotate(0) translate(4 56)">
<title>io.github.fruitcropxl.config.params.structures.CategoryStore.validateFlattenedAccess</title>
<!-- Node1 -->
<g id="Node000001" class="node">
<title>Node1</title>
<g id="a_Node000001"><a xlink:title=" ">
<polygon fill="#999999" stroke="#666666" points="239,-30 0,-30 0,0 239,0 239,-30"/>
<text text-anchor="start" x="8" y="-18" font-family="Helvetica,sans-Serif" font-size="10.00">io.github.fruitcropxl.config.params.structures.</text>
<text text-anchor="middle" x="119.5" y="-7" font-family="Helvetica,sans-Serif" font-size="10.00">CategoryStore.validateFlattenedAccess</text>
</a>
</g>
</g>
<!-- Node2 -->
<g id="Node000002" class="node">
<title>Node2</title>
<g id="a_Node000002"><a xlink:href="classio_1_1github_1_1fruitcropxl_1_1config_1_1params_1_1structures_1_1CategoryStore_a9b2ec8a2beb1fd75ac2fb60a9389ac84.html#a9b2ec8a2beb1fd75ac2fb60a9389ac84" target="_top" xlink:title=" ">
<polygon fill="white" stroke="#666666" points="514,-52 275,-52 275,-22 514,-22 514,-52"/>
<text text-anchor="start" x="283" y="-40" font-family="Helvetica,sans-Serif" font-size="10.00">io.github.fruitcropxl.config.params.structures.</text>
<text text-anchor="middle" x="394.5" y="-29" font-family="Helvetica,sans-Serif" font-size="10.00">CategoryStore.getCategoryWithParam</text>
</a>
</g>
</g>
<!-- Node1&#45;&gt;Node2 -->
<g id="edge1_Node000001_Node000002" class="edge">
<title>Node1&#45;&gt;Node2</title>
<g id="a_edge1_Node000001_Node000002"><a xlink:title=" ">
<path fill="none" stroke="#63b8ff" d="M239.05,-24.55C247.53,-25.24 256.11,-25.93 264.64,-26.62"/>
<polygon fill="#63b8ff" stroke="#63b8ff" points="264.39,-30.11 274.63,-27.42 264.95,-23.13 264.39,-30.11"/>
</a>
</g>
</g>
<!-- Node3 -->
<g id="Node000003" class="node">
<title>Node3</title>
<g id="a_Node000003"><a xlink:href="classio_1_1github_1_1fruitcropxl_1_1config_1_1params_1_1ParamCategory_ad96823e990040d8e36517b130dd87b74.html#ad96823e990040d8e36517b130dd87b74" target="_top" xlink:title="Get generic Parameter with the given key.">
<polygon fill="white" stroke="#666666" points="738,-30 550,-30 550,0 738,0 738,-30"/>
<text text-anchor="start" x="558" y="-18" font-family="Helvetica,sans-Serif" font-size="10.00">io.github.fruitcropxl.config.params.</text>
<text text-anchor="middle" x="644" y="-7" font-family="Helvetica,sans-Serif" font-size="10.00">ParamCategory.getParameter</text>
</a>
</g>
</g>
<!-- Node1&#45;&gt;Node3 -->
<g id="edge3_Node000001_Node000003" class="edge">
<title>Node1&#45;&gt;Node3</title>
<g id="a_edge3_Node000001_Node000003"><a xlink:title=" ">
<path fill="none" stroke="#63b8ff" d="M239.01,-13.31C251.17,-13.18 263.33,-13.08 275,-13 381.22,-12.31 407.78,-12.18 514,-13 522.37,-13.06 531.05,-13.15 539.76,-13.26"/>
<polygon fill="#63b8ff" stroke="#63b8ff" points="539.95,-16.76 549.99,-13.39 540.04,-9.76 539.95,-16.76"/>
</a>
</g>
</g>
<!-- Node2&#45;&gt;Node3 -->
<g id="edge2_Node000002_Node000003" class="edge">
<title>Node2&#45;&gt;Node3</title>
<g id="a_edge2_Node000002_Node000003"><a xlink:title=" ">
<path fill="none" stroke="#63b8ff" d="M514.18,-26.45C522.64,-25.7 531.14,-24.94 539.51,-24.2"/>
<polygon fill="#63b8ff" stroke="#63b8ff" points="540,-27.67 549.65,-23.3 539.38,-20.7 540,-27.67"/>
</a>
</g>
</g>
</g>
</svg>
