<?xml version="1.0" encoding="UTF-8" standalone="no"?>
<!DOCTYPE svg PUBLIC "-//W3C//DTD SVG 1.1//EN"
 "http://www.w3.org/Graphics/SVG/1.1/DTD/svg11.dtd">
<!-- Generated by graphviz version 2.43.0 (0)
 -->
<!-- Title: fspm.config.params.hierarchy.CategoryHierarchy.getBoolean Pages: 1 -->
<!--zoomable 165 -->
<svg id="main" version="1.1" xmlns="http://www.w3.org/2000/svg" xmlns:xlink="http://www.w3.org/1999/xlink" xml:space="preserve" onload="init(evt)">
<style type="text/css"><![CDATA[
.edge:hover path { stroke: red; }
.edge:hover polygon { stroke: red; fill: red; }
]]></style>
<script type="text/javascript"><![CDATA[
var edges = document.getElementsByTagName('g');
if (edges && edges.length) {
  for (var i=0;i<edges.length;i++) {
    if (edges[i].id.substr(0,4)=='edge') {
      edges[i].setAttribute('class','edge');
    }
  }
}
]]></script>
        <defs>
                <circle id="rim" cx="0" cy="0" r="7"/>
                <circle id="rim2" cx="0" cy="0" r="3.5"/>
                <g id="zoomPlus">
                        <use xlink:href="#rim" fill="#404040">
                                <set attributeName="fill" to="#808080" begin="zoomplus.mouseover" end="zoomplus.mouseout"/>
                        </use>
                        <path d="M-4,0h8M0,-4v8" fill="none" stroke="white" stroke-width="1.5" pointer-events="none"/>
                </g>
                <g id="zoomMin">
                        <use xlink:href="#rim" fill="#404040">
                                <set attributeName="fill" to="#808080" begin="zoomminus.mouseover" end="zoomminus.mouseout"/>
                        </use>
                        <path d="M-4,0h8" fill="none" stroke="white" stroke-width="1.5" pointer-events="none"/>
                </g>
                <g id="dirArrow">
                        <path fill="none" stroke="white" stroke-width="1.5" d="M0,-3.0v7 M-2.5,-0.5L0,-3.0L2.5,-0.5"/>
                </g>
               <g id="resetDef">
                       <use xlink:href="#rim2" fill="#404040">
                               <set attributeName="fill" to="#808080" begin="reset.mouseover" end="reset.mouseout"/>
                       </use>
               </g>
        </defs>

<script type="text/javascript">
var viewWidth = 1292;
var viewHeight = 165;
var sectionId = 'dynsection-0';
</script>
<script xlink:href="svgpan.js"/>
<svg id="graph" class="graph">
<g id="viewport">
<title>fspm.config.params.hierarchy.CategoryHierarchy.getBoolean</title>
<!-- Node1 -->
<g id="node1" class="node">
<title>Node1</title>
<g id="a_node1"><a xlink:title=" ">
<polygon fill="#bfbfbf" stroke="black" points="0,-62.5 0,-92.5 165,-92.5 165,-62.5 0,-62.5"/>
<text text-anchor="start" x="8" y="-80.5" font-family="Helvetica,sans-Serif" font-size="10.00">fspm.config.params.hierarchy.</text>
<text text-anchor="middle" x="82.5" y="-69.5" font-family="Helvetica,sans-Serif" font-size="10.00">CategoryHierarchy.getBoolean</text>
</a>
</g>
</g>
<!-- Node2 -->
<g id="node2" class="node">
<title>Node2</title>
<g id="a_node2"><a xlink:href="classfspm_1_1config_1_1params_1_1hierarchy_1_1CategoryHierarchy_a919331cbea40c893fc991b895e65797c.html#a919331cbea40c893fc991b895e65797c" target="_top" xlink:title=" ">
<polygon fill="none" stroke="black" points="201,-62.5 201,-92.5 366,-92.5 366,-62.5 201,-62.5"/>
<text text-anchor="start" x="209" y="-80.5" font-family="Helvetica,sans-Serif" font-size="10.00">fspm.config.params.hierarchy.</text>
<text text-anchor="middle" x="283.5" y="-69.5" font-family="Helvetica,sans-Serif" font-size="10.00">CategoryHierarchy.getBoolean</text>
</a>
</g>
</g>
<!-- Node1&#45;&gt;Node2 -->
<g id="edge1" class="edge">
<title>Node1&#45;&gt;Node2</title>
<path fill="none" stroke="midnightblue" d="M165.02,-77.5C173.5,-77.5 182.17,-77.5 190.76,-77.5"/>
<polygon fill="midnightblue" stroke="midnightblue" points="190.79,-81 200.79,-77.5 190.79,-74 190.79,-81"/>
</g>
<!-- Node3 -->
<g id="node3" class="node">
<title>Node3</title>
<g id="a_node3"><a xlink:href="classfspm_1_1config_1_1params_1_1ParamCategory_afa61ab695415b052569467d379bf4a07.html#afa61ab695415b052569467d379bf4a07" target="_top" xlink:title=" ">
<polygon fill="none" stroke="black" points="426.5,-90.5 426.5,-120.5 573.5,-120.5 573.5,-90.5 426.5,-90.5"/>
<text text-anchor="start" x="434.5" y="-108.5" font-family="Helvetica,sans-Serif" font-size="10.00">fspm.config.params.Param</text>
<text text-anchor="middle" x="500" y="-97.5" font-family="Helvetica,sans-Serif" font-size="10.00">Category.getBoolean</text>
</a>
</g>
</g>
<!-- Node2&#45;&gt;Node3 -->
<g id="edge2" class="edge">
<title>Node2&#45;&gt;Node3</title>
<path fill="none" stroke="midnightblue" d="M366.21,-88.17C382.58,-90.3 399.8,-92.55 416.21,-94.69"/>
<polygon fill="midnightblue" stroke="midnightblue" points="415.94,-98.19 426.3,-96.01 416.84,-91.25 415.94,-98.19"/>
</g>
<!-- Node8 -->
<g id="node8" class="node">
<title>Node8</title>
<g id="a_node8"><a xlink:href="classfspm_1_1config_1_1params_1_1hierarchy_1_1CategoryHierarchy_a97a3787601b2a1964f925a5509267602.html#a97a3787601b2a1964f925a5509267602" target="_top" xlink:title=" ">
<polygon fill="none" stroke="black" points="402,-30 402,-71 598,-71 598,-30 402,-30"/>
<text text-anchor="start" x="410" y="-59" font-family="Helvetica,sans-Serif" font-size="10.00">fspm.config.params.hierarchy.</text>
<text text-anchor="start" x="410" y="-48" font-family="Helvetica,sans-Serif" font-size="10.00">CategoryHierarchy.validateFlattened</text>
<text text-anchor="middle" x="500" y="-37" font-family="Helvetica,sans-Serif" font-size="10.00">Access</text>
</a>
</g>
</g>
<!-- Node2&#45;&gt;Node8 -->
<g id="edge7" class="edge">
<title>Node2&#45;&gt;Node8</title>
<path fill="none" stroke="midnightblue" d="M366.21,-67.22C374.54,-66.17 383.1,-65.09 391.66,-64.01"/>
<polygon fill="midnightblue" stroke="midnightblue" points="392.21,-67.47 401.7,-62.75 391.34,-60.52 392.21,-67.47"/>
</g>
<!-- Node4 -->
<g id="node4" class="node">
<title>Node4</title>
<g id="a_node4"><a xlink:href="classfspm_1_1config_1_1params_1_1Parameter_aef72ee875f0fbf9d900f71d5a96c64f3.html#aef72ee875f0fbf9d900f71d5a96c64f3" target="_top" xlink:title=" ">
<polygon fill="none" stroke="black" points="655.5,-126.5 655.5,-156.5 835.5,-156.5 835.5,-126.5 655.5,-126.5"/>
<text text-anchor="start" x="663.5" y="-144.5" font-family="Helvetica,sans-Serif" font-size="10.00">fspm.config.params.Parameter.as</text>
<text text-anchor="middle" x="745.5" y="-133.5" font-family="Helvetica,sans-Serif" font-size="10.00">Boolean</text>
</a>
</g>
</g>
<!-- Node3&#45;&gt;Node4 -->
<g id="edge3" class="edge">
<title>Node3&#45;&gt;Node4</title>
<path fill="none" stroke="midnightblue" d="M573.73,-116.25C596.17,-119.57 621.27,-123.28 645.19,-126.82"/>
<polygon fill="midnightblue" stroke="midnightblue" points="644.94,-130.32 655.35,-128.32 645.97,-123.39 644.94,-130.32"/>
</g>
<!-- Node6 -->
<g id="node6" class="node">
<title>Node6</title>
<g id="a_node6"><a xlink:href="classfspm_1_1config_1_1params_1_1ParamCategory_ac81e6b98fa48fc3426eed6f60e81da5b.html#ac81e6b98fa48fc3426eed6f60e81da5b" target="_top" xlink:title="Get generic Parameter with the given key.">
<polygon fill="none" stroke="black" points="918,-44.5 918,-74.5 1065,-74.5 1065,-44.5 918,-44.5"/>
<text text-anchor="start" x="926" y="-62.5" font-family="Helvetica,sans-Serif" font-size="10.00">fspm.config.params.Param</text>
<text text-anchor="middle" x="991.5" y="-51.5" font-family="Helvetica,sans-Serif" font-size="10.00">Category.getParameter</text>
</a>
</g>
</g>
<!-- Node3&#45;&gt;Node6 -->
<g id="edge5" class="edge">
<title>Node3&#45;&gt;Node6</title>
<path fill="none" stroke="midnightblue" d="M573.75,-98.66C663.05,-90.27 814.11,-76.08 907.74,-67.28"/>
<polygon fill="midnightblue" stroke="midnightblue" points="908.12,-70.76 917.75,-66.34 907.46,-63.79 908.12,-70.76"/>
</g>
<!-- Node5 -->
<g id="node5" class="node">
<title>Node5</title>
<g id="a_node5"><a xlink:href="classfspm_1_1config_1_1params_1_1Parameter_a2fd72835a908354fea23f92e3f3b1800.html#a2fd72835a908354fea23f92e3f3b1800" target="_top" xlink:title=" ">
<polygon fill="none" stroke="black" points="893,-132 893,-151 1090,-151 1090,-132 893,-132"/>
<text text-anchor="middle" x="991.5" y="-139" font-family="Helvetica,sans-Serif" font-size="10.00">fspm.config.params.Parameter.isNull</text>
</a>
</g>
</g>
<!-- Node4&#45;&gt;Node5 -->
<g id="edge4" class="edge">
<title>Node4&#45;&gt;Node5</title>
<path fill="none" stroke="midnightblue" d="M835.63,-141.5C850.92,-141.5 866.97,-141.5 882.7,-141.5"/>
<polygon fill="midnightblue" stroke="midnightblue" points="882.97,-145 892.97,-141.5 882.97,-138 882.97,-145"/>
</g>
<!-- Node7 -->
<g id="node7" class="node">
<title>Node7</title>
<g id="a_node7"><a xlink:href="classfspm_1_1util_1_1KeyElement_a653aac67328f98c1201974736671fe0d.html#a653aac67328f98c1201974736671fe0d" target="_top" xlink:title=" ">
<polygon fill="none" stroke="black" points="1126,-50 1126,-69 1284,-69 1284,-50 1126,-50"/>
<text text-anchor="middle" x="1205" y="-57" font-family="Helvetica,sans-Serif" font-size="10.00">fspm.util.KeyElement.getKey</text>
</a>
</g>
</g>
<!-- Node6&#45;&gt;Node7 -->
<g id="edge6" class="edge">
<title>Node6&#45;&gt;Node7</title>
<path fill="none" stroke="midnightblue" d="M1065.29,-59.5C1081.42,-59.5 1098.68,-59.5 1115.36,-59.5"/>
<polygon fill="midnightblue" stroke="midnightblue" points="1115.66,-63 1125.66,-59.5 1115.66,-56 1115.66,-63"/>
</g>
<!-- Node8&#45;&gt;Node6 -->
<g id="edge10" class="edge">
<title>Node8&#45;&gt;Node6</title>
<path fill="none" stroke="midnightblue" d="M598,-52.28C688.53,-53.95 822.15,-56.4 907.76,-57.98"/>
<polygon fill="midnightblue" stroke="midnightblue" points="907.9,-61.48 917.96,-58.17 908.02,-54.48 907.9,-61.48"/>
</g>
<!-- Node9 -->
<g id="node9" class="node">
<title>Node9</title>
<g id="a_node9"><a xlink:href="classfspm_1_1config_1_1params_1_1hierarchy_1_1CategoryHierarchy_a9c1b08f5e63a4e2ae1092e048db34237.html#a9c1b08f5e63a4e2ae1092e048db34237" target="_top" xlink:title=" ">
<polygon fill="none" stroke="black" points="634,-0.5 634,-30.5 857,-30.5 857,-0.5 634,-0.5"/>
<text text-anchor="start" x="642" y="-18.5" font-family="Helvetica,sans-Serif" font-size="10.00">fspm.config.params.hierarchy.</text>
<text text-anchor="middle" x="745.5" y="-7.5" font-family="Helvetica,sans-Serif" font-size="10.00">CategoryHierarchy.getCategoryWithParam</text>
</a>
</g>
</g>
<!-- Node8&#45;&gt;Node9 -->
<g id="edge8" class="edge">
<title>Node8&#45;&gt;Node9</title>
<path fill="none" stroke="midnightblue" d="M598.29,-36.52C608.63,-35.03 619.21,-33.51 629.73,-32"/>
<polygon fill="midnightblue" stroke="midnightblue" points="630.38,-35.44 639.78,-30.55 629.38,-28.51 630.38,-35.44"/>
</g>
<!-- Node9&#45;&gt;Node6 -->
<g id="edge9" class="edge">
<title>Node9&#45;&gt;Node6</title>
<path fill="none" stroke="midnightblue" d="M829.79,-30.52C855.02,-35.07 882.71,-40.06 907.89,-44.6"/>
<polygon fill="midnightblue" stroke="midnightblue" points="907.32,-48.06 917.78,-46.39 908.56,-41.17 907.32,-48.06"/>
</g>
</g>
</svg>
        <g id="navigator" transform="translate(0 0)" fill="#404254">
                <rect fill="#f2f5e9" fill-opacity="0.5" stroke="#606060" stroke-width=".5" x="0" y="0" width="60" height="60"/>
                <use id="zoomplus" xlink:href="#zoomPlus" x="17" y="9" onmousedown="handleZoom(evt,'in')"/>
                <use id="zoomminus" xlink:href="#zoomMin" x="42" y="9" onmousedown="handleZoom(evt,'out')"/>
                <use id="reset" xlink:href="#resetDef" x="30" y="36" onmousedown="handleReset()"/>
                <g id="arrowUp" xlink:href="#dirArrow" transform="translate(30 24)" onmousedown="handlePan(0,-1)">
                  <use xlink:href="#rim" fill="#404040">
                        <set attributeName="fill" to="#808080" begin="arrowUp.mouseover" end="arrowUp.mouseout"/>
                  </use>
                  <path fill="none" stroke="white" stroke-width="1.5" d="M0,-3.0v7 M-2.5,-0.5L0,-3.0L2.5,-0.5"/>
                </g>
                <g id="arrowRight" xlink:href="#dirArrow" transform="rotate(90) translate(36 -43)" onmousedown="handlePan(1,0)">
                  <use xlink:href="#rim" fill="#404040">
                        <set attributeName="fill" to="#808080" begin="arrowRight.mouseover" end="arrowRight.mouseout"/>
                  </use>
                  <path fill="none" stroke="white" stroke-width="1.5" d="M0,-3.0v7 M-2.5,-0.5L0,-3.0L2.5,-0.5"/>
                </g>
                <g id="arrowDown" xlink:href="#dirArrow" transform="rotate(180) translate(-30 -48)" onmousedown="handlePan(0,1)">
                  <use xlink:href="#rim" fill="#404040">
                        <set attributeName="fill" to="#808080" begin="arrowDown.mouseover" end="arrowDown.mouseout"/>
                  </use>
                  <path fill="none" stroke="white" stroke-width="1.5" d="M0,-3.0v7 M-2.5,-0.5L0,-3.0L2.5,-0.5"/>
                </g>
                <g id="arrowLeft" xlink:href="#dirArrow" transform="rotate(270) translate(-36 17)" onmousedown="handlePan(-1,0)">
                  <use xlink:href="#rim" fill="#404040">
                        <set attributeName="fill" to="#808080" begin="arrowLeft.mouseover" end="arrowLeft.mouseout"/>
                  </use>
                  <path fill="none" stroke="white" stroke-width="1.5" d="M0,-3.0v7 M-2.5,-0.5L0,-3.0L2.5,-0.5"/>
                </g>
        </g>
        <svg viewBox="0 0 15 15" width="100%" height="30px" preserveAspectRatio="xMaxYMin meet">
         <g id="arrow_out" transform="scale(0.3 0.3)">
          <a xlink:href="classfspm_1_1config_1_1params_1_1hierarchy_1_1CategoryHierarchy_a6591eafe8a9348743ec6fad43e676919_a6591eafe8a9348743ec6fad43e676919_cgraph_org.svg" target="_base">
           <rect id="button" ry="5" rx="5" y="6" x="6" height="38" width="38"
                fill="#f2f5e9" fill-opacity="0.5" stroke="#606060" stroke-width="1.0"/>
           <path id="arrow"
             d="M 11.500037,31.436501 C 11.940474,20.09759 22.043105,11.32322 32.158766,21.979434 L 37.068811,17.246167 C 37.068811,17.246167 37.088388,32 37.088388,32 L 22.160133,31.978069 C 22.160133,31.978069 26.997745,27.140456 26.997745,27.140456 C 18.528582,18.264221 13.291696,25.230495 11.500037,31.436501 z"
             style="fill:#404040;"/>
          </a>
         </g>
        </svg>
</svg>
