<?xml version="1.0" encoding="UTF-8" standalone="no"?>
<!DOCTYPE svg PUBLIC "-//W3C//DTD SVG 1.1//EN"
 "http://www.w3.org/Graphics/SVG/1.1/DTD/svg11.dtd">
<!-- Generated by graphviz version 2.43.0 (0)
 -->
<!-- Title: RuntimeException Pages: 1 -->
<svg width="670pt" height="215pt"
 viewBox="0.00 0.00 669.50 215.00" xmlns="http://www.w3.org/2000/svg" xmlns:xlink="http://www.w3.org/1999/xlink">
<g id="graph0" class="graph" transform="scale(1 1) rotate(0) translate(4 211)">
<title>RuntimeException</title>
<!-- Node1 -->
<g id="node1" class="node">
<title>Node1</title>
<g id="a_node1"><a xlink:title=" ">
<polygon fill="#bfbfbf" stroke="black" points="254.5,-149.5 254.5,-206.5 360.5,-206.5 360.5,-149.5 254.5,-149.5"/>
<text text-anchor="middle" x="307.5" y="-194.5" font-family="Helvetica,sans-Serif" font-size="10.00">RuntimeException</text>
<polyline fill="none" stroke="black" points="254.5,-187.5 360.5,-187.5 "/>
<text text-anchor="middle" x="307.5" y="-175.5" font-family="Helvetica,sans-Serif" font-size="10.00"> </text>
<polyline fill="none" stroke="black" points="254.5,-168.5 360.5,-168.5 "/>
<text text-anchor="middle" x="307.5" y="-156.5" font-family="Helvetica,sans-Serif" font-size="10.00"> </text>
</a>
</g>
</g>
<!-- Node2 -->
<g id="node2" class="node">
<title>Node2</title>
<g id="a_node2"><a xlink:href="classfspm_1_1util_1_1exceptions_1_1KeyConflictException.html" target="_top" xlink:title=" ">
<polygon fill="none" stroke="black" points="0,-0.5 0,-112.5 137,-112.5 137,-0.5 0,-0.5"/>
<text text-anchor="start" x="8" y="-100.5" font-family="Helvetica,sans-Serif" font-size="10.00">fspm.util.exceptions.Key</text>
<text text-anchor="middle" x="68.5" y="-89.5" font-family="Helvetica,sans-Serif" font-size="10.00">ConflictException</text>
<polyline fill="none" stroke="black" points="0,-82.5 137,-82.5 "/>
<text text-anchor="middle" x="68.5" y="-70.5" font-family="Helvetica,sans-Serif" font-size="10.00"> </text>
<polyline fill="none" stroke="black" points="0,-63.5 137,-63.5 "/>
<text text-anchor="start" x="8" y="-51.5" font-family="Helvetica,sans-Serif" font-size="10.00">+ KeyConflictException</text>
<text text-anchor="start" x="8" y="-40.5" font-family="Helvetica,sans-Serif" font-size="10.00">(String name)</text>
<text text-anchor="start" x="8" y="-29.5" font-family="Helvetica,sans-Serif" font-size="10.00">+ KeyConflictException</text>
<text text-anchor="start" x="8" y="-18.5" font-family="Helvetica,sans-Serif" font-size="10.00">(String name, String</text>
<text text-anchor="start" x="8" y="-7.5" font-family="Helvetica,sans-Serif" font-size="10.00"> location)</text>
</a>
</g>
</g>
<!-- Node1&#45;&gt;Node2 -->
<g id="edge1" class="edge">
<title>Node1&#45;&gt;Node2</title>
<path fill="none" stroke="midnightblue" d="M244.57,-155.98C214.17,-144.83 177.61,-129.93 146.5,-113 143.43,-111.33 140.35,-109.56 137.26,-107.72"/>
<polygon fill="none" stroke="midnightblue" points="243.62,-159.36 254.22,-159.47 246,-152.77 243.62,-159.36"/>
</g>
<!-- Node3 -->
<g id="node3" class="node">
<title>Node3</title>
<g id="a_node3"><a xlink:href="classfspm_1_1util_1_1exceptions_1_1KeyNotFoundException.html" target="_top" xlink:title=" ">
<polygon fill="none" stroke="black" points="155.5,-6 155.5,-107 297.5,-107 297.5,-6 155.5,-6"/>
<text text-anchor="start" x="163.5" y="-95" font-family="Helvetica,sans-Serif" font-size="10.00">fspm.util.exceptions.Key</text>
<text text-anchor="middle" x="226.5" y="-84" font-family="Helvetica,sans-Serif" font-size="10.00">NotFoundException</text>
<polyline fill="none" stroke="black" points="155.5,-77 297.5,-77 "/>
<text text-anchor="middle" x="226.5" y="-65" font-family="Helvetica,sans-Serif" font-size="10.00"> </text>
<polyline fill="none" stroke="black" points="155.5,-58 297.5,-58 "/>
<text text-anchor="start" x="163.5" y="-46" font-family="Helvetica,sans-Serif" font-size="10.00">+ KeyNotFoundException</text>
<text text-anchor="start" x="163.5" y="-35" font-family="Helvetica,sans-Serif" font-size="10.00">(String name)</text>
<text text-anchor="start" x="163.5" y="-24" font-family="Helvetica,sans-Serif" font-size="10.00">+ KeyNotFoundException</text>
<text text-anchor="start" x="163.5" y="-13" font-family="Helvetica,sans-Serif" font-size="10.00">(String name, String msg)</text>
</a>
</g>
</g>
<!-- Node1&#45;&gt;Node3 -->
<g id="edge2" class="edge">
<title>Node1&#45;&gt;Node3</title>
<path fill="none" stroke="midnightblue" d="M282.9,-140.7C275.72,-130.11 267.75,-118.36 260.12,-107.1"/>
<polygon fill="none" stroke="midnightblue" points="280.21,-142.97 288.71,-149.28 286,-139.04 280.21,-142.97"/>
</g>
<!-- Node4 -->
<g id="node4" class="node">
<title>Node4</title>
<g id="a_node4"><a xlink:href="classfspm_1_1util_1_1exceptions_1_1TypeNotFoundException.html" target="_top" xlink:title=" ">
<polygon fill="none" stroke="black" points="316,-17 316,-96 461,-96 461,-17 316,-17"/>
<text text-anchor="start" x="324" y="-84" font-family="Helvetica,sans-Serif" font-size="10.00">fspm.util.exceptions.Type</text>
<text text-anchor="middle" x="388.5" y="-73" font-family="Helvetica,sans-Serif" font-size="10.00">NotFoundException</text>
<polyline fill="none" stroke="black" points="316,-66 461,-66 "/>
<text text-anchor="middle" x="388.5" y="-54" font-family="Helvetica,sans-Serif" font-size="10.00"> </text>
<polyline fill="none" stroke="black" points="316,-47 461,-47 "/>
<text text-anchor="start" x="324" y="-35" font-family="Helvetica,sans-Serif" font-size="10.00">+ TypeNotFoundException</text>
<text text-anchor="start" x="324" y="-24" font-family="Helvetica,sans-Serif" font-size="10.00">(String name, String type)</text>
</a>
</g>
</g>
<!-- Node1&#45;&gt;Node4 -->
<g id="edge3" class="edge">
<title>Node1&#45;&gt;Node4</title>
<path fill="none" stroke="midnightblue" d="M332.01,-140.84C341.53,-126.79 352.46,-110.68 362.15,-96.38"/>
<polygon fill="none" stroke="midnightblue" points="329,-139.04 326.29,-149.28 334.79,-142.97 329,-139.04"/>
</g>
<!-- Node5 -->
<g id="node5" class="node">
<title>Node5</title>
<g id="a_node5"><a xlink:href="classfspm_1_1util_1_1exceptions_1_1UnsupportedException.html" target="_top" xlink:title=" ">
<polygon fill="none" stroke="black" points="479.5,-17 479.5,-96 661.5,-96 661.5,-17 479.5,-17"/>
<text text-anchor="start" x="487.5" y="-84" font-family="Helvetica,sans-Serif" font-size="10.00">fspm.util.exceptions.Unsupported</text>
<text text-anchor="middle" x="570.5" y="-73" font-family="Helvetica,sans-Serif" font-size="10.00">Exception</text>
<polyline fill="none" stroke="black" points="479.5,-66 661.5,-66 "/>
<text text-anchor="middle" x="570.5" y="-54" font-family="Helvetica,sans-Serif" font-size="10.00"> </text>
<polyline fill="none" stroke="black" points="479.5,-47 661.5,-47 "/>
<text text-anchor="start" x="487.5" y="-35" font-family="Helvetica,sans-Serif" font-size="10.00">+ UnsupportedException</text>
<text text-anchor="start" x="487.5" y="-24" font-family="Helvetica,sans-Serif" font-size="10.00">(String message)</text>
</a>
</g>
</g>
<!-- Node1&#45;&gt;Node5 -->
<g id="edge4" class="edge">
<title>Node1&#45;&gt;Node5</title>
<path fill="none" stroke="midnightblue" d="M370.43,-154.52C401.04,-143.02 438.12,-128.26 470.5,-113 481.46,-107.84 492.87,-101.98 503.9,-96.06"/>
<polygon fill="none" stroke="midnightblue" points="368.89,-151.36 360.74,-158.13 371.33,-157.92 368.89,-151.36"/>
</g>
</g>
</svg>
