<?xml version="1.0" encoding="UTF-8" standalone="no"?>
<!DOCTYPE svg PUBLIC "-//W3C//DTD SVG 1.1//EN"
 "http://www.w3.org/Graphics/SVG/1.1/DTD/svg11.dtd">
<!-- Generated by graphviz version 2.43.0 (0)
 -->
<!-- Title: fspm.config.params.groups.DocumentCategoryNameGroup.parse Pages: 1 -->
<svg width="865pt" height="235pt"
 viewBox="0.00 0.00 865.00 235.00" xmlns="http://www.w3.org/2000/svg" xmlns:xlink="http://www.w3.org/1999/xlink">
<g id="graph0" class="graph" transform="scale(1 1) rotate(0) translate(4 231)">
<title>fspm.config.params.groups.DocumentCategoryNameGroup.parse</title>
<!-- Node1 -->
<g id="node1" class="node">
<title>Node1</title>
<g id="a_node1"><a xlink:title=" ">
<polygon fill="#bfbfbf" stroke="black" points="0,-125.5 0,-155.5 200,-155.5 200,-125.5 0,-125.5"/>
<text text-anchor="start" x="8" y="-143.5" font-family="Helvetica,sans-Serif" font-size="10.00">fspm.config.params.groups.</text>
<text text-anchor="middle" x="100" y="-132.5" font-family="Helvetica,sans-Serif" font-size="10.00">DocumentCategoryNameGroup.parse</text>
</a>
</g>
</g>
<!-- Node2 -->
<g id="node2" class="node">
<title>Node2</title>
<g id="a_node2"><a xlink:href="classfspm_1_1config_1_1params_1_1groups_1_1DocumentCategoryNameGroup_aa8906e479d9524281284f67fb4de0169.html#aa8906e479d9524281284f67fb4de0169" target="_top" xlink:title=" ">
<polygon fill="none" stroke="black" points="236,-148 236,-189 459,-189 459,-148 236,-148"/>
<text text-anchor="start" x="244" y="-177" font-family="Helvetica,sans-Serif" font-size="10.00">fspm.config.params.groups.</text>
<text text-anchor="start" x="244" y="-166" font-family="Helvetica,sans-Serif" font-size="10.00">DocumentCategoryNameGroup.Document</text>
<text text-anchor="middle" x="347.5" y="-155" font-family="Helvetica,sans-Serif" font-size="10.00">CategoryNameGroup</text>
</a>
</g>
</g>
<!-- Node1&#45;&gt;Node2 -->
<g id="edge1" class="edge">
<title>Node1&#45;&gt;Node2</title>
<path fill="none" stroke="midnightblue" d="M200.15,-151.81C208.56,-152.77 217.13,-153.75 225.69,-154.72"/>
<polygon fill="midnightblue" stroke="midnightblue" points="225.39,-158.21 235.72,-155.87 226.19,-151.25 225.39,-158.21"/>
</g>
<!-- Node3 -->
<g id="node3" class="node">
<title>Node3</title>
<g id="a_node3"><a xlink:href="classfspm_1_1config_1_1params_1_1structures_1_1CategoryStore_a5b1316078bc6e936f6b443d6026bbdf6.html#a5b1316078bc6e936f6b443d6026bbdf6" target="_top" xlink:title=" ">
<polygon fill="none" stroke="black" points="263.5,-98.5 263.5,-128.5 431.5,-128.5 431.5,-98.5 263.5,-98.5"/>
<text text-anchor="start" x="271.5" y="-116.5" font-family="Helvetica,sans-Serif" font-size="10.00">fspm.config.params.structures.</text>
<text text-anchor="middle" x="347.5" y="-105.5" font-family="Helvetica,sans-Serif" font-size="10.00">CategoryStore.parse</text>
</a>
</g>
</g>
<!-- Node1&#45;&gt;Node3 -->
<g id="edge2" class="edge">
<title>Node1&#45;&gt;Node3</title>
<path fill="none" stroke="midnightblue" d="M200.15,-129.6C217.61,-127.68 235.74,-125.68 253.04,-123.78"/>
<polygon fill="midnightblue" stroke="midnightblue" points="253.57,-127.24 263.12,-122.67 252.8,-120.28 253.57,-127.24"/>
</g>
<!-- Node4 -->
<g id="node4" class="node">
<title>Node4</title>
<g id="a_node4"><a xlink:href="classfspm_1_1config_1_1params_1_1structures_1_1CategoryStore_a848e878d6fbdff21c30ac6cfd8336ecb.html#a848e878d6fbdff21c30ac6cfd8336ecb" target="_top" xlink:title="Adds a new category.">
<polygon fill="none" stroke="black" points="495,-196.5 495,-226.5 663,-226.5 663,-196.5 495,-196.5"/>
<text text-anchor="start" x="503" y="-214.5" font-family="Helvetica,sans-Serif" font-size="10.00">fspm.config.params.structures.</text>
<text text-anchor="middle" x="579" y="-203.5" font-family="Helvetica,sans-Serif" font-size="10.00">CategoryStore.addCategory</text>
</a>
</g>
</g>
<!-- Node3&#45;&gt;Node4 -->
<g id="edge3" class="edge">
<title>Node3&#45;&gt;Node4</title>
<path fill="none" stroke="midnightblue" d="M431.73,-125.45C441.36,-128.79 450.69,-133.06 459,-138.5 481.61,-153.31 472.84,-172.03 495,-187.5 497.15,-189 499.4,-190.41 501.72,-191.73"/>
<polygon fill="midnightblue" stroke="midnightblue" points="500.45,-195.02 510.95,-196.41 503.61,-188.77 500.45,-195.02"/>
</g>
<!-- Node6 -->
<g id="node6" class="node">
<title>Node6</title>
<g id="a_node6"><a xlink:href="classfspm_1_1config_1_1params_1_1ParamCategory_a142ca4734877ac3625b6b95d8b81055a.html#a142ca4734877ac3625b6b95d8b81055a" target="_top" xlink:title="Adds a new Parameter to the category.">
<polygon fill="none" stroke="black" points="505.5,-147.5 505.5,-177.5 652.5,-177.5 652.5,-147.5 505.5,-147.5"/>
<text text-anchor="start" x="513.5" y="-165.5" font-family="Helvetica,sans-Serif" font-size="10.00">fspm.config.params.Param</text>
<text text-anchor="middle" x="579" y="-154.5" font-family="Helvetica,sans-Serif" font-size="10.00">Category.addParameter</text>
</a>
</g>
</g>
<!-- Node3&#45;&gt;Node6 -->
<g id="edge5" class="edge">
<title>Node3&#45;&gt;Node6</title>
<path fill="none" stroke="midnightblue" d="M418.92,-128.53C443.81,-133.85 471.99,-139.87 497.65,-145.34"/>
<polygon fill="midnightblue" stroke="midnightblue" points="497.21,-148.83 507.72,-147.49 498.67,-141.98 497.21,-148.83"/>
</g>
<!-- Node7 -->
<g id="node7" class="node">
<title>Node7</title>
<g id="a_node7"><a xlink:href="classfspm_1_1config_1_1params_1_1structures_1_1CategoryStore_a62100f06bbe486cd123f091b31f248e2.html#a62100f06bbe486cd123f091b31f248e2" target="_top" xlink:title=" ">
<polygon fill="none" stroke="black" points="495,-98.5 495,-128.5 663,-128.5 663,-98.5 495,-98.5"/>
<text text-anchor="start" x="503" y="-116.5" font-family="Helvetica,sans-Serif" font-size="10.00">fspm.config.params.structures.</text>
<text text-anchor="middle" x="579" y="-105.5" font-family="Helvetica,sans-Serif" font-size="10.00">CategoryStore.CategoryStore</text>
</a>
</g>
</g>
<!-- Node3&#45;&gt;Node7 -->
<g id="edge7" class="edge">
<title>Node3&#45;&gt;Node7</title>
<path fill="none" stroke="midnightblue" d="M431.68,-113.5C448.84,-113.5 467.02,-113.5 484.51,-113.5"/>
<polygon fill="midnightblue" stroke="midnightblue" points="484.72,-117 494.72,-113.5 484.72,-110 484.72,-117"/>
</g>
<!-- Node8 -->
<g id="node8" class="node">
<title>Node8</title>
<g id="a_node8"><a xlink:href="classfspm_1_1config_1_1adapters_1_1JsonFileReader_ade656b5e0e5d950b9997ee04ec01964d.html#ade656b5e0e5d950b9997ee04ec01964d" target="_top" xlink:title="Helper function for getting root/tree node from a JSON file.">
<polygon fill="none" stroke="black" points="504.5,-49.5 504.5,-79.5 653.5,-79.5 653.5,-49.5 504.5,-49.5"/>
<text text-anchor="start" x="512.5" y="-67.5" font-family="Helvetica,sans-Serif" font-size="10.00">fspm.config.adapters.Json</text>
<text text-anchor="middle" x="579" y="-56.5" font-family="Helvetica,sans-Serif" font-size="10.00">FileReader.getTreeFromFile</text>
</a>
</g>
</g>
<!-- Node3&#45;&gt;Node8 -->
<g id="edge8" class="edge">
<title>Node3&#45;&gt;Node8</title>
<path fill="none" stroke="midnightblue" d="M418.92,-98.47C443.81,-93.15 471.99,-87.13 497.65,-81.66"/>
<polygon fill="midnightblue" stroke="midnightblue" points="498.67,-85.02 507.72,-79.51 497.21,-78.17 498.67,-85.02"/>
</g>
<!-- Node9 -->
<g id="node9" class="node">
<title>Node9</title>
<g id="a_node9"><a xlink:href="classfspm_1_1config_1_1params_1_1ParamFactory_aadcecc67803da778c697f1b6683cd5c7.html#aadcecc67803da778c697f1b6683cd5c7" target="_top" xlink:title="Returns a concrete Parameter instance depending on the data type of the JsonNode passed in.">
<polygon fill="none" stroke="black" points="505.5,-0.5 505.5,-30.5 652.5,-30.5 652.5,-0.5 505.5,-0.5"/>
<text text-anchor="start" x="513.5" y="-18.5" font-family="Helvetica,sans-Serif" font-size="10.00">fspm.config.params.Param</text>
<text text-anchor="middle" x="579" y="-7.5" font-family="Helvetica,sans-Serif" font-size="10.00">Factory.parseParameter</text>
</a>
</g>
</g>
<!-- Node3&#45;&gt;Node9 -->
<g id="edge9" class="edge">
<title>Node3&#45;&gt;Node9</title>
<path fill="none" stroke="midnightblue" d="M375.41,-98.36C404.32,-82.5 451.94,-57.57 495,-40.5 500.88,-38.17 507.06,-35.93 513.29,-33.82"/>
<polygon fill="midnightblue" stroke="midnightblue" points="514.67,-37.05 523.08,-30.6 512.49,-30.4 514.67,-37.05"/>
</g>
<!-- Node5 -->
<g id="node5" class="node">
<title>Node5</title>
<g id="a_node5"><a xlink:href="classfspm_1_1util_1_1KeyElement_a653aac67328f98c1201974736671fe0d.html#a653aac67328f98c1201974736671fe0d" target="_top" xlink:title=" ">
<polygon fill="none" stroke="black" points="699,-177 699,-196 857,-196 857,-177 699,-177"/>
<text text-anchor="middle" x="778" y="-184" font-family="Helvetica,sans-Serif" font-size="10.00">fspm.util.KeyElement.getKey</text>
</a>
</g>
</g>
<!-- Node4&#45;&gt;Node5 -->
<g id="edge4" class="edge">
<title>Node4&#45;&gt;Node5</title>
<path fill="none" stroke="midnightblue" d="M663.26,-200.93C672.67,-199.74 682.27,-198.52 691.7,-197.32"/>
<polygon fill="midnightblue" stroke="midnightblue" points="692.38,-200.77 701.86,-196.04 691.5,-193.82 692.38,-200.77"/>
</g>
<!-- Node6&#45;&gt;Node5 -->
<g id="edge6" class="edge">
<title>Node6&#45;&gt;Node5</title>
<path fill="none" stroke="midnightblue" d="M652.52,-171.33C664.34,-172.78 676.71,-174.28 688.86,-175.76"/>
<polygon fill="midnightblue" stroke="midnightblue" points="688.66,-179.26 699.01,-177 689.5,-172.31 688.66,-179.26"/>
</g>
</g>
</svg>
