<?xml version="1.0" encoding="UTF-8" standalone="no"?>
<!DOCTYPE svg PUBLIC "-//W3C//DTD SVG 1.1//EN"
 "http://www.w3.org/Graphics/SVG/1.1/DTD/svg11.dtd">
<!-- Generated by graphviz version 2.43.0 (0)
 -->
<!-- Title: fspm.config.Config.addGroup Pages: 1 -->
<svg width="360pt" height="66pt"
 viewBox="0.00 0.00 360.00 66.00" xmlns="http://www.w3.org/2000/svg" xmlns:xlink="http://www.w3.org/1999/xlink">
<g id="graph0" class="graph" transform="scale(1 1) rotate(0) translate(4 62)">
<title>fspm.config.Config.addGroup</title>
<!-- Node1 -->
<g id="node1" class="node">
<title>Node1</title>
<g id="a_node1"><a xlink:title="Add a new group with a unique key.">
<polygon fill="#bfbfbf" stroke="black" points="0,-19.5 0,-38.5 158,-38.5 158,-19.5 0,-19.5"/>
<text text-anchor="middle" x="79" y="-26.5" font-family="Helvetica,sans-Serif" font-size="10.00">fspm.config.Config.addGroup</text>
</a>
</g>
</g>
<!-- Node2 -->
<g id="node2" class="node">
<title>Node2</title>
<g id="a_node2"><a xlink:href="classfspm_1_1config_1_1Config_a42612499256e159a84e5244fcae25b31.html#a42612499256e159a84e5244fcae25b31" target="_top" xlink:title=" ">
<polygon fill="none" stroke="black" points="194,-38.5 194,-57.5 352,-57.5 352,-38.5 194,-38.5"/>
<text text-anchor="middle" x="273" y="-45.5" font-family="Helvetica,sans-Serif" font-size="10.00">fspm.config.Config.addGroup</text>
</a>
</g>
</g>
<!-- Node1&#45;&gt;Node2 -->
<g id="edge1" class="edge">
<title>Node1&#45;&gt;Node2</title>
<path fill="none" stroke="midnightblue" d="M158.09,-36.73C166.6,-37.57 175.3,-38.43 183.92,-39.28"/>
<polygon fill="midnightblue" stroke="midnightblue" points="183.68,-42.78 193.98,-40.28 184.37,-35.81 183.68,-42.78"/>
</g>
<!-- Node3 -->
<g id="node3" class="node">
<title>Node3</title>
<g id="a_node3"><a xlink:href="classfspm_1_1util_1_1KeyElement_a653aac67328f98c1201974736671fe0d.html#a653aac67328f98c1201974736671fe0d" target="_top" xlink:title=" ">
<polygon fill="none" stroke="black" points="194,-0.5 194,-19.5 352,-19.5 352,-0.5 194,-0.5"/>
<text text-anchor="middle" x="273" y="-7.5" font-family="Helvetica,sans-Serif" font-size="10.00">fspm.util.KeyElement.getKey</text>
</a>
</g>
</g>
<!-- Node1&#45;&gt;Node3 -->
<g id="edge2" class="edge">
<title>Node1&#45;&gt;Node3</title>
<path fill="none" stroke="midnightblue" d="M158.09,-21.27C166.6,-20.43 175.3,-19.57 183.92,-18.72"/>
<polygon fill="midnightblue" stroke="midnightblue" points="184.37,-22.19 193.98,-17.72 183.68,-15.22 184.37,-22.19"/>
</g>
</g>
</svg>
