<?xml version="1.0" encoding="UTF-8" standalone="no"?>
<!DOCTYPE svg PUBLIC "-//W3C//DTD SVG 1.1//EN"
 "http://www.w3.org/Graphics/SVG/1.1/DTD/svg11.dtd">
<!-- Generated by graphviz version 2.43.0 (0)
 -->
<!-- Title: fspm.config.Config.reset Pages: 1 -->
<svg width="534pt" height="78pt"
 viewBox="0.00 0.00 534.00 77.50" xmlns="http://www.w3.org/2000/svg" xmlns:xlink="http://www.w3.org/1999/xlink">
<g id="graph0" class="graph" transform="scale(1 1) rotate(0) translate(4 73.5)">
<title>fspm.config.Config.reset</title>
<!-- Node1 -->
<g id="node1" class="node">
<title>Node1</title>
<g id="a_node1"><a xlink:title=" ">
<polygon fill="#bfbfbf" stroke="black" points="391,-28 391,-47 526,-47 526,-28 391,-28"/>
<text text-anchor="middle" x="458.5" y="-35" font-family="Helvetica,sans-Serif" font-size="10.00">fspm.config.Config.reset</text>
</a>
</g>
</g>
<!-- Node2 -->
<g id="node2" class="node">
<title>Node2</title>
<g id="a_node2"><a xlink:href="classfspm_1_1config_1_1Config_a0884d2ba03a515e43bfcdced93fd31ba.html#a0884d2ba03a515e43bfcdced93fd31ba" target="_top" xlink:title="Class constructor.">
<polygon fill="none" stroke="black" points="210,-50 210,-69 351,-69 351,-50 210,-50"/>
<text text-anchor="middle" x="280.5" y="-57" font-family="Helvetica,sans-Serif" font-size="10.00">fspm.config.Config.Config</text>
</a>
</g>
</g>
<!-- Node1&#45;&gt;Node2 -->
<g id="edge1" class="edge">
<title>Node1&#45;&gt;Node2</title>
<path fill="none" stroke="midnightblue" d="M380.76,-47.09C370.88,-48.33 360.82,-49.59 351.06,-50.8"/>
<polygon fill="midnightblue" stroke="midnightblue" points="381.47,-50.53 390.96,-45.82 380.61,-43.58 381.47,-50.53"/>
</g>
<!-- Node4 -->
<g id="node4" class="node">
<title>Node4</title>
<g id="a_node4"><a xlink:href="classfspm_1_1config_1_1ConfigTest_a09a38b5eee655b088e4e144df5ad5a85.html#a09a38b5eee655b088e4e144df5ad5a85" target="_top" xlink:title=" ">
<polygon fill="none" stroke="black" points="206,-0.5 206,-30.5 355,-30.5 355,-0.5 206,-0.5"/>
<text text-anchor="start" x="214" y="-18.5" font-family="Helvetica,sans-Serif" font-size="10.00">fspm.config.ConfigTest.test</text>
<text text-anchor="middle" x="280.5" y="-7.5" font-family="Helvetica,sans-Serif" font-size="10.00">_flatCategories</text>
</a>
</g>
</g>
<!-- Node1&#45;&gt;Node4 -->
<g id="edge3" class="edge">
<title>Node1&#45;&gt;Node4</title>
<path fill="none" stroke="midnightblue" d="M381,-27.94C372.44,-26.87 363.73,-25.78 355.2,-24.71"/>
<polygon fill="midnightblue" stroke="midnightblue" points="380.61,-31.42 390.96,-29.18 381.47,-24.47 380.61,-31.42"/>
</g>
<!-- Node3 -->
<g id="node3" class="node">
<title>Node3</title>
<g id="a_node3"><a xlink:href="classfspm_1_1config_1_1Config_a9cbd7ea0f03a7f7b0718542f1ea28081.html#a9cbd7ea0f03a7f7b0718542f1ea28081" target="_top" xlink:title="Gets the singleton instance of the simulation Config.">
<polygon fill="none" stroke="black" points="1.5,-50 1.5,-69 168.5,-69 168.5,-50 1.5,-50"/>
<text text-anchor="middle" x="85" y="-57" font-family="Helvetica,sans-Serif" font-size="10.00">fspm.config.Config.getInstance</text>
</a>
</g>
</g>
<!-- Node2&#45;&gt;Node3 -->
<g id="edge2" class="edge">
<title>Node2&#45;&gt;Node3</title>
<path fill="none" stroke="midnightblue" d="M199.8,-59.5C189.57,-59.5 179.09,-59.5 168.82,-59.5"/>
<polygon fill="midnightblue" stroke="midnightblue" points="199.92,-63 209.92,-59.5 199.92,-56 199.92,-63"/>
</g>
<!-- Node5 -->
<g id="node5" class="node">
<title>Node5</title>
<g id="a_node5"><a xlink:href="classfspm_1_1config_1_1ConfigTest_aacca92fc43946c5a3d4613a1085d59f9.html#aacca92fc43946c5a3d4613a1085d59f9" target="_top" xlink:title=" ">
<polygon fill="none" stroke="black" points="0,-6 0,-25 170,-25 170,-6 0,-6"/>
<text text-anchor="middle" x="85" y="-13" font-family="Helvetica,sans-Serif" font-size="10.00">fspm.config.ConfigTest.runMain</text>
</a>
</g>
</g>
<!-- Node4&#45;&gt;Node5 -->
<g id="edge4" class="edge">
<title>Node4&#45;&gt;Node5</title>
<path fill="none" stroke="midnightblue" d="M195.6,-15.5C187.17,-15.5 178.61,-15.5 170.18,-15.5"/>
<polygon fill="midnightblue" stroke="midnightblue" points="195.79,-19 205.79,-15.5 195.79,-12 195.79,-19"/>
</g>
</g>
</svg>
