<?xml version="1.0" encoding="UTF-8" standalone="no"?>
<!DOCTYPE svg PUBLIC "-//W3C//DTD SVG 1.1//EN"
 "http://www.w3.org/Graphics/SVG/1.1/DTD/svg11.dtd">
<!-- Generated by graphviz version 2.43.0 (0)
 -->
<!-- Title: fspm.config.params.structures.ParamStructure Pages: 1 -->
<svg width="176pt" height="193pt"
 viewBox="0.00 0.00 176.00 193.00" xmlns="http://www.w3.org/2000/svg" xmlns:xlink="http://www.w3.org/1999/xlink">
<g id="graph0" class="graph" transform="scale(1 1) rotate(0) translate(4 189)">
<title>fspm.config.params.structures.ParamStructure</title>
<!-- Node1 -->
<g id="node1" class="node">
<title>Node1</title>
<g id="a_node1"><a xlink:title="Represents a structure found in ParamGroups that store parameters.">
<polygon fill="#bfbfbf" stroke="black" points="0,-0.5 0,-79.5 168,-79.5 168,-0.5 0,-0.5"/>
<text text-anchor="start" x="8" y="-67.5" font-family="Helvetica,sans-Serif" font-size="10.00">fspm.config.params.structures.</text>
<text text-anchor="middle" x="84" y="-56.5" font-family="Helvetica,sans-Serif" font-size="10.00">ParamStructure</text>
<polyline fill="none" stroke="black" points="0,-49.5 168,-49.5 "/>
<text text-anchor="middle" x="84" y="-37.5" font-family="Helvetica,sans-Serif" font-size="10.00"> </text>
<polyline fill="none" stroke="black" points="0,-30.5 168,-30.5 "/>
<text text-anchor="start" x="8" y="-18.5" font-family="Helvetica,sans-Serif" font-size="10.00">+ ParamStructure()</text>
<text text-anchor="start" x="8" y="-7.5" font-family="Helvetica,sans-Serif" font-size="10.00">+ getGroupKey()</text>
</a>
</g>
</g>
<!-- Node2 -->
<g id="node2" class="node">
<title>Node2</title>
<g id="a_node2"><a xlink:title=" ">
<polygon fill="none" stroke="#bfbfbf" points="61.5,-127.5 61.5,-184.5 106.5,-184.5 106.5,-127.5 61.5,-127.5"/>
<text text-anchor="middle" x="84" y="-172.5" font-family="Helvetica,sans-Serif" font-size="10.00">String</text>
<polyline fill="none" stroke="#bfbfbf" points="61.5,-165.5 106.5,-165.5 "/>
<text text-anchor="middle" x="84" y="-153.5" font-family="Helvetica,sans-Serif" font-size="10.00"> </text>
<polyline fill="none" stroke="#bfbfbf" points="61.5,-146.5 106.5,-146.5 "/>
<text text-anchor="middle" x="84" y="-134.5" font-family="Helvetica,sans-Serif" font-size="10.00"> </text>
</a>
</g>
</g>
<!-- Node2&#45;&gt;Node1 -->
<g id="edge1" class="edge">
<title>Node2&#45;&gt;Node1</title>
<path fill="none" stroke="#404040" d="M84,-127.4C84,-116.63 84,-103.93 84,-91.62"/>
<polygon fill="none" stroke="#404040" points="84,-91.54 80,-85.54 84,-79.54 88,-85.54 84,-91.54"/>
<text text-anchor="middle" x="110.5" y="-101" font-family="Helvetica,sans-Serif" font-size="10.00"> &#45;groupKey</text>
</g>
</g>
</svg>
