<?xml version="1.0" encoding="UTF-8" standalone="no"?>
<!DOCTYPE svg PUBLIC "-//W3C//DTD SVG 1.1//EN"
 "http://www.w3.org/Graphics/SVG/1.1/DTD/svg11.dtd">
<!-- Generated by graphviz version 2.43.0 (0)
 -->
<!-- Title: fspm.config.params.hierarchy.TableHierarchy Pages: 1 -->
<svg width="528pt" height="364pt"
 viewBox="0.00 0.00 527.92 364.00" xmlns="http://www.w3.org/2000/svg" xmlns:xlink="http://www.w3.org/1999/xlink">
<g id="graph0" class="graph" transform="scale(1 1) rotate(0) translate(4 360)">
<title>fspm.config.params.hierarchy.TableHierarchy</title>
<!-- Node1 -->
<g id="node1" class="node">
<title>Node1</title>
<g id="a_node1"><a xlink:title=" ">
<polygon fill="#bfbfbf" stroke="black" points="128.92,-0.5 128.92,-112.5 292.92,-112.5 292.92,-0.5 128.92,-0.5"/>
<text text-anchor="start" x="136.92" y="-100.5" font-family="Helvetica,sans-Serif" font-size="10.00">fspm.config.params.hierarchy.</text>
<text text-anchor="middle" x="210.92" y="-89.5" font-family="Helvetica,sans-Serif" font-size="10.00">TableHierarchy</text>
<polyline fill="none" stroke="black" points="128.92,-82.5 292.92,-82.5 "/>
<text text-anchor="middle" x="210.92" y="-70.5" font-family="Helvetica,sans-Serif" font-size="10.00"> </text>
<polyline fill="none" stroke="black" points="128.92,-63.5 292.92,-63.5 "/>
<text text-anchor="start" x="136.92" y="-51.5" font-family="Helvetica,sans-Serif" font-size="10.00">+ TableHierarchy()</text>
<text text-anchor="start" x="136.92" y="-40.5" font-family="Helvetica,sans-Serif" font-size="10.00">+ addTable()</text>
<text text-anchor="start" x="136.92" y="-29.5" font-family="Helvetica,sans-Serif" font-size="10.00">+ getTable()</text>
<text text-anchor="start" x="136.92" y="-18.5" font-family="Helvetica,sans-Serif" font-size="10.00">+ toString()</text>
<text text-anchor="start" x="136.92" y="-7.5" font-family="Helvetica,sans-Serif" font-size="10.00">+ parse()</text>
</a>
</g>
</g>
<!-- Node2 -->
<g id="node2" class="node">
<title>Node2</title>
<g id="a_node2"><a xlink:href="classfspm_1_1config_1_1params_1_1hierarchy_1_1Hierarchy.html" target="_top" xlink:title=" ">
<polygon fill="none" stroke="black" points="128.92,-160.5 128.92,-239.5 292.92,-239.5 292.92,-160.5 128.92,-160.5"/>
<text text-anchor="start" x="136.92" y="-227.5" font-family="Helvetica,sans-Serif" font-size="10.00">fspm.config.params.hierarchy.</text>
<text text-anchor="middle" x="210.92" y="-216.5" font-family="Helvetica,sans-Serif" font-size="10.00">Hierarchy</text>
<polyline fill="none" stroke="black" points="128.92,-209.5 292.92,-209.5 "/>
<text text-anchor="middle" x="210.92" y="-197.5" font-family="Helvetica,sans-Serif" font-size="10.00"> </text>
<polyline fill="none" stroke="black" points="128.92,-190.5 292.92,-190.5 "/>
<text text-anchor="start" x="136.92" y="-178.5" font-family="Helvetica,sans-Serif" font-size="10.00">+ Hierarchy()</text>
<text text-anchor="start" x="136.92" y="-167.5" font-family="Helvetica,sans-Serif" font-size="10.00">+ getGroupKey()</text>
</a>
</g>
</g>
<!-- Node2&#45;&gt;Node1 -->
<g id="edge1" class="edge">
<title>Node2&#45;&gt;Node1</title>
<path fill="none" stroke="midnightblue" d="M210.92,-150C210.92,-137.92 210.92,-124.91 210.92,-112.56"/>
<polygon fill="none" stroke="midnightblue" points="207.42,-150.33 210.92,-160.33 214.42,-150.33 207.42,-150.33"/>
</g>
<!-- Node3 -->
<g id="node3" class="node">
<title>Node3</title>
<g id="a_node3"><a xlink:title=" ">
<polygon fill="none" stroke="#bfbfbf" points="32.42,-298.5 32.42,-355.5 77.42,-355.5 77.42,-298.5 32.42,-298.5"/>
<text text-anchor="middle" x="54.92" y="-343.5" font-family="Helvetica,sans-Serif" font-size="10.00">String</text>
<polyline fill="none" stroke="#bfbfbf" points="32.42,-336.5 77.42,-336.5 "/>
<text text-anchor="middle" x="54.92" y="-324.5" font-family="Helvetica,sans-Serif" font-size="10.00"> </text>
<polyline fill="none" stroke="#bfbfbf" points="32.42,-317.5 77.42,-317.5 "/>
<text text-anchor="middle" x="54.92" y="-305.5" font-family="Helvetica,sans-Serif" font-size="10.00"> </text>
</a>
</g>
</g>
<!-- Node3&#45;&gt;Node1 -->
<g id="edge3" class="edge">
<title>Node3&#45;&gt;Node1</title>
<path fill="none" stroke="#404040" d="M35.18,-298.24C13.24,-263.65 -15.82,-203.76 10.92,-160 34.36,-121.66 77.17,-97.08 117.2,-81.63"/>
<polygon fill="none" stroke="#404040" points="117.41,-81.55 121.66,-75.73 128.67,-77.41 124.42,-83.23 117.41,-81.55"/>
<text text-anchor="middle" x="65.42" y="-197.5" font-family="Helvetica,sans-Serif" font-size="10.00"> +ROW_PREFIX_FIELD</text>
</g>
<!-- Node3&#45;&gt;Node2 -->
<g id="edge2" class="edge">
<title>Node3&#45;&gt;Node2</title>
<path fill="none" stroke="#404040" d="M77.61,-307.82C97.4,-291.96 126.99,-268.26 153.26,-247.2"/>
<polygon fill="none" stroke="#404040" points="153.4,-247.09 155.59,-240.22 162.77,-239.59 160.59,-246.46 153.4,-247.09"/>
<text text-anchor="middle" x="164.42" y="-266.5" font-family="Helvetica,sans-Serif" font-size="10.00"> &#45;groupKey</text>
</g>
<!-- Node4 -->
<g id="node4" class="node">
<title>Node4</title>
<g id="a_node4"><a xlink:title=" ">
<polygon fill="none" stroke="#bfbfbf" points="311.42,-166 311.42,-234 494.42,-234 494.42,-166 311.42,-166"/>
<text text-anchor="start" x="319.42" y="-222" font-family="Helvetica,sans-Serif" font-size="10.00">Map&lt; String, fspm.config.params.</text>
<text text-anchor="middle" x="402.92" y="-211" font-family="Helvetica,sans-Serif" font-size="10.00">ParamTable &gt;</text>
<polyline fill="none" stroke="#bfbfbf" points="311.42,-204 494.42,-204 "/>
<text text-anchor="middle" x="402.92" y="-192" font-family="Helvetica,sans-Serif" font-size="10.00"> </text>
<polyline fill="none" stroke="#bfbfbf" points="311.42,-185 494.42,-185 "/>
<text text-anchor="middle" x="402.92" y="-173" font-family="Helvetica,sans-Serif" font-size="10.00"> </text>
</a>
</g>
</g>
<!-- Node4&#45;&gt;Node1 -->
<g id="edge4" class="edge">
<title>Node4&#45;&gt;Node1</title>
<path fill="none" stroke="#404040" d="M357.91,-165.82C339.26,-152.08 317,-135.68 295.51,-119.84"/>
<polygon fill="none" stroke="#404040" points="295.37,-119.73 288.17,-119.39 285.71,-112.61 292.91,-112.95 295.37,-119.73"/>
<text text-anchor="middle" x="343.42" y="-134" font-family="Helvetica,sans-Serif" font-size="10.00"> &#45;tables</text>
</g>
<!-- Node5 -->
<g id="node5" class="node">
<title>Node5</title>
<g id="a_node5"><a xlink:title=" ">
<polygon fill="none" stroke="#bfbfbf" points="383.92,-298.5 383.92,-355.5 421.92,-355.5 421.92,-298.5 383.92,-298.5"/>
<text text-anchor="middle" x="402.92" y="-343.5" font-family="Helvetica,sans-Serif" font-size="10.00">Map</text>
<polyline fill="none" stroke="#bfbfbf" points="383.92,-336.5 421.92,-336.5 "/>
<text text-anchor="middle" x="402.92" y="-324.5" font-family="Helvetica,sans-Serif" font-size="10.00"> </text>
<polyline fill="none" stroke="#bfbfbf" points="383.92,-317.5 421.92,-317.5 "/>
<text text-anchor="middle" x="402.92" y="-305.5" font-family="Helvetica,sans-Serif" font-size="10.00"> </text>
</a>
</g>
</g>
<!-- Node5&#45;&gt;Node4 -->
<g id="edge5" class="edge">
<title>Node5&#45;&gt;Node4</title>
<path fill="none" stroke="orange" d="M402.92,-288.05C402.92,-270.96 402.92,-250.96 402.92,-234.44"/>
<polygon fill="orange" stroke="orange" points="399.42,-288.26 402.92,-298.26 406.42,-288.26 399.42,-288.26"/>
<text text-anchor="start" x="402.92" y="-272" font-family="Helvetica,sans-Serif" font-size="10.00"> &lt; String, fspm::config</text>
<text text-anchor="middle" x="461.42" y="-261" font-family="Helvetica,sans-Serif" font-size="10.00">::params::ParamTable &gt;</text>
</g>
</g>
</svg>
