<?xml version="1.0" encoding="UTF-8" standalone="no"?>
<!DOCTYPE svg PUBLIC "-//W3C//DTD SVG 1.1//EN"
 "http://www.w3.org/Graphics/SVG/1.1/DTD/svg11.dtd">
<!-- Generated by graphviz version 2.43.0 (0)
 -->
<!-- Title: fspm.config.params.Parameter.getKey Pages: 1 -->
<svg width="969pt" height="88pt"
 viewBox="0.00 0.00 969.00 88.00" xmlns="http://www.w3.org/2000/svg" xmlns:xlink="http://www.w3.org/1999/xlink">
<g id="graph0" class="graph" transform="scale(1 1) rotate(0) translate(4 84)">
<title>fspm.config.params.Parameter.getKey</title>
<!-- Node1 -->
<g id="node1" class="node">
<title>Node1</title>
<g id="a_node1"><a xlink:title=" ">
<polygon fill="#bfbfbf" stroke="black" points="758,-30 758,-49 961,-49 961,-30 758,-30"/>
<text text-anchor="middle" x="859.5" y="-37" font-family="Helvetica,sans-Serif" font-size="10.00">fspm.config.params.Parameter.getKey</text>
</a>
</g>
</g>
<!-- Node2 -->
<g id="node2" class="node">
<title>Node2</title>
<g id="a_node2"><a xlink:href="classfspm_1_1config_1_1params_1_1ParamCategory_ad03625c20e319546f4f20eec30de6aba.html#ad03625c20e319546f4f20eec30de6aba" target="_top" xlink:title="Adds a new Parameter to the category.">
<polygon fill="none" stroke="black" points="575,-24.5 575,-54.5 722,-54.5 722,-24.5 575,-24.5"/>
<text text-anchor="start" x="583" y="-42.5" font-family="Helvetica,sans-Serif" font-size="10.00">fspm.config.params.Param</text>
<text text-anchor="middle" x="648.5" y="-31.5" font-family="Helvetica,sans-Serif" font-size="10.00">Category.add</text>
</a>
</g>
</g>
<!-- Node1&#45;&gt;Node2 -->
<g id="edge1" class="edge">
<title>Node1&#45;&gt;Node2</title>
<path fill="none" stroke="midnightblue" d="M747.74,-39.5C739.03,-39.5 730.38,-39.5 722.03,-39.5"/>
<polygon fill="midnightblue" stroke="midnightblue" points="747.98,-43 757.98,-39.5 747.98,-36 747.98,-43"/>
</g>
<!-- Node3 -->
<g id="node3" class="node">
<title>Node3</title>
<g id="a_node3"><a xlink:href="classfspm_1_1config_1_1ConfigTest_ad96b864581ccf61453d97330a34958f8.html#ad96b864581ccf61453d97330a34958f8" target="_top" xlink:title=" ">
<polygon fill="none" stroke="black" points="391,-49.5 391,-79.5 539,-79.5 539,-49.5 391,-49.5"/>
<text text-anchor="start" x="399" y="-67.5" font-family="Helvetica,sans-Serif" font-size="10.00">fspm.config.ConfigTest.add</text>
<text text-anchor="middle" x="465" y="-56.5" font-family="Helvetica,sans-Serif" font-size="10.00">Groups</text>
</a>
</g>
</g>
<!-- Node2&#45;&gt;Node3 -->
<g id="edge2" class="edge">
<title>Node2&#45;&gt;Node3</title>
<path fill="none" stroke="midnightblue" d="M564.99,-50.87C556.42,-52.05 547.75,-53.24 539.29,-54.4"/>
<polygon fill="midnightblue" stroke="midnightblue" points="565.56,-54.32 574.98,-49.49 564.6,-47.39 565.56,-54.32"/>
</g>
<!-- Node6 -->
<g id="node6" class="node">
<title>Node6</title>
<g id="a_node6"><a xlink:href="classfspm_1_1config_1_1adapters_1_1JsonFileReader_a66baa6fc9e08972e7a71cac73d560312.html#a66baa6fc9e08972e7a71cac73d560312" target="_top" xlink:title="Parses and returns a ParamGroup with the parameter contents of the provided file.">
<polygon fill="none" stroke="black" points="393.5,-0.5 393.5,-30.5 536.5,-30.5 536.5,-0.5 393.5,-0.5"/>
<text text-anchor="start" x="401.5" y="-18.5" font-family="Helvetica,sans-Serif" font-size="10.00">fspm.config.adapters.Json</text>
<text text-anchor="middle" x="465" y="-7.5" font-family="Helvetica,sans-Serif" font-size="10.00">FileReader.parse</text>
</a>
</g>
</g>
<!-- Node2&#45;&gt;Node6 -->
<g id="edge6" class="edge">
<title>Node2&#45;&gt;Node6</title>
<path fill="none" stroke="midnightblue" d="M564.83,-28.57C555.41,-27.32 545.87,-26.06 536.63,-24.84"/>
<polygon fill="midnightblue" stroke="midnightblue" points="564.61,-32.07 574.98,-29.91 565.53,-25.13 564.61,-32.07"/>
</g>
<!-- Node4 -->
<g id="node4" class="node">
<title>Node4</title>
<g id="a_node4"><a xlink:href="classfspm_1_1config_1_1ConfigTest_aacca92fc43946c5a3d4613a1085d59f9.html#aacca92fc43946c5a3d4613a1085d59f9" target="_top" xlink:title=" ">
<polygon fill="none" stroke="black" points="0,-55 0,-74 170,-74 170,-55 0,-55"/>
<text text-anchor="middle" x="85" y="-62" font-family="Helvetica,sans-Serif" font-size="10.00">fspm.config.ConfigTest.runMain</text>
</a>
</g>
</g>
<!-- Node3&#45;&gt;Node4 -->
<g id="edge3" class="edge">
<title>Node3&#45;&gt;Node4</title>
<path fill="none" stroke="midnightblue" d="M380.59,-66.19C371.95,-66.32 363.3,-66.42 355,-66.5 288.78,-67.11 272.22,-67.05 206,-66.5 194.44,-66.4 182.25,-66.26 170.25,-66.08"/>
<polygon fill="midnightblue" stroke="midnightblue" points="380.77,-69.69 390.71,-66.03 380.66,-62.69 380.77,-69.69"/>
</g>
<!-- Node5 -->
<g id="node5" class="node">
<title>Node5</title>
<g id="a_node5"><a xlink:href="classfspm_1_1config_1_1ConfigTest_a09a38b5eee655b088e4e144df5ad5a85.html#a09a38b5eee655b088e4e144df5ad5a85" target="_top" xlink:title=" ">
<polygon fill="none" stroke="black" points="206,-27.5 206,-57.5 355,-57.5 355,-27.5 206,-27.5"/>
<text text-anchor="start" x="214" y="-45.5" font-family="Helvetica,sans-Serif" font-size="10.00">fspm.config.ConfigTest.test</text>
<text text-anchor="middle" x="280.5" y="-34.5" font-family="Helvetica,sans-Serif" font-size="10.00">_flatCategories</text>
</a>
</g>
</g>
<!-- Node3&#45;&gt;Node5 -->
<g id="edge4" class="edge">
<title>Node3&#45;&gt;Node5</title>
<path fill="none" stroke="midnightblue" d="M380.87,-54.48C372.34,-53.45 363.71,-52.41 355.29,-51.4"/>
<polygon fill="midnightblue" stroke="midnightblue" points="380.47,-57.96 390.82,-55.68 381.31,-51.01 380.47,-57.96"/>
</g>
<!-- Node5&#45;&gt;Node4 -->
<g id="edge5" class="edge">
<title>Node5&#45;&gt;Node4</title>
<path fill="none" stroke="midnightblue" d="M195.78,-52.02C187.19,-53 178.45,-53.99 169.85,-54.97"/>
<polygon fill="midnightblue" stroke="midnightblue" points="196.25,-55.49 205.79,-50.88 195.46,-48.53 196.25,-55.49"/>
</g>
</g>
</svg>
