<?xml version="1.0" encoding="UTF-8" standalone="no"?>
<!DOCTYPE svg PUBLIC "-//W3C//DTD SVG 1.1//EN"
 "http://www.w3.org/Graphics/SVG/1.1/DTD/svg11.dtd">
<!-- Generated by graphviz version 2.43.0 (0)
 -->
<!-- Title: fspm.config.params.ParamTable Pages: 1 -->
<svg width="401pt" height="419pt"
 viewBox="0.00 0.00 401.00 419.00" xmlns="http://www.w3.org/2000/svg" xmlns:xlink="http://www.w3.org/1999/xlink">
<g id="graph0" class="graph" transform="scale(1 1) rotate(0) translate(4 415)">
<title>fspm.config.params.ParamTable</title>
<!-- Node1 -->
<g id="node1" class="node">
<title>Node1</title>
<g id="a_node1"><a xlink:title=" ">
<polygon fill="#bfbfbf" stroke="black" points="74.5,-0.5 74.5,-178.5 221.5,-178.5 221.5,-0.5 74.5,-0.5"/>
<text text-anchor="start" x="82.5" y="-166.5" font-family="Helvetica,sans-Serif" font-size="10.00">fspm.config.params.Param</text>
<text text-anchor="middle" x="148" y="-155.5" font-family="Helvetica,sans-Serif" font-size="10.00">Table</text>
<polyline fill="none" stroke="black" points="74.5,-148.5 221.5,-148.5 "/>
<text text-anchor="middle" x="148" y="-136.5" font-family="Helvetica,sans-Serif" font-size="10.00"> </text>
<polyline fill="none" stroke="black" points="74.5,-129.5 221.5,-129.5 "/>
<text text-anchor="start" x="82.5" y="-117.5" font-family="Helvetica,sans-Serif" font-size="10.00">+ ParamTable()</text>
<text text-anchor="start" x="82.5" y="-106.5" font-family="Helvetica,sans-Serif" font-size="10.00">+ add()</text>
<text text-anchor="start" x="82.5" y="-95.5" font-family="Helvetica,sans-Serif" font-size="10.00">+ getBoolean()</text>
<text text-anchor="start" x="82.5" y="-84.5" font-family="Helvetica,sans-Serif" font-size="10.00">+ getString()</text>
<text text-anchor="start" x="82.5" y="-73.5" font-family="Helvetica,sans-Serif" font-size="10.00">+ getInteger()</text>
<text text-anchor="start" x="82.5" y="-62.5" font-family="Helvetica,sans-Serif" font-size="10.00">+ getDouble()</text>
<text text-anchor="start" x="82.5" y="-51.5" font-family="Helvetica,sans-Serif" font-size="10.00">+ isNull()</text>
<text text-anchor="start" x="82.5" y="-40.5" font-family="Helvetica,sans-Serif" font-size="10.00">+ toString()</text>
<text text-anchor="start" x="82.5" y="-29.5" font-family="Helvetica,sans-Serif" font-size="10.00">~ getArray()</text>
<text text-anchor="start" x="82.5" y="-18.5" font-family="Helvetica,sans-Serif" font-size="10.00">&#45; set()</text>
<text text-anchor="start" x="82.5" y="-7.5" font-family="Helvetica,sans-Serif" font-size="10.00">&#45; getParameter()</text>
</a>
</g>
</g>
<!-- Node2 -->
<g id="node2" class="node">
<title>Node2</title>
<g id="a_node2"><a xlink:href="classfspm_1_1util_1_1KeyElement.html" target="_top" xlink:title=" ">
<polygon fill="none" stroke="black" points="0,-226.5 0,-294.5 122,-294.5 122,-226.5 0,-226.5"/>
<text text-anchor="middle" x="61" y="-282.5" font-family="Helvetica,sans-Serif" font-size="10.00">fspm.util.KeyElement</text>
<polyline fill="none" stroke="black" points="0,-275.5 122,-275.5 "/>
<text text-anchor="middle" x="61" y="-263.5" font-family="Helvetica,sans-Serif" font-size="10.00"> </text>
<polyline fill="none" stroke="black" points="0,-256.5 122,-256.5 "/>
<text text-anchor="start" x="8" y="-244.5" font-family="Helvetica,sans-Serif" font-size="10.00">+ KeyElement()</text>
<text text-anchor="start" x="8" y="-233.5" font-family="Helvetica,sans-Serif" font-size="10.00">+ getKey()</text>
</a>
</g>
</g>
<!-- Node2&#45;&gt;Node1 -->
<g id="edge1" class="edge">
<title>Node2&#45;&gt;Node1</title>
<path fill="none" stroke="midnightblue" d="M82.86,-217.05C88.89,-205.32 95.67,-192.15 102.52,-178.85"/>
<polygon fill="none" stroke="midnightblue" points="79.65,-215.62 78.19,-226.11 85.88,-218.82 79.65,-215.62"/>
</g>
<!-- Node3 -->
<g id="node3" class="node">
<title>Node3</title>
<g id="a_node3"><a xlink:title=" ">
<polygon fill="none" stroke="#bfbfbf" points="38.5,-353.5 38.5,-410.5 83.5,-410.5 83.5,-353.5 38.5,-353.5"/>
<text text-anchor="middle" x="61" y="-398.5" font-family="Helvetica,sans-Serif" font-size="10.00">String</text>
<polyline fill="none" stroke="#bfbfbf" points="38.5,-391.5 83.5,-391.5 "/>
<text text-anchor="middle" x="61" y="-379.5" font-family="Helvetica,sans-Serif" font-size="10.00"> </text>
<polyline fill="none" stroke="#bfbfbf" points="38.5,-372.5 83.5,-372.5 "/>
<text text-anchor="middle" x="61" y="-360.5" font-family="Helvetica,sans-Serif" font-size="10.00"> </text>
</a>
</g>
</g>
<!-- Node3&#45;&gt;Node2 -->
<g id="edge2" class="edge">
<title>Node3&#45;&gt;Node2</title>
<path fill="none" stroke="#404040" d="M61,-353.28C61,-339.47 61,-322.4 61,-306.75"/>
<polygon fill="none" stroke="#404040" points="61,-306.59 57,-300.59 61,-294.59 65,-300.59 61,-306.59"/>
<text text-anchor="middle" x="73.5" y="-321.5" font-family="Helvetica,sans-Serif" font-size="10.00"> &#45;key</text>
</g>
<!-- Node4 -->
<g id="node4" class="node">
<title>Node4</title>
<g id="a_node4"><a xlink:title=" ">
<polygon fill="none" stroke="#bfbfbf" points="140,-226.5 140,-294.5 332,-294.5 332,-226.5 140,-226.5"/>
<text text-anchor="start" x="148" y="-282.5" font-family="Helvetica,sans-Serif" font-size="10.00">Map&lt; String, List&lt;</text>
<text text-anchor="middle" x="236" y="-271.5" font-family="Helvetica,sans-Serif" font-size="10.00"> fspm.config.params.Parameter &gt; &gt;</text>
<polyline fill="none" stroke="#bfbfbf" points="140,-264.5 332,-264.5 "/>
<text text-anchor="middle" x="236" y="-252.5" font-family="Helvetica,sans-Serif" font-size="10.00"> </text>
<polyline fill="none" stroke="#bfbfbf" points="140,-245.5 332,-245.5 "/>
<text text-anchor="middle" x="236" y="-233.5" font-family="Helvetica,sans-Serif" font-size="10.00"> </text>
</a>
</g>
</g>
<!-- Node4&#45;&gt;Node1 -->
<g id="edge3" class="edge">
<title>Node4&#45;&gt;Node1</title>
<path fill="none" stroke="#404040" d="M218.61,-226.11C213.02,-215.36 206.5,-202.85 199.73,-189.85"/>
<polygon fill="none" stroke="#404040" points="199.55,-189.49 193.23,-186.02 194,-178.85 200.32,-182.32 199.55,-189.49"/>
<text text-anchor="middle" x="223.5" y="-200" font-family="Helvetica,sans-Serif" font-size="10.00"> &#45;rows</text>
</g>
<!-- Node5 -->
<g id="node5" class="node">
<title>Node5</title>
<g id="a_node5"><a xlink:title=" ">
<polygon fill="none" stroke="#bfbfbf" points="217,-353.5 217,-410.5 255,-410.5 255,-353.5 217,-353.5"/>
<text text-anchor="middle" x="236" y="-398.5" font-family="Helvetica,sans-Serif" font-size="10.00">Map</text>
<polyline fill="none" stroke="#bfbfbf" points="217,-391.5 255,-391.5 "/>
<text text-anchor="middle" x="236" y="-379.5" font-family="Helvetica,sans-Serif" font-size="10.00"> </text>
<polyline fill="none" stroke="#bfbfbf" points="217,-372.5 255,-372.5 "/>
<text text-anchor="middle" x="236" y="-360.5" font-family="Helvetica,sans-Serif" font-size="10.00"> </text>
</a>
</g>
</g>
<!-- Node5&#45;&gt;Node4 -->
<g id="edge4" class="edge">
<title>Node5&#45;&gt;Node4</title>
<path fill="none" stroke="orange" d="M236,-342.95C236,-327.4 236,-309.58 236,-294.59"/>
<polygon fill="orange" stroke="orange" points="232.5,-343.28 236,-353.28 239.5,-343.28 232.5,-343.28"/>
<text text-anchor="start" x="236" y="-327" font-family="Helvetica,sans-Serif" font-size="10.00"> &lt; String, List&lt; fspm</text>
<text text-anchor="middle" x="314.5" y="-316" font-family="Helvetica,sans-Serif" font-size="10.00">::config::params::Parameter &gt; &gt;</text>
</g>
</g>
</svg>
