<?xml version="1.0" encoding="UTF-8" standalone="no"?>
<!DOCTYPE svg PUBLIC "-//W3C//DTD SVG 1.1//EN"
 "http://www.w3.org/Graphics/SVG/1.1/DTD/svg11.dtd">
<!-- Generated by graphviz version 2.43.0 (0)
 -->
<!-- Title: fspm.config.ConfigTest.accessExamples Pages: 1 -->
<!--zoomable 279 -->
<svg id="main" version="1.1" xmlns="http://www.w3.org/2000/svg" xmlns:xlink="http://www.w3.org/1999/xlink" xml:space="preserve" onload="init(evt)">
<style type="text/css"><![CDATA[
.edge:hover path { stroke: red; }
.edge:hover polygon { stroke: red; fill: red; }
]]></style>
<script type="text/javascript"><![CDATA[
var edges = document.getElementsByTagName('g');
if (edges && edges.length) {
  for (var i=0;i<edges.length;i++) {
    if (edges[i].id.substr(0,4)=='edge') {
      edges[i].setAttribute('class','edge');
    }
  }
}
]]></script>
        <defs>
                <circle id="rim" cx="0" cy="0" r="7"/>
                <circle id="rim2" cx="0" cy="0" r="3.5"/>
                <g id="zoomPlus">
                        <use xlink:href="#rim" fill="#404040">
                                <set attributeName="fill" to="#808080" begin="zoomplus.mouseover" end="zoomplus.mouseout"/>
                        </use>
                        <path d="M-4,0h8M0,-4v8" fill="none" stroke="white" stroke-width="1.5" pointer-events="none"/>
                </g>
                <g id="zoomMin">
                        <use xlink:href="#rim" fill="#404040">
                                <set attributeName="fill" to="#808080" begin="zoomminus.mouseover" end="zoomminus.mouseout"/>
                        </use>
                        <path d="M-4,0h8" fill="none" stroke="white" stroke-width="1.5" pointer-events="none"/>
                </g>
                <g id="dirArrow">
                        <path fill="none" stroke="white" stroke-width="1.5" d="M0,-3.0v7 M-2.5,-0.5L0,-3.0L2.5,-0.5"/>
                </g>
               <g id="resetDef">
                       <use xlink:href="#rim2" fill="#404040">
                               <set attributeName="fill" to="#808080" begin="reset.mouseover" end="reset.mouseout"/>
                       </use>
               </g>
        </defs>

<script type="text/javascript">
var viewWidth = 1133;
var viewHeight = 279;
var sectionId = 'dynsection-0';
</script>
<script xlink:href="svgpan.js"/>
<svg id="graph" class="graph">
<g id="viewport">
<title>fspm.config.ConfigTest.accessExamples</title>
<!-- Node1 -->
<g id="node1" class="node">
<title>Node1</title>
<g id="a_node1"><a xlink:title=" ">
<polygon fill="#bfbfbf" stroke="black" points="0,-118.5 0,-148.5 163,-148.5 163,-118.5 0,-118.5"/>
<text text-anchor="start" x="8" y="-136.5" font-family="Helvetica,sans-Serif" font-size="10.00">fspm.config.ConfigTest.access</text>
<text text-anchor="middle" x="81.5" y="-125.5" font-family="Helvetica,sans-Serif" font-size="10.00">Examples</text>
</a>
</g>
</g>
<!-- Node2 -->
<g id="node2" class="node">
<title>Node2</title>
<g id="a_node2"><a xlink:href="classfspm_1_1config_1_1Config_ae827f35da2e09b1d18f5a82538db57bc.html#ae827f35da2e09b1d18f5a82538db57bc" target="_top" xlink:title=" ">
<polygon fill="none" stroke="black" points="201,-181 201,-200 367,-200 367,-181 201,-181"/>
<text text-anchor="middle" x="284" y="-188" font-family="Helvetica,sans-Serif" font-size="10.00">fspm.config.Config.getBoolean</text>
</a>
</g>
</g>
<!-- Node1&#45;&gt;Node2 -->
<g id="edge1" class="edge">
<title>Node1&#45;&gt;Node2</title>
<path fill="none" stroke="midnightblue" d="M135.44,-148.55C167.86,-157.77 208.84,-169.42 239.38,-178.1"/>
<polygon fill="midnightblue" stroke="midnightblue" points="238.74,-181.56 249.31,-180.92 240.65,-174.82 238.74,-181.56"/>
</g>
<!-- Node13 -->
<g id="node13" class="node">
<title>Node13</title>
<g id="a_node13"><a xlink:href="classfspm_1_1config_1_1Config_a8ef1527d11b0866fcd366c9fc2b84306.html#a8ef1527d11b0866fcd366c9fc2b84306" target="_top" xlink:title="Gets the parameter group with the given key.">
<polygon fill="none" stroke="black" points="405,-94 405,-113 560,-113 560,-94 405,-94"/>
<text text-anchor="middle" x="482.5" y="-101" font-family="Helvetica,sans-Serif" font-size="10.00">fspm.config.Config.getGroup</text>
</a>
</g>
</g>
<!-- Node1&#45;&gt;Node13 -->
<g id="edge14" class="edge">
<title>Node1&#45;&gt;Node13</title>
<path fill="none" stroke="midnightblue" d="M163.16,-139.29C220.79,-142.02 300,-142.9 369,-133.5 385.45,-131.26 388.97,-127.82 405,-123.5 414.54,-120.93 424.77,-118.22 434.54,-115.66"/>
<polygon fill="midnightblue" stroke="midnightblue" points="435.72,-118.97 444.5,-113.05 433.94,-112.19 435.72,-118.97"/>
</g>
<!-- Node14 -->
<g id="node14" class="node">
<title>Node14</title>
<g id="a_node14"><a xlink:href="classfspm_1_1config_1_1Config_a3be13c8aecc91ab1cd95692ec65df305.html#a3be13c8aecc91ab1cd95692ec65df305" target="_top" xlink:title=" ">
<polygon fill="none" stroke="black" points="206.5,-219 206.5,-238 361.5,-238 361.5,-219 206.5,-219"/>
<text text-anchor="middle" x="284" y="-226" font-family="Helvetica,sans-Serif" font-size="10.00">fspm.config.Config.getString</text>
</a>
</g>
</g>
<!-- Node1&#45;&gt;Node14 -->
<g id="edge15" class="edge">
<title>Node1&#45;&gt;Node14</title>
<path fill="none" stroke="midnightblue" d="M101.09,-148.66C123.14,-165.9 161.64,-193.69 199,-209.5 205.11,-212.08 211.62,-214.34 218.21,-216.31"/>
<polygon fill="midnightblue" stroke="midnightblue" points="217.32,-219.7 227.89,-218.99 219.19,-212.95 217.32,-219.7"/>
</g>
<!-- Node16 -->
<g id="node16" class="node">
<title>Node16</title>
<g id="a_node16"><a xlink:href="classfspm_1_1config_1_1ConfigTest_a1f7ba3e24b4e27a319db83eb75e9f691.html#a1f7ba3e24b4e27a319db83eb75e9f691" target="_top" xlink:title=" ">
<polygon fill="none" stroke="black" points="203.5,-105 203.5,-124 364.5,-124 364.5,-105 203.5,-105"/>
<text text-anchor="middle" x="284" y="-112" font-family="Helvetica,sans-Serif" font-size="10.00">fspm.config.ConfigTest.println</text>
</a>
</g>
</g>
<!-- Node1&#45;&gt;Node16 -->
<g id="edge20" class="edge">
<title>Node1&#45;&gt;Node16</title>
<path fill="none" stroke="midnightblue" d="M163.18,-125.85C173.14,-124.91 183.37,-123.94 193.44,-122.99"/>
<polygon fill="midnightblue" stroke="midnightblue" points="193.83,-126.47 203.46,-122.04 193.17,-119.5 193.83,-126.47"/>
</g>
<!-- Node17 -->
<g id="node17" class="node">
<title>Node17</title>
<g id="a_node17"><a xlink:href="classfspm_1_1config_1_1Config_a2fb672909a4db34c8d754289f25dfc14.html#a2fb672909a4db34c8d754289f25dfc14" target="_top" xlink:title=" ">
<polygon fill="none" stroke="black" points="199,-6.5 199,-36.5 369,-36.5 369,-6.5 199,-6.5"/>
<text text-anchor="start" x="207" y="-24.5" font-family="Helvetica,sans-Serif" font-size="10.00">fspm.config.Config.setCategory</text>
<text text-anchor="middle" x="284" y="-13.5" font-family="Helvetica,sans-Serif" font-size="10.00">Context</text>
</a>
</g>
</g>
<!-- Node1&#45;&gt;Node17 -->
<g id="edge21" class="edge">
<title>Node1&#45;&gt;Node17</title>
<path fill="none" stroke="midnightblue" d="M98.55,-118.26C119.9,-98.76 159.53,-65.18 199,-45.5 202.82,-43.6 206.81,-41.82 210.89,-40.17"/>
<polygon fill="midnightblue" stroke="midnightblue" points="212.42,-43.34 220.54,-36.54 209.95,-36.78 212.42,-43.34"/>
</g>
<!-- Node19 -->
<g id="node19" class="node">
<title>Node19</title>
<g id="a_node19"><a xlink:href="classfspm_1_1config_1_1Config_a97ddea0bf83d5ca1c6c42e8edf12bf7c.html#a97ddea0bf83d5ca1c6c42e8edf12bf7c" target="_top" xlink:title=" ">
<polygon fill="none" stroke="black" points="206.5,-55.5 206.5,-85.5 361.5,-85.5 361.5,-55.5 206.5,-55.5"/>
<text text-anchor="start" x="214.5" y="-73.5" font-family="Helvetica,sans-Serif" font-size="10.00">fspm.config.Config.setGroup</text>
<text text-anchor="middle" x="284" y="-62.5" font-family="Helvetica,sans-Serif" font-size="10.00">Context</text>
</a>
</g>
</g>
<!-- Node1&#45;&gt;Node19 -->
<g id="edge24" class="edge">
<title>Node1&#45;&gt;Node19</title>
<path fill="none" stroke="midnightblue" d="M127.78,-118.43C149.31,-111.34 175.44,-102.85 199,-95.5 206.35,-93.21 214.08,-90.84 221.75,-88.53"/>
<polygon fill="midnightblue" stroke="midnightblue" points="222.84,-91.86 231.4,-85.63 220.82,-85.15 222.84,-91.86"/>
</g>
<!-- Node3 -->
<g id="node3" class="node">
<title>Node3</title>
<g id="a_node3"><a xlink:href="classfspm_1_1config_1_1Config_abce61aaf26cf14b4ae2204ff22c27b57.html#abce61aaf26cf14b4ae2204ff22c27b57" target="_top" xlink:title=" ">
<polygon fill="none" stroke="black" points="413,-132.5 413,-162.5 552,-162.5 552,-132.5 413,-132.5"/>
<text text-anchor="start" x="421" y="-150.5" font-family="Helvetica,sans-Serif" font-size="10.00">fspm.config.Config.check</text>
<text text-anchor="middle" x="482.5" y="-139.5" font-family="Helvetica,sans-Serif" font-size="10.00">ContextsExists</text>
</a>
</g>
</g>
<!-- Node2&#45;&gt;Node3 -->
<g id="edge2" class="edge">
<title>Node2&#45;&gt;Node3</title>
<path fill="none" stroke="midnightblue" d="M328.61,-180.96C350.47,-176.17 377.62,-170.23 402.95,-164.69"/>
<polygon fill="midnightblue" stroke="midnightblue" points="403.9,-168.06 412.92,-162.51 402.41,-161.22 403.9,-168.06"/>
</g>
<!-- Node10 -->
<g id="node10" class="node">
<title>Node10</title>
<g id="a_node10"><a xlink:href="classfspm_1_1config_1_1params_1_1ParamCategory_afa61ab695415b052569467d379bf4a07.html#afa61ab695415b052569467d379bf4a07" target="_top" xlink:title=" ">
<polygon fill="none" stroke="black" points="409,-181.5 409,-211.5 556,-211.5 556,-181.5 409,-181.5"/>
<text text-anchor="start" x="417" y="-199.5" font-family="Helvetica,sans-Serif" font-size="10.00">fspm.config.params.Param</text>
<text text-anchor="middle" x="482.5" y="-188.5" font-family="Helvetica,sans-Serif" font-size="10.00">Category.getBoolean</text>
</a>
</g>
</g>
<!-- Node2&#45;&gt;Node10 -->
<g id="edge10" class="edge">
<title>Node2&#45;&gt;Node10</title>
<path fill="none" stroke="midnightblue" d="M367.2,-193.01C377.53,-193.33 388.1,-193.65 398.45,-193.96"/>
<polygon fill="midnightblue" stroke="midnightblue" points="398.6,-197.47 408.7,-194.28 398.81,-190.47 398.6,-197.47"/>
</g>
<!-- Node4 -->
<g id="node4" class="node">
<title>Node4</title>
<g id="a_node4"><a xlink:href="classfspm_1_1config_1_1Config_a3024c037d3ee426c410cb46ee2cd3497.html#a3024c037d3ee426c410cb46ee2cd3497" target="_top" xlink:title=" ">
<polygon fill="none" stroke="black" points="608,-0.5 608,-30.5 747,-30.5 747,-0.5 608,-0.5"/>
<text text-anchor="start" x="616" y="-18.5" font-family="Helvetica,sans-Serif" font-size="10.00">fspm.config.Config.check</text>
<text text-anchor="middle" x="677.5" y="-7.5" font-family="Helvetica,sans-Serif" font-size="10.00">GroupContextExists</text>
</a>
</g>
</g>
<!-- Node3&#45;&gt;Node4 -->
<g id="edge3" class="edge">
<title>Node3&#45;&gt;Node4</title>
<path fill="none" stroke="midnightblue" d="M545.78,-132.38C550.92,-129.62 555.76,-126.36 560,-122.5 589.73,-95.43 565.92,-66.18 596,-39.5 597.31,-38.34 598.68,-37.23 600.09,-36.17"/>
<polygon fill="midnightblue" stroke="midnightblue" points="602.1,-39.04 608.64,-30.7 598.33,-33.15 602.1,-39.04"/>
</g>
<!-- Node5 -->
<g id="node5" class="node">
<title>Node5</title>
<g id="a_node5"><a xlink:href="classfspm_1_1config_1_1params_1_1ParamCategory_a4e9b4d10f0f293ae181dd272d302d9b4.html#a4e9b4d10f0f293ae181dd272d302d9b4" target="_top" xlink:title="Get generic Parameter with the given key.">
<polygon fill="none" stroke="black" points="795,-93.5 795,-123.5 942,-123.5 942,-93.5 795,-93.5"/>
<text text-anchor="start" x="803" y="-111.5" font-family="Helvetica,sans-Serif" font-size="10.00">fspm.config.params.Param</text>
<text text-anchor="middle" x="868.5" y="-100.5" font-family="Helvetica,sans-Serif" font-size="10.00">Category.get</text>
</a>
</g>
</g>
<!-- Node3&#45;&gt;Node5 -->
<g id="edge4" class="edge">
<title>Node3&#45;&gt;Node5</title>
<path fill="none" stroke="midnightblue" d="M552.07,-134.87C566.54,-132.5 581.74,-130.23 596,-128.5 659.03,-120.87 730.68,-115.74 784.54,-112.59"/>
<polygon fill="midnightblue" stroke="midnightblue" points="784.94,-116.07 794.72,-112 784.54,-109.08 784.94,-116.07"/>
</g>
<!-- Node7 -->
<g id="node7" class="node">
<title>Node7</title>
<g id="a_node7"><a xlink:href="classfspm_1_1config_1_1params_1_1ParamGroup_a4ac641bb901b13ad2186c3d4fe0a75c9.html#a4ac641bb901b13ad2186c3d4fe0a75c9" target="_top" xlink:title=" ">
<polygon fill="none" stroke="black" points="596.5,-49.5 596.5,-79.5 758.5,-79.5 758.5,-49.5 596.5,-49.5"/>
<text text-anchor="start" x="604.5" y="-67.5" font-family="Helvetica,sans-Serif" font-size="10.00">fspm.config.params.Param</text>
<text text-anchor="middle" x="677.5" y="-56.5" font-family="Helvetica,sans-Serif" font-size="10.00">Group.getCategoryWithParam</text>
</a>
</g>
</g>
<!-- Node3&#45;&gt;Node7 -->
<g id="edge6" class="edge">
<title>Node3&#45;&gt;Node7</title>
<path fill="none" stroke="midnightblue" d="M537.56,-132.44C545.27,-129.55 552.97,-126.24 560,-122.5 577.9,-112.99 578.3,-104.38 596,-94.5 603.3,-90.43 611.27,-86.7 619.25,-83.36"/>
<polygon fill="midnightblue" stroke="midnightblue" points="620.61,-86.58 628.6,-79.62 618.02,-80.08 620.61,-86.58"/>
</g>
<!-- Node9 -->
<g id="node9" class="node">
<title>Node9</title>
<g id="a_node9"><a xlink:href="classfspm_1_1config_1_1Config_aa3784bee8f29e4340b60735055eb41a6.html#aa3784bee8f29e4340b60735055eb41a6" target="_top" xlink:title=" ">
<polygon fill="none" stroke="black" points="596,-137.5 596,-167.5 759,-167.5 759,-137.5 596,-137.5"/>
<text text-anchor="start" x="604" y="-155.5" font-family="Helvetica,sans-Serif" font-size="10.00">fspm.config.Config.isCategory</text>
<text text-anchor="middle" x="677.5" y="-144.5" font-family="Helvetica,sans-Serif" font-size="10.00">ContextExists</text>
</a>
</g>
</g>
<!-- Node3&#45;&gt;Node9 -->
<g id="edge9" class="edge">
<title>Node3&#45;&gt;Node9</title>
<path fill="none" stroke="midnightblue" d="M552.09,-149.28C562.95,-149.56 574.34,-149.85 585.62,-150.15"/>
<polygon fill="midnightblue" stroke="midnightblue" points="585.85,-153.65 595.93,-150.41 586.03,-146.65 585.85,-153.65"/>
</g>
<!-- Node6 -->
<g id="node6" class="node">
<title>Node6</title>
<g id="a_node6"><a xlink:href="classfspm_1_1config_1_1params_1_1ParamCategory_aac7a0ce7ab7fafe895ba689f644818ab.html#aac7a0ce7ab7fafe895ba689f644818ab" target="_top" xlink:title=" ">
<polygon fill="none" stroke="black" points="978,-93.5 978,-123.5 1125,-123.5 1125,-93.5 978,-93.5"/>
<text text-anchor="start" x="986" y="-111.5" font-family="Helvetica,sans-Serif" font-size="10.00">fspm.config.params.Param</text>
<text text-anchor="middle" x="1051.5" y="-100.5" font-family="Helvetica,sans-Serif" font-size="10.00">Category.getKey</text>
</a>
</g>
</g>
<!-- Node5&#45;&gt;Node6 -->
<g id="edge5" class="edge">
<title>Node5&#45;&gt;Node6</title>
<path fill="none" stroke="midnightblue" d="M942.08,-108.5C950.56,-108.5 959.26,-108.5 967.87,-108.5"/>
<polygon fill="midnightblue" stroke="midnightblue" points="967.91,-112 977.91,-108.5 967.91,-105 967.91,-112"/>
</g>
<!-- Node7&#45;&gt;Node5 -->
<g id="edge7" class="edge">
<title>Node7&#45;&gt;Node5</title>
<path fill="none" stroke="midnightblue" d="M743.01,-79.52C759.04,-83.25 776.36,-87.28 792.83,-91.12"/>
<polygon fill="midnightblue" stroke="midnightblue" points="792.42,-94.62 802.96,-93.47 794.01,-87.8 792.42,-94.62"/>
</g>
<!-- Node8 -->
<g id="node8" class="node">
<title>Node8</title>
<g id="a_node8"><a xlink:href="classfspm_1_1config_1_1params_1_1ParamGroup_a87d9e7182014d1d981c4067083815878.html#a87d9e7182014d1d981c4067083815878" target="_top" xlink:title=" ">
<polygon fill="none" stroke="black" points="795,-44.5 795,-74.5 942,-74.5 942,-44.5 795,-44.5"/>
<text text-anchor="start" x="803" y="-62.5" font-family="Helvetica,sans-Serif" font-size="10.00">fspm.config.params.Param</text>
<text text-anchor="middle" x="868.5" y="-51.5" font-family="Helvetica,sans-Serif" font-size="10.00">Group.getKey</text>
</a>
</g>
</g>
<!-- Node7&#45;&gt;Node8 -->
<g id="edge8" class="edge">
<title>Node7&#45;&gt;Node8</title>
<path fill="none" stroke="midnightblue" d="M758.65,-62.38C767.26,-62.15 776.03,-61.92 784.66,-61.69"/>
<polygon fill="midnightblue" stroke="midnightblue" points="784.82,-65.19 794.72,-61.43 784.63,-58.19 784.82,-65.19"/>
</g>
<!-- Node11 -->
<g id="node11" class="node">
<title>Node11</title>
<g id="a_node11"><a xlink:href="classfspm_1_1config_1_1params_1_1ParamCategory_aa2e79c693bd5784e3397c328d6363ba9.html#aa2e79c693bd5784e3397c328d6363ba9" target="_top" xlink:title="Helper method to get the parameter of a given key, if it is an instance of the Parameter type class p...">
<polygon fill="none" stroke="black" points="795,-225.5 795,-255.5 942,-255.5 942,-225.5 795,-225.5"/>
<text text-anchor="start" x="803" y="-243.5" font-family="Helvetica,sans-Serif" font-size="10.00">fspm.config.params.Param</text>
<text text-anchor="middle" x="868.5" y="-232.5" font-family="Helvetica,sans-Serif" font-size="10.00">Category.getIfInstanceOf</text>
</a>
</g>
</g>
<!-- Node10&#45;&gt;Node11 -->
<g id="edge11" class="edge">
<title>Node10&#45;&gt;Node11</title>
<path fill="none" stroke="midnightblue" d="M556.03,-198.89C611.77,-201.42 690.55,-206.5 759,-216.5 771.35,-218.3 784.39,-220.73 796.98,-223.35"/>
<polygon fill="midnightblue" stroke="midnightblue" points="796.45,-226.81 806.96,-225.48 797.91,-219.97 796.45,-226.81"/>
</g>
<!-- Node12 -->
<g id="node12" class="node">
<title>Node12</title>
<g id="a_node12"><a xlink:href="classfspm_1_1config_1_1params_1_1ParamCategory_a9df71240a840aa7875fdd8834c4cdbde.html#a9df71240a840aa7875fdd8834c4cdbde" target="_top" xlink:title="Check and return if is NullParam.">
<polygon fill="none" stroke="black" points="604,-225.5 604,-255.5 751,-255.5 751,-225.5 604,-225.5"/>
<text text-anchor="start" x="612" y="-243.5" font-family="Helvetica,sans-Serif" font-size="10.00">fspm.config.params.Param</text>
<text text-anchor="middle" x="677.5" y="-232.5" font-family="Helvetica,sans-Serif" font-size="10.00">Category.isNull</text>
</a>
</g>
</g>
<!-- Node10&#45;&gt;Node12 -->
<g id="edge12" class="edge">
<title>Node10&#45;&gt;Node12</title>
<path fill="none" stroke="midnightblue" d="M549.38,-211.52C565.9,-215.29 583.76,-219.36 600.72,-223.22"/>
<polygon fill="midnightblue" stroke="midnightblue" points="600.06,-226.66 610.59,-225.47 601.62,-219.84 600.06,-226.66"/>
</g>
<!-- Node12&#45;&gt;Node11 -->
<g id="edge13" class="edge">
<title>Node12&#45;&gt;Node11</title>
<path fill="none" stroke="midnightblue" d="M751.03,-240.5C762.03,-240.5 773.45,-240.5 784.65,-240.5"/>
<polygon fill="midnightblue" stroke="midnightblue" points="784.85,-244 794.85,-240.5 784.85,-237 784.85,-244"/>
</g>
<!-- Node14&#45;&gt;Node3 -->
<g id="edge16" class="edge">
<title>Node14&#45;&gt;Node3</title>
<path fill="none" stroke="midnightblue" d="M346.65,-218.91C354.44,-216.46 362.09,-213.37 369,-209.5 389.02,-198.28 385.53,-184.64 405,-172.5 408.37,-170.4 411.94,-168.45 415.62,-166.66"/>
<polygon fill="midnightblue" stroke="midnightblue" points="417.23,-169.77 424.93,-162.5 414.37,-163.38 417.23,-169.77"/>
</g>
<!-- Node15 -->
<g id="node15" class="node">
<title>Node15</title>
<g id="a_node15"><a xlink:href="classfspm_1_1config_1_1params_1_1ParamCategory_a18b0a3b2a74f69aa936eaecf40927c5a.html#a18b0a3b2a74f69aa936eaecf40927c5a" target="_top" xlink:title=" ">
<polygon fill="none" stroke="black" points="409,-230.5 409,-260.5 556,-260.5 556,-230.5 409,-230.5"/>
<text text-anchor="start" x="417" y="-248.5" font-family="Helvetica,sans-Serif" font-size="10.00">fspm.config.params.Param</text>
<text text-anchor="middle" x="482.5" y="-237.5" font-family="Helvetica,sans-Serif" font-size="10.00">Category.getString</text>
</a>
</g>
</g>
<!-- Node14&#45;&gt;Node15 -->
<g id="edge17" class="edge">
<title>Node14&#45;&gt;Node15</title>
<path fill="none" stroke="midnightblue" d="M361.53,-235.12C373.66,-236.17 386.25,-237.26 398.51,-238.32"/>
<polygon fill="midnightblue" stroke="midnightblue" points="398.45,-241.83 408.71,-239.2 399.05,-234.85 398.45,-241.83"/>
</g>
<!-- Node15&#45;&gt;Node11 -->
<g id="edge18" class="edge">
<title>Node15&#45;&gt;Node11</title>
<path fill="none" stroke="midnightblue" d="M556.17,-260.35C569.37,-262.49 583.06,-264.36 596,-265.5 668.16,-271.86 687.02,-273.69 759,-265.5 773.51,-263.85 788.91,-261 803.41,-257.79"/>
<polygon fill="midnightblue" stroke="midnightblue" points="804.31,-261.18 813.28,-255.53 802.75,-254.35 804.31,-261.18"/>
</g>
<!-- Node15&#45;&gt;Node12 -->
<g id="edge19" class="edge">
<title>Node15&#45;&gt;Node12</title>
<path fill="none" stroke="midnightblue" d="M556.19,-243.62C568.38,-243.3 581.11,-242.97 593.53,-242.65"/>
<polygon fill="midnightblue" stroke="midnightblue" points="593.97,-246.14 603.88,-242.38 593.79,-239.14 593.97,-246.14"/>
</g>
<!-- Node17&#45;&gt;Node4 -->
<g id="edge22" class="edge">
<title>Node17&#45;&gt;Node4</title>
<path fill="none" stroke="midnightblue" d="M369.47,-20.21C437.11,-19.17 531.29,-17.73 597.45,-16.71"/>
<polygon fill="midnightblue" stroke="midnightblue" points="597.88,-20.21 607.82,-16.55 597.77,-13.21 597.88,-20.21"/>
</g>
<!-- Node18 -->
<g id="node18" class="node">
<title>Node18</title>
<g id="a_node18"><a xlink:href="classfspm_1_1config_1_1params_1_1ParamGroup_a4da9cac9b387da5302aacfac6552ff84.html#a4da9cac9b387da5302aacfac6552ff84" target="_top" xlink:title="Gets the category with the given key.">
<polygon fill="none" stroke="black" points="409,-44.5 409,-74.5 556,-74.5 556,-44.5 409,-44.5"/>
<text text-anchor="start" x="417" y="-62.5" font-family="Helvetica,sans-Serif" font-size="10.00">fspm.config.params.Param</text>
<text text-anchor="middle" x="482.5" y="-51.5" font-family="Helvetica,sans-Serif" font-size="10.00">Group.getCategory</text>
</a>
</g>
</g>
<!-- Node17&#45;&gt;Node18 -->
<g id="edge23" class="edge">
<title>Node17&#45;&gt;Node18</title>
<path fill="none" stroke="midnightblue" d="M362.66,-36.52C374.56,-38.82 386.89,-41.2 398.89,-43.52"/>
<polygon fill="midnightblue" stroke="midnightblue" points="398.4,-46.99 408.88,-45.46 399.73,-40.12 398.4,-46.99"/>
</g>
<!-- Node19&#45;&gt;Node13 -->
<g id="edge25" class="edge">
<title>Node19&#45;&gt;Node13</title>
<path fill="none" stroke="midnightblue" d="M361.53,-83.35C379.1,-86.3 397.64,-89.42 414.76,-92.29"/>
<polygon fill="midnightblue" stroke="midnightblue" points="414.21,-95.75 424.65,-93.95 415.37,-88.84 414.21,-95.75"/>
</g>
</g>
</svg>
        <g id="navigator" transform="translate(0 0)" fill="#404254">
                <rect fill="#f2f5e9" fill-opacity="0.5" stroke="#606060" stroke-width=".5" x="0" y="0" width="60" height="60"/>
                <use id="zoomplus" xlink:href="#zoomPlus" x="17" y="9" onmousedown="handleZoom(evt,'in')"/>
                <use id="zoomminus" xlink:href="#zoomMin" x="42" y="9" onmousedown="handleZoom(evt,'out')"/>
                <use id="reset" xlink:href="#resetDef" x="30" y="36" onmousedown="handleReset()"/>
                <g id="arrowUp" xlink:href="#dirArrow" transform="translate(30 24)" onmousedown="handlePan(0,-1)">
                  <use xlink:href="#rim" fill="#404040">
                        <set attributeName="fill" to="#808080" begin="arrowUp.mouseover" end="arrowUp.mouseout"/>
                  </use>
                  <path fill="none" stroke="white" stroke-width="1.5" d="M0,-3.0v7 M-2.5,-0.5L0,-3.0L2.5,-0.5"/>
                </g>
                <g id="arrowRight" xlink:href="#dirArrow" transform="rotate(90) translate(36 -43)" onmousedown="handlePan(1,0)">
                  <use xlink:href="#rim" fill="#404040">
                        <set attributeName="fill" to="#808080" begin="arrowRight.mouseover" end="arrowRight.mouseout"/>
                  </use>
                  <path fill="none" stroke="white" stroke-width="1.5" d="M0,-3.0v7 M-2.5,-0.5L0,-3.0L2.5,-0.5"/>
                </g>
                <g id="arrowDown" xlink:href="#dirArrow" transform="rotate(180) translate(-30 -48)" onmousedown="handlePan(0,1)">
                  <use xlink:href="#rim" fill="#404040">
                        <set attributeName="fill" to="#808080" begin="arrowDown.mouseover" end="arrowDown.mouseout"/>
                  </use>
                  <path fill="none" stroke="white" stroke-width="1.5" d="M0,-3.0v7 M-2.5,-0.5L0,-3.0L2.5,-0.5"/>
                </g>
                <g id="arrowLeft" xlink:href="#dirArrow" transform="rotate(270) translate(-36 17)" onmousedown="handlePan(-1,0)">
                  <use xlink:href="#rim" fill="#404040">
                        <set attributeName="fill" to="#808080" begin="arrowLeft.mouseover" end="arrowLeft.mouseout"/>
                  </use>
                  <path fill="none" stroke="white" stroke-width="1.5" d="M0,-3.0v7 M-2.5,-0.5L0,-3.0L2.5,-0.5"/>
                </g>
        </g>
        <svg viewBox="0 0 15 15" width="100%" height="30px" preserveAspectRatio="xMaxYMin meet">
         <g id="arrow_out" transform="scale(0.3 0.3)">
          <a xlink:href="classfspm_1_1config_1_1ConfigTest_a586a428c43c00668f273133c28ddd635_a586a428c43c00668f273133c28ddd635_cgraph_org.svg" target="_base">
           <rect id="button" ry="5" rx="5" y="6" x="6" height="38" width="38"
                fill="#f2f5e9" fill-opacity="0.5" stroke="#606060" stroke-width="1.0"/>
           <path id="arrow"
             d="M 11.500037,31.436501 C 11.940474,20.09759 22.043105,11.32322 32.158766,21.979434 L 37.068811,17.246167 C 37.068811,17.246167 37.088388,32 37.088388,32 L 22.160133,31.978069 C 22.160133,31.978069 26.997745,27.140456 26.997745,27.140456 C 18.528582,18.264221 13.291696,25.230495 11.500037,31.436501 z"
             style="fill:#404040;"/>
          </a>
         </g>
        </svg>
</svg>
