<?xml version="1.0" encoding="UTF-8" standalone="no"?>
<!DOCTYPE svg PUBLIC "-//W3C//DTD SVG 1.1//EN"
 "http://www.w3.org/Graphics/SVG/1.1/DTD/svg11.dtd">
<!-- Generated by graphviz version 2.43.0 (0)
 -->
<!-- Title: fspm.config.params.hierarchy.CategoryHierarchy Pages: 1 -->
<svg width="544pt" height="802pt"
 viewBox="0.00 0.00 544.00 802.00" xmlns="http://www.w3.org/2000/svg" xmlns:xlink="http://www.w3.org/1999/xlink">
<g id="graph0" class="graph" transform="scale(1 1) rotate(0) translate(4 798)">
<title>fspm.config.params.hierarchy.CategoryHierarchy</title>
<!-- Node1 -->
<g id="node1" class="node">
<title>Node1</title>
<g id="a_node1"><a xlink:title=" ">
<polygon fill="#bfbfbf" stroke="black" points="198,-0.5 198,-222.5 362,-222.5 362,-0.5 198,-0.5"/>
<text text-anchor="start" x="206" y="-210.5" font-family="Helvetica,sans-Serif" font-size="10.00">fspm.config.params.hierarchy.</text>
<text text-anchor="middle" x="280" y="-199.5" font-family="Helvetica,sans-Serif" font-size="10.00">CategoryHierarchy</text>
<polyline fill="none" stroke="black" points="198,-192.5 362,-192.5 "/>
<text text-anchor="middle" x="280" y="-180.5" font-family="Helvetica,sans-Serif" font-size="10.00"> </text>
<polyline fill="none" stroke="black" points="198,-173.5 362,-173.5 "/>
<text text-anchor="start" x="206" y="-161.5" font-family="Helvetica,sans-Serif" font-size="10.00">+ CategoryHierarchy()</text>
<text text-anchor="start" x="206" y="-150.5" font-family="Helvetica,sans-Serif" font-size="10.00">+ addCategory()</text>
<text text-anchor="start" x="206" y="-139.5" font-family="Helvetica,sans-Serif" font-size="10.00">+ getCategory()</text>
<text text-anchor="start" x="206" y="-128.5" font-family="Helvetica,sans-Serif" font-size="10.00">+ getCategoryWithParam()</text>
<text text-anchor="start" x="206" y="-117.5" font-family="Helvetica,sans-Serif" font-size="10.00">+ setCategoryContext()</text>
<text text-anchor="start" x="206" y="-106.5" font-family="Helvetica,sans-Serif" font-size="10.00">+ getBoolean()</text>
<text text-anchor="start" x="206" y="-95.5" font-family="Helvetica,sans-Serif" font-size="10.00">+ getString()</text>
<text text-anchor="start" x="206" y="-84.5" font-family="Helvetica,sans-Serif" font-size="10.00">+ getInteger()</text>
<text text-anchor="start" x="206" y="-73.5" font-family="Helvetica,sans-Serif" font-size="10.00">+ getDouble()</text>
<text text-anchor="start" x="206" y="-62.5" font-family="Helvetica,sans-Serif" font-size="10.00">+ getBooleanArray()</text>
<text text-anchor="start" x="206" y="-51.5" font-family="Helvetica,sans-Serif" font-size="10.00">and 18 more...</text>
<text text-anchor="start" x="206" y="-40.5" font-family="Helvetica,sans-Serif" font-size="10.00">+ parse()</text>
<text text-anchor="start" x="206" y="-29.5" font-family="Helvetica,sans-Serif" font-size="10.00">~ getArray()</text>
<text text-anchor="start" x="206" y="-18.5" font-family="Helvetica,sans-Serif" font-size="10.00">~ getArray()</text>
<text text-anchor="start" x="206" y="-7.5" font-family="Helvetica,sans-Serif" font-size="10.00">&#45; validateFlattenedAccess()</text>
</a>
</g>
</g>
<!-- Node2 -->
<g id="node2" class="node">
<title>Node2</title>
<g id="a_node2"><a xlink:href="classfspm_1_1config_1_1params_1_1hierarchy_1_1Hierarchy.html" target="_top" xlink:title=" ">
<polygon fill="none" stroke="black" points="0,-511.5 0,-590.5 164,-590.5 164,-511.5 0,-511.5"/>
<text text-anchor="start" x="8" y="-578.5" font-family="Helvetica,sans-Serif" font-size="10.00">fspm.config.params.hierarchy.</text>
<text text-anchor="middle" x="82" y="-567.5" font-family="Helvetica,sans-Serif" font-size="10.00">Hierarchy</text>
<polyline fill="none" stroke="black" points="0,-560.5 164,-560.5 "/>
<text text-anchor="middle" x="82" y="-548.5" font-family="Helvetica,sans-Serif" font-size="10.00"> </text>
<polyline fill="none" stroke="black" points="0,-541.5 164,-541.5 "/>
<text text-anchor="start" x="8" y="-529.5" font-family="Helvetica,sans-Serif" font-size="10.00">+ Hierarchy()</text>
<text text-anchor="start" x="8" y="-518.5" font-family="Helvetica,sans-Serif" font-size="10.00">+ getGroupKey()</text>
</a>
</g>
</g>
<!-- Node2&#45;&gt;Node1 -->
<g id="edge1" class="edge">
<title>Node2&#45;&gt;Node1</title>
<path fill="none" stroke="midnightblue" d="M84.21,-501.26C88.53,-443.33 101.29,-345.06 139,-270 153.83,-240.48 175.65,-212.26 197.73,-188.06"/>
<polygon fill="none" stroke="midnightblue" points="80.72,-501.03 83.52,-511.25 87.7,-501.52 80.72,-501.03"/>
</g>
<!-- Node3 -->
<g id="node3" class="node">
<title>Node3</title>
<g id="a_node3"><a xlink:title=" ">
<polygon fill="none" stroke="#bfbfbf" points="44.5,-736.5 44.5,-793.5 89.5,-793.5 89.5,-736.5 44.5,-736.5"/>
<text text-anchor="middle" x="67" y="-781.5" font-family="Helvetica,sans-Serif" font-size="10.00">String</text>
<polyline fill="none" stroke="#bfbfbf" points="44.5,-774.5 89.5,-774.5 "/>
<text text-anchor="middle" x="67" y="-762.5" font-family="Helvetica,sans-Serif" font-size="10.00"> </text>
<polyline fill="none" stroke="#bfbfbf" points="44.5,-755.5 89.5,-755.5 "/>
<text text-anchor="middle" x="67" y="-743.5" font-family="Helvetica,sans-Serif" font-size="10.00"> </text>
</a>
</g>
</g>
<!-- Node3&#45;&gt;Node2 -->
<g id="edge2" class="edge">
<title>Node3&#45;&gt;Node2</title>
<path fill="none" stroke="#404040" d="M44.22,-740.99C38.84,-734.14 33.84,-726.24 31,-718 27.81,-708.76 30.11,-705.74 31,-696 34.57,-656.85 32.92,-645.71 47,-609 47.96,-606.49 49.04,-603.97 50.2,-601.45"/>
<polygon fill="none" stroke="#404040" points="50.29,-601.27 49.44,-594.11 55.73,-590.58 56.57,-597.74 50.29,-601.27"/>
<text text-anchor="middle" x="57.5" y="-704.5" font-family="Helvetica,sans-Serif" font-size="10.00"> &#45;groupKey</text>
</g>
<!-- Node5 -->
<g id="node5" class="node">
<title>Node5</title>
<g id="a_node5"><a xlink:href="classfspm_1_1util_1_1KeyElement.html" target="_top" xlink:title=" ">
<polygon fill="none" stroke="black" points="56,-609.5 56,-677.5 178,-677.5 178,-609.5 56,-609.5"/>
<text text-anchor="middle" x="117" y="-665.5" font-family="Helvetica,sans-Serif" font-size="10.00">fspm.util.KeyElement</text>
<polyline fill="none" stroke="black" points="56,-658.5 178,-658.5 "/>
<text text-anchor="middle" x="117" y="-646.5" font-family="Helvetica,sans-Serif" font-size="10.00"> </text>
<polyline fill="none" stroke="black" points="56,-639.5 178,-639.5 "/>
<text text-anchor="start" x="64" y="-627.5" font-family="Helvetica,sans-Serif" font-size="10.00">+ KeyElement()</text>
<text text-anchor="start" x="64" y="-616.5" font-family="Helvetica,sans-Serif" font-size="10.00">+ getKey()</text>
</a>
</g>
</g>
<!-- Node3&#45;&gt;Node5 -->
<g id="edge5" class="edge">
<title>Node3&#45;&gt;Node5</title>
<path fill="none" stroke="#404040" d="M78.6,-736.28C84.49,-722.19 91.8,-704.72 98.46,-688.82"/>
<polygon fill="none" stroke="#404040" points="98.52,-688.66 97.15,-681.58 103.16,-677.59 104.53,-684.67 98.52,-688.66"/>
<text text-anchor="middle" x="107.5" y="-704.5" font-family="Helvetica,sans-Serif" font-size="10.00"> &#45;key</text>
</g>
<!-- Node4 -->
<g id="node4" class="node">
<title>Node4</title>
<g id="a_node4"><a xlink:href="classfspm_1_1config_1_1params_1_1ParamCategory.html" target="_top" xlink:title="A ParamCategory stores Parameters that belong to a common category.">
<polygon fill="none" stroke="black" points="148.5,-270.5 148.5,-492.5 295.5,-492.5 295.5,-270.5 148.5,-270.5"/>
<text text-anchor="start" x="156.5" y="-480.5" font-family="Helvetica,sans-Serif" font-size="10.00">fspm.config.params.Param</text>
<text text-anchor="middle" x="222" y="-469.5" font-family="Helvetica,sans-Serif" font-size="10.00">Category</text>
<polyline fill="none" stroke="black" points="148.5,-462.5 295.5,-462.5 "/>
<text text-anchor="middle" x="222" y="-450.5" font-family="Helvetica,sans-Serif" font-size="10.00"> </text>
<polyline fill="none" stroke="black" points="148.5,-443.5 295.5,-443.5 "/>
<text text-anchor="start" x="156.5" y="-431.5" font-family="Helvetica,sans-Serif" font-size="10.00">+ ParamCategory()</text>
<text text-anchor="start" x="156.5" y="-420.5" font-family="Helvetica,sans-Serif" font-size="10.00">+ addParameter()</text>
<text text-anchor="start" x="156.5" y="-409.5" font-family="Helvetica,sans-Serif" font-size="10.00">+ setParameter()</text>
<text text-anchor="start" x="156.5" y="-398.5" font-family="Helvetica,sans-Serif" font-size="10.00">+ getBoolean()</text>
<text text-anchor="start" x="156.5" y="-387.5" font-family="Helvetica,sans-Serif" font-size="10.00">+ getString()</text>
<text text-anchor="start" x="156.5" y="-376.5" font-family="Helvetica,sans-Serif" font-size="10.00">+ getInteger()</text>
<text text-anchor="start" x="156.5" y="-365.5" font-family="Helvetica,sans-Serif" font-size="10.00">+ getDouble()</text>
<text text-anchor="start" x="156.5" y="-354.5" font-family="Helvetica,sans-Serif" font-size="10.00">+ getBooleanArray()</text>
<text text-anchor="start" x="156.5" y="-343.5" font-family="Helvetica,sans-Serif" font-size="10.00">+ getStringArray()</text>
<text text-anchor="start" x="156.5" y="-332.5" font-family="Helvetica,sans-Serif" font-size="10.00">+ getIntegerArray()</text>
<text text-anchor="start" x="156.5" y="-321.5" font-family="Helvetica,sans-Serif" font-size="10.00">+ getDoubleArray()</text>
<text text-anchor="start" x="156.5" y="-310.5" font-family="Helvetica,sans-Serif" font-size="10.00">+ isNull()</text>
<text text-anchor="start" x="156.5" y="-299.5" font-family="Helvetica,sans-Serif" font-size="10.00">+ getParameter()</text>
<text text-anchor="start" x="156.5" y="-288.5" font-family="Helvetica,sans-Serif" font-size="10.00">+ toString()</text>
<text text-anchor="start" x="156.5" y="-277.5" font-family="Helvetica,sans-Serif" font-size="10.00">~ getArray()</text>
</a>
</g>
</g>
<!-- Node4&#45;&gt;Node1 -->
<g id="edge3" class="edge">
<title>Node4&#45;&gt;Node1</title>
<path fill="none" stroke="#404040" d="M225.07,-270.4C226.32,-260.41 227.94,-250.48 230,-241 230.48,-238.81 230.98,-236.62 231.52,-234.41"/>
<polygon fill="none" stroke="#404040" points="231.58,-234.17 229.25,-227.35 234.65,-222.57 236.98,-229.39 231.58,-234.17"/>
<text text-anchor="middle" x="274" y="-244" font-family="Helvetica,sans-Serif" font-size="10.00"> &#45;categoryContext</text>
</g>
<!-- Node5&#45;&gt;Node4 -->
<g id="edge4" class="edge">
<title>Node5&#45;&gt;Node4</title>
<path fill="none" stroke="midnightblue" d="M165.68,-601.61C168.38,-598.2 170.86,-594.66 173,-591 190.36,-561.31 201.57,-525.85 208.81,-492.67"/>
<polygon fill="none" stroke="midnightblue" points="162.92,-599.45 159.02,-609.3 168.21,-604.04 162.92,-599.45"/>
</g>
<!-- Node6 -->
<g id="node6" class="node">
<title>Node6</title>
<g id="a_node6"><a xlink:title=" ">
<polygon fill="none" stroke="#bfbfbf" points="196.5,-609.5 196.5,-677.5 379.5,-677.5 379.5,-609.5 196.5,-609.5"/>
<text text-anchor="start" x="204.5" y="-665.5" font-family="Helvetica,sans-Serif" font-size="10.00">Map&lt; String, fspm.config.params.</text>
<text text-anchor="middle" x="288" y="-654.5" font-family="Helvetica,sans-Serif" font-size="10.00">Parameter &gt;</text>
<polyline fill="none" stroke="#bfbfbf" points="196.5,-647.5 379.5,-647.5 "/>
<text text-anchor="middle" x="288" y="-635.5" font-family="Helvetica,sans-Serif" font-size="10.00"> </text>
<polyline fill="none" stroke="#bfbfbf" points="196.5,-628.5 379.5,-628.5 "/>
<text text-anchor="middle" x="288" y="-616.5" font-family="Helvetica,sans-Serif" font-size="10.00"> </text>
</a>
</g>
</g>
<!-- Node6&#45;&gt;Node4 -->
<g id="edge6" class="edge">
<title>Node6&#45;&gt;Node4</title>
<path fill="none" stroke="#404040" d="M265.6,-609.34C262.31,-603.42 259.28,-597.17 257,-591 246.93,-563.77 239.75,-533.46 234.62,-504.57"/>
<polygon fill="none" stroke="#404040" points="234.62,-504.56 229.67,-499.31 232.62,-492.73 237.56,-497.97 234.62,-504.56"/>
<text text-anchor="middle" x="279" y="-548.5" font-family="Helvetica,sans-Serif" font-size="10.00"> &#45;params</text>
</g>
<!-- Node7 -->
<g id="node7" class="node">
<title>Node7</title>
<g id="a_node7"><a xlink:title=" ">
<polygon fill="none" stroke="#bfbfbf" points="329,-736.5 329,-793.5 367,-793.5 367,-736.5 329,-736.5"/>
<text text-anchor="middle" x="348" y="-781.5" font-family="Helvetica,sans-Serif" font-size="10.00">Map</text>
<polyline fill="none" stroke="#bfbfbf" points="329,-774.5 367,-774.5 "/>
<text text-anchor="middle" x="348" y="-762.5" font-family="Helvetica,sans-Serif" font-size="10.00"> </text>
<polyline fill="none" stroke="#bfbfbf" points="329,-755.5 367,-755.5 "/>
<text text-anchor="middle" x="348" y="-743.5" font-family="Helvetica,sans-Serif" font-size="10.00"> </text>
</a>
</g>
</g>
<!-- Node7&#45;&gt;Node6 -->
<g id="edge7" class="edge">
<title>Node7&#45;&gt;Node6</title>
<path fill="none" stroke="orange" d="M319.4,-751.93C305.42,-744.39 289.93,-733.19 282,-718 275.6,-705.74 275.67,-690.75 277.89,-677.5"/>
<polygon fill="orange" stroke="orange" points="318.21,-755.25 328.72,-756.57 321.33,-748.98 318.21,-755.25"/>
<text text-anchor="start" x="282" y="-710" font-family="Helvetica,sans-Serif" font-size="10.00"> &lt; String, fspm::config</text>
<text text-anchor="middle" x="337.5" y="-699" font-family="Helvetica,sans-Serif" font-size="10.00">::params::Parameter &gt;</text>
</g>
<!-- Node8 -->
<g id="node8" class="node">
<title>Node8</title>
<g id="a_node8"><a xlink:title=" ">
<polygon fill="none" stroke="#bfbfbf" points="309.5,-517 309.5,-585 492.5,-585 492.5,-517 309.5,-517"/>
<text text-anchor="start" x="317.5" y="-573" font-family="Helvetica,sans-Serif" font-size="10.00">Map&lt; String, fspm.config.params.</text>
<text text-anchor="middle" x="401" y="-562" font-family="Helvetica,sans-Serif" font-size="10.00">ParamCategory &gt;</text>
<polyline fill="none" stroke="#bfbfbf" points="309.5,-555 492.5,-555 "/>
<text text-anchor="middle" x="401" y="-543" font-family="Helvetica,sans-Serif" font-size="10.00"> </text>
<polyline fill="none" stroke="#bfbfbf" points="309.5,-536 492.5,-536 "/>
<text text-anchor="middle" x="401" y="-524" font-family="Helvetica,sans-Serif" font-size="10.00"> </text>
</a>
</g>
</g>
<!-- Node7&#45;&gt;Node8 -->
<g id="edge9" class="edge">
<title>Node7&#45;&gt;Node8</title>
<path fill="none" stroke="orange" d="M374.9,-742.93C382.07,-735.84 388.93,-727.33 393,-718 411.74,-675.02 409.92,-619.72 406.08,-585.06"/>
<polygon fill="orange" stroke="orange" points="372.15,-740.71 367.14,-750.05 376.87,-745.87 372.15,-740.71"/>
<text text-anchor="start" x="400" y="-710" font-family="Helvetica,sans-Serif" font-size="10.00"> &lt; String, fspm::config</text>
<text text-anchor="middle" x="468" y="-699" font-family="Helvetica,sans-Serif" font-size="10.00">::params::ParamCategory &gt;</text>
</g>
<!-- Node8&#45;&gt;Node1 -->
<g id="edge8" class="edge">
<title>Node8&#45;&gt;Node1</title>
<path fill="none" stroke="#404040" d="M358.04,-516.84C351.31,-509.7 345.2,-501.66 341,-493 291.98,-391.78 339.16,-351.46 318,-241 317.58,-238.82 317.14,-236.63 316.69,-234.43"/>
<polygon fill="none" stroke="#404040" points="316.65,-234.27 311.45,-229.28 314.07,-222.56 319.27,-227.55 316.65,-234.27"/>
<text text-anchor="middle" x="370" y="-379" font-family="Helvetica,sans-Serif" font-size="10.00"> &#45;categories</text>
</g>
<!-- Node9 -->
<g id="node9" class="node">
<title>Node9</title>
<g id="a_node9"><a xlink:title=" ">
<polygon fill="none" stroke="#bfbfbf" points="408,-353 408,-410 464,-410 464,-353 408,-353"/>
<text text-anchor="middle" x="436" y="-398" font-family="Helvetica,sans-Serif" font-size="10.00">boolean</text>
<polyline fill="none" stroke="#bfbfbf" points="408,-391 464,-391 "/>
<text text-anchor="middle" x="436" y="-379" font-family="Helvetica,sans-Serif" font-size="10.00"> </text>
<polyline fill="none" stroke="#bfbfbf" points="408,-372 464,-372 "/>
<text text-anchor="middle" x="436" y="-360" font-family="Helvetica,sans-Serif" font-size="10.00"> </text>
</a>
</g>
</g>
<!-- Node9&#45;&gt;Node1 -->
<g id="edge10" class="edge">
<title>Node9&#45;&gt;Node1</title>
<path fill="none" stroke="#404040" d="M427.73,-352.83C420.37,-329.93 408.52,-296.91 394,-270 386.45,-256.02 377.83,-241.85 368.77,-228.04"/>
<polygon fill="none" stroke="#404040" points="368.77,-228.04 362.12,-225.27 362.12,-218.06 368.77,-220.83 368.77,-228.04"/>
<text text-anchor="middle" x="447" y="-244" font-family="Helvetica,sans-Serif" font-size="10.00"> +useFlattenedCategories</text>
</g>
</g>
</svg>
