<?xml version="1.0" encoding="UTF-8" standalone="no"?>
<!DOCTYPE svg PUBLIC "-//W3C//DTD SVG 1.1//EN"
 "http://www.w3.org/Graphics/SVG/1.1/DTD/svg11.dtd">
<!-- Generated by graphviz version 2.43.0 (0)
 -->
<!-- Title: io.github.fruitcropxl.config.params.structures.CategoryStore.getDoubleArray Pages: 1 -->
<svg width="1296pt" height="193pt"
 viewBox="0.00 0.00 1296.00 193.00" xmlns="http://www.w3.org/2000/svg" xmlns:xlink="http://www.w3.org/1999/xlink">
<g id="graph0" class="graph" transform="scale(1 1) rotate(0) translate(4 189)">
<title>io.github.fruitcropxl.config.params.structures.CategoryStore.getDoubleArray</title>
<!-- Node1 -->
<g id="Node000001" class="node">
<title>Node1</title>
<g id="a_Node000001"><a xlink:title=" ">
<polygon fill="#999999" stroke="#666666" points="239,-92 0,-92 0,-62 239,-62 239,-92"/>
<text text-anchor="start" x="8" y="-80" font-family="Helvetica,sans-Serif" font-size="10.00">io.github.fruitcropxl.config.params.structures.</text>
<text text-anchor="middle" x="119.5" y="-69" font-family="Helvetica,sans-Serif" font-size="10.00">CategoryStore.getDoubleArray</text>
</a>
</g>
</g>
<!-- Node2 -->
<g id="Node000002" class="node">
<title>Node2</title>
<g id="a_Node000002"><a xlink:href="classio_1_1github_1_1fruitcropxl_1_1config_1_1params_1_1structures_1_1CategoryStore_a67390ee277336b6472d8ec095298f722.html#a67390ee277336b6472d8ec095298f722" target="_top" xlink:title=" ">
<polygon fill="white" stroke="#666666" points="514,-92 275,-92 275,-62 514,-62 514,-92"/>
<text text-anchor="start" x="283" y="-80" font-family="Helvetica,sans-Serif" font-size="10.00">io.github.fruitcropxl.config.params.structures.</text>
<text text-anchor="middle" x="394.5" y="-69" font-family="Helvetica,sans-Serif" font-size="10.00">CategoryStore.getArray</text>
</a>
</g>
</g>
<!-- Node1&#45;&gt;Node2 -->
<g id="edge1_Node000001_Node000002" class="edge">
<title>Node1&#45;&gt;Node2</title>
<g id="a_edge1_Node000001_Node000002"><a xlink:title=" ">
<path fill="none" stroke="#63b8ff" d="M239.05,-77C247.44,-77 255.92,-77 264.36,-77"/>
<polygon fill="#63b8ff" stroke="#63b8ff" points="264.63,-80.5 274.63,-77 264.63,-73.5 264.63,-80.5"/>
</a>
</g>
</g>
<!-- Node3 -->
<g id="Node000003" class="node">
<title>Node3</title>
<g id="a_Node000003"><a xlink:href="classio_1_1github_1_1fruitcropxl_1_1config_1_1params_1_1ParamCategory_ac64ba4716a6f5a7cbbe77b5b8154dd7d.html#ac64ba4716a6f5a7cbbe77b5b8154dd7d" target="_top" xlink:title=" ">
<polygon fill="white" stroke="#666666" points="763.5,-116 575.5,-116 575.5,-86 763.5,-86 763.5,-116"/>
<text text-anchor="start" x="583.5" y="-104" font-family="Helvetica,sans-Serif" font-size="10.00">io.github.fruitcropxl.config.params.</text>
<text text-anchor="middle" x="669.5" y="-93" font-family="Helvetica,sans-Serif" font-size="10.00">ParamCategory.getArray</text>
</a>
</g>
</g>
<!-- Node2&#45;&gt;Node3 -->
<g id="edge2_Node000002_Node000003" class="edge">
<title>Node2&#45;&gt;Node3</title>
<g id="a_edge2_Node000002_Node000003"><a xlink:title=" ">
<path fill="none" stroke="#63b8ff" d="M514.05,-87.42C530.97,-88.91 548.27,-90.43 564.87,-91.89"/>
<polygon fill="#63b8ff" stroke="#63b8ff" points="564.85,-95.4 575.11,-92.79 565.46,-88.43 564.85,-95.4"/>
</a>
</g>
</g>
<!-- Node8 -->
<g id="Node000008" class="node">
<title>Node8</title>
<g id="a_Node000008"><a xlink:href="classio_1_1github_1_1fruitcropxl_1_1config_1_1params_1_1structures_1_1CategoryStore_aa90095e4111da0b9c60d098de4a89a4f.html#aa90095e4111da0b9c60d098de4a89a4f" target="_top" xlink:title=" ">
<polygon fill="white" stroke="#666666" points="789,-68 550,-68 550,-38 789,-38 789,-68"/>
<text text-anchor="start" x="558" y="-56" font-family="Helvetica,sans-Serif" font-size="10.00">io.github.fruitcropxl.config.params.structures.</text>
<text text-anchor="middle" x="669.5" y="-45" font-family="Helvetica,sans-Serif" font-size="10.00">CategoryStore.validateFlattenedAccess</text>
</a>
</g>
</g>
<!-- Node2&#45;&gt;Node8 -->
<g id="edge7_Node000002_Node000008" class="edge">
<title>Node2&#45;&gt;Node8</title>
<g id="a_edge7_Node000002_Node000008"><a xlink:title=" ">
<path fill="none" stroke="#63b8ff" d="M514.05,-66.58C522.53,-65.83 531.11,-65.08 539.64,-64.33"/>
<polygon fill="#63b8ff" stroke="#63b8ff" points="539.98,-67.81 549.63,-63.45 539.37,-60.84 539.98,-67.81"/>
</a>
</g>
</g>
<!-- Node4 -->
<g id="Node000004" class="node">
<title>Node4</title>
<g id="a_Node000004"><a xlink:href="classio_1_1github_1_1fruitcropxl_1_1config_1_1params_1_1Parameter_af214f779c4a3550b86aef81d1aca6317.html#af214f779c4a3550b86aef81d1aca6317" target="_top" xlink:title="Generic method for getting arrays of a given type.">
<polygon fill="white" stroke="#666666" points="1038.5,-154 850.5,-154 850.5,-124 1038.5,-124 1038.5,-154"/>
<text text-anchor="start" x="858.5" y="-142" font-family="Helvetica,sans-Serif" font-size="10.00">io.github.fruitcropxl.config.params.</text>
<text text-anchor="middle" x="944.5" y="-131" font-family="Helvetica,sans-Serif" font-size="10.00">Parameter.asArray</text>
</a>
</g>
</g>
<!-- Node3&#45;&gt;Node4 -->
<g id="edge3_Node000003_Node000004" class="edge">
<title>Node3&#45;&gt;Node4</title>
<g id="a_edge3_Node000003_Node000004"><a xlink:title=" ">
<path fill="none" stroke="#63b8ff" d="M763.69,-113.97C788.37,-117.41 815.16,-121.14 840.34,-124.64"/>
<polygon fill="#63b8ff" stroke="#63b8ff" points="839.88,-128.11 850.27,-126.02 840.85,-121.18 839.88,-128.11"/>
</a>
</g>
</g>
<!-- Node7 -->
<g id="Node000007" class="node">
<title>Node7</title>
<g id="a_Node000007"><a xlink:href="classio_1_1github_1_1fruitcropxl_1_1config_1_1params_1_1ParamCategory_ad96823e990040d8e36517b130dd87b74.html#ad96823e990040d8e36517b130dd87b74" target="_top" xlink:title="Get generic Parameter with the given key.">
<polygon fill="white" stroke="#666666" points="1288,-73 1100,-73 1100,-43 1288,-43 1288,-73"/>
<text text-anchor="start" x="1108" y="-61" font-family="Helvetica,sans-Serif" font-size="10.00">io.github.fruitcropxl.config.params.</text>
<text text-anchor="middle" x="1194" y="-50" font-family="Helvetica,sans-Serif" font-size="10.00">ParamCategory.getParameter</text>
</a>
</g>
</g>
<!-- Node3&#45;&gt;Node7 -->
<g id="edge6_Node000003_Node000007" class="edge">
<title>Node3&#45;&gt;Node7</title>
<g id="a_edge6_Node000003_Node000007"><a xlink:title=" ">
<path fill="none" stroke="#63b8ff" d="M763.53,-93.54C843.27,-87.12 961.2,-77.56 1064,-69 1072.37,-68.3 1081.05,-67.57 1089.76,-66.84"/>
<polygon fill="#63b8ff" stroke="#63b8ff" points="1090.32,-70.3 1099.99,-65.97 1089.74,-63.33 1090.32,-70.3"/>
</a>
</g>
</g>
<!-- Node5 -->
<g id="Node000005" class="node">
<title>Node5</title>
<g id="a_Node000005"><a xlink:href="classio_1_1github_1_1fruitcropxl_1_1config_1_1params_1_1Parameter_afb814e7b56aca911abaa4ea6cec8dfa9.html#afb814e7b56aca911abaa4ea6cec8dfa9" target="_top" xlink:title="Check which type the double value has been parsed as.">
<polygon fill="white" stroke="#666666" points="1288,-185 1100,-185 1100,-155 1288,-155 1288,-185"/>
<text text-anchor="start" x="1108" y="-173" font-family="Helvetica,sans-Serif" font-size="10.00">io.github.fruitcropxl.config.params.</text>
<text text-anchor="middle" x="1194" y="-162" font-family="Helvetica,sans-Serif" font-size="10.00">Parameter.getDoubleType</text>
</a>
</g>
</g>
<!-- Node4&#45;&gt;Node5 -->
<g id="edge4_Node000004_Node000005" class="edge">
<title>Node4&#45;&gt;Node5</title>
<g id="a_edge4_Node000004_Node000005"><a xlink:title=" ">
<path fill="none" stroke="#63b8ff" d="M1038.72,-150.68C1055.44,-152.77 1072.96,-154.96 1089.94,-157.09"/>
<polygon fill="#63b8ff" stroke="#63b8ff" points="1089.51,-160.56 1099.87,-158.33 1090.38,-153.62 1089.51,-160.56"/>
</a>
</g>
</g>
<!-- Node6 -->
<g id="Node000006" class="node">
<title>Node6</title>
<g id="a_Node000006"><a xlink:href="classio_1_1github_1_1fruitcropxl_1_1config_1_1params_1_1Parameter_aa989e0ad581b0dc655b75ccbf70cb26e.html#aa989e0ad581b0dc655b75ccbf70cb26e" target="_top" xlink:title=" ">
<polygon fill="white" stroke="#666666" points="1288,-137 1100,-137 1100,-107 1288,-107 1288,-137"/>
<text text-anchor="start" x="1108" y="-125" font-family="Helvetica,sans-Serif" font-size="10.00">io.github.fruitcropxl.config.params.</text>
<text text-anchor="middle" x="1194" y="-114" font-family="Helvetica,sans-Serif" font-size="10.00">Parameter.isNull</text>
</a>
</g>
</g>
<!-- Node4&#45;&gt;Node6 -->
<g id="edge5_Node000004_Node000006" class="edge">
<title>Node4&#45;&gt;Node6</title>
<g id="a_edge5_Node000004_Node000006"><a xlink:title=" ">
<path fill="none" stroke="#63b8ff" d="M1038.72,-132.6C1055.28,-131.46 1072.63,-130.27 1089.46,-129.11"/>
<polygon fill="#63b8ff" stroke="#63b8ff" points="1090.13,-132.57 1099.87,-128.4 1089.65,-125.59 1090.13,-132.57"/>
</a>
</g>
</g>
<!-- Node8&#45;&gt;Node7 -->
<g id="edge10_Node000008_Node000007" class="edge">
<title>Node8&#45;&gt;Node7</title>
<g id="a_edge10_Node000008_Node000007"><a xlink:title=" ">
<path fill="none" stroke="#63b8ff" d="M789.06,-54.13C879.57,-55 1003.04,-56.18 1089.57,-57.01"/>
<polygon fill="#63b8ff" stroke="#63b8ff" points="1089.63,-60.51 1099.67,-57.11 1089.7,-53.51 1089.63,-60.51"/>
</a>
</g>
</g>
<!-- Node9 -->
<g id="Node000009" class="node">
<title>Node9</title>
<g id="a_Node000009"><a xlink:href="classio_1_1github_1_1fruitcropxl_1_1config_1_1params_1_1structures_1_1CategoryStore_a9b2ec8a2beb1fd75ac2fb60a9389ac84.html#a9b2ec8a2beb1fd75ac2fb60a9389ac84" target="_top" xlink:title=" ">
<polygon fill="white" stroke="#666666" points="1064,-30 825,-30 825,0 1064,0 1064,-30"/>
<text text-anchor="start" x="833" y="-18" font-family="Helvetica,sans-Serif" font-size="10.00">io.github.fruitcropxl.config.params.structures.</text>
<text text-anchor="middle" x="944.5" y="-7" font-family="Helvetica,sans-Serif" font-size="10.00">CategoryStore.getCategoryWithParam</text>
</a>
</g>
</g>
<!-- Node8&#45;&gt;Node9 -->
<g id="edge8_Node000008_Node000009" class="edge">
<title>Node8&#45;&gt;Node9</title>
<g id="a_edge8_Node000008_Node000009"><a xlink:title=" ">
<path fill="none" stroke="#63b8ff" d="M778.4,-37.98C793.8,-35.84 809.71,-33.62 825.3,-31.45"/>
<polygon fill="#63b8ff" stroke="#63b8ff" points="826.07,-34.88 835.49,-30.03 825.11,-27.95 826.07,-34.88"/>
</a>
</g>
</g>
<!-- Node9&#45;&gt;Node7 -->
<g id="edge9_Node000009_Node000007" class="edge">
<title>Node9&#45;&gt;Node7</title>
<g id="a_edge9_Node000009_Node000007"><a xlink:title=" ">
<path fill="none" stroke="#63b8ff" d="M1032.06,-30.04C1052.88,-33.66 1075.25,-37.54 1096.49,-41.23"/>
<polygon fill="#63b8ff" stroke="#63b8ff" points="1096.03,-44.71 1106.49,-42.97 1097.23,-37.81 1096.03,-44.71"/>
</a>
</g>
</g>
</g>
</svg>
