<?xml version="1.0" encoding="UTF-8" standalone="no"?>
<!DOCTYPE svg PUBLIC "-//W3C//DTD SVG 1.1//EN"
 "http://www.w3.org/Graphics/SVG/1.1/DTD/svg11.dtd">
<!-- Generated by graphviz version 2.43.0 (0)
 -->
<!-- Title: fspm.config.params.ParamGroup.getCategoryWithParam Pages: 1 -->
<svg width="536pt" height="88pt"
 viewBox="0.00 0.00 536.00 88.00" xmlns="http://www.w3.org/2000/svg" xmlns:xlink="http://www.w3.org/1999/xlink">
<g id="graph0" class="graph" transform="scale(1 1) rotate(0) translate(4 84)">
<title>fspm.config.params.ParamGroup.getCategoryWithParam</title>
<!-- Node1 -->
<g id="node1" class="node">
<title>Node1</title>
<g id="a_node1"><a xlink:title=" ">
<polygon fill="#bfbfbf" stroke="black" points="0,-24.5 0,-54.5 162,-54.5 162,-24.5 0,-24.5"/>
<text text-anchor="start" x="8" y="-42.5" font-family="Helvetica,sans-Serif" font-size="10.00">fspm.config.params.Param</text>
<text text-anchor="middle" x="81" y="-31.5" font-family="Helvetica,sans-Serif" font-size="10.00">Group.getCategoryWithParam</text>
</a>
</g>
</g>
<!-- Node2 -->
<g id="node2" class="node">
<title>Node2</title>
<g id="a_node2"><a xlink:href="classfspm_1_1config_1_1params_1_1ParamCategory_a4e9b4d10f0f293ae181dd272d302d9b4.html#a4e9b4d10f0f293ae181dd272d302d9b4" target="_top" xlink:title="Get generic Parameter with the given key.">
<polygon fill="none" stroke="black" points="198,-49.5 198,-79.5 345,-79.5 345,-49.5 198,-49.5"/>
<text text-anchor="start" x="206" y="-67.5" font-family="Helvetica,sans-Serif" font-size="10.00">fspm.config.params.Param</text>
<text text-anchor="middle" x="271.5" y="-56.5" font-family="Helvetica,sans-Serif" font-size="10.00">Category.get</text>
</a>
</g>
</g>
<!-- Node1&#45;&gt;Node2 -->
<g id="edge1" class="edge">
<title>Node1&#45;&gt;Node2</title>
<path fill="none" stroke="midnightblue" d="M162.21,-50.14C170.71,-51.27 179.37,-52.41 187.89,-53.54"/>
<polygon fill="midnightblue" stroke="midnightblue" points="187.45,-57.02 197.82,-54.86 188.37,-50.08 187.45,-57.02"/>
</g>
<!-- Node4 -->
<g id="node4" class="node">
<title>Node4</title>
<g id="a_node4"><a xlink:href="classfspm_1_1config_1_1params_1_1ParamGroup_a87d9e7182014d1d981c4067083815878.html#a87d9e7182014d1d981c4067083815878" target="_top" xlink:title=" ">
<polygon fill="none" stroke="black" points="198,-0.5 198,-30.5 345,-30.5 345,-0.5 198,-0.5"/>
<text text-anchor="start" x="206" y="-18.5" font-family="Helvetica,sans-Serif" font-size="10.00">fspm.config.params.Param</text>
<text text-anchor="middle" x="271.5" y="-7.5" font-family="Helvetica,sans-Serif" font-size="10.00">Group.getKey</text>
</a>
</g>
</g>
<!-- Node1&#45;&gt;Node4 -->
<g id="edge3" class="edge">
<title>Node1&#45;&gt;Node4</title>
<path fill="none" stroke="midnightblue" d="M162.21,-29.29C170.71,-28.2 179.37,-27.1 187.89,-26.02"/>
<polygon fill="midnightblue" stroke="midnightblue" points="188.35,-29.49 197.82,-24.75 187.46,-22.54 188.35,-29.49"/>
</g>
<!-- Node3 -->
<g id="node3" class="node">
<title>Node3</title>
<g id="a_node3"><a xlink:href="classfspm_1_1config_1_1params_1_1ParamCategory_aac7a0ce7ab7fafe895ba689f644818ab.html#aac7a0ce7ab7fafe895ba689f644818ab" target="_top" xlink:title=" ">
<polygon fill="none" stroke="black" points="381,-49.5 381,-79.5 528,-79.5 528,-49.5 381,-49.5"/>
<text text-anchor="start" x="389" y="-67.5" font-family="Helvetica,sans-Serif" font-size="10.00">fspm.config.params.Param</text>
<text text-anchor="middle" x="454.5" y="-56.5" font-family="Helvetica,sans-Serif" font-size="10.00">Category.getKey</text>
</a>
</g>
</g>
<!-- Node2&#45;&gt;Node3 -->
<g id="edge2" class="edge">
<title>Node2&#45;&gt;Node3</title>
<path fill="none" stroke="midnightblue" d="M345.08,-64.5C353.56,-64.5 362.26,-64.5 370.87,-64.5"/>
<polygon fill="midnightblue" stroke="midnightblue" points="370.91,-68 380.91,-64.5 370.91,-61 370.91,-68"/>
</g>
</g>
</svg>
