<?xml version="1.0" encoding="UTF-8" standalone="no"?>
<!DOCTYPE svg PUBLIC "-//W3C//DTD SVG 1.1//EN"
 "http://www.w3.org/Graphics/SVG/1.1/DTD/svg11.dtd">
<!-- Generated by graphviz version 2.43.0 (0)
 -->
<!-- Title: fspm.config.adapters.JsonFileReader Pages: 1 -->
<svg width="329pt" height="331pt"
 viewBox="0.00 0.00 328.50 331.00" xmlns="http://www.w3.org/2000/svg" xmlns:xlink="http://www.w3.org/1999/xlink">
<g id="graph0" class="graph" transform="scale(1 1) rotate(0) translate(4 327)">
<title>fspm.config.adapters.JsonFileReader</title>
<!-- Node1 -->
<g id="node1" class="node">
<title>Node1</title>
<g id="a_node1"><a xlink:title="File reader to parse JSON config files to fspm.config.Config.">
<polygon fill="#bfbfbf" stroke="black" points="113,-0.5 113,-90.5 256,-90.5 256,-0.5 113,-0.5"/>
<text text-anchor="start" x="121" y="-78.5" font-family="Helvetica,sans-Serif" font-size="10.00">fspm.config.adapters.Json</text>
<text text-anchor="middle" x="184.5" y="-67.5" font-family="Helvetica,sans-Serif" font-size="10.00">FileReader</text>
<polyline fill="none" stroke="black" points="113,-60.5 256,-60.5 "/>
<text text-anchor="middle" x="184.5" y="-48.5" font-family="Helvetica,sans-Serif" font-size="10.00"> </text>
<polyline fill="none" stroke="black" points="113,-41.5 256,-41.5 "/>
<text text-anchor="start" x="121" y="-29.5" font-family="Helvetica,sans-Serif" font-size="10.00">+ JsonFileReader()</text>
<text text-anchor="start" x="121" y="-18.5" font-family="Helvetica,sans-Serif" font-size="10.00">+ parse()</text>
<text text-anchor="start" x="121" y="-7.5" font-family="Helvetica,sans-Serif" font-size="10.00">+ getTreeFromFile()</text>
</a>
</g>
</g>
<!-- Node2 -->
<g id="node2" class="node">
<title>Node2</title>
<g id="a_node2"><a xlink:href="classfspm_1_1config_1_1adapters_1_1ConfigAdapter.html" target="_top" xlink:title="Defines the required methods adapters must implement to be compatible with fspm.config....">
<polygon fill="none" stroke="black" points="0,-138.5 0,-217.5 153,-217.5 153,-138.5 0,-138.5"/>
<text text-anchor="start" x="8" y="-205.5" font-family="Helvetica,sans-Serif" font-size="10.00">fspm.config.adapters.Config</text>
<text text-anchor="middle" x="76.5" y="-194.5" font-family="Helvetica,sans-Serif" font-size="10.00">Adapter</text>
<polyline fill="none" stroke="black" points="0,-187.5 153,-187.5 "/>
<text text-anchor="middle" x="76.5" y="-175.5" font-family="Helvetica,sans-Serif" font-size="10.00"> </text>
<polyline fill="none" stroke="black" points="0,-168.5 153,-168.5 "/>
<text text-anchor="start" x="8" y="-156.5" font-family="Helvetica,sans-Serif" font-size="10.00">+ parse()</text>
<text text-anchor="start" x="8" y="-145.5" font-family="Helvetica,sans-Serif" font-size="10.00"># ConfigAdapter()</text>
</a>
</g>
</g>
<!-- Node2&#45;&gt;Node1 -->
<g id="edge1" class="edge">
<title>Node2&#45;&gt;Node1</title>
<path fill="none" stroke="midnightblue" d="M115.1,-130.35C125.74,-117.5 137.25,-103.6 147.77,-90.88"/>
<polygon fill="none" stroke="midnightblue" points="112.29,-128.26 108.61,-138.2 117.68,-132.73 112.29,-128.26"/>
</g>
<!-- Node3 -->
<g id="node3" class="node">
<title>Node3</title>
<g id="a_node3"><a xlink:title=" ">
<polygon fill="none" stroke="#bfbfbf" points="42,-265.5 42,-322.5 111,-322.5 111,-265.5 42,-265.5"/>
<text text-anchor="middle" x="76.5" y="-310.5" font-family="Helvetica,sans-Serif" font-size="10.00">final String</text>
<polyline fill="none" stroke="#bfbfbf" points="42,-303.5 111,-303.5 "/>
<text text-anchor="middle" x="76.5" y="-291.5" font-family="Helvetica,sans-Serif" font-size="10.00"> </text>
<polyline fill="none" stroke="#bfbfbf" points="42,-284.5 111,-284.5 "/>
<text text-anchor="middle" x="76.5" y="-272.5" font-family="Helvetica,sans-Serif" font-size="10.00"> </text>
</a>
</g>
</g>
<!-- Node3&#45;&gt;Node2 -->
<g id="edge2" class="edge">
<title>Node3&#45;&gt;Node2</title>
<path fill="none" stroke="#404040" d="M76.5,-265.4C76.5,-254.63 76.5,-241.93 76.5,-229.62"/>
<polygon fill="none" stroke="#404040" points="76.5,-229.54 72.5,-223.54 76.5,-217.54 80.5,-223.54 76.5,-229.54"/>
<text text-anchor="middle" x="93.5" y="-239" font-family="Helvetica,sans-Serif" font-size="10.00"> #path</text>
</g>
<!-- Node4 -->
<g id="node4" class="node">
<title>Node4</title>
<g id="a_node4"><a xlink:title=" ">
<polygon fill="none" stroke="#bfbfbf" points="171,-149.5 171,-206.5 270,-206.5 270,-149.5 171,-149.5"/>
<text text-anchor="middle" x="220.5" y="-194.5" font-family="Helvetica,sans-Serif" font-size="10.00">static final String</text>
<polyline fill="none" stroke="#bfbfbf" points="171,-187.5 270,-187.5 "/>
<text text-anchor="middle" x="220.5" y="-175.5" font-family="Helvetica,sans-Serif" font-size="10.00"> </text>
<polyline fill="none" stroke="#bfbfbf" points="171,-168.5 270,-168.5 "/>
<text text-anchor="middle" x="220.5" y="-156.5" font-family="Helvetica,sans-Serif" font-size="10.00"> </text>
</a>
</g>
</g>
<!-- Node4&#45;&gt;Node1 -->
<g id="edge3" class="edge">
<title>Node4&#45;&gt;Node1</title>
<path fill="none" stroke="#404040" d="M212.87,-149.32C209.08,-135.6 204.36,-118.51 199.87,-102.22"/>
<polygon fill="none" stroke="#404040" points="199.85,-102.14 194.4,-97.42 196.66,-90.57 202.11,-95.29 199.85,-102.14"/>
<text text-anchor="middle" x="262.5" y="-112" font-family="Helvetica,sans-Serif" font-size="10.00"> +METACLASS_HEADER</text>
</g>
</g>
</svg>
