<?xml version="1.0" encoding="UTF-8" standalone="no"?>
<!DOCTYPE svg PUBLIC "-//W3C//DTD SVG 1.1//EN"
 "http://www.w3.org/Graphics/SVG/1.1/DTD/svg11.dtd">
<!-- Generated by graphviz version 2.43.0 (0)
 -->
<!-- Title: fspm.config.params.type.NullParam Pages: 1 -->
<svg width="276pt" height="299pt"
 viewBox="0.00 0.00 276.00 299.00" xmlns="http://www.w3.org/2000/svg" xmlns:xlink="http://www.w3.org/1999/xlink">
<g id="graph0" class="graph" transform="scale(1 1) rotate(0) translate(4 295)">
<title>fspm.config.params.type.NullParam</title>
<!-- Node1 -->
<g id="node1" class="node">
<title>Node1</title>
<g id="a_node1"><a xlink:title="Concrete Parameter implementation for Null parameters representing a null value JsonNode.">
<polygon fill="#bfbfbf" stroke="black" points="0,-0.5 0,-79.5 141,-79.5 141,-0.5 0,-0.5"/>
<text text-anchor="start" x="8" y="-67.5" font-family="Helvetica,sans-Serif" font-size="10.00">fspm.config.params.type.</text>
<text text-anchor="middle" x="70.5" y="-56.5" font-family="Helvetica,sans-Serif" font-size="10.00">NullParam</text>
<polyline fill="none" stroke="black" points="0,-49.5 141,-49.5 "/>
<text text-anchor="middle" x="70.5" y="-37.5" font-family="Helvetica,sans-Serif" font-size="10.00"> </text>
<polyline fill="none" stroke="black" points="0,-30.5 141,-30.5 "/>
<text text-anchor="start" x="8" y="-18.5" font-family="Helvetica,sans-Serif" font-size="10.00">+ NullParam(String key)</text>
<text text-anchor="start" x="8" y="-7.5" font-family="Helvetica,sans-Serif" font-size="10.00">+ String toString()</text>
</a>
</g>
</g>
<!-- Node2 -->
<g id="node2" class="node">
<title>Node2</title>
<g id="a_node2"><a xlink:href="classfspm_1_1config_1_1params_1_1Parameter.html" target="_top" xlink:title="Parameter represents variables that can be stored using Java data types or other user&#45;defined types.">
<polygon fill="none" stroke="black" points="101,-117.5 101,-185.5 268,-185.5 268,-117.5 101,-117.5"/>
<text text-anchor="middle" x="184.5" y="-173.5" font-family="Helvetica,sans-Serif" font-size="10.00">fspm.config.params.Parameter</text>
<polyline fill="none" stroke="black" points="101,-166.5 268,-166.5 "/>
<text text-anchor="middle" x="184.5" y="-154.5" font-family="Helvetica,sans-Serif" font-size="10.00"> </text>
<polyline fill="none" stroke="black" points="101,-147.5 268,-147.5 "/>
<text text-anchor="start" x="109" y="-135.5" font-family="Helvetica,sans-Serif" font-size="10.00">+ String getKey()</text>
<text text-anchor="start" x="109" y="-124.5" font-family="Helvetica,sans-Serif" font-size="10.00"># Parameter(String key)</text>
</a>
</g>
</g>
<!-- Node2&#45;&gt;Node1 -->
<g id="edge1" class="edge">
<title>Node2&#45;&gt;Node1</title>
<path fill="none" stroke="midnightblue" d="M142.6,-110.25C132.25,-100.31 121.18,-89.68 110.91,-79.81"/>
<polygon fill="none" stroke="midnightblue" points="140.35,-112.95 149.99,-117.35 145.2,-107.9 140.35,-112.95"/>
</g>
<!-- Node3 -->
<g id="node3" class="node">
<title>Node3</title>
<g id="a_node3"><a xlink:title=" ">
<polygon fill="none" stroke="#bfbfbf" points="18,-233.5 18,-290.5 63,-290.5 63,-233.5 18,-233.5"/>
<text text-anchor="middle" x="40.5" y="-278.5" font-family="Helvetica,sans-Serif" font-size="10.00">String</text>
<polyline fill="none" stroke="#bfbfbf" points="18,-271.5 63,-271.5 "/>
<text text-anchor="middle" x="40.5" y="-259.5" font-family="Helvetica,sans-Serif" font-size="10.00"> </text>
<polyline fill="none" stroke="#bfbfbf" points="18,-252.5 63,-252.5 "/>
<text text-anchor="middle" x="40.5" y="-240.5" font-family="Helvetica,sans-Serif" font-size="10.00"> </text>
</a>
</g>
</g>
<!-- Node3&#45;&gt;Node1 -->
<g id="edge3" class="edge">
<title>Node3&#45;&gt;Node1</title>
<path fill="none" stroke="#404040" d="M35.11,-233.28C30.4,-204 25.58,-156.67 34.5,-117 36.48,-108.19 39.61,-99.19 43.21,-90.62"/>
<polygon fill="none" stroke="#404040" points="43.23,-90.58 42.05,-83.47 48.17,-79.65 49.34,-86.76 43.23,-90.58"/>
<text text-anchor="middle" x="63.5" y="-149" font-family="Helvetica,sans-Serif" font-size="10.00"> +nullString</text>
</g>
<!-- Node3&#45;&gt;Node2 -->
<g id="edge2" class="edge">
<title>Node3&#45;&gt;Node2</title>
<path fill="none" stroke="#404040" d="M63.32,-243.81C81.43,-230.16 107.49,-210.52 130.81,-192.95"/>
<polygon fill="none" stroke="#404040" points="131.02,-192.79 133.41,-185.99 140.61,-185.57 138.22,-192.38 131.02,-192.79"/>
<text text-anchor="middle" x="125" y="-207" font-family="Helvetica,sans-Serif" font-size="10.00"> &#45;key</text>
</g>
</g>
</svg>
