<?xml version="1.0" encoding="UTF-8" standalone="no"?>
<!DOCTYPE svg PUBLIC "-//W3C//DTD SVG 1.1//EN"
 "http://www.w3.org/Graphics/SVG/1.1/DTD/svg11.dtd">
<!-- Generated by graphviz version 2.43.0 (0)
 -->
<!-- Title: io.github.fruitcropxl.config.Config.addGroup Pages: 1 -->
<svg width="340pt" height="134pt"
 viewBox="0.00 0.00 340.00 134.00" xmlns="http://www.w3.org/2000/svg" xmlns:xlink="http://www.w3.org/1999/xlink">
<g id="graph0" class="graph" transform="scale(1 1) rotate(0) translate(4 130)">
<title>io.github.fruitcropxl.config.Config.addGroup</title>
<!-- Node1 -->
<g id="Node000001" class="node">
<title>Node1</title>
<g id="a_Node000001"><a xlink:title=" ">
<polygon fill="#999999" stroke="#666666" points="332,-78 184,-78 184,-48 332,-48 332,-78"/>
<text text-anchor="start" x="192" y="-66" font-family="Helvetica,sans-Serif" font-size="10.00">io.github.fruitcropxl.config.</text>
<text text-anchor="middle" x="258" y="-55" font-family="Helvetica,sans-Serif" font-size="10.00">Config.addGroup</text>
</a>
</g>
</g>
<!-- Node1&#45;&gt;Node1 -->
<g id="edge1_Node000001_Node000001" class="edge">
<title>Node1&#45;&gt;Node1</title>
<g id="a_edge1_Node000001_Node000001"><a xlink:title=" ">
<path fill="none" stroke="#63b8ff" d="M290.21,-88.6C285.81,-92.97 275.07,-96 258,-96 229.25,-96 218.47,-87.41 225.66,-78.28"/>
<polygon fill="#63b8ff" stroke="#63b8ff" points="293.71,-88.32 290.34,-78.28 286.71,-88.23 293.71,-88.32"/>
</a>
</g>
</g>
<!-- Node2 -->
<g id="Node000002" class="node">
<title>Node2</title>
<g id="a_Node000002"><a xlink:href="classio_1_1github_1_1fruitcropxl_1_1config_1_1Config_a24639c1f2fe171d635cc1dc896842645.html#a24639c1f2fe171d635cc1dc896842645" target="_top" xlink:title="Add a new group with a unique key.">
<polygon fill="white" stroke="#666666" points="148,-126 0,-126 0,-96 148,-96 148,-126"/>
<text text-anchor="start" x="8" y="-114" font-family="Helvetica,sans-Serif" font-size="10.00">io.github.fruitcropxl.config.</text>
<text text-anchor="middle" x="74" y="-103" font-family="Helvetica,sans-Serif" font-size="10.00">Config.addGroup</text>
</a>
</g>
</g>
<!-- Node1&#45;&gt;Node2 -->
<g id="edge2_Node000001_Node000002" class="edge">
<title>Node1&#45;&gt;Node2</title>
<g id="a_edge2_Node000001_Node000002"><a xlink:title=" ">
<path fill="none" stroke="#63b8ff" d="M190.08,-80.65C170.97,-85.69 150.33,-91.13 131.88,-96"/>
<polygon fill="#63b8ff" stroke="#63b8ff" points="191.14,-83.99 199.91,-78.06 189.35,-77.22 191.14,-83.99"/>
</a>
</g>
</g>
<!-- Node3 -->
<g id="Node000003" class="node">
<title>Node3</title>
<g id="a_Node000003"><a xlink:href="classio_1_1github_1_1fruitcropxl_1_1config_1_1Config_a0e8679a7b67d0093df9e40fad8a72784.html#a0e8679a7b67d0093df9e40fad8a72784" target="_top" xlink:title=" ">
<polygon fill="white" stroke="#666666" points="148,-78 0,-78 0,-48 148,-48 148,-78"/>
<text text-anchor="start" x="8" y="-66" font-family="Helvetica,sans-Serif" font-size="10.00">io.github.fruitcropxl.config.</text>
<text text-anchor="middle" x="74" y="-55" font-family="Helvetica,sans-Serif" font-size="10.00">Config.addGroup</text>
</a>
</g>
</g>
<!-- Node1&#45;&gt;Node3 -->
<g id="edge3_Node000001_Node000003" class="edge">
<title>Node1&#45;&gt;Node3</title>
<g id="a_edge3_Node000001_Node000003"><a xlink:title=" ">
<path fill="none" stroke="#63b8ff" d="M173.48,-63C165.01,-63 156.44,-63 148.09,-63"/>
<polygon fill="#63b8ff" stroke="#63b8ff" points="173.76,-66.5 183.76,-63 173.76,-59.5 173.76,-66.5"/>
</a>
</g>
</g>
<!-- Node4 -->
<g id="Node000004" class="node">
<title>Node4</title>
<g id="a_Node000004"><a xlink:href="classio_1_1github_1_1fruitcropxl_1_1config_1_1ConfigTestSuite_a0435410bd0befefb26c43d1bbeda2ae8.html#a0435410bd0befefb26c43d1bbeda2ae8" target="_top" xlink:title="Note: does not work when running tests in parallel.">
<polygon fill="white" stroke="#666666" points="148,-30 0,-30 0,0 148,0 148,-30"/>
<text text-anchor="start" x="8" y="-18" font-family="Helvetica,sans-Serif" font-size="10.00">io.github.fruitcropxl.config.</text>
<text text-anchor="middle" x="74" y="-7" font-family="Helvetica,sans-Serif" font-size="10.00">ConfigTestSuite.addGroups</text>
</a>
</g>
</g>
<!-- Node1&#45;&gt;Node4 -->
<g id="edge4_Node000001_Node000004" class="edge">
<title>Node1&#45;&gt;Node4</title>
<g id="a_edge4_Node000001_Node000004"><a xlink:title=" ">
<path fill="none" stroke="#63b8ff" d="M190.08,-45.35C170.97,-40.31 150.33,-34.87 131.88,-30"/>
<polygon fill="#63b8ff" stroke="#63b8ff" points="189.35,-48.78 199.91,-47.94 191.14,-42.01 189.35,-48.78"/>
</a>
</g>
</g>
</g>
</svg>
