<?xml version="1.0" encoding="UTF-8" standalone="no"?>
<!DOCTYPE svg PUBLIC "-//W3C//DTD SVG 1.1//EN"
 "http://www.w3.org/Graphics/SVG/1.1/DTD/svg11.dtd">
<!-- Generated by graphviz version 2.43.0 (0)
 -->
<!-- Title: io.github.fruitcropxl.config.Config Pages: 1 -->
<!--zoomable 511 -->

<svg id="main" version="1.1" xmlns="http://www.w3.org/2000/svg" xmlns:xlink="http://www.w3.org/1999/xlink" xml:space="preserve" onload="init(evt)">
<style type="text/css"><![CDATA[
.node, .edge {opacity: 0.7;}
.node.selected, .edge.selected {opacity: 1;}
.edge:hover path { stroke: red; }
.edge:hover polygon { stroke: red; fill: red; }
]]></style>

<defs>
  <circle id="rim" cx="0" cy="0" r="7"/>
  <circle id="rim2" cx="0" cy="0" r="3.5"/>
  <g id="zoomPlus">
    <use xlink:href="#rim" fill="#404040"><set attributeName="fill" to="#808080" begin="zoomplus.mouseover" end="zoomplus.mouseout"/></use>
    <path d="M-4,0h8M0,-4v8" fill="none" stroke="white" stroke-width="1.5" pointer-events="none"/>
  </g>
  <g id="zoomMin">
    <use xlink:href="#rim" fill="#404040"><set attributeName="fill" to="#808080" begin="zoomminus.mouseover" end="zoomminus.mouseout"/></use>
    <path d="M-4,0h8" fill="none" stroke="white" stroke-width="1.5" pointer-events="none"/>
  </g>
  <g id="arrowUp" transform="translate(30 24)">
    <use xlink:href="#rim"/>
    <path pointer-events="none" fill="none" stroke="white" stroke-width="1.5" d="M0,-3.0v7 M-2.5,-0.5L0,-3.0L2.5,-0.5"/>
  </g>
  <g id="arrowRight" transform="rotate(90) translate(36 -43)">
    <use xlink:href="#rim"/>
    <path pointer-events="none" fill="none" stroke="white" stroke-width="1.5" d="M0,-3.0v7 M-2.5,-0.5L0,-3.0L2.5,-0.5"/>
  </g>
  <g id="arrowDown" transform="rotate(180) translate(-30 -48)">
    <use xlink:href="#rim"/>
    <path pointer-events="none" fill="none" stroke="white" stroke-width="1.5" d="M0,-3.0v7 M-2.5,-0.5L0,-3.0L2.5,-0.5"/>
  </g>
  <g id="arrowLeft" transform="rotate(270) translate(-36 17)">
    <use xlink:href="#rim"/>
    <path pointer-events="none" fill="none" stroke="white" stroke-width="1.5" d="M0,-3.0v7 M-2.5,-0.5L0,-3.0L2.5,-0.5"/>
  </g>
  <g id="resetDef">
    <use xlink:href="#rim2" fill="#404040"><set attributeName="fill" to="#808080" begin="reset.mouseover" end="reset.mouseout"/></use>
  </g>
</defs>
<script type="application/ecmascript">
var viewWidth = 355;
var viewHeight = 511;
var sectionId = 'dynsection-1';
</script>
<script type="application/ecmascript" xlink:href="svg.min.js"/>
<svg id="graph" class="graph">
<g id="viewport">
<title>io.github.fruitcropxl.config.Config</title>
<!-- Node1 -->
<g id="Node000001" class="node">
<title>Node1</title>
<g id="a_Node000001"><a xlink:title="Configuration class for storing input configurations to be used in simulations.">
<polygon fill="#999999" stroke="transparent" points="177,-180 35,-180 35,0 177,0 177,-180"/>
<text text-anchor="start" x="40" y="-168" font-family="Helvetica,sans-Serif" font-size="10.00">io.github.fruitcropxl.config.</text>
<text text-anchor="start" x="90.5" y="-157" font-family="Helvetica,sans-Serif" font-size="10.00">Config</text>
<text text-anchor="start" x="104" y="-142" font-family="Helvetica,sans-Serif" font-size="10.00"> </text>
<text text-anchor="start" x="50.5" y="-127" font-family="Helvetica,sans-Serif" font-size="10.00">+</text>
<text text-anchor="start" x="75" y="-127" font-family="Helvetica,sans-Serif" font-size="10.00">reset()</text>
<text text-anchor="start" x="50.5" y="-112" font-family="Helvetica,sans-Serif" font-size="10.00">+</text>
<text text-anchor="start" x="75" y="-112" font-family="Helvetica,sans-Serif" font-size="10.00">addGroup()</text>
<text text-anchor="start" x="50.5" y="-97" font-family="Helvetica,sans-Serif" font-size="10.00">+</text>
<text text-anchor="start" x="75" y="-97" font-family="Helvetica,sans-Serif" font-size="10.00">addGroup()</text>
<text text-anchor="start" x="50.5" y="-82" font-family="Helvetica,sans-Serif" font-size="10.00">+</text>
<text text-anchor="start" x="75" y="-82" font-family="Helvetica,sans-Serif" font-size="10.00">addGroup()</text>
<text text-anchor="start" x="50.5" y="-67" font-family="Helvetica,sans-Serif" font-size="10.00">+</text>
<text text-anchor="start" x="75" y="-67" font-family="Helvetica,sans-Serif" font-size="10.00">removeGroup()</text>
<text text-anchor="start" x="50.5" y="-52" font-family="Helvetica,sans-Serif" font-size="10.00">+</text>
<text text-anchor="start" x="75" y="-52" font-family="Helvetica,sans-Serif" font-size="10.00">getInstance()</text>
<text text-anchor="start" x="50.5" y="-37" font-family="Helvetica,sans-Serif" font-size="10.00">~</text>
<text text-anchor="start" x="75" y="-37" font-family="Helvetica,sans-Serif" font-size="10.00">getGroup()</text>
<text text-anchor="start" x="53" y="-22" font-family="Helvetica,sans-Serif" font-size="10.00">&#45;</text>
<text text-anchor="start" x="75" y="-22" font-family="Helvetica,sans-Serif" font-size="10.00">Config()</text>
<text text-anchor="start" x="53" y="-7" font-family="Helvetica,sans-Serif" font-size="10.00">&#45;</text>
<text text-anchor="start" x="75" y="-7" font-family="Helvetica,sans-Serif" font-size="10.00">addGroup()</text>
<polygon fill="#666666" stroke="#666666" points="35,-152 35,-152 177,-152 177,-152 35,-152"/>
<polygon fill="#666666" stroke="#666666" points="35,-137 35,-137 177,-137 177,-137 35,-137"/>
<polygon fill="none" stroke="#666666" points="35,0 35,-180 177,-180 177,0 35,0"/>
</a>
</g>
</g>
<!-- Node2 -->
<g id="Node000002" class="node">
<title>Node2</title>
<g id="a_Node000002"><a xlink:href="classSerializable.html" target="_top" xlink:title=" ">
<polygon fill="white" stroke="transparent" points="68,-503 0,-503 0,-454 68,-454 68,-503"/>
<text text-anchor="start" x="5" y="-490.5" font-family="Helvetica,sans-Serif" font-size="10.00">Serializable</text>
<text text-anchor="start" x="32" y="-475.5" font-family="Helvetica,sans-Serif" font-size="10.00"> </text>
<text text-anchor="start" x="32" y="-460.5" font-family="Helvetica,sans-Serif" font-size="10.00"> </text>
<polygon fill="#666666" stroke="#666666" points="0,-485.5 0,-485.5 68,-485.5 68,-485.5 0,-485.5"/>
<polygon fill="#666666" stroke="#666666" points="0,-470.5 0,-470.5 68,-470.5 68,-470.5 0,-470.5"/>
<polygon fill="none" stroke="#666666" points="0,-454 0,-503 68,-503 68,-454 0,-454"/>
</a>
</g>
</g>
<!-- Node2&#45;&gt;Node1 -->
<g id="edge1_Node000001_Node000002" class="edge">
<title>Node2&#45;&gt;Node1</title>
<g id="a_edge1_Node000001_Node000002"><a xlink:title=" ">
<path fill="none" stroke="#63b8ff" d="M26.76,-443.82C17.65,-395.03 5.5,-302.29 26,-227 30.32,-211.14 37.01,-195.25 44.72,-180.2"/>
<polygon fill="none" stroke="#63b8ff" points="23.36,-444.68 28.71,-453.83 30.23,-443.34 23.36,-444.68"/>
</a>
</g>
</g>
<!-- Node3 -->
<g id="Node000003" class="node">
<title>Node3</title>
<g id="a_Node000003"><a xlink:href="classio_1_1github_1_1fruitcropxl_1_1config_1_1Config.html" target="_top" xlink:title="Configuration class for storing input configurations to be used in simulations.">
<polygon fill="white" stroke="transparent" points="177,-407 35,-407 35,-227 177,-227 177,-407"/>
<text text-anchor="start" x="40" y="-395" font-family="Helvetica,sans-Serif" font-size="10.00">io.github.fruitcropxl.config.</text>
<text text-anchor="start" x="90.5" y="-384" font-family="Helvetica,sans-Serif" font-size="10.00">Config</text>
<text text-anchor="start" x="104" y="-369" font-family="Helvetica,sans-Serif" font-size="10.00"> </text>
<text text-anchor="start" x="50.5" y="-354" font-family="Helvetica,sans-Serif" font-size="10.00">+</text>
<text text-anchor="start" x="75" y="-354" font-family="Helvetica,sans-Serif" font-size="10.00">reset()</text>
<text text-anchor="start" x="50.5" y="-339" font-family="Helvetica,sans-Serif" font-size="10.00">+</text>
<text text-anchor="start" x="75" y="-339" font-family="Helvetica,sans-Serif" font-size="10.00">addGroup()</text>
<text text-anchor="start" x="50.5" y="-324" font-family="Helvetica,sans-Serif" font-size="10.00">+</text>
<text text-anchor="start" x="75" y="-324" font-family="Helvetica,sans-Serif" font-size="10.00">addGroup()</text>
<text text-anchor="start" x="50.5" y="-309" font-family="Helvetica,sans-Serif" font-size="10.00">+</text>
<text text-anchor="start" x="75" y="-309" font-family="Helvetica,sans-Serif" font-size="10.00">addGroup()</text>
<text text-anchor="start" x="50.5" y="-294" font-family="Helvetica,sans-Serif" font-size="10.00">+</text>
<text text-anchor="start" x="75" y="-294" font-family="Helvetica,sans-Serif" font-size="10.00">removeGroup()</text>
<text text-anchor="start" x="50.5" y="-279" font-family="Helvetica,sans-Serif" font-size="10.00">+</text>
<text text-anchor="start" x="75" y="-279" font-family="Helvetica,sans-Serif" font-size="10.00">getInstance()</text>
<text text-anchor="start" x="50.5" y="-264" font-family="Helvetica,sans-Serif" font-size="10.00">~</text>
<text text-anchor="start" x="75" y="-264" font-family="Helvetica,sans-Serif" font-size="10.00">getGroup()</text>
<text text-anchor="start" x="53" y="-249" font-family="Helvetica,sans-Serif" font-size="10.00">&#45;</text>
<text text-anchor="start" x="75" y="-249" font-family="Helvetica,sans-Serif" font-size="10.00">Config()</text>
<text text-anchor="start" x="53" y="-234" font-family="Helvetica,sans-Serif" font-size="10.00">&#45;</text>
<text text-anchor="start" x="75" y="-234" font-family="Helvetica,sans-Serif" font-size="10.00">addGroup()</text>
<polygon fill="#666666" stroke="#666666" points="35,-379 35,-379 177,-379 177,-379 35,-379"/>
<polygon fill="#666666" stroke="#666666" points="35,-364 35,-364 177,-364 177,-364 35,-364"/>
<polygon fill="none" stroke="#666666" points="35,-227 35,-407 177,-407 177,-227 35,-227"/>
</a>
</g>
</g>
<!-- Node2&#45;&gt;Node3 -->
<g id="edge3_Node000003_Node000002" class="edge">
<title>Node2&#45;&gt;Node3</title>
<g id="a_edge3_Node000003_Node000002"><a xlink:title=" ">
<path fill="none" stroke="#63b8ff" d="M48.82,-444.68C53.86,-433.51 59.76,-420.43 65.82,-407"/>
<polygon fill="none" stroke="#63b8ff" points="45.55,-443.41 44.62,-453.97 51.93,-446.29 45.55,-443.41"/>
</a>
</g>
</g>
<!-- Node3&#45;&gt;Node1 -->
<g id="edge2_Node000001_Node000003" class="edge">
<title>Node3&#45;&gt;Node1</title>
<g id="a_edge2_Node000001_Node000003"><a xlink:title=" ">
<path fill="none" stroke="#63b8ff" d="M106,-226.75C106,-215.49 106,-203.9 106,-192.47"/>
<polygon fill="none" stroke="#63b8ff" points="106,-192.14 102,-186.14 106,-180.14 110,-186.14 106,-192.14"/>
</a>
</g>
<text text-anchor="middle" x="130.5" y="-201" font-family="Helvetica,sans-Serif" font-size="10.00" fill="grey"> &#45;instance</text>
</g>
<!-- Node3&#45;&gt;Node3 -->
<g id="edge4_Node000003_Node000003" class="edge">
<title>Node3&#45;&gt;Node3</title>
<g id="a_edge4_Node000003_Node000003"><a xlink:title=" ">
<path fill="none" stroke="#63b8ff" d="M177.23,-336.05C187.83,-333.08 195,-326.73 195,-317 195,-311.22 192.47,-306.63 188.2,-303.24"/>
<polygon fill="none" stroke="#63b8ff" points="188.04,-303.16 180.89,-304.16 177.23,-297.95 184.37,-296.95 188.04,-303.16"/>
</a>
</g>
<text text-anchor="middle" x="219.5" y="-314.5" font-family="Helvetica,sans-Serif" font-size="10.00" fill="grey"> &#45;instance</text>
</g>
<!-- Node4 -->
<g id="Node000004" class="node">
<title>Node4</title>
<g id="a_Node000004"><a xlink:title=" ">
<polygon fill="white" stroke="transparent" points="263.5,-503 114.5,-503 114.5,-454 263.5,-454 263.5,-503"/>
<text text-anchor="start" x="120" y="-490.5" font-family="Helvetica,sans-Serif" font-size="10.00">Map&lt; String, ParamGroup &gt;</text>
<text text-anchor="start" x="187.5" y="-475.5" font-family="Helvetica,sans-Serif" font-size="10.00"> </text>
<text text-anchor="start" x="187.5" y="-460.5" font-family="Helvetica,sans-Serif" font-size="10.00"> </text>
<polygon fill="#666666" stroke="#666666" points="115,-485.5 115,-485.5 264,-485.5 264,-485.5 115,-485.5"/>
<polygon fill="#666666" stroke="#666666" points="115,-470.5 115,-470.5 264,-470.5 264,-470.5 115,-470.5"/>
<polygon fill="none" stroke="#666666" points="114.5,-454 114.5,-503 263.5,-503 263.5,-454 114.5,-454"/>
</a>
</g>
</g>
<!-- Node4&#45;&gt;Node1 -->
<g id="edge6_Node000001_Node000004" class="edge">
<title>Node4&#45;&gt;Node1</title>
<g id="a_edge6_Node000001_Node000004"><a xlink:title=" ">
<path fill="none" stroke="#63b8ff" d="M226,-453.79C232.29,-448.51 238.3,-442.53 243,-436 286.85,-375.07 279.02,-286.53 253,-227 238.92,-194.8 213.04,-166.82 186.88,-144.75"/>
<polygon fill="none" stroke="#63b8ff" points="186.54,-144.48 179.36,-143.79 177.24,-136.9 184.42,-137.59 186.54,-144.48"/>
</a>
</g>
<text text-anchor="middle" x="310.5" y="-314.5" font-family="Helvetica,sans-Serif" font-size="10.00" fill="grey"> &#45;paramGroups</text>
</g>
<!-- Node4&#45;&gt;Node3 -->
<g id="edge5_Node000003_Node000004" class="edge">
<title>Node4&#45;&gt;Node3</title>
<g id="a_edge5_Node000003_Node000004"><a xlink:title=" ">
<path fill="none" stroke="#63b8ff" d="M176.75,-453.97C171.49,-443.85 164.94,-431.27 157.98,-417.88"/>
<polygon fill="none" stroke="#63b8ff" points="157.86,-417.65 151.54,-414.17 152.32,-407 158.63,-410.48 157.86,-417.65"/>
</a>
</g>
<text text-anchor="middle" x="202.5" y="-428" font-family="Helvetica,sans-Serif" font-size="10.00" fill="grey"> &#45;paramGroups</text>
</g>
</g>
</svg>

<g id="navigator" transform="translate(0 0)" fill="#404254">
  <rect fill="#f2f5e9" fill-opacity="0.5" stroke="#606060" stroke-width=".5" x="0" y="0" width="60" height="60"/>
  <use id="zoomplus" xlink:href="#zoomPlus" x="17" y="9" onmousedown="handleZoom(evt,'in')"/>
  <use id="zoomminus" xlink:href="#zoomMin" x="42" y="9" onmousedown="handleZoom(evt,'out')"/>
  <use id="reset" xlink:href="#resetDef" x="30" y="36" onmousedown="handleReset()"/>
   <use id="arrowup" xlink:href="#arrowUp" x="0" y="0" onmousedown="handlePan(0,-1)"/>
  <use id="arrowright" xlink:href="#arrowRight" x="0" y="0" onmousedown="handlePan(1,0)"/>
  <use id="arrowdown" xlink:href="#arrowDown" x="0" y="0" onmousedown="handlePan(0,1)"/>
  <use id="arrowleft" xlink:href="#arrowLeft" x="0" y="0" onmousedown="handlePan(-1,0)"/>
</g>
<svg viewBox="0 0 15 15" width="100%" height="30px" preserveAspectRatio="xMaxYMin meet">
 <g id="arrow_out" transform="scale(0.3 0.3)">
  <a xlink:href="classio_1_1github_1_1fruitcropxl_1_1config_1_1Config__coll__graph_org.svg" target="_base">
   <rect id="button" ry="5" rx="5" y="6" x="6" height="38" width="38"
        fill="#f2f5e9" fill-opacity="0.5" stroke="#606060" stroke-width="1.0"/>
   <path id="arrow"
     d="M 11.500037,31.436501 C 11.940474,20.09759 22.043105,11.32322 32.158766,21.979434 L 37.068811,17.246167 C 37.068811,17.246167 37.088388,32 37.088388,32 L 22.160133,31.978069 C 22.160133,31.978069 26.997745,27.140456 26.997745,27.140456 C 18.528582,18.264221 13.291696,25.230495 11.500037,31.436501 z"
     style="fill:#404040;"/>
  </a>
 </g>
</svg>

<style type='text/css'>
<![CDATA[
[data-mouse-over-selected='false'] { opacity: 0.7; }
[data-mouse-over-selected='true']  { opacity: 1.0; }
]]>
</style>
<script type="application/ecmascript"><![CDATA[
document.addEventListener('DOMContentLoaded', (event) => {
  highlightEdges();
  highlightAdjacentNodes();
});
]]></script>
</svg>
