<?xml version="1.0" encoding="UTF-8" standalone="no"?>
<!DOCTYPE svg PUBLIC "-//W3C//DTD SVG 1.1//EN"
 "http://www.w3.org/Graphics/SVG/1.1/DTD/svg11.dtd">
<!-- Generated by graphviz version 2.43.0 (0)
 -->
<!-- Title: fspm.config.params.Parameter.asDoubleArray Pages: 1 -->
<svg width="598pt" height="88pt"
 viewBox="0.00 0.00 598.00 88.00" xmlns="http://www.w3.org/2000/svg" xmlns:xlink="http://www.w3.org/1999/xlink">
<g id="graph0" class="graph" transform="scale(1 1) rotate(0) translate(4 84)">
<title>fspm.config.params.Parameter.asDoubleArray</title>
<!-- Node1 -->
<g id="node1" class="node">
<title>Node1</title>
<g id="a_node1"><a xlink:title=" ">
<polygon fill="#bfbfbf" stroke="black" points="410,-24.5 410,-54.5 590,-54.5 590,-24.5 410,-24.5"/>
<text text-anchor="start" x="418" y="-42.5" font-family="Helvetica,sans-Serif" font-size="10.00">fspm.config.params.Parameter.as</text>
<text text-anchor="middle" x="500" y="-31.5" font-family="Helvetica,sans-Serif" font-size="10.00">DoubleArray</text>
</a>
</g>
</g>
<!-- Node2 -->
<g id="node2" class="node">
<title>Node2</title>
<g id="a_node2"><a xlink:href="classfspm_1_1config_1_1params_1_1ParamCategory_a480fdf398400180423780ae25a3c4656.html#a480fdf398400180423780ae25a3c4656" target="_top" xlink:title=" ">
<polygon fill="none" stroke="black" points="227,-24.5 227,-54.5 374,-54.5 374,-24.5 227,-24.5"/>
<text text-anchor="start" x="235" y="-42.5" font-family="Helvetica,sans-Serif" font-size="10.00">fspm.config.params.Param</text>
<text text-anchor="middle" x="300.5" y="-31.5" font-family="Helvetica,sans-Serif" font-size="10.00">Category.getDoubleArray</text>
</a>
</g>
</g>
<!-- Node1&#45;&gt;Node2 -->
<g id="edge1" class="edge">
<title>Node1&#45;&gt;Node2</title>
<path fill="none" stroke="midnightblue" d="M399.66,-39.5C391.03,-39.5 382.41,-39.5 374.05,-39.5"/>
<polygon fill="midnightblue" stroke="midnightblue" points="399.78,-43 409.78,-39.5 399.78,-36 399.78,-43"/>
</g>
<!-- Node3 -->
<g id="node3" class="node">
<title>Node3</title>
<g id="a_node3"><a xlink:href="classfspm_1_1config_1_1params_1_1structures_1_1CategoryStore_a9950176b2d1474857fac4ca1f0cb58ea.html#a9950176b2d1474857fac4ca1f0cb58ea" target="_top" xlink:title=" ">
<polygon fill="none" stroke="black" points="11.5,-49.5 11.5,-79.5 179.5,-79.5 179.5,-49.5 11.5,-49.5"/>
<text text-anchor="start" x="19.5" y="-67.5" font-family="Helvetica,sans-Serif" font-size="10.00">fspm.config.params.structures.</text>
<text text-anchor="middle" x="95.5" y="-56.5" font-family="Helvetica,sans-Serif" font-size="10.00">CategoryStore.getDoubleArray</text>
</a>
</g>
</g>
<!-- Node2&#45;&gt;Node3 -->
<g id="edge2" class="edge">
<title>Node2&#45;&gt;Node3</title>
<path fill="none" stroke="midnightblue" d="M216.66,-49.7C204.49,-51.2 191.94,-52.75 179.76,-54.25"/>
<polygon fill="midnightblue" stroke="midnightblue" points="217.29,-53.15 226.79,-48.45 216.43,-46.2 217.29,-53.15"/>
</g>
<!-- Node4 -->
<g id="node4" class="node">
<title>Node4</title>
<g id="a_node4"><a xlink:href="classfspm_1_1config_1_1tests_1_1ParamAccess_1_1ArrayTest_afdf9d3f4bfbd8e16cf4f4b46dfe3047b.html#afdf9d3f4bfbd8e16cf4f4b46dfe3047b" target="_top" xlink:title=" ">
<polygon fill="none" stroke="black" points="0,-0.5 0,-30.5 191,-30.5 191,-0.5 0,-0.5"/>
<text text-anchor="start" x="8" y="-18.5" font-family="Helvetica,sans-Serif" font-size="10.00">fspm.config.tests.ParamAccess.</text>
<text text-anchor="middle" x="95.5" y="-7.5" font-family="Helvetica,sans-Serif" font-size="10.00">ArrayTest.testGetDoubleArrayCases</text>
</a>
</g>
</g>
<!-- Node2&#45;&gt;Node4 -->
<g id="edge3" class="edge">
<title>Node2&#45;&gt;Node4</title>
<path fill="none" stroke="midnightblue" d="M216.6,-29.7C208.17,-28.7 199.56,-27.68 191.01,-26.67"/>
<polygon fill="midnightblue" stroke="midnightblue" points="216.44,-33.2 226.79,-30.9 217.27,-26.25 216.44,-33.2"/>
</g>
</g>
</svg>
