<?xml version="1.0" encoding="UTF-8" standalone="no"?>
<!DOCTYPE svg PUBLIC "-//W3C//DTD SVG 1.1//EN"
 "http://www.w3.org/Graphics/SVG/1.1/DTD/svg11.dtd">
<!-- Generated by graphviz version 2.43.0 (0)
 -->
<!-- Title: io.github.fruitcropxl.config.params.ParamCategory Pages: 1 -->
<svg width="614pt" height="385pt"
 viewBox="0.00 0.00 613.50 385.00" xmlns="http://www.w3.org/2000/svg" xmlns:xlink="http://www.w3.org/1999/xlink">
<g id="graph0" class="graph" transform="scale(1 1) rotate(0) translate(4 381)">
<title>io.github.fruitcropxl.config.params.ParamCategory</title>
<!-- Node1 -->
<g id="Node000001" class="node">
<title>Node1</title>
<g id="a_Node000001"><a xlink:title="Stores Parameters that belong to a common category.">
<polygon fill="#999999" stroke="transparent" points="296.5,-270 114.5,-270 114.5,0 296.5,0 296.5,-270"/>
<text text-anchor="start" x="119.5" y="-258" font-family="Helvetica,sans-Serif" font-size="10.00">io.github.fruitcropxl.config.params.</text>
<text text-anchor="start" x="167.5" y="-247" font-family="Helvetica,sans-Serif" font-size="10.00">ParamCategory</text>
<text text-anchor="start" x="203.5" y="-232" font-family="Helvetica,sans-Serif" font-size="10.00"> </text>
<text text-anchor="start" x="138" y="-217" font-family="Helvetica,sans-Serif" font-size="10.00">+</text>
<text text-anchor="start" x="170.5" y="-217" font-family="Helvetica,sans-Serif" font-size="10.00">ParamCategory()</text>
<text text-anchor="start" x="138" y="-202" font-family="Helvetica,sans-Serif" font-size="10.00">+</text>
<text text-anchor="start" x="170.5" y="-202" font-family="Helvetica,sans-Serif" font-size="10.00">addParameter()</text>
<text text-anchor="start" x="138" y="-187" font-family="Helvetica,sans-Serif" font-size="10.00">+</text>
<text text-anchor="start" x="170.5" y="-187" font-family="Helvetica,sans-Serif" font-size="10.00">setParameter()</text>
<text text-anchor="start" x="138" y="-172" font-family="Helvetica,sans-Serif" font-size="10.00">+</text>
<text text-anchor="start" x="170.5" y="-172" font-family="Helvetica,sans-Serif" font-size="10.00">getParameter()</text>
<text text-anchor="start" x="138" y="-157" font-family="Helvetica,sans-Serif" font-size="10.00">+</text>
<text text-anchor="start" x="170.5" y="-157" font-family="Helvetica,sans-Serif" font-size="10.00">toString()</text>
<text text-anchor="start" x="138" y="-142" font-family="Helvetica,sans-Serif" font-size="10.00">+</text>
<text text-anchor="start" x="170.5" y="-142" font-family="Helvetica,sans-Serif" font-size="10.00">isNull()</text>
<text text-anchor="start" x="138" y="-127" font-family="Helvetica,sans-Serif" font-size="10.00">+</text>
<text text-anchor="start" x="170.5" y="-127" font-family="Helvetica,sans-Serif" font-size="10.00">getBoolean()</text>
<text text-anchor="start" x="138" y="-112" font-family="Helvetica,sans-Serif" font-size="10.00">+</text>
<text text-anchor="start" x="170.5" y="-112" font-family="Helvetica,sans-Serif" font-size="10.00">getBoolean()</text>
<text text-anchor="start" x="138" y="-97" font-family="Helvetica,sans-Serif" font-size="10.00">+</text>
<text text-anchor="start" x="170.5" y="-97" font-family="Helvetica,sans-Serif" font-size="10.00">getString()</text>
<text text-anchor="start" x="138" y="-82" font-family="Helvetica,sans-Serif" font-size="10.00">+</text>
<text text-anchor="start" x="170.5" y="-82" font-family="Helvetica,sans-Serif" font-size="10.00">getString()</text>
<text text-anchor="start" x="170.5" y="-67" font-family="Helvetica,sans-Serif" font-size="10.00">and 12 more...</text>
<text text-anchor="start" x="138" y="-52" font-family="Helvetica,sans-Serif" font-size="10.00">~</text>
<text text-anchor="start" x="170.5" y="-52" font-family="Helvetica,sans-Serif" font-size="10.00">get()</text>
<text text-anchor="start" x="138" y="-37" font-family="Helvetica,sans-Serif" font-size="10.00">~</text>
<text text-anchor="start" x="170.5" y="-37" font-family="Helvetica,sans-Serif" font-size="10.00">get()</text>
<text text-anchor="start" x="138" y="-22" font-family="Helvetica,sans-Serif" font-size="10.00">~</text>
<text text-anchor="start" x="170.5" y="-22" font-family="Helvetica,sans-Serif" font-size="10.00">getArray()</text>
<text text-anchor="start" x="138" y="-7" font-family="Helvetica,sans-Serif" font-size="10.00">~</text>
<text text-anchor="start" x="170.5" y="-7" font-family="Helvetica,sans-Serif" font-size="10.00">getArray()</text>
<polygon fill="#666666" stroke="#666666" points="114.5,-242 114.5,-242 296.5,-242 296.5,-242 114.5,-242"/>
<polygon fill="#666666" stroke="#666666" points="114.5,-227 114.5,-227 296.5,-227 296.5,-227 114.5,-227"/>
<polygon fill="none" stroke="#666666" points="114.5,0 114.5,-270 296.5,-270 296.5,0 114.5,0"/>
</a>
</g>
</g>
<!-- Node2 -->
<g id="Node000002" class="node">
<title>Node2</title>
<g id="a_Node000002"><a xlink:href="classKeyElement.html" target="_top" xlink:title=" ">
<polygon fill="white" stroke="transparent" points="69,-371.5 0,-371.5 0,-322.5 69,-322.5 69,-371.5"/>
<text text-anchor="start" x="5.5" y="-359" font-family="Helvetica,sans-Serif" font-size="10.00">KeyElement</text>
<text text-anchor="start" x="33" y="-344" font-family="Helvetica,sans-Serif" font-size="10.00"> </text>
<text text-anchor="start" x="33" y="-329" font-family="Helvetica,sans-Serif" font-size="10.00"> </text>
<polygon fill="#666666" stroke="#666666" points="0.5,-354 0.5,-354 69.5,-354 69.5,-354 0.5,-354"/>
<polygon fill="#666666" stroke="#666666" points="0.5,-339 0.5,-339 69.5,-339 69.5,-339 0.5,-339"/>
<polygon fill="none" stroke="#666666" points="0,-322.5 0,-371.5 69,-371.5 69,-322.5 0,-322.5"/>
</a>
</g>
</g>
<!-- Node2&#45;&gt;Node1 -->
<g id="edge1_Node000001_Node000002" class="edge">
<title>Node2&#45;&gt;Node1</title>
<g id="a_edge1_Node000001_Node000002"><a xlink:title=" ">
<path fill="none" stroke="#63b8ff" d="M60.2,-314.43C74.94,-296.34 94.42,-272.42 114.31,-247.99"/>
<polygon fill="none" stroke="#63b8ff" points="57.38,-312.35 53.78,-322.32 62.81,-316.77 57.38,-312.35"/>
</a>
</g>
</g>
<!-- Node3 -->
<g id="Node000003" class="node">
<title>Node3</title>
<g id="a_Node000003"><a xlink:href="classKeyParamAccessor.html" target="_top" xlink:title=" ">
<polygon fill="white" stroke="transparent" points="190,-371.5 87,-371.5 87,-322.5 190,-322.5 190,-371.5"/>
<text text-anchor="start" x="92.5" y="-359" font-family="Helvetica,sans-Serif" font-size="10.00">KeyParamAccessor</text>
<text text-anchor="start" x="137" y="-344" font-family="Helvetica,sans-Serif" font-size="10.00"> </text>
<text text-anchor="start" x="137" y="-329" font-family="Helvetica,sans-Serif" font-size="10.00"> </text>
<polygon fill="#666666" stroke="#666666" points="87.5,-354 87.5,-354 190.5,-354 190.5,-354 87.5,-354"/>
<polygon fill="#666666" stroke="#666666" points="87.5,-339 87.5,-339 190.5,-339 190.5,-339 87.5,-339"/>
<polygon fill="none" stroke="#666666" points="87,-322.5 87,-371.5 190,-371.5 190,-322.5 87,-322.5"/>
</a>
</g>
</g>
<!-- Node3&#45;&gt;Node1 -->
<g id="edge2_Node000001_Node000003" class="edge">
<title>Node3&#45;&gt;Node1</title>
<g id="a_edge2_Node000001_Node000003"><a xlink:title=" ">
<path fill="none" stroke="#63b8ff" d="M149.14,-312.66C153.04,-300.42 157.74,-285.69 162.74,-270.04"/>
<polygon fill="none" stroke="#63b8ff" points="145.76,-311.73 146.06,-322.32 152.43,-313.86 145.76,-311.73"/>
</a>
</g>
</g>
<!-- Node4 -->
<g id="Node000004" class="node">
<title>Node4</title>
<g id="a_Node000004"><a xlink:href="classTypedKeyParamAccessor.html" target="_top" xlink:title=" ">
<polygon fill="white" stroke="transparent" points="339,-371.5 208,-371.5 208,-322.5 339,-322.5 339,-371.5"/>
<text text-anchor="start" x="213.5" y="-359" font-family="Helvetica,sans-Serif" font-size="10.00">TypedKeyParamAccessor</text>
<text text-anchor="start" x="272" y="-344" font-family="Helvetica,sans-Serif" font-size="10.00"> </text>
<text text-anchor="start" x="272" y="-329" font-family="Helvetica,sans-Serif" font-size="10.00"> </text>
<polygon fill="#666666" stroke="#666666" points="208.5,-354 208.5,-354 339.5,-354 339.5,-354 208.5,-354"/>
<polygon fill="#666666" stroke="#666666" points="208.5,-339 208.5,-339 339.5,-339 339.5,-339 208.5,-339"/>
<polygon fill="none" stroke="#666666" points="208,-322.5 208,-371.5 339,-371.5 339,-322.5 208,-322.5"/>
</a>
</g>
</g>
<!-- Node4&#45;&gt;Node1 -->
<g id="edge3_Node000001_Node000004" class="edge">
<title>Node4&#45;&gt;Node1</title>
<g id="a_edge3_Node000001_Node000004"><a xlink:title=" ">
<path fill="none" stroke="#63b8ff" d="M262.7,-312.66C258.74,-300.42 253.97,-285.69 248.9,-270.04"/>
<polygon fill="none" stroke="#63b8ff" points="259.42,-313.88 265.83,-322.32 266.08,-311.73 259.42,-313.88"/>
</a>
</g>
</g>
<!-- Node5 -->
<g id="Node000005" class="node">
<title>Node5</title>
<g id="a_Node000005"><a xlink:title=" ">
<polygon fill="white" stroke="transparent" points="605.5,-377 357.5,-377 357.5,-317 605.5,-317 605.5,-377"/>
<text text-anchor="start" x="362.5" y="-365" font-family="Helvetica,sans-Serif" font-size="10.00">Map&lt; String, io.github.fruitcropxl.config.params.</text>
<text text-anchor="start" x="450.5" y="-354" font-family="Helvetica,sans-Serif" font-size="10.00">Parameter &gt;</text>
<text text-anchor="start" x="479.5" y="-339" font-family="Helvetica,sans-Serif" font-size="10.00"> </text>
<text text-anchor="start" x="479.5" y="-324" font-family="Helvetica,sans-Serif" font-size="10.00"> </text>
<polygon fill="#666666" stroke="#666666" points="357.5,-349 357.5,-349 605.5,-349 605.5,-349 357.5,-349"/>
<polygon fill="#666666" stroke="#666666" points="357.5,-334 357.5,-334 605.5,-334 605.5,-334 357.5,-334"/>
<polygon fill="none" stroke="#666666" points="357.5,-317 357.5,-377 605.5,-377 605.5,-317 357.5,-317"/>
</a>
</g>
</g>
<!-- Node5&#45;&gt;Node1 -->
<g id="edge4_Node000001_Node000005" class="edge">
<title>Node5&#45;&gt;Node1</title>
<g id="a_edge4_Node000001_Node000005"><a xlink:title=" ">
<path fill="none" stroke="#63b8ff" d="M443.12,-316.8C407.86,-289.97 354,-248.99 306.48,-212.83"/>
<polygon fill="none" stroke="#63b8ff" points="306.3,-212.7 299.1,-212.25 296.75,-205.43 303.95,-205.88 306.3,-212.7"/>
</a>
</g>
<text text-anchor="middle" x="436.5" y="-291" font-family="Helvetica,sans-Serif" font-size="10.00" fill="grey"> &#45;params</text>
</g>
</g>
</svg>
