<?xml version="1.0" encoding="UTF-8" standalone="no"?>
<!DOCTYPE svg PUBLIC "-//W3C//DTD SVG 1.1//EN"
 "http://www.w3.org/Graphics/SVG/1.1/DTD/svg11.dtd">
<!-- Generated by graphviz version 2.43.0 (0)
 -->
<!-- Title: fspm.config.params.ParamGroup.getCategory Pages: 1 -->
<svg width="560pt" height="186pt"
 viewBox="0.00 0.00 560.00 186.00" xmlns="http://www.w3.org/2000/svg" xmlns:xlink="http://www.w3.org/1999/xlink">
<g id="graph0" class="graph" transform="scale(1 1) rotate(0) translate(4 182)">
<title>fspm.config.params.ParamGroup.getCategory</title>
<!-- Node1 -->
<g id="node1" class="node">
<title>Node1</title>
<g id="a_node1"><a xlink:title="Gets the category with the given key.">
<polygon fill="#bfbfbf" stroke="black" points="405,-73.5 405,-103.5 552,-103.5 552,-73.5 405,-73.5"/>
<text text-anchor="start" x="413" y="-91.5" font-family="Helvetica,sans-Serif" font-size="10.00">fspm.config.params.Param</text>
<text text-anchor="middle" x="478.5" y="-80.5" font-family="Helvetica,sans-Serif" font-size="10.00">Group.getCategory</text>
</a>
</g>
</g>
<!-- Node2 -->
<g id="node2" class="node">
<title>Node2</title>
<g id="a_node2"><a xlink:href="classfspm_1_1config_1_1Config_a2fb672909a4db34c8d754289f25dfc14.html#a2fb672909a4db34c8d754289f25dfc14" target="_top" xlink:title=" ">
<polygon fill="none" stroke="black" points="199,-73.5 199,-103.5 369,-103.5 369,-73.5 199,-73.5"/>
<text text-anchor="start" x="207" y="-91.5" font-family="Helvetica,sans-Serif" font-size="10.00">fspm.config.Config.setCategory</text>
<text text-anchor="middle" x="284" y="-80.5" font-family="Helvetica,sans-Serif" font-size="10.00">Context</text>
</a>
</g>
</g>
<!-- Node1&#45;&gt;Node2 -->
<g id="edge1" class="edge">
<title>Node1&#45;&gt;Node2</title>
<path fill="none" stroke="midnightblue" d="M394.72,-88.5C386.23,-88.5 377.59,-88.5 369.08,-88.5"/>
<polygon fill="midnightblue" stroke="midnightblue" points="395,-92 405,-88.5 395,-85 395,-92"/>
</g>
<!-- Node3 -->
<g id="node3" class="node">
<title>Node3</title>
<g id="a_node3"><a xlink:href="classfspm_1_1config_1_1ConfigTest_a586a428c43c00668f273133c28ddd635.html#a586a428c43c00668f273133c28ddd635" target="_top" xlink:title=" ">
<polygon fill="none" stroke="black" points="0,-147.5 0,-177.5 163,-177.5 163,-147.5 0,-147.5"/>
<text text-anchor="start" x="8" y="-165.5" font-family="Helvetica,sans-Serif" font-size="10.00">fspm.config.ConfigTest.access</text>
<text text-anchor="middle" x="81.5" y="-154.5" font-family="Helvetica,sans-Serif" font-size="10.00">Examples</text>
</a>
</g>
</g>
<!-- Node2&#45;&gt;Node3 -->
<g id="edge2" class="edge">
<title>Node2&#45;&gt;Node3</title>
<path fill="none" stroke="midnightblue" d="M240.14,-107.65C217.44,-117.46 188.95,-129.25 163,-138.5 154.35,-141.58 145.08,-144.6 136.02,-147.4"/>
<polygon fill="midnightblue" stroke="midnightblue" points="241.72,-110.78 249.49,-103.57 238.92,-104.36 241.72,-110.78"/>
</g>
<!-- Node4 -->
<g id="node4" class="node">
<title>Node4</title>
<g id="a_node4"><a xlink:href="classfspm_1_1config_1_1ConfigTest_ab639b7af67e947577db2ab2c9bc95a87.html#ab639b7af67e947577db2ab2c9bc95a87" target="_top" xlink:title=" ">
<polygon fill="none" stroke="black" points="7,-98.5 7,-128.5 156,-128.5 156,-98.5 7,-98.5"/>
<text text-anchor="start" x="15" y="-116.5" font-family="Helvetica,sans-Serif" font-size="10.00">fspm.config.ConfigTest.test</text>
<text text-anchor="middle" x="81.5" y="-105.5" font-family="Helvetica,sans-Serif" font-size="10.00">_default</text>
</a>
</g>
</g>
<!-- Node2&#45;&gt;Node4 -->
<g id="edge3" class="edge">
<title>Node2&#45;&gt;Node4</title>
<path fill="none" stroke="midnightblue" d="M188.84,-100.24C177.9,-101.6 166.86,-102.98 156.25,-104.3"/>
<polygon fill="midnightblue" stroke="midnightblue" points="189.35,-103.7 198.84,-98.99 188.49,-96.76 189.35,-103.7"/>
</g>
<!-- Node5 -->
<g id="node5" class="node">
<title>Node5</title>
<g id="a_node5"><a xlink:href="classfspm_1_1config_1_1ConfigTest_a06c9116c21e1df253ca6b4056a187bad.html#a06c9116c21e1df253ca6b4056a187bad" target="_top" xlink:title=" ">
<polygon fill="none" stroke="black" points="7,-49.5 7,-79.5 156,-79.5 156,-49.5 7,-49.5"/>
<text text-anchor="start" x="15" y="-67.5" font-family="Helvetica,sans-Serif" font-size="10.00">fspm.config.ConfigTest.test</text>
<text text-anchor="middle" x="81.5" y="-56.5" font-family="Helvetica,sans-Serif" font-size="10.00">_phenology</text>
</a>
</g>
</g>
<!-- Node2&#45;&gt;Node5 -->
<g id="edge4" class="edge">
<title>Node2&#45;&gt;Node5</title>
<path fill="none" stroke="midnightblue" d="M188.84,-77.23C177.9,-75.92 166.86,-74.6 156.25,-73.33"/>
<polygon fill="midnightblue" stroke="midnightblue" points="188.5,-80.71 198.84,-78.43 189.33,-73.76 188.5,-80.71"/>
</g>
<!-- Node6 -->
<g id="node6" class="node">
<title>Node6</title>
<g id="a_node6"><a xlink:href="classfspm_1_1config_1_1ConfigTest_a0ace3587e0462f748617e279d4d0c659.html#a0ace3587e0462f748617e279d4d0c659" target="_top" xlink:title=" ">
<polygon fill="none" stroke="black" points="7,-0.5 7,-30.5 156,-30.5 156,-0.5 7,-0.5"/>
<text text-anchor="start" x="15" y="-18.5" font-family="Helvetica,sans-Serif" font-size="10.00">fspm.config.ConfigTest.test</text>
<text text-anchor="middle" x="81.5" y="-7.5" font-family="Helvetica,sans-Serif" font-size="10.00">_types</text>
</a>
</g>
</g>
<!-- Node2&#45;&gt;Node6 -->
<g id="edge5" class="edge">
<title>Node2&#45;&gt;Node6</title>
<path fill="none" stroke="midnightblue" d="M238.3,-69.64C215.86,-60.42 188.17,-49.42 163,-40.5 153.48,-37.12 143.25,-33.75 133.37,-30.63"/>
<polygon fill="midnightblue" stroke="midnightblue" points="237,-72.89 247.58,-73.47 239.67,-66.42 237,-72.89"/>
</g>
</g>
</svg>
