<?xml version="1.0" encoding="UTF-8" standalone="no"?>
<!DOCTYPE svg PUBLIC "-//W3C//DTD SVG 1.1//EN"
 "http://www.w3.org/Graphics/SVG/1.1/DTD/svg11.dtd">
<!-- Generated by graphviz version 2.43.0 (0)
 -->
<!-- Title: fspm.config.params.group.ParamGroup Pages: 1 -->
<svg width="416pt" height="342pt"
 viewBox="0.00 0.00 416.00 342.00" xmlns="http://www.w3.org/2000/svg" xmlns:xlink="http://www.w3.org/1999/xlink">
<g id="graph0" class="graph" transform="scale(1 1) rotate(0) translate(4 338)">
<title>fspm.config.params.group.ParamGroup</title>
<!-- Node1 -->
<g id="node1" class="node">
<title>Node1</title>
<g id="a_node1"><a xlink:title="Parameter configuration class for storing parameter categories.">
<polygon fill="#bfbfbf" stroke="black" points="126.5,-160.5 126.5,-228.5 273.5,-228.5 273.5,-160.5 126.5,-160.5"/>
<text text-anchor="start" x="134.5" y="-216.5" font-family="Helvetica,sans-Serif" font-size="10.00">fspm.config.params.group.</text>
<text text-anchor="middle" x="200" y="-205.5" font-family="Helvetica,sans-Serif" font-size="10.00">ParamGroup</text>
<polyline fill="none" stroke="black" points="126.5,-198.5 273.5,-198.5 "/>
<text text-anchor="middle" x="200" y="-186.5" font-family="Helvetica,sans-Serif" font-size="10.00"> </text>
<polyline fill="none" stroke="black" points="126.5,-179.5 273.5,-179.5 "/>
<text text-anchor="start" x="134.5" y="-167.5" font-family="Helvetica,sans-Serif" font-size="10.00"># ParamGroup()</text>
</a>
</g>
</g>
<!-- Node3 -->
<g id="node3" class="node">
<title>Node3</title>
<g id="a_node3"><a xlink:href="classfspm_1_1config_1_1params_1_1group_1_1DocumentCategoryNameGroup.html" target="_top" xlink:title=" ">
<polygon fill="none" stroke="black" points="0,-17 0,-107 188,-107 188,-17 0,-17"/>
<text text-anchor="start" x="8" y="-95" font-family="Helvetica,sans-Serif" font-size="10.00">fspm.config.params.group.</text>
<text text-anchor="middle" x="94" y="-84" font-family="Helvetica,sans-Serif" font-size="10.00">DocumentCategoryNameGroup</text>
<polyline fill="none" stroke="black" points="0,-77 188,-77 "/>
<text text-anchor="start" x="8" y="-65" font-family="Helvetica,sans-Serif" font-size="10.00">&#45; categoryHierarchy</text>
<polyline fill="none" stroke="black" points="0,-58 188,-58 "/>
<text text-anchor="start" x="8" y="-46" font-family="Helvetica,sans-Serif" font-size="10.00">+ DocumentCategoryNameGroup()</text>
<text text-anchor="start" x="8" y="-35" font-family="Helvetica,sans-Serif" font-size="10.00">+ getCategoryHierarchy()</text>
<text text-anchor="start" x="8" y="-24" font-family="Helvetica,sans-Serif" font-size="10.00">+ toString()</text>
</a>
</g>
</g>
<!-- Node1&#45;&gt;Node3 -->
<g id="edge2" class="edge">
<title>Node1&#45;&gt;Node3</title>
<path fill="none" stroke="midnightblue" d="M166.64,-152.42C154.91,-137.99 141.69,-121.72 129.78,-107.05"/>
<polygon fill="none" stroke="midnightblue" points="163.96,-154.68 172.98,-160.23 169.39,-150.26 163.96,-154.68"/>
</g>
<!-- Node4 -->
<g id="node4" class="node">
<title>Node4</title>
<g id="a_node4"><a xlink:href="classfspm_1_1config_1_1params_1_1group_1_1DocumentHybridCategoryNameGroup.html" target="_top" xlink:title=" ">
<polygon fill="none" stroke="black" points="206,-0.5 206,-123.5 408,-123.5 408,-0.5 206,-0.5"/>
<text text-anchor="start" x="214" y="-111.5" font-family="Helvetica,sans-Serif" font-size="10.00">fspm.config.params.group.</text>
<text text-anchor="middle" x="307" y="-100.5" font-family="Helvetica,sans-Serif" font-size="10.00">DocumentHybridCategoryNameGroup</text>
<polyline fill="none" stroke="black" points="206,-93.5 408,-93.5 "/>
<text text-anchor="start" x="214" y="-81.5" font-family="Helvetica,sans-Serif" font-size="10.00">&#45; categoryHierarchy</text>
<text text-anchor="start" x="214" y="-70.5" font-family="Helvetica,sans-Serif" font-size="10.00">&#45; tableHierarchy</text>
<polyline fill="none" stroke="black" points="206,-63.5 408,-63.5 "/>
<text text-anchor="start" x="214" y="-51.5" font-family="Helvetica,sans-Serif" font-size="10.00">+ DocumentHybridCategoryName</text>
<text text-anchor="start" x="214" y="-40.5" font-family="Helvetica,sans-Serif" font-size="10.00">Group()</text>
<text text-anchor="start" x="214" y="-29.5" font-family="Helvetica,sans-Serif" font-size="10.00">+ getCategoryHierarchy()</text>
<text text-anchor="start" x="214" y="-18.5" font-family="Helvetica,sans-Serif" font-size="10.00">+ getTableHierarchy()</text>
<text text-anchor="start" x="214" y="-7.5" font-family="Helvetica,sans-Serif" font-size="10.00">+ toString()</text>
</a>
</g>
</g>
<!-- Node1&#45;&gt;Node4 -->
<g id="edge3" class="edge">
<title>Node1&#45;&gt;Node4</title>
<path fill="none" stroke="midnightblue" d="M233.7,-152.4C241.2,-143.25 249.31,-133.36 257.31,-123.61"/>
<polygon fill="none" stroke="midnightblue" points="230.91,-150.28 227.28,-160.23 236.32,-154.72 230.91,-150.28"/>
</g>
<!-- Node2 -->
<g id="node2" class="node">
<title>Node2</title>
<g id="a_node2"><a xlink:href="classfspm_1_1util_1_1KeyElement.html" target="_top" xlink:title=" ">
<polygon fill="none" stroke="black" points="139,-265.5 139,-333.5 261,-333.5 261,-265.5 139,-265.5"/>
<text text-anchor="middle" x="200" y="-321.5" font-family="Helvetica,sans-Serif" font-size="10.00">fspm.util.KeyElement</text>
<polyline fill="none" stroke="black" points="139,-314.5 261,-314.5 "/>
<text text-anchor="start" x="147" y="-302.5" font-family="Helvetica,sans-Serif" font-size="10.00">&#45; key</text>
<polyline fill="none" stroke="black" points="139,-295.5 261,-295.5 "/>
<text text-anchor="start" x="147" y="-283.5" font-family="Helvetica,sans-Serif" font-size="10.00">+ KeyElement()</text>
<text text-anchor="start" x="147" y="-272.5" font-family="Helvetica,sans-Serif" font-size="10.00">+ getKey()</text>
</a>
</g>
</g>
<!-- Node2&#45;&gt;Node1 -->
<g id="edge1" class="edge">
<title>Node2&#45;&gt;Node1</title>
<path fill="none" stroke="midnightblue" d="M200,-255.14C200,-246.26 200,-237.04 200,-228.59"/>
<polygon fill="none" stroke="midnightblue" points="196.5,-255.34 200,-265.34 203.5,-255.34 196.5,-255.34"/>
</g>
</g>
</svg>
