<?xml version="1.0" encoding="UTF-8" standalone="no"?>
<!DOCTYPE svg PUBLIC "-//W3C//DTD SVG 1.1//EN"
 "http://www.w3.org/Graphics/SVG/1.1/DTD/svg11.dtd">
<!-- Generated by graphviz version 2.43.0 (0)
 -->
<!-- Title: io.github.fruitcropxl.config.params.structures.CategoryStore.getArray Pages: 1 -->
<!--zoomable 193 -->

<svg id="main" version="1.1" xmlns="http://www.w3.org/2000/svg" xmlns:xlink="http://www.w3.org/1999/xlink" xml:space="preserve" onload="init(evt)">
<style type="text/css"><![CDATA[
.node, .edge {opacity: 0.7;}
.node.selected, .edge.selected {opacity: 1;}
.edge:hover path { stroke: red; }
.edge:hover polygon { stroke: red; fill: red; }
]]></style>

<defs>
  <circle id="rim" cx="0" cy="0" r="7"/>
  <circle id="rim2" cx="0" cy="0" r="3.5"/>
  <g id="zoomPlus">
    <use xlink:href="#rim" fill="#404040"><set attributeName="fill" to="#808080" begin="zoomplus.mouseover" end="zoomplus.mouseout"/></use>
    <path d="M-4,0h8M0,-4v8" fill="none" stroke="white" stroke-width="1.5" pointer-events="none"/>
  </g>
  <g id="zoomMin">
    <use xlink:href="#rim" fill="#404040"><set attributeName="fill" to="#808080" begin="zoomminus.mouseover" end="zoomminus.mouseout"/></use>
    <path d="M-4,0h8" fill="none" stroke="white" stroke-width="1.5" pointer-events="none"/>
  </g>
  <g id="arrowUp" transform="translate(30 24)">
    <use xlink:href="#rim"/>
    <path pointer-events="none" fill="none" stroke="white" stroke-width="1.5" d="M0,-3.0v7 M-2.5,-0.5L0,-3.0L2.5,-0.5"/>
  </g>
  <g id="arrowRight" transform="rotate(90) translate(36 -43)">
    <use xlink:href="#rim"/>
    <path pointer-events="none" fill="none" stroke="white" stroke-width="1.5" d="M0,-3.0v7 M-2.5,-0.5L0,-3.0L2.5,-0.5"/>
  </g>
  <g id="arrowDown" transform="rotate(180) translate(-30 -48)">
    <use xlink:href="#rim"/>
    <path pointer-events="none" fill="none" stroke="white" stroke-width="1.5" d="M0,-3.0v7 M-2.5,-0.5L0,-3.0L2.5,-0.5"/>
  </g>
  <g id="arrowLeft" transform="rotate(270) translate(-36 17)">
    <use xlink:href="#rim"/>
    <path pointer-events="none" fill="none" stroke="white" stroke-width="1.5" d="M0,-3.0v7 M-2.5,-0.5L0,-3.0L2.5,-0.5"/>
  </g>
  <g id="resetDef">
    <use xlink:href="#rim2" fill="#404040"><set attributeName="fill" to="#808080" begin="reset.mouseover" end="reset.mouseout"/></use>
  </g>
</defs>
<script type="application/ecmascript">
var viewWidth = 1021;
var viewHeight = 193;
var sectionId = 'dynsection-0';
</script>
<script type="application/ecmascript" xlink:href="svg.min.js"/>
<svg id="graph" class="graph">
<g id="viewport">
<title>io.github.fruitcropxl.config.params.structures.CategoryStore.getArray</title>
<!-- Node1 -->
<g id="Node000001" class="node">
<title>Node1</title>
<g id="a_Node000001"><a xlink:title=" ">
<polygon fill="#999999" stroke="#666666" points="239,-92 0,-92 0,-62 239,-62 239,-92"/>
<text text-anchor="start" x="8" y="-80" font-family="Helvetica,sans-Serif" font-size="10.00">io.github.fruitcropxl.config.params.structures.</text>
<text text-anchor="middle" x="119.5" y="-69" font-family="Helvetica,sans-Serif" font-size="10.00">CategoryStore.getArray</text>
</a>
</g>
</g>
<!-- Node2 -->
<g id="Node000002" class="node">
<title>Node2</title>
<g id="a_Node000002"><a xlink:href="classio_1_1github_1_1fruitcropxl_1_1config_1_1params_1_1ParamCategory_ac64ba4716a6f5a7cbbe77b5b8154dd7d.html#ac64ba4716a6f5a7cbbe77b5b8154dd7d" target="_top" xlink:title=" ">
<polygon fill="white" stroke="#666666" points="488.5,-116 300.5,-116 300.5,-86 488.5,-86 488.5,-116"/>
<text text-anchor="start" x="308.5" y="-104" font-family="Helvetica,sans-Serif" font-size="10.00">io.github.fruitcropxl.config.params.</text>
<text text-anchor="middle" x="394.5" y="-93" font-family="Helvetica,sans-Serif" font-size="10.00">ParamCategory.getArray</text>
</a>
</g>
</g>
<!-- Node1&#45;&gt;Node2 -->
<g id="edge1_Node000001_Node000002" class="edge">
<title>Node1&#45;&gt;Node2</title>
<g id="a_edge1_Node000001_Node000002"><a xlink:title=" ">
<path fill="none" stroke="#63b8ff" d="M239.05,-87.42C255.97,-88.91 273.27,-90.43 289.87,-91.89"/>
<polygon fill="#63b8ff" stroke="#63b8ff" points="289.85,-95.4 300.11,-92.79 290.46,-88.43 289.85,-95.4"/>
</a>
</g>
</g>
<!-- Node7 -->
<g id="Node000007" class="node">
<title>Node7</title>
<g id="a_Node000007"><a xlink:href="classio_1_1github_1_1fruitcropxl_1_1config_1_1params_1_1structures_1_1CategoryStore_aa90095e4111da0b9c60d098de4a89a4f.html#aa90095e4111da0b9c60d098de4a89a4f" target="_top" xlink:title=" ">
<polygon fill="white" stroke="#666666" points="514,-68 275,-68 275,-38 514,-38 514,-68"/>
<text text-anchor="start" x="283" y="-56" font-family="Helvetica,sans-Serif" font-size="10.00">io.github.fruitcropxl.config.params.structures.</text>
<text text-anchor="middle" x="394.5" y="-45" font-family="Helvetica,sans-Serif" font-size="10.00">CategoryStore.validateFlattenedAccess</text>
</a>
</g>
</g>
<!-- Node1&#45;&gt;Node7 -->
<g id="edge6_Node000001_Node000007" class="edge">
<title>Node1&#45;&gt;Node7</title>
<g id="a_edge6_Node000001_Node000007"><a xlink:title=" ">
<path fill="none" stroke="#63b8ff" d="M239.05,-66.58C247.53,-65.83 256.11,-65.08 264.64,-64.33"/>
<polygon fill="#63b8ff" stroke="#63b8ff" points="264.98,-67.81 274.63,-63.45 264.37,-60.84 264.98,-67.81"/>
</a>
</g>
</g>
<!-- Node3 -->
<g id="Node000003" class="node">
<title>Node3</title>
<g id="a_Node000003"><a xlink:href="classio_1_1github_1_1fruitcropxl_1_1config_1_1params_1_1Parameter_af214f779c4a3550b86aef81d1aca6317.html#af214f779c4a3550b86aef81d1aca6317" target="_top" xlink:title="Generic method for getting arrays of a given type.">
<polygon fill="white" stroke="#666666" points="763.5,-154 575.5,-154 575.5,-124 763.5,-124 763.5,-154"/>
<text text-anchor="start" x="583.5" y="-142" font-family="Helvetica,sans-Serif" font-size="10.00">io.github.fruitcropxl.config.params.</text>
<text text-anchor="middle" x="669.5" y="-131" font-family="Helvetica,sans-Serif" font-size="10.00">Parameter.asArray</text>
</a>
</g>
</g>
<!-- Node2&#45;&gt;Node3 -->
<g id="edge2_Node000002_Node000003" class="edge">
<title>Node2&#45;&gt;Node3</title>
<g id="a_edge2_Node000002_Node000003"><a xlink:title=" ">
<path fill="none" stroke="#63b8ff" d="M488.69,-113.97C513.37,-117.41 540.16,-121.14 565.34,-124.64"/>
<polygon fill="#63b8ff" stroke="#63b8ff" points="564.88,-128.11 575.27,-126.02 565.85,-121.18 564.88,-128.11"/>
</a>
</g>
</g>
<!-- Node6 -->
<g id="Node000006" class="node">
<title>Node6</title>
<g id="a_Node000006"><a xlink:href="classio_1_1github_1_1fruitcropxl_1_1config_1_1params_1_1ParamCategory_ad96823e990040d8e36517b130dd87b74.html#ad96823e990040d8e36517b130dd87b74" target="_top" xlink:title="Get generic Parameter with the given key.">
<polygon fill="white" stroke="#666666" points="1013,-73 825,-73 825,-43 1013,-43 1013,-73"/>
<text text-anchor="start" x="833" y="-61" font-family="Helvetica,sans-Serif" font-size="10.00">io.github.fruitcropxl.config.params.</text>
<text text-anchor="middle" x="919" y="-50" font-family="Helvetica,sans-Serif" font-size="10.00">ParamCategory.getParameter</text>
</a>
</g>
</g>
<!-- Node2&#45;&gt;Node6 -->
<g id="edge5_Node000002_Node000006" class="edge">
<title>Node2&#45;&gt;Node6</title>
<g id="a_edge5_Node000002_Node000006"><a xlink:title=" ">
<path fill="none" stroke="#63b8ff" d="M488.53,-93.54C568.27,-87.12 686.2,-77.56 789,-69 797.37,-68.3 806.05,-67.57 814.76,-66.84"/>
<polygon fill="#63b8ff" stroke="#63b8ff" points="815.32,-70.3 824.99,-65.97 814.74,-63.33 815.32,-70.3"/>
</a>
</g>
</g>
<!-- Node4 -->
<g id="Node000004" class="node">
<title>Node4</title>
<g id="a_Node000004"><a xlink:href="classio_1_1github_1_1fruitcropxl_1_1config_1_1params_1_1Parameter_afb814e7b56aca911abaa4ea6cec8dfa9.html#afb814e7b56aca911abaa4ea6cec8dfa9" target="_top" xlink:title="Check which type the double value has been parsed as.">
<polygon fill="white" stroke="#666666" points="1013,-185 825,-185 825,-155 1013,-155 1013,-185"/>
<text text-anchor="start" x="833" y="-173" font-family="Helvetica,sans-Serif" font-size="10.00">io.github.fruitcropxl.config.params.</text>
<text text-anchor="middle" x="919" y="-162" font-family="Helvetica,sans-Serif" font-size="10.00">Parameter.getDoubleType</text>
</a>
</g>
</g>
<!-- Node3&#45;&gt;Node4 -->
<g id="edge3_Node000003_Node000004" class="edge">
<title>Node3&#45;&gt;Node4</title>
<g id="a_edge3_Node000003_Node000004"><a xlink:title=" ">
<path fill="none" stroke="#63b8ff" d="M763.72,-150.68C780.44,-152.77 797.96,-154.96 814.94,-157.09"/>
<polygon fill="#63b8ff" stroke="#63b8ff" points="814.51,-160.56 824.87,-158.33 815.38,-153.62 814.51,-160.56"/>
</a>
</g>
</g>
<!-- Node5 -->
<g id="Node000005" class="node">
<title>Node5</title>
<g id="a_Node000005"><a xlink:href="classio_1_1github_1_1fruitcropxl_1_1config_1_1params_1_1Parameter_aa989e0ad581b0dc655b75ccbf70cb26e.html#aa989e0ad581b0dc655b75ccbf70cb26e" target="_top" xlink:title=" ">
<polygon fill="white" stroke="#666666" points="1013,-137 825,-137 825,-107 1013,-107 1013,-137"/>
<text text-anchor="start" x="833" y="-125" font-family="Helvetica,sans-Serif" font-size="10.00">io.github.fruitcropxl.config.params.</text>
<text text-anchor="middle" x="919" y="-114" font-family="Helvetica,sans-Serif" font-size="10.00">Parameter.isNull</text>
</a>
</g>
</g>
<!-- Node3&#45;&gt;Node5 -->
<g id="edge4_Node000003_Node000005" class="edge">
<title>Node3&#45;&gt;Node5</title>
<g id="a_edge4_Node000003_Node000005"><a xlink:title=" ">
<path fill="none" stroke="#63b8ff" d="M763.72,-132.6C780.28,-131.46 797.63,-130.27 814.46,-129.11"/>
<polygon fill="#63b8ff" stroke="#63b8ff" points="815.13,-132.57 824.87,-128.4 814.65,-125.59 815.13,-132.57"/>
</a>
</g>
</g>
<!-- Node7&#45;&gt;Node6 -->
<g id="edge9_Node000007_Node000006" class="edge">
<title>Node7&#45;&gt;Node6</title>
<g id="a_edge9_Node000007_Node000006"><a xlink:title=" ">
<path fill="none" stroke="#63b8ff" d="M514.06,-54.13C604.57,-55 728.04,-56.18 814.57,-57.01"/>
<polygon fill="#63b8ff" stroke="#63b8ff" points="814.63,-60.51 824.67,-57.11 814.7,-53.51 814.63,-60.51"/>
</a>
</g>
</g>
<!-- Node8 -->
<g id="Node000008" class="node">
<title>Node8</title>
<g id="a_Node000008"><a xlink:href="classio_1_1github_1_1fruitcropxl_1_1config_1_1params_1_1structures_1_1CategoryStore_a9b2ec8a2beb1fd75ac2fb60a9389ac84.html#a9b2ec8a2beb1fd75ac2fb60a9389ac84" target="_top" xlink:title=" ">
<polygon fill="white" stroke="#666666" points="789,-30 550,-30 550,0 789,0 789,-30"/>
<text text-anchor="start" x="558" y="-18" font-family="Helvetica,sans-Serif" font-size="10.00">io.github.fruitcropxl.config.params.structures.</text>
<text text-anchor="middle" x="669.5" y="-7" font-family="Helvetica,sans-Serif" font-size="10.00">CategoryStore.getCategoryWithParam</text>
</a>
</g>
</g>
<!-- Node7&#45;&gt;Node8 -->
<g id="edge7_Node000007_Node000008" class="edge">
<title>Node7&#45;&gt;Node8</title>
<g id="a_edge7_Node000007_Node000008"><a xlink:title=" ">
<path fill="none" stroke="#63b8ff" d="M503.4,-37.98C518.8,-35.84 534.71,-33.62 550.3,-31.45"/>
<polygon fill="#63b8ff" stroke="#63b8ff" points="551.07,-34.88 560.49,-30.03 550.11,-27.95 551.07,-34.88"/>
</a>
</g>
</g>
<!-- Node8&#45;&gt;Node6 -->
<g id="edge8_Node000008_Node000006" class="edge">
<title>Node8&#45;&gt;Node6</title>
<g id="a_edge8_Node000008_Node000006"><a xlink:title=" ">
<path fill="none" stroke="#63b8ff" d="M757.06,-30.04C777.88,-33.66 800.25,-37.54 821.49,-41.23"/>
<polygon fill="#63b8ff" stroke="#63b8ff" points="821.03,-44.71 831.49,-42.97 822.23,-37.81 821.03,-44.71"/>
</a>
</g>
</g>
</g>
</svg>

<g id="navigator" transform="translate(0 0)" fill="#404254">
  <rect fill="#f2f5e9" fill-opacity="0.5" stroke="#606060" stroke-width=".5" x="0" y="0" width="60" height="60"/>
  <use id="zoomplus" xlink:href="#zoomPlus" x="17" y="9" onmousedown="handleZoom(evt,'in')"/>
  <use id="zoomminus" xlink:href="#zoomMin" x="42" y="9" onmousedown="handleZoom(evt,'out')"/>
  <use id="reset" xlink:href="#resetDef" x="30" y="36" onmousedown="handleReset()"/>
   <use id="arrowup" xlink:href="#arrowUp" x="0" y="0" onmousedown="handlePan(0,-1)"/>
  <use id="arrowright" xlink:href="#arrowRight" x="0" y="0" onmousedown="handlePan(1,0)"/>
  <use id="arrowdown" xlink:href="#arrowDown" x="0" y="0" onmousedown="handlePan(0,1)"/>
  <use id="arrowleft" xlink:href="#arrowLeft" x="0" y="0" onmousedown="handlePan(-1,0)"/>
</g>
<svg viewBox="0 0 15 15" width="100%" height="30px" preserveAspectRatio="xMaxYMin meet">
 <g id="arrow_out" transform="scale(0.3 0.3)">
  <a xlink:href="classio_1_1github_1_1fruitcropxl_1_1config_1_1params_1_1structures_1_1CategoryStore_ac6258c35307415d9c7adeaeeab4095fb_ac6258c35307415d9c7adeaeeab4095fb_cgraph_org.svg" target="_base">
   <rect id="button" ry="5" rx="5" y="6" x="6" height="38" width="38"
        fill="#f2f5e9" fill-opacity="0.5" stroke="#606060" stroke-width="1.0"/>
   <path id="arrow"
     d="M 11.500037,31.436501 C 11.940474,20.09759 22.043105,11.32322 32.158766,21.979434 L 37.068811,17.246167 C 37.068811,17.246167 37.088388,32 37.088388,32 L 22.160133,31.978069 C 22.160133,31.978069 26.997745,27.140456 26.997745,27.140456 C 18.528582,18.264221 13.291696,25.230495 11.500037,31.436501 z"
     style="fill:#404040;"/>
  </a>
 </g>
</svg>

<style type='text/css'>
<![CDATA[
[data-mouse-over-selected='false'] { opacity: 0.7; }
[data-mouse-over-selected='true']  { opacity: 1.0; }
]]>
</style>
<script type="application/ecmascript"><![CDATA[
document.addEventListener('DOMContentLoaded', (event) => {
  highlightEdges();
  highlightAdjacentNodes();
});
]]></script>
</svg>
