<?xml version="1.0" encoding="UTF-8" standalone="no"?>
<!DOCTYPE svg PUBLIC "-//W3C//DTD SVG 1.1//EN"
 "http://www.w3.org/Graphics/SVG/1.1/DTD/svg11.dtd">
<!-- Generated by graphviz version 2.43.0 (0)
 -->
<!-- Title: fspm.config.params.hierarchy.CategoryHierarchy.getDouble Pages: 1 -->
<svg width="1290pt" height="165pt"
 viewBox="0.00 0.00 1290.00 165.00" xmlns="http://www.w3.org/2000/svg" xmlns:xlink="http://www.w3.org/1999/xlink">
<g id="graph0" class="graph" transform="scale(1 1) rotate(0) translate(4 161)">
<title>fspm.config.params.hierarchy.CategoryHierarchy.getDouble</title>
<!-- Node1 -->
<g id="node1" class="node">
<title>Node1</title>
<g id="a_node1"><a xlink:title=" ">
<polygon fill="#bfbfbf" stroke="black" points="0,-62.5 0,-92.5 164,-92.5 164,-62.5 0,-62.5"/>
<text text-anchor="start" x="8" y="-80.5" font-family="Helvetica,sans-Serif" font-size="10.00">fspm.config.params.hierarchy.</text>
<text text-anchor="middle" x="82" y="-69.5" font-family="Helvetica,sans-Serif" font-size="10.00">CategoryHierarchy.getDouble</text>
</a>
</g>
</g>
<!-- Node2 -->
<g id="node2" class="node">
<title>Node2</title>
<g id="a_node2"><a xlink:href="classfspm_1_1config_1_1params_1_1hierarchy_1_1CategoryHierarchy_a102a9918613120b35bf206b2add5044a.html#a102a9918613120b35bf206b2add5044a" target="_top" xlink:title=" ">
<polygon fill="none" stroke="black" points="200,-62.5 200,-92.5 364,-92.5 364,-62.5 200,-62.5"/>
<text text-anchor="start" x="208" y="-80.5" font-family="Helvetica,sans-Serif" font-size="10.00">fspm.config.params.hierarchy.</text>
<text text-anchor="middle" x="282" y="-69.5" font-family="Helvetica,sans-Serif" font-size="10.00">CategoryHierarchy.getDouble</text>
</a>
</g>
</g>
<!-- Node1&#45;&gt;Node2 -->
<g id="edge1" class="edge">
<title>Node1&#45;&gt;Node2</title>
<path fill="none" stroke="midnightblue" d="M164.11,-77.5C172.46,-77.5 180.99,-77.5 189.44,-77.5"/>
<polygon fill="midnightblue" stroke="midnightblue" points="189.7,-81 199.7,-77.5 189.7,-74 189.7,-81"/>
</g>
<!-- Node3 -->
<g id="node3" class="node">
<title>Node3</title>
<g id="a_node3"><a xlink:href="classfspm_1_1config_1_1params_1_1ParamCategory_ad9163381c1dfed699d3d74b2d36c1893.html#ad9163381c1dfed699d3d74b2d36c1893" target="_top" xlink:title=" ">
<polygon fill="none" stroke="black" points="424.5,-90.5 424.5,-120.5 571.5,-120.5 571.5,-90.5 424.5,-90.5"/>
<text text-anchor="start" x="432.5" y="-108.5" font-family="Helvetica,sans-Serif" font-size="10.00">fspm.config.params.Param</text>
<text text-anchor="middle" x="498" y="-97.5" font-family="Helvetica,sans-Serif" font-size="10.00">Category.getDouble</text>
</a>
</g>
</g>
<!-- Node2&#45;&gt;Node3 -->
<g id="edge2" class="edge">
<title>Node2&#45;&gt;Node3</title>
<path fill="none" stroke="midnightblue" d="M364.21,-88.13C380.56,-90.27 397.77,-92.52 414.18,-94.66"/>
<polygon fill="midnightblue" stroke="midnightblue" points="413.9,-98.16 424.27,-95.98 414.81,-91.22 413.9,-98.16"/>
</g>
<!-- Node8 -->
<g id="node8" class="node">
<title>Node8</title>
<g id="a_node8"><a xlink:href="classfspm_1_1config_1_1params_1_1hierarchy_1_1CategoryHierarchy_a97a3787601b2a1964f925a5509267602.html#a97a3787601b2a1964f925a5509267602" target="_top" xlink:title=" ">
<polygon fill="none" stroke="black" points="400,-30 400,-71 596,-71 596,-30 400,-30"/>
<text text-anchor="start" x="408" y="-59" font-family="Helvetica,sans-Serif" font-size="10.00">fspm.config.params.hierarchy.</text>
<text text-anchor="start" x="408" y="-48" font-family="Helvetica,sans-Serif" font-size="10.00">CategoryHierarchy.validateFlattened</text>
<text text-anchor="middle" x="498" y="-37" font-family="Helvetica,sans-Serif" font-size="10.00">Access</text>
</a>
</g>
</g>
<!-- Node2&#45;&gt;Node8 -->
<g id="edge7" class="edge">
<title>Node2&#45;&gt;Node8</title>
<path fill="none" stroke="midnightblue" d="M364.21,-67.25C372.54,-66.2 381.09,-65.12 389.64,-64.05"/>
<polygon fill="midnightblue" stroke="midnightblue" points="390.19,-67.5 399.67,-62.78 389.31,-60.56 390.19,-67.5"/>
</g>
<!-- Node4 -->
<g id="node4" class="node">
<title>Node4</title>
<g id="a_node4"><a xlink:href="classfspm_1_1config_1_1params_1_1Parameter_ad0857a4bb8cd3c4d354682f2e90bf362.html#ad0857a4bb8cd3c4d354682f2e90bf362" target="_top" xlink:title=" ">
<polygon fill="none" stroke="black" points="653.5,-126.5 653.5,-156.5 833.5,-156.5 833.5,-126.5 653.5,-126.5"/>
<text text-anchor="start" x="661.5" y="-144.5" font-family="Helvetica,sans-Serif" font-size="10.00">fspm.config.params.Parameter.as</text>
<text text-anchor="middle" x="743.5" y="-133.5" font-family="Helvetica,sans-Serif" font-size="10.00">Double</text>
</a>
</g>
</g>
<!-- Node3&#45;&gt;Node4 -->
<g id="edge3" class="edge">
<title>Node3&#45;&gt;Node4</title>
<path fill="none" stroke="midnightblue" d="M571.73,-116.25C594.17,-119.57 619.27,-123.28 643.19,-126.82"/>
<polygon fill="midnightblue" stroke="midnightblue" points="642.94,-130.32 653.35,-128.32 643.97,-123.39 642.94,-130.32"/>
</g>
<!-- Node6 -->
<g id="node6" class="node">
<title>Node6</title>
<g id="a_node6"><a xlink:href="classfspm_1_1config_1_1params_1_1ParamCategory_ac81e6b98fa48fc3426eed6f60e81da5b.html#ac81e6b98fa48fc3426eed6f60e81da5b" target="_top" xlink:title="Get generic Parameter with the given key.">
<polygon fill="none" stroke="black" points="916,-44.5 916,-74.5 1063,-74.5 1063,-44.5 916,-44.5"/>
<text text-anchor="start" x="924" y="-62.5" font-family="Helvetica,sans-Serif" font-size="10.00">fspm.config.params.Param</text>
<text text-anchor="middle" x="989.5" y="-51.5" font-family="Helvetica,sans-Serif" font-size="10.00">Category.getParameter</text>
</a>
</g>
</g>
<!-- Node3&#45;&gt;Node6 -->
<g id="edge5" class="edge">
<title>Node3&#45;&gt;Node6</title>
<path fill="none" stroke="midnightblue" d="M571.75,-98.66C661.05,-90.27 812.11,-76.08 905.74,-67.28"/>
<polygon fill="midnightblue" stroke="midnightblue" points="906.12,-70.76 915.75,-66.34 905.46,-63.79 906.12,-70.76"/>
</g>
<!-- Node5 -->
<g id="node5" class="node">
<title>Node5</title>
<g id="a_node5"><a xlink:href="classfspm_1_1config_1_1params_1_1Parameter_a2fd72835a908354fea23f92e3f3b1800.html#a2fd72835a908354fea23f92e3f3b1800" target="_top" xlink:title=" ">
<polygon fill="none" stroke="black" points="891,-132 891,-151 1088,-151 1088,-132 891,-132"/>
<text text-anchor="middle" x="989.5" y="-139" font-family="Helvetica,sans-Serif" font-size="10.00">fspm.config.params.Parameter.isNull</text>
</a>
</g>
</g>
<!-- Node4&#45;&gt;Node5 -->
<g id="edge4" class="edge">
<title>Node4&#45;&gt;Node5</title>
<path fill="none" stroke="midnightblue" d="M833.63,-141.5C848.92,-141.5 864.97,-141.5 880.7,-141.5"/>
<polygon fill="midnightblue" stroke="midnightblue" points="880.97,-145 890.97,-141.5 880.97,-138 880.97,-145"/>
</g>
<!-- Node7 -->
<g id="node7" class="node">
<title>Node7</title>
<g id="a_node7"><a xlink:href="classfspm_1_1util_1_1KeyElement_a653aac67328f98c1201974736671fe0d.html#a653aac67328f98c1201974736671fe0d" target="_top" xlink:title=" ">
<polygon fill="none" stroke="black" points="1124,-50 1124,-69 1282,-69 1282,-50 1124,-50"/>
<text text-anchor="middle" x="1203" y="-57" font-family="Helvetica,sans-Serif" font-size="10.00">fspm.util.KeyElement.getKey</text>
</a>
</g>
</g>
<!-- Node6&#45;&gt;Node7 -->
<g id="edge6" class="edge">
<title>Node6&#45;&gt;Node7</title>
<path fill="none" stroke="midnightblue" d="M1063.29,-59.5C1079.42,-59.5 1096.68,-59.5 1113.36,-59.5"/>
<polygon fill="midnightblue" stroke="midnightblue" points="1113.66,-63 1123.66,-59.5 1113.66,-56 1113.66,-63"/>
</g>
<!-- Node8&#45;&gt;Node6 -->
<g id="edge10" class="edge">
<title>Node8&#45;&gt;Node6</title>
<path fill="none" stroke="midnightblue" d="M596,-52.28C686.53,-53.95 820.15,-56.4 905.76,-57.98"/>
<polygon fill="midnightblue" stroke="midnightblue" points="905.9,-61.48 915.96,-58.17 906.02,-54.48 905.9,-61.48"/>
</g>
<!-- Node9 -->
<g id="node9" class="node">
<title>Node9</title>
<g id="a_node9"><a xlink:href="classfspm_1_1config_1_1params_1_1hierarchy_1_1CategoryHierarchy_a9c1b08f5e63a4e2ae1092e048db34237.html#a9c1b08f5e63a4e2ae1092e048db34237" target="_top" xlink:title=" ">
<polygon fill="none" stroke="black" points="632,-0.5 632,-30.5 855,-30.5 855,-0.5 632,-0.5"/>
<text text-anchor="start" x="640" y="-18.5" font-family="Helvetica,sans-Serif" font-size="10.00">fspm.config.params.hierarchy.</text>
<text text-anchor="middle" x="743.5" y="-7.5" font-family="Helvetica,sans-Serif" font-size="10.00">CategoryHierarchy.getCategoryWithParam</text>
</a>
</g>
</g>
<!-- Node8&#45;&gt;Node9 -->
<g id="edge8" class="edge">
<title>Node8&#45;&gt;Node9</title>
<path fill="none" stroke="midnightblue" d="M596.29,-36.52C606.63,-35.03 617.21,-33.51 627.73,-32"/>
<polygon fill="midnightblue" stroke="midnightblue" points="628.38,-35.44 637.78,-30.55 627.38,-28.51 628.38,-35.44"/>
</g>
<!-- Node9&#45;&gt;Node6 -->
<g id="edge9" class="edge">
<title>Node9&#45;&gt;Node6</title>
<path fill="none" stroke="midnightblue" d="M827.79,-30.52C853.02,-35.07 880.71,-40.06 905.89,-44.6"/>
<polygon fill="midnightblue" stroke="midnightblue" points="905.32,-48.06 915.78,-46.39 906.56,-41.17 905.32,-48.06"/>
</g>
</g>
</svg>
