<?xml version="1.0" encoding="UTF-8" standalone="no"?>
<!DOCTYPE svg PUBLIC "-//W3C//DTD SVG 1.1//EN"
 "http://www.w3.org/Graphics/SVG/1.1/DTD/svg11.dtd">
<!-- Generated by graphviz version 2.43.0 (0)
 -->
<!-- Title: io.github.fruitcropxl.config.params.structures.CategoryStore Pages: 1 -->
<svg width="511pt" height="564pt"
 viewBox="0.00 0.00 511.00 564.00" xmlns="http://www.w3.org/2000/svg" xmlns:xlink="http://www.w3.org/1999/xlink">
<g id="graph0" class="graph" transform="scale(1 1) rotate(0) translate(4 560)">
<title>io.github.fruitcropxl.config.params.structures.CategoryStore</title>
<!-- Node1 -->
<g id="Node000001" class="node">
<title>Node1</title>
<g id="a_Node000001"><a xlink:title="Represents the collection of categories in a document.">
<polygon fill="#999999" stroke="transparent" points="419,-360 186,-360 186,0 419,0 419,-360"/>
<text text-anchor="start" x="191.5" y="-348" font-family="Helvetica,sans-Serif" font-size="10.00">io.github.fruitcropxl.config.params.structures.</text>
<text text-anchor="start" x="268" y="-337" font-family="Helvetica,sans-Serif" font-size="10.00">CategoryStore</text>
<text text-anchor="start" x="211.5" y="-322" font-family="Helvetica,sans-Serif" font-size="10.00">+</text>
<text text-anchor="start" x="245.5" y="-322" font-family="Helvetica,sans-Serif" font-size="10.00">CATEGORIES_HEADER</text>
<text text-anchor="start" x="214" y="-307" font-family="Helvetica,sans-Serif" font-size="10.00">&#45;</text>
<text text-anchor="start" x="245.5" y="-307" font-family="Helvetica,sans-Serif" font-size="10.00">categoryContext</text>
<text text-anchor="start" x="214" y="-292" font-family="Helvetica,sans-Serif" font-size="10.00">&#45;</text>
<text text-anchor="start" x="245.5" y="-292" font-family="Helvetica,sans-Serif" font-size="10.00">categories</text>
<text text-anchor="start" x="214" y="-277" font-family="Helvetica,sans-Serif" font-size="10.00">&#45;</text>
<text text-anchor="start" x="245.5" y="-277" font-family="Helvetica,sans-Serif" font-size="10.00">useFlattenedCategories</text>
<text text-anchor="start" x="211.5" y="-262" font-family="Helvetica,sans-Serif" font-size="10.00">+</text>
<text text-anchor="start" x="245.5" y="-262" font-family="Helvetica,sans-Serif" font-size="10.00">CategoryStore()</text>
<text text-anchor="start" x="211.5" y="-247" font-family="Helvetica,sans-Serif" font-size="10.00">+</text>
<text text-anchor="start" x="245.5" y="-247" font-family="Helvetica,sans-Serif" font-size="10.00">addCategory()</text>
<text text-anchor="start" x="211.5" y="-232" font-family="Helvetica,sans-Serif" font-size="10.00">+</text>
<text text-anchor="start" x="245.5" y="-232" font-family="Helvetica,sans-Serif" font-size="10.00">getCategory()</text>
<text text-anchor="start" x="211.5" y="-217" font-family="Helvetica,sans-Serif" font-size="10.00">+</text>
<text text-anchor="start" x="245.5" y="-217" font-family="Helvetica,sans-Serif" font-size="10.00">getCategoryWithParam()</text>
<text text-anchor="start" x="211.5" y="-202" font-family="Helvetica,sans-Serif" font-size="10.00">+</text>
<text text-anchor="start" x="245.5" y="-202" font-family="Helvetica,sans-Serif" font-size="10.00">setCategoryContext()</text>
<text text-anchor="start" x="211.5" y="-187" font-family="Helvetica,sans-Serif" font-size="10.00">+</text>
<text text-anchor="start" x="245.5" y="-187" font-family="Helvetica,sans-Serif" font-size="10.00">setFlattenedAccess()</text>
<text text-anchor="start" x="211.5" y="-172" font-family="Helvetica,sans-Serif" font-size="10.00">+</text>
<text text-anchor="start" x="245.5" y="-172" font-family="Helvetica,sans-Serif" font-size="10.00">getBoolean()</text>
<text text-anchor="start" x="211.5" y="-157" font-family="Helvetica,sans-Serif" font-size="10.00">+</text>
<text text-anchor="start" x="245.5" y="-157" font-family="Helvetica,sans-Serif" font-size="10.00">getBoolean()</text>
<text text-anchor="start" x="211.5" y="-142" font-family="Helvetica,sans-Serif" font-size="10.00">+</text>
<text text-anchor="start" x="245.5" y="-142" font-family="Helvetica,sans-Serif" font-size="10.00">getString()</text>
<text text-anchor="start" x="211.5" y="-127" font-family="Helvetica,sans-Serif" font-size="10.00">+</text>
<text text-anchor="start" x="245.5" y="-127" font-family="Helvetica,sans-Serif" font-size="10.00">getString()</text>
<text text-anchor="start" x="245.5" y="-112" font-family="Helvetica,sans-Serif" font-size="10.00">and 19 more...</text>
<text text-anchor="start" x="211.5" y="-97" font-family="Helvetica,sans-Serif" font-size="10.00">+</text>
<text text-anchor="start" x="245.5" y="-97" font-family="Helvetica,sans-Serif" font-size="10.00">parse()</text>
<text text-anchor="start" x="211.5" y="-82" font-family="Helvetica,sans-Serif" font-size="10.00">~</text>
<text text-anchor="start" x="245.5" y="-82" font-family="Helvetica,sans-Serif" font-size="10.00">get()</text>
<text text-anchor="start" x="211.5" y="-67" font-family="Helvetica,sans-Serif" font-size="10.00">~</text>
<text text-anchor="start" x="245.5" y="-67" font-family="Helvetica,sans-Serif" font-size="10.00">get()</text>
<text text-anchor="start" x="211.5" y="-52" font-family="Helvetica,sans-Serif" font-size="10.00">~</text>
<text text-anchor="start" x="245.5" y="-52" font-family="Helvetica,sans-Serif" font-size="10.00">getArray()</text>
<text text-anchor="start" x="211.5" y="-37" font-family="Helvetica,sans-Serif" font-size="10.00">~</text>
<text text-anchor="start" x="245.5" y="-37" font-family="Helvetica,sans-Serif" font-size="10.00">getArray()</text>
<text text-anchor="start" x="211.5" y="-22" font-family="Helvetica,sans-Serif" font-size="10.00">~</text>
<text text-anchor="start" x="245.5" y="-22" font-family="Helvetica,sans-Serif" font-size="10.00">set()</text>
<text text-anchor="start" x="214" y="-7" font-family="Helvetica,sans-Serif" font-size="10.00">&#45;</text>
<text text-anchor="start" x="245.5" y="-7" font-family="Helvetica,sans-Serif" font-size="10.00">validateFlattenedAccess()</text>
<polygon fill="#666666" stroke="#666666" points="186.5,-332 186.5,-332 419.5,-332 419.5,-332 186.5,-332"/>
<polygon fill="#666666" stroke="#666666" points="186.5,-272 186.5,-272 243.5,-272 243.5,-272 186.5,-272"/>
<polygon fill="#666666" stroke="#666666" points="243.5,-272 243.5,-272 419.5,-272 419.5,-272 243.5,-272"/>
<polygon fill="none" stroke="#666666" points="186,0 186,-360 419,-360 419,0 186,0"/>
</a>
</g>
</g>
<!-- Node2 -->
<g id="Node000002" class="node">
<title>Node2</title>
<g id="a_Node000002"><a xlink:href="classio_1_1github_1_1fruitcropxl_1_1config_1_1params_1_1structures_1_1ParamStructure.html" target="_top" xlink:title="Represents a structure found in ParamGroups that store parameters.">
<polygon fill="white" stroke="transparent" points="233,-471 0,-471 0,-396 233,-396 233,-471"/>
<text text-anchor="start" x="5.5" y="-458.5" font-family="Helvetica,sans-Serif" font-size="10.00">io.github.fruitcropxl.config.params.structures.</text>
<text text-anchor="start" x="79" y="-447.5" font-family="Helvetica,sans-Serif" font-size="10.00">ParamStructure</text>
<text text-anchor="start" x="39" y="-432.5" font-family="Helvetica,sans-Serif" font-size="10.00">&#45;</text>
<text text-anchor="start" x="81.5" y="-432.5" font-family="Helvetica,sans-Serif" font-size="10.00">groupKey</text>
<text text-anchor="start" x="36.5" y="-417.5" font-family="Helvetica,sans-Serif" font-size="10.00">+</text>
<text text-anchor="start" x="81.5" y="-417.5" font-family="Helvetica,sans-Serif" font-size="10.00">ParamStructure()</text>
<text text-anchor="start" x="36.5" y="-402.5" font-family="Helvetica,sans-Serif" font-size="10.00">+</text>
<text text-anchor="start" x="81.5" y="-402.5" font-family="Helvetica,sans-Serif" font-size="10.00">getGroupKey()</text>
<polygon fill="#666666" stroke="#666666" points="0.5,-442.5 0.5,-442.5 233.5,-442.5 233.5,-442.5 0.5,-442.5"/>
<polygon fill="#666666" stroke="#666666" points="0.5,-427.5 0.5,-427.5 79.5,-427.5 79.5,-427.5 0.5,-427.5"/>
<polygon fill="#666666" stroke="#666666" points="79.5,-427.5 79.5,-427.5 233.5,-427.5 233.5,-427.5 79.5,-427.5"/>
<polygon fill="none" stroke="#666666" points="0,-396 0,-471 233,-471 233,-396 0,-396"/>
</a>
</g>
</g>
<!-- Node2&#45;&gt;Node1 -->
<g id="edge1_Node000001_Node000002" class="edge">
<title>Node2&#45;&gt;Node1</title>
<g id="a_edge1_Node000001_Node000002"><a xlink:title=" ">
<path fill="none" stroke="#63b8ff" d="M149.6,-387.74C160.26,-373.33 172.74,-356.45 185.9,-338.66"/>
<polygon fill="none" stroke="#63b8ff" points="146.68,-385.81 143.55,-395.93 152.31,-389.97 146.68,-385.81"/>
</a>
</g>
</g>
<!-- Node3 -->
<g id="Node000003" class="node">
<title>Node3</title>
<g id="a_Node000003"><a xlink:href="classSerializable.html" target="_top" xlink:title=" ">
<polygon fill="white" stroke="transparent" points="150.5,-556 82.5,-556 82.5,-507 150.5,-507 150.5,-556"/>
<text text-anchor="start" x="87.5" y="-543.5" font-family="Helvetica,sans-Serif" font-size="10.00">Serializable</text>
<text text-anchor="start" x="114.5" y="-528.5" font-family="Helvetica,sans-Serif" font-size="10.00"> </text>
<text text-anchor="start" x="114.5" y="-513.5" font-family="Helvetica,sans-Serif" font-size="10.00"> </text>
<polygon fill="#666666" stroke="#666666" points="82.5,-538.5 82.5,-538.5 150.5,-538.5 150.5,-538.5 82.5,-538.5"/>
<polygon fill="#666666" stroke="#666666" points="82.5,-523.5 82.5,-523.5 150.5,-523.5 150.5,-523.5 82.5,-523.5"/>
<polygon fill="none" stroke="#666666" points="82.5,-507 82.5,-556 150.5,-556 150.5,-507 82.5,-507"/>
</a>
</g>
</g>
<!-- Node3&#45;&gt;Node2 -->
<g id="edge2_Node000002_Node000003" class="edge">
<title>Node3&#45;&gt;Node2</title>
<g id="a_edge2_Node000002_Node000003"><a xlink:title=" ">
<path fill="none" stroke="#63b8ff" d="M116.5,-496.68C116.5,-488.38 116.5,-479.46 116.5,-471.04"/>
<polygon fill="none" stroke="#63b8ff" points="113,-496.77 116.5,-506.77 120,-496.77 113,-496.77"/>
</a>
</g>
</g>
<!-- Node4 -->
<g id="Node000004" class="node">
<title>Node4</title>
<g id="a_Node000004"><a xlink:href="classKeyParamAccessor.html" target="_top" xlink:title=" ">
<polygon fill="white" stroke="transparent" points="354,-458 251,-458 251,-409 354,-409 354,-458"/>
<text text-anchor="start" x="256.5" y="-445.5" font-family="Helvetica,sans-Serif" font-size="10.00">KeyParamAccessor</text>
<text text-anchor="start" x="301" y="-430.5" font-family="Helvetica,sans-Serif" font-size="10.00"> </text>
<text text-anchor="start" x="301" y="-415.5" font-family="Helvetica,sans-Serif" font-size="10.00"> </text>
<polygon fill="#666666" stroke="#666666" points="251.5,-440.5 251.5,-440.5 354.5,-440.5 354.5,-440.5 251.5,-440.5"/>
<polygon fill="#666666" stroke="#666666" points="251.5,-425.5 251.5,-425.5 354.5,-425.5 354.5,-425.5 251.5,-425.5"/>
<polygon fill="none" stroke="#666666" points="251,-409 251,-458 354,-458 354,-409 251,-409"/>
</a>
</g>
</g>
<!-- Node4&#45;&gt;Node1 -->
<g id="edge3_Node000001_Node000004" class="edge">
<title>Node4&#45;&gt;Node1</title>
<g id="a_edge3_Node000001_Node000004"><a xlink:title=" ">
<path fill="none" stroke="#63b8ff" d="M302.5,-398.54C302.5,-387.52 302.5,-374.44 302.5,-360.23"/>
<polygon fill="none" stroke="#63b8ff" points="299,-398.84 302.5,-408.84 306,-398.84 299,-398.84"/>
</a>
</g>
</g>
<!-- Node5 -->
<g id="Node000005" class="node">
<title>Node5</title>
<g id="a_Node000005"><a xlink:href="classTypedKeyParamAccessor.html" target="_top" xlink:title=" ">
<polygon fill="white" stroke="transparent" points="503,-458 372,-458 372,-409 503,-409 503,-458"/>
<text text-anchor="start" x="377.5" y="-445.5" font-family="Helvetica,sans-Serif" font-size="10.00">TypedKeyParamAccessor</text>
<text text-anchor="start" x="436" y="-430.5" font-family="Helvetica,sans-Serif" font-size="10.00"> </text>
<text text-anchor="start" x="436" y="-415.5" font-family="Helvetica,sans-Serif" font-size="10.00"> </text>
<polygon fill="#666666" stroke="#666666" points="372.5,-440.5 372.5,-440.5 503.5,-440.5 503.5,-440.5 372.5,-440.5"/>
<polygon fill="#666666" stroke="#666666" points="372.5,-425.5 372.5,-425.5 503.5,-425.5 503.5,-425.5 372.5,-425.5"/>
<polygon fill="none" stroke="#666666" points="372,-409 372,-458 503,-458 503,-409 372,-409"/>
</a>
</g>
</g>
<!-- Node5&#45;&gt;Node1 -->
<g id="edge4_Node000001_Node000005" class="edge">
<title>Node5&#45;&gt;Node1</title>
<g id="a_edge4_Node000001_Node000005"><a xlink:title=" ">
<path fill="none" stroke="#63b8ff" d="M420.01,-399.91C413.94,-388.61 406.65,-375.03 398.71,-360.23"/>
<polygon fill="none" stroke="#63b8ff" points="416.99,-401.68 424.8,-408.84 423.15,-398.37 416.99,-401.68"/>
</a>
</g>
</g>
</g>
</svg>
