<?xml version="1.0" encoding="UTF-8" standalone="no"?>
<!DOCTYPE svg PUBLIC "-//W3C//DTD SVG 1.1//EN"
 "http://www.w3.org/Graphics/SVG/1.1/DTD/svg11.dtd">
<!-- Generated by graphviz version 2.43.0 (0)
 -->
<!-- Title: fspm.config.params.Parameter.asStringArray Pages: 1 -->
<svg width="575pt" height="39pt"
 viewBox="0.00 0.00 575.00 39.00" xmlns="http://www.w3.org/2000/svg" xmlns:xlink="http://www.w3.org/1999/xlink">
<g id="graph0" class="graph" transform="scale(1 1) rotate(0) translate(4 35)">
<title>fspm.config.params.Parameter.asStringArray</title>
<!-- Node1 -->
<g id="node1" class="node">
<title>Node1</title>
<g id="a_node1"><a xlink:title=" ">
<polygon fill="#bfbfbf" stroke="black" points="387,-0.5 387,-30.5 567,-30.5 567,-0.5 387,-0.5"/>
<text text-anchor="start" x="395" y="-18.5" font-family="Helvetica,sans-Serif" font-size="10.00">fspm.config.params.Parameter.as</text>
<text text-anchor="middle" x="477" y="-7.5" font-family="Helvetica,sans-Serif" font-size="10.00">StringArray</text>
</a>
</g>
</g>
<!-- Node2 -->
<g id="node2" class="node">
<title>Node2</title>
<g id="a_node2"><a xlink:href="classfspm_1_1config_1_1params_1_1ParamCategory_acfe96862fe8cea782cd628ff73071ed5.html#acfe96862fe8cea782cd628ff73071ed5" target="_top" xlink:title=" ">
<polygon fill="none" stroke="black" points="204,-0.5 204,-30.5 351,-30.5 351,-0.5 204,-0.5"/>
<text text-anchor="start" x="212" y="-18.5" font-family="Helvetica,sans-Serif" font-size="10.00">fspm.config.params.Param</text>
<text text-anchor="middle" x="277.5" y="-7.5" font-family="Helvetica,sans-Serif" font-size="10.00">Category.getStringArray</text>
</a>
</g>
</g>
<!-- Node1&#45;&gt;Node2 -->
<g id="edge1" class="edge">
<title>Node1&#45;&gt;Node2</title>
<path fill="none" stroke="midnightblue" d="M376.66,-15.5C368.03,-15.5 359.41,-15.5 351.05,-15.5"/>
<polygon fill="midnightblue" stroke="midnightblue" points="376.78,-19 386.78,-15.5 376.78,-12 376.78,-19"/>
</g>
<!-- Node3 -->
<g id="node3" class="node">
<title>Node3</title>
<g id="a_node3"><a xlink:href="classfspm_1_1config_1_1params_1_1structures_1_1CategoryStore_a9061f43fab298f2399489236e31c198d.html#a9061f43fab298f2399489236e31c198d" target="_top" xlink:title=" ">
<polygon fill="none" stroke="black" points="0,-0.5 0,-30.5 168,-30.5 168,-0.5 0,-0.5"/>
<text text-anchor="start" x="8" y="-18.5" font-family="Helvetica,sans-Serif" font-size="10.00">fspm.config.params.structures.</text>
<text text-anchor="middle" x="84" y="-7.5" font-family="Helvetica,sans-Serif" font-size="10.00">CategoryStore.getStringArray</text>
</a>
</g>
</g>
<!-- Node2&#45;&gt;Node3 -->
<g id="edge2" class="edge">
<title>Node2&#45;&gt;Node3</title>
<path fill="none" stroke="midnightblue" d="M193.63,-15.5C185.2,-15.5 176.64,-15.5 168.21,-15.5"/>
<polygon fill="midnightblue" stroke="midnightblue" points="193.83,-19 203.83,-15.5 193.83,-12 193.83,-19"/>
</g>
</g>
</svg>
