<?xml version="1.0" encoding="UTF-8" standalone="no"?>
<!DOCTYPE svg PUBLIC "-//W3C//DTD SVG 1.1//EN"
 "http://www.w3.org/Graphics/SVG/1.1/DTD/svg11.dtd">
<!-- Generated by graphviz version 2.43.0 (0)
 -->
<!-- Title: fspm.config.params.hierarchy.CategoryHierarchy.CategoryHierarchy Pages: 1 -->
<svg width="864pt" height="88pt"
 viewBox="0.00 0.00 864.00 88.00" xmlns="http://www.w3.org/2000/svg" xmlns:xlink="http://www.w3.org/1999/xlink">
<g id="graph0" class="graph" transform="scale(1 1) rotate(0) translate(4 84)">
<title>fspm.config.params.hierarchy.CategoryHierarchy.CategoryHierarchy</title>
<!-- Node1 -->
<g id="node1" class="node">
<title>Node1</title>
<g id="a_node1"><a xlink:title=" ">
<polygon fill="#bfbfbf" stroke="black" points="655,-24.5 655,-54.5 856,-54.5 856,-24.5 655,-24.5"/>
<text text-anchor="start" x="663" y="-42.5" font-family="Helvetica,sans-Serif" font-size="10.00">fspm.config.params.hierarchy.</text>
<text text-anchor="middle" x="755.5" y="-31.5" font-family="Helvetica,sans-Serif" font-size="10.00">CategoryHierarchy.CategoryHierarchy</text>
</a>
</g>
</g>
<!-- Node2 -->
<g id="node2" class="node">
<title>Node2</title>
<g id="a_node2"><a xlink:href="classfspm_1_1config_1_1params_1_1hierarchy_1_1CategoryHierarchy_ace6e5895f31f542bd87cd5b9650577b8.html#ace6e5895f31f542bd87cd5b9650577b8" target="_top" xlink:title=" ">
<polygon fill="none" stroke="black" points="455,-24.5 455,-54.5 619,-54.5 619,-24.5 455,-24.5"/>
<text text-anchor="start" x="463" y="-42.5" font-family="Helvetica,sans-Serif" font-size="10.00">fspm.config.params.hierarchy.</text>
<text text-anchor="middle" x="537" y="-31.5" font-family="Helvetica,sans-Serif" font-size="10.00">CategoryHierarchy.parse</text>
</a>
</g>
</g>
<!-- Node1&#45;&gt;Node2 -->
<g id="edge1" class="edge">
<title>Node1&#45;&gt;Node2</title>
<path fill="none" stroke="midnightblue" d="M644.67,-39.5C636.03,-39.5 627.41,-39.5 619.02,-39.5"/>
<polygon fill="midnightblue" stroke="midnightblue" points="644.8,-43 654.8,-39.5 644.8,-36 644.8,-43"/>
</g>
<!-- Node3 -->
<g id="node3" class="node">
<title>Node3</title>
<g id="a_node3"><a xlink:href="classfspm_1_1config_1_1adapters_1_1handlers_1_1DocumentCategoryNameHandler_a14c971bed31f4417a5cf1b7341971fff.html#a14c971bed31f4417a5cf1b7341971fff" target="_top" xlink:title=" ">
<polygon fill="none" stroke="black" points="195,-49.5 195,-79.5 403,-79.5 403,-49.5 195,-49.5"/>
<text text-anchor="start" x="203" y="-67.5" font-family="Helvetica,sans-Serif" font-size="10.00">fspm.config.adapters.handlers.</text>
<text text-anchor="middle" x="299" y="-56.5" font-family="Helvetica,sans-Serif" font-size="10.00">DocumentCategoryNameHandler.parse</text>
</a>
</g>
</g>
<!-- Node2&#45;&gt;Node3 -->
<g id="edge2" class="edge">
<title>Node2&#45;&gt;Node3</title>
<path fill="none" stroke="midnightblue" d="M444.5,-49.19C430.92,-50.63 416.84,-52.12 403.04,-53.58"/>
<polygon fill="midnightblue" stroke="midnightblue" points="445.21,-52.64 454.78,-48.1 444.47,-45.68 445.21,-52.64"/>
</g>
<!-- Node5 -->
<g id="node5" class="node">
<title>Node5</title>
<g id="a_node5"><a xlink:href="classfspm_1_1config_1_1adapters_1_1handlers_1_1DocumentHybridCategoryNameHandler_a2f0e1a530f1048eeabf572e5108cd1f1.html#a2f0e1a530f1048eeabf572e5108cd1f1" target="_top" xlink:title=" ">
<polygon fill="none" stroke="black" points="179,-0.5 179,-30.5 419,-30.5 419,-0.5 179,-0.5"/>
<text text-anchor="start" x="187" y="-18.5" font-family="Helvetica,sans-Serif" font-size="10.00">fspm.config.adapters.handlers.</text>
<text text-anchor="middle" x="299" y="-7.5" font-family="Helvetica,sans-Serif" font-size="10.00">DocumentHybridCategoryNameHandler.parse</text>
</a>
</g>
</g>
<!-- Node2&#45;&gt;Node5 -->
<g id="edge4" class="edge">
<title>Node2&#45;&gt;Node5</title>
<path fill="none" stroke="midnightblue" d="M444.72,-30.22C436.39,-29.37 427.87,-28.5 419.33,-27.64"/>
<polygon fill="midnightblue" stroke="midnightblue" points="444.48,-33.71 454.78,-31.24 445.19,-26.75 444.48,-33.71"/>
</g>
<!-- Node4 -->
<g id="node4" class="node">
<title>Node4</title>
<g id="a_node4"><a xlink:href="classfspm_1_1config_1_1adapters_1_1JsonFileReader_a66baa6fc9e08972e7a71cac73d560312.html#a66baa6fc9e08972e7a71cac73d560312" target="_top" xlink:title="Parses and returns a ParamGroup with the parameter contents of the provided file.">
<polygon fill="none" stroke="black" points="0,-24.5 0,-54.5 143,-54.5 143,-24.5 0,-24.5"/>
<text text-anchor="start" x="8" y="-42.5" font-family="Helvetica,sans-Serif" font-size="10.00">fspm.config.adapters.Json</text>
<text text-anchor="middle" x="71.5" y="-31.5" font-family="Helvetica,sans-Serif" font-size="10.00">FileReader.parse</text>
</a>
</g>
</g>
<!-- Node3&#45;&gt;Node4 -->
<g id="edge3" class="edge">
<title>Node3&#45;&gt;Node4</title>
<path fill="none" stroke="midnightblue" d="M184.54,-51.92C170.4,-50.35 156.28,-48.79 143.06,-47.32"/>
<polygon fill="midnightblue" stroke="midnightblue" points="184.49,-55.44 194.82,-53.06 185.27,-48.48 184.49,-55.44"/>
</g>
<!-- Node5&#45;&gt;Node4 -->
<g id="edge5" class="edge">
<title>Node5&#45;&gt;Node4</title>
<path fill="none" stroke="midnightblue" d="M168.94,-29.24C160.08,-30.18 151.37,-31.11 143.02,-31.99"/>
<polygon fill="midnightblue" stroke="midnightblue" points="169.4,-32.71 178.98,-28.17 168.66,-25.75 169.4,-32.71"/>
</g>
</g>
</svg>
