<?xml version="1.0" encoding="UTF-8" standalone="no"?>
<!DOCTYPE svg PUBLIC "-//W3C//DTD SVG 1.1//EN"
 "http://www.w3.org/Graphics/SVG/1.1/DTD/svg11.dtd">
<!-- Generated by graphviz version 2.43.0 (0)
 -->
<!-- Title: io.github.fruitcropxl.config.params.ParamFactory Pages: 1 -->
<svg width="190pt" height="179pt"
 viewBox="0.00 0.00 190.00 179.00" xmlns="http://www.w3.org/2000/svg" xmlns:xlink="http://www.w3.org/1999/xlink">
<g id="graph0" class="graph" transform="scale(1 1) rotate(0) translate(4 175)">
<title>io.github.fruitcropxl.config.params.ParamFactory</title>
<!-- Node1 -->
<g id="Node000001" class="node">
<title>Node1</title>
<g id="a_Node000001"><a xlink:title="ParamFactory creates instances of Parameters depending on the data type of the field being read.">
<polygon fill="#999999" stroke="transparent" points="182,-75 0,-75 0,0 182,0 182,-75"/>
<text text-anchor="start" x="5" y="-62.5" font-family="Helvetica,sans-Serif" font-size="10.00">io.github.fruitcropxl.config.params.</text>
<text text-anchor="start" x="57.5" y="-51.5" font-family="Helvetica,sans-Serif" font-size="10.00">ParamFactory</text>
<text text-anchor="start" x="89" y="-36.5" font-family="Helvetica,sans-Serif" font-size="10.00"> </text>
<text text-anchor="start" x="22" y="-21.5" font-family="Helvetica,sans-Serif" font-size="10.00">+</text>
<text text-anchor="start" x="53" y="-21.5" font-family="Helvetica,sans-Serif" font-size="10.00">parseParameter()</text>
<text text-anchor="start" x="22" y="-6.5" font-family="Helvetica,sans-Serif" font-size="10.00">~</text>
<text text-anchor="start" x="53" y="-6.5" font-family="Helvetica,sans-Serif" font-size="10.00">createParameter()</text>
<polygon fill="#666666" stroke="#666666" points="0,-46.5 0,-46.5 182,-46.5 182,-46.5 0,-46.5"/>
<polygon fill="#666666" stroke="#666666" points="0,-31.5 0,-31.5 182,-31.5 182,-31.5 0,-31.5"/>
<polygon fill="none" stroke="#666666" points="0,0 0,-75 182,-75 182,0 0,0"/>
</a>
</g>
</g>
<!-- Node2 -->
<g id="Node000002" class="node">
<title>Node2</title>
<g id="a_Node000002"><a xlink:title=" ">
<polygon fill="white" stroke="transparent" points="137.5,-171 44.5,-171 44.5,-122 137.5,-122 137.5,-171"/>
<text text-anchor="start" x="50" y="-158.5" font-family="Helvetica,sans-Serif" font-size="10.00">static final String</text>
<text text-anchor="start" x="89.5" y="-143.5" font-family="Helvetica,sans-Serif" font-size="10.00"> </text>
<text text-anchor="start" x="89.5" y="-128.5" font-family="Helvetica,sans-Serif" font-size="10.00"> </text>
<polygon fill="#666666" stroke="#666666" points="45,-153.5 45,-153.5 138,-153.5 138,-153.5 45,-153.5"/>
<polygon fill="#666666" stroke="#666666" points="45,-138.5 45,-138.5 138,-138.5 138,-138.5 45,-138.5"/>
<polygon fill="none" stroke="#666666" points="44.5,-122 44.5,-171 137.5,-171 137.5,-122 44.5,-122"/>
</a>
</g>
</g>
<!-- Node2&#45;&gt;Node1 -->
<g id="edge1_Node000001_Node000002" class="edge">
<title>Node2&#45;&gt;Node1</title>
<g id="a_edge1_Node000001_Node000002"><a xlink:title=" ">
<path fill="none" stroke="#63b8ff" d="M91,-121.75C91,-111.61 91,-99.37 91,-87.44"/>
<polygon fill="none" stroke="#63b8ff" points="91,-87.22 87,-81.22 91,-75.22 95,-81.22 91,-87.22"/>
</a>
</g>
<text text-anchor="middle" x="130.5" y="-96" font-family="Helvetica,sans-Serif" font-size="10.00" fill="grey"> +NULL_STRING</text>
</g>
</g>
</svg>
