<?xml version="1.0" encoding="UTF-8" standalone="no"?>
<!DOCTYPE svg PUBLIC "-//W3C//DTD SVG 1.1//EN"
 "http://www.w3.org/Graphics/SVG/1.1/DTD/svg11.dtd">
<!-- Generated by graphviz version 2.43.0 (0)
 -->
<!-- Title: io.github.fruitcropxl.config.params.ParamTable Pages: 1 -->
<svg width="350pt" height="393pt"
 viewBox="0.00 0.00 349.50 393.00" xmlns="http://www.w3.org/2000/svg" xmlns:xlink="http://www.w3.org/1999/xlink">
<g id="graph0" class="graph" transform="scale(1 1) rotate(0) translate(4 389)">
<title>io.github.fruitcropxl.config.params.ParamTable</title>
<!-- Node1 -->
<g id="Node000001" class="node">
<title>Node1</title>
<g id="a_Node000001"><a xlink:title="Stores Parameters in a tabular format as rows and columns (parameter key).">
<polygon fill="#999999" stroke="transparent" points="230.5,-300 48.5,-300 48.5,0 230.5,0 230.5,-300"/>
<text text-anchor="start" x="53.5" y="-288" font-family="Helvetica,sans-Serif" font-size="10.00">io.github.fruitcropxl.config.params.</text>
<text text-anchor="start" x="111" y="-277" font-family="Helvetica,sans-Serif" font-size="10.00">ParamTable</text>
<text text-anchor="start" x="76.5" y="-262" font-family="Helvetica,sans-Serif" font-size="10.00">&#45;</text>
<text text-anchor="start" x="108.5" y="-262" font-family="Helvetica,sans-Serif" font-size="10.00">rows</text>
<text text-anchor="start" x="74" y="-247" font-family="Helvetica,sans-Serif" font-size="10.00">+</text>
<text text-anchor="start" x="108.5" y="-247" font-family="Helvetica,sans-Serif" font-size="10.00">ParamTable()</text>
<text text-anchor="start" x="74" y="-232" font-family="Helvetica,sans-Serif" font-size="10.00">+</text>
<text text-anchor="start" x="108.5" y="-232" font-family="Helvetica,sans-Serif" font-size="10.00">addRow()</text>
<text text-anchor="start" x="74" y="-217" font-family="Helvetica,sans-Serif" font-size="10.00">+</text>
<text text-anchor="start" x="108.5" y="-217" font-family="Helvetica,sans-Serif" font-size="10.00">getBoolean()</text>
<text text-anchor="start" x="74" y="-202" font-family="Helvetica,sans-Serif" font-size="10.00">+</text>
<text text-anchor="start" x="108.5" y="-202" font-family="Helvetica,sans-Serif" font-size="10.00">getBoolean()</text>
<text text-anchor="start" x="74" y="-187" font-family="Helvetica,sans-Serif" font-size="10.00">+</text>
<text text-anchor="start" x="108.5" y="-187" font-family="Helvetica,sans-Serif" font-size="10.00">getString()</text>
<text text-anchor="start" x="74" y="-172" font-family="Helvetica,sans-Serif" font-size="10.00">+</text>
<text text-anchor="start" x="108.5" y="-172" font-family="Helvetica,sans-Serif" font-size="10.00">getString()</text>
<text text-anchor="start" x="74" y="-157" font-family="Helvetica,sans-Serif" font-size="10.00">+</text>
<text text-anchor="start" x="108.5" y="-157" font-family="Helvetica,sans-Serif" font-size="10.00">getInteger()</text>
<text text-anchor="start" x="74" y="-142" font-family="Helvetica,sans-Serif" font-size="10.00">+</text>
<text text-anchor="start" x="108.5" y="-142" font-family="Helvetica,sans-Serif" font-size="10.00">getInteger()</text>
<text text-anchor="start" x="74" y="-127" font-family="Helvetica,sans-Serif" font-size="10.00">+</text>
<text text-anchor="start" x="108.5" y="-127" font-family="Helvetica,sans-Serif" font-size="10.00">getDouble()</text>
<text text-anchor="start" x="74" y="-112" font-family="Helvetica,sans-Serif" font-size="10.00">+</text>
<text text-anchor="start" x="108.5" y="-112" font-family="Helvetica,sans-Serif" font-size="10.00">getDouble()</text>
<text text-anchor="start" x="108.5" y="-97" font-family="Helvetica,sans-Serif" font-size="10.00">and 10 more...</text>
<text text-anchor="start" x="74" y="-82" font-family="Helvetica,sans-Serif" font-size="10.00">~</text>
<text text-anchor="start" x="108.5" y="-82" font-family="Helvetica,sans-Serif" font-size="10.00">get()</text>
<text text-anchor="start" x="74" y="-67" font-family="Helvetica,sans-Serif" font-size="10.00">~</text>
<text text-anchor="start" x="108.5" y="-67" font-family="Helvetica,sans-Serif" font-size="10.00">get()</text>
<text text-anchor="start" x="74" y="-52" font-family="Helvetica,sans-Serif" font-size="10.00">~</text>
<text text-anchor="start" x="108.5" y="-52" font-family="Helvetica,sans-Serif" font-size="10.00">getArray()</text>
<text text-anchor="start" x="74" y="-37" font-family="Helvetica,sans-Serif" font-size="10.00">~</text>
<text text-anchor="start" x="108.5" y="-37" font-family="Helvetica,sans-Serif" font-size="10.00">getArray()</text>
<text text-anchor="start" x="76.5" y="-22" font-family="Helvetica,sans-Serif" font-size="10.00">&#45;</text>
<text text-anchor="start" x="108.5" y="-22" font-family="Helvetica,sans-Serif" font-size="10.00">setRow()</text>
<text text-anchor="start" x="76.5" y="-7" font-family="Helvetica,sans-Serif" font-size="10.00">&#45;</text>
<text text-anchor="start" x="108.5" y="-7" font-family="Helvetica,sans-Serif" font-size="10.00">getParameter()</text>
<polygon fill="#666666" stroke="#666666" points="48.5,-272 48.5,-272 230.5,-272 230.5,-272 48.5,-272"/>
<polygon fill="#666666" stroke="#666666" points="48.5,-257 48.5,-257 106.5,-257 106.5,-257 48.5,-257"/>
<polygon fill="#666666" stroke="#666666" points="106.5,-257 106.5,-257 230.5,-257 230.5,-257 106.5,-257"/>
<polygon fill="none" stroke="#666666" points="48.5,0 48.5,-300 230.5,-300 230.5,0 48.5,0"/>
</a>
</g>
</g>
<!-- Node2 -->
<g id="Node000002" class="node">
<title>Node2</title>
<g id="a_Node000002"><a xlink:href="classKeyElement.html" target="_top" xlink:title=" ">
<polygon fill="white" stroke="transparent" points="69,-385 0,-385 0,-336 69,-336 69,-385"/>
<text text-anchor="start" x="5.5" y="-372.5" font-family="Helvetica,sans-Serif" font-size="10.00">KeyElement</text>
<text text-anchor="start" x="33" y="-357.5" font-family="Helvetica,sans-Serif" font-size="10.00"> </text>
<text text-anchor="start" x="33" y="-342.5" font-family="Helvetica,sans-Serif" font-size="10.00"> </text>
<polygon fill="#666666" stroke="#666666" points="0.5,-367.5 0.5,-367.5 69.5,-367.5 69.5,-367.5 0.5,-367.5"/>
<polygon fill="#666666" stroke="#666666" points="0.5,-352.5 0.5,-352.5 69.5,-352.5 69.5,-352.5 0.5,-352.5"/>
<polygon fill="none" stroke="#666666" points="0,-336 0,-385 69,-385 69,-336 0,-336"/>
</a>
</g>
</g>
<!-- Node2&#45;&gt;Node1 -->
<g id="edge1_Node000001_Node000002" class="edge">
<title>Node2&#45;&gt;Node1</title>
<g id="a_edge1_Node000001_Node000002"><a xlink:title=" ">
<path fill="none" stroke="#63b8ff" d="M50.91,-326.91C54.89,-319 59.41,-310.04 64.24,-300.44"/>
<polygon fill="none" stroke="#63b8ff" points="47.71,-325.48 46.34,-335.99 53.96,-328.63 47.71,-325.48"/>
</a>
</g>
</g>
<!-- Node3 -->
<g id="Node000003" class="node">
<title>Node3</title>
<g id="a_Node000003"><a xlink:href="classCellParamAccessor.html" target="_top" xlink:title=" ">
<polygon fill="white" stroke="transparent" points="191.5,-385 87.5,-385 87.5,-336 191.5,-336 191.5,-385"/>
<text text-anchor="start" x="92.5" y="-372.5" font-family="Helvetica,sans-Serif" font-size="10.00">CellParamAccessor</text>
<text text-anchor="start" x="137.5" y="-357.5" font-family="Helvetica,sans-Serif" font-size="10.00"> </text>
<text text-anchor="start" x="137.5" y="-342.5" font-family="Helvetica,sans-Serif" font-size="10.00"> </text>
<polygon fill="#666666" stroke="#666666" points="87.5,-367.5 87.5,-367.5 191.5,-367.5 191.5,-367.5 87.5,-367.5"/>
<polygon fill="#666666" stroke="#666666" points="87.5,-352.5 87.5,-352.5 191.5,-352.5 191.5,-352.5 87.5,-352.5"/>
<polygon fill="none" stroke="#666666" points="87.5,-336 87.5,-385 191.5,-385 191.5,-336 87.5,-336"/>
</a>
</g>
</g>
<!-- Node3&#45;&gt;Node1 -->
<g id="edge2_Node000001_Node000003" class="edge">
<title>Node3&#45;&gt;Node1</title>
<g id="a_edge2_Node000001_Node000003"><a xlink:title=" ">
<path fill="none" stroke="#63b8ff" d="M139.5,-325.86C139.5,-318.21 139.5,-309.61 139.5,-300.44"/>
<polygon fill="none" stroke="#63b8ff" points="136,-325.99 139.5,-335.99 143,-325.99 136,-325.99"/>
</a>
</g>
</g>
<!-- Node4 -->
<g id="Node000004" class="node">
<title>Node4</title>
<g id="a_Node000004"><a xlink:href="classTypedCellParamAccessor.html" target="_top" xlink:title=" ">
<polygon fill="white" stroke="transparent" points="341.5,-385 209.5,-385 209.5,-336 341.5,-336 341.5,-385"/>
<text text-anchor="start" x="214.5" y="-372.5" font-family="Helvetica,sans-Serif" font-size="10.00">TypedCellParamAccessor</text>
<text text-anchor="start" x="273.5" y="-357.5" font-family="Helvetica,sans-Serif" font-size="10.00"> </text>
<text text-anchor="start" x="273.5" y="-342.5" font-family="Helvetica,sans-Serif" font-size="10.00"> </text>
<polygon fill="#666666" stroke="#666666" points="209.5,-367.5 209.5,-367.5 341.5,-367.5 341.5,-367.5 209.5,-367.5"/>
<polygon fill="#666666" stroke="#666666" points="209.5,-352.5 209.5,-352.5 341.5,-352.5 341.5,-352.5 209.5,-352.5"/>
<polygon fill="none" stroke="#666666" points="209.5,-336 209.5,-385 341.5,-385 341.5,-336 209.5,-336"/>
</a>
</g>
</g>
<!-- Node4&#45;&gt;Node1 -->
<g id="edge3_Node000001_Node000004" class="edge">
<title>Node4&#45;&gt;Node1</title>
<g id="a_edge3_Node000001_Node000004"><a xlink:title=" ">
<path fill="none" stroke="#63b8ff" d="M254.63,-327.5C247.66,-316.82 239.39,-304.14 230.53,-290.55"/>
<polygon fill="none" stroke="#63b8ff" points="251.77,-329.52 260.16,-335.99 257.63,-325.7 251.77,-329.52"/>
</a>
</g>
</g>
</g>
</svg>
