<?xml version="1.0" encoding="UTF-8" standalone="no"?>
<!DOCTYPE svg PUBLIC "-//W3C//DTD SVG 1.1//EN"
 "http://www.w3.org/Graphics/SVG/1.1/DTD/svg11.dtd">
<!-- Generated by graphviz version 2.43.0 (0)
 -->
<!-- Title: fspm.config.params.hierarchy.CategoryHierarchy.getArray Pages: 1 -->
<svg width="1112pt" height="130pt"
 viewBox="0.00 0.00 1112.00 130.00" xmlns="http://www.w3.org/2000/svg" xmlns:xlink="http://www.w3.org/1999/xlink">
<g id="graph0" class="graph" transform="scale(1 1) rotate(0) translate(4 126)">
<title>fspm.config.params.hierarchy.CategoryHierarchy.getArray</title>
<!-- Node1 -->
<g id="node1" class="node">
<title>Node1</title>
<g id="a_node1"><a xlink:title=" ">
<polygon fill="#bfbfbf" stroke="black" points="0,-65.5 0,-95.5 164,-95.5 164,-65.5 0,-65.5"/>
<text text-anchor="start" x="8" y="-83.5" font-family="Helvetica,sans-Serif" font-size="10.00">fspm.config.params.hierarchy.</text>
<text text-anchor="middle" x="82" y="-72.5" font-family="Helvetica,sans-Serif" font-size="10.00">CategoryHierarchy.getArray</text>
</a>
</g>
</g>
<!-- Node2 -->
<g id="node2" class="node">
<title>Node2</title>
<g id="a_node2"><a xlink:href="classfspm_1_1config_1_1params_1_1ParamCategory_addcc002dbf650fbc675a1ef472dfa088.html#addcc002dbf650fbc675a1ef472dfa088" target="_top" xlink:title=" ">
<polygon fill="none" stroke="black" points="470,-90.5 470,-120.5 617,-120.5 617,-90.5 470,-90.5"/>
<text text-anchor="start" x="478" y="-108.5" font-family="Helvetica,sans-Serif" font-size="10.00">fspm.config.params.Param</text>
<text text-anchor="middle" x="543.5" y="-97.5" font-family="Helvetica,sans-Serif" font-size="10.00">Category.getArray</text>
</a>
</g>
</g>
<!-- Node1&#45;&gt;Node2 -->
<g id="edge1" class="edge">
<title>Node1&#45;&gt;Node2</title>
<path fill="none" stroke="midnightblue" d="M164.09,-84.91C247.28,-89.44 376.03,-96.44 459.8,-101"/>
<polygon fill="midnightblue" stroke="midnightblue" points="459.61,-104.5 469.79,-101.54 459.99,-97.51 459.61,-104.5"/>
</g>
<!-- Node7 -->
<g id="node7" class="node">
<title>Node7</title>
<g id="a_node7"><a xlink:href="classfspm_1_1config_1_1params_1_1hierarchy_1_1CategoryHierarchy_a97a3787601b2a1964f925a5509267602.html#a97a3787601b2a1964f925a5509267602" target="_top" xlink:title=" ">
<polygon fill="none" stroke="black" points="200,-36 200,-77 396,-77 396,-36 200,-36"/>
<text text-anchor="start" x="208" y="-65" font-family="Helvetica,sans-Serif" font-size="10.00">fspm.config.params.hierarchy.</text>
<text text-anchor="start" x="208" y="-54" font-family="Helvetica,sans-Serif" font-size="10.00">CategoryHierarchy.validateFlattened</text>
<text text-anchor="middle" x="298" y="-43" font-family="Helvetica,sans-Serif" font-size="10.00">Access</text>
</a>
</g>
</g>
<!-- Node1&#45;&gt;Node7 -->
<g id="edge7" class="edge">
<title>Node1&#45;&gt;Node7</title>
<path fill="none" stroke="midnightblue" d="M164.21,-71.39C172.54,-70.46 181.09,-69.5 189.64,-68.54"/>
<polygon fill="midnightblue" stroke="midnightblue" points="190.12,-72.01 199.67,-67.42 189.34,-65.05 190.12,-72.01"/>
</g>
<!-- Node3 -->
<g id="node3" class="node">
<title>Node3</title>
<g id="a_node3"><a xlink:href="classfspm_1_1config_1_1params_1_1Parameter_a2dced470a20701940042f6dacad7f78e.html#a2dced470a20701940042f6dacad7f78e" target="_top" xlink:title=" ">
<polygon fill="none" stroke="black" points="691,-91.5 691,-121.5 871,-121.5 871,-91.5 691,-91.5"/>
<text text-anchor="start" x="699" y="-109.5" font-family="Helvetica,sans-Serif" font-size="10.00">fspm.config.params.Parameter.as</text>
<text text-anchor="middle" x="781" y="-98.5" font-family="Helvetica,sans-Serif" font-size="10.00">Array</text>
</a>
</g>
</g>
<!-- Node2&#45;&gt;Node3 -->
<g id="edge2" class="edge">
<title>Node2&#45;&gt;Node3</title>
<path fill="none" stroke="midnightblue" d="M617.08,-105.81C637.15,-105.89 659.28,-105.99 680.59,-106.08"/>
<polygon fill="midnightblue" stroke="midnightblue" points="680.62,-109.58 690.64,-106.12 680.65,-102.58 680.62,-109.58"/>
</g>
<!-- Node6 -->
<g id="node6" class="node">
<title>Node6</title>
<g id="a_node6"><a xlink:href="classfspm_1_1config_1_1params_1_1ParamCategory_ac81e6b98fa48fc3426eed6f60e81da5b.html#ac81e6b98fa48fc3426eed6f60e81da5b" target="_top" xlink:title="Get generic Parameter with the given key.">
<polygon fill="none" stroke="black" points="707.5,-42.5 707.5,-72.5 854.5,-72.5 854.5,-42.5 707.5,-42.5"/>
<text text-anchor="start" x="715.5" y="-60.5" font-family="Helvetica,sans-Serif" font-size="10.00">fspm.config.params.Param</text>
<text text-anchor="middle" x="781" y="-49.5" font-family="Helvetica,sans-Serif" font-size="10.00">Category.getParameter</text>
</a>
</g>
</g>
<!-- Node2&#45;&gt;Node6 -->
<g id="edge5" class="edge">
<title>Node2&#45;&gt;Node6</title>
<path fill="none" stroke="midnightblue" d="M617.08,-90.71C642.48,-85.53 671.2,-79.68 697.36,-74.34"/>
<polygon fill="midnightblue" stroke="midnightblue" points="698.16,-77.75 707.25,-72.33 696.76,-70.89 698.16,-77.75"/>
</g>
<!-- Node4 -->
<g id="node4" class="node">
<title>Node4</title>
<g id="a_node4"><a xlink:href="classfspm_1_1util_1_1KeyElement_a653aac67328f98c1201974736671fe0d.html#a653aac67328f98c1201974736671fe0d" target="_top" xlink:title=" ">
<polygon fill="none" stroke="black" points="926.5,-54 926.5,-73 1084.5,-73 1084.5,-54 926.5,-54"/>
<text text-anchor="middle" x="1005.5" y="-61" font-family="Helvetica,sans-Serif" font-size="10.00">fspm.util.KeyElement.getKey</text>
</a>
</g>
</g>
<!-- Node3&#45;&gt;Node4 -->
<g id="edge3" class="edge">
<title>Node3&#45;&gt;Node4</title>
<path fill="none" stroke="midnightblue" d="M859.82,-91.46C887.81,-86.05 918.91,-80.04 945.08,-74.98"/>
<polygon fill="midnightblue" stroke="midnightblue" points="946.07,-78.36 955.23,-73.02 944.75,-71.48 946.07,-78.36"/>
</g>
<!-- Node5 -->
<g id="node5" class="node">
<title>Node5</title>
<g id="a_node5"><a xlink:href="classfspm_1_1config_1_1params_1_1Parameter_a2fd72835a908354fea23f92e3f3b1800.html#a2fd72835a908354fea23f92e3f3b1800" target="_top" xlink:title=" ">
<polygon fill="none" stroke="black" points="907,-97 907,-116 1104,-116 1104,-97 907,-97"/>
<text text-anchor="middle" x="1005.5" y="-104" font-family="Helvetica,sans-Serif" font-size="10.00">fspm.config.params.Parameter.isNull</text>
</a>
</g>
</g>
<!-- Node3&#45;&gt;Node5 -->
<g id="edge4" class="edge">
<title>Node3&#45;&gt;Node5</title>
<path fill="none" stroke="midnightblue" d="M871.22,-106.5C879.65,-106.5 888.25,-106.5 896.83,-106.5"/>
<polygon fill="midnightblue" stroke="midnightblue" points="896.87,-110 906.87,-106.5 896.87,-103 896.87,-110"/>
</g>
<!-- Node6&#45;&gt;Node4 -->
<g id="edge6" class="edge">
<title>Node6&#45;&gt;Node4</title>
<path fill="none" stroke="midnightblue" d="M854.55,-59.46C874.18,-59.99 895.66,-60.56 916.06,-61.12"/>
<polygon fill="midnightblue" stroke="midnightblue" points="916.21,-64.62 926.3,-61.39 916.4,-57.62 916.21,-64.62"/>
</g>
<!-- Node7&#45;&gt;Node6 -->
<g id="edge10" class="edge">
<title>Node7&#45;&gt;Node6</title>
<path fill="none" stroke="midnightblue" d="M396.05,-56.7C484.43,-56.89 613.55,-57.15 697.18,-57.33"/>
<polygon fill="midnightblue" stroke="midnightblue" points="697.39,-60.83 707.4,-57.35 697.41,-53.83 697.39,-60.83"/>
</g>
<!-- Node8 -->
<g id="node8" class="node">
<title>Node8</title>
<g id="a_node8"><a xlink:href="classfspm_1_1config_1_1params_1_1hierarchy_1_1CategoryHierarchy_a9c1b08f5e63a4e2ae1092e048db34237.html#a9c1b08f5e63a4e2ae1092e048db34237" target="_top" xlink:title=" ">
<polygon fill="none" stroke="black" points="432,-0.5 432,-30.5 655,-30.5 655,-0.5 432,-0.5"/>
<text text-anchor="start" x="440" y="-18.5" font-family="Helvetica,sans-Serif" font-size="10.00">fspm.config.params.hierarchy.</text>
<text text-anchor="middle" x="543.5" y="-7.5" font-family="Helvetica,sans-Serif" font-size="10.00">CategoryHierarchy.getCategoryWithParam</text>
</a>
</g>
</g>
<!-- Node7&#45;&gt;Node8 -->
<g id="edge8" class="edge">
<title>Node7&#45;&gt;Node8</title>
<path fill="none" stroke="midnightblue" d="M396.29,-40.12C411.72,-37.52 427.7,-34.83 443.17,-32.22"/>
<polygon fill="midnightblue" stroke="midnightblue" points="443.98,-35.64 453.26,-30.53 442.82,-28.74 443.98,-35.64"/>
</g>
<!-- Node8&#45;&gt;Node6 -->
<g id="edge9" class="edge">
<title>Node8&#45;&gt;Node6</title>
<path fill="none" stroke="midnightblue" d="M628.86,-30.54C651.06,-34.5 674.99,-38.77 697.12,-42.72"/>
<polygon fill="midnightblue" stroke="midnightblue" points="696.68,-46.2 707.14,-44.51 697.91,-39.3 696.68,-46.2"/>
</g>
</g>
</svg>
