<?xml version="1.0" encoding="UTF-8" standalone="no"?>
<!DOCTYPE svg PUBLIC "-//W3C//DTD SVG 1.1//EN"
 "http://www.w3.org/Graphics/SVG/1.1/DTD/svg11.dtd">
<!-- Generated by graphviz version 2.43.0 (0)
 -->
<!-- Title: fspm.config.params.structures.CategoryStore.getCategoryWithParam Pages: 1 -->
<svg width="588pt" height="39pt"
 viewBox="0.00 0.00 588.00 39.00" xmlns="http://www.w3.org/2000/svg" xmlns:xlink="http://www.w3.org/1999/xlink">
<g id="graph0" class="graph" transform="scale(1 1) rotate(0) translate(4 35)">
<title>fspm.config.params.structures.CategoryStore.getCategoryWithParam</title>
<!-- Node1 -->
<g id="node1" class="node">
<title>Node1</title>
<g id="a_node1"><a xlink:title=" ">
<polygon fill="#bfbfbf" stroke="black" points="0,-0.5 0,-30.5 203,-30.5 203,-0.5 0,-0.5"/>
<text text-anchor="start" x="8" y="-18.5" font-family="Helvetica,sans-Serif" font-size="10.00">fspm.config.params.structures.</text>
<text text-anchor="middle" x="101.5" y="-7.5" font-family="Helvetica,sans-Serif" font-size="10.00">CategoryStore.getCategoryWithParam</text>
</a>
</g>
</g>
<!-- Node2 -->
<g id="node2" class="node">
<title>Node2</title>
<g id="a_node2"><a xlink:href="classfspm_1_1config_1_1params_1_1ParamCategory_ac81e6b98fa48fc3426eed6f60e81da5b.html#ac81e6b98fa48fc3426eed6f60e81da5b" target="_top" xlink:title="Get generic Parameter with the given key.">
<polygon fill="none" stroke="black" points="239,-0.5 239,-30.5 386,-30.5 386,-0.5 239,-0.5"/>
<text text-anchor="start" x="247" y="-18.5" font-family="Helvetica,sans-Serif" font-size="10.00">fspm.config.params.Param</text>
<text text-anchor="middle" x="312.5" y="-7.5" font-family="Helvetica,sans-Serif" font-size="10.00">Category.getParameter</text>
</a>
</g>
</g>
<!-- Node1&#45;&gt;Node2 -->
<g id="edge1" class="edge">
<title>Node1&#45;&gt;Node2</title>
<path fill="none" stroke="midnightblue" d="M203.02,-15.5C211.64,-15.5 220.31,-15.5 228.77,-15.5"/>
<polygon fill="midnightblue" stroke="midnightblue" points="228.97,-19 238.97,-15.5 228.97,-12 228.97,-19"/>
</g>
<!-- Node3 -->
<g id="node3" class="node">
<title>Node3</title>
<g id="a_node3"><a xlink:href="classfspm_1_1util_1_1KeyElement_a653aac67328f98c1201974736671fe0d.html#a653aac67328f98c1201974736671fe0d" target="_top" xlink:title=" ">
<polygon fill="none" stroke="black" points="422,-6 422,-25 580,-25 580,-6 422,-6"/>
<text text-anchor="middle" x="501" y="-13" font-family="Helvetica,sans-Serif" font-size="10.00">fspm.util.KeyElement.getKey</text>
</a>
</g>
</g>
<!-- Node2&#45;&gt;Node3 -->
<g id="edge2" class="edge">
<title>Node2&#45;&gt;Node3</title>
<path fill="none" stroke="midnightblue" d="M386.14,-15.5C394.52,-15.5 403.13,-15.5 411.69,-15.5"/>
<polygon fill="midnightblue" stroke="midnightblue" points="411.7,-19 421.7,-15.5 411.7,-12 411.7,-19"/>
</g>
</g>
</svg>
