<?xml version="1.0" encoding="UTF-8" standalone="no"?>
<!DOCTYPE svg PUBLIC "-//W3C//DTD SVG 1.1//EN"
 "http://www.w3.org/Graphics/SVG/1.1/DTD/svg11.dtd">
<!-- Generated by graphviz version 2.43.0 (0)
 -->
<!-- Title: fspm.config.params.hierarchy.CategoryHierarchy.getCategory Pages: 1 -->
<svg width="654pt" height="333pt"
 viewBox="0.00 0.00 654.00 333.00" xmlns="http://www.w3.org/2000/svg" xmlns:xlink="http://www.w3.org/1999/xlink">
<g id="graph0" class="graph" transform="scale(1 1) rotate(0) translate(4 329)">
<title>fspm.config.params.hierarchy.CategoryHierarchy.getCategory</title>
<!-- Node1 -->
<g id="node1" class="node">
<title>Node1</title>
<g id="a_node1"><a xlink:title="Gets the category with the given key.">
<polygon fill="#bfbfbf" stroke="black" points="476,-147.5 476,-177.5 646,-177.5 646,-147.5 476,-147.5"/>
<text text-anchor="start" x="484" y="-165.5" font-family="Helvetica,sans-Serif" font-size="10.00">fspm.config.params.hierarchy.</text>
<text text-anchor="middle" x="561" y="-154.5" font-family="Helvetica,sans-Serif" font-size="10.00">CategoryHierarchy.getCategory</text>
</a>
</g>
</g>
<!-- Node2 -->
<g id="node2" class="node">
<title>Node2</title>
<g id="a_node2"><a xlink:href="classfspm_1_1config_1_1params_1_1hierarchy_1_1CategoryHierarchy_aae1281ff120a1d9340b3c062367d0fbb.html#aae1281ff120a1d9340b3c062367d0fbb" target="_top" xlink:title=" ">
<polygon fill="none" stroke="black" points="233,-147.5 233,-177.5 440,-177.5 440,-147.5 233,-147.5"/>
<text text-anchor="start" x="241" y="-165.5" font-family="Helvetica,sans-Serif" font-size="10.00">fspm.config.params.hierarchy.</text>
<text text-anchor="middle" x="336.5" y="-154.5" font-family="Helvetica,sans-Serif" font-size="10.00">CategoryHierarchy.setCategoryContext</text>
</a>
</g>
</g>
<!-- Node1&#45;&gt;Node2 -->
<g id="edge1" class="edge">
<title>Node1&#45;&gt;Node2</title>
<path fill="none" stroke="midnightblue" d="M465.65,-162.5C457.2,-162.5 448.61,-162.5 440.09,-162.5"/>
<polygon fill="midnightblue" stroke="midnightblue" points="465.88,-166 475.88,-162.5 465.88,-159 465.88,-166"/>
</g>
<!-- Node3 -->
<g id="node3" class="node">
<title>Node3</title>
<g id="a_node3"><a xlink:href="classfspm_1_1config_1_1tests_1_1ParamAccess_1_1SimpleTest_a1ebf711e67df23a453e0ce50bc63b482.html#a1ebf711e67df23a453e0ce50bc63b482" target="_top" xlink:title=" ">
<polygon fill="none" stroke="black" points="12,-294.5 12,-324.5 185,-324.5 185,-294.5 12,-294.5"/>
<text text-anchor="start" x="20" y="-312.5" font-family="Helvetica,sans-Serif" font-size="10.00">fspm.config.tests.ParamAccess.</text>
<text text-anchor="middle" x="98.5" y="-301.5" font-family="Helvetica,sans-Serif" font-size="10.00">SimpleTest.testAccessExamples</text>
</a>
</g>
</g>
<!-- Node2&#45;&gt;Node3 -->
<g id="edge2" class="edge">
<title>Node2&#45;&gt;Node3</title>
<path fill="none" stroke="midnightblue" d="M316.37,-185.22C291.66,-213.08 245.97,-259.77 197,-285.5 190.44,-288.95 183.37,-291.91 176.15,-294.46"/>
<polygon fill="midnightblue" stroke="midnightblue" points="319.12,-187.39 323.06,-177.56 313.85,-182.79 319.12,-187.39"/>
</g>
<!-- Node4 -->
<g id="node4" class="node">
<title>Node4</title>
<g id="a_node4"><a xlink:href="classfspm_1_1config_1_1tests_1_1ParamAccess_1_1SimpleTest_a4612b4a76c0c5eb3a4d9fac2c0fa2bf8.html#a4612b4a76c0c5eb3a4d9fac2c0fa2bf8" target="_top" xlink:title=" ">
<polygon fill="none" stroke="black" points="0,-245.5 0,-275.5 197,-275.5 197,-245.5 0,-245.5"/>
<text text-anchor="start" x="8" y="-263.5" font-family="Helvetica,sans-Serif" font-size="10.00">fspm.config.tests.ParamAccess.</text>
<text text-anchor="middle" x="98.5" y="-252.5" font-family="Helvetica,sans-Serif" font-size="10.00">SimpleTest.testCrossCategoryAccess</text>
</a>
</g>
</g>
<!-- Node2&#45;&gt;Node4 -->
<g id="edge3" class="edge">
<title>Node2&#45;&gt;Node4</title>
<path fill="none" stroke="midnightblue" d="M303.1,-182.81C275.7,-199.24 234.97,-221.95 197,-236.5 188.29,-239.84 178.96,-242.83 169.66,-245.47"/>
<polygon fill="midnightblue" stroke="midnightblue" points="305.11,-185.68 311.85,-177.5 301.48,-179.69 305.11,-185.68"/>
</g>
<!-- Node5 -->
<g id="node5" class="node">
<title>Node5</title>
<g id="a_node5"><a xlink:href="classfspm_1_1config_1_1tests_1_1ParamAccess_1_1SimpleTest_a55f06c98bf87ce61c0a511a84ff4d506.html#a55f06c98bf87ce61c0a511a84ff4d506" target="_top" xlink:title=" ">
<polygon fill="none" stroke="black" points="13,-196.5 13,-226.5 184,-226.5 184,-196.5 13,-196.5"/>
<text text-anchor="start" x="21" y="-214.5" font-family="Helvetica,sans-Serif" font-size="10.00">fspm.config.tests.ParamAccess.</text>
<text text-anchor="middle" x="98.5" y="-203.5" font-family="Helvetica,sans-Serif" font-size="10.00">SimpleTest.testDefault</text>
</a>
</g>
</g>
<!-- Node2&#45;&gt;Node5 -->
<g id="edge4" class="edge">
<title>Node2&#45;&gt;Node5</title>
<path fill="none" stroke="midnightblue" d="M253.08,-179.61C226.6,-185.11 197.47,-191.16 171.77,-196.49"/>
<polygon fill="midnightblue" stroke="midnightblue" points="254.01,-182.99 263.09,-177.53 252.59,-176.14 254.01,-182.99"/>
</g>
<!-- Node6 -->
<g id="node6" class="node">
<title>Node6</title>
<g id="a_node6"><a xlink:href="classfspm_1_1config_1_1tests_1_1ParamAccess_1_1SimpleTest_add14e7bad047c7089ed8e08680f4c2cf.html#add14e7bad047c7089ed8e08680f4c2cf" target="_top" xlink:title=" ">
<polygon fill="none" stroke="black" points="13,-147.5 13,-177.5 184,-177.5 184,-147.5 13,-147.5"/>
<text text-anchor="start" x="21" y="-165.5" font-family="Helvetica,sans-Serif" font-size="10.00">fspm.config.tests.ParamAccess.</text>
<text text-anchor="middle" x="98.5" y="-154.5" font-family="Helvetica,sans-Serif" font-size="10.00">SimpleTest.testNull</text>
</a>
</g>
</g>
<!-- Node2&#45;&gt;Node6 -->
<g id="edge5" class="edge">
<title>Node2&#45;&gt;Node6</title>
<path fill="none" stroke="midnightblue" d="M222.42,-162.5C209.59,-162.5 196.68,-162.5 184.31,-162.5"/>
<polygon fill="midnightblue" stroke="midnightblue" points="222.67,-166 232.67,-162.5 222.67,-159 222.67,-166"/>
</g>
<!-- Node7 -->
<g id="node7" class="node">
<title>Node7</title>
<g id="a_node7"><a xlink:href="classfspm_1_1config_1_1tests_1_1ParamAccess_1_1SimpleTest_ad0bca9bf9a2f6f7c6dc7aab7b0791fc5.html#ad0bca9bf9a2f6f7c6dc7aab7b0791fc5" target="_top" xlink:title=" ">
<polygon fill="none" stroke="black" points="0,-98.5 0,-128.5 197,-128.5 197,-98.5 0,-98.5"/>
<text text-anchor="start" x="8" y="-116.5" font-family="Helvetica,sans-Serif" font-size="10.00">fspm.config.tests.ParamAccess.</text>
<text text-anchor="middle" x="98.5" y="-105.5" font-family="Helvetica,sans-Serif" font-size="10.00">SimpleTest.testNullWithDefaultValue</text>
</a>
</g>
</g>
<!-- Node2&#45;&gt;Node7 -->
<g id="edge6" class="edge">
<title>Node2&#45;&gt;Node7</title>
<path fill="none" stroke="midnightblue" d="M253.08,-145.39C226.6,-139.89 197.47,-133.84 171.77,-128.51"/>
<polygon fill="midnightblue" stroke="midnightblue" points="252.59,-148.86 263.09,-147.47 254.01,-142.01 252.59,-148.86"/>
</g>
<!-- Node8 -->
<g id="node8" class="node">
<title>Node8</title>
<g id="a_node8"><a xlink:href="classfspm_1_1config_1_1tests_1_1ParamAccess_1_1ArrayTest_aeb939f25bb8cc9702e5a4ad8d2cdbc2c.html#aeb939f25bb8cc9702e5a4ad8d2cdbc2c" target="_top" xlink:title=" ">
<polygon fill="none" stroke="black" points="13,-49.5 13,-79.5 184,-79.5 184,-49.5 13,-49.5"/>
<text text-anchor="start" x="21" y="-67.5" font-family="Helvetica,sans-Serif" font-size="10.00">fspm.config.tests.ParamAccess.</text>
<text text-anchor="middle" x="98.5" y="-56.5" font-family="Helvetica,sans-Serif" font-size="10.00">ArrayTest.testPhenology</text>
</a>
</g>
</g>
<!-- Node2&#45;&gt;Node8 -->
<g id="edge7" class="edge">
<title>Node2&#45;&gt;Node8</title>
<path fill="none" stroke="midnightblue" d="M302.02,-142C274.6,-125.91 234.37,-103.91 197,-89.5 187.38,-85.79 177.02,-82.46 166.76,-79.54"/>
<polygon fill="midnightblue" stroke="midnightblue" points="300.42,-145.12 310.81,-147.21 303.99,-139.1 300.42,-145.12"/>
</g>
<!-- Node9 -->
<g id="node9" class="node">
<title>Node9</title>
<g id="a_node9"><a xlink:href="classfspm_1_1config_1_1tests_1_1ParamAccess_1_1SimpleTest_a6ff9e514f8013564285ff10fa6a0af6f.html#a6ff9e514f8013564285ff10fa6a0af6f" target="_top" xlink:title=" ">
<polygon fill="none" stroke="black" points="13,-0.5 13,-30.5 184,-30.5 184,-0.5 13,-0.5"/>
<text text-anchor="start" x="21" y="-18.5" font-family="Helvetica,sans-Serif" font-size="10.00">fspm.config.tests.ParamAccess.</text>
<text text-anchor="middle" x="98.5" y="-7.5" font-family="Helvetica,sans-Serif" font-size="10.00">SimpleTest.testTypes</text>
</a>
</g>
</g>
<!-- Node2&#45;&gt;Node9 -->
<g id="edge8" class="edge">
<title>Node2&#45;&gt;Node9</title>
<path fill="none" stroke="midnightblue" d="M315.9,-139.61C291.02,-112.01 245.47,-66.14 197,-40.5 189.66,-36.62 181.69,-33.32 173.57,-30.51"/>
<polygon fill="midnightblue" stroke="midnightblue" points="313.39,-142.06 322.65,-147.21 318.63,-137.41 313.39,-142.06"/>
</g>
</g>
</svg>
