<?xml version="1.0" encoding="UTF-8" standalone="no"?>
<!DOCTYPE svg PUBLIC "-//W3C//DTD SVG 1.1//EN"
 "http://www.w3.org/Graphics/SVG/1.1/DTD/svg11.dtd">
<!-- Generated by graphviz version 2.43.0 (0)
 -->
<!-- Title: fspm.config.params.group.DocumentCategoryNameGroup Pages: 1 -->
<svg width="603pt" height="998pt"
 viewBox="0.00 0.00 602.50 998.00" xmlns="http://www.w3.org/2000/svg" xmlns:xlink="http://www.w3.org/1999/xlink">
<g id="graph0" class="graph" transform="scale(1 1) rotate(0) translate(4 994)">
<title>fspm.config.params.group.DocumentCategoryNameGroup</title>
<!-- Node1 -->
<g id="node1" class="node">
<title>Node1</title>
<g id="a_node1"><a xlink:title=" ">
<polygon fill="#bfbfbf" stroke="black" points="46.5,-0.5 46.5,-90.5 234.5,-90.5 234.5,-0.5 46.5,-0.5"/>
<text text-anchor="start" x="54.5" y="-78.5" font-family="Helvetica,sans-Serif" font-size="10.00">fspm.config.params.group.</text>
<text text-anchor="middle" x="140.5" y="-67.5" font-family="Helvetica,sans-Serif" font-size="10.00">DocumentCategoryNameGroup</text>
<polyline fill="none" stroke="black" points="46.5,-60.5 234.5,-60.5 "/>
<text text-anchor="middle" x="140.5" y="-48.5" font-family="Helvetica,sans-Serif" font-size="10.00"> </text>
<polyline fill="none" stroke="black" points="46.5,-41.5 234.5,-41.5 "/>
<text text-anchor="start" x="54.5" y="-29.5" font-family="Helvetica,sans-Serif" font-size="10.00">+ DocumentCategoryNameGroup()</text>
<text text-anchor="start" x="54.5" y="-18.5" font-family="Helvetica,sans-Serif" font-size="10.00">+ getCategoryHierarchy()</text>
<text text-anchor="start" x="54.5" y="-7.5" font-family="Helvetica,sans-Serif" font-size="10.00">+ toString()</text>
</a>
</g>
</g>
<!-- Node2 -->
<g id="node2" class="node">
<title>Node2</title>
<g id="a_node2"><a xlink:href="classfspm_1_1config_1_1params_1_1group_1_1ParamGroup.html" target="_top" xlink:title="Parameter configuration class for storing parameter categories.">
<polygon fill="none" stroke="black" points="0,-379.5 0,-447.5 147,-447.5 147,-379.5 0,-379.5"/>
<text text-anchor="start" x="8" y="-435.5" font-family="Helvetica,sans-Serif" font-size="10.00">fspm.config.params.group.</text>
<text text-anchor="middle" x="73.5" y="-424.5" font-family="Helvetica,sans-Serif" font-size="10.00">ParamGroup</text>
<polyline fill="none" stroke="black" points="0,-417.5 147,-417.5 "/>
<text text-anchor="middle" x="73.5" y="-405.5" font-family="Helvetica,sans-Serif" font-size="10.00"> </text>
<polyline fill="none" stroke="black" points="0,-398.5 147,-398.5 "/>
<text text-anchor="start" x="8" y="-386.5" font-family="Helvetica,sans-Serif" font-size="10.00"># ParamGroup()</text>
</a>
</g>
</g>
<!-- Node2&#45;&gt;Node1 -->
<g id="edge1" class="edge">
<title>Node2&#45;&gt;Node1</title>
<path fill="none" stroke="midnightblue" d="M81.44,-369.13C94.28,-299 119.45,-161.47 132.4,-90.77"/>
<polygon fill="none" stroke="midnightblue" points="77.92,-368.91 79.56,-379.37 84.81,-370.17 77.92,-368.91"/>
</g>
<!-- Node3 -->
<g id="node3" class="node">
<title>Node3</title>
<g id="a_node3"><a xlink:href="classfspm_1_1util_1_1KeyElement.html" target="_top" xlink:title=" ">
<polygon fill="none" stroke="black" points="68.5,-805.5 68.5,-873.5 190.5,-873.5 190.5,-805.5 68.5,-805.5"/>
<text text-anchor="middle" x="129.5" y="-861.5" font-family="Helvetica,sans-Serif" font-size="10.00">fspm.util.KeyElement</text>
<polyline fill="none" stroke="black" points="68.5,-854.5 190.5,-854.5 "/>
<text text-anchor="middle" x="129.5" y="-842.5" font-family="Helvetica,sans-Serif" font-size="10.00"> </text>
<polyline fill="none" stroke="black" points="68.5,-835.5 190.5,-835.5 "/>
<text text-anchor="start" x="76.5" y="-823.5" font-family="Helvetica,sans-Serif" font-size="10.00">+ KeyElement()</text>
<text text-anchor="start" x="76.5" y="-812.5" font-family="Helvetica,sans-Serif" font-size="10.00">+ getKey()</text>
</a>
</g>
</g>
<!-- Node3&#45;&gt;Node2 -->
<g id="edge2" class="edge">
<title>Node3&#45;&gt;Node2</title>
<path fill="none" stroke="midnightblue" d="M115.58,-795.77C106.55,-766.14 95.4,-725.58 89.5,-689 75.6,-602.75 73.39,-499.54 73.27,-447.69"/>
<polygon fill="none" stroke="midnightblue" points="112.26,-796.85 118.55,-805.37 118.94,-794.79 112.26,-796.85"/>
</g>
<!-- Node7 -->
<g id="node7" class="node">
<title>Node7</title>
<g id="a_node7"><a xlink:href="classfspm_1_1config_1_1params_1_1ParamCategory.html" target="_top" xlink:title="A ParamCategory stores Parameters that belong to a common category.">
<polygon fill="none" stroke="black" points="99,-466.5 99,-688.5 246,-688.5 246,-466.5 99,-466.5"/>
<text text-anchor="start" x="107" y="-676.5" font-family="Helvetica,sans-Serif" font-size="10.00">fspm.config.params.Param</text>
<text text-anchor="middle" x="172.5" y="-665.5" font-family="Helvetica,sans-Serif" font-size="10.00">Category</text>
<polyline fill="none" stroke="black" points="99,-658.5 246,-658.5 "/>
<text text-anchor="middle" x="172.5" y="-646.5" font-family="Helvetica,sans-Serif" font-size="10.00"> </text>
<polyline fill="none" stroke="black" points="99,-639.5 246,-639.5 "/>
<text text-anchor="start" x="107" y="-627.5" font-family="Helvetica,sans-Serif" font-size="10.00">+ ParamCategory()</text>
<text text-anchor="start" x="107" y="-616.5" font-family="Helvetica,sans-Serif" font-size="10.00">+ addParameter()</text>
<text text-anchor="start" x="107" y="-605.5" font-family="Helvetica,sans-Serif" font-size="10.00">+ setParameter()</text>
<text text-anchor="start" x="107" y="-594.5" font-family="Helvetica,sans-Serif" font-size="10.00">+ getBoolean()</text>
<text text-anchor="start" x="107" y="-583.5" font-family="Helvetica,sans-Serif" font-size="10.00">+ getString()</text>
<text text-anchor="start" x="107" y="-572.5" font-family="Helvetica,sans-Serif" font-size="10.00">+ getInteger()</text>
<text text-anchor="start" x="107" y="-561.5" font-family="Helvetica,sans-Serif" font-size="10.00">+ getDouble()</text>
<text text-anchor="start" x="107" y="-550.5" font-family="Helvetica,sans-Serif" font-size="10.00">+ getBooleanArray()</text>
<text text-anchor="start" x="107" y="-539.5" font-family="Helvetica,sans-Serif" font-size="10.00">+ getStringArray()</text>
<text text-anchor="start" x="107" y="-528.5" font-family="Helvetica,sans-Serif" font-size="10.00">+ getIntegerArray()</text>
<text text-anchor="start" x="107" y="-517.5" font-family="Helvetica,sans-Serif" font-size="10.00">+ getDoubleArray()</text>
<text text-anchor="start" x="107" y="-506.5" font-family="Helvetica,sans-Serif" font-size="10.00">+ isNull()</text>
<text text-anchor="start" x="107" y="-495.5" font-family="Helvetica,sans-Serif" font-size="10.00">+ getParameter()</text>
<text text-anchor="start" x="107" y="-484.5" font-family="Helvetica,sans-Serif" font-size="10.00">+ toString()</text>
<text text-anchor="start" x="107" y="-473.5" font-family="Helvetica,sans-Serif" font-size="10.00">~ getArray()</text>
</a>
</g>
</g>
<!-- Node3&#45;&gt;Node7 -->
<g id="edge8" class="edge">
<title>Node3&#45;&gt;Node7</title>
<path fill="none" stroke="midnightblue" d="M132.84,-795.21C135.14,-769.48 138.66,-736.26 143.5,-707 144.49,-701.02 145.59,-694.9 146.75,-688.74"/>
<polygon fill="none" stroke="midnightblue" points="129.33,-795.13 131.96,-805.39 136.31,-795.73 129.33,-795.13"/>
</g>
<!-- Node4 -->
<g id="node4" class="node">
<title>Node4</title>
<g id="a_node4"><a xlink:title=" ">
<polygon fill="none" stroke="#bfbfbf" points="172,-932.5 172,-989.5 217,-989.5 217,-932.5 172,-932.5"/>
<text text-anchor="middle" x="194.5" y="-977.5" font-family="Helvetica,sans-Serif" font-size="10.00">String</text>
<polyline fill="none" stroke="#bfbfbf" points="172,-970.5 217,-970.5 "/>
<text text-anchor="middle" x="194.5" y="-958.5" font-family="Helvetica,sans-Serif" font-size="10.00"> </text>
<polyline fill="none" stroke="#bfbfbf" points="172,-951.5 217,-951.5 "/>
<text text-anchor="middle" x="194.5" y="-939.5" font-family="Helvetica,sans-Serif" font-size="10.00"> </text>
</a>
</g>
</g>
<!-- Node4&#45;&gt;Node3 -->
<g id="edge3" class="edge">
<title>Node4&#45;&gt;Node3</title>
<path fill="none" stroke="#404040" d="M179.42,-932.28C171.68,-918.05 162.07,-900.38 153.36,-884.36"/>
<polygon fill="none" stroke="#404040" points="153.23,-884.13 146.85,-880.77 147.5,-873.59 153.88,-876.95 153.23,-884.13"/>
<text text-anchor="middle" x="181" y="-900.5" font-family="Helvetica,sans-Serif" font-size="10.00"> &#45;key</text>
</g>
<!-- Node6 -->
<g id="node6" class="node">
<title>Node6</title>
<g id="a_node6"><a xlink:href="classfspm_1_1config_1_1params_1_1hierarchy_1_1Hierarchy.html" target="_top" xlink:title=" ">
<polygon fill="none" stroke="black" points="144.5,-707.5 144.5,-786.5 308.5,-786.5 308.5,-707.5 144.5,-707.5"/>
<text text-anchor="start" x="152.5" y="-774.5" font-family="Helvetica,sans-Serif" font-size="10.00">fspm.config.params.hierarchy.</text>
<text text-anchor="middle" x="226.5" y="-763.5" font-family="Helvetica,sans-Serif" font-size="10.00">Hierarchy</text>
<polyline fill="none" stroke="black" points="144.5,-756.5 308.5,-756.5 "/>
<text text-anchor="middle" x="226.5" y="-744.5" font-family="Helvetica,sans-Serif" font-size="10.00"> </text>
<polyline fill="none" stroke="black" points="144.5,-737.5 308.5,-737.5 "/>
<text text-anchor="start" x="152.5" y="-725.5" font-family="Helvetica,sans-Serif" font-size="10.00">+ Hierarchy()</text>
<text text-anchor="start" x="152.5" y="-714.5" font-family="Helvetica,sans-Serif" font-size="10.00">+ getGroupKey()</text>
</a>
</g>
</g>
<!-- Node4&#45;&gt;Node6 -->
<g id="edge6" class="edge">
<title>Node4&#45;&gt;Node6</title>
<path fill="none" stroke="#404040" d="M198.68,-932.28C203.79,-898.47 212.52,-840.65 218.84,-798.78"/>
<polygon fill="none" stroke="#404040" points="218.84,-798.75 215.78,-792.22 220.63,-786.88 223.69,-793.41 218.84,-798.75"/>
<text text-anchor="middle" x="230" y="-900.5" font-family="Helvetica,sans-Serif" font-size="10.00"> &#45;groupKey</text>
</g>
<!-- Node5 -->
<g id="node5" class="node">
<title>Node5</title>
<g id="a_node5"><a xlink:href="classfspm_1_1config_1_1params_1_1hierarchy_1_1CategoryHierarchy.html" target="_top" xlink:title=" ">
<polygon fill="none" stroke="black" points="201.5,-138.5 201.5,-360.5 365.5,-360.5 365.5,-138.5 201.5,-138.5"/>
<text text-anchor="start" x="209.5" y="-348.5" font-family="Helvetica,sans-Serif" font-size="10.00">fspm.config.params.hierarchy.</text>
<text text-anchor="middle" x="283.5" y="-337.5" font-family="Helvetica,sans-Serif" font-size="10.00">CategoryHierarchy</text>
<polyline fill="none" stroke="black" points="201.5,-330.5 365.5,-330.5 "/>
<text text-anchor="middle" x="283.5" y="-318.5" font-family="Helvetica,sans-Serif" font-size="10.00"> </text>
<polyline fill="none" stroke="black" points="201.5,-311.5 365.5,-311.5 "/>
<text text-anchor="start" x="209.5" y="-299.5" font-family="Helvetica,sans-Serif" font-size="10.00">+ CategoryHierarchy()</text>
<text text-anchor="start" x="209.5" y="-288.5" font-family="Helvetica,sans-Serif" font-size="10.00">+ addCategory()</text>
<text text-anchor="start" x="209.5" y="-277.5" font-family="Helvetica,sans-Serif" font-size="10.00">+ getCategory()</text>
<text text-anchor="start" x="209.5" y="-266.5" font-family="Helvetica,sans-Serif" font-size="10.00">+ getCategoryWithParam()</text>
<text text-anchor="start" x="209.5" y="-255.5" font-family="Helvetica,sans-Serif" font-size="10.00">+ setCategoryContext()</text>
<text text-anchor="start" x="209.5" y="-244.5" font-family="Helvetica,sans-Serif" font-size="10.00">+ getBoolean()</text>
<text text-anchor="start" x="209.5" y="-233.5" font-family="Helvetica,sans-Serif" font-size="10.00">+ getString()</text>
<text text-anchor="start" x="209.5" y="-222.5" font-family="Helvetica,sans-Serif" font-size="10.00">+ getInteger()</text>
<text text-anchor="start" x="209.5" y="-211.5" font-family="Helvetica,sans-Serif" font-size="10.00">+ getDouble()</text>
<text text-anchor="start" x="209.5" y="-200.5" font-family="Helvetica,sans-Serif" font-size="10.00">+ getBooleanArray()</text>
<text text-anchor="start" x="209.5" y="-189.5" font-family="Helvetica,sans-Serif" font-size="10.00">and 18 more...</text>
<text text-anchor="start" x="209.5" y="-178.5" font-family="Helvetica,sans-Serif" font-size="10.00">+ parse()</text>
<text text-anchor="start" x="209.5" y="-167.5" font-family="Helvetica,sans-Serif" font-size="10.00">~ getArray()</text>
<text text-anchor="start" x="209.5" y="-156.5" font-family="Helvetica,sans-Serif" font-size="10.00">~ getArray()</text>
<text text-anchor="start" x="209.5" y="-145.5" font-family="Helvetica,sans-Serif" font-size="10.00">&#45; validateFlattenedAccess()</text>
</a>
</g>
</g>
<!-- Node5&#45;&gt;Node1 -->
<g id="edge4" class="edge">
<title>Node5&#45;&gt;Node1</title>
<path fill="none" stroke="#404040" d="M205.51,-138.34C196.31,-125.34 187.26,-112.55 178.96,-100.83"/>
<polygon fill="none" stroke="#404040" points="178.82,-100.63 172.09,-98.04 171.89,-90.83 178.62,-93.42 178.82,-100.63"/>
<text text-anchor="middle" x="239" y="-112" font-family="Helvetica,sans-Serif" font-size="10.00"> &#45;categoryHierarchy</text>
</g>
<!-- Node6&#45;&gt;Node5 -->
<g id="edge5" class="edge">
<title>Node6&#45;&gt;Node5</title>
<path fill="none" stroke="midnightblue" d="M316.62,-701.93C321.28,-697.92 325.63,-693.61 329.5,-689 402.35,-602.25 393.8,-559.73 412.5,-448 417.56,-417.75 424.26,-407.32 412.5,-379 402.25,-354.33 384.72,-331.95 365.82,-313.03"/>
<polygon fill="none" stroke="midnightblue" points="314.15,-699.42 308.51,-708.39 318.51,-704.89 314.15,-699.42"/>
</g>
<!-- Node7&#45;&gt;Node5 -->
<g id="edge7" class="edge">
<title>Node7&#45;&gt;Node5</title>
<path fill="none" stroke="#404040" d="M172.14,-466.28C174.82,-437.2 180.26,-406.32 190.5,-379 192.17,-374.56 194.03,-370.13 196.05,-365.74"/>
<polygon fill="none" stroke="#404040" points="196.09,-365.66 195.16,-358.51 201.4,-354.9 202.33,-362.05 196.09,-365.66"/>
<text text-anchor="middle" x="234.5" y="-411" font-family="Helvetica,sans-Serif" font-size="10.00"> &#45;categoryContext</text>
</g>
<!-- Node8 -->
<g id="node8" class="node">
<title>Node8</title>
<g id="a_node8"><a xlink:title=" ">
<polygon fill="none" stroke="#bfbfbf" points="247,-805.5 247,-873.5 430,-873.5 430,-805.5 247,-805.5"/>
<text text-anchor="start" x="255" y="-861.5" font-family="Helvetica,sans-Serif" font-size="10.00">Map&lt; String, fspm.config.params.</text>
<text text-anchor="middle" x="338.5" y="-850.5" font-family="Helvetica,sans-Serif" font-size="10.00">Parameter &gt;</text>
<polyline fill="none" stroke="#bfbfbf" points="247,-843.5 430,-843.5 "/>
<text text-anchor="middle" x="338.5" y="-831.5" font-family="Helvetica,sans-Serif" font-size="10.00"> </text>
<polyline fill="none" stroke="#bfbfbf" points="247,-824.5 430,-824.5 "/>
<text text-anchor="middle" x="338.5" y="-812.5" font-family="Helvetica,sans-Serif" font-size="10.00"> </text>
</a>
</g>
</g>
<!-- Node8&#45;&gt;Node7 -->
<g id="edge9" class="edge">
<title>Node8&#45;&gt;Node7</title>
<path fill="none" stroke="#404040" d="M332.01,-805.2C324.52,-767.47 312.82,-710.69 309.5,-707 294.62,-690.48 280.04,-700.51 256.39,-688.13"/>
<polygon fill="none" stroke="#404040" points="256.22,-688.02 249.01,-688.19 246.08,-681.61 253.28,-681.43 256.22,-688.02"/>
<text text-anchor="middle" x="349.5" y="-744.5" font-family="Helvetica,sans-Serif" font-size="10.00"> &#45;params</text>
</g>
<!-- Node9 -->
<g id="node9" class="node">
<title>Node9</title>
<g id="a_node9"><a xlink:title=" ">
<polygon fill="none" stroke="#bfbfbf" points="386.5,-932.5 386.5,-989.5 424.5,-989.5 424.5,-932.5 386.5,-932.5"/>
<text text-anchor="middle" x="405.5" y="-977.5" font-family="Helvetica,sans-Serif" font-size="10.00">Map</text>
<polyline fill="none" stroke="#bfbfbf" points="386.5,-970.5 424.5,-970.5 "/>
<text text-anchor="middle" x="405.5" y="-958.5" font-family="Helvetica,sans-Serif" font-size="10.00"> </text>
<polyline fill="none" stroke="#bfbfbf" points="386.5,-951.5 424.5,-951.5 "/>
<text text-anchor="middle" x="405.5" y="-939.5" font-family="Helvetica,sans-Serif" font-size="10.00"> </text>
</a>
</g>
</g>
<!-- Node9&#45;&gt;Node8 -->
<g id="edge10" class="edge">
<title>Node9&#45;&gt;Node8</title>
<path fill="none" stroke="orange" d="M376.98,-947.88C363.02,-940.33 347.53,-929.14 339.5,-914 333.04,-901.83 331.85,-886.84 332.64,-873.59"/>
<polygon fill="orange" stroke="orange" points="375.78,-951.19 386.29,-952.53 378.91,-944.93 375.78,-951.19"/>
<text text-anchor="start" x="339.5" y="-906" font-family="Helvetica,sans-Serif" font-size="10.00"> &lt; String, fspm::config</text>
<text text-anchor="middle" x="395" y="-895" font-family="Helvetica,sans-Serif" font-size="10.00">::params::Parameter &gt;</text>
</g>
<!-- Node10 -->
<g id="node10" class="node">
<title>Node10</title>
<g id="a_node10"><a xlink:title=" ">
<polygon fill="none" stroke="#bfbfbf" points="381,-713 381,-781 564,-781 564,-713 381,-713"/>
<text text-anchor="start" x="389" y="-769" font-family="Helvetica,sans-Serif" font-size="10.00">Map&lt; String, fspm.config.params.</text>
<text text-anchor="middle" x="472.5" y="-758" font-family="Helvetica,sans-Serif" font-size="10.00">ParamCategory &gt;</text>
<polyline fill="none" stroke="#bfbfbf" points="381,-751 564,-751 "/>
<text text-anchor="middle" x="472.5" y="-739" font-family="Helvetica,sans-Serif" font-size="10.00"> </text>
<polyline fill="none" stroke="#bfbfbf" points="381,-732 564,-732 "/>
<text text-anchor="middle" x="472.5" y="-720" font-family="Helvetica,sans-Serif" font-size="10.00"> </text>
</a>
</g>
</g>
<!-- Node9&#45;&gt;Node10 -->
<g id="edge12" class="edge">
<title>Node9&#45;&gt;Node10</title>
<path fill="none" stroke="orange" d="M432.27,-938.37C439.29,-931.33 446.12,-923 450.5,-914 471.18,-871.53 474.47,-816.09 474.12,-781.26"/>
<polygon fill="orange" stroke="orange" points="429.6,-936.07 424.68,-945.46 434.37,-941.19 429.6,-936.07"/>
<text text-anchor="start" x="458.5" y="-906" font-family="Helvetica,sans-Serif" font-size="10.00"> &lt; String, fspm::config</text>
<text text-anchor="middle" x="526.5" y="-895" font-family="Helvetica,sans-Serif" font-size="10.00">::params::ParamCategory &gt;</text>
</g>
<!-- Node10&#45;&gt;Node5 -->
<g id="edge11" class="edge">
<title>Node10&#45;&gt;Node5</title>
<path fill="none" stroke="#404040" d="M476.19,-712.81C482.1,-645.53 487.73,-490.08 429.5,-379 416.33,-353.88 396.08,-331.41 374.82,-312.55"/>
<polygon fill="none" stroke="#404040" points="374.77,-312.51 367.62,-311.64 365.67,-304.7 372.83,-305.57 374.77,-312.51"/>
<text text-anchor="middle" x="508.5" y="-575" font-family="Helvetica,sans-Serif" font-size="10.00"> &#45;categories</text>
</g>
<!-- Node11 -->
<g id="node11" class="node">
<title>Node11</title>
<g id="a_node11"><a xlink:title=" ">
<polygon fill="none" stroke="#bfbfbf" points="264.5,-549 264.5,-606 320.5,-606 320.5,-549 264.5,-549"/>
<text text-anchor="middle" x="292.5" y="-594" font-family="Helvetica,sans-Serif" font-size="10.00">boolean</text>
<polyline fill="none" stroke="#bfbfbf" points="264.5,-587 320.5,-587 "/>
<text text-anchor="middle" x="292.5" y="-575" font-family="Helvetica,sans-Serif" font-size="10.00"> </text>
<polyline fill="none" stroke="#bfbfbf" points="264.5,-568 320.5,-568 "/>
<text text-anchor="middle" x="292.5" y="-556" font-family="Helvetica,sans-Serif" font-size="10.00"> </text>
</a>
</g>
</g>
<!-- Node11&#45;&gt;Node5 -->
<g id="edge13" class="edge">
<title>Node11&#45;&gt;Node5</title>
<path fill="none" stroke="#404040" d="M290.33,-548.95C288.39,-522.94 285.67,-482.85 284.5,-448 283.68,-423.7 283.24,-397.72 283.03,-372.84"/>
<polygon fill="none" stroke="#404040" points="283.03,-372.73 278.99,-366.76 282.95,-360.73 286.99,-366.7 283.03,-372.73"/>
<text text-anchor="middle" x="348.5" y="-411" font-family="Helvetica,sans-Serif" font-size="10.00"> +useFlattenedCategories</text>
</g>
</g>
</svg>
