<?xml version="1.0" encoding="UTF-8" standalone="no"?>
<!DOCTYPE svg PUBLIC "-//W3C//DTD SVG 1.1//EN"
 "http://www.w3.org/Graphics/SVG/1.1/DTD/svg11.dtd">
<!-- Generated by graphviz version 2.43.0 (0)
 -->
<!-- Title: io.github.fruitcropxl.config.adapters.JsonFileReader Pages: 1 -->
<svg width="196pt" height="209pt"
 viewBox="0.00 0.00 196.00 209.00" xmlns="http://www.w3.org/2000/svg" xmlns:xlink="http://www.w3.org/1999/xlink">
<g id="graph0" class="graph" transform="scale(1 1) rotate(0) translate(4 205)">
<title>io.github.fruitcropxl.config.adapters.JsonFileReader</title>
<!-- Node1 -->
<g id="Node000001" class="node">
<title>Node1</title>
<g id="a_Node000001"><a xlink:title="File reader to parse JSON config files to io.github.fruitcropxl.config.Config.">
<polygon fill="#999999" stroke="transparent" points="188,-90 0,-90 0,0 188,0 188,-90"/>
<text text-anchor="start" x="5" y="-78" font-family="Helvetica,sans-Serif" font-size="10.00">io.github.fruitcropxl.config.adapters.</text>
<text text-anchor="start" x="57.5" y="-67" font-family="Helvetica,sans-Serif" font-size="10.00">JsonFileReader</text>
<text text-anchor="start" x="19.5" y="-52" font-family="Helvetica,sans-Serif" font-size="10.00">+</text>
<text text-anchor="start" x="48" y="-52" font-family="Helvetica,sans-Serif" font-size="10.00">METACLASS_HEADER</text>
<text text-anchor="start" x="19.5" y="-37" font-family="Helvetica,sans-Serif" font-size="10.00">+</text>
<text text-anchor="start" x="48" y="-37" font-family="Helvetica,sans-Serif" font-size="10.00">JsonFileReader()</text>
<text text-anchor="start" x="19.5" y="-22" font-family="Helvetica,sans-Serif" font-size="10.00">+</text>
<text text-anchor="start" x="48" y="-22" font-family="Helvetica,sans-Serif" font-size="10.00">parse()</text>
<text text-anchor="start" x="19.5" y="-7" font-family="Helvetica,sans-Serif" font-size="10.00">+</text>
<text text-anchor="start" x="48" y="-7" font-family="Helvetica,sans-Serif" font-size="10.00">getTreeFromFile()</text>
<polygon fill="#666666" stroke="#666666" points="0,-62 0,-62 188,-62 188,-62 0,-62"/>
<polygon fill="#666666" stroke="#666666" points="0,-47 0,-47 46,-47 46,-47 0,-47"/>
<polygon fill="#666666" stroke="#666666" points="46,-47 46,-47 188,-47 188,-47 46,-47"/>
<polygon fill="none" stroke="#666666" points="0,0 0,-90 188,-90 188,0 0,0"/>
</a>
</g>
</g>
<!-- Node2 -->
<g id="Node000002" class="node">
<title>Node2</title>
<g id="a_Node000002"><a xlink:href="classio_1_1github_1_1fruitcropxl_1_1config_1_1adapters_1_1ConfigAdapter.html" target="_top" xlink:title="ConfigAdapter implementations are responsible for parsing different file types into ParamGroups.">
<polygon fill="white" stroke="transparent" points="188,-201 0,-201 0,-126 188,-126 188,-201"/>
<text text-anchor="start" x="5" y="-188.5" font-family="Helvetica,sans-Serif" font-size="10.00">io.github.fruitcropxl.config.adapters.</text>
<text text-anchor="start" x="59" y="-177.5" font-family="Helvetica,sans-Serif" font-size="10.00">ConfigAdapter</text>
<text text-anchor="start" x="26.5" y="-162.5" font-family="Helvetica,sans-Serif" font-size="10.00">#</text>
<text text-anchor="start" x="62" y="-162.5" font-family="Helvetica,sans-Serif" font-size="10.00">path</text>
<text text-anchor="start" x="26.5" y="-147.5" font-family="Helvetica,sans-Serif" font-size="10.00">+</text>
<text text-anchor="start" x="62" y="-147.5" font-family="Helvetica,sans-Serif" font-size="10.00">parse()</text>
<text text-anchor="start" x="26.5" y="-132.5" font-family="Helvetica,sans-Serif" font-size="10.00">#</text>
<text text-anchor="start" x="62" y="-132.5" font-family="Helvetica,sans-Serif" font-size="10.00">ConfigAdapter()</text>
<polygon fill="#666666" stroke="#666666" points="0,-172.5 0,-172.5 188,-172.5 188,-172.5 0,-172.5"/>
<polygon fill="#666666" stroke="#666666" points="0,-157.5 0,-157.5 60,-157.5 60,-157.5 0,-157.5"/>
<polygon fill="#666666" stroke="#666666" points="60,-157.5 60,-157.5 188,-157.5 188,-157.5 60,-157.5"/>
<polygon fill="none" stroke="#666666" points="0,-126 0,-201 188,-201 188,-126 0,-126"/>
</a>
</g>
</g>
<!-- Node2&#45;&gt;Node1 -->
<g id="edge1_Node000001_Node000002" class="edge">
<title>Node2&#45;&gt;Node1</title>
<g id="a_edge1_Node000001_Node000002"><a xlink:title=" ">
<path fill="none" stroke="#63b8ff" d="M94,-115.85C94,-107.38 94,-98.58 94,-90.18"/>
<polygon fill="none" stroke="#63b8ff" points="90.5,-115.96 94,-125.96 97.5,-115.96 90.5,-115.96"/>
</a>
</g>
</g>
</g>
</svg>
