<?xml version="1.0" encoding="UTF-8" standalone="no"?>
<!DOCTYPE svg PUBLIC "-//W3C//DTD SVG 1.1//EN"
 "http://www.w3.org/Graphics/SVG/1.1/DTD/svg11.dtd">
<!-- Generated by graphviz version 2.43.0 (0)
 -->
<!-- Title: io.github.fruitcropxl.config.params.structures.ParamStructure Pages: 1 -->
<svg width="241pt" height="179pt"
 viewBox="0.00 0.00 241.00 179.00" xmlns="http://www.w3.org/2000/svg" xmlns:xlink="http://www.w3.org/1999/xlink">
<g id="graph0" class="graph" transform="scale(1 1) rotate(0) translate(4 175)">
<title>io.github.fruitcropxl.config.params.structures.ParamStructure</title>
<!-- Node1 -->
<g id="Node000001" class="node">
<title>Node1</title>
<g id="a_Node000001"><a xlink:title="Represents a structure found in ParamGroups that store parameters.">
<polygon fill="#999999" stroke="transparent" points="233,-75 0,-75 0,0 233,0 233,-75"/>
<text text-anchor="start" x="5.5" y="-62.5" font-family="Helvetica,sans-Serif" font-size="10.00">io.github.fruitcropxl.config.params.structures.</text>
<text text-anchor="start" x="79" y="-51.5" font-family="Helvetica,sans-Serif" font-size="10.00">ParamStructure</text>
<text text-anchor="start" x="115" y="-36.5" font-family="Helvetica,sans-Serif" font-size="10.00"> </text>
<text text-anchor="start" x="36.5" y="-21.5" font-family="Helvetica,sans-Serif" font-size="10.00">+</text>
<text text-anchor="start" x="81.5" y="-21.5" font-family="Helvetica,sans-Serif" font-size="10.00">ParamStructure()</text>
<text text-anchor="start" x="36.5" y="-6.5" font-family="Helvetica,sans-Serif" font-size="10.00">+</text>
<text text-anchor="start" x="81.5" y="-6.5" font-family="Helvetica,sans-Serif" font-size="10.00">getGroupKey()</text>
<polygon fill="#666666" stroke="#666666" points="0.5,-46.5 0.5,-46.5 233.5,-46.5 233.5,-46.5 0.5,-46.5"/>
<polygon fill="#666666" stroke="#666666" points="0.5,-31.5 0.5,-31.5 233.5,-31.5 233.5,-31.5 0.5,-31.5"/>
<polygon fill="none" stroke="#666666" points="0,0 0,-75 233,-75 233,0 0,0"/>
</a>
</g>
</g>
<!-- Node2 -->
<g id="Node000002" class="node">
<title>Node2</title>
<g id="a_Node000002"><a xlink:href="classSerializable.html" target="_top" xlink:title=" ">
<polygon fill="white" stroke="transparent" points="114.5,-171 46.5,-171 46.5,-122 114.5,-122 114.5,-171"/>
<text text-anchor="start" x="51.5" y="-158.5" font-family="Helvetica,sans-Serif" font-size="10.00">Serializable</text>
<text text-anchor="start" x="78.5" y="-143.5" font-family="Helvetica,sans-Serif" font-size="10.00"> </text>
<text text-anchor="start" x="78.5" y="-128.5" font-family="Helvetica,sans-Serif" font-size="10.00"> </text>
<polygon fill="#666666" stroke="#666666" points="46.5,-153.5 46.5,-153.5 114.5,-153.5 114.5,-153.5 46.5,-153.5"/>
<polygon fill="#666666" stroke="#666666" points="46.5,-138.5 46.5,-138.5 114.5,-138.5 114.5,-138.5 46.5,-138.5"/>
<polygon fill="none" stroke="#666666" points="46.5,-122 46.5,-171 114.5,-171 114.5,-122 46.5,-122"/>
</a>
</g>
</g>
<!-- Node2&#45;&gt;Node1 -->
<g id="edge1_Node000001_Node000002" class="edge">
<title>Node2&#45;&gt;Node1</title>
<g id="a_edge1_Node000001_Node000002"><a xlink:title=" ">
<path fill="none" stroke="#63b8ff" d="M91.79,-111.95C95.72,-100.28 100.14,-87.13 104.15,-75.22"/>
<polygon fill="none" stroke="#63b8ff" points="88.36,-111.16 88.49,-121.75 95,-113.39 88.36,-111.16"/>
</a>
</g>
</g>
<!-- Node3 -->
<g id="Node000003" class="node">
<title>Node3</title>
<g id="a_Node000003"><a xlink:title=" ">
<polygon fill="white" stroke="transparent" points="172,-171 133,-171 133,-122 172,-122 172,-171"/>
<text text-anchor="start" x="138.5" y="-158.5" font-family="Helvetica,sans-Serif" font-size="10.00">String</text>
<text text-anchor="start" x="151" y="-143.5" font-family="Helvetica,sans-Serif" font-size="10.00"> </text>
<text text-anchor="start" x="151" y="-128.5" font-family="Helvetica,sans-Serif" font-size="10.00"> </text>
<polygon fill="#666666" stroke="#666666" points="133.5,-153.5 133.5,-153.5 172.5,-153.5 172.5,-153.5 133.5,-153.5"/>
<polygon fill="#666666" stroke="#666666" points="133.5,-138.5 133.5,-138.5 172.5,-138.5 172.5,-138.5 133.5,-138.5"/>
<polygon fill="none" stroke="#666666" points="133,-122 133,-171 172,-171 172,-122 133,-122"/>
</a>
</g>
</g>
<!-- Node3&#45;&gt;Node1 -->
<g id="edge2_Node000001_Node000003" class="edge">
<title>Node3&#45;&gt;Node1</title>
<g id="a_edge2_Node000001_Node000003"><a xlink:title=" ">
<path fill="none" stroke="#63b8ff" d="M144.51,-121.75C141.03,-111.4 136.81,-98.86 132.71,-86.69"/>
<polygon fill="none" stroke="#63b8ff" points="132.68,-86.59 126.98,-82.18 128.85,-75.22 134.56,-79.63 132.68,-86.59"/>
</a>
</g>
<text text-anchor="middle" x="164" y="-96" font-family="Helvetica,sans-Serif" font-size="10.00" fill="grey"> &#45;groupKey</text>
</g>
</g>
</svg>
