<?xml version="1.0" encoding="UTF-8" standalone="no"?>
<!DOCTYPE svg PUBLIC "-//W3C//DTD SVG 1.1//EN"
 "http://www.w3.org/Graphics/SVG/1.1/DTD/svg11.dtd">
<!-- Generated by graphviz version 2.43.0 (0)
 -->
<!-- Title: fspm.config.adapters.ConfigAdapter Pages: 1 -->
<svg width="161pt" height="215pt"
 viewBox="0.00 0.00 161.00 215.00" xmlns="http://www.w3.org/2000/svg" xmlns:xlink="http://www.w3.org/1999/xlink">
<g id="graph0" class="graph" transform="scale(1 1) rotate(0) translate(4 211)">
<title>fspm.config.adapters.ConfigAdapter</title>
<!-- Node1 -->
<g id="node1" class="node">
<title>Node1</title>
<g id="a_node1"><a xlink:title="ConfigAdapter implementations are responsible for parsing different file types into ParamGroups.">
<polygon fill="#bfbfbf" stroke="black" points="0,-127.5 0,-206.5 153,-206.5 153,-127.5 0,-127.5"/>
<text text-anchor="start" x="8" y="-194.5" font-family="Helvetica,sans-Serif" font-size="10.00">fspm.config.adapters.Config</text>
<text text-anchor="middle" x="76.5" y="-183.5" font-family="Helvetica,sans-Serif" font-size="10.00">Adapter</text>
<polyline fill="none" stroke="black" points="0,-176.5 153,-176.5 "/>
<text text-anchor="start" x="8" y="-164.5" font-family="Helvetica,sans-Serif" font-size="10.00"># path</text>
<polyline fill="none" stroke="black" points="0,-157.5 153,-157.5 "/>
<text text-anchor="start" x="8" y="-145.5" font-family="Helvetica,sans-Serif" font-size="10.00">+ parse()</text>
<text text-anchor="start" x="8" y="-134.5" font-family="Helvetica,sans-Serif" font-size="10.00"># ConfigAdapter()</text>
</a>
</g>
</g>
<!-- Node2 -->
<g id="node2" class="node">
<title>Node2</title>
<g id="a_node2"><a xlink:href="classfspm_1_1config_1_1adapters_1_1JsonFileReader.html" target="_top" xlink:title="File reader to parse JSON config files to fspm.config.Config.">
<polygon fill="none" stroke="black" points="5,-0.5 5,-90.5 148,-90.5 148,-0.5 5,-0.5"/>
<text text-anchor="start" x="13" y="-78.5" font-family="Helvetica,sans-Serif" font-size="10.00">fspm.config.adapters.Json</text>
<text text-anchor="middle" x="76.5" y="-67.5" font-family="Helvetica,sans-Serif" font-size="10.00">FileReader</text>
<polyline fill="none" stroke="black" points="5,-60.5 148,-60.5 "/>
<text text-anchor="start" x="13" y="-48.5" font-family="Helvetica,sans-Serif" font-size="10.00">+ METACLASS_HEADER</text>
<polyline fill="none" stroke="black" points="5,-41.5 148,-41.5 "/>
<text text-anchor="start" x="13" y="-29.5" font-family="Helvetica,sans-Serif" font-size="10.00">+ JsonFileReader()</text>
<text text-anchor="start" x="13" y="-18.5" font-family="Helvetica,sans-Serif" font-size="10.00">+ parse()</text>
<text text-anchor="start" x="13" y="-7.5" font-family="Helvetica,sans-Serif" font-size="10.00">+ getTreeFromFile()</text>
</a>
</g>
</g>
<!-- Node1&#45;&gt;Node2 -->
<g id="edge1" class="edge">
<title>Node1&#45;&gt;Node2</title>
<path fill="none" stroke="midnightblue" d="M76.5,-117.19C76.5,-108.49 76.5,-99.48 76.5,-90.91"/>
<polygon fill="none" stroke="midnightblue" points="73,-117.2 76.5,-127.2 80,-117.2 73,-117.2"/>
</g>
</g>
</svg>
