<?xml version="1.0" encoding="UTF-8" standalone="no"?>
<!DOCTYPE svg PUBLIC "-//W3C//DTD SVG 1.1//EN"
 "http://www.w3.org/Graphics/SVG/1.1/DTD/svg11.dtd">
<!-- Generated by graphviz version 2.43.0 (0)
 -->
<!-- Title: io.github.fruitcropxl.config.Config Pages: 1 -->
<svg width="150pt" height="288pt"
 viewBox="0.00 0.00 150.00 288.00" xmlns="http://www.w3.org/2000/svg" xmlns:xlink="http://www.w3.org/1999/xlink">
<g id="graph0" class="graph" transform="scale(1 1) rotate(0) translate(4 284)">
<title>io.github.fruitcropxl.config.Config</title>
<!-- Node1 -->
<g id="Node000001" class="node">
<title>Node1</title>
<g id="a_Node000001"><a xlink:title="Configuration class for storing input configurations to be used in simulations.">
<polygon fill="#999999" stroke="transparent" points="142,-195 0,-195 0,0 142,0 142,-195"/>
<text text-anchor="start" x="5" y="-182.5" font-family="Helvetica,sans-Serif" font-size="10.00">io.github.fruitcropxl.config.</text>
<text text-anchor="start" x="55.5" y="-171.5" font-family="Helvetica,sans-Serif" font-size="10.00">Config</text>
<text text-anchor="start" x="18" y="-156.5" font-family="Helvetica,sans-Serif" font-size="10.00">&#45;</text>
<text text-anchor="start" x="40" y="-156.5" font-family="Helvetica,sans-Serif" font-size="10.00">paramGroups</text>
<text text-anchor="start" x="18" y="-141.5" font-family="Helvetica,sans-Serif" font-size="10.00">&#45;</text>
<text text-anchor="start" x="40" y="-141.5" font-family="Helvetica,sans-Serif" font-size="10.00">instance</text>
<text text-anchor="start" x="15.5" y="-126.5" font-family="Helvetica,sans-Serif" font-size="10.00">+</text>
<text text-anchor="start" x="40" y="-126.5" font-family="Helvetica,sans-Serif" font-size="10.00">reset()</text>
<text text-anchor="start" x="15.5" y="-111.5" font-family="Helvetica,sans-Serif" font-size="10.00">+</text>
<text text-anchor="start" x="40" y="-111.5" font-family="Helvetica,sans-Serif" font-size="10.00">addGroup()</text>
<text text-anchor="start" x="15.5" y="-96.5" font-family="Helvetica,sans-Serif" font-size="10.00">+</text>
<text text-anchor="start" x="40" y="-96.5" font-family="Helvetica,sans-Serif" font-size="10.00">addGroup()</text>
<text text-anchor="start" x="15.5" y="-81.5" font-family="Helvetica,sans-Serif" font-size="10.00">+</text>
<text text-anchor="start" x="40" y="-81.5" font-family="Helvetica,sans-Serif" font-size="10.00">addGroup()</text>
<text text-anchor="start" x="15.5" y="-66.5" font-family="Helvetica,sans-Serif" font-size="10.00">+</text>
<text text-anchor="start" x="40" y="-66.5" font-family="Helvetica,sans-Serif" font-size="10.00">removeGroup()</text>
<text text-anchor="start" x="15.5" y="-51.5" font-family="Helvetica,sans-Serif" font-size="10.00">+</text>
<text text-anchor="start" x="40" y="-51.5" font-family="Helvetica,sans-Serif" font-size="10.00">getInstance()</text>
<text text-anchor="start" x="15.5" y="-36.5" font-family="Helvetica,sans-Serif" font-size="10.00">~</text>
<text text-anchor="start" x="40" y="-36.5" font-family="Helvetica,sans-Serif" font-size="10.00">getGroup()</text>
<text text-anchor="start" x="18" y="-21.5" font-family="Helvetica,sans-Serif" font-size="10.00">&#45;</text>
<text text-anchor="start" x="40" y="-21.5" font-family="Helvetica,sans-Serif" font-size="10.00">Config()</text>
<text text-anchor="start" x="18" y="-6.5" font-family="Helvetica,sans-Serif" font-size="10.00">&#45;</text>
<text text-anchor="start" x="40" y="-6.5" font-family="Helvetica,sans-Serif" font-size="10.00">addGroup()</text>
<polygon fill="#666666" stroke="#666666" points="0,-166.5 0,-166.5 142,-166.5 142,-166.5 0,-166.5"/>
<polygon fill="#666666" stroke="#666666" points="0,-136.5 0,-136.5 38,-136.5 38,-136.5 0,-136.5"/>
<polygon fill="#666666" stroke="#666666" points="38,-136.5 38,-136.5 142,-136.5 142,-136.5 38,-136.5"/>
<polygon fill="none" stroke="#666666" points="0,0 0,-195 142,-195 142,0 0,0"/>
</a>
</g>
</g>
<!-- Node2 -->
<g id="Node000002" class="node">
<title>Node2</title>
<g id="a_Node000002"><a xlink:href="classSerializable.html" target="_top" xlink:title=" ">
<polygon fill="white" stroke="transparent" points="105,-280 37,-280 37,-231 105,-231 105,-280"/>
<text text-anchor="start" x="42" y="-267.5" font-family="Helvetica,sans-Serif" font-size="10.00">Serializable</text>
<text text-anchor="start" x="69" y="-252.5" font-family="Helvetica,sans-Serif" font-size="10.00"> </text>
<text text-anchor="start" x="69" y="-237.5" font-family="Helvetica,sans-Serif" font-size="10.00"> </text>
<polygon fill="#666666" stroke="#666666" points="37,-262.5 37,-262.5 105,-262.5 105,-262.5 37,-262.5"/>
<polygon fill="#666666" stroke="#666666" points="37,-247.5 37,-247.5 105,-247.5 105,-247.5 37,-247.5"/>
<polygon fill="none" stroke="#666666" points="37,-231 37,-280 105,-280 105,-231 37,-231"/>
</a>
</g>
</g>
<!-- Node2&#45;&gt;Node1 -->
<g id="edge1_Node000001_Node000002" class="edge">
<title>Node2&#45;&gt;Node1</title>
<g id="a_edge1_Node000001_Node000002"><a xlink:title=" ">
<path fill="none" stroke="#63b8ff" d="M71,-220.73C71,-212.89 71,-204.17 71,-195.1"/>
<polygon fill="none" stroke="#63b8ff" points="67.5,-220.81 71,-230.81 74.5,-220.81 67.5,-220.81"/>
</a>
</g>
</g>
</g>
</svg>
