<?xml version="1.0" encoding="UTF-8" standalone="no"?>
<!DOCTYPE svg PUBLIC "-//W3C//DTD SVG 1.1//EN"
 "http://www.w3.org/Graphics/SVG/1.1/DTD/svg11.dtd">
<!-- Generated by graphviz version 2.43.0 (0)
 -->
<!-- Title: fspm.config.params.group.DocumentCategoryNameGroup Pages: 1 -->
<svg width="196pt" height="309pt"
 viewBox="0.00 0.00 196.00 309.00" xmlns="http://www.w3.org/2000/svg" xmlns:xlink="http://www.w3.org/1999/xlink">
<g id="graph0" class="graph" transform="scale(1 1) rotate(0) translate(4 305)">
<title>fspm.config.params.group.DocumentCategoryNameGroup</title>
<!-- Node1 -->
<g id="node1" class="node">
<title>Node1</title>
<g id="a_node1"><a xlink:title=" ">
<polygon fill="#bfbfbf" stroke="black" points="0,-0.5 0,-90.5 188,-90.5 188,-0.5 0,-0.5"/>
<text text-anchor="start" x="8" y="-78.5" font-family="Helvetica,sans-Serif" font-size="10.00">fspm.config.params.group.</text>
<text text-anchor="middle" x="94" y="-67.5" font-family="Helvetica,sans-Serif" font-size="10.00">DocumentCategoryNameGroup</text>
<polyline fill="none" stroke="black" points="0,-60.5 188,-60.5 "/>
<text text-anchor="start" x="8" y="-48.5" font-family="Helvetica,sans-Serif" font-size="10.00">&#45; categoryHierarchy</text>
<polyline fill="none" stroke="black" points="0,-41.5 188,-41.5 "/>
<text text-anchor="start" x="8" y="-29.5" font-family="Helvetica,sans-Serif" font-size="10.00">+ DocumentCategoryNameGroup()</text>
<text text-anchor="start" x="8" y="-18.5" font-family="Helvetica,sans-Serif" font-size="10.00">+ getCategoryHierarchy()</text>
<text text-anchor="start" x="8" y="-7.5" font-family="Helvetica,sans-Serif" font-size="10.00">+ toString()</text>
</a>
</g>
</g>
<!-- Node2 -->
<g id="node2" class="node">
<title>Node2</title>
<g id="a_node2"><a xlink:href="classfspm_1_1config_1_1params_1_1group_1_1ParamGroup.html" target="_top" xlink:title="Parameter configuration class for storing parameter categories.">
<polygon fill="none" stroke="black" points="20.5,-127.5 20.5,-195.5 167.5,-195.5 167.5,-127.5 20.5,-127.5"/>
<text text-anchor="start" x="28.5" y="-183.5" font-family="Helvetica,sans-Serif" font-size="10.00">fspm.config.params.group.</text>
<text text-anchor="middle" x="94" y="-172.5" font-family="Helvetica,sans-Serif" font-size="10.00">ParamGroup</text>
<polyline fill="none" stroke="black" points="20.5,-165.5 167.5,-165.5 "/>
<text text-anchor="middle" x="94" y="-153.5" font-family="Helvetica,sans-Serif" font-size="10.00"> </text>
<polyline fill="none" stroke="black" points="20.5,-146.5 167.5,-146.5 "/>
<text text-anchor="start" x="28.5" y="-134.5" font-family="Helvetica,sans-Serif" font-size="10.00"># ParamGroup()</text>
</a>
</g>
</g>
<!-- Node2&#45;&gt;Node1 -->
<g id="edge1" class="edge">
<title>Node2&#45;&gt;Node1</title>
<path fill="none" stroke="midnightblue" d="M94,-116.97C94,-108.35 94,-99.28 94,-90.64"/>
<polygon fill="none" stroke="midnightblue" points="90.5,-117.22 94,-127.22 97.5,-117.22 90.5,-117.22"/>
</g>
<!-- Node3 -->
<g id="node3" class="node">
<title>Node3</title>
<g id="a_node3"><a xlink:href="classfspm_1_1util_1_1KeyElement.html" target="_top" xlink:title=" ">
<polygon fill="none" stroke="black" points="33,-232.5 33,-300.5 155,-300.5 155,-232.5 33,-232.5"/>
<text text-anchor="middle" x="94" y="-288.5" font-family="Helvetica,sans-Serif" font-size="10.00">fspm.util.KeyElement</text>
<polyline fill="none" stroke="black" points="33,-281.5 155,-281.5 "/>
<text text-anchor="start" x="41" y="-269.5" font-family="Helvetica,sans-Serif" font-size="10.00">&#45; key</text>
<polyline fill="none" stroke="black" points="33,-262.5 155,-262.5 "/>
<text text-anchor="start" x="41" y="-250.5" font-family="Helvetica,sans-Serif" font-size="10.00">+ KeyElement()</text>
<text text-anchor="start" x="41" y="-239.5" font-family="Helvetica,sans-Serif" font-size="10.00">+ getKey()</text>
</a>
</g>
</g>
<!-- Node3&#45;&gt;Node2 -->
<g id="edge2" class="edge">
<title>Node3&#45;&gt;Node2</title>
<path fill="none" stroke="midnightblue" d="M94,-222.14C94,-213.26 94,-204.04 94,-195.59"/>
<polygon fill="none" stroke="midnightblue" points="90.5,-222.34 94,-232.34 97.5,-222.34 90.5,-222.34"/>
</g>
</g>
</svg>
