<?xml version="1.0" encoding="UTF-8" standalone="no"?>
<!DOCTYPE svg PUBLIC "-//W3C//DTD SVG 1.1//EN"
 "http://www.w3.org/Graphics/SVG/1.1/DTD/svg11.dtd">
<!-- Generated by graphviz version 2.43.0 (0)
 -->
<!-- Title: fspm.config.Config.getGroup Pages: 1 -->
<svg width="759pt" height="235pt"
 viewBox="0.00 0.00 759.00 235.00" xmlns="http://www.w3.org/2000/svg" xmlns:xlink="http://www.w3.org/1999/xlink">
<g id="graph0" class="graph" transform="scale(1 1) rotate(0) translate(4 231)">
<title>fspm.config.Config.getGroup</title>
<!-- Node1 -->
<g id="node1" class="node">
<title>Node1</title>
<g id="a_node1"><a xlink:title="Gets the parameter group with the given key.">
<polygon fill="#bfbfbf" stroke="black" points="596,-127 596,-146 751,-146 751,-127 596,-127"/>
<text text-anchor="middle" x="673.5" y="-134" font-family="Helvetica,sans-Serif" font-size="10.00">fspm.config.Config.getGroup</text>
</a>
</g>
</g>
<!-- Node2 -->
<g id="node2" class="node">
<title>Node2</title>
<g id="a_node2"><a xlink:href="classfspm_1_1config_1_1ConfigTest_a586a428c43c00668f273133c28ddd635.html#a586a428c43c00668f273133c28ddd635" target="_top" xlink:title=" ">
<polygon fill="none" stroke="black" points="206,-196.5 206,-226.5 369,-226.5 369,-196.5 206,-196.5"/>
<text text-anchor="start" x="214" y="-214.5" font-family="Helvetica,sans-Serif" font-size="10.00">fspm.config.ConfigTest.access</text>
<text text-anchor="middle" x="287.5" y="-203.5" font-family="Helvetica,sans-Serif" font-size="10.00">Examples</text>
</a>
</g>
</g>
<!-- Node1&#45;&gt;Node2 -->
<g id="edge1" class="edge">
<title>Node1&#45;&gt;Node2</title>
<path fill="none" stroke="midnightblue" d="M623.34,-148.41C603.69,-153.02 580.82,-158.22 560,-162.5 496.08,-175.65 423.29,-188.68 369.18,-198"/>
<polygon fill="midnightblue" stroke="midnightblue" points="624.37,-151.76 633.29,-146.05 622.76,-144.95 624.37,-151.76"/>
</g>
<!-- Node3 -->
<g id="node3" class="node">
<title>Node3</title>
<g id="a_node3"><a xlink:href="classfspm_1_1config_1_1Config_a97ddea0bf83d5ca1c6c42e8edf12bf7c.html#a97ddea0bf83d5ca1c6c42e8edf12bf7c" target="_top" xlink:title=" ">
<polygon fill="none" stroke="black" points="405,-99.5 405,-129.5 560,-129.5 560,-99.5 405,-99.5"/>
<text text-anchor="start" x="413" y="-117.5" font-family="Helvetica,sans-Serif" font-size="10.00">fspm.config.Config.setGroup</text>
<text text-anchor="middle" x="482.5" y="-106.5" font-family="Helvetica,sans-Serif" font-size="10.00">Context</text>
</a>
</g>
</g>
<!-- Node1&#45;&gt;Node3 -->
<g id="edge2" class="edge">
<title>Node1&#45;&gt;Node3</title>
<path fill="none" stroke="midnightblue" d="M585.9,-126.42C577.33,-125.42 568.67,-124.41 560.21,-123.43"/>
<polygon fill="midnightblue" stroke="midnightblue" points="585.56,-129.9 595.9,-127.58 586.37,-122.95 585.56,-129.9"/>
</g>
<!-- Node4 -->
<g id="node4" class="node">
<title>Node4</title>
<g id="a_node4"><a xlink:href="classfspm_1_1config_1_1ConfigTest_ab639b7af67e947577db2ab2c9bc95a87.html#ab639b7af67e947577db2ab2c9bc95a87" target="_top" xlink:title=" ">
<polygon fill="none" stroke="black" points="213,-147.5 213,-177.5 362,-177.5 362,-147.5 213,-147.5"/>
<text text-anchor="start" x="221" y="-165.5" font-family="Helvetica,sans-Serif" font-size="10.00">fspm.config.ConfigTest.test</text>
<text text-anchor="middle" x="287.5" y="-154.5" font-family="Helvetica,sans-Serif" font-size="10.00">_default</text>
</a>
</g>
</g>
<!-- Node1&#45;&gt;Node4 -->
<g id="edge9" class="edge">
<title>Node1&#45;&gt;Node4</title>
<path fill="none" stroke="midnightblue" d="M585.55,-142.39C518.21,-146.95 425.97,-153.19 362.22,-157.51"/>
<polygon fill="midnightblue" stroke="midnightblue" points="585.97,-145.87 595.71,-141.7 585.5,-138.88 585.97,-145.87"/>
</g>
<!-- Node5 -->
<g id="node5" class="node">
<title>Node5</title>
<g id="a_node5"><a xlink:href="classfspm_1_1config_1_1ConfigTest_a09a38b5eee655b088e4e144df5ad5a85.html#a09a38b5eee655b088e4e144df5ad5a85" target="_top" xlink:title=" ">
<polygon fill="none" stroke="black" points="213,-0.5 213,-30.5 362,-30.5 362,-0.5 213,-0.5"/>
<text text-anchor="start" x="221" y="-18.5" font-family="Helvetica,sans-Serif" font-size="10.00">fspm.config.ConfigTest.test</text>
<text text-anchor="middle" x="287.5" y="-7.5" font-family="Helvetica,sans-Serif" font-size="10.00">_flatCategories</text>
</a>
</g>
</g>
<!-- Node1&#45;&gt;Node5 -->
<g id="edge10" class="edge">
<title>Node1&#45;&gt;Node5</title>
<path fill="none" stroke="midnightblue" d="M641.89,-122.83C619.48,-113.11 588.18,-100.12 560,-90.5 489.42,-66.42 406.59,-44.41 351.14,-30.56"/>
<polygon fill="midnightblue" stroke="midnightblue" points="640.66,-126.11 651.22,-126.91 643.46,-119.7 640.66,-126.11"/>
</g>
<!-- Node3&#45;&gt;Node2 -->
<g id="edge3" class="edge">
<title>Node3&#45;&gt;Node2</title>
<path fill="none" stroke="midnightblue" d="M453.98,-135.57C431.96,-151.61 399.79,-173.28 369,-187.5 361.85,-190.8 354.14,-193.78 346.41,-196.42"/>
<polygon fill="midnightblue" stroke="midnightblue" points="456.22,-138.27 462.18,-129.51 452.06,-132.63 456.22,-138.27"/>
</g>
<!-- Node3&#45;&gt;Node4 -->
<g id="edge4" class="edge">
<title>Node3&#45;&gt;Node4</title>
<path fill="none" stroke="midnightblue" d="M411.09,-132.01C390.67,-137.09 368.57,-142.59 348.82,-147.5"/>
<polygon fill="midnightblue" stroke="midnightblue" points="412.1,-135.37 420.96,-129.56 410.41,-128.57 412.1,-135.37"/>
</g>
<!-- Node3&#45;&gt;Node5 -->
<g id="edge5" class="edge">
<title>Node3&#45;&gt;Node5</title>
<path fill="none" stroke="midnightblue" d="M454.47,-93.11C432.49,-76.58 400.14,-54.12 369,-39.5 362,-36.22 354.45,-33.26 346.88,-30.64"/>
<polygon fill="midnightblue" stroke="midnightblue" points="452.57,-96.06 462.64,-99.35 456.82,-90.5 452.57,-96.06"/>
</g>
<!-- Node7 -->
<g id="node7" class="node">
<title>Node7</title>
<g id="a_node7"><a xlink:href="classfspm_1_1config_1_1ConfigTest_a06c9116c21e1df253ca6b4056a187bad.html#a06c9116c21e1df253ca6b4056a187bad" target="_top" xlink:title=" ">
<polygon fill="none" stroke="black" points="213,-49.5 213,-79.5 362,-79.5 362,-49.5 213,-49.5"/>
<text text-anchor="start" x="221" y="-67.5" font-family="Helvetica,sans-Serif" font-size="10.00">fspm.config.ConfigTest.test</text>
<text text-anchor="middle" x="287.5" y="-56.5" font-family="Helvetica,sans-Serif" font-size="10.00">_phenology</text>
</a>
</g>
</g>
<!-- Node3&#45;&gt;Node7 -->
<g id="edge7" class="edge">
<title>Node3&#45;&gt;Node7</title>
<path fill="none" stroke="midnightblue" d="M413.72,-96.94C391.85,-91.27 367.81,-85.05 346.7,-79.58"/>
<polygon fill="midnightblue" stroke="midnightblue" points="413.04,-100.38 423.59,-99.5 414.79,-93.6 413.04,-100.38"/>
</g>
<!-- Node8 -->
<g id="node8" class="node">
<title>Node8</title>
<g id="a_node8"><a xlink:href="classfspm_1_1config_1_1ConfigTest_a0ace3587e0462f748617e279d4d0c659.html#a0ace3587e0462f748617e279d4d0c659" target="_top" xlink:title=" ">
<polygon fill="none" stroke="black" points="213,-98.5 213,-128.5 362,-128.5 362,-98.5 213,-98.5"/>
<text text-anchor="start" x="221" y="-116.5" font-family="Helvetica,sans-Serif" font-size="10.00">fspm.config.ConfigTest.test</text>
<text text-anchor="middle" x="287.5" y="-105.5" font-family="Helvetica,sans-Serif" font-size="10.00">_types</text>
</a>
</g>
</g>
<!-- Node3&#45;&gt;Node8 -->
<g id="edge8" class="edge">
<title>Node3&#45;&gt;Node8</title>
<path fill="none" stroke="midnightblue" d="M394.61,-114.05C383.76,-113.99 372.75,-113.94 362.13,-113.88"/>
<polygon fill="midnightblue" stroke="midnightblue" points="394.93,-117.55 404.94,-114.1 394.96,-110.55 394.93,-117.55"/>
</g>
<!-- Node6 -->
<g id="node6" class="node">
<title>Node6</title>
<g id="a_node6"><a xlink:href="classfspm_1_1config_1_1ConfigTest_aacca92fc43946c5a3d4613a1085d59f9.html#aacca92fc43946c5a3d4613a1085d59f9" target="_top" xlink:title=" ">
<polygon fill="none" stroke="black" points="0,-6 0,-25 170,-25 170,-6 0,-6"/>
<text text-anchor="middle" x="85" y="-13" font-family="Helvetica,sans-Serif" font-size="10.00">fspm.config.ConfigTest.runMain</text>
</a>
</g>
</g>
<!-- Node5&#45;&gt;Node6 -->
<g id="edge6" class="edge">
<title>Node5&#45;&gt;Node6</title>
<path fill="none" stroke="midnightblue" d="M202.71,-15.5C191.91,-15.5 180.84,-15.5 170.02,-15.5"/>
<polygon fill="midnightblue" stroke="midnightblue" points="202.98,-19 212.98,-15.5 202.98,-12 202.98,-19"/>
</g>
</g>
</svg>
