<?xml version="1.0" encoding="UTF-8" standalone="no"?>
<!DOCTYPE svg PUBLIC "-//W3C//DTD SVG 1.1//EN"
 "http://www.w3.org/Graphics/SVG/1.1/DTD/svg11.dtd">
<!-- Generated by graphviz version 2.43.0 (0)
 -->
<!-- Title: fspm.config.adapters.JsonFileReader.parse Pages: 1 -->
<svg width="1076pt" height="382pt"
 viewBox="0.00 0.00 1076.00 382.00" xmlns="http://www.w3.org/2000/svg" xmlns:xlink="http://www.w3.org/1999/xlink">
<g id="graph0" class="graph" transform="scale(1 1) rotate(0) translate(4 378)">
<title>fspm.config.adapters.JsonFileReader.parse</title>
<!-- Node1 -->
<g id="node1" class="node">
<title>Node1</title>
<g id="a_node1"><a xlink:title="Parses and returns a ParamGroup with the parameter contents of the provided file.">
<polygon fill="#bfbfbf" stroke="black" points="0,-152.5 0,-182.5 143,-182.5 143,-152.5 0,-152.5"/>
<text text-anchor="start" x="8" y="-170.5" font-family="Helvetica,sans-Serif" font-size="10.00">fspm.config.adapters.Json</text>
<text text-anchor="middle" x="71.5" y="-159.5" font-family="Helvetica,sans-Serif" font-size="10.00">FileReader.parse</text>
</a>
</g>
</g>
<!-- Node2 -->
<g id="node2" class="node">
<title>Node2</title>
<g id="a_node2"><a xlink:href="classfspm_1_1config_1_1adapters_1_1JsonFileReader_ade656b5e0e5d950b9997ee04ec01964d.html#ade656b5e0e5d950b9997ee04ec01964d" target="_top" xlink:title="Helper function for getting root/tree node from a JSON file.">
<polygon fill="none" stroke="black" points="715.5,-147.5 715.5,-177.5 864.5,-177.5 864.5,-147.5 715.5,-147.5"/>
<text text-anchor="start" x="723.5" y="-165.5" font-family="Helvetica,sans-Serif" font-size="10.00">fspm.config.adapters.Json</text>
<text text-anchor="middle" x="790" y="-154.5" font-family="Helvetica,sans-Serif" font-size="10.00">FileReader.getTreeFromFile</text>
</a>
</g>
</g>
<!-- Node1&#45;&gt;Node2 -->
<g id="edge1" class="edge">
<title>Node1&#45;&gt;Node2</title>
<path fill="none" stroke="midnightblue" d="M126.55,-182.53C143.23,-186.53 161.76,-190.34 179,-192.5 395.54,-219.62 453.99,-228.61 670,-197.5 673.3,-197.02 701.28,-188.81 729.27,-180.46"/>
<polygon fill="midnightblue" stroke="midnightblue" points="730.56,-183.73 739.14,-177.52 728.55,-177.02 730.56,-183.73"/>
</g>
<!-- Node3 -->
<g id="node3" class="node">
<title>Node3</title>
<g id="a_node3"><a xlink:href="classfspm_1_1config_1_1params_1_1groups_1_1DocumentCategoryNameGroup_a83d422ab7ad1e384663d9b5e1e02a339.html#a83d422ab7ad1e384663d9b5e1e02a339" target="_top" xlink:title=" ">
<polygon fill="none" stroke="black" points="195,-97.5 195,-127.5 395,-127.5 395,-97.5 195,-97.5"/>
<text text-anchor="start" x="203" y="-115.5" font-family="Helvetica,sans-Serif" font-size="10.00">fspm.config.params.groups.</text>
<text text-anchor="middle" x="295" y="-104.5" font-family="Helvetica,sans-Serif" font-size="10.00">DocumentCategoryNameGroup.parse</text>
</a>
</g>
</g>
<!-- Node1&#45;&gt;Node3 -->
<g id="edge2" class="edge">
<title>Node1&#45;&gt;Node3</title>
<path fill="none" stroke="midnightblue" d="M133.03,-152.47C161.11,-145.5 194.65,-137.17 223.83,-129.92"/>
<polygon fill="midnightblue" stroke="midnightblue" points="224.69,-133.32 233.55,-127.51 223,-126.52 224.69,-133.32"/>
</g>
<!-- Node11 -->
<g id="node11" class="node">
<title>Node11</title>
<g id="a_node11"><a xlink:href="classfspm_1_1config_1_1params_1_1groups_1_1DocumentHybridCategoryNameGroup_acd5745a400ce830e7f0c66532ba6b991.html#acd5745a400ce830e7f0c66532ba6b991" target="_top" xlink:title=" ">
<polygon fill="none" stroke="black" points="179,-152.5 179,-182.5 411,-182.5 411,-152.5 179,-152.5"/>
<text text-anchor="start" x="187" y="-170.5" font-family="Helvetica,sans-Serif" font-size="10.00">fspm.config.params.groups.</text>
<text text-anchor="middle" x="295" y="-159.5" font-family="Helvetica,sans-Serif" font-size="10.00">DocumentHybridCategoryNameGroup.parse</text>
</a>
</g>
</g>
<!-- Node1&#45;&gt;Node11 -->
<g id="edge12" class="edge">
<title>Node1&#45;&gt;Node11</title>
<path fill="none" stroke="midnightblue" d="M143.19,-167.5C151.38,-167.5 159.91,-167.5 168.56,-167.5"/>
<polygon fill="midnightblue" stroke="midnightblue" points="168.76,-171 178.76,-167.5 168.76,-164 168.76,-171"/>
</g>
<!-- Node4 -->
<g id="node4" class="node">
<title>Node4</title>
<g id="a_node4"><a xlink:href="classfspm_1_1config_1_1params_1_1groups_1_1DocumentCategoryNameGroup_aa8906e479d9524281284f67fb4de0169.html#aa8906e479d9524281284f67fb4de0169" target="_top" xlink:title=" ">
<polygon fill="none" stroke="black" points="447,-37 447,-78 670,-78 670,-37 447,-37"/>
<text text-anchor="start" x="455" y="-66" font-family="Helvetica,sans-Serif" font-size="10.00">fspm.config.params.groups.</text>
<text text-anchor="start" x="455" y="-55" font-family="Helvetica,sans-Serif" font-size="10.00">DocumentCategoryNameGroup.Document</text>
<text text-anchor="middle" x="558.5" y="-44" font-family="Helvetica,sans-Serif" font-size="10.00">CategoryNameGroup</text>
</a>
</g>
</g>
<!-- Node3&#45;&gt;Node4 -->
<g id="edge3" class="edge">
<title>Node3&#45;&gt;Node4</title>
<path fill="none" stroke="midnightblue" d="M367.46,-97.47C392.78,-92.15 421.86,-86.03 449.54,-80.21"/>
<polygon fill="midnightblue" stroke="midnightblue" points="450.6,-83.56 459.66,-78.08 449.16,-76.71 450.6,-83.56"/>
</g>
<!-- Node5 -->
<g id="node5" class="node">
<title>Node5</title>
<g id="a_node5"><a xlink:href="classfspm_1_1config_1_1params_1_1structures_1_1CategoryStore_a5b1316078bc6e936f6b443d6026bbdf6.html#a5b1316078bc6e936f6b443d6026bbdf6" target="_top" xlink:title=" ">
<polygon fill="none" stroke="black" points="474.5,-97.5 474.5,-127.5 642.5,-127.5 642.5,-97.5 474.5,-97.5"/>
<text text-anchor="start" x="482.5" y="-115.5" font-family="Helvetica,sans-Serif" font-size="10.00">fspm.config.params.structures.</text>
<text text-anchor="middle" x="558.5" y="-104.5" font-family="Helvetica,sans-Serif" font-size="10.00">CategoryStore.parse</text>
</a>
</g>
</g>
<!-- Node3&#45;&gt;Node5 -->
<g id="edge4" class="edge">
<title>Node3&#45;&gt;Node5</title>
<path fill="none" stroke="midnightblue" d="M395.23,-112.5C417.79,-112.5 441.67,-112.5 463.98,-112.5"/>
<polygon fill="midnightblue" stroke="midnightblue" points="464.11,-116 474.11,-112.5 464.11,-109 464.11,-116"/>
</g>
<!-- Node5&#45;&gt;Node2 -->
<g id="edge10" class="edge">
<title>Node5&#45;&gt;Node2</title>
<path fill="none" stroke="midnightblue" d="M628.36,-127.5C654,-133.09 683.3,-139.47 709.79,-145.24"/>
<polygon fill="midnightblue" stroke="midnightblue" points="709.28,-148.71 719.79,-147.42 710.77,-141.87 709.28,-148.71"/>
</g>
<!-- Node6 -->
<g id="node6" class="node">
<title>Node6</title>
<g id="a_node6"><a xlink:href="classfspm_1_1config_1_1params_1_1structures_1_1CategoryStore_a848e878d6fbdff21c30ac6cfd8336ecb.html#a848e878d6fbdff21c30ac6cfd8336ecb" target="_top" xlink:title="Adds a new category.">
<polygon fill="none" stroke="black" points="706,-0.5 706,-30.5 874,-30.5 874,-0.5 706,-0.5"/>
<text text-anchor="start" x="714" y="-18.5" font-family="Helvetica,sans-Serif" font-size="10.00">fspm.config.params.structures.</text>
<text text-anchor="middle" x="790" y="-7.5" font-family="Helvetica,sans-Serif" font-size="10.00">CategoryStore.addCategory</text>
</a>
</g>
</g>
<!-- Node5&#45;&gt;Node6 -->
<g id="edge5" class="edge">
<title>Node5&#45;&gt;Node6</title>
<path fill="none" stroke="midnightblue" d="M642.68,-100.48C652.32,-97.14 661.66,-92.9 670,-87.5 692.38,-73 684.06,-54.65 706,-39.5 708.16,-38.01 710.41,-36.61 712.73,-35.29"/>
<polygon fill="midnightblue" stroke="midnightblue" points="714.63,-38.26 721.99,-30.64 711.48,-32.01 714.63,-38.26"/>
</g>
<!-- Node8 -->
<g id="node8" class="node">
<title>Node8</title>
<g id="a_node8"><a xlink:href="classfspm_1_1config_1_1params_1_1ParamCategory_a142ca4734877ac3625b6b95d8b81055a.html#a142ca4734877ac3625b6b95d8b81055a" target="_top" xlink:title="Adds a new Parameter to the category.">
<polygon fill="none" stroke="black" points="716.5,-98.5 716.5,-128.5 863.5,-128.5 863.5,-98.5 716.5,-98.5"/>
<text text-anchor="start" x="724.5" y="-116.5" font-family="Helvetica,sans-Serif" font-size="10.00">fspm.config.params.Param</text>
<text text-anchor="middle" x="790" y="-105.5" font-family="Helvetica,sans-Serif" font-size="10.00">Category.addParameter</text>
</a>
</g>
</g>
<!-- Node5&#45;&gt;Node8 -->
<g id="edge7" class="edge">
<title>Node5&#45;&gt;Node8</title>
<path fill="none" stroke="midnightblue" d="M642.68,-112.86C663.4,-112.95 685.62,-113.05 706.32,-113.14"/>
<polygon fill="midnightblue" stroke="midnightblue" points="706.33,-116.64 716.35,-113.18 706.36,-109.64 706.33,-116.64"/>
</g>
<!-- Node9 -->
<g id="node9" class="node">
<title>Node9</title>
<g id="a_node9"><a xlink:href="classfspm_1_1config_1_1params_1_1structures_1_1CategoryStore_a62100f06bbe486cd123f091b31f248e2.html#a62100f06bbe486cd123f091b31f248e2" target="_top" xlink:title=" ">
<polygon fill="none" stroke="black" points="706,-49.5 706,-79.5 874,-79.5 874,-49.5 706,-49.5"/>
<text text-anchor="start" x="714" y="-67.5" font-family="Helvetica,sans-Serif" font-size="10.00">fspm.config.params.structures.</text>
<text text-anchor="middle" x="790" y="-56.5" font-family="Helvetica,sans-Serif" font-size="10.00">CategoryStore.CategoryStore</text>
</a>
</g>
</g>
<!-- Node5&#45;&gt;Node9 -->
<g id="edge9" class="edge">
<title>Node5&#45;&gt;Node9</title>
<path fill="none" stroke="midnightblue" d="M631.49,-97.44C655.52,-92.42 682.47,-86.78 707.19,-81.61"/>
<polygon fill="midnightblue" stroke="midnightblue" points="708.2,-84.98 717.27,-79.5 706.77,-78.12 708.2,-84.98"/>
</g>
<!-- Node10 -->
<g id="node10" class="node">
<title>Node10</title>
<g id="a_node10"><a xlink:href="classfspm_1_1config_1_1params_1_1ParamFactory_aadcecc67803da778c697f1b6683cd5c7.html#aadcecc67803da778c697f1b6683cd5c7" target="_top" xlink:title="Returns a Parameter instance which can be used to retrieve the parsed value.">
<polygon fill="none" stroke="black" points="716.5,-196.5 716.5,-226.5 863.5,-226.5 863.5,-196.5 716.5,-196.5"/>
<text text-anchor="start" x="724.5" y="-214.5" font-family="Helvetica,sans-Serif" font-size="10.00">fspm.config.params.Param</text>
<text text-anchor="middle" x="790" y="-203.5" font-family="Helvetica,sans-Serif" font-size="10.00">Factory.parseParameter</text>
</a>
</g>
</g>
<!-- Node5&#45;&gt;Node10 -->
<g id="edge11" class="edge">
<title>Node5&#45;&gt;Node10</title>
<path fill="none" stroke="midnightblue" d="M642.78,-124.37C652.4,-127.73 661.72,-132.02 670,-137.5 692.84,-152.61 683.62,-171.72 706,-187.5 708.15,-189.01 710.39,-190.43 712.7,-191.76"/>
<polygon fill="midnightblue" stroke="midnightblue" points="711.42,-195.04 721.92,-196.46 714.6,-188.8 711.42,-195.04"/>
</g>
<!-- Node7 -->
<g id="node7" class="node">
<title>Node7</title>
<g id="a_node7"><a xlink:href="classfspm_1_1util_1_1KeyElement_a653aac67328f98c1201974736671fe0d.html#a653aac67328f98c1201974736671fe0d" target="_top" xlink:title=" ">
<polygon fill="none" stroke="black" points="910,-104 910,-123 1068,-123 1068,-104 910,-104"/>
<text text-anchor="middle" x="989" y="-111" font-family="Helvetica,sans-Serif" font-size="10.00">fspm.util.KeyElement.getKey</text>
</a>
</g>
</g>
<!-- Node6&#45;&gt;Node7 -->
<g id="edge6" class="edge">
<title>Node6&#45;&gt;Node7</title>
<path fill="none" stroke="midnightblue" d="M851.16,-30.61C858.97,-33.23 866.77,-36.2 874,-39.5 908.9,-55.45 945.45,-80.99 967.48,-97.5"/>
<polygon fill="midnightblue" stroke="midnightblue" points="965.64,-100.5 975.72,-103.77 969.88,-94.93 965.64,-100.5"/>
</g>
<!-- Node8&#45;&gt;Node7 -->
<g id="edge8" class="edge">
<title>Node8&#45;&gt;Node7</title>
<path fill="none" stroke="midnightblue" d="M863.52,-113.5C875.26,-113.5 887.53,-113.5 899.6,-113.5"/>
<polygon fill="midnightblue" stroke="midnightblue" points="899.67,-117 909.67,-113.5 899.67,-110 899.67,-117"/>
</g>
<!-- Node11&#45;&gt;Node5 -->
<g id="edge14" class="edge">
<title>Node11&#45;&gt;Node5</title>
<path fill="none" stroke="midnightblue" d="M367.46,-152.47C401.04,-145.41 441.24,-136.95 476.01,-129.64"/>
<polygon fill="midnightblue" stroke="midnightblue" points="477.06,-132.99 486.13,-127.51 475.62,-126.14 477.06,-132.99"/>
</g>
<!-- Node12 -->
<g id="node12" class="node">
<title>Node12</title>
<g id="a_node12"><a xlink:href="classfspm_1_1config_1_1params_1_1groups_1_1DocumentHybridCategoryNameGroup_adeb8b42ab881c8aa421286977876e6d2.html#adeb8b42ab881c8aa421286977876e6d2" target="_top" xlink:title=" ">
<polygon fill="none" stroke="black" points="456,-147 456,-188 661,-188 661,-147 456,-147"/>
<text text-anchor="start" x="464" y="-176" font-family="Helvetica,sans-Serif" font-size="10.00">fspm.config.params.groups.</text>
<text text-anchor="start" x="464" y="-165" font-family="Helvetica,sans-Serif" font-size="10.00">DocumentHybridCategoryNameGroup.</text>
<text text-anchor="middle" x="558.5" y="-154" font-family="Helvetica,sans-Serif" font-size="10.00">DocumentHybridCategoryNameGroup</text>
</a>
</g>
</g>
<!-- Node11&#45;&gt;Node12 -->
<g id="edge13" class="edge">
<title>Node11&#45;&gt;Node12</title>
<path fill="none" stroke="midnightblue" d="M411.08,-167.5C422.63,-167.5 434.35,-167.5 445.86,-167.5"/>
<polygon fill="midnightblue" stroke="midnightblue" points="445.92,-171 455.92,-167.5 445.92,-164 445.92,-171"/>
</g>
<!-- Node13 -->
<g id="node13" class="node">
<title>Node13</title>
<g id="a_node13"><a xlink:href="classfspm_1_1config_1_1params_1_1structures_1_1TableStore_aac5f94da214bb70c4221c30300916d03.html#aac5f94da214bb70c4221c30300916d03" target="_top" xlink:title=" ">
<polygon fill="none" stroke="black" points="474.5,-245.5 474.5,-275.5 642.5,-275.5 642.5,-245.5 474.5,-245.5"/>
<text text-anchor="start" x="482.5" y="-263.5" font-family="Helvetica,sans-Serif" font-size="10.00">fspm.config.params.structures.</text>
<text text-anchor="middle" x="558.5" y="-252.5" font-family="Helvetica,sans-Serif" font-size="10.00">TableStore.parse</text>
</a>
</g>
</g>
<!-- Node11&#45;&gt;Node13 -->
<g id="edge15" class="edge">
<title>Node11&#45;&gt;Node13</title>
<path fill="none" stroke="midnightblue" d="M338.31,-182.55C383.97,-198.79 456.74,-224.67 505.78,-242.11"/>
<polygon fill="midnightblue" stroke="midnightblue" points="504.66,-245.42 515.26,-245.48 507.01,-238.83 504.66,-245.42"/>
</g>
<!-- Node13&#45;&gt;Node2 -->
<g id="edge20" class="edge">
<title>Node13&#45;&gt;Node2</title>
<path fill="none" stroke="midnightblue" d="M638.42,-245.48C649.5,-241.57 660.37,-236.66 670,-230.5 690.99,-217.06 685.19,-201.23 706,-187.5 709.07,-185.47 712.31,-183.61 715.66,-181.89"/>
<polygon fill="midnightblue" stroke="midnightblue" points="717.15,-185.06 724.74,-177.67 714.2,-178.71 717.15,-185.06"/>
</g>
<!-- Node13&#45;&gt;Node10 -->
<g id="edge21" class="edge">
<title>Node13&#45;&gt;Node10</title>
<path fill="none" stroke="midnightblue" d="M629.92,-245.47C654.81,-240.15 682.99,-234.13 708.65,-228.66"/>
<polygon fill="midnightblue" stroke="midnightblue" points="709.67,-232.02 718.72,-226.51 708.21,-225.17 709.67,-232.02"/>
</g>
<!-- Node14 -->
<g id="node14" class="node">
<title>Node14</title>
<g id="a_node14"><a xlink:href="classfspm_1_1config_1_1params_1_1ParamTable_abf0a16a59de2f69f33eeef9b210decfe.html#abf0a16a59de2f69f33eeef9b210decfe" target="_top" xlink:title="Add a row of parameters to the table.">
<polygon fill="none" stroke="black" points="716.5,-343.5 716.5,-373.5 863.5,-373.5 863.5,-343.5 716.5,-343.5"/>
<text text-anchor="start" x="724.5" y="-361.5" font-family="Helvetica,sans-Serif" font-size="10.00">fspm.config.params.Param</text>
<text text-anchor="middle" x="790" y="-350.5" font-family="Helvetica,sans-Serif" font-size="10.00">Table.addRow</text>
</a>
</g>
</g>
<!-- Node13&#45;&gt;Node14 -->
<g id="edge16" class="edge">
<title>Node13&#45;&gt;Node14</title>
<path fill="none" stroke="midnightblue" d="M585.55,-275.53C614.33,-291.68 662.38,-317.35 706,-334.5 711.15,-336.52 716.53,-338.46 721.98,-340.3"/>
<polygon fill="midnightblue" stroke="midnightblue" points="721.23,-343.73 731.83,-343.49 723.39,-337.08 721.23,-343.73"/>
</g>
<!-- Node16 -->
<g id="node16" class="node">
<title>Node16</title>
<g id="a_node16"><a xlink:href="classfspm_1_1config_1_1params_1_1structures_1_1TableStore_a182aacc9e4bd42a1b80c0209b92f1ed2.html#a182aacc9e4bd42a1b80c0209b92f1ed2" target="_top" xlink:title=" ">
<polygon fill="none" stroke="black" points="706,-245.5 706,-275.5 874,-275.5 874,-245.5 706,-245.5"/>
<text text-anchor="start" x="714" y="-263.5" font-family="Helvetica,sans-Serif" font-size="10.00">fspm.config.params.structures.</text>
<text text-anchor="middle" x="790" y="-252.5" font-family="Helvetica,sans-Serif" font-size="10.00">TableStore.addTable</text>
</a>
</g>
</g>
<!-- Node13&#45;&gt;Node16 -->
<g id="edge18" class="edge">
<title>Node13&#45;&gt;Node16</title>
<path fill="none" stroke="midnightblue" d="M642.68,-260.5C659.84,-260.5 678.02,-260.5 695.51,-260.5"/>
<polygon fill="midnightblue" stroke="midnightblue" points="695.72,-264 705.72,-260.5 695.72,-257 695.72,-264"/>
</g>
<!-- Node17 -->
<g id="node17" class="node">
<title>Node17</title>
<g id="a_node17"><a xlink:href="classfspm_1_1config_1_1params_1_1structures_1_1TableStore_a4606966af5062817b2f00def4bb36192.html#a4606966af5062817b2f00def4bb36192" target="_top" xlink:title=" ">
<polygon fill="none" stroke="black" points="706,-294.5 706,-324.5 874,-324.5 874,-294.5 706,-294.5"/>
<text text-anchor="start" x="714" y="-312.5" font-family="Helvetica,sans-Serif" font-size="10.00">fspm.config.params.structures.</text>
<text text-anchor="middle" x="790" y="-301.5" font-family="Helvetica,sans-Serif" font-size="10.00">TableStore.TableStore</text>
</a>
</g>
</g>
<!-- Node13&#45;&gt;Node17 -->
<g id="edge22" class="edge">
<title>Node13&#45;&gt;Node17</title>
<path fill="none" stroke="midnightblue" d="M629.92,-275.53C654.81,-280.85 682.99,-286.87 708.65,-292.34"/>
<polygon fill="midnightblue" stroke="midnightblue" points="708.21,-295.83 718.72,-294.49 709.67,-288.98 708.21,-295.83"/>
</g>
<!-- Node15 -->
<g id="node15" class="node">
<title>Node15</title>
<g id="a_node15"><a xlink:href="classfspm_1_1config_1_1params_1_1ParamTable_a0cbd06e354291e5fa2f2ff1aad54d18c.html#a0cbd06e354291e5fa2f2ff1aad54d18c" target="_top" xlink:title=" ">
<polygon fill="none" stroke="black" points="915.5,-343.5 915.5,-373.5 1062.5,-373.5 1062.5,-343.5 915.5,-343.5"/>
<text text-anchor="start" x="923.5" y="-361.5" font-family="Helvetica,sans-Serif" font-size="10.00">fspm.config.params.Param</text>
<text text-anchor="middle" x="989" y="-350.5" font-family="Helvetica,sans-Serif" font-size="10.00">Table.setRow</text>
</a>
</g>
</g>
<!-- Node14&#45;&gt;Node15 -->
<g id="edge17" class="edge">
<title>Node14&#45;&gt;Node15</title>
<path fill="none" stroke="midnightblue" d="M863.52,-358.5C877.11,-358.5 891.42,-358.5 905.3,-358.5"/>
<polygon fill="midnightblue" stroke="midnightblue" points="905.31,-362 915.31,-358.5 905.31,-355 905.31,-362"/>
</g>
<!-- Node16&#45;&gt;Node7 -->
<g id="edge19" class="edge">
<title>Node16&#45;&gt;Node7</title>
<path fill="none" stroke="midnightblue" d="M856.36,-245.33C862.52,-242.81 868.51,-239.88 874,-236.5 919.01,-208.76 957.52,-158.48 976.11,-131.6"/>
<polygon fill="midnightblue" stroke="midnightblue" points="979.13,-133.39 981.83,-123.15 973.33,-129.47 979.13,-133.39"/>
</g>
</g>
</svg>
