<?xml version="1.0" encoding="UTF-8" standalone="no"?>
<!DOCTYPE svg PUBLIC "-//W3C//DTD SVG 1.1//EN"
 "http://www.w3.org/Graphics/SVG/1.1/DTD/svg11.dtd">
<!-- Generated by graphviz version 2.43.0 (0)
 -->
<!-- Title: fspm.config.params.ParamCategory.getInteger Pages: 1 -->
<svg width="592pt" height="186pt"
 viewBox="0.00 0.00 592.00 186.00" xmlns="http://www.w3.org/2000/svg" xmlns:xlink="http://www.w3.org/1999/xlink">
<g id="graph0" class="graph" transform="scale(1 1) rotate(0) translate(4 182)">
<title>fspm.config.params.ParamCategory.getInteger</title>
<!-- Node1 -->
<g id="node1" class="node">
<title>Node1</title>
<g id="a_node1"><a xlink:title=" ">
<polygon fill="#bfbfbf" stroke="black" points="437,-73.5 437,-103.5 584,-103.5 584,-73.5 437,-73.5"/>
<text text-anchor="start" x="445" y="-91.5" font-family="Helvetica,sans-Serif" font-size="10.00">fspm.config.params.Param</text>
<text text-anchor="middle" x="510.5" y="-80.5" font-family="Helvetica,sans-Serif" font-size="10.00">Category.getInteger</text>
</a>
</g>
</g>
<!-- Node2 -->
<g id="node2" class="node">
<title>Node2</title>
<g id="a_node2"><a xlink:href="classfspm_1_1config_1_1params_1_1structures_1_1CategoryStore_ac01c1aeb2e8b97d657263cac5b8b272a.html#ac01c1aeb2e8b97d657263cac5b8b272a" target="_top" xlink:title=" ">
<polygon fill="none" stroke="black" points="233,-73.5 233,-103.5 401,-103.5 401,-73.5 233,-73.5"/>
<text text-anchor="start" x="241" y="-91.5" font-family="Helvetica,sans-Serif" font-size="10.00">fspm.config.params.structures.</text>
<text text-anchor="middle" x="317" y="-80.5" font-family="Helvetica,sans-Serif" font-size="10.00">CategoryStore.getInteger</text>
</a>
</g>
</g>
<!-- Node1&#45;&gt;Node2 -->
<g id="edge1" class="edge">
<title>Node1&#45;&gt;Node2</title>
<path fill="none" stroke="midnightblue" d="M426.63,-88.5C418.2,-88.5 409.64,-88.5 401.21,-88.5"/>
<polygon fill="midnightblue" stroke="midnightblue" points="426.83,-92 436.83,-88.5 426.83,-85 426.83,-92"/>
</g>
<!-- Node3 -->
<g id="node3" class="node">
<title>Node3</title>
<g id="a_node3"><a xlink:href="classfspm_1_1config_1_1params_1_1structures_1_1CategoryStore_aa34de605ea7ee27a1c2c473dbebe272f.html#aa34de605ea7ee27a1c2c473dbebe272f" target="_top" xlink:title=" ">
<polygon fill="none" stroke="black" points="14.5,-147.5 14.5,-177.5 182.5,-177.5 182.5,-147.5 14.5,-147.5"/>
<text text-anchor="start" x="22.5" y="-165.5" font-family="Helvetica,sans-Serif" font-size="10.00">fspm.config.params.structures.</text>
<text text-anchor="middle" x="98.5" y="-154.5" font-family="Helvetica,sans-Serif" font-size="10.00">CategoryStore.getInteger</text>
</a>
</g>
</g>
<!-- Node2&#45;&gt;Node3 -->
<g id="edge2" class="edge">
<title>Node2&#45;&gt;Node3</title>
<path fill="none" stroke="midnightblue" d="M274.65,-107.75C252.04,-117.8 223.34,-129.78 197,-138.5 187.24,-141.73 176.79,-144.75 166.5,-147.48"/>
<polygon fill="midnightblue" stroke="midnightblue" points="276.26,-110.87 283.94,-103.58 273.39,-104.48 276.26,-110.87"/>
</g>
<!-- Node4 -->
<g id="node4" class="node">
<title>Node4</title>
<g id="a_node4"><a xlink:href="classfspm_1_1config_1_1tests_1_1ParamAccess_1_1SimpleTest_a4612b4a76c0c5eb3a4d9fac2c0fa2bf8.html#a4612b4a76c0c5eb3a4d9fac2c0fa2bf8" target="_top" xlink:title=" ">
<polygon fill="none" stroke="black" points="0,-98.5 0,-128.5 197,-128.5 197,-98.5 0,-98.5"/>
<text text-anchor="start" x="8" y="-116.5" font-family="Helvetica,sans-Serif" font-size="10.00">fspm.config.tests.ParamAccess.</text>
<text text-anchor="middle" x="98.5" y="-105.5" font-family="Helvetica,sans-Serif" font-size="10.00">SimpleTest.testCrossCategoryAccess</text>
</a>
</g>
</g>
<!-- Node2&#45;&gt;Node4 -->
<g id="edge3" class="edge">
<title>Node2&#45;&gt;Node4</title>
<path fill="none" stroke="midnightblue" d="M222.97,-99.24C214.44,-100.23 205.77,-101.23 197.2,-102.22"/>
<polygon fill="midnightblue" stroke="midnightblue" points="223.38,-102.72 232.91,-98.09 222.58,-95.76 223.38,-102.72"/>
</g>
<!-- Node5 -->
<g id="node5" class="node">
<title>Node5</title>
<g id="a_node5"><a xlink:href="classfspm_1_1config_1_1tests_1_1ParamAccess_1_1SimpleTest_a8a856d084a9f7cc18dd02285f8bff9b4.html#a8a856d084a9f7cc18dd02285f8bff9b4" target="_top" xlink:title=" ">
<polygon fill="none" stroke="black" points="13,-49.5 13,-79.5 184,-79.5 184,-49.5 13,-49.5"/>
<text text-anchor="start" x="21" y="-67.5" font-family="Helvetica,sans-Serif" font-size="10.00">fspm.config.tests.ParamAccess.</text>
<text text-anchor="middle" x="98.5" y="-56.5" font-family="Helvetica,sans-Serif" font-size="10.00">SimpleTest.testFlatCategories</text>
</a>
</g>
</g>
<!-- Node2&#45;&gt;Node5 -->
<g id="edge4" class="edge">
<title>Node2&#45;&gt;Node5</title>
<path fill="none" stroke="midnightblue" d="M222.71,-78.16C209.9,-76.74 196.8,-75.29 184.15,-73.88"/>
<polygon fill="midnightblue" stroke="midnightblue" points="222.59,-81.67 232.91,-79.29 223.36,-74.71 222.59,-81.67"/>
</g>
<!-- Node6 -->
<g id="node6" class="node">
<title>Node6</title>
<g id="a_node6"><a xlink:href="classfspm_1_1config_1_1tests_1_1ParamAccess_1_1SimpleTest_a6ff9e514f8013564285ff10fa6a0af6f.html#a6ff9e514f8013564285ff10fa6a0af6f" target="_top" xlink:title=" ">
<polygon fill="none" stroke="black" points="13,-0.5 13,-30.5 184,-30.5 184,-0.5 13,-0.5"/>
<text text-anchor="start" x="21" y="-18.5" font-family="Helvetica,sans-Serif" font-size="10.00">fspm.config.tests.ParamAccess.</text>
<text text-anchor="middle" x="98.5" y="-7.5" font-family="Helvetica,sans-Serif" font-size="10.00">SimpleTest.testTypes</text>
</a>
</g>
</g>
<!-- Node2&#45;&gt;Node6 -->
<g id="edge5" class="edge">
<title>Node2&#45;&gt;Node6</title>
<path fill="none" stroke="midnightblue" d="M272.85,-69.49C250.48,-60.04 222.56,-48.89 197,-40.5 186.21,-36.96 174.61,-33.6 163.31,-30.57"/>
<polygon fill="midnightblue" stroke="midnightblue" points="271.5,-72.72 282.08,-73.42 274.25,-66.28 271.5,-72.72"/>
</g>
</g>
</svg>
