<?xml version="1.0" encoding="UTF-8" standalone="no"?>
<!DOCTYPE svg PUBLIC "-//W3C//DTD SVG 1.1//EN"
 "http://www.w3.org/Graphics/SVG/1.1/DTD/svg11.dtd">
<!-- Generated by graphviz version 2.43.0 (0)
 -->
<!-- Title: fspm.config.ConfigTest.test_types Pages: 1 -->
<svg width="1308pt" height="346pt"
 viewBox="0.00 0.00 1308.00 346.00" xmlns="http://www.w3.org/2000/svg" xmlns:xlink="http://www.w3.org/1999/xlink">
<g id="graph0" class="graph" transform="scale(1 1) rotate(0) translate(4 342)">
<title>fspm.config.ConfigTest.test_types</title>
<!-- Node1 -->
<g id="node1" class="node">
<title>Node1</title>
<g id="a_node1"><a xlink:title=" ">
<polygon fill="#bfbfbf" stroke="black" points="0,-110.5 0,-140.5 149,-140.5 149,-110.5 0,-110.5"/>
<text text-anchor="start" x="8" y="-128.5" font-family="Helvetica,sans-Serif" font-size="10.00">fspm.config.ConfigTest.test</text>
<text text-anchor="middle" x="74.5" y="-117.5" font-family="Helvetica,sans-Serif" font-size="10.00">_types</text>
</a>
</g>
</g>
<!-- Node2 -->
<g id="node2" class="node">
<title>Node2</title>
<g id="a_node2"><a xlink:href="classfspm_1_1config_1_1Config_a2fb672909a4db34c8d754289f25dfc14.html#a2fb672909a4db34c8d754289f25dfc14" target="_top" xlink:title=" ">
<polygon fill="none" stroke="black" points="185,-246.5 185,-276.5 355,-276.5 355,-246.5 185,-246.5"/>
<text text-anchor="start" x="193" y="-264.5" font-family="Helvetica,sans-Serif" font-size="10.00">fspm.config.Config.setCategory</text>
<text text-anchor="middle" x="270" y="-253.5" font-family="Helvetica,sans-Serif" font-size="10.00">Context</text>
</a>
</g>
</g>
<!-- Node1&#45;&gt;Node2 -->
<g id="edge1" class="edge">
<title>Node1&#45;&gt;Node2</title>
<path fill="none" stroke="midnightblue" d="M96.95,-140.57C131.53,-164.88 199.69,-212.79 239.05,-240.45"/>
<polygon fill="midnightblue" stroke="midnightblue" points="237.26,-243.47 247.46,-246.36 241.29,-237.74 237.26,-243.47"/>
</g>
<!-- Node5 -->
<g id="node5" class="node">
<title>Node5</title>
<g id="a_node5"><a xlink:href="classfspm_1_1config_1_1Config_a97ddea0bf83d5ca1c6c42e8edf12bf7c.html#a97ddea0bf83d5ca1c6c42e8edf12bf7c" target="_top" xlink:title=" ">
<polygon fill="none" stroke="black" points="192.5,-29.5 192.5,-59.5 347.5,-59.5 347.5,-29.5 192.5,-29.5"/>
<text text-anchor="start" x="200.5" y="-47.5" font-family="Helvetica,sans-Serif" font-size="10.00">fspm.config.Config.setGroup</text>
<text text-anchor="middle" x="270" y="-36.5" font-family="Helvetica,sans-Serif" font-size="10.00">Context</text>
</a>
</g>
</g>
<!-- Node1&#45;&gt;Node5 -->
<g id="edge4" class="edge">
<title>Node1&#45;&gt;Node5</title>
<path fill="none" stroke="midnightblue" d="M111.44,-110.45C143.11,-97.2 189.4,-77.82 223.61,-63.5"/>
<polygon fill="midnightblue" stroke="midnightblue" points="225.05,-66.69 232.92,-59.6 222.35,-60.24 225.05,-66.69"/>
</g>
<!-- Node7 -->
<g id="node7" class="node">
<title>Node7</title>
<g id="a_node7"><a xlink:href="classfspm_1_1config_1_1ConfigTest_aa9e41d045f61b82c742edbd88424aff3.html#aa9e41d045f61b82c742edbd88424aff3" target="_top" xlink:title=" ">
<polygon fill="none" stroke="black" points="195.5,-110.5 195.5,-140.5 344.5,-140.5 344.5,-110.5 195.5,-110.5"/>
<text text-anchor="start" x="203.5" y="-128.5" font-family="Helvetica,sans-Serif" font-size="10.00">fspm.config.ConfigTest.test</text>
<text text-anchor="middle" x="270" y="-117.5" font-family="Helvetica,sans-Serif" font-size="10.00">_getNullAsTypes</text>
</a>
</g>
</g>
<!-- Node1&#45;&gt;Node7 -->
<g id="edge6" class="edge">
<title>Node1&#45;&gt;Node7</title>
<path fill="none" stroke="midnightblue" d="M149.21,-125.5C161.05,-125.5 173.39,-125.5 185.45,-125.5"/>
<polygon fill="midnightblue" stroke="midnightblue" points="185.5,-129 195.5,-125.5 185.5,-122 185.5,-129"/>
</g>
<!-- Node3 -->
<g id="node3" class="node">
<title>Node3</title>
<g id="a_node3"><a xlink:href="classfspm_1_1config_1_1Config_a3024c037d3ee426c410cb46ee2cd3497.html#a3024c037d3ee426c410cb46ee2cd3497" target="_top" xlink:title=" ">
<polygon fill="none" stroke="black" points="783,-307.5 783,-337.5 922,-337.5 922,-307.5 783,-307.5"/>
<text text-anchor="start" x="791" y="-325.5" font-family="Helvetica,sans-Serif" font-size="10.00">fspm.config.Config.check</text>
<text text-anchor="middle" x="852.5" y="-314.5" font-family="Helvetica,sans-Serif" font-size="10.00">GroupContextExists</text>
</a>
</g>
</g>
<!-- Node2&#45;&gt;Node3 -->
<g id="edge2" class="edge">
<title>Node2&#45;&gt;Node3</title>
<path fill="none" stroke="midnightblue" d="M335.5,-276.51C353.39,-280.25 372.88,-283.92 391,-286.5 524.34,-305.52 680.93,-315.08 772.87,-319.4"/>
<polygon fill="midnightblue" stroke="midnightblue" points="772.78,-322.9 782.93,-319.87 773.1,-315.91 772.78,-322.9"/>
</g>
<!-- Node4 -->
<g id="node4" class="node">
<title>Node4</title>
<g id="a_node4"><a xlink:href="classfspm_1_1config_1_1params_1_1ParamGroup_a4da9cac9b387da5302aacfac6552ff84.html#a4da9cac9b387da5302aacfac6552ff84" target="_top" xlink:title="Gets the category with the given key.">
<polygon fill="none" stroke="black" points="398,-246.5 398,-276.5 545,-276.5 545,-246.5 398,-246.5"/>
<text text-anchor="start" x="406" y="-264.5" font-family="Helvetica,sans-Serif" font-size="10.00">fspm.config.params.Param</text>
<text text-anchor="middle" x="471.5" y="-253.5" font-family="Helvetica,sans-Serif" font-size="10.00">Group.getCategory</text>
</a>
</g>
</g>
<!-- Node2&#45;&gt;Node4 -->
<g id="edge3" class="edge">
<title>Node2&#45;&gt;Node4</title>
<path fill="none" stroke="midnightblue" d="M355.03,-261.5C365.84,-261.5 376.91,-261.5 387.7,-261.5"/>
<polygon fill="midnightblue" stroke="midnightblue" points="387.95,-265 397.95,-261.5 387.95,-258 387.95,-265"/>
</g>
<!-- Node6 -->
<g id="node6" class="node">
<title>Node6</title>
<g id="a_node6"><a xlink:href="classfspm_1_1config_1_1Config_a8ef1527d11b0866fcd366c9fc2b84306.html#a8ef1527d11b0866fcd366c9fc2b84306" target="_top" xlink:title="Gets the parameter group with the given key.">
<polygon fill="none" stroke="black" points="394,-2 394,-21 549,-21 549,-2 394,-2"/>
<text text-anchor="middle" x="471.5" y="-9" font-family="Helvetica,sans-Serif" font-size="10.00">fspm.config.Config.getGroup</text>
</a>
</g>
</g>
<!-- Node5&#45;&gt;Node6 -->
<g id="edge5" class="edge">
<title>Node5&#45;&gt;Node6</title>
<path fill="none" stroke="midnightblue" d="M347.56,-31.84C365.75,-28.83 385.02,-25.64 402.79,-22.7"/>
<polygon fill="midnightblue" stroke="midnightblue" points="403.75,-26.09 413.05,-21 402.61,-19.18 403.75,-26.09"/>
</g>
<!-- Node8 -->
<g id="node8" class="node">
<title>Node8</title>
<g id="a_node8"><a xlink:href="classfspm_1_1config_1_1Config_ae462a8b94814530c25f796f0b4f48115.html#ae462a8b94814530c25f796f0b4f48115" target="_top" xlink:title=" ">
<polygon fill="none" stroke="black" points="391,-40 391,-59 552,-59 552,-40 391,-40"/>
<text text-anchor="middle" x="471.5" y="-47" font-family="Helvetica,sans-Serif" font-size="10.00">fspm.config.Config.getDouble</text>
</a>
</g>
</g>
<!-- Node7&#45;&gt;Node8 -->
<g id="edge7" class="edge">
<title>Node7&#45;&gt;Node8</title>
<path fill="none" stroke="midnightblue" d="M298.43,-110.44C322.31,-97.83 358.16,-80.08 391,-68.5 398.25,-65.94 405.98,-63.62 413.68,-61.54"/>
<polygon fill="midnightblue" stroke="midnightblue" points="414.55,-64.93 423.36,-59.05 412.81,-58.15 414.55,-64.93"/>
</g>
<!-- Node18 -->
<g id="node18" class="node">
<title>Node18</title>
<g id="a_node18"><a xlink:href="classfspm_1_1config_1_1Config_a5e0b8f5ad9a3ead9ec4c4ab031918b94.html#a5e0b8f5ad9a3ead9ec4c4ab031918b94" target="_top" xlink:title=" ">
<polygon fill="none" stroke="black" points="391,-192 391,-211 552,-211 552,-192 391,-192"/>
<text text-anchor="middle" x="471.5" y="-199" font-family="Helvetica,sans-Serif" font-size="10.00">fspm.config.Config.getInteger</text>
</a>
</g>
</g>
<!-- Node7&#45;&gt;Node18 -->
<g id="edge20" class="edge">
<title>Node7&#45;&gt;Node18</title>
<path fill="none" stroke="midnightblue" d="M298.43,-140.56C322.31,-153.17 358.16,-170.92 391,-182.5 398.25,-185.06 405.98,-187.38 413.68,-189.46"/>
<polygon fill="midnightblue" stroke="midnightblue" points="412.81,-192.85 423.36,-191.95 414.55,-186.07 412.81,-192.85"/>
</g>
<!-- Node20 -->
<g id="node20" class="node">
<title>Node20</title>
<g id="a_node20"><a xlink:href="classfspm_1_1config_1_1Config_a3be13c8aecc91ab1cd95692ec65df305.html#a3be13c8aecc91ab1cd95692ec65df305" target="_top" xlink:title=" ">
<polygon fill="none" stroke="black" points="394,-154 394,-173 549,-173 549,-154 394,-154"/>
<text text-anchor="middle" x="471.5" y="-161" font-family="Helvetica,sans-Serif" font-size="10.00">fspm.config.Config.getString</text>
</a>
</g>
</g>
<!-- Node7&#45;&gt;Node20 -->
<g id="edge25" class="edge">
<title>Node7&#45;&gt;Node20</title>
<path fill="none" stroke="midnightblue" d="M344.72,-139.54C366.37,-143.67 389.79,-148.13 410.47,-152.07"/>
<polygon fill="midnightblue" stroke="midnightblue" points="409.91,-155.52 420.39,-153.96 411.22,-148.65 409.91,-155.52"/>
</g>
<!-- Node22 -->
<g id="node22" class="node">
<title>Node22</title>
<g id="a_node22"><a xlink:href="classfspm_1_1config_1_1Config_a23eaad13093f0089ec76d726607956b5.html#a23eaad13093f0089ec76d726607956b5" target="_top" xlink:title=" ">
<polygon fill="none" stroke="black" points="402.5,-116 402.5,-135 540.5,-135 540.5,-116 402.5,-116"/>
<text text-anchor="middle" x="471.5" y="-123" font-family="Helvetica,sans-Serif" font-size="10.00">fspm.config.Config.isNull</text>
</a>
</g>
</g>
<!-- Node7&#45;&gt;Node22 -->
<g id="edge30" class="edge">
<title>Node7&#45;&gt;Node22</title>
<path fill="none" stroke="midnightblue" d="M344.72,-125.5C360.2,-125.5 376.58,-125.5 392.22,-125.5"/>
<polygon fill="midnightblue" stroke="midnightblue" points="392.37,-129 402.37,-125.5 392.37,-122 392.37,-129"/>
</g>
<!-- Node23 -->
<g id="node23" class="node">
<title>Node23</title>
<g id="a_node23"><a xlink:href="classfspm_1_1config_1_1ConfigTest_a1f7ba3e24b4e27a319db83eb75e9f691.html#a1f7ba3e24b4e27a319db83eb75e9f691" target="_top" xlink:title=" ">
<polygon fill="none" stroke="black" points="391,-78 391,-97 552,-97 552,-78 391,-78"/>
<text text-anchor="middle" x="471.5" y="-85" font-family="Helvetica,sans-Serif" font-size="10.00">fspm.config.ConfigTest.println</text>
</a>
</g>
</g>
<!-- Node7&#45;&gt;Node23 -->
<g id="edge33" class="edge">
<title>Node7&#45;&gt;Node23</title>
<path fill="none" stroke="midnightblue" d="M344.72,-111.46C366.37,-107.33 389.79,-102.87 410.47,-98.93"/>
<polygon fill="midnightblue" stroke="midnightblue" points="411.22,-102.35 420.39,-97.04 409.91,-95.48 411.22,-102.35"/>
</g>
<!-- Node9 -->
<g id="node9" class="node">
<title>Node9</title>
<g id="a_node9"><a xlink:href="classfspm_1_1config_1_1Config_abce61aaf26cf14b4ae2204ff22c27b57.html#abce61aaf26cf14b4ae2204ff22c27b57" target="_top" xlink:title=" ">
<polygon fill="none" stroke="black" points="592,-186.5 592,-216.5 731,-216.5 731,-186.5 592,-186.5"/>
<text text-anchor="start" x="600" y="-204.5" font-family="Helvetica,sans-Serif" font-size="10.00">fspm.config.Config.check</text>
<text text-anchor="middle" x="661.5" y="-193.5" font-family="Helvetica,sans-Serif" font-size="10.00">ContextsExists</text>
</a>
</g>
</g>
<!-- Node8&#45;&gt;Node9 -->
<g id="edge8" class="edge">
<title>Node8&#45;&gt;Node9</title>
<path fill="none" stroke="midnightblue" d="M537.86,-59.05C543.01,-61.55 547.82,-64.66 552,-68.5 589.57,-103.02 551.94,-141.41 588,-177.5 589.08,-178.58 590.22,-179.62 591.39,-180.61"/>
<polygon fill="midnightblue" stroke="midnightblue" points="589.53,-183.58 599.72,-186.48 593.56,-177.85 589.53,-183.58"/>
</g>
<!-- Node15 -->
<g id="node15" class="node">
<title>Node15</title>
<g id="a_node15"><a xlink:href="classfspm_1_1config_1_1params_1_1ParamCategory_ad9163381c1dfed699d3d74b2d36c1893.html#ad9163381c1dfed699d3d74b2d36c1893" target="_top" xlink:title=" ">
<polygon fill="none" stroke="black" points="588,-0.5 588,-30.5 735,-30.5 735,-0.5 588,-0.5"/>
<text text-anchor="start" x="596" y="-18.5" font-family="Helvetica,sans-Serif" font-size="10.00">fspm.config.params.Param</text>
<text text-anchor="middle" x="661.5" y="-7.5" font-family="Helvetica,sans-Serif" font-size="10.00">Category.getDouble</text>
</a>
</g>
</g>
<!-- Node8&#45;&gt;Node15 -->
<g id="edge16" class="edge">
<title>Node8&#45;&gt;Node15</title>
<path fill="none" stroke="midnightblue" d="M525.12,-39.98C541.52,-37.02 560.03,-33.67 577.97,-30.43"/>
<polygon fill="midnightblue" stroke="midnightblue" points="578.65,-33.86 587.87,-28.64 577.4,-26.97 578.65,-33.86"/>
</g>
<!-- Node9&#45;&gt;Node3 -->
<g id="edge9" class="edge">
<title>Node9&#45;&gt;Node3</title>
<path fill="none" stroke="midnightblue" d="M675.33,-216.56C694.2,-237.8 731.52,-276.44 771,-298.5 774.25,-300.31 777.64,-302.01 781.13,-303.58"/>
<polygon fill="midnightblue" stroke="midnightblue" points="779.95,-306.88 790.53,-307.48 782.64,-300.41 779.95,-306.88"/>
</g>
<!-- Node10 -->
<g id="node10" class="node">
<title>Node10</title>
<g id="a_node10"><a xlink:href="classfspm_1_1config_1_1params_1_1ParamCategory_a4e9b4d10f0f293ae181dd272d302d9b4.html#a4e9b4d10f0f293ae181dd272d302d9b4" target="_top" xlink:title="Get generic Parameter with the given key.">
<polygon fill="none" stroke="black" points="970,-214.5 970,-244.5 1117,-244.5 1117,-214.5 970,-214.5"/>
<text text-anchor="start" x="978" y="-232.5" font-family="Helvetica,sans-Serif" font-size="10.00">fspm.config.params.Param</text>
<text text-anchor="middle" x="1043.5" y="-221.5" font-family="Helvetica,sans-Serif" font-size="10.00">Category.get</text>
</a>
</g>
</g>
<!-- Node9&#45;&gt;Node10 -->
<g id="edge10" class="edge">
<title>Node9&#45;&gt;Node10</title>
<path fill="none" stroke="midnightblue" d="M731.08,-207.32C744.32,-208.41 758.09,-209.51 771,-210.5 834.29,-215.34 905.92,-220.33 959.71,-223.98"/>
<polygon fill="midnightblue" stroke="midnightblue" points="959.67,-227.49 969.88,-224.67 960.14,-220.51 959.67,-227.49"/>
</g>
<!-- Node12 -->
<g id="node12" class="node">
<title>Node12</title>
<g id="a_node12"><a xlink:href="classfspm_1_1config_1_1params_1_1ParamGroup_a4ac641bb901b13ad2186c3d4fe0a75c9.html#a4ac641bb901b13ad2186c3d4fe0a75c9" target="_top" xlink:title=" ">
<polygon fill="none" stroke="black" points="771.5,-258.5 771.5,-288.5 933.5,-288.5 933.5,-258.5 771.5,-258.5"/>
<text text-anchor="start" x="779.5" y="-276.5" font-family="Helvetica,sans-Serif" font-size="10.00">fspm.config.params.Param</text>
<text text-anchor="middle" x="852.5" y="-265.5" font-family="Helvetica,sans-Serif" font-size="10.00">Group.getCategoryWithParam</text>
</a>
</g>
</g>
<!-- Node9&#45;&gt;Node12 -->
<g id="edge12" class="edge">
<title>Node9&#45;&gt;Node12</title>
<path fill="none" stroke="midnightblue" d="M701.12,-216.59C721.82,-224.64 747.77,-234.68 771,-243.5 780.83,-247.23 791.34,-251.18 801.43,-254.95"/>
<polygon fill="midnightblue" stroke="midnightblue" points="800.33,-258.28 810.92,-258.49 802.78,-251.72 800.33,-258.28"/>
</g>
<!-- Node14 -->
<g id="node14" class="node">
<title>Node14</title>
<g id="a_node14"><a xlink:href="classfspm_1_1config_1_1Config_aa3784bee8f29e4340b60735055eb41a6.html#aa3784bee8f29e4340b60735055eb41a6" target="_top" xlink:title=" ">
<polygon fill="none" stroke="black" points="771,-170.5 771,-200.5 934,-200.5 934,-170.5 771,-170.5"/>
<text text-anchor="start" x="779" y="-188.5" font-family="Helvetica,sans-Serif" font-size="10.00">fspm.config.Config.isCategory</text>
<text text-anchor="middle" x="852.5" y="-177.5" font-family="Helvetica,sans-Serif" font-size="10.00">ContextExists</text>
</a>
</g>
</g>
<!-- Node9&#45;&gt;Node14 -->
<g id="edge15" class="edge">
<title>Node9&#45;&gt;Node14</title>
<path fill="none" stroke="midnightblue" d="M731,-195.7C740.67,-194.88 750.73,-194.03 760.73,-193.18"/>
<polygon fill="midnightblue" stroke="midnightblue" points="761.03,-196.67 770.7,-192.34 760.44,-189.7 761.03,-196.67"/>
</g>
<!-- Node11 -->
<g id="node11" class="node">
<title>Node11</title>
<g id="a_node11"><a xlink:href="classfspm_1_1config_1_1params_1_1ParamCategory_aac7a0ce7ab7fafe895ba689f644818ab.html#aac7a0ce7ab7fafe895ba689f644818ab" target="_top" xlink:title=" ">
<polygon fill="none" stroke="black" points="1153,-214.5 1153,-244.5 1300,-244.5 1300,-214.5 1153,-214.5"/>
<text text-anchor="start" x="1161" y="-232.5" font-family="Helvetica,sans-Serif" font-size="10.00">fspm.config.params.Param</text>
<text text-anchor="middle" x="1226.5" y="-221.5" font-family="Helvetica,sans-Serif" font-size="10.00">Category.getKey</text>
</a>
</g>
</g>
<!-- Node10&#45;&gt;Node11 -->
<g id="edge11" class="edge">
<title>Node10&#45;&gt;Node11</title>
<path fill="none" stroke="midnightblue" d="M1117.08,-229.5C1125.56,-229.5 1134.26,-229.5 1142.87,-229.5"/>
<polygon fill="midnightblue" stroke="midnightblue" points="1142.91,-233 1152.91,-229.5 1142.91,-226 1142.91,-233"/>
</g>
<!-- Node12&#45;&gt;Node10 -->
<g id="edge13" class="edge">
<title>Node12&#45;&gt;Node10</title>
<path fill="none" stroke="midnightblue" d="M918.01,-258.48C934.04,-254.75 951.36,-250.72 967.83,-246.88"/>
<polygon fill="midnightblue" stroke="midnightblue" points="969.01,-250.2 977.96,-244.53 967.42,-243.38 969.01,-250.2"/>
</g>
<!-- Node13 -->
<g id="node13" class="node">
<title>Node13</title>
<g id="a_node13"><a xlink:href="classfspm_1_1config_1_1params_1_1ParamGroup_a87d9e7182014d1d981c4067083815878.html#a87d9e7182014d1d981c4067083815878" target="_top" xlink:title=" ">
<polygon fill="none" stroke="black" points="970,-263.5 970,-293.5 1117,-293.5 1117,-263.5 970,-263.5"/>
<text text-anchor="start" x="978" y="-281.5" font-family="Helvetica,sans-Serif" font-size="10.00">fspm.config.params.Param</text>
<text text-anchor="middle" x="1043.5" y="-270.5" font-family="Helvetica,sans-Serif" font-size="10.00">Group.getKey</text>
</a>
</g>
</g>
<!-- Node12&#45;&gt;Node13 -->
<g id="edge14" class="edge">
<title>Node12&#45;&gt;Node13</title>
<path fill="none" stroke="midnightblue" d="M933.65,-275.62C942.26,-275.85 951.03,-276.08 959.66,-276.31"/>
<polygon fill="midnightblue" stroke="midnightblue" points="959.63,-279.81 969.72,-276.57 959.82,-272.81 959.63,-279.81"/>
</g>
<!-- Node16 -->
<g id="node16" class="node">
<title>Node16</title>
<g id="a_node16"><a xlink:href="classfspm_1_1config_1_1params_1_1ParamCategory_aa2e79c693bd5784e3397c328d6363ba9.html#aa2e79c693bd5784e3397c328d6363ba9" target="_top" xlink:title="Helper method to get the parameter of a given key, if it is an instance of the Parameter type class p...">
<polygon fill="none" stroke="black" points="970,-66.5 970,-96.5 1117,-96.5 1117,-66.5 970,-66.5"/>
<text text-anchor="start" x="978" y="-84.5" font-family="Helvetica,sans-Serif" font-size="10.00">fspm.config.params.Param</text>
<text text-anchor="middle" x="1043.5" y="-73.5" font-family="Helvetica,sans-Serif" font-size="10.00">Category.getIfInstanceOf</text>
</a>
</g>
</g>
<!-- Node15&#45;&gt;Node16 -->
<g id="edge17" class="edge">
<title>Node15&#45;&gt;Node16</title>
<path fill="none" stroke="midnightblue" d="M735.26,-13.97C790.53,-14.39 868.01,-18.4 934,-34.5 958.9,-40.58 985.33,-51.91 1005.86,-61.92"/>
<polygon fill="midnightblue" stroke="midnightblue" points="1004.35,-65.08 1014.86,-66.41 1007.47,-58.81 1004.35,-65.08"/>
</g>
<!-- Node17 -->
<g id="node17" class="node">
<title>Node17</title>
<g id="a_node17"><a xlink:href="classfspm_1_1config_1_1params_1_1ParamCategory_a9df71240a840aa7875fdd8834c4cdbde.html#a9df71240a840aa7875fdd8834c4cdbde" target="_top" xlink:title="Check and return if is NullParam.">
<polygon fill="none" stroke="black" points="779,-44.5 779,-74.5 926,-74.5 926,-44.5 779,-44.5"/>
<text text-anchor="start" x="787" y="-62.5" font-family="Helvetica,sans-Serif" font-size="10.00">fspm.config.params.Param</text>
<text text-anchor="middle" x="852.5" y="-51.5" font-family="Helvetica,sans-Serif" font-size="10.00">Category.isNull</text>
</a>
</g>
</g>
<!-- Node15&#45;&gt;Node17 -->
<g id="edge18" class="edge">
<title>Node15&#45;&gt;Node17</title>
<path fill="none" stroke="midnightblue" d="M727.01,-30.52C743.04,-34.25 760.36,-38.28 776.83,-42.12"/>
<polygon fill="midnightblue" stroke="midnightblue" points="776.42,-45.62 786.96,-44.47 778.01,-38.8 776.42,-45.62"/>
</g>
<!-- Node17&#45;&gt;Node16 -->
<g id="edge19" class="edge">
<title>Node17&#45;&gt;Node16</title>
<path fill="none" stroke="midnightblue" d="M926.03,-67.94C937.03,-69.22 948.45,-70.55 959.65,-71.86"/>
<polygon fill="midnightblue" stroke="midnightblue" points="959.51,-75.36 969.85,-73.04 960.32,-68.41 959.51,-75.36"/>
</g>
<!-- Node18&#45;&gt;Node9 -->
<g id="edge21" class="edge">
<title>Node18&#45;&gt;Node9</title>
<path fill="none" stroke="midnightblue" d="M552.23,-201.5C562.03,-201.5 572.05,-201.5 581.84,-201.5"/>
<polygon fill="midnightblue" stroke="midnightblue" points="581.94,-205 591.94,-201.5 581.94,-198 581.94,-205"/>
</g>
<!-- Node19 -->
<g id="node19" class="node">
<title>Node19</title>
<g id="a_node19"><a xlink:href="classfspm_1_1config_1_1params_1_1ParamCategory_a176eab656e051784323f2132a4994fc6.html#a176eab656e051784323f2132a4994fc6" target="_top" xlink:title=" ">
<polygon fill="none" stroke="black" points="588,-137.5 588,-167.5 735,-167.5 735,-137.5 588,-137.5"/>
<text text-anchor="start" x="596" y="-155.5" font-family="Helvetica,sans-Serif" font-size="10.00">fspm.config.params.Param</text>
<text text-anchor="middle" x="661.5" y="-144.5" font-family="Helvetica,sans-Serif" font-size="10.00">Category.getInteger</text>
</a>
</g>
</g>
<!-- Node18&#45;&gt;Node19 -->
<g id="edge22" class="edge">
<title>Node18&#45;&gt;Node19</title>
<path fill="none" stroke="midnightblue" d="M513.83,-191.91C526.13,-188.98 539.63,-185.69 552,-182.5 566.9,-178.66 582.91,-174.34 597.92,-170.21"/>
<polygon fill="midnightblue" stroke="midnightblue" points="598.92,-173.56 607.62,-167.52 597.05,-166.82 598.92,-173.56"/>
</g>
<!-- Node19&#45;&gt;Node16 -->
<g id="edge23" class="edge">
<title>Node19&#45;&gt;Node16</title>
<path fill="none" stroke="midnightblue" d="M735.02,-141.4C789.83,-132.72 866.84,-119.91 934,-106.5 945.7,-104.16 958.06,-101.5 970.09,-98.8"/>
<polygon fill="midnightblue" stroke="midnightblue" points="971.12,-102.16 980.1,-96.54 969.57,-95.33 971.12,-102.16"/>
</g>
<!-- Node19&#45;&gt;Node17 -->
<g id="edge24" class="edge">
<title>Node19&#45;&gt;Node17</title>
<path fill="none" stroke="midnightblue" d="M712.57,-137.49C720.19,-134.76 727.88,-131.74 735,-128.5 765.22,-114.74 797.56,-95.16 820.48,-80.37"/>
<polygon fill="midnightblue" stroke="midnightblue" points="822.62,-83.15 829.08,-74.76 818.79,-77.29 822.62,-83.15"/>
</g>
<!-- Node20&#45;&gt;Node9 -->
<g id="edge26" class="edge">
<title>Node20&#45;&gt;Node9</title>
<path fill="none" stroke="midnightblue" d="M519.94,-173.09C538.72,-176.89 560.82,-181.35 581.86,-185.61"/>
<polygon fill="midnightblue" stroke="midnightblue" points="581.27,-189.06 591.76,-187.61 582.65,-182.19 581.27,-189.06"/>
</g>
<!-- Node21 -->
<g id="node21" class="node">
<title>Node21</title>
<g id="a_node21"><a xlink:href="classfspm_1_1config_1_1params_1_1ParamCategory_a18b0a3b2a74f69aa936eaecf40927c5a.html#a18b0a3b2a74f69aa936eaecf40927c5a" target="_top" xlink:title=" ">
<polygon fill="none" stroke="black" points="588,-88.5 588,-118.5 735,-118.5 735,-88.5 588,-88.5"/>
<text text-anchor="start" x="596" y="-106.5" font-family="Helvetica,sans-Serif" font-size="10.00">fspm.config.params.Param</text>
<text text-anchor="middle" x="661.5" y="-95.5" font-family="Helvetica,sans-Serif" font-size="10.00">Category.getString</text>
</a>
</g>
</g>
<!-- Node20&#45;&gt;Node21 -->
<g id="edge27" class="edge">
<title>Node20&#45;&gt;Node21</title>
<path fill="none" stroke="midnightblue" d="M518.73,-153.97C529.75,-151.28 541.38,-148.09 552,-144.5 568.58,-138.89 571.71,-134.92 588,-128.5 593.56,-126.31 599.39,-124.12 605.23,-122"/>
<polygon fill="midnightblue" stroke="midnightblue" points="606.79,-125.16 615.03,-118.51 604.44,-118.57 606.79,-125.16"/>
</g>
<!-- Node21&#45;&gt;Node16 -->
<g id="edge28" class="edge">
<title>Node21&#45;&gt;Node16</title>
<path fill="none" stroke="midnightblue" d="M735.32,-99.28C799.48,-95.57 892.89,-90.16 959.83,-86.29"/>
<polygon fill="midnightblue" stroke="midnightblue" points="960.15,-89.77 969.93,-85.7 959.74,-82.79 960.15,-89.77"/>
</g>
<!-- Node21&#45;&gt;Node17 -->
<g id="edge29" class="edge">
<title>Node21&#45;&gt;Node17</title>
<path fill="none" stroke="midnightblue" d="M727.01,-88.48C743.04,-84.75 760.36,-80.72 776.83,-76.88"/>
<polygon fill="midnightblue" stroke="midnightblue" points="778.01,-80.2 786.96,-74.53 776.42,-73.38 778.01,-80.2"/>
</g>
<!-- Node22&#45;&gt;Node9 -->
<g id="edge31" class="edge">
<title>Node22&#45;&gt;Node9</title>
<path fill="none" stroke="midnightblue" d="M528.56,-135.09C536.68,-137.55 544.73,-140.64 552,-144.5 571.17,-154.68 569.28,-166.51 588,-177.5 590.86,-179.18 593.85,-180.76 596.92,-182.24"/>
<polygon fill="midnightblue" stroke="midnightblue" points="595.76,-185.56 606.32,-186.41 598.6,-179.16 595.76,-185.56"/>
</g>
<!-- Node22&#45;&gt;Node17 -->
<g id="edge32" class="edge">
<title>Node22&#45;&gt;Node17</title>
<path fill="none" stroke="midnightblue" d="M525.71,-115.98C534.7,-113.48 543.78,-110.36 552,-106.5 570.1,-98 569.28,-86.54 588,-79.5 645.79,-57.77 715.64,-53.36 768.9,-54.07"/>
<polygon fill="midnightblue" stroke="midnightblue" points="768.92,-57.57 778.98,-54.26 769.05,-50.57 768.92,-57.57"/>
</g>
</g>
</svg>
