<?xml version="1.0" encoding="UTF-8" standalone="no"?>
<!DOCTYPE svg PUBLIC "-//W3C//DTD SVG 1.1//EN"
 "http://www.w3.org/Graphics/SVG/1.1/DTD/svg11.dtd">
<!-- Generated by graphviz version 2.43.0 (0)
 -->
<!-- Title: io.github.fruitcropxl.config.params.structures.TableStore Pages: 1 -->
<svg width="653pt" height="346pt"
 viewBox="0.00 0.00 652.50 346.00" xmlns="http://www.w3.org/2000/svg" xmlns:xlink="http://www.w3.org/1999/xlink">
<g id="graph0" class="graph" transform="scale(1 1) rotate(0) translate(4 342)">
<title>io.github.fruitcropxl.config.params.structures.TableStore</title>
<!-- Node1 -->
<g id="Node000001" class="node">
<title>Node1</title>
<g id="a_Node000001"><a xlink:title="Represents the collection of tables in a document.">
<polygon fill="#999999" stroke="transparent" points="386,-120 153,-120 153,0 386,0 386,-120"/>
<text text-anchor="start" x="158.5" y="-108" font-family="Helvetica,sans-Serif" font-size="10.00">io.github.fruitcropxl.config.params.structures.</text>
<text text-anchor="start" x="244" y="-97" font-family="Helvetica,sans-Serif" font-size="10.00">TableStore</text>
<text text-anchor="start" x="268" y="-82" font-family="Helvetica,sans-Serif" font-size="10.00"> </text>
<text text-anchor="start" x="195.5" y="-67" font-family="Helvetica,sans-Serif" font-size="10.00">+</text>
<text text-anchor="start" x="246.5" y="-67" font-family="Helvetica,sans-Serif" font-size="10.00">TableStore()</text>
<text text-anchor="start" x="195.5" y="-52" font-family="Helvetica,sans-Serif" font-size="10.00">+</text>
<text text-anchor="start" x="246.5" y="-52" font-family="Helvetica,sans-Serif" font-size="10.00">addTable()</text>
<text text-anchor="start" x="195.5" y="-37" font-family="Helvetica,sans-Serif" font-size="10.00">+</text>
<text text-anchor="start" x="246.5" y="-37" font-family="Helvetica,sans-Serif" font-size="10.00">getTable()</text>
<text text-anchor="start" x="195.5" y="-22" font-family="Helvetica,sans-Serif" font-size="10.00">+</text>
<text text-anchor="start" x="246.5" y="-22" font-family="Helvetica,sans-Serif" font-size="10.00">toString()</text>
<text text-anchor="start" x="195.5" y="-7" font-family="Helvetica,sans-Serif" font-size="10.00">+</text>
<text text-anchor="start" x="246.5" y="-7" font-family="Helvetica,sans-Serif" font-size="10.00">parse()</text>
<polygon fill="#666666" stroke="#666666" points="153.5,-92 153.5,-92 386.5,-92 386.5,-92 153.5,-92"/>
<polygon fill="#666666" stroke="#666666" points="153.5,-77 153.5,-77 386.5,-77 386.5,-77 153.5,-77"/>
<polygon fill="none" stroke="#666666" points="153,0 153,-120 386,-120 386,0 153,0"/>
</a>
</g>
</g>
<!-- Node2 -->
<g id="Node000002" class="node">
<title>Node2</title>
<g id="a_Node000002"><a xlink:href="classio_1_1github_1_1fruitcropxl_1_1config_1_1params_1_1structures_1_1ParamStructure.html" target="_top" xlink:title="Represents a structure found in ParamGroups that store parameters.">
<polygon fill="white" stroke="transparent" points="233,-242 0,-242 0,-167 233,-167 233,-242"/>
<text text-anchor="start" x="5.5" y="-229.5" font-family="Helvetica,sans-Serif" font-size="10.00">io.github.fruitcropxl.config.params.structures.</text>
<text text-anchor="start" x="79" y="-218.5" font-family="Helvetica,sans-Serif" font-size="10.00">ParamStructure</text>
<text text-anchor="start" x="115" y="-203.5" font-family="Helvetica,sans-Serif" font-size="10.00"> </text>
<text text-anchor="start" x="36.5" y="-188.5" font-family="Helvetica,sans-Serif" font-size="10.00">+</text>
<text text-anchor="start" x="81.5" y="-188.5" font-family="Helvetica,sans-Serif" font-size="10.00">ParamStructure()</text>
<text text-anchor="start" x="36.5" y="-173.5" font-family="Helvetica,sans-Serif" font-size="10.00">+</text>
<text text-anchor="start" x="81.5" y="-173.5" font-family="Helvetica,sans-Serif" font-size="10.00">getGroupKey()</text>
<polygon fill="#666666" stroke="#666666" points="0.5,-213.5 0.5,-213.5 233.5,-213.5 233.5,-213.5 0.5,-213.5"/>
<polygon fill="#666666" stroke="#666666" points="0.5,-198.5 0.5,-198.5 233.5,-198.5 233.5,-198.5 0.5,-198.5"/>
<polygon fill="none" stroke="#666666" points="0,-167 0,-242 233,-242 233,-167 0,-167"/>
</a>
</g>
</g>
<!-- Node2&#45;&gt;Node1 -->
<g id="edge1_Node000001_Node000002" class="edge">
<title>Node2&#45;&gt;Node1</title>
<g id="a_edge1_Node000001_Node000002"><a xlink:title=" ">
<path fill="none" stroke="#63b8ff" d="M163.59,-159.64C176.95,-147.2 191.73,-133.43 205.9,-120.24"/>
<polygon fill="none" stroke="#63b8ff" points="160.83,-157.43 155.9,-166.8 165.6,-162.55 160.83,-157.43"/>
</a>
</g>
</g>
<!-- Node3 -->
<g id="Node000003" class="node">
<title>Node3</title>
<g id="a_Node000003"><a xlink:href="classSerializable.html" target="_top" xlink:title=" ">
<polygon fill="white" stroke="transparent" points="150.5,-338 82.5,-338 82.5,-289 150.5,-289 150.5,-338"/>
<text text-anchor="start" x="87.5" y="-325.5" font-family="Helvetica,sans-Serif" font-size="10.00">Serializable</text>
<text text-anchor="start" x="114.5" y="-310.5" font-family="Helvetica,sans-Serif" font-size="10.00"> </text>
<text text-anchor="start" x="114.5" y="-295.5" font-family="Helvetica,sans-Serif" font-size="10.00"> </text>
<polygon fill="#666666" stroke="#666666" points="82.5,-320.5 82.5,-320.5 150.5,-320.5 150.5,-320.5 82.5,-320.5"/>
<polygon fill="#666666" stroke="#666666" points="82.5,-305.5 82.5,-305.5 150.5,-305.5 150.5,-305.5 82.5,-305.5"/>
<polygon fill="none" stroke="#666666" points="82.5,-289 82.5,-338 150.5,-338 150.5,-289 82.5,-289"/>
</a>
</g>
</g>
<!-- Node3&#45;&gt;Node2 -->
<g id="edge2_Node000002_Node000003" class="edge">
<title>Node3&#45;&gt;Node2</title>
<g id="a_edge2_Node000002_Node000003"><a xlink:title=" ">
<path fill="none" stroke="#63b8ff" d="M116.5,-278.59C116.5,-267.01 116.5,-254.01 116.5,-242.22"/>
<polygon fill="none" stroke="#63b8ff" points="113,-278.75 116.5,-288.75 120,-278.75 113,-278.75"/>
</a>
</g>
</g>
<!-- Node4 -->
<g id="Node000004" class="node">
<title>Node4</title>
<g id="a_Node000004"><a xlink:title=" ">
<polygon fill="white" stroke="transparent" points="232,-338 193,-338 193,-289 232,-289 232,-338"/>
<text text-anchor="start" x="198.5" y="-325.5" font-family="Helvetica,sans-Serif" font-size="10.00">String</text>
<text text-anchor="start" x="211" y="-310.5" font-family="Helvetica,sans-Serif" font-size="10.00"> </text>
<text text-anchor="start" x="211" y="-295.5" font-family="Helvetica,sans-Serif" font-size="10.00"> </text>
<polygon fill="#666666" stroke="#666666" points="193.5,-320.5 193.5,-320.5 232.5,-320.5 232.5,-320.5 193.5,-320.5"/>
<polygon fill="#666666" stroke="#666666" points="193.5,-305.5 193.5,-305.5 232.5,-305.5 232.5,-305.5 193.5,-305.5"/>
<polygon fill="none" stroke="#666666" points="193,-289 193,-338 232,-338 232,-289 193,-289"/>
</a>
</g>
</g>
<!-- Node4&#45;&gt;Node1 -->
<g id="edge4_Node000001_Node000004" class="edge">
<title>Node4&#45;&gt;Node1</title>
<g id="a_edge4_Node000001_Node000004"><a xlink:title=" ">
<path fill="none" stroke="#63b8ff" d="M222.97,-288.88C225.49,-283.06 228.14,-276.82 230.5,-271 235.69,-258.23 237.98,-255.33 241.5,-242 250.89,-206.4 257.52,-165.98 261.96,-132.38"/>
<polygon fill="none" stroke="#63b8ff" points="261.97,-132.24 258.77,-125.78 263.49,-120.33 266.7,-126.79 261.97,-132.24"/>
</a>
</g>
<text text-anchor="middle" x="312" y="-202" font-family="Helvetica,sans-Serif" font-size="10.00" fill="grey"> +ROW_PREFIX_FIELD</text>
</g>
<!-- Node4&#45;&gt;Node2 -->
<g id="edge3_Node000002_Node000004" class="edge">
<title>Node4&#45;&gt;Node2</title>
<g id="a_edge3_Node000002_Node000004"><a xlink:title=" ">
<path fill="none" stroke="#63b8ff" d="M192.84,-290.59C182.68,-279.26 169.88,-264.99 157.68,-251.39"/>
<polygon fill="none" stroke="#63b8ff" points="157.38,-251.06 150.39,-249.27 149.36,-242.13 156.35,-243.92 157.38,-251.06"/>
</a>
</g>
<text text-anchor="middle" x="200" y="-263" font-family="Helvetica,sans-Serif" font-size="10.00" fill="grey"> &#45;groupKey</text>
</g>
<!-- Node5 -->
<g id="Node000005" class="node">
<title>Node5</title>
<g id="a_Node000005"><a xlink:title=" ">
<polygon fill="white" stroke="transparent" points="644.5,-234.5 396.5,-234.5 396.5,-174.5 644.5,-174.5 644.5,-234.5"/>
<text text-anchor="start" x="401.5" y="-222.5" font-family="Helvetica,sans-Serif" font-size="10.00">Map&lt; String, io.github.fruitcropxl.config.params.</text>
<text text-anchor="start" x="486.5" y="-211.5" font-family="Helvetica,sans-Serif" font-size="10.00">ParamTable &gt;</text>
<text text-anchor="start" x="518.5" y="-196.5" font-family="Helvetica,sans-Serif" font-size="10.00"> </text>
<text text-anchor="start" x="518.5" y="-181.5" font-family="Helvetica,sans-Serif" font-size="10.00"> </text>
<polygon fill="#666666" stroke="#666666" points="396.5,-206.5 396.5,-206.5 644.5,-206.5 644.5,-206.5 396.5,-206.5"/>
<polygon fill="#666666" stroke="#666666" points="396.5,-191.5 396.5,-191.5 644.5,-191.5 644.5,-191.5 396.5,-191.5"/>
<polygon fill="none" stroke="#666666" points="396.5,-174.5 396.5,-234.5 644.5,-234.5 644.5,-174.5 396.5,-174.5"/>
</a>
</g>
</g>
<!-- Node5&#45;&gt;Node1 -->
<g id="edge5_Node000001_Node000005" class="edge">
<title>Node5&#45;&gt;Node1</title>
<g id="a_edge5_Node000001_Node000005"><a xlink:title=" ">
<path fill="none" stroke="#63b8ff" d="M469.4,-174.49C444.72,-160.48 414.03,-143.05 384.16,-126.1"/>
<polygon fill="none" stroke="#63b8ff" points="384.08,-126.05 376.89,-126.57 373.64,-120.13 380.84,-119.61 384.08,-126.05"/>
</a>
</g>
<text text-anchor="middle" x="436" y="-141" font-family="Helvetica,sans-Serif" font-size="10.00" fill="grey"> &#45;tables</text>
</g>
</g>
</svg>
