<?xml version="1.0" encoding="UTF-8" standalone="no"?>
<!DOCTYPE svg PUBLIC "-//W3C//DTD SVG 1.1//EN"
 "http://www.w3.org/Graphics/SVG/1.1/DTD/svg11.dtd">
<!-- Generated by graphviz version 2.43.0 (0)
 -->
<!-- Title: fspm.config.params.Parameter.asInteger Pages: 1 -->
<svg width="813pt" height="186pt"
 viewBox="0.00 0.00 813.00 186.00" xmlns="http://www.w3.org/2000/svg" xmlns:xlink="http://www.w3.org/1999/xlink">
<g id="graph0" class="graph" transform="scale(1 1) rotate(0) translate(4 182)">
<title>fspm.config.params.Parameter.asInteger</title>
<!-- Node1 -->
<g id="node1" class="node">
<title>Node1</title>
<g id="a_node1"><a xlink:title=" ">
<polygon fill="#bfbfbf" stroke="black" points="625,-48.5 625,-78.5 805,-78.5 805,-48.5 625,-48.5"/>
<text text-anchor="start" x="633" y="-66.5" font-family="Helvetica,sans-Serif" font-size="10.00">fspm.config.params.Parameter.as</text>
<text text-anchor="middle" x="715" y="-55.5" font-family="Helvetica,sans-Serif" font-size="10.00">Integer</text>
</a>
</g>
</g>
<!-- Node2 -->
<g id="node2" class="node">
<title>Node2</title>
<g id="a_node2"><a xlink:href="classfspm_1_1config_1_1params_1_1ParamCategory_a176eab656e051784323f2132a4994fc6.html#a176eab656e051784323f2132a4994fc6" target="_top" xlink:title=" ">
<polygon fill="none" stroke="black" points="442,-73.5 442,-103.5 589,-103.5 589,-73.5 442,-73.5"/>
<text text-anchor="start" x="450" y="-91.5" font-family="Helvetica,sans-Serif" font-size="10.00">fspm.config.params.Param</text>
<text text-anchor="middle" x="515.5" y="-80.5" font-family="Helvetica,sans-Serif" font-size="10.00">Category.getInteger</text>
</a>
</g>
</g>
<!-- Node1&#45;&gt;Node2 -->
<g id="edge1" class="edge">
<title>Node1&#45;&gt;Node2</title>
<path fill="none" stroke="midnightblue" d="M614.66,-76.07C606.03,-77.17 597.41,-78.26 589.05,-79.32"/>
<polygon fill="midnightblue" stroke="midnightblue" points="615.3,-79.52 624.78,-74.79 614.42,-72.58 615.3,-79.52"/>
</g>
<!-- Node8 -->
<g id="node8" class="node">
<title>Node8</title>
<g id="a_node8"><a xlink:href="classfspm_1_1config_1_1params_1_1ParamTable_aa6854cca7478b055f97462947e8d2422.html#aa6854cca7478b055f97462947e8d2422" target="_top" xlink:title=" ">
<polygon fill="none" stroke="black" points="442,-24.5 442,-54.5 589,-54.5 589,-24.5 442,-24.5"/>
<text text-anchor="start" x="450" y="-42.5" font-family="Helvetica,sans-Serif" font-size="10.00">fspm.config.params.Param</text>
<text text-anchor="middle" x="515.5" y="-31.5" font-family="Helvetica,sans-Serif" font-size="10.00">Table.getInteger</text>
</a>
</g>
</g>
<!-- Node1&#45;&gt;Node8 -->
<g id="edge7" class="edge">
<title>Node1&#45;&gt;Node8</title>
<path fill="none" stroke="midnightblue" d="M614.66,-51.43C606.03,-50.38 597.41,-49.33 589.05,-48.32"/>
<polygon fill="midnightblue" stroke="midnightblue" points="614.43,-54.93 624.78,-52.66 615.28,-47.98 614.43,-54.93"/>
</g>
<!-- Node3 -->
<g id="node3" class="node">
<title>Node3</title>
<g id="a_node3"><a xlink:href="classfspm_1_1config_1_1params_1_1hierarchy_1_1CategoryHierarchy_a4cc1777d6041d4ed07c6adb34bfcb043.html#a4cc1777d6041d4ed07c6adb34bfcb043" target="_top" xlink:title=" ">
<polygon fill="none" stroke="black" points="237.5,-73.5 237.5,-103.5 401.5,-103.5 401.5,-73.5 237.5,-73.5"/>
<text text-anchor="start" x="245.5" y="-91.5" font-family="Helvetica,sans-Serif" font-size="10.00">fspm.config.params.hierarchy.</text>
<text text-anchor="middle" x="319.5" y="-80.5" font-family="Helvetica,sans-Serif" font-size="10.00">CategoryHierarchy.getInteger</text>
</a>
</g>
</g>
<!-- Node2&#45;&gt;Node3 -->
<g id="edge2" class="edge">
<title>Node2&#45;&gt;Node3</title>
<path fill="none" stroke="midnightblue" d="M431.72,-88.5C421.78,-88.5 411.64,-88.5 401.73,-88.5"/>
<polygon fill="midnightblue" stroke="midnightblue" points="431.99,-92 441.99,-88.5 431.99,-85 431.99,-92"/>
</g>
<!-- Node4 -->
<g id="node4" class="node">
<title>Node4</title>
<g id="a_node4"><a xlink:href="classfspm_1_1config_1_1params_1_1hierarchy_1_1CategoryHierarchy_ac9c2f536d23ca5848b462061f8b657d1.html#ac9c2f536d23ca5848b462061f8b657d1" target="_top" xlink:title=" ">
<polygon fill="none" stroke="black" points="16.5,-147.5 16.5,-177.5 180.5,-177.5 180.5,-147.5 16.5,-147.5"/>
<text text-anchor="start" x="24.5" y="-165.5" font-family="Helvetica,sans-Serif" font-size="10.00">fspm.config.params.hierarchy.</text>
<text text-anchor="middle" x="98.5" y="-154.5" font-family="Helvetica,sans-Serif" font-size="10.00">CategoryHierarchy.getInteger</text>
</a>
</g>
</g>
<!-- Node3&#45;&gt;Node4 -->
<g id="edge3" class="edge">
<title>Node3&#45;&gt;Node4</title>
<path fill="none" stroke="midnightblue" d="M276.55,-107.57C253.4,-117.64 223.96,-129.69 197,-138.5 187.14,-141.72 176.6,-144.74 166.22,-147.48"/>
<polygon fill="midnightblue" stroke="midnightblue" points="277.99,-110.77 285.74,-103.54 275.17,-104.36 277.99,-110.77"/>
</g>
<!-- Node5 -->
<g id="node5" class="node">
<title>Node5</title>
<g id="a_node5"><a xlink:href="classfspm_1_1config_1_1tests_1_1ParamAccess_1_1SimpleTest_a4612b4a76c0c5eb3a4d9fac2c0fa2bf8.html#a4612b4a76c0c5eb3a4d9fac2c0fa2bf8" target="_top" xlink:title=" ">
<polygon fill="none" stroke="black" points="0,-98.5 0,-128.5 197,-128.5 197,-98.5 0,-98.5"/>
<text text-anchor="start" x="8" y="-116.5" font-family="Helvetica,sans-Serif" font-size="10.00">fspm.config.tests.ParamAccess.</text>
<text text-anchor="middle" x="98.5" y="-105.5" font-family="Helvetica,sans-Serif" font-size="10.00">SimpleTest.testCrossCategoryAccess</text>
</a>
</g>
</g>
<!-- Node3&#45;&gt;Node5 -->
<g id="edge4" class="edge">
<title>Node3&#45;&gt;Node5</title>
<path fill="none" stroke="midnightblue" d="M227.09,-98.94C217.24,-100.06 207.2,-101.21 197.28,-102.34"/>
<polygon fill="midnightblue" stroke="midnightblue" points="227.73,-102.39 237.26,-97.77 226.93,-95.43 227.73,-102.39"/>
</g>
<!-- Node6 -->
<g id="node6" class="node">
<title>Node6</title>
<g id="a_node6"><a xlink:href="classfspm_1_1config_1_1tests_1_1ParamAccess_1_1SimpleTest_a8a856d084a9f7cc18dd02285f8bff9b4.html#a8a856d084a9f7cc18dd02285f8bff9b4" target="_top" xlink:title=" ">
<polygon fill="none" stroke="black" points="13,-49.5 13,-79.5 184,-79.5 184,-49.5 13,-49.5"/>
<text text-anchor="start" x="21" y="-67.5" font-family="Helvetica,sans-Serif" font-size="10.00">fspm.config.tests.ParamAccess.</text>
<text text-anchor="middle" x="98.5" y="-56.5" font-family="Helvetica,sans-Serif" font-size="10.00">SimpleTest.testFlatCategories</text>
</a>
</g>
</g>
<!-- Node3&#45;&gt;Node6 -->
<g id="edge5" class="edge">
<title>Node3&#45;&gt;Node6</title>
<path fill="none" stroke="midnightblue" d="M227.03,-78.48C212.87,-76.92 198.28,-75.33 184.27,-73.79"/>
<polygon fill="midnightblue" stroke="midnightblue" points="226.94,-81.99 237.26,-79.6 227.7,-75.03 226.94,-81.99"/>
</g>
<!-- Node7 -->
<g id="node7" class="node">
<title>Node7</title>
<g id="a_node7"><a xlink:href="classfspm_1_1config_1_1tests_1_1ParamAccess_1_1SimpleTest_a6ff9e514f8013564285ff10fa6a0af6f.html#a6ff9e514f8013564285ff10fa6a0af6f" target="_top" xlink:title=" ">
<polygon fill="none" stroke="black" points="13,-0.5 13,-30.5 184,-30.5 184,-0.5 13,-0.5"/>
<text text-anchor="start" x="21" y="-18.5" font-family="Helvetica,sans-Serif" font-size="10.00">fspm.config.tests.ParamAccess.</text>
<text text-anchor="middle" x="98.5" y="-7.5" font-family="Helvetica,sans-Serif" font-size="10.00">SimpleTest.testTypes</text>
</a>
</g>
</g>
<!-- Node3&#45;&gt;Node7 -->
<g id="edge6" class="edge">
<title>Node3&#45;&gt;Node7</title>
<path fill="none" stroke="midnightblue" d="M246.47,-70.08C241.85,-68.35 237.33,-66.49 233,-64.5 215.53,-56.47 214.56,-48.33 197,-40.5 188.46,-36.69 179.23,-33.38 169.98,-30.53"/>
<polygon fill="midnightblue" stroke="midnightblue" points="245.43,-73.42 256.03,-73.45 247.76,-66.82 245.43,-73.42"/>
</g>
<!-- Node9 -->
<g id="node9" class="node">
<title>Node9</title>
<g id="a_node9"><a xlink:href="classfspm_1_1config_1_1tests_1_1Hierarchy_1_1TableHierarchyTest_a957da330e9da76a2feed42e0a689d65e.html#a957da330e9da76a2feed42e0a689d65e" target="_top" xlink:title=" ">
<polygon fill="none" stroke="black" points="233,-24.5 233,-54.5 406,-54.5 406,-24.5 233,-24.5"/>
<text text-anchor="start" x="241" y="-42.5" font-family="Helvetica,sans-Serif" font-size="10.00">fspm.config.tests.Hierarchy.</text>
<text text-anchor="middle" x="319.5" y="-31.5" font-family="Helvetica,sans-Serif" font-size="10.00">TableHierarchyTest.testGetTable</text>
</a>
</g>
</g>
<!-- Node8&#45;&gt;Node9 -->
<g id="edge8" class="edge">
<title>Node8&#45;&gt;Node9</title>
<path fill="none" stroke="midnightblue" d="M431.98,-39.5C423.39,-39.5 414.64,-39.5 406.01,-39.5"/>
<polygon fill="midnightblue" stroke="midnightblue" points="431.99,-43 441.99,-39.5 431.99,-36 431.99,-43"/>
</g>
</g>
</svg>
