<?xml version="1.0" encoding="UTF-8" standalone="no"?>
<!DOCTYPE svg PUBLIC "-//W3C//DTD SVG 1.1//EN"
 "http://www.w3.org/Graphics/SVG/1.1/DTD/svg11.dtd">
<!-- Generated by graphviz version 2.43.0 (0)
 -->
<!-- Title: fspm.config.Config.setGroupContext Pages: 1 -->
<!--zoomable 235 -->
<svg id="main" version="1.1" xmlns="http://www.w3.org/2000/svg" xmlns:xlink="http://www.w3.org/1999/xlink" xml:space="preserve" onload="init(evt)">
<style type="text/css"><![CDATA[
.edge:hover path { stroke: red; }
.edge:hover polygon { stroke: red; fill: red; }
]]></style>
<script type="text/javascript"><![CDATA[
var edges = document.getElementsByTagName('g');
if (edges && edges.length) {
  for (var i=0;i<edges.length;i++) {
    if (edges[i].id.substr(0,4)=='edge') {
      edges[i].setAttribute('class','edge');
    }
  }
}
]]></script>
        <defs>
                <circle id="rim" cx="0" cy="0" r="7"/>
                <circle id="rim2" cx="0" cy="0" r="3.5"/>
                <g id="zoomPlus">
                        <use xlink:href="#rim" fill="#404040">
                                <set attributeName="fill" to="#808080" begin="zoomplus.mouseover" end="zoomplus.mouseout"/>
                        </use>
                        <path d="M-4,0h8M0,-4v8" fill="none" stroke="white" stroke-width="1.5" pointer-events="none"/>
                </g>
                <g id="zoomMin">
                        <use xlink:href="#rim" fill="#404040">
                                <set attributeName="fill" to="#808080" begin="zoomminus.mouseover" end="zoomminus.mouseout"/>
                        </use>
                        <path d="M-4,0h8" fill="none" stroke="white" stroke-width="1.5" pointer-events="none"/>
                </g>
                <g id="dirArrow">
                        <path fill="none" stroke="white" stroke-width="1.5" d="M0,-3.0v7 M-2.5,-0.5L0,-3.0L2.5,-0.5"/>
                </g>
               <g id="resetDef">
                       <use xlink:href="#rim2" fill="#404040">
                               <set attributeName="fill" to="#808080" begin="reset.mouseover" end="reset.mouseout"/>
                       </use>
               </g>
        </defs>

<script type="text/javascript">
var viewWidth = 568;
var viewHeight = 235;
var sectionId = 'dynsection-1';
</script>
<script xlink:href="svgpan.js"/>
<svg id="graph" class="graph">
<g id="viewport">
<title>fspm.config.Config.setGroupContext</title>
<!-- Node1 -->
<g id="node1" class="node">
<title>Node1</title>
<g id="a_node1"><a xlink:title=" ">
<polygon fill="#bfbfbf" stroke="black" points="405,-98.5 405,-128.5 560,-128.5 560,-98.5 405,-98.5"/>
<text text-anchor="start" x="413" y="-116.5" font-family="Helvetica,sans-Serif" font-size="10.00">fspm.config.Config.setGroup</text>
<text text-anchor="middle" x="482.5" y="-105.5" font-family="Helvetica,sans-Serif" font-size="10.00">Context</text>
</a>
</g>
</g>
<!-- Node2 -->
<g id="node2" class="node">
<title>Node2</title>
<g id="a_node2"><a xlink:href="classfspm_1_1config_1_1ConfigTest_a586a428c43c00668f273133c28ddd635.html#a586a428c43c00668f273133c28ddd635" target="_top" xlink:title=" ">
<polygon fill="none" stroke="black" points="206,-196.5 206,-226.5 369,-226.5 369,-196.5 206,-196.5"/>
<text text-anchor="start" x="214" y="-214.5" font-family="Helvetica,sans-Serif" font-size="10.00">fspm.config.ConfigTest.access</text>
<text text-anchor="middle" x="287.5" y="-203.5" font-family="Helvetica,sans-Serif" font-size="10.00">Examples</text>
</a>
</g>
</g>
<!-- Node1&#45;&gt;Node2 -->
<g id="edge1" class="edge">
<title>Node1&#45;&gt;Node2</title>
<path fill="none" stroke="midnightblue" d="M454.02,-134.88C432.03,-151.15 399.87,-173.13 369,-187.5 361.86,-190.82 354.15,-193.81 346.43,-196.46"/>
<polygon fill="midnightblue" stroke="midnightblue" points="456.32,-137.53 462.22,-128.73 452.12,-131.93 456.32,-137.53"/>
</g>
<!-- Node3 -->
<g id="node3" class="node">
<title>Node3</title>
<g id="a_node3"><a xlink:href="classfspm_1_1config_1_1ConfigTest_ab639b7af67e947577db2ab2c9bc95a87.html#ab639b7af67e947577db2ab2c9bc95a87" target="_top" xlink:title=" ">
<polygon fill="none" stroke="black" points="213,-147.5 213,-177.5 362,-177.5 362,-147.5 213,-147.5"/>
<text text-anchor="start" x="221" y="-165.5" font-family="Helvetica,sans-Serif" font-size="10.00">fspm.config.ConfigTest.test</text>
<text text-anchor="middle" x="287.5" y="-154.5" font-family="Helvetica,sans-Serif" font-size="10.00">_default</text>
</a>
</g>
</g>
<!-- Node1&#45;&gt;Node3 -->
<g id="edge2" class="edge">
<title>Node1&#45;&gt;Node3</title>
<path fill="none" stroke="midnightblue" d="M412.38,-131.05C391.18,-136.43 368.07,-142.3 347.61,-147.49"/>
<polygon fill="midnightblue" stroke="midnightblue" points="413.45,-134.39 422.28,-128.53 411.73,-127.6 413.45,-134.39"/>
</g>
<!-- Node4 -->
<g id="node4" class="node">
<title>Node4</title>
<g id="a_node4"><a xlink:href="classfspm_1_1config_1_1ConfigTest_a09a38b5eee655b088e4e144df5ad5a85.html#a09a38b5eee655b088e4e144df5ad5a85" target="_top" xlink:title=" ">
<polygon fill="none" stroke="black" points="213,-98.5 213,-128.5 362,-128.5 362,-98.5 213,-98.5"/>
<text text-anchor="start" x="221" y="-116.5" font-family="Helvetica,sans-Serif" font-size="10.00">fspm.config.ConfigTest.test</text>
<text text-anchor="middle" x="287.5" y="-105.5" font-family="Helvetica,sans-Serif" font-size="10.00">_flatCategories</text>
</a>
</g>
</g>
<!-- Node1&#45;&gt;Node4 -->
<g id="edge3" class="edge">
<title>Node1&#45;&gt;Node4</title>
<path fill="none" stroke="midnightblue" d="M394.61,-113.5C383.76,-113.5 372.75,-113.5 362.13,-113.5"/>
<polygon fill="midnightblue" stroke="midnightblue" points="394.94,-117 404.94,-113.5 394.94,-110 394.94,-117"/>
</g>
<!-- Node6 -->
<g id="node6" class="node">
<title>Node6</title>
<g id="a_node6"><a xlink:href="classfspm_1_1config_1_1ConfigTest_a06c9116c21e1df253ca6b4056a187bad.html#a06c9116c21e1df253ca6b4056a187bad" target="_top" xlink:title=" ">
<polygon fill="none" stroke="black" points="213,-49.5 213,-79.5 362,-79.5 362,-49.5 213,-49.5"/>
<text text-anchor="start" x="221" y="-67.5" font-family="Helvetica,sans-Serif" font-size="10.00">fspm.config.ConfigTest.test</text>
<text text-anchor="middle" x="287.5" y="-56.5" font-family="Helvetica,sans-Serif" font-size="10.00">_phenology</text>
</a>
</g>
</g>
<!-- Node1&#45;&gt;Node6 -->
<g id="edge5" class="edge">
<title>Node1&#45;&gt;Node6</title>
<path fill="none" stroke="midnightblue" d="M412.38,-95.95C391.18,-90.57 368.07,-84.7 347.61,-79.51"/>
<polygon fill="midnightblue" stroke="midnightblue" points="411.73,-99.4 422.28,-98.47 413.45,-92.61 411.73,-99.4"/>
</g>
<!-- Node7 -->
<g id="node7" class="node">
<title>Node7</title>
<g id="a_node7"><a xlink:href="classfspm_1_1config_1_1ConfigTest_a0ace3587e0462f748617e279d4d0c659.html#a0ace3587e0462f748617e279d4d0c659" target="_top" xlink:title=" ">
<polygon fill="none" stroke="black" points="213,-0.5 213,-30.5 362,-30.5 362,-0.5 213,-0.5"/>
<text text-anchor="start" x="221" y="-18.5" font-family="Helvetica,sans-Serif" font-size="10.00">fspm.config.ConfigTest.test</text>
<text text-anchor="middle" x="287.5" y="-7.5" font-family="Helvetica,sans-Serif" font-size="10.00">_types</text>
</a>
</g>
</g>
<!-- Node1&#45;&gt;Node7 -->
<g id="edge6" class="edge">
<title>Node1&#45;&gt;Node7</title>
<path fill="none" stroke="midnightblue" d="M453.53,-92.24C431.5,-76.28 399.52,-54.81 369,-40.5 361.18,-36.84 352.69,-33.53 344.25,-30.62"/>
<polygon fill="midnightblue" stroke="midnightblue" points="451.62,-95.18 461.75,-98.27 455.76,-89.53 451.62,-95.18"/>
</g>
<!-- Node5 -->
<g id="node5" class="node">
<title>Node5</title>
<g id="a_node5"><a xlink:href="classfspm_1_1config_1_1ConfigTest_aacca92fc43946c5a3d4613a1085d59f9.html#aacca92fc43946c5a3d4613a1085d59f9" target="_top" xlink:title=" ">
<polygon fill="none" stroke="black" points="0,-104 0,-123 170,-123 170,-104 0,-104"/>
<text text-anchor="middle" x="85" y="-111" font-family="Helvetica,sans-Serif" font-size="10.00">fspm.config.ConfigTest.runMain</text>
</a>
</g>
</g>
<!-- Node4&#45;&gt;Node5 -->
<g id="edge4" class="edge">
<title>Node4&#45;&gt;Node5</title>
<path fill="none" stroke="midnightblue" d="M202.71,-113.5C191.91,-113.5 180.84,-113.5 170.02,-113.5"/>
<polygon fill="midnightblue" stroke="midnightblue" points="202.98,-117 212.98,-113.5 202.98,-110 202.98,-117"/>
</g>
</g>
</svg>
        <g id="navigator" transform="translate(0 0)" fill="#404254">
                <rect fill="#f2f5e9" fill-opacity="0.5" stroke="#606060" stroke-width=".5" x="0" y="0" width="60" height="60"/>
                <use id="zoomplus" xlink:href="#zoomPlus" x="17" y="9" onmousedown="handleZoom(evt,'in')"/>
                <use id="zoomminus" xlink:href="#zoomMin" x="42" y="9" onmousedown="handleZoom(evt,'out')"/>
                <use id="reset" xlink:href="#resetDef" x="30" y="36" onmousedown="handleReset()"/>
                <g id="arrowUp" xlink:href="#dirArrow" transform="translate(30 24)" onmousedown="handlePan(0,-1)">
                  <use xlink:href="#rim" fill="#404040">
                        <set attributeName="fill" to="#808080" begin="arrowUp.mouseover" end="arrowUp.mouseout"/>
                  </use>
                  <path fill="none" stroke="white" stroke-width="1.5" d="M0,-3.0v7 M-2.5,-0.5L0,-3.0L2.5,-0.5"/>
                </g>
                <g id="arrowRight" xlink:href="#dirArrow" transform="rotate(90) translate(36 -43)" onmousedown="handlePan(1,0)">
                  <use xlink:href="#rim" fill="#404040">
                        <set attributeName="fill" to="#808080" begin="arrowRight.mouseover" end="arrowRight.mouseout"/>
                  </use>
                  <path fill="none" stroke="white" stroke-width="1.5" d="M0,-3.0v7 M-2.5,-0.5L0,-3.0L2.5,-0.5"/>
                </g>
                <g id="arrowDown" xlink:href="#dirArrow" transform="rotate(180) translate(-30 -48)" onmousedown="handlePan(0,1)">
                  <use xlink:href="#rim" fill="#404040">
                        <set attributeName="fill" to="#808080" begin="arrowDown.mouseover" end="arrowDown.mouseout"/>
                  </use>
                  <path fill="none" stroke="white" stroke-width="1.5" d="M0,-3.0v7 M-2.5,-0.5L0,-3.0L2.5,-0.5"/>
                </g>
                <g id="arrowLeft" xlink:href="#dirArrow" transform="rotate(270) translate(-36 17)" onmousedown="handlePan(-1,0)">
                  <use xlink:href="#rim" fill="#404040">
                        <set attributeName="fill" to="#808080" begin="arrowLeft.mouseover" end="arrowLeft.mouseout"/>
                  </use>
                  <path fill="none" stroke="white" stroke-width="1.5" d="M0,-3.0v7 M-2.5,-0.5L0,-3.0L2.5,-0.5"/>
                </g>
        </g>
        <svg viewBox="0 0 15 15" width="100%" height="30px" preserveAspectRatio="xMaxYMin meet">
         <g id="arrow_out" transform="scale(0.3 0.3)">
          <a xlink:href="classfspm_1_1config_1_1Config_a97ddea0bf83d5ca1c6c42e8edf12bf7c_a97ddea0bf83d5ca1c6c42e8edf12bf7c_icgraph_org.svg" target="_base">
           <rect id="button" ry="5" rx="5" y="6" x="6" height="38" width="38"
                fill="#f2f5e9" fill-opacity="0.5" stroke="#606060" stroke-width="1.0"/>
           <path id="arrow"
             d="M 11.500037,31.436501 C 11.940474,20.09759 22.043105,11.32322 32.158766,21.979434 L 37.068811,17.246167 C 37.068811,17.246167 37.088388,32 37.088388,32 L 22.160133,31.978069 C 22.160133,31.978069 26.997745,27.140456 26.997745,27.140456 C 18.528582,18.264221 13.291696,25.230495 11.500037,31.436501 z"
             style="fill:#404040;"/>
          </a>
         </g>
        </svg>
</svg>
