<?xml version="1.0" encoding="UTF-8" standalone="no"?>
<!DOCTYPE svg PUBLIC "-//W3C//DTD SVG 1.1//EN"
 "http://www.w3.org/Graphics/SVG/1.1/DTD/svg11.dtd">
<!-- Generated by graphviz version 2.43.0 (0)
 -->
<!-- Title: fspm.config.params.Parameter Pages: 1 -->
<svg width="235pt" height="430pt"
 viewBox="0.00 0.00 234.50 430.00" xmlns="http://www.w3.org/2000/svg" xmlns:xlink="http://www.w3.org/1999/xlink">
<g id="graph0" class="graph" transform="scale(1 1) rotate(0) translate(4 426)">
<title>fspm.config.params.Parameter</title>
<!-- Node1 -->
<g id="node1" class="node">
<title>Node1</title>
<g id="a_node1"><a xlink:title="Parameter represents variables that can be stored as Java data types.">
<polygon fill="#bfbfbf" stroke="black" points="59.5,-0.5 59.5,-200.5 226.5,-200.5 226.5,-0.5 59.5,-0.5"/>
<text text-anchor="middle" x="143" y="-188.5" font-family="Helvetica,sans-Serif" font-size="10.00">fspm.config.params.Parameter</text>
<polyline fill="none" stroke="black" points="59.5,-181.5 226.5,-181.5 "/>
<text text-anchor="middle" x="143" y="-169.5" font-family="Helvetica,sans-Serif" font-size="10.00"> </text>
<polyline fill="none" stroke="black" points="59.5,-162.5 226.5,-162.5 "/>
<text text-anchor="start" x="67.5" y="-150.5" font-family="Helvetica,sans-Serif" font-size="10.00">+ Parameter()</text>
<text text-anchor="start" x="67.5" y="-139.5" font-family="Helvetica,sans-Serif" font-size="10.00">+ getType()</text>
<text text-anchor="start" x="67.5" y="-128.5" font-family="Helvetica,sans-Serif" font-size="10.00">+ asBoolean()</text>
<text text-anchor="start" x="67.5" y="-117.5" font-family="Helvetica,sans-Serif" font-size="10.00">+ asString()</text>
<text text-anchor="start" x="67.5" y="-106.5" font-family="Helvetica,sans-Serif" font-size="10.00">+ asInteger()</text>
<text text-anchor="start" x="67.5" y="-95.5" font-family="Helvetica,sans-Serif" font-size="10.00">+ asDouble()</text>
<text text-anchor="start" x="67.5" y="-84.5" font-family="Helvetica,sans-Serif" font-size="10.00">+ asBooleanArray()</text>
<text text-anchor="start" x="67.5" y="-73.5" font-family="Helvetica,sans-Serif" font-size="10.00">+ asStringArray()</text>
<text text-anchor="start" x="67.5" y="-62.5" font-family="Helvetica,sans-Serif" font-size="10.00">+ asIntegerArray()</text>
<text text-anchor="start" x="67.5" y="-51.5" font-family="Helvetica,sans-Serif" font-size="10.00">+ asDoubleArray()</text>
<text text-anchor="start" x="67.5" y="-40.5" font-family="Helvetica,sans-Serif" font-size="10.00">+ isNull()</text>
<text text-anchor="start" x="67.5" y="-29.5" font-family="Helvetica,sans-Serif" font-size="10.00">+ toString()</text>
<text text-anchor="start" x="67.5" y="-18.5" font-family="Helvetica,sans-Serif" font-size="10.00">~ asArray()</text>
<text text-anchor="start" x="67.5" y="-7.5" font-family="Helvetica,sans-Serif" font-size="10.00">&#45; getDoubleType()</text>
</a>
</g>
</g>
<!-- Node2 -->
<g id="node2" class="node">
<title>Node2</title>
<g id="a_node2"><a xlink:href="classfspm_1_1util_1_1KeyElement.html" target="_top" xlink:title="Represents an element which contains a key.">
<polygon fill="none" stroke="black" points="0,-248.5 0,-316.5 122,-316.5 122,-248.5 0,-248.5"/>
<text text-anchor="middle" x="61" y="-304.5" font-family="Helvetica,sans-Serif" font-size="10.00">fspm.util.KeyElement</text>
<polyline fill="none" stroke="black" points="0,-297.5 122,-297.5 "/>
<text text-anchor="middle" x="61" y="-285.5" font-family="Helvetica,sans-Serif" font-size="10.00"> </text>
<polyline fill="none" stroke="black" points="0,-278.5 122,-278.5 "/>
<text text-anchor="start" x="8" y="-266.5" font-family="Helvetica,sans-Serif" font-size="10.00">+ KeyElement()</text>
<text text-anchor="start" x="8" y="-255.5" font-family="Helvetica,sans-Serif" font-size="10.00">+ getKey()</text>
</a>
</g>
</g>
<!-- Node2&#45;&gt;Node1 -->
<g id="edge1" class="edge">
<title>Node2&#45;&gt;Node1</title>
<path fill="none" stroke="midnightblue" d="M80.19,-239.37C85.57,-227.56 91.66,-214.19 97.88,-200.55"/>
<polygon fill="none" stroke="midnightblue" points="77,-237.93 76.04,-248.49 83.37,-240.84 77,-237.93"/>
</g>
<!-- Node3 -->
<g id="node3" class="node">
<title>Node3</title>
<g id="a_node3"><a xlink:title=" ">
<polygon fill="none" stroke="#bfbfbf" points="38.5,-364.5 38.5,-421.5 83.5,-421.5 83.5,-364.5 38.5,-364.5"/>
<text text-anchor="middle" x="61" y="-409.5" font-family="Helvetica,sans-Serif" font-size="10.00">String</text>
<polyline fill="none" stroke="#bfbfbf" points="38.5,-402.5 83.5,-402.5 "/>
<text text-anchor="middle" x="61" y="-390.5" font-family="Helvetica,sans-Serif" font-size="10.00"> </text>
<polyline fill="none" stroke="#bfbfbf" points="38.5,-383.5 83.5,-383.5 "/>
<text text-anchor="middle" x="61" y="-371.5" font-family="Helvetica,sans-Serif" font-size="10.00"> </text>
</a>
</g>
</g>
<!-- Node3&#45;&gt;Node2 -->
<g id="edge2" class="edge">
<title>Node3&#45;&gt;Node2</title>
<path fill="none" stroke="#404040" d="M61,-364.34C61,-353.53 61,-340.85 61,-328.77"/>
<polygon fill="none" stroke="#404040" points="61,-328.52 57,-322.52 61,-316.52 65,-322.52 61,-328.52"/>
<text text-anchor="middle" x="73.5" y="-338" font-family="Helvetica,sans-Serif" font-size="10.00"> &#45;key</text>
</g>
<!-- Node4 -->
<g id="node4" class="node">
<title>Node4</title>
<g id="a_node4"><a xlink:title=" ">
<polygon fill="none" stroke="#bfbfbf" points="140,-254 140,-311 202,-311 202,-254 140,-254"/>
<text text-anchor="middle" x="171" y="-299" font-family="Helvetica,sans-Serif" font-size="10.00">JsonNode</text>
<polyline fill="none" stroke="#bfbfbf" points="140,-292 202,-292 "/>
<text text-anchor="middle" x="171" y="-280" font-family="Helvetica,sans-Serif" font-size="10.00"> </text>
<polyline fill="none" stroke="#bfbfbf" points="140,-273 202,-273 "/>
<text text-anchor="middle" x="171" y="-261" font-family="Helvetica,sans-Serif" font-size="10.00"> </text>
</a>
</g>
</g>
<!-- Node4&#45;&gt;Node1 -->
<g id="edge3" class="edge">
<title>Node4&#45;&gt;Node1</title>
<path fill="none" stroke="#404040" d="M166.69,-253.77C164.89,-242.25 162.69,-228.07 160.35,-213.03"/>
<polygon fill="none" stroke="#404040" points="160.3,-212.68 155.42,-207.37 158.45,-200.82 163.33,-206.14 160.3,-212.68"/>
<text text-anchor="middle" x="177.5" y="-222" font-family="Helvetica,sans-Serif" font-size="10.00"> &#45;node</text>
</g>
</g>
</svg>
