<?xml version="1.0" encoding="UTF-8" standalone="no"?>
<!DOCTYPE svg PUBLIC "-//W3C//DTD SVG 1.1//EN"
 "http://www.w3.org/Graphics/SVG/1.1/DTD/svg11.dtd">
<!-- Generated by graphviz version 2.43.0 (0)
 -->
<!-- Title: fspm.config.adapters.JsonFileReader Pages: 1 -->
<svg width="161pt" height="365pt"
 viewBox="0.00 0.00 161.00 365.00" xmlns="http://www.w3.org/2000/svg" xmlns:xlink="http://www.w3.org/1999/xlink">
<g id="graph0" class="graph" transform="scale(1 1) rotate(0) translate(4 361)">
<title>fspm.config.adapters.JsonFileReader</title>
<!-- Node1 -->
<g id="node1" class="node">
<title>Node1</title>
<g id="a_node1"><a xlink:title="File reader to parse JSON config files to Config.">
<polygon fill="#bfbfbf" stroke="black" points="1.5,-0.5 1.5,-112.5 151.5,-112.5 151.5,-0.5 1.5,-0.5"/>
<text text-anchor="start" x="9.5" y="-100.5" font-family="Helvetica,sans-Serif" font-size="10.00">fspm.config.adapters.Json</text>
<text text-anchor="middle" x="76.5" y="-89.5" font-family="Helvetica,sans-Serif" font-size="10.00">FileReader</text>
<polyline fill="none" stroke="black" points="1.5,-82.5 151.5,-82.5 "/>
<text text-anchor="middle" x="76.5" y="-70.5" font-family="Helvetica,sans-Serif" font-size="10.00"> </text>
<polyline fill="none" stroke="black" points="1.5,-63.5 151.5,-63.5 "/>
<text text-anchor="start" x="9.5" y="-51.5" font-family="Helvetica,sans-Serif" font-size="10.00">+ JsonFileReader(String</text>
<text text-anchor="start" x="9.5" y="-40.5" font-family="Helvetica,sans-Serif" font-size="10.00"> path)</text>
<text text-anchor="start" x="9.5" y="-29.5" font-family="Helvetica,sans-Serif" font-size="10.00">+ ParamGroup parse()</text>
<text text-anchor="start" x="9.5" y="-18.5" font-family="Helvetica,sans-Serif" font-size="10.00">&#45; JsonNode getTreeFromFile</text>
<text text-anchor="start" x="9.5" y="-7.5" font-family="Helvetica,sans-Serif" font-size="10.00">(String filePath)</text>
</a>
</g>
</g>
<!-- Node2 -->
<g id="node2" class="node">
<title>Node2</title>
<g id="a_node2"><a xlink:href="classfspm_1_1config_1_1adapters_1_1ConfigAdapter.html" target="_top" xlink:title="Defines the required methods adapters must implement to be compatible with Config.">
<polygon fill="none" stroke="black" points="0,-150.5 0,-251.5 153,-251.5 153,-150.5 0,-150.5"/>
<text text-anchor="start" x="8" y="-239.5" font-family="Helvetica,sans-Serif" font-size="10.00">fspm.config.adapters.Config</text>
<text text-anchor="middle" x="76.5" y="-228.5" font-family="Helvetica,sans-Serif" font-size="10.00">Adapter</text>
<polyline fill="none" stroke="black" points="0,-221.5 153,-221.5 "/>
<text text-anchor="middle" x="76.5" y="-209.5" font-family="Helvetica,sans-Serif" font-size="10.00"> </text>
<polyline fill="none" stroke="black" points="0,-202.5 153,-202.5 "/>
<text text-anchor="start" x="8" y="-190.5" font-family="Helvetica,sans-Serif" font-size="10.00">+ abstract ParamGroup</text>
<text text-anchor="start" x="8" y="-179.5" font-family="Helvetica,sans-Serif" font-size="10.00"> parse()</text>
<text text-anchor="start" x="8" y="-168.5" font-family="Helvetica,sans-Serif" font-size="10.00"># ConfigAdapter(String</text>
<text text-anchor="start" x="8" y="-157.5" font-family="Helvetica,sans-Serif" font-size="10.00"> path)</text>
</a>
</g>
</g>
<!-- Node2&#45;&gt;Node1 -->
<g id="edge1" class="edge">
<title>Node2&#45;&gt;Node1</title>
<path fill="none" stroke="midnightblue" d="M76.5,-140.11C76.5,-131.1 76.5,-121.83 76.5,-112.91"/>
<polygon fill="none" stroke="midnightblue" points="73,-140.16 76.5,-150.16 80,-140.16 73,-140.16"/>
</g>
<!-- Node3 -->
<g id="node3" class="node">
<title>Node3</title>
<g id="a_node3"><a xlink:title=" ">
<polygon fill="none" stroke="#bfbfbf" points="42,-299.5 42,-356.5 111,-356.5 111,-299.5 42,-299.5"/>
<text text-anchor="middle" x="76.5" y="-344.5" font-family="Helvetica,sans-Serif" font-size="10.00">final String</text>
<polyline fill="none" stroke="#bfbfbf" points="42,-337.5 111,-337.5 "/>
<text text-anchor="middle" x="76.5" y="-325.5" font-family="Helvetica,sans-Serif" font-size="10.00"> </text>
<polyline fill="none" stroke="#bfbfbf" points="42,-318.5 111,-318.5 "/>
<text text-anchor="middle" x="76.5" y="-306.5" font-family="Helvetica,sans-Serif" font-size="10.00"> </text>
</a>
</g>
</g>
<!-- Node3&#45;&gt;Node2 -->
<g id="edge2" class="edge">
<title>Node3&#45;&gt;Node2</title>
<path fill="none" stroke="#404040" d="M76.5,-299.26C76.5,-288.79 76.5,-276.42 76.5,-264.07"/>
<polygon fill="none" stroke="#404040" points="76.5,-263.8 72.5,-257.8 76.5,-251.8 80.5,-257.8 76.5,-263.8"/>
<text text-anchor="middle" x="93.5" y="-273" font-family="Helvetica,sans-Serif" font-size="10.00"> #path</text>
</g>
</g>
</svg>
