<?xml version="1.0" encoding="UTF-8" standalone="no"?>
<!DOCTYPE svg PUBLIC "-//W3C//DTD SVG 1.1//EN"
 "http://www.w3.org/Graphics/SVG/1.1/DTD/svg11.dtd">
<!-- Generated by graphviz version 2.43.0 (0)
 -->
<!-- Title: fspm.config.params.type.ArrayParam&lt; T &gt; Pages: 1 -->
<svg width="251pt" height="342pt"
 viewBox="0.00 0.00 251.00 342.00" xmlns="http://www.w3.org/2000/svg" xmlns:xlink="http://www.w3.org/1999/xlink">
<g id="graph0" class="graph" transform="scale(1 1) rotate(0) translate(4 338)">
<title>fspm.config.params.type.ArrayParam&lt; T &gt;</title>
<!-- Node1 -->
<g id="node1" class="node">
<title>Node1</title>
<g id="a_node1"><a xlink:title=" ">
<polygon fill="#bfbfbf" stroke="black" points="98,-0.5 98,-112.5 243,-112.5 243,-0.5 98,-0.5"/>
<text text-anchor="start" x="106" y="-100.5" font-family="Helvetica,sans-Serif" font-size="10.00">fspm.config.params.type.</text>
<text text-anchor="middle" x="170.5" y="-89.5" font-family="Helvetica,sans-Serif" font-size="10.00">ArrayParam&lt; T &gt;</text>
<polyline fill="none" stroke="black" points="98,-82.5 243,-82.5 "/>
<text text-anchor="middle" x="170.5" y="-70.5" font-family="Helvetica,sans-Serif" font-size="10.00"> </text>
<polyline fill="none" stroke="black" points="98,-63.5 243,-63.5 "/>
<text text-anchor="start" x="106" y="-51.5" font-family="Helvetica,sans-Serif" font-size="10.00">+ ArrayParam(String</text>
<text text-anchor="start" x="106" y="-40.5" font-family="Helvetica,sans-Serif" font-size="10.00"> key, T[] value)</text>
<text text-anchor="start" x="106" y="-29.5" font-family="Helvetica,sans-Serif" font-size="10.00">+ T[] getValue()</text>
<text text-anchor="start" x="106" y="-18.5" font-family="Helvetica,sans-Serif" font-size="10.00">+ void setValue(T[] value)</text>
<text text-anchor="start" x="106" y="-7.5" font-family="Helvetica,sans-Serif" font-size="10.00">+ String toString()</text>
</a>
</g>
</g>
<!-- Node2 -->
<g id="node2" class="node">
<title>Node2</title>
<g id="a_node2"><a xlink:href="classfspm_1_1config_1_1params_1_1Parameter.html" target="_top" xlink:title="Parameter represents variables that can be stored using Java data types or other user&#45;defined types.">
<polygon fill="none" stroke="black" points="0,-160.5 0,-228.5 167,-228.5 167,-160.5 0,-160.5"/>
<text text-anchor="middle" x="83.5" y="-216.5" font-family="Helvetica,sans-Serif" font-size="10.00">fspm.config.params.Parameter</text>
<polyline fill="none" stroke="black" points="0,-209.5 167,-209.5 "/>
<text text-anchor="middle" x="83.5" y="-197.5" font-family="Helvetica,sans-Serif" font-size="10.00"> </text>
<polyline fill="none" stroke="black" points="0,-190.5 167,-190.5 "/>
<text text-anchor="start" x="8" y="-178.5" font-family="Helvetica,sans-Serif" font-size="10.00">+ String getKey()</text>
<text text-anchor="start" x="8" y="-167.5" font-family="Helvetica,sans-Serif" font-size="10.00"># Parameter(String key)</text>
</a>
</g>
</g>
<!-- Node2&#45;&gt;Node1 -->
<g id="edge1" class="edge">
<title>Node2&#45;&gt;Node1</title>
<path fill="none" stroke="midnightblue" d="M110.33,-151.55C118.19,-139.27 126.9,-125.65 135.2,-112.68"/>
<polygon fill="none" stroke="midnightblue" points="107.22,-149.92 104.78,-160.23 113.12,-153.69 107.22,-149.92"/>
</g>
<!-- Node3 -->
<g id="node3" class="node">
<title>Node3</title>
<g id="a_node3"><a xlink:title=" ">
<polygon fill="none" stroke="#bfbfbf" points="61,-276.5 61,-333.5 106,-333.5 106,-276.5 61,-276.5"/>
<text text-anchor="middle" x="83.5" y="-321.5" font-family="Helvetica,sans-Serif" font-size="10.00">String</text>
<polyline fill="none" stroke="#bfbfbf" points="61,-314.5 106,-314.5 "/>
<text text-anchor="middle" x="83.5" y="-302.5" font-family="Helvetica,sans-Serif" font-size="10.00"> </text>
<polyline fill="none" stroke="#bfbfbf" points="61,-295.5 106,-295.5 "/>
<text text-anchor="middle" x="83.5" y="-283.5" font-family="Helvetica,sans-Serif" font-size="10.00"> </text>
</a>
</g>
</g>
<!-- Node3&#45;&gt;Node2 -->
<g id="edge2" class="edge">
<title>Node3&#45;&gt;Node2</title>
<path fill="none" stroke="#404040" d="M83.5,-276.34C83.5,-265.53 83.5,-252.85 83.5,-240.77"/>
<polygon fill="none" stroke="#404040" points="83.5,-240.52 79.5,-234.52 83.5,-228.52 87.5,-234.52 83.5,-240.52"/>
<text text-anchor="middle" x="96" y="-250" font-family="Helvetica,sans-Serif" font-size="10.00"> &#45;key</text>
</g>
<!-- Node4 -->
<g id="node4" class="node">
<title>Node4</title>
<g id="a_node4"><a xlink:title=" ">
<polygon fill="none" stroke="#bfbfbf" points="184.5,-166 184.5,-223 214.5,-223 214.5,-166 184.5,-166"/>
<text text-anchor="middle" x="199.5" y="-211" font-family="Helvetica,sans-Serif" font-size="10.00">T[]</text>
<polyline fill="none" stroke="#bfbfbf" points="184.5,-204 214.5,-204 "/>
<text text-anchor="middle" x="199.5" y="-192" font-family="Helvetica,sans-Serif" font-size="10.00"> </text>
<polyline fill="none" stroke="#bfbfbf" points="184.5,-185 214.5,-185 "/>
<text text-anchor="middle" x="199.5" y="-173" font-family="Helvetica,sans-Serif" font-size="10.00"> </text>
</a>
</g>
</g>
<!-- Node4&#45;&gt;Node1 -->
<g id="edge3" class="edge">
<title>Node4&#45;&gt;Node1</title>
<path fill="none" stroke="#404040" d="M193.63,-165.98C191.05,-153.85 187.88,-139.03 184.74,-124.28"/>
<polygon fill="none" stroke="#404040" points="184.73,-124.25 179.57,-119.22 182.23,-112.52 187.39,-117.55 184.73,-124.25"/>
<text text-anchor="middle" x="204.5" y="-134" font-family="Helvetica,sans-Serif" font-size="10.00"> &#45;value</text>
</g>
</g>
</svg>
