<?xml version="1.0" encoding="UTF-8" standalone="no"?>
<!DOCTYPE svg PUBLIC "-//W3C//DTD SVG 1.1//EN"
 "http://www.w3.org/Graphics/SVG/1.1/DTD/svg11.dtd">
<!-- Generated by graphviz version 2.43.0 (0)
 -->
<!-- Title: RuntimeException Pages: 1 -->
<svg width="695pt" height="183pt"
 viewBox="0.00 0.00 695.00 183.00" xmlns="http://www.w3.org/2000/svg" xmlns:xlink="http://www.w3.org/1999/xlink">
<g id="graph0" class="graph" transform="scale(1 1) rotate(0) translate(4 179)">
<title>RuntimeException</title>
<!-- Node1 -->
<g id="Node000001" class="node">
<title>Node1</title>
<g id="a_Node000001"><a xlink:title=" ">
<polygon fill="#999999" stroke="transparent" points="393.5,-175 293.5,-175 293.5,-126 393.5,-126 393.5,-175"/>
<text text-anchor="start" x="298.5" y="-162.5" font-family="Helvetica,sans-Serif" font-size="10.00">RuntimeException</text>
<text text-anchor="start" x="341.5" y="-147.5" font-family="Helvetica,sans-Serif" font-size="10.00"> </text>
<text text-anchor="start" x="341.5" y="-132.5" font-family="Helvetica,sans-Serif" font-size="10.00"> </text>
<polygon fill="#666666" stroke="#666666" points="293.5,-157.5 293.5,-157.5 393.5,-157.5 393.5,-157.5 293.5,-157.5"/>
<polygon fill="#666666" stroke="#666666" points="293.5,-142.5 293.5,-142.5 393.5,-142.5 393.5,-142.5 293.5,-142.5"/>
<polygon fill="none" stroke="#666666" points="293.5,-126 293.5,-175 393.5,-175 393.5,-126 293.5,-126"/>
</a>
</g>
</g>
<!-- Node2 -->
<g id="Node000002" class="node">
<title>Node2</title>
<g id="a_Node000002"><a xlink:href="classio_1_1github_1_1fruitcropxl_1_1config_1_1util_1_1exceptions_1_1KeyConflictException.html" target="_top" xlink:title=" ">
<polygon fill="white" stroke="transparent" points="217,-82.5 0,-82.5 0,-7.5 217,-7.5 217,-82.5"/>
<text text-anchor="start" x="5.5" y="-70" font-family="Helvetica,sans-Serif" font-size="10.00">io.github.fruitcropxl.config.util.exceptions.</text>
<text text-anchor="start" x="57.5" y="-59" font-family="Helvetica,sans-Serif" font-size="10.00">KeyConflictException</text>
<text text-anchor="start" x="107" y="-44" font-family="Helvetica,sans-Serif" font-size="10.00"> </text>
<text text-anchor="start" x="25.5" y="-29" font-family="Helvetica,sans-Serif" font-size="10.00">+</text>
<text text-anchor="start" x="59.5" y="-29" font-family="Helvetica,sans-Serif" font-size="10.00">KeyConflictException()</text>
<text text-anchor="start" x="25.5" y="-14" font-family="Helvetica,sans-Serif" font-size="10.00">+</text>
<text text-anchor="start" x="59.5" y="-14" font-family="Helvetica,sans-Serif" font-size="10.00">KeyConflictException()</text>
<polygon fill="#666666" stroke="#666666" points="0.5,-54 0.5,-54 217.5,-54 217.5,-54 0.5,-54"/>
<polygon fill="#666666" stroke="#666666" points="0.5,-39 0.5,-39 217.5,-39 217.5,-39 0.5,-39"/>
<polygon fill="none" stroke="#666666" points="0,-7.5 0,-82.5 217,-82.5 217,-7.5 0,-7.5"/>
</a>
</g>
</g>
<!-- Node1&#45;&gt;Node2 -->
<g id="edge1_Node000001_Node000002" class="edge">
<title>Node1&#45;&gt;Node2</title>
<g id="a_edge1_Node000001_Node000002"><a xlink:title=" ">
<path fill="none" stroke="#63b8ff" d="M284.13,-123.35C256.16,-111.03 222.32,-96.13 191.83,-82.7"/>
<polygon fill="none" stroke="#63b8ff" points="282.81,-126.6 293.37,-127.42 285.63,-120.19 282.81,-126.6"/>
</a>
</g>
</g>
<!-- Node3 -->
<g id="Node000003" class="node">
<title>Node3</title>
<g id="a_Node000003"><a xlink:href="classio_1_1github_1_1fruitcropxl_1_1config_1_1util_1_1exceptions_1_1KeyNotFoundException.html" target="_top" xlink:title=" ">
<polygon fill="white" stroke="transparent" points="452,-82.5 235,-82.5 235,-7.5 452,-7.5 452,-82.5"/>
<text text-anchor="start" x="240.5" y="-70" font-family="Helvetica,sans-Serif" font-size="10.00">io.github.fruitcropxl.config.util.exceptions.</text>
<text text-anchor="start" x="287.5" y="-59" font-family="Helvetica,sans-Serif" font-size="10.00">KeyNotFoundException</text>
<text text-anchor="start" x="342" y="-44" font-family="Helvetica,sans-Serif" font-size="10.00"> </text>
<text text-anchor="start" x="258" y="-29" font-family="Helvetica,sans-Serif" font-size="10.00">+</text>
<text text-anchor="start" x="289.5" y="-29" font-family="Helvetica,sans-Serif" font-size="10.00">KeyNotFoundException()</text>
<text text-anchor="start" x="258" y="-14" font-family="Helvetica,sans-Serif" font-size="10.00">+</text>
<text text-anchor="start" x="289.5" y="-14" font-family="Helvetica,sans-Serif" font-size="10.00">KeyNotFoundException()</text>
<polygon fill="#666666" stroke="#666666" points="235.5,-54 235.5,-54 452.5,-54 452.5,-54 235.5,-54"/>
<polygon fill="#666666" stroke="#666666" points="235.5,-39 235.5,-39 452.5,-39 452.5,-39 235.5,-39"/>
<polygon fill="none" stroke="#666666" points="235,-7.5 235,-82.5 452,-82.5 452,-7.5 235,-7.5"/>
</a>
</g>
</g>
<!-- Node1&#45;&gt;Node3 -->
<g id="edge2_Node000001_Node000003" class="edge">
<title>Node1&#45;&gt;Node3</title>
<g id="a_edge2_Node000001_Node000003"><a xlink:title=" ">
<path fill="none" stroke="#63b8ff" d="M343.5,-115.64C343.5,-105.08 343.5,-93.37 343.5,-82.62"/>
<polygon fill="none" stroke="#63b8ff" points="340,-115.75 343.5,-125.76 347,-115.76 340,-115.75"/>
</a>
</g>
</g>
<!-- Node4 -->
<g id="Node000004" class="node">
<title>Node4</title>
<g id="a_Node000004"><a xlink:href="classio_1_1github_1_1fruitcropxl_1_1config_1_1util_1_1exceptions_1_1TypeNotFoundException.html" target="_top" xlink:title=" ">
<polygon fill="white" stroke="transparent" points="687,-90 470,-90 470,0 687,0 687,-90"/>
<text text-anchor="start" x="475.5" y="-78" font-family="Helvetica,sans-Serif" font-size="10.00">io.github.fruitcropxl.config.util.exceptions.</text>
<text text-anchor="start" x="520" y="-67" font-family="Helvetica,sans-Serif" font-size="10.00">TypeNotFoundException</text>
<text text-anchor="start" x="577" y="-52" font-family="Helvetica,sans-Serif" font-size="10.00"> </text>
<text text-anchor="start" x="492" y="-37" font-family="Helvetica,sans-Serif" font-size="10.00">+</text>
<text text-anchor="start" x="522.5" y="-37" font-family="Helvetica,sans-Serif" font-size="10.00">TypeNotFoundException()</text>
<text text-anchor="start" x="492" y="-22" font-family="Helvetica,sans-Serif" font-size="10.00">+</text>
<text text-anchor="start" x="522.5" y="-22" font-family="Helvetica,sans-Serif" font-size="10.00">TypeNotFoundException()</text>
<text text-anchor="start" x="494.5" y="-7" font-family="Helvetica,sans-Serif" font-size="10.00">&#45;</text>
<text text-anchor="start" x="522.5" y="-7" font-family="Helvetica,sans-Serif" font-size="10.00">getFormattedString()</text>
<polygon fill="#666666" stroke="#666666" points="470.5,-62 470.5,-62 687.5,-62 687.5,-62 470.5,-62"/>
<polygon fill="#666666" stroke="#666666" points="470.5,-47 470.5,-47 687.5,-47 687.5,-47 470.5,-47"/>
<polygon fill="none" stroke="#666666" points="470,0 470,-90 687,-90 687,0 470,0"/>
</a>
</g>
</g>
<!-- Node1&#45;&gt;Node4 -->
<g id="edge3_Node000001_Node000004" class="edge">
<title>Node1&#45;&gt;Node4</title>
<g id="a_edge3_Node000001_Node000004"><a xlink:title=" ">
<path fill="none" stroke="#63b8ff" d="M402.84,-123.37C425.7,-113.3 452.48,-101.5 478.15,-90.2"/>
<polygon fill="none" stroke="#63b8ff" points="401.37,-120.19 393.63,-127.42 404.19,-126.6 401.37,-120.19"/>
</a>
</g>
</g>
</g>
</svg>
