<?xml version="1.0" encoding="UTF-8" standalone="no"?>
<!DOCTYPE svg PUBLIC "-//W3C//DTD SVG 1.1//EN"
 "http://www.w3.org/Graphics/SVG/1.1/DTD/svg11.dtd">
<!-- Generated by graphviz version 2.43.0 (0)
 -->
<!-- Title: io.github.fruitcropxl.config.params.structures.CategoryStore.getBoolean Pages: 1 -->
<svg width="1021pt" height="86pt"
 viewBox="0.00 0.00 1021.00 86.00" xmlns="http://www.w3.org/2000/svg" xmlns:xlink="http://www.w3.org/1999/xlink">
<g id="graph0" class="graph" transform="scale(1 1) rotate(0) translate(4 82)">
<title>io.github.fruitcropxl.config.params.structures.CategoryStore.getBoolean</title>
<!-- Node1 -->
<g id="Node000001" class="node">
<title>Node1</title>
<g id="a_Node000001"><a xlink:title=" ">
<polygon fill="#999999" stroke="#666666" points="239,-54 0,-54 0,-24 239,-24 239,-54"/>
<text text-anchor="start" x="8" y="-42" font-family="Helvetica,sans-Serif" font-size="10.00">io.github.fruitcropxl.config.params.structures.</text>
<text text-anchor="middle" x="119.5" y="-31" font-family="Helvetica,sans-Serif" font-size="10.00">CategoryStore.getBoolean</text>
</a>
</g>
</g>
<!-- Node2 -->
<g id="Node000002" class="node">
<title>Node2</title>
<g id="a_Node000002"><a xlink:href="classio_1_1github_1_1fruitcropxl_1_1config_1_1params_1_1ParamCategory_a921d6a429ed8e962a2106109d812796f.html#a921d6a429ed8e962a2106109d812796f" target="_top" xlink:title=" ">
<polygon fill="white" stroke="#666666" points="488.5,-78 300.5,-78 300.5,-48 488.5,-48 488.5,-78"/>
<text text-anchor="start" x="308.5" y="-66" font-family="Helvetica,sans-Serif" font-size="10.00">io.github.fruitcropxl.config.params.</text>
<text text-anchor="middle" x="394.5" y="-55" font-family="Helvetica,sans-Serif" font-size="10.00">ParamCategory.getBoolean</text>
</a>
</g>
</g>
<!-- Node1&#45;&gt;Node2 -->
<g id="edge1_Node000001_Node000002" class="edge">
<title>Node1&#45;&gt;Node2</title>
<g id="a_edge1_Node000001_Node000002"><a xlink:title=" ">
<path fill="none" stroke="#63b8ff" d="M239.05,-49.42C255.97,-50.91 273.27,-52.43 289.87,-53.89"/>
<polygon fill="#63b8ff" stroke="#63b8ff" points="289.85,-57.4 300.11,-54.79 290.46,-50.43 289.85,-57.4"/>
</a>
</g>
</g>
<!-- Node3 -->
<g id="Node000003" class="node">
<title>Node3</title>
<g id="a_Node000003"><a xlink:href="classio_1_1github_1_1fruitcropxl_1_1config_1_1params_1_1structures_1_1CategoryStore_aa90095e4111da0b9c60d098de4a89a4f.html#aa90095e4111da0b9c60d098de4a89a4f" target="_top" xlink:title=" ">
<polygon fill="white" stroke="#666666" points="514,-30 275,-30 275,0 514,0 514,-30"/>
<text text-anchor="start" x="283" y="-18" font-family="Helvetica,sans-Serif" font-size="10.00">io.github.fruitcropxl.config.params.structures.</text>
<text text-anchor="middle" x="394.5" y="-7" font-family="Helvetica,sans-Serif" font-size="10.00">CategoryStore.validateFlattenedAccess</text>
</a>
</g>
</g>
<!-- Node1&#45;&gt;Node3 -->
<g id="edge2_Node000001_Node000003" class="edge">
<title>Node1&#45;&gt;Node3</title>
<g id="a_edge2_Node000001_Node000003"><a xlink:title=" ">
<path fill="none" stroke="#63b8ff" d="M239.05,-28.58C247.53,-27.83 256.11,-27.08 264.64,-26.33"/>
<polygon fill="#63b8ff" stroke="#63b8ff" points="264.98,-29.81 274.63,-25.45 264.37,-22.84 264.98,-29.81"/>
</a>
</g>
</g>
<!-- Node4 -->
<g id="Node000004" class="node">
<title>Node4</title>
<g id="a_Node000004"><a xlink:href="classio_1_1github_1_1fruitcropxl_1_1config_1_1params_1_1structures_1_1CategoryStore_a9b2ec8a2beb1fd75ac2fb60a9389ac84.html#a9b2ec8a2beb1fd75ac2fb60a9389ac84" target="_top" xlink:title=" ">
<polygon fill="white" stroke="#666666" points="789,-52 550,-52 550,-22 789,-22 789,-52"/>
<text text-anchor="start" x="558" y="-40" font-family="Helvetica,sans-Serif" font-size="10.00">io.github.fruitcropxl.config.params.structures.</text>
<text text-anchor="middle" x="669.5" y="-29" font-family="Helvetica,sans-Serif" font-size="10.00">CategoryStore.getCategoryWithParam</text>
</a>
</g>
</g>
<!-- Node3&#45;&gt;Node4 -->
<g id="edge3_Node000003_Node000004" class="edge">
<title>Node3&#45;&gt;Node4</title>
<g id="a_edge3_Node000003_Node000004"><a xlink:title=" ">
<path fill="none" stroke="#63b8ff" d="M514.05,-24.55C522.53,-25.24 531.11,-25.93 539.64,-26.62"/>
<polygon fill="#63b8ff" stroke="#63b8ff" points="539.39,-30.11 549.63,-27.42 539.95,-23.13 539.39,-30.11"/>
</a>
</g>
</g>
<!-- Node5 -->
<g id="Node000005" class="node">
<title>Node5</title>
<g id="a_Node000005"><a xlink:href="classio_1_1github_1_1fruitcropxl_1_1config_1_1params_1_1ParamCategory_ad96823e990040d8e36517b130dd87b74.html#ad96823e990040d8e36517b130dd87b74" target="_top" xlink:title="Get generic Parameter with the given key.">
<polygon fill="white" stroke="#666666" points="1013,-30 825,-30 825,0 1013,0 1013,-30"/>
<text text-anchor="start" x="833" y="-18" font-family="Helvetica,sans-Serif" font-size="10.00">io.github.fruitcropxl.config.params.</text>
<text text-anchor="middle" x="919" y="-7" font-family="Helvetica,sans-Serif" font-size="10.00">ParamCategory.getParameter</text>
</a>
</g>
</g>
<!-- Node3&#45;&gt;Node5 -->
<g id="edge5_Node000003_Node000005" class="edge">
<title>Node3&#45;&gt;Node5</title>
<g id="a_edge5_Node000003_Node000005"><a xlink:title=" ">
<path fill="none" stroke="#63b8ff" d="M514.01,-13.31C526.17,-13.18 538.33,-13.08 550,-13 656.22,-12.31 682.78,-12.18 789,-13 797.37,-13.06 806.05,-13.15 814.76,-13.26"/>
<polygon fill="#63b8ff" stroke="#63b8ff" points="814.95,-16.76 824.99,-13.39 815.04,-9.76 814.95,-16.76"/>
</a>
</g>
</g>
<!-- Node4&#45;&gt;Node5 -->
<g id="edge4_Node000004_Node000005" class="edge">
<title>Node4&#45;&gt;Node5</title>
<g id="a_edge4_Node000004_Node000005"><a xlink:title=" ">
<path fill="none" stroke="#63b8ff" d="M789.18,-26.45C797.64,-25.7 806.14,-24.94 814.51,-24.2"/>
<polygon fill="#63b8ff" stroke="#63b8ff" points="815,-27.67 824.65,-23.3 814.38,-20.7 815,-27.67"/>
</a>
</g>
</g>
</g>
</svg>
