<?xml version="1.0" encoding="UTF-8" standalone="no"?>
<!DOCTYPE svg PUBLIC "-//W3C//DTD SVG 1.1//EN"
 "http://www.w3.org/Graphics/SVG/1.1/DTD/svg11.dtd">
<!-- Generated by graphviz version 2.43.0 (0)
 -->
<!-- Title: fspm.config.params.groups.DocumentHybridCategoryNameGroup.parse Pages: 1 -->
<!--zoomable 382 -->
<svg id="main" version="1.1" xmlns="http://www.w3.org/2000/svg" xmlns:xlink="http://www.w3.org/1999/xlink" xml:space="preserve" onload="init(evt)">
<style type="text/css"><![CDATA[
.edge:hover path { stroke: red; }
.edge:hover polygon { stroke: red; fill: red; }
]]></style>
<script type="text/javascript"><![CDATA[
var edges = document.getElementsByTagName('g');
if (edges && edges.length) {
  for (var i=0;i<edges.length;i++) {
    if (edges[i].id.substr(0,4)=='edge') {
      edges[i].setAttribute('class','edge');
    }
  }
}
]]></script>
        <defs>
                <circle id="rim" cx="0" cy="0" r="7"/>
                <circle id="rim2" cx="0" cy="0" r="3.5"/>
                <g id="zoomPlus">
                        <use xlink:href="#rim" fill="#404040">
                                <set attributeName="fill" to="#808080" begin="zoomplus.mouseover" end="zoomplus.mouseout"/>
                        </use>
                        <path d="M-4,0h8M0,-4v8" fill="none" stroke="white" stroke-width="1.5" pointer-events="none"/>
                </g>
                <g id="zoomMin">
                        <use xlink:href="#rim" fill="#404040">
                                <set attributeName="fill" to="#808080" begin="zoomminus.mouseover" end="zoomminus.mouseout"/>
                        </use>
                        <path d="M-4,0h8" fill="none" stroke="white" stroke-width="1.5" pointer-events="none"/>
                </g>
                <g id="dirArrow">
                        <path fill="none" stroke="white" stroke-width="1.5" d="M0,-3.0v7 M-2.5,-0.5L0,-3.0L2.5,-0.5"/>
                </g>
               <g id="resetDef">
                       <use xlink:href="#rim2" fill="#404040">
                               <set attributeName="fill" to="#808080" begin="reset.mouseover" end="reset.mouseout"/>
                       </use>
               </g>
        </defs>

<script type="text/javascript">
var viewWidth = 879;
var viewHeight = 382;
var sectionId = 'dynsection-0';
</script>
<script xlink:href="svgpan.js"/>
<svg id="graph" class="graph">
<g id="viewport">
<title>fspm.config.params.groups.DocumentHybridCategoryNameGroup.parse</title>
<!-- Node1 -->
<g id="node1" class="node">
<title>Node1</title>
<g id="a_node1"><a xlink:title=" ">
<polygon fill="#bfbfbf" stroke="black" points="0,-208.5 0,-238.5 232,-238.5 232,-208.5 0,-208.5"/>
<text text-anchor="start" x="8" y="-226.5" font-family="Helvetica,sans-Serif" font-size="10.00">fspm.config.params.groups.</text>
<text text-anchor="middle" x="116" y="-215.5" font-family="Helvetica,sans-Serif" font-size="10.00">DocumentHybridCategoryNameGroup.parse</text>
</a>
</g>
</g>
<!-- Node2 -->
<g id="node2" class="node">
<title>Node2</title>
<g id="a_node2"><a xlink:href="classfspm_1_1config_1_1params_1_1groups_1_1DocumentHybridCategoryNameGroup_adeb8b42ab881c8aa421286977876e6d2.html#adeb8b42ab881c8aa421286977876e6d2" target="_top" xlink:title=" ">
<polygon fill="none" stroke="black" points="268,-258 268,-299 473,-299 473,-258 268,-258"/>
<text text-anchor="start" x="276" y="-287" font-family="Helvetica,sans-Serif" font-size="10.00">fspm.config.params.groups.</text>
<text text-anchor="start" x="276" y="-276" font-family="Helvetica,sans-Serif" font-size="10.00">DocumentHybridCategoryNameGroup.</text>
<text text-anchor="middle" x="370.5" y="-265" font-family="Helvetica,sans-Serif" font-size="10.00">DocumentHybridCategoryNameGroup</text>
</a>
</g>
</g>
<!-- Node1&#45;&gt;Node2 -->
<g id="edge1" class="edge">
<title>Node1&#45;&gt;Node2</title>
<path fill="none" stroke="midnightblue" d="M186,-238.53C210.45,-243.85 238.53,-249.97 265.25,-255.79"/>
<polygon fill="midnightblue" stroke="midnightblue" points="264.51,-259.21 275.03,-257.92 266,-252.37 264.51,-259.21"/>
</g>
<!-- Node3 -->
<g id="node3" class="node">
<title>Node3</title>
<g id="a_node3"><a xlink:href="classfspm_1_1config_1_1params_1_1structures_1_1CategoryStore_a5b1316078bc6e936f6b443d6026bbdf6.html#a5b1316078bc6e936f6b443d6026bbdf6" target="_top" xlink:title=" ">
<polygon fill="none" stroke="black" points="286.5,-208.5 286.5,-238.5 454.5,-238.5 454.5,-208.5 286.5,-208.5"/>
<text text-anchor="start" x="294.5" y="-226.5" font-family="Helvetica,sans-Serif" font-size="10.00">fspm.config.params.structures.</text>
<text text-anchor="middle" x="370.5" y="-215.5" font-family="Helvetica,sans-Serif" font-size="10.00">CategoryStore.parse</text>
</a>
</g>
</g>
<!-- Node1&#45;&gt;Node3 -->
<g id="edge2" class="edge">
<title>Node1&#45;&gt;Node3</title>
<path fill="none" stroke="midnightblue" d="M232.17,-223.5C246.82,-223.5 261.67,-223.5 275.93,-223.5"/>
<polygon fill="midnightblue" stroke="midnightblue" points="276.19,-227 286.19,-223.5 276.19,-220 276.19,-227"/>
</g>
<!-- Node10 -->
<g id="node10" class="node">
<title>Node10</title>
<g id="a_node10"><a xlink:href="classfspm_1_1config_1_1params_1_1structures_1_1TableStore_aac5f94da214bb70c4221c30300916d03.html#aac5f94da214bb70c4221c30300916d03" target="_top" xlink:title=" ">
<polygon fill="none" stroke="black" points="286.5,-135.5 286.5,-165.5 454.5,-165.5 454.5,-135.5 286.5,-135.5"/>
<text text-anchor="start" x="294.5" y="-153.5" font-family="Helvetica,sans-Serif" font-size="10.00">fspm.config.params.structures.</text>
<text text-anchor="middle" x="370.5" y="-142.5" font-family="Helvetica,sans-Serif" font-size="10.00">TableStore.parse</text>
</a>
</g>
</g>
<!-- Node1&#45;&gt;Node10 -->
<g id="edge10" class="edge">
<title>Node1&#45;&gt;Node10</title>
<path fill="none" stroke="midnightblue" d="M169.01,-208.46C209.33,-196.81 265.3,-180.62 307.87,-168.32"/>
<polygon fill="midnightblue" stroke="midnightblue" points="308.92,-171.66 317.56,-165.52 306.98,-164.93 308.92,-171.66"/>
</g>
<!-- Node4 -->
<g id="node4" class="node">
<title>Node4</title>
<g id="a_node4"><a xlink:href="classfspm_1_1config_1_1params_1_1structures_1_1CategoryStore_a848e878d6fbdff21c30ac6cfd8336ecb.html#a848e878d6fbdff21c30ac6cfd8336ecb" target="_top" xlink:title="Adds a new category.">
<polygon fill="none" stroke="black" points="509,-245.5 509,-275.5 677,-275.5 677,-245.5 509,-245.5"/>
<text text-anchor="start" x="517" y="-263.5" font-family="Helvetica,sans-Serif" font-size="10.00">fspm.config.params.structures.</text>
<text text-anchor="middle" x="593" y="-252.5" font-family="Helvetica,sans-Serif" font-size="10.00">CategoryStore.addCategory</text>
</a>
</g>
</g>
<!-- Node3&#45;&gt;Node4 -->
<g id="edge3" class="edge">
<title>Node3&#45;&gt;Node4</title>
<path fill="none" stroke="midnightblue" d="M454.55,-237.44C468.93,-239.85 483.97,-242.37 498.61,-244.83"/>
<polygon fill="midnightblue" stroke="midnightblue" points="498.22,-248.31 508.66,-246.52 499.38,-241.41 498.22,-248.31"/>
</g>
<!-- Node6 -->
<g id="node6" class="node">
<title>Node6</title>
<g id="a_node6"><a xlink:href="classfspm_1_1config_1_1params_1_1ParamCategory_a142ca4734877ac3625b6b95d8b81055a.html#a142ca4734877ac3625b6b95d8b81055a" target="_top" xlink:title="Adds a new Parameter to the category.">
<polygon fill="none" stroke="black" points="519.5,-343.5 519.5,-373.5 666.5,-373.5 666.5,-343.5 519.5,-343.5"/>
<text text-anchor="start" x="527.5" y="-361.5" font-family="Helvetica,sans-Serif" font-size="10.00">fspm.config.params.Param</text>
<text text-anchor="middle" x="593" y="-350.5" font-family="Helvetica,sans-Serif" font-size="10.00">Category.addParameter</text>
</a>
</g>
</g>
<!-- Node3&#45;&gt;Node6 -->
<g id="edge5" class="edge">
<title>Node3&#45;&gt;Node6</title>
<path fill="none" stroke="midnightblue" d="M454.56,-236.78C461.22,-239.92 467.49,-243.78 473,-248.5 504.48,-275.44 478.07,-306.93 509,-334.5 510.31,-335.67 511.67,-336.78 513.08,-337.83"/>
<polygon fill="midnightblue" stroke="midnightblue" points="511.29,-340.84 521.59,-343.31 515.08,-334.96 511.29,-340.84"/>
</g>
<!-- Node7 -->
<g id="node7" class="node">
<title>Node7</title>
<g id="a_node7"><a xlink:href="classfspm_1_1config_1_1params_1_1structures_1_1CategoryStore_a62100f06bbe486cd123f091b31f248e2.html#a62100f06bbe486cd123f091b31f248e2" target="_top" xlink:title=" ">
<polygon fill="none" stroke="black" points="509,-294.5 509,-324.5 677,-324.5 677,-294.5 509,-294.5"/>
<text text-anchor="start" x="517" y="-312.5" font-family="Helvetica,sans-Serif" font-size="10.00">fspm.config.params.structures.</text>
<text text-anchor="middle" x="593" y="-301.5" font-family="Helvetica,sans-Serif" font-size="10.00">CategoryStore.CategoryStore</text>
</a>
</g>
</g>
<!-- Node3&#45;&gt;Node7 -->
<g id="edge7" class="edge">
<title>Node3&#45;&gt;Node7</title>
<path fill="none" stroke="midnightblue" d="M451.31,-238.56C458.87,-241.34 466.23,-244.62 473,-248.5 492.91,-259.91 489.32,-273.7 509,-285.5 511.83,-287.2 514.79,-288.78 517.83,-290.26"/>
<polygon fill="midnightblue" stroke="midnightblue" points="516.6,-293.54 527.16,-294.37 519.42,-287.13 516.6,-293.54"/>
</g>
<!-- Node8 -->
<g id="node8" class="node">
<title>Node8</title>
<g id="a_node8"><a xlink:href="classfspm_1_1config_1_1adapters_1_1JsonFileReader_ade656b5e0e5d950b9997ee04ec01964d.html#ade656b5e0e5d950b9997ee04ec01964d" target="_top" xlink:title="Helper function for getting root/tree node from a JSON file.">
<polygon fill="none" stroke="black" points="518.5,-196.5 518.5,-226.5 667.5,-226.5 667.5,-196.5 518.5,-196.5"/>
<text text-anchor="start" x="526.5" y="-214.5" font-family="Helvetica,sans-Serif" font-size="10.00">fspm.config.adapters.Json</text>
<text text-anchor="middle" x="593" y="-203.5" font-family="Helvetica,sans-Serif" font-size="10.00">FileReader.getTreeFromFile</text>
</a>
</g>
</g>
<!-- Node3&#45;&gt;Node8 -->
<g id="edge8" class="edge">
<title>Node3&#45;&gt;Node8</title>
<path fill="none" stroke="midnightblue" d="M454.55,-218.98C472.1,-218.03 490.63,-217.02 508.21,-216.06"/>
<polygon fill="midnightblue" stroke="midnightblue" points="508.65,-219.54 518.44,-215.5 508.26,-212.55 508.65,-219.54"/>
</g>
<!-- Node9 -->
<g id="node9" class="node">
<title>Node9</title>
<g id="a_node9"><a xlink:href="classfspm_1_1config_1_1params_1_1ParamFactory_aadcecc67803da778c697f1b6683cd5c7.html#aadcecc67803da778c697f1b6683cd5c7" target="_top" xlink:title="Returns a concrete Parameter instance depending on the data type of the JsonNode passed in.">
<polygon fill="none" stroke="black" points="519.5,-147.5 519.5,-177.5 666.5,-177.5 666.5,-147.5 519.5,-147.5"/>
<text text-anchor="start" x="527.5" y="-165.5" font-family="Helvetica,sans-Serif" font-size="10.00">fspm.config.params.Param</text>
<text text-anchor="middle" x="593" y="-154.5" font-family="Helvetica,sans-Serif" font-size="10.00">Factory.parseParameter</text>
</a>
</g>
</g>
<!-- Node3&#45;&gt;Node9 -->
<g id="edge9" class="edge">
<title>Node3&#45;&gt;Node9</title>
<path fill="none" stroke="midnightblue" d="M425.72,-208.5C456.58,-199.96 495.41,-189.22 527.78,-180.27"/>
<polygon fill="midnightblue" stroke="midnightblue" points="528.9,-183.59 537.6,-177.55 527.03,-176.84 528.9,-183.59"/>
</g>
<!-- Node5 -->
<g id="node5" class="node">
<title>Node5</title>
<g id="a_node5"><a xlink:href="classfspm_1_1util_1_1KeyElement_a653aac67328f98c1201974736671fe0d.html#a653aac67328f98c1201974736671fe0d" target="_top" xlink:title=" ">
<polygon fill="none" stroke="black" points="713,-251 713,-270 871,-270 871,-251 713,-251"/>
<text text-anchor="middle" x="792" y="-258" font-family="Helvetica,sans-Serif" font-size="10.00">fspm.util.KeyElement.getKey</text>
</a>
</g>
</g>
<!-- Node4&#45;&gt;Node5 -->
<g id="edge4" class="edge">
<title>Node4&#45;&gt;Node5</title>
<path fill="none" stroke="midnightblue" d="M677.26,-260.5C685.62,-260.5 694.13,-260.5 702.55,-260.5"/>
<polygon fill="midnightblue" stroke="midnightblue" points="702.74,-264 712.74,-260.5 702.74,-257 702.74,-264"/>
</g>
<!-- Node6&#45;&gt;Node5 -->
<g id="edge6" class="edge">
<title>Node6&#45;&gt;Node5</title>
<path fill="none" stroke="midnightblue" d="M654.16,-343.39C661.97,-340.77 669.77,-337.8 677,-334.5 711.9,-318.55 748.45,-293.01 770.48,-276.5"/>
<polygon fill="midnightblue" stroke="midnightblue" points="772.88,-279.07 778.72,-270.23 768.64,-273.5 772.88,-279.07"/>
</g>
<!-- Node10&#45;&gt;Node8 -->
<g id="edge14" class="edge">
<title>Node10&#45;&gt;Node8</title>
<path fill="none" stroke="midnightblue" d="M425.72,-165.5C456.58,-174.04 495.41,-184.78 527.78,-193.73"/>
<polygon fill="midnightblue" stroke="midnightblue" points="527.03,-197.16 537.6,-196.45 528.9,-190.41 527.03,-197.16"/>
</g>
<!-- Node10&#45;&gt;Node9 -->
<g id="edge15" class="edge">
<title>Node10&#45;&gt;Node9</title>
<path fill="none" stroke="midnightblue" d="M454.55,-155.02C472.3,-155.99 491.07,-157.01 508.83,-157.97"/>
<polygon fill="midnightblue" stroke="midnightblue" points="508.98,-161.49 519.15,-158.54 509.36,-154.5 508.98,-161.49"/>
</g>
<!-- Node11 -->
<g id="node11" class="node">
<title>Node11</title>
<g id="a_node11"><a xlink:href="classfspm_1_1config_1_1params_1_1ParamTable_a399e39364c1efcbbe169e6373e722c2f.html#a399e39364c1efcbbe169e6373e722c2f" target="_top" xlink:title=" ">
<polygon fill="none" stroke="black" points="519.5,-49.5 519.5,-79.5 666.5,-79.5 666.5,-49.5 519.5,-49.5"/>
<text text-anchor="start" x="527.5" y="-67.5" font-family="Helvetica,sans-Serif" font-size="10.00">fspm.config.params.Param</text>
<text text-anchor="middle" x="593" y="-56.5" font-family="Helvetica,sans-Serif" font-size="10.00">Table.add</text>
</a>
</g>
</g>
<!-- Node10&#45;&gt;Node11 -->
<g id="edge11" class="edge">
<title>Node10&#45;&gt;Node11</title>
<path fill="none" stroke="midnightblue" d="M401.57,-135.45C429.08,-122.03 471.15,-102.42 509,-88.5 514.5,-86.48 520.26,-84.51 526.06,-82.63"/>
<polygon fill="midnightblue" stroke="midnightblue" points="527.35,-85.9 535.84,-79.56 525.25,-79.22 527.35,-85.9"/>
</g>
<!-- Node12 -->
<g id="node12" class="node">
<title>Node12</title>
<g id="a_node12"><a xlink:href="classfspm_1_1config_1_1params_1_1structures_1_1TableStore_a182aacc9e4bd42a1b80c0209b92f1ed2.html#a182aacc9e4bd42a1b80c0209b92f1ed2" target="_top" xlink:title=" ">
<polygon fill="none" stroke="black" points="509,-98.5 509,-128.5 677,-128.5 677,-98.5 509,-98.5"/>
<text text-anchor="start" x="517" y="-116.5" font-family="Helvetica,sans-Serif" font-size="10.00">fspm.config.params.structures.</text>
<text text-anchor="middle" x="593" y="-105.5" font-family="Helvetica,sans-Serif" font-size="10.00">TableStore.addTable</text>
</a>
</g>
</g>
<!-- Node10&#45;&gt;Node12 -->
<g id="edge12" class="edge">
<title>Node10&#45;&gt;Node12</title>
<path fill="none" stroke="midnightblue" d="M454.55,-136.56C468.93,-134.15 483.97,-131.63 498.61,-129.17"/>
<polygon fill="midnightblue" stroke="midnightblue" points="499.38,-132.59 508.66,-127.48 498.22,-125.69 499.38,-132.59"/>
</g>
<!-- Node13 -->
<g id="node13" class="node">
<title>Node13</title>
<g id="a_node13"><a xlink:href="classfspm_1_1config_1_1params_1_1structures_1_1TableStore_a4606966af5062817b2f00def4bb36192.html#a4606966af5062817b2f00def4bb36192" target="_top" xlink:title=" ">
<polygon fill="none" stroke="black" points="509,-0.5 509,-30.5 677,-30.5 677,-0.5 509,-0.5"/>
<text text-anchor="start" x="517" y="-18.5" font-family="Helvetica,sans-Serif" font-size="10.00">fspm.config.params.structures.</text>
<text text-anchor="middle" x="593" y="-7.5" font-family="Helvetica,sans-Serif" font-size="10.00">TableStore.TableStore</text>
</a>
</g>
</g>
<!-- Node10&#45;&gt;Node13 -->
<g id="edge16" class="edge">
<title>Node10&#45;&gt;Node13</title>
<path fill="none" stroke="midnightblue" d="M386.13,-135.29C409.81,-111.51 458.94,-65.58 509,-39.5 512.56,-37.64 516.29,-35.91 520.11,-34.3"/>
<polygon fill="midnightblue" stroke="midnightblue" points="521.7,-37.44 529.74,-30.54 519.16,-30.92 521.7,-37.44"/>
</g>
<!-- Node12&#45;&gt;Node5 -->
<g id="edge13" class="edge">
<title>Node12&#45;&gt;Node5</title>
<path fill="none" stroke="midnightblue" d="M657.19,-128.64C664.11,-131.43 670.86,-134.69 677,-138.5 721.71,-166.28 760.35,-216.03 779.04,-242.61"/>
<polygon fill="midnightblue" stroke="midnightblue" points="776.24,-244.72 784.79,-250.97 782.01,-240.75 776.24,-244.72"/>
</g>
</g>
</svg>
        <g id="navigator" transform="translate(0 0)" fill="#404254">
                <rect fill="#f2f5e9" fill-opacity="0.5" stroke="#606060" stroke-width=".5" x="0" y="0" width="60" height="60"/>
                <use id="zoomplus" xlink:href="#zoomPlus" x="17" y="9" onmousedown="handleZoom(evt,'in')"/>
                <use id="zoomminus" xlink:href="#zoomMin" x="42" y="9" onmousedown="handleZoom(evt,'out')"/>
                <use id="reset" xlink:href="#resetDef" x="30" y="36" onmousedown="handleReset()"/>
                <g id="arrowUp" xlink:href="#dirArrow" transform="translate(30 24)" onmousedown="handlePan(0,-1)">
                  <use xlink:href="#rim" fill="#404040">
                        <set attributeName="fill" to="#808080" begin="arrowUp.mouseover" end="arrowUp.mouseout"/>
                  </use>
                  <path fill="none" stroke="white" stroke-width="1.5" d="M0,-3.0v7 M-2.5,-0.5L0,-3.0L2.5,-0.5"/>
                </g>
                <g id="arrowRight" xlink:href="#dirArrow" transform="rotate(90) translate(36 -43)" onmousedown="handlePan(1,0)">
                  <use xlink:href="#rim" fill="#404040">
                        <set attributeName="fill" to="#808080" begin="arrowRight.mouseover" end="arrowRight.mouseout"/>
                  </use>
                  <path fill="none" stroke="white" stroke-width="1.5" d="M0,-3.0v7 M-2.5,-0.5L0,-3.0L2.5,-0.5"/>
                </g>
                <g id="arrowDown" xlink:href="#dirArrow" transform="rotate(180) translate(-30 -48)" onmousedown="handlePan(0,1)">
                  <use xlink:href="#rim" fill="#404040">
                        <set attributeName="fill" to="#808080" begin="arrowDown.mouseover" end="arrowDown.mouseout"/>
                  </use>
                  <path fill="none" stroke="white" stroke-width="1.5" d="M0,-3.0v7 M-2.5,-0.5L0,-3.0L2.5,-0.5"/>
                </g>
                <g id="arrowLeft" xlink:href="#dirArrow" transform="rotate(270) translate(-36 17)" onmousedown="handlePan(-1,0)">
                  <use xlink:href="#rim" fill="#404040">
                        <set attributeName="fill" to="#808080" begin="arrowLeft.mouseover" end="arrowLeft.mouseout"/>
                  </use>
                  <path fill="none" stroke="white" stroke-width="1.5" d="M0,-3.0v7 M-2.5,-0.5L0,-3.0L2.5,-0.5"/>
                </g>
        </g>
        <svg viewBox="0 0 15 15" width="100%" height="30px" preserveAspectRatio="xMaxYMin meet">
         <g id="arrow_out" transform="scale(0.3 0.3)">
          <a xlink:href="classfspm_1_1config_1_1params_1_1groups_1_1DocumentHybridCategoryNameGroup_acd5745a400ce830e7f0c66532ba6b991_acd5745a400ce830e7f0c66532ba6b991_cgraph_org.svg" target="_base">
           <rect id="button" ry="5" rx="5" y="6" x="6" height="38" width="38"
                fill="#f2f5e9" fill-opacity="0.5" stroke="#606060" stroke-width="1.0"/>
           <path id="arrow"
             d="M 11.500037,31.436501 C 11.940474,20.09759 22.043105,11.32322 32.158766,21.979434 L 37.068811,17.246167 C 37.068811,17.246167 37.088388,32 37.088388,32 L 22.160133,31.978069 C 22.160133,31.978069 26.997745,27.140456 26.997745,27.140456 C 18.528582,18.264221 13.291696,25.230495 11.500037,31.436501 z"
             style="fill:#404040;"/>
          </a>
         </g>
        </svg>
</svg>
