<?xml version="1.0" encoding="UTF-8" standalone="no"?>
<!DOCTYPE svg PUBLIC "-//W3C//DTD SVG 1.1//EN"
 "http://www.w3.org/Graphics/SVG/1.1/DTD/svg11.dtd">
<!-- Generated by graphviz version 2.43.0 (0)
 -->
<!-- Title: Serializable Pages: 1 -->
<!--zoomable 684 -->

<svg id="main" version="1.1" xmlns="http://www.w3.org/2000/svg" xmlns:xlink="http://www.w3.org/1999/xlink" xml:space="preserve" onload="init(evt)">
<style type="text/css"><![CDATA[
.node, .edge {opacity: 0.7;}
.node.selected, .edge.selected {opacity: 1;}
.edge:hover path { stroke: red; }
.edge:hover polygon { stroke: red; fill: red; }
]]></style>

<defs>
  <circle id="rim" cx="0" cy="0" r="7"/>
  <circle id="rim2" cx="0" cy="0" r="3.5"/>
  <g id="zoomPlus">
    <use xlink:href="#rim" fill="#404040"><set attributeName="fill" to="#808080" begin="zoomplus.mouseover" end="zoomplus.mouseout"/></use>
    <path d="M-4,0h8M0,-4v8" fill="none" stroke="white" stroke-width="1.5" pointer-events="none"/>
  </g>
  <g id="zoomMin">
    <use xlink:href="#rim" fill="#404040"><set attributeName="fill" to="#808080" begin="zoomminus.mouseover" end="zoomminus.mouseout"/></use>
    <path d="M-4,0h8" fill="none" stroke="white" stroke-width="1.5" pointer-events="none"/>
  </g>
  <g id="arrowUp" transform="translate(30 24)">
    <use xlink:href="#rim"/>
    <path pointer-events="none" fill="none" stroke="white" stroke-width="1.5" d="M0,-3.0v7 M-2.5,-0.5L0,-3.0L2.5,-0.5"/>
  </g>
  <g id="arrowRight" transform="rotate(90) translate(36 -43)">
    <use xlink:href="#rim"/>
    <path pointer-events="none" fill="none" stroke="white" stroke-width="1.5" d="M0,-3.0v7 M-2.5,-0.5L0,-3.0L2.5,-0.5"/>
  </g>
  <g id="arrowDown" transform="rotate(180) translate(-30 -48)">
    <use xlink:href="#rim"/>
    <path pointer-events="none" fill="none" stroke="white" stroke-width="1.5" d="M0,-3.0v7 M-2.5,-0.5L0,-3.0L2.5,-0.5"/>
  </g>
  <g id="arrowLeft" transform="rotate(270) translate(-36 17)">
    <use xlink:href="#rim"/>
    <path pointer-events="none" fill="none" stroke="white" stroke-width="1.5" d="M0,-3.0v7 M-2.5,-0.5L0,-3.0L2.5,-0.5"/>
  </g>
  <g id="resetDef">
    <use xlink:href="#rim2" fill="#404040"><set attributeName="fill" to="#808080" begin="reset.mouseover" end="reset.mouseout"/></use>
  </g>
</defs>
<script type="application/ecmascript">
var viewWidth = 581;
var viewHeight = 684;
var sectionId = 'dynsection-0';
</script>
<script type="application/ecmascript" xlink:href="svg.min.js"/>
<svg id="graph" class="graph">
<g id="viewport">
<title>Serializable</title>
<!-- Node1 -->
<g id="Node000001" class="node">
<title>Node1</title>
<g id="a_Node000001"><a xlink:title=" ">
<polygon fill="#999999" stroke="transparent" points="311,-676 243,-676 243,-627 311,-627 311,-676"/>
<text text-anchor="start" x="248" y="-663.5" font-family="Helvetica,sans-Serif" font-size="10.00">Serializable</text>
<text text-anchor="start" x="275" y="-648.5" font-family="Helvetica,sans-Serif" font-size="10.00"> </text>
<text text-anchor="start" x="275" y="-633.5" font-family="Helvetica,sans-Serif" font-size="10.00"> </text>
<polygon fill="#666666" stroke="#666666" points="243,-658.5 243,-658.5 311,-658.5 311,-658.5 243,-658.5"/>
<polygon fill="#666666" stroke="#666666" points="243,-643.5 243,-643.5 311,-643.5 311,-643.5 243,-643.5"/>
<polygon fill="none" stroke="#666666" points="243,-627 243,-676 311,-676 311,-627 243,-627"/>
</a>
</g>
</g>
<!-- Node2 -->
<g id="Node000002" class="node">
<title>Node2</title>
<g id="a_Node000002"><a xlink:href="classio_1_1github_1_1fruitcropxl_1_1config_1_1Config.html" target="_top" xlink:title="Configuration class for storing input configurations to be used in simulations.">
<polygon fill="white" stroke="transparent" points="142,-591 0,-591 0,-396 142,-396 142,-591"/>
<text text-anchor="start" x="5" y="-578.5" font-family="Helvetica,sans-Serif" font-size="10.00">io.github.fruitcropxl.config.</text>
<text text-anchor="start" x="55.5" y="-567.5" font-family="Helvetica,sans-Serif" font-size="10.00">Config</text>
<text text-anchor="start" x="18" y="-552.5" font-family="Helvetica,sans-Serif" font-size="10.00">&#45;</text>
<text text-anchor="start" x="40" y="-552.5" font-family="Helvetica,sans-Serif" font-size="10.00">paramGroups</text>
<text text-anchor="start" x="18" y="-537.5" font-family="Helvetica,sans-Serif" font-size="10.00">&#45;</text>
<text text-anchor="start" x="40" y="-537.5" font-family="Helvetica,sans-Serif" font-size="10.00">instance</text>
<text text-anchor="start" x="15.5" y="-522.5" font-family="Helvetica,sans-Serif" font-size="10.00">+</text>
<text text-anchor="start" x="40" y="-522.5" font-family="Helvetica,sans-Serif" font-size="10.00">reset()</text>
<text text-anchor="start" x="15.5" y="-507.5" font-family="Helvetica,sans-Serif" font-size="10.00">+</text>
<text text-anchor="start" x="40" y="-507.5" font-family="Helvetica,sans-Serif" font-size="10.00">addGroup()</text>
<text text-anchor="start" x="15.5" y="-492.5" font-family="Helvetica,sans-Serif" font-size="10.00">+</text>
<text text-anchor="start" x="40" y="-492.5" font-family="Helvetica,sans-Serif" font-size="10.00">addGroup()</text>
<text text-anchor="start" x="15.5" y="-477.5" font-family="Helvetica,sans-Serif" font-size="10.00">+</text>
<text text-anchor="start" x="40" y="-477.5" font-family="Helvetica,sans-Serif" font-size="10.00">addGroup()</text>
<text text-anchor="start" x="15.5" y="-462.5" font-family="Helvetica,sans-Serif" font-size="10.00">+</text>
<text text-anchor="start" x="40" y="-462.5" font-family="Helvetica,sans-Serif" font-size="10.00">removeGroup()</text>
<text text-anchor="start" x="15.5" y="-447.5" font-family="Helvetica,sans-Serif" font-size="10.00">+</text>
<text text-anchor="start" x="40" y="-447.5" font-family="Helvetica,sans-Serif" font-size="10.00">getInstance()</text>
<text text-anchor="start" x="15.5" y="-432.5" font-family="Helvetica,sans-Serif" font-size="10.00">~</text>
<text text-anchor="start" x="40" y="-432.5" font-family="Helvetica,sans-Serif" font-size="10.00">getGroup()</text>
<text text-anchor="start" x="18" y="-417.5" font-family="Helvetica,sans-Serif" font-size="10.00">&#45;</text>
<text text-anchor="start" x="40" y="-417.5" font-family="Helvetica,sans-Serif" font-size="10.00">Config()</text>
<text text-anchor="start" x="18" y="-402.5" font-family="Helvetica,sans-Serif" font-size="10.00">&#45;</text>
<text text-anchor="start" x="40" y="-402.5" font-family="Helvetica,sans-Serif" font-size="10.00">addGroup()</text>
<polygon fill="#666666" stroke="#666666" points="0,-562.5 0,-562.5 142,-562.5 142,-562.5 0,-562.5"/>
<polygon fill="#666666" stroke="#666666" points="0,-532.5 0,-532.5 38,-532.5 38,-532.5 0,-532.5"/>
<polygon fill="#666666" stroke="#666666" points="38,-532.5 38,-532.5 142,-532.5 142,-532.5 38,-532.5"/>
<polygon fill="none" stroke="#666666" points="0,-396 0,-591 142,-591 142,-396 0,-396"/>
</a>
</g>
</g>
<!-- Node1&#45;&gt;Node2 -->
<g id="edge1_Node000001_Node000002" class="edge">
<title>Node1&#45;&gt;Node2</title>
<g id="a_edge1_Node000001_Node000002"><a xlink:title=" ">
<path fill="none" stroke="#63b8ff" d="M233.61,-635.21C208.3,-625.04 176.61,-610.04 152,-591 148.63,-588.39 145.3,-585.62 142.02,-582.72"/>
<polygon fill="none" stroke="#63b8ff" points="232.38,-638.49 242.97,-638.88 234.93,-631.97 232.38,-638.49"/>
</a>
</g>
</g>
<!-- Node3 -->
<g id="Node000003" class="node">
<title>Node3</title>
<g id="a_Node000003"><a xlink:href="classio_1_1github_1_1fruitcropxl_1_1config_1_1params_1_1structures_1_1ParamStructure.html" target="_top" xlink:title="Represents a structure found in ParamGroups that store parameters.">
<polygon fill="white" stroke="transparent" points="393.5,-531 160.5,-531 160.5,-456 393.5,-456 393.5,-531"/>
<text text-anchor="start" x="166" y="-518.5" font-family="Helvetica,sans-Serif" font-size="10.00">io.github.fruitcropxl.config.params.structures.</text>
<text text-anchor="start" x="239.5" y="-507.5" font-family="Helvetica,sans-Serif" font-size="10.00">ParamStructure</text>
<text text-anchor="start" x="199.5" y="-492.5" font-family="Helvetica,sans-Serif" font-size="10.00">&#45;</text>
<text text-anchor="start" x="242" y="-492.5" font-family="Helvetica,sans-Serif" font-size="10.00">groupKey</text>
<text text-anchor="start" x="197" y="-477.5" font-family="Helvetica,sans-Serif" font-size="10.00">+</text>
<text text-anchor="start" x="242" y="-477.5" font-family="Helvetica,sans-Serif" font-size="10.00">ParamStructure()</text>
<text text-anchor="start" x="197" y="-462.5" font-family="Helvetica,sans-Serif" font-size="10.00">+</text>
<text text-anchor="start" x="242" y="-462.5" font-family="Helvetica,sans-Serif" font-size="10.00">getGroupKey()</text>
<polygon fill="#666666" stroke="#666666" points="161,-502.5 161,-502.5 394,-502.5 394,-502.5 161,-502.5"/>
<polygon fill="#666666" stroke="#666666" points="161,-487.5 161,-487.5 240,-487.5 240,-487.5 161,-487.5"/>
<polygon fill="#666666" stroke="#666666" points="240,-487.5 240,-487.5 394,-487.5 394,-487.5 240,-487.5"/>
<polygon fill="none" stroke="#666666" points="160.5,-456 160.5,-531 393.5,-531 393.5,-456 160.5,-456"/>
</a>
</g>
</g>
<!-- Node1&#45;&gt;Node3 -->
<g id="edge2_Node000001_Node000003" class="edge">
<title>Node1&#45;&gt;Node3</title>
<g id="a_edge2_Node000001_Node000003"><a xlink:title=" ">
<path fill="none" stroke="#63b8ff" d="M277,-616.62C277,-591.42 277,-557.06 277,-531.21"/>
<polygon fill="none" stroke="#63b8ff" points="273.5,-616.81 277,-626.81 280.5,-616.81 273.5,-616.81"/>
</a>
</g>
</g>
<!-- Node6 -->
<g id="Node000006" class="node">
<title>Node6</title>
<g id="a_Node000006"><a xlink:href="classio_1_1github_1_1fruitcropxl_1_1config_1_1util_1_1KeyElement.html" target="_top" xlink:title="Represents an element which contains a key.">
<polygon fill="white" stroke="transparent" points="572.5,-531 411.5,-531 411.5,-456 572.5,-456 572.5,-531"/>
<text text-anchor="start" x="417" y="-518.5" font-family="Helvetica,sans-Serif" font-size="10.00">io.github.fruitcropxl.config.util.</text>
<text text-anchor="start" x="463" y="-507.5" font-family="Helvetica,sans-Serif" font-size="10.00">KeyElement</text>
<text text-anchor="start" x="436.5" y="-492.5" font-family="Helvetica,sans-Serif" font-size="10.00">&#45;</text>
<text text-anchor="start" x="465" y="-492.5" font-family="Helvetica,sans-Serif" font-size="10.00">key</text>
<text text-anchor="start" x="434" y="-477.5" font-family="Helvetica,sans-Serif" font-size="10.00">+</text>
<text text-anchor="start" x="465" y="-477.5" font-family="Helvetica,sans-Serif" font-size="10.00">KeyElement()</text>
<text text-anchor="start" x="434" y="-462.5" font-family="Helvetica,sans-Serif" font-size="10.00">+</text>
<text text-anchor="start" x="465" y="-462.5" font-family="Helvetica,sans-Serif" font-size="10.00">getKey()</text>
<polygon fill="#666666" stroke="#666666" points="412,-502.5 412,-502.5 573,-502.5 573,-502.5 412,-502.5"/>
<polygon fill="#666666" stroke="#666666" points="412,-487.5 412,-487.5 463,-487.5 463,-487.5 412,-487.5"/>
<polygon fill="#666666" stroke="#666666" points="463,-487.5 463,-487.5 573,-487.5 573,-487.5 463,-487.5"/>
<polygon fill="none" stroke="#666666" points="411.5,-456 411.5,-531 572.5,-531 572.5,-456 411.5,-456"/>
</a>
</g>
</g>
<!-- Node1&#45;&gt;Node6 -->
<g id="edge5_Node000001_Node000006" class="edge">
<title>Node1&#45;&gt;Node6</title>
<g id="a_edge5_Node000001_Node000006"><a xlink:title=" ">
<path fill="none" stroke="#63b8ff" d="M320.42,-634.85C345.82,-624.54 377.76,-609.54 403,-591 425.96,-574.14 447.72,-550.73 463.97,-531.2"/>
<polygon fill="none" stroke="#63b8ff" points="319.04,-631.63 311.03,-638.56 321.62,-638.14 319.04,-631.63"/>
</a>
</g>
</g>
<!-- Node4 -->
<g id="Node000004" class="node">
<title>Node4</title>
<g id="a_Node000004"><a xlink:href="classio_1_1github_1_1fruitcropxl_1_1config_1_1params_1_1structures_1_1CategoryStore.html" target="_top" xlink:title="Represents the collection of categories in a document.">
<polygon fill="white" stroke="transparent" points="267.5,-360 34.5,-360 34.5,0 267.5,0 267.5,-360"/>
<text text-anchor="start" x="40" y="-348" font-family="Helvetica,sans-Serif" font-size="10.00">io.github.fruitcropxl.config.params.structures.</text>
<text text-anchor="start" x="116.5" y="-337" font-family="Helvetica,sans-Serif" font-size="10.00">CategoryStore</text>
<text text-anchor="start" x="60" y="-322" font-family="Helvetica,sans-Serif" font-size="10.00">+</text>
<text text-anchor="start" x="94" y="-322" font-family="Helvetica,sans-Serif" font-size="10.00">CATEGORIES_HEADER</text>
<text text-anchor="start" x="62.5" y="-307" font-family="Helvetica,sans-Serif" font-size="10.00">&#45;</text>
<text text-anchor="start" x="94" y="-307" font-family="Helvetica,sans-Serif" font-size="10.00">categoryContext</text>
<text text-anchor="start" x="62.5" y="-292" font-family="Helvetica,sans-Serif" font-size="10.00">&#45;</text>
<text text-anchor="start" x="94" y="-292" font-family="Helvetica,sans-Serif" font-size="10.00">categories</text>
<text text-anchor="start" x="62.5" y="-277" font-family="Helvetica,sans-Serif" font-size="10.00">&#45;</text>
<text text-anchor="start" x="94" y="-277" font-family="Helvetica,sans-Serif" font-size="10.00">useFlattenedCategories</text>
<text text-anchor="start" x="60" y="-262" font-family="Helvetica,sans-Serif" font-size="10.00">+</text>
<text text-anchor="start" x="94" y="-262" font-family="Helvetica,sans-Serif" font-size="10.00">CategoryStore()</text>
<text text-anchor="start" x="60" y="-247" font-family="Helvetica,sans-Serif" font-size="10.00">+</text>
<text text-anchor="start" x="94" y="-247" font-family="Helvetica,sans-Serif" font-size="10.00">addCategory()</text>
<text text-anchor="start" x="60" y="-232" font-family="Helvetica,sans-Serif" font-size="10.00">+</text>
<text text-anchor="start" x="94" y="-232" font-family="Helvetica,sans-Serif" font-size="10.00">getCategory()</text>
<text text-anchor="start" x="60" y="-217" font-family="Helvetica,sans-Serif" font-size="10.00">+</text>
<text text-anchor="start" x="94" y="-217" font-family="Helvetica,sans-Serif" font-size="10.00">getCategoryWithParam()</text>
<text text-anchor="start" x="60" y="-202" font-family="Helvetica,sans-Serif" font-size="10.00">+</text>
<text text-anchor="start" x="94" y="-202" font-family="Helvetica,sans-Serif" font-size="10.00">setCategoryContext()</text>
<text text-anchor="start" x="60" y="-187" font-family="Helvetica,sans-Serif" font-size="10.00">+</text>
<text text-anchor="start" x="94" y="-187" font-family="Helvetica,sans-Serif" font-size="10.00">setFlattenedAccess()</text>
<text text-anchor="start" x="60" y="-172" font-family="Helvetica,sans-Serif" font-size="10.00">+</text>
<text text-anchor="start" x="94" y="-172" font-family="Helvetica,sans-Serif" font-size="10.00">getBoolean()</text>
<text text-anchor="start" x="60" y="-157" font-family="Helvetica,sans-Serif" font-size="10.00">+</text>
<text text-anchor="start" x="94" y="-157" font-family="Helvetica,sans-Serif" font-size="10.00">getBoolean()</text>
<text text-anchor="start" x="60" y="-142" font-family="Helvetica,sans-Serif" font-size="10.00">+</text>
<text text-anchor="start" x="94" y="-142" font-family="Helvetica,sans-Serif" font-size="10.00">getString()</text>
<text text-anchor="start" x="60" y="-127" font-family="Helvetica,sans-Serif" font-size="10.00">+</text>
<text text-anchor="start" x="94" y="-127" font-family="Helvetica,sans-Serif" font-size="10.00">getString()</text>
<text text-anchor="start" x="94" y="-112" font-family="Helvetica,sans-Serif" font-size="10.00">and 19 more...</text>
<text text-anchor="start" x="60" y="-97" font-family="Helvetica,sans-Serif" font-size="10.00">+</text>
<text text-anchor="start" x="94" y="-97" font-family="Helvetica,sans-Serif" font-size="10.00">parse()</text>
<text text-anchor="start" x="60" y="-82" font-family="Helvetica,sans-Serif" font-size="10.00">~</text>
<text text-anchor="start" x="94" y="-82" font-family="Helvetica,sans-Serif" font-size="10.00">get()</text>
<text text-anchor="start" x="60" y="-67" font-family="Helvetica,sans-Serif" font-size="10.00">~</text>
<text text-anchor="start" x="94" y="-67" font-family="Helvetica,sans-Serif" font-size="10.00">get()</text>
<text text-anchor="start" x="60" y="-52" font-family="Helvetica,sans-Serif" font-size="10.00">~</text>
<text text-anchor="start" x="94" y="-52" font-family="Helvetica,sans-Serif" font-size="10.00">getArray()</text>
<text text-anchor="start" x="60" y="-37" font-family="Helvetica,sans-Serif" font-size="10.00">~</text>
<text text-anchor="start" x="94" y="-37" font-family="Helvetica,sans-Serif" font-size="10.00">getArray()</text>
<text text-anchor="start" x="60" y="-22" font-family="Helvetica,sans-Serif" font-size="10.00">~</text>
<text text-anchor="start" x="94" y="-22" font-family="Helvetica,sans-Serif" font-size="10.00">set()</text>
<text text-anchor="start" x="62.5" y="-7" font-family="Helvetica,sans-Serif" font-size="10.00">&#45;</text>
<text text-anchor="start" x="94" y="-7" font-family="Helvetica,sans-Serif" font-size="10.00">validateFlattenedAccess()</text>
<polygon fill="#666666" stroke="#666666" points="35,-332 35,-332 268,-332 268,-332 35,-332"/>
<polygon fill="#666666" stroke="#666666" points="35,-272 35,-272 92,-272 92,-272 35,-272"/>
<polygon fill="#666666" stroke="#666666" points="92,-272 92,-272 268,-272 268,-272 92,-272"/>
<polygon fill="none" stroke="#666666" points="34.5,0 34.5,-360 267.5,-360 267.5,0 34.5,0"/>
</a>
</g>
</g>
<!-- Node3&#45;&gt;Node4 -->
<g id="edge3_Node000003_Node000004" class="edge">
<title>Node3&#45;&gt;Node4</title>
<g id="a_edge3_Node000003_Node000004"><a xlink:title=" ">
<path fill="none" stroke="#63b8ff" d="M258.38,-446.46C248.79,-422.76 236.42,-392.18 223.5,-360.24"/>
<polygon fill="none" stroke="#63b8ff" points="255.18,-447.89 262.18,-455.85 261.67,-445.27 255.18,-447.89"/>
</a>
</g>
</g>
<!-- Node5 -->
<g id="Node000005" class="node">
<title>Node5</title>
<g id="a_Node000005"><a xlink:href="classio_1_1github_1_1fruitcropxl_1_1config_1_1params_1_1structures_1_1TableStore.html" target="_top" xlink:title="Represents the collection of tables in a document.">
<polygon fill="white" stroke="transparent" points="518.5,-247.5 285.5,-247.5 285.5,-112.5 518.5,-112.5 518.5,-247.5"/>
<text text-anchor="start" x="291" y="-235" font-family="Helvetica,sans-Serif" font-size="10.00">io.github.fruitcropxl.config.params.structures.</text>
<text text-anchor="start" x="376.5" y="-224" font-family="Helvetica,sans-Serif" font-size="10.00">TableStore</text>
<text text-anchor="start" x="318.5" y="-209" font-family="Helvetica,sans-Serif" font-size="10.00">+</text>
<text text-anchor="start" x="360" y="-209" font-family="Helvetica,sans-Serif" font-size="10.00">ROW_PREFIX_FIELD</text>
<text text-anchor="start" x="321" y="-194" font-family="Helvetica,sans-Serif" font-size="10.00">&#45;</text>
<text text-anchor="start" x="360" y="-194" font-family="Helvetica,sans-Serif" font-size="10.00">tables</text>
<text text-anchor="start" x="318.5" y="-179" font-family="Helvetica,sans-Serif" font-size="10.00">+</text>
<text text-anchor="start" x="360" y="-179" font-family="Helvetica,sans-Serif" font-size="10.00">TableStore()</text>
<text text-anchor="start" x="318.5" y="-164" font-family="Helvetica,sans-Serif" font-size="10.00">+</text>
<text text-anchor="start" x="360" y="-164" font-family="Helvetica,sans-Serif" font-size="10.00">addTable()</text>
<text text-anchor="start" x="318.5" y="-149" font-family="Helvetica,sans-Serif" font-size="10.00">+</text>
<text text-anchor="start" x="360" y="-149" font-family="Helvetica,sans-Serif" font-size="10.00">getTable()</text>
<text text-anchor="start" x="318.5" y="-134" font-family="Helvetica,sans-Serif" font-size="10.00">+</text>
<text text-anchor="start" x="360" y="-134" font-family="Helvetica,sans-Serif" font-size="10.00">toString()</text>
<text text-anchor="start" x="318.5" y="-119" font-family="Helvetica,sans-Serif" font-size="10.00">+</text>
<text text-anchor="start" x="360" y="-119" font-family="Helvetica,sans-Serif" font-size="10.00">parse()</text>
<polygon fill="#666666" stroke="#666666" points="286,-219 286,-219 519,-219 519,-219 286,-219"/>
<polygon fill="#666666" stroke="#666666" points="286,-189 286,-189 358,-189 358,-189 286,-189"/>
<polygon fill="#666666" stroke="#666666" points="358,-189 358,-189 519,-189 519,-189 358,-189"/>
<polygon fill="none" stroke="#666666" points="285.5,-112.5 285.5,-247.5 518.5,-247.5 518.5,-112.5 285.5,-112.5"/>
</a>
</g>
</g>
<!-- Node3&#45;&gt;Node5 -->
<g id="edge4_Node000003_Node000005" class="edge">
<title>Node3&#45;&gt;Node5</title>
<g id="a_edge4_Node000003_Node000005"><a xlink:title=" ">
<path fill="none" stroke="#63b8ff" d="M295.48,-446.45C316.55,-393.94 351.18,-307.64 375.21,-247.75"/>
<polygon fill="none" stroke="#63b8ff" points="292.18,-445.27 291.71,-455.85 298.68,-447.87 292.18,-445.27"/>
</a>
</g>
</g>
</g>
</svg>

<g id="navigator" transform="translate(0 0)" fill="#404254">
  <rect fill="#f2f5e9" fill-opacity="0.5" stroke="#606060" stroke-width=".5" x="0" y="0" width="60" height="60"/>
  <use id="zoomplus" xlink:href="#zoomPlus" x="17" y="9" onmousedown="handleZoom(evt,'in')"/>
  <use id="zoomminus" xlink:href="#zoomMin" x="42" y="9" onmousedown="handleZoom(evt,'out')"/>
  <use id="reset" xlink:href="#resetDef" x="30" y="36" onmousedown="handleReset()"/>
   <use id="arrowup" xlink:href="#arrowUp" x="0" y="0" onmousedown="handlePan(0,-1)"/>
  <use id="arrowright" xlink:href="#arrowRight" x="0" y="0" onmousedown="handlePan(1,0)"/>
  <use id="arrowdown" xlink:href="#arrowDown" x="0" y="0" onmousedown="handlePan(0,1)"/>
  <use id="arrowleft" xlink:href="#arrowLeft" x="0" y="0" onmousedown="handlePan(-1,0)"/>
</g>
<svg viewBox="0 0 15 15" width="100%" height="30px" preserveAspectRatio="xMaxYMin meet">
 <g id="arrow_out" transform="scale(0.3 0.3)">
  <a xlink:href="classSerializable__inherit__graph_org.svg" target="_base">
   <rect id="button" ry="5" rx="5" y="6" x="6" height="38" width="38"
        fill="#f2f5e9" fill-opacity="0.5" stroke="#606060" stroke-width="1.0"/>
   <path id="arrow"
     d="M 11.500037,31.436501 C 11.940474,20.09759 22.043105,11.32322 32.158766,21.979434 L 37.068811,17.246167 C 37.068811,17.246167 37.088388,32 37.088388,32 L 22.160133,31.978069 C 22.160133,31.978069 26.997745,27.140456 26.997745,27.140456 C 18.528582,18.264221 13.291696,25.230495 11.500037,31.436501 z"
     style="fill:#404040;"/>
  </a>
 </g>
</svg>

<style type='text/css'>
<![CDATA[
[data-mouse-over-selected='false'] { opacity: 0.7; }
[data-mouse-over-selected='true']  { opacity: 1.0; }
]]>
</style>
<script type="application/ecmascript"><![CDATA[
document.addEventListener('DOMContentLoaded', (event) => {
  highlightEdges();
  highlightAdjacentNodes();
});
]]></script>
</svg>
