<?xml version="1.0" encoding="UTF-8" standalone="no"?>
<!DOCTYPE svg PUBLIC "-//W3C//DTD SVG 1.1//EN"
 "http://www.w3.org/Graphics/SVG/1.1/DTD/svg11.dtd">
<!-- Generated by graphviz version 2.43.0 (0)
 -->
<!-- Title: fspm.config.params.Parameter.asIntegerArray Pages: 1 -->
<svg width="637pt" height="66pt"
 viewBox="0.00 0.00 637.00 66.00" xmlns="http://www.w3.org/2000/svg" xmlns:xlink="http://www.w3.org/1999/xlink">
<g id="graph0" class="graph" transform="scale(1 1) rotate(0) translate(4 62)">
<title>fspm.config.params.Parameter.asIntegerArray</title>
<!-- Node1 -->
<g id="node1" class="node">
<title>Node1</title>
<g id="a_node1"><a xlink:title=" ">
<polygon fill="#bfbfbf" stroke="black" points="0,-14 0,-44 180,-44 180,-14 0,-14"/>
<text text-anchor="start" x="8" y="-32" font-family="Helvetica,sans-Serif" font-size="10.00">fspm.config.params.Parameter.as</text>
<text text-anchor="middle" x="90" y="-21" font-family="Helvetica,sans-Serif" font-size="10.00">IntegerArray</text>
</a>
</g>
</g>
<!-- Node2 -->
<g id="node2" class="node">
<title>Node2</title>
<g id="a_node2"><a xlink:href="classfspm_1_1config_1_1params_1_1Parameter_a2dced470a20701940042f6dacad7f78e.html#a2dced470a20701940042f6dacad7f78e" target="_top" xlink:title=" ">
<polygon fill="none" stroke="black" points="216,-14 216,-44 396,-44 396,-14 216,-14"/>
<text text-anchor="start" x="224" y="-32" font-family="Helvetica,sans-Serif" font-size="10.00">fspm.config.params.Parameter.as</text>
<text text-anchor="middle" x="306" y="-21" font-family="Helvetica,sans-Serif" font-size="10.00">Array</text>
</a>
</g>
</g>
<!-- Node1&#45;&gt;Node2 -->
<g id="edge1" class="edge">
<title>Node1&#45;&gt;Node2</title>
<path fill="none" stroke="midnightblue" d="M180.21,-29C188.7,-29 197.34,-29 205.92,-29"/>
<polygon fill="midnightblue" stroke="midnightblue" points="205.94,-32.5 215.94,-29 205.94,-25.5 205.94,-32.5"/>
</g>
<!-- Node3 -->
<g id="node3" class="node">
<title>Node3</title>
<g id="a_node3"><a xlink:href="classfspm_1_1util_1_1KeyElement_a653aac67328f98c1201974736671fe0d.html#a653aac67328f98c1201974736671fe0d" target="_top" xlink:title=" ">
<polygon fill="none" stroke="black" points="451.5,-38.5 451.5,-57.5 609.5,-57.5 609.5,-38.5 451.5,-38.5"/>
<text text-anchor="middle" x="530.5" y="-45.5" font-family="Helvetica,sans-Serif" font-size="10.00">fspm.util.KeyElement.getKey</text>
</a>
</g>
</g>
<!-- Node2&#45;&gt;Node3 -->
<g id="edge2" class="edge">
<title>Node2&#45;&gt;Node3</title>
<path fill="none" stroke="midnightblue" d="M396.22,-36.62C411.05,-37.89 426.43,-39.2 441.24,-40.46"/>
<polygon fill="midnightblue" stroke="midnightblue" points="441.12,-43.97 451.38,-41.33 441.72,-36.99 441.12,-43.97"/>
</g>
<!-- Node4 -->
<g id="node4" class="node">
<title>Node4</title>
<g id="a_node4"><a xlink:href="classfspm_1_1config_1_1params_1_1Parameter_a2fd72835a908354fea23f92e3f3b1800.html#a2fd72835a908354fea23f92e3f3b1800" target="_top" xlink:title=" ">
<polygon fill="none" stroke="black" points="432,-0.5 432,-19.5 629,-19.5 629,-0.5 432,-0.5"/>
<text text-anchor="middle" x="530.5" y="-7.5" font-family="Helvetica,sans-Serif" font-size="10.00">fspm.config.params.Parameter.isNull</text>
</a>
</g>
</g>
<!-- Node2&#45;&gt;Node4 -->
<g id="edge3" class="edge">
<title>Node2&#45;&gt;Node4</title>
<path fill="none" stroke="midnightblue" d="M396.22,-21.38C404.65,-20.66 413.25,-19.93 421.83,-19.19"/>
<polygon fill="midnightblue" stroke="midnightblue" points="422.2,-22.68 431.87,-18.34 421.61,-15.7 422.2,-22.68"/>
</g>
</g>
</svg>
