<?xml version="1.0" encoding="UTF-8" standalone="no"?>
<!DOCTYPE svg PUBLIC "-//W3C//DTD SVG 1.1//EN"
 "http://www.w3.org/Graphics/SVG/1.1/DTD/svg11.dtd">
<!-- Generated by graphviz version 2.43.0 (0)
 -->
<!-- Title: io.github.fruitcropxl.config.params.structures.ParamStructure Pages: 1 -->
<svg width="492pt" height="564pt"
 viewBox="0.00 0.00 492.00 564.00" xmlns="http://www.w3.org/2000/svg" xmlns:xlink="http://www.w3.org/1999/xlink">
<g id="graph0" class="graph" transform="scale(1 1) rotate(0) translate(4 560)">
<title>io.github.fruitcropxl.config.params.structures.ParamStructure</title>
<!-- Node1 -->
<g id="Node000001" class="node">
<title>Node1</title>
<g id="a_Node000001"><a xlink:title="Represents a structure found in ParamGroups that store parameters.">
<polygon fill="#999999" stroke="transparent" points="358,-471 125,-471 125,-396 358,-396 358,-471"/>
<text text-anchor="start" x="130.5" y="-458.5" font-family="Helvetica,sans-Serif" font-size="10.00">io.github.fruitcropxl.config.params.structures.</text>
<text text-anchor="start" x="204" y="-447.5" font-family="Helvetica,sans-Serif" font-size="10.00">ParamStructure</text>
<text text-anchor="start" x="164" y="-432.5" font-family="Helvetica,sans-Serif" font-size="10.00">&#45;</text>
<text text-anchor="start" x="206.5" y="-432.5" font-family="Helvetica,sans-Serif" font-size="10.00">groupKey</text>
<text text-anchor="start" x="161.5" y="-417.5" font-family="Helvetica,sans-Serif" font-size="10.00">+</text>
<text text-anchor="start" x="206.5" y="-417.5" font-family="Helvetica,sans-Serif" font-size="10.00">ParamStructure()</text>
<text text-anchor="start" x="161.5" y="-402.5" font-family="Helvetica,sans-Serif" font-size="10.00">+</text>
<text text-anchor="start" x="206.5" y="-402.5" font-family="Helvetica,sans-Serif" font-size="10.00">getGroupKey()</text>
<polygon fill="#666666" stroke="#666666" points="125.5,-442.5 125.5,-442.5 358.5,-442.5 358.5,-442.5 125.5,-442.5"/>
<polygon fill="#666666" stroke="#666666" points="125.5,-427.5 125.5,-427.5 204.5,-427.5 204.5,-427.5 125.5,-427.5"/>
<polygon fill="#666666" stroke="#666666" points="204.5,-427.5 204.5,-427.5 358.5,-427.5 358.5,-427.5 204.5,-427.5"/>
<polygon fill="none" stroke="#666666" points="125,-396 125,-471 358,-471 358,-396 125,-396"/>
</a>
</g>
</g>
<!-- Node3 -->
<g id="Node000003" class="node">
<title>Node3</title>
<g id="a_Node000003"><a xlink:href="classio_1_1github_1_1fruitcropxl_1_1config_1_1params_1_1structures_1_1CategoryStore.html" target="_top" xlink:title="Represents the collection of categories in a document.">
<polygon fill="white" stroke="transparent" points="233,-360 0,-360 0,0 233,0 233,-360"/>
<text text-anchor="start" x="5.5" y="-348" font-family="Helvetica,sans-Serif" font-size="10.00">io.github.fruitcropxl.config.params.structures.</text>
<text text-anchor="start" x="82" y="-337" font-family="Helvetica,sans-Serif" font-size="10.00">CategoryStore</text>
<text text-anchor="start" x="25.5" y="-322" font-family="Helvetica,sans-Serif" font-size="10.00">+</text>
<text text-anchor="start" x="59.5" y="-322" font-family="Helvetica,sans-Serif" font-size="10.00">CATEGORIES_HEADER</text>
<text text-anchor="start" x="28" y="-307" font-family="Helvetica,sans-Serif" font-size="10.00">&#45;</text>
<text text-anchor="start" x="59.5" y="-307" font-family="Helvetica,sans-Serif" font-size="10.00">categoryContext</text>
<text text-anchor="start" x="28" y="-292" font-family="Helvetica,sans-Serif" font-size="10.00">&#45;</text>
<text text-anchor="start" x="59.5" y="-292" font-family="Helvetica,sans-Serif" font-size="10.00">categories</text>
<text text-anchor="start" x="28" y="-277" font-family="Helvetica,sans-Serif" font-size="10.00">&#45;</text>
<text text-anchor="start" x="59.5" y="-277" font-family="Helvetica,sans-Serif" font-size="10.00">useFlattenedCategories</text>
<text text-anchor="start" x="25.5" y="-262" font-family="Helvetica,sans-Serif" font-size="10.00">+</text>
<text text-anchor="start" x="59.5" y="-262" font-family="Helvetica,sans-Serif" font-size="10.00">CategoryStore()</text>
<text text-anchor="start" x="25.5" y="-247" font-family="Helvetica,sans-Serif" font-size="10.00">+</text>
<text text-anchor="start" x="59.5" y="-247" font-family="Helvetica,sans-Serif" font-size="10.00">addCategory()</text>
<text text-anchor="start" x="25.5" y="-232" font-family="Helvetica,sans-Serif" font-size="10.00">+</text>
<text text-anchor="start" x="59.5" y="-232" font-family="Helvetica,sans-Serif" font-size="10.00">getCategory()</text>
<text text-anchor="start" x="25.5" y="-217" font-family="Helvetica,sans-Serif" font-size="10.00">+</text>
<text text-anchor="start" x="59.5" y="-217" font-family="Helvetica,sans-Serif" font-size="10.00">getCategoryWithParam()</text>
<text text-anchor="start" x="25.5" y="-202" font-family="Helvetica,sans-Serif" font-size="10.00">+</text>
<text text-anchor="start" x="59.5" y="-202" font-family="Helvetica,sans-Serif" font-size="10.00">setCategoryContext()</text>
<text text-anchor="start" x="25.5" y="-187" font-family="Helvetica,sans-Serif" font-size="10.00">+</text>
<text text-anchor="start" x="59.5" y="-187" font-family="Helvetica,sans-Serif" font-size="10.00">setFlattenedAccess()</text>
<text text-anchor="start" x="25.5" y="-172" font-family="Helvetica,sans-Serif" font-size="10.00">+</text>
<text text-anchor="start" x="59.5" y="-172" font-family="Helvetica,sans-Serif" font-size="10.00">getBoolean()</text>
<text text-anchor="start" x="25.5" y="-157" font-family="Helvetica,sans-Serif" font-size="10.00">+</text>
<text text-anchor="start" x="59.5" y="-157" font-family="Helvetica,sans-Serif" font-size="10.00">getBoolean()</text>
<text text-anchor="start" x="25.5" y="-142" font-family="Helvetica,sans-Serif" font-size="10.00">+</text>
<text text-anchor="start" x="59.5" y="-142" font-family="Helvetica,sans-Serif" font-size="10.00">getString()</text>
<text text-anchor="start" x="25.5" y="-127" font-family="Helvetica,sans-Serif" font-size="10.00">+</text>
<text text-anchor="start" x="59.5" y="-127" font-family="Helvetica,sans-Serif" font-size="10.00">getString()</text>
<text text-anchor="start" x="59.5" y="-112" font-family="Helvetica,sans-Serif" font-size="10.00">and 19 more...</text>
<text text-anchor="start" x="25.5" y="-97" font-family="Helvetica,sans-Serif" font-size="10.00">+</text>
<text text-anchor="start" x="59.5" y="-97" font-family="Helvetica,sans-Serif" font-size="10.00">parse()</text>
<text text-anchor="start" x="25.5" y="-82" font-family="Helvetica,sans-Serif" font-size="10.00">~</text>
<text text-anchor="start" x="59.5" y="-82" font-family="Helvetica,sans-Serif" font-size="10.00">get()</text>
<text text-anchor="start" x="25.5" y="-67" font-family="Helvetica,sans-Serif" font-size="10.00">~</text>
<text text-anchor="start" x="59.5" y="-67" font-family="Helvetica,sans-Serif" font-size="10.00">get()</text>
<text text-anchor="start" x="25.5" y="-52" font-family="Helvetica,sans-Serif" font-size="10.00">~</text>
<text text-anchor="start" x="59.5" y="-52" font-family="Helvetica,sans-Serif" font-size="10.00">getArray()</text>
<text text-anchor="start" x="25.5" y="-37" font-family="Helvetica,sans-Serif" font-size="10.00">~</text>
<text text-anchor="start" x="59.5" y="-37" font-family="Helvetica,sans-Serif" font-size="10.00">getArray()</text>
<text text-anchor="start" x="25.5" y="-22" font-family="Helvetica,sans-Serif" font-size="10.00">~</text>
<text text-anchor="start" x="59.5" y="-22" font-family="Helvetica,sans-Serif" font-size="10.00">set()</text>
<text text-anchor="start" x="28" y="-7" font-family="Helvetica,sans-Serif" font-size="10.00">&#45;</text>
<text text-anchor="start" x="59.5" y="-7" font-family="Helvetica,sans-Serif" font-size="10.00">validateFlattenedAccess()</text>
<polygon fill="#666666" stroke="#666666" points="0.5,-332 0.5,-332 233.5,-332 233.5,-332 0.5,-332"/>
<polygon fill="#666666" stroke="#666666" points="0.5,-272 0.5,-272 57.5,-272 57.5,-272 0.5,-272"/>
<polygon fill="#666666" stroke="#666666" points="57.5,-272 57.5,-272 233.5,-272 233.5,-272 57.5,-272"/>
<polygon fill="none" stroke="#666666" points="0,0 0,-360 233,-360 233,0 0,0"/>
</a>
</g>
</g>
<!-- Node1&#45;&gt;Node3 -->
<g id="edge2_Node000001_Node000003" class="edge">
<title>Node1&#45;&gt;Node3</title>
<g id="a_edge2_Node000001_Node000003"><a xlink:title=" ">
<path fill="none" stroke="#63b8ff" d="M218.86,-386.96C214.76,-378.7 210.26,-369.65 205.51,-360.09"/>
<polygon fill="none" stroke="#63b8ff" points="215.74,-388.53 223.32,-395.93 222.01,-385.42 215.74,-388.53"/>
</a>
</g>
</g>
<!-- Node4 -->
<g id="Node000004" class="node">
<title>Node4</title>
<g id="a_Node000004"><a xlink:href="classio_1_1github_1_1fruitcropxl_1_1config_1_1params_1_1structures_1_1TableStore.html" target="_top" xlink:title="Represents the collection of tables in a document.">
<polygon fill="white" stroke="transparent" points="484,-247.5 251,-247.5 251,-112.5 484,-112.5 484,-247.5"/>
<text text-anchor="start" x="256.5" y="-235" font-family="Helvetica,sans-Serif" font-size="10.00">io.github.fruitcropxl.config.params.structures.</text>
<text text-anchor="start" x="342" y="-224" font-family="Helvetica,sans-Serif" font-size="10.00">TableStore</text>
<text text-anchor="start" x="284" y="-209" font-family="Helvetica,sans-Serif" font-size="10.00">+</text>
<text text-anchor="start" x="325.5" y="-209" font-family="Helvetica,sans-Serif" font-size="10.00">ROW_PREFIX_FIELD</text>
<text text-anchor="start" x="286.5" y="-194" font-family="Helvetica,sans-Serif" font-size="10.00">&#45;</text>
<text text-anchor="start" x="325.5" y="-194" font-family="Helvetica,sans-Serif" font-size="10.00">tables</text>
<text text-anchor="start" x="284" y="-179" font-family="Helvetica,sans-Serif" font-size="10.00">+</text>
<text text-anchor="start" x="325.5" y="-179" font-family="Helvetica,sans-Serif" font-size="10.00">TableStore()</text>
<text text-anchor="start" x="284" y="-164" font-family="Helvetica,sans-Serif" font-size="10.00">+</text>
<text text-anchor="start" x="325.5" y="-164" font-family="Helvetica,sans-Serif" font-size="10.00">addTable()</text>
<text text-anchor="start" x="284" y="-149" font-family="Helvetica,sans-Serif" font-size="10.00">+</text>
<text text-anchor="start" x="325.5" y="-149" font-family="Helvetica,sans-Serif" font-size="10.00">getTable()</text>
<text text-anchor="start" x="284" y="-134" font-family="Helvetica,sans-Serif" font-size="10.00">+</text>
<text text-anchor="start" x="325.5" y="-134" font-family="Helvetica,sans-Serif" font-size="10.00">toString()</text>
<text text-anchor="start" x="284" y="-119" font-family="Helvetica,sans-Serif" font-size="10.00">+</text>
<text text-anchor="start" x="325.5" y="-119" font-family="Helvetica,sans-Serif" font-size="10.00">parse()</text>
<polygon fill="#666666" stroke="#666666" points="251.5,-219 251.5,-219 484.5,-219 484.5,-219 251.5,-219"/>
<polygon fill="#666666" stroke="#666666" points="251.5,-189 251.5,-189 323.5,-189 323.5,-189 251.5,-189"/>
<polygon fill="#666666" stroke="#666666" points="323.5,-189 323.5,-189 484.5,-189 484.5,-189 323.5,-189"/>
<polygon fill="none" stroke="#666666" points="251,-112.5 251,-247.5 484,-247.5 484,-112.5 251,-112.5"/>
</a>
</g>
</g>
<!-- Node1&#45;&gt;Node4 -->
<g id="edge3_Node000001_Node000004" class="edge">
<title>Node1&#45;&gt;Node4</title>
<g id="a_edge3_Node000001_Node000004"><a xlink:title=" ">
<path fill="none" stroke="#63b8ff" d="M264.32,-386.95C283.77,-348.13 311.98,-291.82 333.99,-247.89"/>
<polygon fill="none" stroke="#63b8ff" points="261.17,-385.42 259.82,-395.93 267.43,-388.56 261.17,-385.42"/>
</a>
</g>
</g>
<!-- Node2 -->
<g id="Node000002" class="node">
<title>Node2</title>
<g id="a_Node000002"><a xlink:href="classSerializable.html" target="_top" xlink:title=" ">
<polygon fill="white" stroke="transparent" points="275.5,-556 207.5,-556 207.5,-507 275.5,-507 275.5,-556"/>
<text text-anchor="start" x="212.5" y="-543.5" font-family="Helvetica,sans-Serif" font-size="10.00">Serializable</text>
<text text-anchor="start" x="239.5" y="-528.5" font-family="Helvetica,sans-Serif" font-size="10.00"> </text>
<text text-anchor="start" x="239.5" y="-513.5" font-family="Helvetica,sans-Serif" font-size="10.00"> </text>
<polygon fill="#666666" stroke="#666666" points="207.5,-538.5 207.5,-538.5 275.5,-538.5 275.5,-538.5 207.5,-538.5"/>
<polygon fill="#666666" stroke="#666666" points="207.5,-523.5 207.5,-523.5 275.5,-523.5 275.5,-523.5 207.5,-523.5"/>
<polygon fill="none" stroke="#666666" points="207.5,-507 207.5,-556 275.5,-556 275.5,-507 207.5,-507"/>
</a>
</g>
</g>
<!-- Node2&#45;&gt;Node1 -->
<g id="edge1_Node000001_Node000002" class="edge">
<title>Node2&#45;&gt;Node1</title>
<g id="a_edge1_Node000001_Node000002"><a xlink:title=" ">
<path fill="none" stroke="#63b8ff" d="M241.5,-496.68C241.5,-488.38 241.5,-479.46 241.5,-471.04"/>
<polygon fill="none" stroke="#63b8ff" points="238,-496.77 241.5,-506.77 245,-496.77 238,-496.77"/>
</a>
</g>
</g>
</g>
</svg>
