<?xml version="1.0" encoding="UTF-8" standalone="no"?>
<!DOCTYPE svg PUBLIC "-//W3C//DTD SVG 1.1//EN"
 "http://www.w3.org/Graphics/SVG/1.1/DTD/svg11.dtd">
<!-- Generated by graphviz version 2.43.0 (0)
 -->
<!-- Title: io.github.fruitcropxl.config.util.exceptions.TypeNotFoundException Pages: 1 -->
<svg width="225pt" height="183pt"
 viewBox="0.00 0.00 225.00 183.00" xmlns="http://www.w3.org/2000/svg" xmlns:xlink="http://www.w3.org/1999/xlink">
<g id="graph0" class="graph" transform="scale(1 1) rotate(0) translate(4 179)">
<title>io.github.fruitcropxl.config.util.exceptions.TypeNotFoundException</title>
<!-- Node1 -->
<g id="Node000001" class="node">
<title>Node1</title>
<g id="a_Node000001"><a xlink:title=" ">
<polygon fill="#999999" stroke="transparent" points="217,-90 0,-90 0,0 217,0 217,-90"/>
<text text-anchor="start" x="5.5" y="-78" font-family="Helvetica,sans-Serif" font-size="10.00">io.github.fruitcropxl.config.util.exceptions.</text>
<text text-anchor="start" x="50" y="-67" font-family="Helvetica,sans-Serif" font-size="10.00">TypeNotFoundException</text>
<text text-anchor="start" x="107" y="-52" font-family="Helvetica,sans-Serif" font-size="10.00"> </text>
<text text-anchor="start" x="22" y="-37" font-family="Helvetica,sans-Serif" font-size="10.00">+</text>
<text text-anchor="start" x="52.5" y="-37" font-family="Helvetica,sans-Serif" font-size="10.00">TypeNotFoundException()</text>
<text text-anchor="start" x="22" y="-22" font-family="Helvetica,sans-Serif" font-size="10.00">+</text>
<text text-anchor="start" x="52.5" y="-22" font-family="Helvetica,sans-Serif" font-size="10.00">TypeNotFoundException()</text>
<text text-anchor="start" x="24.5" y="-7" font-family="Helvetica,sans-Serif" font-size="10.00">&#45;</text>
<text text-anchor="start" x="52.5" y="-7" font-family="Helvetica,sans-Serif" font-size="10.00">getFormattedString()</text>
<polygon fill="#666666" stroke="#666666" points="0.5,-62 0.5,-62 217.5,-62 217.5,-62 0.5,-62"/>
<polygon fill="#666666" stroke="#666666" points="0.5,-47 0.5,-47 217.5,-47 217.5,-47 0.5,-47"/>
<polygon fill="none" stroke="#666666" points="0,0 0,-90 217,-90 217,0 0,0"/>
</a>
</g>
</g>
<!-- Node2 -->
<g id="Node000002" class="node">
<title>Node2</title>
<g id="a_Node000002"><a xlink:href="classRuntimeException.html" target="_top" xlink:title=" ">
<polygon fill="white" stroke="transparent" points="158.5,-175 58.5,-175 58.5,-126 158.5,-126 158.5,-175"/>
<text text-anchor="start" x="63.5" y="-162.5" font-family="Helvetica,sans-Serif" font-size="10.00">RuntimeException</text>
<text text-anchor="start" x="106.5" y="-147.5" font-family="Helvetica,sans-Serif" font-size="10.00"> </text>
<text text-anchor="start" x="106.5" y="-132.5" font-family="Helvetica,sans-Serif" font-size="10.00"> </text>
<polygon fill="#666666" stroke="#666666" points="58.5,-157.5 58.5,-157.5 158.5,-157.5 158.5,-157.5 58.5,-157.5"/>
<polygon fill="#666666" stroke="#666666" points="58.5,-142.5 58.5,-142.5 158.5,-142.5 158.5,-142.5 58.5,-142.5"/>
<polygon fill="none" stroke="#666666" points="58.5,-126 58.5,-175 158.5,-175 158.5,-126 58.5,-126"/>
</a>
</g>
</g>
<!-- Node2&#45;&gt;Node1 -->
<g id="edge1_Node000001_Node000002" class="edge">
<title>Node2&#45;&gt;Node1</title>
<g id="a_edge1_Node000001_Node000002"><a xlink:title=" ">
<path fill="none" stroke="#63b8ff" d="M108.5,-115.62C108.5,-107.56 108.5,-98.84 108.5,-90.39"/>
<polygon fill="none" stroke="#63b8ff" points="105,-115.75 108.5,-125.76 112,-115.76 105,-115.75"/>
</a>
</g>
</g>
</g>
</svg>
