<?xml version="1.0" encoding="UTF-8" standalone="no"?>
<!DOCTYPE svg PUBLIC "-//W3C//DTD SVG 1.1//EN"
 "http://www.w3.org/Graphics/SVG/1.1/DTD/svg11.dtd">
<!-- Generated by graphviz version 2.43.0 (0)
 -->
<!-- Title: fspm.config.params.structures.CategoryStore.getInteger Pages: 1 -->
<svg width="1291pt" height="165pt"
 viewBox="0.00 0.00 1291.00 165.00" xmlns="http://www.w3.org/2000/svg" xmlns:xlink="http://www.w3.org/1999/xlink">
<g id="graph0" class="graph" transform="scale(1 1) rotate(0) translate(4 161)">
<title>fspm.config.params.structures.CategoryStore.getInteger</title>
<!-- Node1 -->
<g id="node1" class="node">
<title>Node1</title>
<g id="a_node1"><a xlink:title=" ">
<polygon fill="#bfbfbf" stroke="black" points="0,-62.5 0,-92.5 168,-92.5 168,-62.5 0,-62.5"/>
<text text-anchor="start" x="8" y="-80.5" font-family="Helvetica,sans-Serif" font-size="10.00">fspm.config.params.structures.</text>
<text text-anchor="middle" x="84" y="-69.5" font-family="Helvetica,sans-Serif" font-size="10.00">CategoryStore.getInteger</text>
</a>
</g>
</g>
<!-- Node2 -->
<g id="node2" class="node">
<title>Node2</title>
<g id="a_node2"><a xlink:href="classfspm_1_1config_1_1params_1_1structures_1_1CategoryStore_ac01c1aeb2e8b97d657263cac5b8b272a.html#ac01c1aeb2e8b97d657263cac5b8b272a" target="_top" xlink:title=" ">
<polygon fill="none" stroke="black" points="204,-62.5 204,-92.5 372,-92.5 372,-62.5 204,-62.5"/>
<text text-anchor="start" x="212" y="-80.5" font-family="Helvetica,sans-Serif" font-size="10.00">fspm.config.params.structures.</text>
<text text-anchor="middle" x="288" y="-69.5" font-family="Helvetica,sans-Serif" font-size="10.00">CategoryStore.getInteger</text>
</a>
</g>
</g>
<!-- Node1&#45;&gt;Node2 -->
<g id="edge1" class="edge">
<title>Node1&#45;&gt;Node2</title>
<path fill="none" stroke="midnightblue" d="M168.04,-77.5C176.56,-77.5 185.26,-77.5 193.89,-77.5"/>
<polygon fill="midnightblue" stroke="midnightblue" points="193.96,-81 203.96,-77.5 193.96,-74 193.96,-81"/>
</g>
<!-- Node3 -->
<g id="node3" class="node">
<title>Node3</title>
<g id="a_node3"><a xlink:href="classfspm_1_1config_1_1params_1_1ParamCategory_a176eab656e051784323f2132a4994fc6.html#a176eab656e051784323f2132a4994fc6" target="_top" xlink:title=" ">
<polygon fill="none" stroke="black" points="439,-87.5 439,-117.5 586,-117.5 586,-87.5 439,-87.5"/>
<text text-anchor="start" x="447" y="-105.5" font-family="Helvetica,sans-Serif" font-size="10.00">fspm.config.params.Param</text>
<text text-anchor="middle" x="512.5" y="-94.5" font-family="Helvetica,sans-Serif" font-size="10.00">Category.getInteger</text>
</a>
</g>
</g>
<!-- Node2&#45;&gt;Node3 -->
<g id="edge2" class="edge">
<title>Node2&#45;&gt;Node3</title>
<path fill="none" stroke="midnightblue" d="M372.17,-86.84C390.6,-88.92 410.14,-91.11 428.56,-93.18"/>
<polygon fill="midnightblue" stroke="midnightblue" points="428.34,-96.68 438.67,-94.32 429.12,-89.72 428.34,-96.68"/>
</g>
<!-- Node8 -->
<g id="node8" class="node">
<title>Node8</title>
<g id="a_node8"><a xlink:href="classfspm_1_1config_1_1params_1_1structures_1_1CategoryStore_ae066b355d784560a9c277722940d3d4a.html#ae066b355d784560a9c277722940d3d4a" target="_top" xlink:title=" ">
<polygon fill="none" stroke="black" points="408,-38.5 408,-68.5 617,-68.5 617,-38.5 408,-38.5"/>
<text text-anchor="start" x="416" y="-56.5" font-family="Helvetica,sans-Serif" font-size="10.00">fspm.config.params.structures.</text>
<text text-anchor="middle" x="512.5" y="-45.5" font-family="Helvetica,sans-Serif" font-size="10.00">CategoryStore.validateFlattenedAccess</text>
</a>
</g>
</g>
<!-- Node2&#45;&gt;Node8 -->
<g id="edge7" class="edge">
<title>Node2&#45;&gt;Node8</title>
<path fill="none" stroke="midnightblue" d="M372.17,-68.53C380.51,-67.63 389.07,-66.71 397.66,-65.78"/>
<polygon fill="midnightblue" stroke="midnightblue" points="398.17,-69.25 407.73,-64.69 397.41,-62.29 398.17,-69.25"/>
</g>
<!-- Node4 -->
<g id="node4" class="node">
<title>Node4</title>
<g id="a_node4"><a xlink:href="classfspm_1_1config_1_1params_1_1Parameter_a95d6a9bb98a1317321ade671069a17f9.html#a95d6a9bb98a1317321ade671069a17f9" target="_top" xlink:title=" ">
<polygon fill="none" stroke="black" points="664.5,-126.5 664.5,-156.5 844.5,-156.5 844.5,-126.5 664.5,-126.5"/>
<text text-anchor="start" x="672.5" y="-144.5" font-family="Helvetica,sans-Serif" font-size="10.00">fspm.config.params.Parameter.as</text>
<text text-anchor="middle" x="754.5" y="-133.5" font-family="Helvetica,sans-Serif" font-size="10.00">Integer</text>
</a>
</g>
</g>
<!-- Node3&#45;&gt;Node4 -->
<g id="edge3" class="edge">
<title>Node3&#45;&gt;Node4</title>
<path fill="none" stroke="midnightblue" d="M586.16,-114.31C607.55,-117.78 631.33,-121.65 654.1,-125.35"/>
<polygon fill="midnightblue" stroke="midnightblue" points="653.69,-128.83 664.12,-126.98 654.82,-121.92 653.69,-128.83"/>
</g>
<!-- Node6 -->
<g id="node6" class="node">
<title>Node6</title>
<g id="a_node6"><a xlink:href="classfspm_1_1config_1_1params_1_1ParamCategory_ac81e6b98fa48fc3426eed6f60e81da5b.html#ac81e6b98fa48fc3426eed6f60e81da5b" target="_top" xlink:title="Get generic Parameter with the given key.">
<polygon fill="none" stroke="black" points="917,-44.5 917,-74.5 1064,-74.5 1064,-44.5 917,-44.5"/>
<text text-anchor="start" x="925" y="-62.5" font-family="Helvetica,sans-Serif" font-size="10.00">fspm.config.params.Param</text>
<text text-anchor="middle" x="990.5" y="-51.5" font-family="Helvetica,sans-Serif" font-size="10.00">Category.getParameter</text>
</a>
</g>
</g>
<!-- Node3&#45;&gt;Node6 -->
<g id="edge5" class="edge">
<title>Node3&#45;&gt;Node6</title>
<path fill="none" stroke="midnightblue" d="M586.05,-95.95C672.26,-88.16 815.78,-75.19 906.38,-67.01"/>
<polygon fill="midnightblue" stroke="midnightblue" points="906.97,-70.47 916.61,-66.08 906.34,-63.5 906.97,-70.47"/>
</g>
<!-- Node5 -->
<g id="node5" class="node">
<title>Node5</title>
<g id="a_node5"><a xlink:href="classfspm_1_1config_1_1params_1_1Parameter_a2fd72835a908354fea23f92e3f3b1800.html#a2fd72835a908354fea23f92e3f3b1800" target="_top" xlink:title=" ">
<polygon fill="none" stroke="black" points="892,-132 892,-151 1089,-151 1089,-132 892,-132"/>
<text text-anchor="middle" x="990.5" y="-139" font-family="Helvetica,sans-Serif" font-size="10.00">fspm.config.params.Parameter.isNull</text>
</a>
</g>
</g>
<!-- Node4&#45;&gt;Node5 -->
<g id="edge4" class="edge">
<title>Node4&#45;&gt;Node5</title>
<path fill="none" stroke="midnightblue" d="M844.63,-141.5C856.64,-141.5 869.06,-141.5 881.36,-141.5"/>
<polygon fill="midnightblue" stroke="midnightblue" points="881.64,-145 891.64,-141.5 881.64,-138 881.64,-145"/>
</g>
<!-- Node7 -->
<g id="node7" class="node">
<title>Node7</title>
<g id="a_node7"><a xlink:href="classfspm_1_1util_1_1KeyElement_a653aac67328f98c1201974736671fe0d.html#a653aac67328f98c1201974736671fe0d" target="_top" xlink:title=" ">
<polygon fill="none" stroke="black" points="1125,-50 1125,-69 1283,-69 1283,-50 1125,-50"/>
<text text-anchor="middle" x="1204" y="-57" font-family="Helvetica,sans-Serif" font-size="10.00">fspm.util.KeyElement.getKey</text>
</a>
</g>
</g>
<!-- Node6&#45;&gt;Node7 -->
<g id="edge6" class="edge">
<title>Node6&#45;&gt;Node7</title>
<path fill="none" stroke="midnightblue" d="M1064.29,-59.5C1080.42,-59.5 1097.68,-59.5 1114.36,-59.5"/>
<polygon fill="midnightblue" stroke="midnightblue" points="1114.66,-63 1124.66,-59.5 1114.66,-56 1114.66,-63"/>
</g>
<!-- Node8&#45;&gt;Node6 -->
<g id="edge10" class="edge">
<title>Node8&#45;&gt;Node6</title>
<path fill="none" stroke="midnightblue" d="M617.08,-54.81C703.89,-55.9 826.21,-57.44 906.63,-58.46"/>
<polygon fill="midnightblue" stroke="midnightblue" points="906.68,-61.96 916.72,-58.58 906.76,-54.96 906.68,-61.96"/>
</g>
<!-- Node9 -->
<g id="node9" class="node">
<title>Node9</title>
<g id="a_node9"><a xlink:href="classfspm_1_1config_1_1params_1_1structures_1_1CategoryStore_a05635b1745cfdb9ed85c076ee762cbdf.html#a05635b1745cfdb9ed85c076ee762cbdf" target="_top" xlink:title=" ">
<polygon fill="none" stroke="black" points="653,-0.5 653,-30.5 856,-30.5 856,-0.5 653,-0.5"/>
<text text-anchor="start" x="661" y="-18.5" font-family="Helvetica,sans-Serif" font-size="10.00">fspm.config.params.structures.</text>
<text text-anchor="middle" x="754.5" y="-7.5" font-family="Helvetica,sans-Serif" font-size="10.00">CategoryStore.getCategoryWithParam</text>
</a>
</g>
</g>
<!-- Node8&#45;&gt;Node9 -->
<g id="edge8" class="edge">
<title>Node8&#45;&gt;Node9</title>
<path fill="none" stroke="midnightblue" d="M608.35,-38.48C621.51,-36.4 635.09,-34.25 648.42,-32.14"/>
<polygon fill="midnightblue" stroke="midnightblue" points="649.22,-35.55 658.55,-30.53 648.12,-28.64 649.22,-35.55"/>
</g>
<!-- Node9&#45;&gt;Node6 -->
<g id="edge9" class="edge">
<title>Node9&#45;&gt;Node6</title>
<path fill="none" stroke="midnightblue" d="M835.38,-30.52C858.33,-34.83 883.4,-39.55 906.54,-43.9"/>
<polygon fill="midnightblue" stroke="midnightblue" points="906.19,-47.4 916.66,-45.8 907.48,-40.52 906.19,-47.4"/>
</g>
</g>
</svg>
