<?xml version="1.0" encoding="UTF-8" standalone="no"?>
<!DOCTYPE svg PUBLIC "-//W3C//DTD SVG 1.1//EN"
 "http://www.w3.org/Graphics/SVG/1.1/DTD/svg11.dtd">
<!-- Generated by graphviz version 2.43.0 (0)
 -->
<!-- Title: io.github.fruitcropxl.config.params.structures.CategoryStore.getBoolean Pages: 1 -->
<!--zoomable 86 -->

<svg id="main" version="1.1" xmlns="http://www.w3.org/2000/svg" xmlns:xlink="http://www.w3.org/1999/xlink" xml:space="preserve" onload="init(evt)">
<style type="text/css"><![CDATA[
.node, .edge {opacity: 0.7;}
.node.selected, .edge.selected {opacity: 1;}
.edge:hover path { stroke: red; }
.edge:hover polygon { stroke: red; fill: red; }
]]></style>

<defs>
  <circle id="rim" cx="0" cy="0" r="7"/>
  <circle id="rim2" cx="0" cy="0" r="3.5"/>
  <g id="zoomPlus">
    <use xlink:href="#rim" fill="#404040"><set attributeName="fill" to="#808080" begin="zoomplus.mouseover" end="zoomplus.mouseout"/></use>
    <path d="M-4,0h8M0,-4v8" fill="none" stroke="white" stroke-width="1.5" pointer-events="none"/>
  </g>
  <g id="zoomMin">
    <use xlink:href="#rim" fill="#404040"><set attributeName="fill" to="#808080" begin="zoomminus.mouseover" end="zoomminus.mouseout"/></use>
    <path d="M-4,0h8" fill="none" stroke="white" stroke-width="1.5" pointer-events="none"/>
  </g>
  <g id="arrowUp" transform="translate(30 24)">
    <use xlink:href="#rim"/>
    <path pointer-events="none" fill="none" stroke="white" stroke-width="1.5" d="M0,-3.0v7 M-2.5,-0.5L0,-3.0L2.5,-0.5"/>
  </g>
  <g id="arrowRight" transform="rotate(90) translate(36 -43)">
    <use xlink:href="#rim"/>
    <path pointer-events="none" fill="none" stroke="white" stroke-width="1.5" d="M0,-3.0v7 M-2.5,-0.5L0,-3.0L2.5,-0.5"/>
  </g>
  <g id="arrowDown" transform="rotate(180) translate(-30 -48)">
    <use xlink:href="#rim"/>
    <path pointer-events="none" fill="none" stroke="white" stroke-width="1.5" d="M0,-3.0v7 M-2.5,-0.5L0,-3.0L2.5,-0.5"/>
  </g>
  <g id="arrowLeft" transform="rotate(270) translate(-36 17)">
    <use xlink:href="#rim"/>
    <path pointer-events="none" fill="none" stroke="white" stroke-width="1.5" d="M0,-3.0v7 M-2.5,-0.5L0,-3.0L2.5,-0.5"/>
  </g>
  <g id="resetDef">
    <use xlink:href="#rim2" fill="#404040"><set attributeName="fill" to="#808080" begin="reset.mouseover" end="reset.mouseout"/></use>
  </g>
</defs>
<script type="application/ecmascript">
var viewWidth = 1021;
var viewHeight = 86;
var sectionId = 'dynsection-0';
</script>
<script type="application/ecmascript" xlink:href="svg.min.js"/>
<svg id="graph" class="graph">
<g id="viewport">
<title>io.github.fruitcropxl.config.params.structures.CategoryStore.getBoolean</title>
<!-- Node1 -->
<g id="Node000001" class="node">
<title>Node1</title>
<g id="a_Node000001"><a xlink:title=" ">
<polygon fill="#999999" stroke="#666666" points="239,-54 0,-54 0,-24 239,-24 239,-54"/>
<text text-anchor="start" x="8" y="-42" font-family="Helvetica,sans-Serif" font-size="10.00">io.github.fruitcropxl.config.params.structures.</text>
<text text-anchor="middle" x="119.5" y="-31" font-family="Helvetica,sans-Serif" font-size="10.00">CategoryStore.getBoolean</text>
</a>
</g>
</g>
<!-- Node2 -->
<g id="Node000002" class="node">
<title>Node2</title>
<g id="a_Node000002"><a xlink:href="classio_1_1github_1_1fruitcropxl_1_1config_1_1params_1_1ParamCategory_a921d6a429ed8e962a2106109d812796f.html#a921d6a429ed8e962a2106109d812796f" target="_top" xlink:title=" ">
<polygon fill="white" stroke="#666666" points="488.5,-78 300.5,-78 300.5,-48 488.5,-48 488.5,-78"/>
<text text-anchor="start" x="308.5" y="-66" font-family="Helvetica,sans-Serif" font-size="10.00">io.github.fruitcropxl.config.params.</text>
<text text-anchor="middle" x="394.5" y="-55" font-family="Helvetica,sans-Serif" font-size="10.00">ParamCategory.getBoolean</text>
</a>
</g>
</g>
<!-- Node1&#45;&gt;Node2 -->
<g id="edge1_Node000001_Node000002" class="edge">
<title>Node1&#45;&gt;Node2</title>
<g id="a_edge1_Node000001_Node000002"><a xlink:title=" ">
<path fill="none" stroke="#63b8ff" d="M239.05,-49.42C255.97,-50.91 273.27,-52.43 289.87,-53.89"/>
<polygon fill="#63b8ff" stroke="#63b8ff" points="289.85,-57.4 300.11,-54.79 290.46,-50.43 289.85,-57.4"/>
</a>
</g>
</g>
<!-- Node3 -->
<g id="Node000003" class="node">
<title>Node3</title>
<g id="a_Node000003"><a xlink:href="classio_1_1github_1_1fruitcropxl_1_1config_1_1params_1_1structures_1_1CategoryStore_aa90095e4111da0b9c60d098de4a89a4f.html#aa90095e4111da0b9c60d098de4a89a4f" target="_top" xlink:title=" ">
<polygon fill="white" stroke="#666666" points="514,-30 275,-30 275,0 514,0 514,-30"/>
<text text-anchor="start" x="283" y="-18" font-family="Helvetica,sans-Serif" font-size="10.00">io.github.fruitcropxl.config.params.structures.</text>
<text text-anchor="middle" x="394.5" y="-7" font-family="Helvetica,sans-Serif" font-size="10.00">CategoryStore.validateFlattenedAccess</text>
</a>
</g>
</g>
<!-- Node1&#45;&gt;Node3 -->
<g id="edge2_Node000001_Node000003" class="edge">
<title>Node1&#45;&gt;Node3</title>
<g id="a_edge2_Node000001_Node000003"><a xlink:title=" ">
<path fill="none" stroke="#63b8ff" d="M239.05,-28.58C247.53,-27.83 256.11,-27.08 264.64,-26.33"/>
<polygon fill="#63b8ff" stroke="#63b8ff" points="264.98,-29.81 274.63,-25.45 264.37,-22.84 264.98,-29.81"/>
</a>
</g>
</g>
<!-- Node4 -->
<g id="Node000004" class="node">
<title>Node4</title>
<g id="a_Node000004"><a xlink:href="classio_1_1github_1_1fruitcropxl_1_1config_1_1params_1_1structures_1_1CategoryStore_a9b2ec8a2beb1fd75ac2fb60a9389ac84.html#a9b2ec8a2beb1fd75ac2fb60a9389ac84" target="_top" xlink:title=" ">
<polygon fill="white" stroke="#666666" points="789,-52 550,-52 550,-22 789,-22 789,-52"/>
<text text-anchor="start" x="558" y="-40" font-family="Helvetica,sans-Serif" font-size="10.00">io.github.fruitcropxl.config.params.structures.</text>
<text text-anchor="middle" x="669.5" y="-29" font-family="Helvetica,sans-Serif" font-size="10.00">CategoryStore.getCategoryWithParam</text>
</a>
</g>
</g>
<!-- Node3&#45;&gt;Node4 -->
<g id="edge3_Node000003_Node000004" class="edge">
<title>Node3&#45;&gt;Node4</title>
<g id="a_edge3_Node000003_Node000004"><a xlink:title=" ">
<path fill="none" stroke="#63b8ff" d="M514.05,-24.55C522.53,-25.24 531.11,-25.93 539.64,-26.62"/>
<polygon fill="#63b8ff" stroke="#63b8ff" points="539.39,-30.11 549.63,-27.42 539.95,-23.13 539.39,-30.11"/>
</a>
</g>
</g>
<!-- Node5 -->
<g id="Node000005" class="node">
<title>Node5</title>
<g id="a_Node000005"><a xlink:href="classio_1_1github_1_1fruitcropxl_1_1config_1_1params_1_1ParamCategory_ad96823e990040d8e36517b130dd87b74.html#ad96823e990040d8e36517b130dd87b74" target="_top" xlink:title="Get generic Parameter with the given key.">
<polygon fill="white" stroke="#666666" points="1013,-30 825,-30 825,0 1013,0 1013,-30"/>
<text text-anchor="start" x="833" y="-18" font-family="Helvetica,sans-Serif" font-size="10.00">io.github.fruitcropxl.config.params.</text>
<text text-anchor="middle" x="919" y="-7" font-family="Helvetica,sans-Serif" font-size="10.00">ParamCategory.getParameter</text>
</a>
</g>
</g>
<!-- Node3&#45;&gt;Node5 -->
<g id="edge5_Node000003_Node000005" class="edge">
<title>Node3&#45;&gt;Node5</title>
<g id="a_edge5_Node000003_Node000005"><a xlink:title=" ">
<path fill="none" stroke="#63b8ff" d="M514.01,-13.31C526.17,-13.18 538.33,-13.08 550,-13 656.22,-12.31 682.78,-12.18 789,-13 797.37,-13.06 806.05,-13.15 814.76,-13.26"/>
<polygon fill="#63b8ff" stroke="#63b8ff" points="814.95,-16.76 824.99,-13.39 815.04,-9.76 814.95,-16.76"/>
</a>
</g>
</g>
<!-- Node4&#45;&gt;Node5 -->
<g id="edge4_Node000004_Node000005" class="edge">
<title>Node4&#45;&gt;Node5</title>
<g id="a_edge4_Node000004_Node000005"><a xlink:title=" ">
<path fill="none" stroke="#63b8ff" d="M789.18,-26.45C797.64,-25.7 806.14,-24.94 814.51,-24.2"/>
<polygon fill="#63b8ff" stroke="#63b8ff" points="815,-27.67 824.65,-23.3 814.38,-20.7 815,-27.67"/>
</a>
</g>
</g>
</g>
</svg>

<g id="navigator" transform="translate(0 0)" fill="#404254">
  <rect fill="#f2f5e9" fill-opacity="0.5" stroke="#606060" stroke-width=".5" x="0" y="0" width="60" height="60"/>
  <use id="zoomplus" xlink:href="#zoomPlus" x="17" y="9" onmousedown="handleZoom(evt,'in')"/>
  <use id="zoomminus" xlink:href="#zoomMin" x="42" y="9" onmousedown="handleZoom(evt,'out')"/>
  <use id="reset" xlink:href="#resetDef" x="30" y="36" onmousedown="handleReset()"/>
   <use id="arrowup" xlink:href="#arrowUp" x="0" y="0" onmousedown="handlePan(0,-1)"/>
  <use id="arrowright" xlink:href="#arrowRight" x="0" y="0" onmousedown="handlePan(1,0)"/>
  <use id="arrowdown" xlink:href="#arrowDown" x="0" y="0" onmousedown="handlePan(0,1)"/>
  <use id="arrowleft" xlink:href="#arrowLeft" x="0" y="0" onmousedown="handlePan(-1,0)"/>
</g>
<svg viewBox="0 0 15 15" width="100%" height="30px" preserveAspectRatio="xMaxYMin meet">
 <g id="arrow_out" transform="scale(0.3 0.3)">
  <a xlink:href="classio_1_1github_1_1fruitcropxl_1_1config_1_1params_1_1structures_1_1CategoryStore_adcd3d5883367682eb411efd5c94b3cf1_adcd3d5883367682eb411efd5c94b3cf1_cgraph_org.svg" target="_base">
   <rect id="button" ry="5" rx="5" y="6" x="6" height="38" width="38"
        fill="#f2f5e9" fill-opacity="0.5" stroke="#606060" stroke-width="1.0"/>
   <path id="arrow"
     d="M 11.500037,31.436501 C 11.940474,20.09759 22.043105,11.32322 32.158766,21.979434 L 37.068811,17.246167 C 37.068811,17.246167 37.088388,32 37.088388,32 L 22.160133,31.978069 C 22.160133,31.978069 26.997745,27.140456 26.997745,27.140456 C 18.528582,18.264221 13.291696,25.230495 11.500037,31.436501 z"
     style="fill:#404040;"/>
  </a>
 </g>
</svg>

<style type='text/css'>
<![CDATA[
[data-mouse-over-selected='false'] { opacity: 0.7; }
[data-mouse-over-selected='true']  { opacity: 1.0; }
]]>
</style>
<script type="application/ecmascript"><![CDATA[
document.addEventListener('DOMContentLoaded', (event) => {
  highlightEdges();
  highlightAdjacentNodes();
});
]]></script>
</svg>
