<?xml version="1.0" encoding="UTF-8" standalone="no"?>
<!DOCTYPE svg PUBLIC "-//W3C//DTD SVG 1.1//EN"
 "http://www.w3.org/Graphics/SVG/1.1/DTD/svg11.dtd">
<!-- Generated by graphviz version 2.43.0 (0)
 -->
<!-- Title: io.github.fruitcropxl.config.params.structures.CategoryStore Pages: 1 -->
<svg width="1014pt" height="747pt"
 viewBox="0.00 0.00 1013.50 747.00" xmlns="http://www.w3.org/2000/svg" xmlns:xlink="http://www.w3.org/1999/xlink">
<g id="graph0" class="graph" transform="scale(1 1) rotate(0) translate(4 743)">
<title>io.github.fruitcropxl.config.params.structures.CategoryStore</title>
<!-- Node1 -->
<g id="Node000001" class="node">
<title>Node1</title>
<g id="a_Node000001"><a xlink:title="Represents the collection of categories in a document.">
<polygon fill="#999999" stroke="transparent" points="497,-315 264,-315 264,0 497,0 497,-315"/>
<text text-anchor="start" x="269.5" y="-302.5" font-family="Helvetica,sans-Serif" font-size="10.00">io.github.fruitcropxl.config.params.structures.</text>
<text text-anchor="start" x="346" y="-291.5" font-family="Helvetica,sans-Serif" font-size="10.00">CategoryStore</text>
<text text-anchor="start" x="379" y="-276.5" font-family="Helvetica,sans-Serif" font-size="10.00"> </text>
<text text-anchor="start" x="289.5" y="-261.5" font-family="Helvetica,sans-Serif" font-size="10.00">+</text>
<text text-anchor="start" x="323.5" y="-261.5" font-family="Helvetica,sans-Serif" font-size="10.00">CategoryStore()</text>
<text text-anchor="start" x="289.5" y="-246.5" font-family="Helvetica,sans-Serif" font-size="10.00">+</text>
<text text-anchor="start" x="323.5" y="-246.5" font-family="Helvetica,sans-Serif" font-size="10.00">addCategory()</text>
<text text-anchor="start" x="289.5" y="-231.5" font-family="Helvetica,sans-Serif" font-size="10.00">+</text>
<text text-anchor="start" x="323.5" y="-231.5" font-family="Helvetica,sans-Serif" font-size="10.00">getCategory()</text>
<text text-anchor="start" x="289.5" y="-216.5" font-family="Helvetica,sans-Serif" font-size="10.00">+</text>
<text text-anchor="start" x="323.5" y="-216.5" font-family="Helvetica,sans-Serif" font-size="10.00">getCategoryWithParam()</text>
<text text-anchor="start" x="289.5" y="-201.5" font-family="Helvetica,sans-Serif" font-size="10.00">+</text>
<text text-anchor="start" x="323.5" y="-201.5" font-family="Helvetica,sans-Serif" font-size="10.00">setCategoryContext()</text>
<text text-anchor="start" x="289.5" y="-186.5" font-family="Helvetica,sans-Serif" font-size="10.00">+</text>
<text text-anchor="start" x="323.5" y="-186.5" font-family="Helvetica,sans-Serif" font-size="10.00">setFlattenedAccess()</text>
<text text-anchor="start" x="289.5" y="-171.5" font-family="Helvetica,sans-Serif" font-size="10.00">+</text>
<text text-anchor="start" x="323.5" y="-171.5" font-family="Helvetica,sans-Serif" font-size="10.00">getBoolean()</text>
<text text-anchor="start" x="289.5" y="-156.5" font-family="Helvetica,sans-Serif" font-size="10.00">+</text>
<text text-anchor="start" x="323.5" y="-156.5" font-family="Helvetica,sans-Serif" font-size="10.00">getBoolean()</text>
<text text-anchor="start" x="289.5" y="-141.5" font-family="Helvetica,sans-Serif" font-size="10.00">+</text>
<text text-anchor="start" x="323.5" y="-141.5" font-family="Helvetica,sans-Serif" font-size="10.00">getString()</text>
<text text-anchor="start" x="289.5" y="-126.5" font-family="Helvetica,sans-Serif" font-size="10.00">+</text>
<text text-anchor="start" x="323.5" y="-126.5" font-family="Helvetica,sans-Serif" font-size="10.00">getString()</text>
<text text-anchor="start" x="323.5" y="-111.5" font-family="Helvetica,sans-Serif" font-size="10.00">and 19 more...</text>
<text text-anchor="start" x="289.5" y="-96.5" font-family="Helvetica,sans-Serif" font-size="10.00">+</text>
<text text-anchor="start" x="323.5" y="-96.5" font-family="Helvetica,sans-Serif" font-size="10.00">parse()</text>
<text text-anchor="start" x="289.5" y="-81.5" font-family="Helvetica,sans-Serif" font-size="10.00">~</text>
<text text-anchor="start" x="323.5" y="-81.5" font-family="Helvetica,sans-Serif" font-size="10.00">get()</text>
<text text-anchor="start" x="289.5" y="-66.5" font-family="Helvetica,sans-Serif" font-size="10.00">~</text>
<text text-anchor="start" x="323.5" y="-66.5" font-family="Helvetica,sans-Serif" font-size="10.00">get()</text>
<text text-anchor="start" x="289.5" y="-51.5" font-family="Helvetica,sans-Serif" font-size="10.00">~</text>
<text text-anchor="start" x="323.5" y="-51.5" font-family="Helvetica,sans-Serif" font-size="10.00">getArray()</text>
<text text-anchor="start" x="289.5" y="-36.5" font-family="Helvetica,sans-Serif" font-size="10.00">~</text>
<text text-anchor="start" x="323.5" y="-36.5" font-family="Helvetica,sans-Serif" font-size="10.00">getArray()</text>
<text text-anchor="start" x="289.5" y="-21.5" font-family="Helvetica,sans-Serif" font-size="10.00">~</text>
<text text-anchor="start" x="323.5" y="-21.5" font-family="Helvetica,sans-Serif" font-size="10.00">set()</text>
<text text-anchor="start" x="292" y="-6.5" font-family="Helvetica,sans-Serif" font-size="10.00">&#45;</text>
<text text-anchor="start" x="323.5" y="-6.5" font-family="Helvetica,sans-Serif" font-size="10.00">validateFlattenedAccess()</text>
<polygon fill="#666666" stroke="#666666" points="264.5,-286.5 264.5,-286.5 497.5,-286.5 497.5,-286.5 264.5,-286.5"/>
<polygon fill="#666666" stroke="#666666" points="264.5,-271.5 264.5,-271.5 497.5,-271.5 497.5,-271.5 264.5,-271.5"/>
<polygon fill="none" stroke="#666666" points="264,0 264,-315 497,-315 497,0 264,0"/>
</a>
</g>
</g>
<!-- Node2 -->
<g id="Node000002" class="node">
<title>Node2</title>
<g id="a_Node000002"><a xlink:href="classio_1_1github_1_1fruitcropxl_1_1config_1_1params_1_1structures_1_1ParamStructure.html" target="_top" xlink:title="Represents a structure found in ParamGroups that store parameters.">
<polygon fill="white" stroke="transparent" points="233,-534.5 0,-534.5 0,-459.5 233,-459.5 233,-534.5"/>
<text text-anchor="start" x="5.5" y="-522" font-family="Helvetica,sans-Serif" font-size="10.00">io.github.fruitcropxl.config.params.structures.</text>
<text text-anchor="start" x="79" y="-511" font-family="Helvetica,sans-Serif" font-size="10.00">ParamStructure</text>
<text text-anchor="start" x="115" y="-496" font-family="Helvetica,sans-Serif" font-size="10.00"> </text>
<text text-anchor="start" x="36.5" y="-481" font-family="Helvetica,sans-Serif" font-size="10.00">+</text>
<text text-anchor="start" x="81.5" y="-481" font-family="Helvetica,sans-Serif" font-size="10.00">ParamStructure()</text>
<text text-anchor="start" x="36.5" y="-466" font-family="Helvetica,sans-Serif" font-size="10.00">+</text>
<text text-anchor="start" x="81.5" y="-466" font-family="Helvetica,sans-Serif" font-size="10.00">getGroupKey()</text>
<polygon fill="#666666" stroke="#666666" points="0.5,-506 0.5,-506 233.5,-506 233.5,-506 0.5,-506"/>
<polygon fill="#666666" stroke="#666666" points="0.5,-491 0.5,-491 233.5,-491 233.5,-491 0.5,-491"/>
<polygon fill="none" stroke="#666666" points="0,-459.5 0,-534.5 233,-534.5 233,-459.5 0,-459.5"/>
</a>
</g>
</g>
<!-- Node2&#45;&gt;Node1 -->
<g id="edge1_Node000001_Node000002" class="edge">
<title>Node2&#45;&gt;Node1</title>
<g id="a_edge1_Node000001_Node000002"><a xlink:title=" ">
<path fill="none" stroke="#63b8ff" d="M151.57,-451.17C180.46,-414.24 223.15,-359.66 263.87,-307.61"/>
<polygon fill="none" stroke="#63b8ff" points="148.66,-449.21 145.26,-459.24 154.17,-453.52 148.66,-449.21"/>
</a>
</g>
</g>
<!-- Node3 -->
<g id="Node000003" class="node">
<title>Node3</title>
<g id="a_Node000003"><a xlink:href="classSerializable.html" target="_top" xlink:title=" ">
<polygon fill="white" stroke="transparent" points="110.5,-733.5 42.5,-733.5 42.5,-684.5 110.5,-684.5 110.5,-733.5"/>
<text text-anchor="start" x="47.5" y="-721" font-family="Helvetica,sans-Serif" font-size="10.00">Serializable</text>
<text text-anchor="start" x="74.5" y="-706" font-family="Helvetica,sans-Serif" font-size="10.00"> </text>
<text text-anchor="start" x="74.5" y="-691" font-family="Helvetica,sans-Serif" font-size="10.00"> </text>
<polygon fill="#666666" stroke="#666666" points="42.5,-716 42.5,-716 110.5,-716 110.5,-716 42.5,-716"/>
<polygon fill="#666666" stroke="#666666" points="42.5,-701 42.5,-701 110.5,-701 110.5,-701 42.5,-701"/>
<polygon fill="none" stroke="#666666" points="42.5,-684.5 42.5,-733.5 110.5,-733.5 110.5,-684.5 42.5,-684.5"/>
</a>
</g>
</g>
<!-- Node3&#45;&gt;Node2 -->
<g id="edge2_Node000002_Node000003" class="edge">
<title>Node3&#45;&gt;Node2</title>
<g id="a_edge2_Node000002_Node000003"><a xlink:title=" ">
<path fill="none" stroke="#63b8ff" d="M82.94,-674.21C90.22,-635.98 102.03,-573.95 109.53,-534.61"/>
<polygon fill="none" stroke="#63b8ff" points="79.44,-673.84 81.01,-684.32 86.32,-675.15 79.44,-673.84"/>
</a>
</g>
</g>
<!-- Node4 -->
<g id="Node000004" class="node">
<title>Node4</title>
<g id="a_Node000004"><a xlink:title=" ">
<polygon fill="white" stroke="transparent" points="168,-733.5 129,-733.5 129,-684.5 168,-684.5 168,-733.5"/>
<text text-anchor="start" x="134.5" y="-721" font-family="Helvetica,sans-Serif" font-size="10.00">String</text>
<text text-anchor="start" x="147" y="-706" font-family="Helvetica,sans-Serif" font-size="10.00"> </text>
<text text-anchor="start" x="147" y="-691" font-family="Helvetica,sans-Serif" font-size="10.00"> </text>
<polygon fill="#666666" stroke="#666666" points="129.5,-716 129.5,-716 168.5,-716 168.5,-716 129.5,-716"/>
<polygon fill="#666666" stroke="#666666" points="129.5,-701 129.5,-701 168.5,-701 168.5,-701 129.5,-701"/>
<polygon fill="none" stroke="#666666" points="129,-684.5 129,-733.5 168,-733.5 168,-684.5 129,-684.5"/>
</a>
</g>
</g>
<!-- Node4&#45;&gt;Node2 -->
<g id="edge3_Node000002_Node000004" class="edge">
<title>Node4&#45;&gt;Node2</title>
<g id="a_edge3_Node000002_Node000004"><a xlink:title=" ">
<path fill="none" stroke="#63b8ff" d="M144.89,-684.32C139.82,-651.05 130.48,-589.73 123.9,-546.54"/>
<polygon fill="none" stroke="#63b8ff" points="123.89,-546.47 119.03,-541.14 122.08,-534.61 126.94,-539.93 123.89,-546.47"/>
</a>
</g>
<text text-anchor="middle" x="168" y="-653" font-family="Helvetica,sans-Serif" font-size="10.00" fill="grey"> &#45;groupKey</text>
</g>
<!-- Node5 -->
<g id="Node000005" class="node">
<title>Node5</title>
<g id="a_Node000005"><a xlink:href="classKeyParamAccessor.html" target="_top" xlink:title=" ">
<polygon fill="white" stroke="transparent" points="321,-733.5 218,-733.5 218,-684.5 321,-684.5 321,-733.5"/>
<text text-anchor="start" x="223.5" y="-721" font-family="Helvetica,sans-Serif" font-size="10.00">KeyParamAccessor</text>
<text text-anchor="start" x="268" y="-706" font-family="Helvetica,sans-Serif" font-size="10.00"> </text>
<text text-anchor="start" x="268" y="-691" font-family="Helvetica,sans-Serif" font-size="10.00"> </text>
<polygon fill="#666666" stroke="#666666" points="218.5,-716 218.5,-716 321.5,-716 321.5,-716 218.5,-716"/>
<polygon fill="#666666" stroke="#666666" points="218.5,-701 218.5,-701 321.5,-701 321.5,-701 218.5,-701"/>
<polygon fill="none" stroke="#666666" points="218,-684.5 218,-733.5 321,-733.5 321,-684.5 218,-684.5"/>
</a>
</g>
</g>
<!-- Node5&#45;&gt;Node1 -->
<g id="edge4_Node000001_Node000005" class="edge">
<title>Node5&#45;&gt;Node1</title>
<g id="a_edge4_Node000001_Node000005"><a xlink:title=" ">
<path fill="none" stroke="#63b8ff" d="M268.14,-673.99C266.45,-611.31 266.55,-473.78 293.5,-362 297.24,-346.5 302.05,-330.68 307.49,-315.04"/>
<polygon fill="none" stroke="#63b8ff" points="264.65,-674.2 268.45,-684.09 271.64,-673.99 264.65,-674.2"/>
</a>
</g>
</g>
<!-- Node8 -->
<g id="Node000008" class="node">
<title>Node8</title>
<g id="a_Node000008"><a xlink:href="classio_1_1github_1_1fruitcropxl_1_1config_1_1params_1_1ParamCategory.html" target="_top" xlink:title="Stores Parameters that belong to a common category.">
<polygon fill="white" stroke="transparent" points="627.5,-632 445.5,-632 445.5,-362 627.5,-362 627.5,-632"/>
<text text-anchor="start" x="450.5" y="-620" font-family="Helvetica,sans-Serif" font-size="10.00">io.github.fruitcropxl.config.params.</text>
<text text-anchor="start" x="498.5" y="-609" font-family="Helvetica,sans-Serif" font-size="10.00">ParamCategory</text>
<text text-anchor="start" x="534.5" y="-594" font-family="Helvetica,sans-Serif" font-size="10.00"> </text>
<text text-anchor="start" x="469" y="-579" font-family="Helvetica,sans-Serif" font-size="10.00">+</text>
<text text-anchor="start" x="501.5" y="-579" font-family="Helvetica,sans-Serif" font-size="10.00">ParamCategory()</text>
<text text-anchor="start" x="469" y="-564" font-family="Helvetica,sans-Serif" font-size="10.00">+</text>
<text text-anchor="start" x="501.5" y="-564" font-family="Helvetica,sans-Serif" font-size="10.00">addParameter()</text>
<text text-anchor="start" x="469" y="-549" font-family="Helvetica,sans-Serif" font-size="10.00">+</text>
<text text-anchor="start" x="501.5" y="-549" font-family="Helvetica,sans-Serif" font-size="10.00">setParameter()</text>
<text text-anchor="start" x="469" y="-534" font-family="Helvetica,sans-Serif" font-size="10.00">+</text>
<text text-anchor="start" x="501.5" y="-534" font-family="Helvetica,sans-Serif" font-size="10.00">getParameter()</text>
<text text-anchor="start" x="469" y="-519" font-family="Helvetica,sans-Serif" font-size="10.00">+</text>
<text text-anchor="start" x="501.5" y="-519" font-family="Helvetica,sans-Serif" font-size="10.00">toString()</text>
<text text-anchor="start" x="469" y="-504" font-family="Helvetica,sans-Serif" font-size="10.00">+</text>
<text text-anchor="start" x="501.5" y="-504" font-family="Helvetica,sans-Serif" font-size="10.00">isNull()</text>
<text text-anchor="start" x="469" y="-489" font-family="Helvetica,sans-Serif" font-size="10.00">+</text>
<text text-anchor="start" x="501.5" y="-489" font-family="Helvetica,sans-Serif" font-size="10.00">getBoolean()</text>
<text text-anchor="start" x="469" y="-474" font-family="Helvetica,sans-Serif" font-size="10.00">+</text>
<text text-anchor="start" x="501.5" y="-474" font-family="Helvetica,sans-Serif" font-size="10.00">getBoolean()</text>
<text text-anchor="start" x="469" y="-459" font-family="Helvetica,sans-Serif" font-size="10.00">+</text>
<text text-anchor="start" x="501.5" y="-459" font-family="Helvetica,sans-Serif" font-size="10.00">getString()</text>
<text text-anchor="start" x="469" y="-444" font-family="Helvetica,sans-Serif" font-size="10.00">+</text>
<text text-anchor="start" x="501.5" y="-444" font-family="Helvetica,sans-Serif" font-size="10.00">getString()</text>
<text text-anchor="start" x="501.5" y="-429" font-family="Helvetica,sans-Serif" font-size="10.00">and 12 more...</text>
<text text-anchor="start" x="469" y="-414" font-family="Helvetica,sans-Serif" font-size="10.00">~</text>
<text text-anchor="start" x="501.5" y="-414" font-family="Helvetica,sans-Serif" font-size="10.00">get()</text>
<text text-anchor="start" x="469" y="-399" font-family="Helvetica,sans-Serif" font-size="10.00">~</text>
<text text-anchor="start" x="501.5" y="-399" font-family="Helvetica,sans-Serif" font-size="10.00">get()</text>
<text text-anchor="start" x="469" y="-384" font-family="Helvetica,sans-Serif" font-size="10.00">~</text>
<text text-anchor="start" x="501.5" y="-384" font-family="Helvetica,sans-Serif" font-size="10.00">getArray()</text>
<text text-anchor="start" x="469" y="-369" font-family="Helvetica,sans-Serif" font-size="10.00">~</text>
<text text-anchor="start" x="501.5" y="-369" font-family="Helvetica,sans-Serif" font-size="10.00">getArray()</text>
<polygon fill="#666666" stroke="#666666" points="445.5,-604 445.5,-604 627.5,-604 627.5,-604 445.5,-604"/>
<polygon fill="#666666" stroke="#666666" points="445.5,-589 445.5,-589 627.5,-589 627.5,-589 445.5,-589"/>
<polygon fill="none" stroke="#666666" points="445.5,-362 445.5,-632 627.5,-632 627.5,-362 445.5,-362"/>
</a>
</g>
</g>
<!-- Node5&#45;&gt;Node8 -->
<g id="edge9_Node000008_Node000005" class="edge">
<title>Node5&#45;&gt;Node8</title>
<g id="a_edge9_Node000008_Node000005"><a xlink:title=" ">
<path fill="none" stroke="#63b8ff" d="M330.28,-680.38C377.19,-659.03 434.34,-632.93 435.5,-632 438.79,-629.35 442.04,-626.58 445.22,-623.69"/>
<polygon fill="none" stroke="#63b8ff" points="328.7,-677.25 321.05,-684.58 331.6,-683.62 328.7,-677.25"/>
</a>
</g>
</g>
<!-- Node6 -->
<g id="Node000006" class="node">
<title>Node6</title>
<g id="a_Node000006"><a xlink:href="classTypedKeyParamAccessor.html" target="_top" xlink:title=" ">
<polygon fill="white" stroke="transparent" points="474,-733.5 343,-733.5 343,-684.5 474,-684.5 474,-733.5"/>
<text text-anchor="start" x="348.5" y="-721" font-family="Helvetica,sans-Serif" font-size="10.00">TypedKeyParamAccessor</text>
<text text-anchor="start" x="407" y="-706" font-family="Helvetica,sans-Serif" font-size="10.00"> </text>
<text text-anchor="start" x="407" y="-691" font-family="Helvetica,sans-Serif" font-size="10.00"> </text>
<polygon fill="#666666" stroke="#666666" points="343.5,-716 343.5,-716 474.5,-716 474.5,-716 343.5,-716"/>
<polygon fill="#666666" stroke="#666666" points="343.5,-701 343.5,-701 474.5,-701 474.5,-701 343.5,-701"/>
<polygon fill="none" stroke="#666666" points="343,-684.5 343,-733.5 474,-733.5 474,-684.5 343,-684.5"/>
</a>
</g>
</g>
<!-- Node6&#45;&gt;Node1 -->
<g id="edge5_Node000001_Node000006" class="edge">
<title>Node6&#45;&gt;Node1</title>
<g id="a_edge5_Node000001_Node000006"><a xlink:title=" ">
<path fill="none" stroke="#63b8ff" d="M362.01,-677.9C347.16,-665.63 332.51,-650.05 324.5,-632 280.39,-532.6 296.3,-410.52 322.24,-315.22"/>
<polygon fill="none" stroke="#63b8ff" points="360.21,-680.95 370.23,-684.38 364.54,-675.44 360.21,-680.95"/>
</a>
</g>
</g>
<!-- Node6&#45;&gt;Node8 -->
<g id="edge10_Node000008_Node000006" class="edge">
<title>Node6&#45;&gt;Node8</title>
<g id="a_edge10_Node000008_Node000006"><a xlink:title=" ">
<path fill="none" stroke="#63b8ff" d="M428.16,-675.75C435.75,-663.3 444.97,-648.16 454.8,-632.04"/>
<polygon fill="none" stroke="#63b8ff" points="425.15,-673.96 422.93,-684.32 431.13,-677.6 425.15,-673.96"/>
</a>
</g>
</g>
<!-- Node7 -->
<g id="Node000007" class="node">
<title>Node7</title>
<g id="a_Node000007"><a xlink:title=" ">
<polygon fill="white" stroke="transparent" points="427,-521.5 334,-521.5 334,-472.5 427,-472.5 427,-521.5"/>
<text text-anchor="start" x="339.5" y="-509" font-family="Helvetica,sans-Serif" font-size="10.00">static final String</text>
<text text-anchor="start" x="379" y="-494" font-family="Helvetica,sans-Serif" font-size="10.00"> </text>
<text text-anchor="start" x="379" y="-479" font-family="Helvetica,sans-Serif" font-size="10.00"> </text>
<polygon fill="#666666" stroke="#666666" points="334.5,-504 334.5,-504 427.5,-504 427.5,-504 334.5,-504"/>
<polygon fill="#666666" stroke="#666666" points="334.5,-489 334.5,-489 427.5,-489 427.5,-489 334.5,-489"/>
<polygon fill="none" stroke="#666666" points="334,-472.5 334,-521.5 427,-521.5 427,-472.5 334,-472.5"/>
</a>
</g>
</g>
<!-- Node7&#45;&gt;Node1 -->
<g id="edge6_Node000001_Node000007" class="edge">
<title>Node7&#45;&gt;Node1</title>
<g id="a_edge6_Node000001_Node000007"><a xlink:title=" ">
<path fill="none" stroke="#63b8ff" d="M380.5,-472.27C380.5,-441.31 380.5,-384.35 380.5,-327.37"/>
<polygon fill="none" stroke="#63b8ff" points="380.5,-327.22 376.5,-321.22 380.5,-315.22 384.5,-321.22 380.5,-327.22"/>
</a>
</g>
<text text-anchor="middle" x="440" y="-336" font-family="Helvetica,sans-Serif" font-size="10.00" fill="grey"> +CATEGORIES_HEADER</text>
</g>
<!-- Node8&#45;&gt;Node1 -->
<g id="edge7_Node000001_Node000008" class="edge">
<title>Node8&#45;&gt;Node1</title>
<g id="a_edge7_Node000001_Node000008"><a xlink:title=" ">
<path fill="none" stroke="#63b8ff" d="M513.99,-361.63C510.92,-351.79 507.44,-342.15 503.5,-333 502.5,-330.67 501.46,-328.35 500.39,-326.02"/>
<polygon fill="none" stroke="#63b8ff" points="500.37,-325.97 494.16,-322.29 495.17,-315.15 501.37,-318.83 500.37,-325.97"/>
</a>
</g>
<text text-anchor="middle" x="551.5" y="-336" font-family="Helvetica,sans-Serif" font-size="10.00" fill="grey"> &#45;categoryContext</text>
</g>
<!-- Node9 -->
<g id="Node000009" class="node">
<title>Node9</title>
<g id="a_Node000009"><a xlink:href="classKeyElement.html" target="_top" xlink:title=" ">
<polygon fill="white" stroke="transparent" points="563,-733.5 494,-733.5 494,-684.5 563,-684.5 563,-733.5"/>
<text text-anchor="start" x="499.5" y="-721" font-family="Helvetica,sans-Serif" font-size="10.00">KeyElement</text>
<text text-anchor="start" x="527" y="-706" font-family="Helvetica,sans-Serif" font-size="10.00"> </text>
<text text-anchor="start" x="527" y="-691" font-family="Helvetica,sans-Serif" font-size="10.00"> </text>
<polygon fill="#666666" stroke="#666666" points="494.5,-716 494.5,-716 563.5,-716 563.5,-716 494.5,-716"/>
<polygon fill="#666666" stroke="#666666" points="494.5,-701 494.5,-701 563.5,-701 563.5,-701 494.5,-701"/>
<polygon fill="none" stroke="#666666" points="494,-684.5 494,-733.5 563,-733.5 563,-684.5 494,-684.5"/>
</a>
</g>
</g>
<!-- Node9&#45;&gt;Node8 -->
<g id="edge8_Node000008_Node000009" class="edge">
<title>Node9&#45;&gt;Node8</title>
<g id="a_edge8_Node000008_Node000009"><a xlink:title=" ">
<path fill="none" stroke="#63b8ff" d="M529.78,-674.29C530.25,-662.12 530.8,-647.54 531.39,-632.04"/>
<polygon fill="none" stroke="#63b8ff" points="526.29,-674.19 529.4,-684.32 533.28,-674.46 526.29,-674.19"/>
</a>
</g>
</g>
<!-- Node10 -->
<g id="Node000010" class="node">
<title>Node10</title>
<g id="a_Node000010"><a xlink:title=" ">
<polygon fill="white" stroke="transparent" points="829.5,-739 581.5,-739 581.5,-679 829.5,-679 829.5,-739"/>
<text text-anchor="start" x="586.5" y="-727" font-family="Helvetica,sans-Serif" font-size="10.00">Map&lt; String, io.github.fruitcropxl.config.params.</text>
<text text-anchor="start" x="674.5" y="-716" font-family="Helvetica,sans-Serif" font-size="10.00">Parameter &gt;</text>
<text text-anchor="start" x="703.5" y="-701" font-family="Helvetica,sans-Serif" font-size="10.00"> </text>
<text text-anchor="start" x="703.5" y="-686" font-family="Helvetica,sans-Serif" font-size="10.00"> </text>
<polygon fill="#666666" stroke="#666666" points="581.5,-711 581.5,-711 829.5,-711 829.5,-711 581.5,-711"/>
<polygon fill="#666666" stroke="#666666" points="581.5,-696 581.5,-696 829.5,-696 829.5,-696 581.5,-696"/>
<polygon fill="none" stroke="#666666" points="581.5,-679 581.5,-739 829.5,-739 829.5,-679 581.5,-679"/>
</a>
</g>
</g>
<!-- Node10&#45;&gt;Node8 -->
<g id="edge11_Node000008_Node000010" class="edge">
<title>Node10&#45;&gt;Node8</title>
<g id="a_edge11_Node000008_Node000010"><a xlink:title=" ">
<path fill="none" stroke="#63b8ff" d="M677.96,-678.99C665.04,-665.06 649.65,-647.96 636.5,-632 636.13,-631.55 635.76,-631.1 635.39,-630.65"/>
<polygon fill="none" stroke="#63b8ff" points="635.15,-630.36 628.27,-628.22 627.59,-621.04 634.48,-623.18 635.15,-630.36"/>
</a>
</g>
<text text-anchor="middle" x="681.5" y="-653" font-family="Helvetica,sans-Serif" font-size="10.00" fill="grey"> &#45;params</text>
</g>
<!-- Node11 -->
<g id="Node000011" class="node">
<title>Node11</title>
<g id="a_Node000011"><a xlink:title=" ">
<polygon fill="white" stroke="transparent" points="893.5,-527 645.5,-527 645.5,-467 893.5,-467 893.5,-527"/>
<text text-anchor="start" x="650.5" y="-515" font-family="Helvetica,sans-Serif" font-size="10.00">Map&lt; String, io.github.fruitcropxl.config.params.</text>
<text text-anchor="start" x="726" y="-504" font-family="Helvetica,sans-Serif" font-size="10.00">ParamCategory &gt;</text>
<text text-anchor="start" x="767.5" y="-489" font-family="Helvetica,sans-Serif" font-size="10.00"> </text>
<text text-anchor="start" x="767.5" y="-474" font-family="Helvetica,sans-Serif" font-size="10.00"> </text>
<polygon fill="#666666" stroke="#666666" points="645.5,-499 645.5,-499 893.5,-499 893.5,-499 645.5,-499"/>
<polygon fill="#666666" stroke="#666666" points="645.5,-484 645.5,-484 893.5,-484 893.5,-484 645.5,-484"/>
<polygon fill="none" stroke="#666666" points="645.5,-467 645.5,-527 893.5,-527 893.5,-467 645.5,-467"/>
</a>
</g>
</g>
<!-- Node11&#45;&gt;Node1 -->
<g id="edge12_Node000001_Node000011" class="edge">
<title>Node11&#45;&gt;Node1</title>
<g id="a_edge12_Node000001_Node000011"><a xlink:title=" ">
<path fill="none" stroke="#63b8ff" d="M742.41,-466.78C716.17,-438.95 674.83,-396.33 636.5,-362 595.51,-325.29 548.86,-287.21 506.72,-254.05"/>
<polygon fill="none" stroke="#63b8ff" points="506.68,-254.02 499.49,-253.47 497.24,-246.62 504.43,-247.17 506.68,-254.02"/>
</a>
</g>
<text text-anchor="middle" x="638.5" y="-336" font-family="Helvetica,sans-Serif" font-size="10.00" fill="grey"> &#45;categories</text>
</g>
<!-- Node12 -->
<g id="Node000012" class="node">
<title>Node12</title>
<g id="a_Node000012"><a xlink:title=" ">
<polygon fill="white" stroke="transparent" points="961.5,-521.5 911.5,-521.5 911.5,-472.5 961.5,-472.5 961.5,-521.5"/>
<text text-anchor="start" x="916.5" y="-509" font-family="Helvetica,sans-Serif" font-size="10.00">boolean</text>
<text text-anchor="start" x="934.5" y="-494" font-family="Helvetica,sans-Serif" font-size="10.00"> </text>
<text text-anchor="start" x="934.5" y="-479" font-family="Helvetica,sans-Serif" font-size="10.00"> </text>
<polygon fill="#666666" stroke="#666666" points="911.5,-504 911.5,-504 961.5,-504 961.5,-504 911.5,-504"/>
<polygon fill="#666666" stroke="#666666" points="911.5,-489 911.5,-489 961.5,-489 961.5,-489 911.5,-489"/>
<polygon fill="none" stroke="#666666" points="911.5,-472.5 911.5,-521.5 961.5,-521.5 961.5,-472.5 911.5,-472.5"/>
</a>
</g>
</g>
<!-- Node12&#45;&gt;Node1 -->
<g id="edge13_Node000001_Node000012" class="edge">
<title>Node12&#45;&gt;Node1</title>
<g id="a_edge13_Node000001_Node000012"><a xlink:title=" ">
<path fill="none" stroke="#63b8ff" d="M936.76,-472.43C935.82,-443.08 929.92,-393.02 902.5,-362 801.46,-247.67 628.25,-197.05 509.26,-174.98"/>
<polygon fill="none" stroke="#63b8ff" points="509.01,-174.94 502.39,-177.81 497.2,-172.81 503.81,-169.94 509.01,-174.94"/>
</a>
</g>
<text text-anchor="middle" x="943.5" y="-336" font-family="Helvetica,sans-Serif" font-size="10.00" fill="grey"> &#45;useFlattenedCategories</text>
</g>
</g>
</svg>
