<?xml version="1.0" encoding="UTF-8" standalone="no"?>
<!DOCTYPE svg PUBLIC "-//W3C//DTD SVG 1.1//EN"
 "http://www.w3.org/Graphics/SVG/1.1/DTD/svg11.dtd">
<!-- Generated by graphviz version 2.43.0 (0)
 -->
<!-- Title: fspm.config.Config.checkGroupContextExists Pages: 1 -->
<svg width="936pt" height="576pt"
 viewBox="0.00 0.00 936.00 575.50" xmlns="http://www.w3.org/2000/svg" xmlns:xlink="http://www.w3.org/1999/xlink">
<g id="graph0" class="graph" transform="scale(1 1) rotate(0) translate(4 571.5)">
<title>fspm.config.Config.checkGroupContextExists</title>
<!-- Node1 -->
<g id="node1" class="node">
<title>Node1</title>
<g id="a_node1"><a xlink:title=" ">
<polygon fill="#bfbfbf" stroke="black" points="789,-246.5 789,-276.5 928,-276.5 928,-246.5 789,-246.5"/>
<text text-anchor="start" x="797" y="-264.5" font-family="Helvetica,sans-Serif" font-size="10.00">fspm.config.Config.check</text>
<text text-anchor="middle" x="858.5" y="-253.5" font-family="Helvetica,sans-Serif" font-size="10.00">GroupContextExists</text>
</a>
</g>
</g>
<!-- Node2 -->
<g id="node2" class="node">
<title>Node2</title>
<g id="a_node2"><a xlink:href="classfspm_1_1config_1_1Config_abce61aaf26cf14b4ae2204ff22c27b57.html#abce61aaf26cf14b4ae2204ff22c27b57" target="_top" xlink:title=" ">
<polygon fill="none" stroke="black" points="614,-323.5 614,-353.5 753,-353.5 753,-323.5 614,-323.5"/>
<text text-anchor="start" x="622" y="-341.5" font-family="Helvetica,sans-Serif" font-size="10.00">fspm.config.Config.check</text>
<text text-anchor="middle" x="683.5" y="-330.5" font-family="Helvetica,sans-Serif" font-size="10.00">ContextsExists</text>
</a>
</g>
</g>
<!-- Node1&#45;&gt;Node2 -->
<g id="edge1" class="edge">
<title>Node1&#45;&gt;Node2</title>
<path fill="none" stroke="midnightblue" d="M814.46,-280.66C784.81,-293.86 745.95,-311.15 718.48,-323.38"/>
<polygon fill="midnightblue" stroke="midnightblue" points="816.02,-283.79 823.73,-276.53 813.17,-277.4 816.02,-283.79"/>
</g>
<!-- Node24 -->
<g id="node24" class="node">
<title>Node24</title>
<g id="a_node24"><a xlink:href="classfspm_1_1config_1_1Config_a2fb672909a4db34c8d754289f25dfc14.html#a2fb672909a4db34c8d754289f25dfc14" target="_top" xlink:title=" ">
<polygon fill="none" stroke="black" points="408,-137.5 408,-167.5 578,-167.5 578,-137.5 408,-137.5"/>
<text text-anchor="start" x="416" y="-155.5" font-family="Helvetica,sans-Serif" font-size="10.00">fspm.config.Config.setCategory</text>
<text text-anchor="middle" x="493" y="-144.5" font-family="Helvetica,sans-Serif" font-size="10.00">Context</text>
</a>
</g>
</g>
<!-- Node1&#45;&gt;Node24 -->
<g id="edge29" class="edge">
<title>Node1&#45;&gt;Node24</title>
<path fill="none" stroke="midnightblue" d="M797.67,-243.56C726.94,-222.35 610.48,-187.43 544.23,-167.56"/>
<polygon fill="midnightblue" stroke="midnightblue" points="796.75,-246.94 807.34,-246.46 798.77,-240.23 796.75,-246.94"/>
</g>
<!-- Node3 -->
<g id="node3" class="node">
<title>Node3</title>
<g id="a_node3"><a xlink:href="classfspm_1_1config_1_1Config_ae827f35da2e09b1d18f5a82538db57bc.html#ae827f35da2e09b1d18f5a82538db57bc" target="_top" xlink:title=" ">
<polygon fill="none" stroke="black" points="410,-479 410,-498 576,-498 576,-479 410,-479"/>
<text text-anchor="middle" x="493" y="-486" font-family="Helvetica,sans-Serif" font-size="10.00">fspm.config.Config.getBoolean</text>
</a>
</g>
</g>
<!-- Node2&#45;&gt;Node3 -->
<g id="edge2" class="edge">
<title>Node2&#45;&gt;Node3</title>
<path fill="none" stroke="midnightblue" d="M665.83,-361.95C646.94,-387.12 614.05,-426.94 578,-452.5 561.82,-463.97 541.42,-472.82 524.77,-478.88"/>
<polygon fill="midnightblue" stroke="midnightblue" points="668.8,-363.82 671.91,-353.7 663.16,-359.67 668.8,-363.82"/>
</g>
<!-- Node8 -->
<g id="node8" class="node">
<title>Node8</title>
<g id="a_node8"><a xlink:href="classfspm_1_1config_1_1Config_ae462a8b94814530c25f796f0b4f48115.html#ae462a8b94814530c25f796f0b4f48115" target="_top" xlink:title=" ">
<polygon fill="none" stroke="black" points="412.5,-272 412.5,-291 573.5,-291 573.5,-272 412.5,-272"/>
<text text-anchor="middle" x="493" y="-279" font-family="Helvetica,sans-Serif" font-size="10.00">fspm.config.Config.getDouble</text>
</a>
</g>
</g>
<!-- Node2&#45;&gt;Node8 -->
<g id="edge7" class="edge">
<title>Node2&#45;&gt;Node8</title>
<path fill="none" stroke="midnightblue" d="M635.11,-319.83C617.36,-313.22 596.91,-306.05 578,-300.5 566.09,-297 553.08,-293.78 540.92,-291.01"/>
<polygon fill="midnightblue" stroke="midnightblue" points="634.07,-323.18 644.67,-323.43 636.54,-316.63 634.07,-323.18"/>
</g>
<!-- Node15 -->
<g id="node15" class="node">
<title>Node15</title>
<g id="a_node15"><a xlink:href="classfspm_1_1config_1_1Config_afa630b4bdff20121abd94ef706423f27.html#afa630b4bdff20121abd94ef706423f27" target="_top" xlink:title=" ">
<polygon fill="none" stroke="black" points="412.5,-49.5 412.5,-79.5 573.5,-79.5 573.5,-49.5 412.5,-49.5"/>
<text text-anchor="start" x="420.5" y="-67.5" font-family="Helvetica,sans-Serif" font-size="10.00">fspm.config.Config.getDouble</text>
<text text-anchor="middle" x="493" y="-56.5" font-family="Helvetica,sans-Serif" font-size="10.00">Array</text>
</a>
</g>
</g>
<!-- Node2&#45;&gt;Node15 -->
<g id="edge15" class="edge">
<title>Node2&#45;&gt;Node15</title>
<path fill="none" stroke="midnightblue" d="M674.5,-313.68C660.15,-271.9 626.91,-186.33 578,-127.5 561.8,-108.02 538.43,-91.12 520.45,-79.74"/>
<polygon fill="midnightblue" stroke="midnightblue" points="671.24,-314.95 677.74,-323.32 677.87,-312.72 671.24,-314.95"/>
</g>
<!-- Node18 -->
<g id="node18" class="node">
<title>Node18</title>
<g id="a_node18"><a xlink:href="classfspm_1_1config_1_1Config_a5e0b8f5ad9a3ead9ec4c4ab031918b94.html#a5e0b8f5ad9a3ead9ec4c4ab031918b94" target="_top" xlink:title=" ">
<polygon fill="none" stroke="black" points="412.5,-348 412.5,-367 573.5,-367 573.5,-348 412.5,-348"/>
<text text-anchor="middle" x="493" y="-355" font-family="Helvetica,sans-Serif" font-size="10.00">fspm.config.Config.getInteger</text>
</a>
</g>
</g>
<!-- Node2&#45;&gt;Node18 -->
<g id="edge18" class="edge">
<title>Node2&#45;&gt;Node18</title>
<path fill="none" stroke="midnightblue" d="M603.7,-346.44C593.79,-347.44 583.65,-348.46 573.73,-349.46"/>
<polygon fill="midnightblue" stroke="midnightblue" points="604.32,-349.9 613.91,-345.41 603.61,-342.93 604.32,-349.9"/>
</g>
<!-- Node20 -->
<g id="node20" class="node">
<title>Node20</title>
<g id="a_node20"><a xlink:href="classfspm_1_1config_1_1Config_a3be13c8aecc91ab1cd95692ec65df305.html#a3be13c8aecc91ab1cd95692ec65df305" target="_top" xlink:title=" ">
<polygon fill="none" stroke="black" points="415.5,-424 415.5,-443 570.5,-443 570.5,-424 415.5,-424"/>
<text text-anchor="middle" x="493" y="-431" font-family="Helvetica,sans-Serif" font-size="10.00">fspm.config.Config.getString</text>
</a>
</g>
</g>
<!-- Node2&#45;&gt;Node20 -->
<g id="edge21" class="edge">
<title>Node2&#45;&gt;Node20</title>
<path fill="none" stroke="midnightblue" d="M658.4,-360.47C638.3,-377.64 608.17,-400.82 578,-414.5 569.56,-418.33 560.28,-421.42 551.06,-423.9"/>
<polygon fill="midnightblue" stroke="midnightblue" points="660.87,-362.96 666.11,-353.75 656.27,-357.68 660.87,-362.96"/>
</g>
<!-- Node22 -->
<g id="node22" class="node">
<title>Node22</title>
<g id="a_node22"><a xlink:href="classfspm_1_1config_1_1Config_a23eaad13093f0089ec76d726607956b5.html#a23eaad13093f0089ec76d726607956b5" target="_top" xlink:title=" ">
<polygon fill="none" stroke="black" points="424,-310 424,-329 562,-329 562,-310 424,-310"/>
<text text-anchor="middle" x="493" y="-317" font-family="Helvetica,sans-Serif" font-size="10.00">fspm.config.Config.isNull</text>
</a>
</g>
</g>
<!-- Node2&#45;&gt;Node22 -->
<g id="edge26" class="edge">
<title>Node2&#45;&gt;Node22</title>
<path fill="none" stroke="midnightblue" d="M603.93,-330.58C590.08,-329.18 575.76,-327.74 562.22,-326.38"/>
<polygon fill="midnightblue" stroke="midnightblue" points="603.61,-334.07 613.91,-331.59 604.32,-327.1 603.61,-334.07"/>
</g>
<!-- Node23 -->
<g id="node23" class="node">
<title>Node23</title>
<g id="a_node23"><a xlink:href="classfspm_1_1config_1_1Config_a76b9187eaa8f4b269601af74195b565f.html#a76b9187eaa8f4b269601af74195b565f" target="_top" xlink:title=" ">
<polygon fill="none" stroke="black" points="430.5,-386 430.5,-405 555.5,-405 555.5,-386 430.5,-386"/>
<text text-anchor="middle" x="493" y="-393" font-family="Helvetica,sans-Serif" font-size="10.00">fspm.config.Config.set</text>
</a>
</g>
</g>
<!-- Node2&#45;&gt;Node23 -->
<g id="edge28" class="edge">
<title>Node2&#45;&gt;Node23</title>
<path fill="none" stroke="midnightblue" d="M635.11,-357.17C617.36,-363.78 596.91,-370.95 578,-376.5 566.09,-380 553.08,-383.22 540.92,-385.99"/>
<polygon fill="midnightblue" stroke="midnightblue" points="636.54,-360.37 644.67,-353.57 634.07,-353.82 636.54,-360.37"/>
</g>
<!-- Node4 -->
<g id="node4" class="node">
<title>Node4</title>
<g id="a_node4"><a xlink:href="classfspm_1_1config_1_1ConfigTest_a586a428c43c00668f273133c28ddd635.html#a586a428c43c00668f273133c28ddd635" target="_top" xlink:title=" ">
<polygon fill="none" stroke="black" points="207.5,-449.5 207.5,-479.5 370.5,-479.5 370.5,-449.5 207.5,-449.5"/>
<text text-anchor="start" x="215.5" y="-467.5" font-family="Helvetica,sans-Serif" font-size="10.00">fspm.config.ConfigTest.access</text>
<text text-anchor="middle" x="289" y="-456.5" font-family="Helvetica,sans-Serif" font-size="10.00">Examples</text>
</a>
</g>
</g>
<!-- Node3&#45;&gt;Node4 -->
<g id="edge3" class="edge">
<title>Node3&#45;&gt;Node4</title>
<path fill="none" stroke="midnightblue" d="M401.63,-477.76C391.32,-476.54 380.86,-475.3 370.69,-474.09"/>
<polygon fill="midnightblue" stroke="midnightblue" points="401.53,-481.28 411.87,-478.98 402.36,-474.32 401.53,-481.28"/>
</g>
<!-- Node5 -->
<g id="node5" class="node">
<title>Node5</title>
<g id="a_node5"><a xlink:href="classfspm_1_1config_1_1Config_a7ea65e4b8e2ba486cc4dca0c4e1eb234.html#a7ea65e4b8e2ba486cc4dca0c4e1eb234" target="_top" xlink:title=" ">
<polygon fill="none" stroke="black" points="206,-548 206,-567 372,-567 372,-548 206,-548"/>
<text text-anchor="middle" x="289" y="-555" font-family="Helvetica,sans-Serif" font-size="10.00">fspm.config.Config.getBoolean</text>
</a>
</g>
</g>
<!-- Node3&#45;&gt;Node5 -->
<g id="edge4" class="edge">
<title>Node3&#45;&gt;Node5</title>
<path fill="none" stroke="midnightblue" d="M462.76,-502.3C438.77,-513.23 403.72,-528.29 372,-538.5 360.87,-542.08 348.69,-545.28 337.2,-547.98"/>
<polygon fill="midnightblue" stroke="midnightblue" points="464.38,-505.41 472,-498.05 461.46,-499.05 464.38,-505.41"/>
</g>
<!-- Node6 -->
<g id="node6" class="node">
<title>Node6</title>
<g id="a_node6"><a xlink:href="classfspm_1_1config_1_1ConfigTest_a09a38b5eee655b088e4e144df5ad5a85.html#a09a38b5eee655b088e4e144df5ad5a85" target="_top" xlink:title=" ">
<polygon fill="none" stroke="black" points="214.5,-498.5 214.5,-528.5 363.5,-528.5 363.5,-498.5 214.5,-498.5"/>
<text text-anchor="start" x="222.5" y="-516.5" font-family="Helvetica,sans-Serif" font-size="10.00">fspm.config.ConfigTest.test</text>
<text text-anchor="middle" x="289" y="-505.5" font-family="Helvetica,sans-Serif" font-size="10.00">_flatCategories</text>
</a>
</g>
</g>
<!-- Node3&#45;&gt;Node6 -->
<g id="edge5" class="edge">
<title>Node3&#45;&gt;Node6</title>
<path fill="none" stroke="midnightblue" d="M405.1,-499.26C391.32,-500.96 377.18,-502.71 363.73,-504.37"/>
<polygon fill="midnightblue" stroke="midnightblue" points="405.56,-502.72 415.06,-498.02 404.7,-495.78 405.56,-502.72"/>
</g>
<!-- Node7 -->
<g id="node7" class="node">
<title>Node7</title>
<g id="a_node7"><a xlink:href="classfspm_1_1config_1_1ConfigTest_aacca92fc43946c5a3d4613a1085d59f9.html#aacca92fc43946c5a3d4613a1085d59f9" target="_top" xlink:title=" ">
<polygon fill="none" stroke="black" points="0,-504 0,-523 170,-523 170,-504 0,-504"/>
<text text-anchor="middle" x="85" y="-511" font-family="Helvetica,sans-Serif" font-size="10.00">fspm.config.ConfigTest.runMain</text>
</a>
</g>
</g>
<!-- Node6&#45;&gt;Node7 -->
<g id="edge6" class="edge">
<title>Node6&#45;&gt;Node7</title>
<path fill="none" stroke="midnightblue" d="M204.04,-513.5C192.85,-513.5 181.38,-513.5 170.18,-513.5"/>
<polygon fill="midnightblue" stroke="midnightblue" points="204.22,-517 214.22,-513.5 204.22,-510 204.22,-517"/>
</g>
<!-- Node8&#45;&gt;Node6 -->
<g id="edge10" class="edge">
<title>Node8&#45;&gt;Node6</title>
<path fill="none" stroke="midnightblue" d="M411.95,-296.85C410.57,-297.99 409.25,-299.21 408,-300.5 348.58,-361.99 429.48,-426.19 372,-489.5 368.91,-492.9 365.36,-495.84 361.52,-498.36"/>
<polygon fill="midnightblue" stroke="midnightblue" points="414.1,-299.62 420.41,-291.12 410.17,-293.83 414.1,-299.62"/>
</g>
<!-- Node9 -->
<g id="node9" class="node">
<title>Node9</title>
<g id="a_node9"><a xlink:href="classfspm_1_1config_1_1Config_a75f0ff59af54ebe3b864a01dc59b1663.html#a75f0ff59af54ebe3b864a01dc59b1663" target="_top" xlink:title=" ">
<polygon fill="none" stroke="black" points="208.5,-285 208.5,-304 369.5,-304 369.5,-285 208.5,-285"/>
<text text-anchor="middle" x="289" y="-292" font-family="Helvetica,sans-Serif" font-size="10.00">fspm.config.Config.getDouble</text>
</a>
</g>
</g>
<!-- Node8&#45;&gt;Node9 -->
<g id="edge8" class="edge">
<title>Node8&#45;&gt;Node9</title>
<path fill="none" stroke="midnightblue" d="M402.18,-287.28C391.39,-287.97 380.44,-288.68 369.8,-289.36"/>
<polygon fill="midnightblue" stroke="midnightblue" points="402.7,-290.75 412.45,-286.62 402.25,-283.77 402.7,-290.75"/>
</g>
<!-- Node10 -->
<g id="node10" class="node">
<title>Node10</title>
<g id="a_node10"><a xlink:href="classfspm_1_1config_1_1ConfigTest_ab639b7af67e947577db2ab2c9bc95a87.html#ab639b7af67e947577db2ab2c9bc95a87" target="_top" xlink:title=" ">
<polygon fill="none" stroke="black" points="214.5,-137.5 214.5,-167.5 363.5,-167.5 363.5,-137.5 214.5,-137.5"/>
<text text-anchor="start" x="222.5" y="-155.5" font-family="Helvetica,sans-Serif" font-size="10.00">fspm.config.ConfigTest.test</text>
<text text-anchor="middle" x="289" y="-144.5" font-family="Helvetica,sans-Serif" font-size="10.00">_default</text>
</a>
</g>
</g>
<!-- Node8&#45;&gt;Node10 -->
<g id="edge9" class="edge">
<title>Node8&#45;&gt;Node10</title>
<path fill="none" stroke="midnightblue" d="M476.81,-264.15C455.57,-240.94 414.8,-199.98 372,-176.5 365.76,-173.08 358.97,-170.09 352.07,-167.5"/>
<polygon fill="midnightblue" stroke="midnightblue" points="474.42,-266.73 483.71,-271.83 479.63,-262.06 474.42,-266.73"/>
</g>
<!-- Node11 -->
<g id="node11" class="node">
<title>Node11</title>
<g id="a_node11"><a xlink:href="classfspm_1_1config_1_1ConfigTest_a0ff566e57202c3f9bf2125d70d9c6b41.html#a0ff566e57202c3f9bf2125d70d9c6b41" target="_top" xlink:title=" ">
<polygon fill="none" stroke="black" points="214.5,-235.5 214.5,-265.5 363.5,-265.5 363.5,-235.5 214.5,-235.5"/>
<text text-anchor="start" x="222.5" y="-253.5" font-family="Helvetica,sans-Serif" font-size="10.00">fspm.config.ConfigTest.test</text>
<text text-anchor="middle" x="289" y="-242.5" font-family="Helvetica,sans-Serif" font-size="10.00">_getFloatAsDouble</text>
</a>
</g>
</g>
<!-- Node8&#45;&gt;Node11 -->
<g id="edge11" class="edge">
<title>Node8&#45;&gt;Node11</title>
<path fill="none" stroke="midnightblue" d="M420,-270.45C401.68,-267.64 381.97,-264.61 363.58,-261.79"/>
<polygon fill="midnightblue" stroke="midnightblue" points="419.61,-273.93 430.02,-271.99 420.67,-267.01 419.61,-273.93"/>
</g>
<!-- Node12 -->
<g id="node12" class="node">
<title>Node12</title>
<g id="a_node12"><a xlink:href="classfspm_1_1config_1_1ConfigTest_a08a6bb001d92ffa4a466c0b0b816a878.html#a08a6bb001d92ffa4a466c0b0b816a878" target="_top" xlink:title=" ">
<polygon fill="none" stroke="black" points="214.5,-186.5 214.5,-216.5 363.5,-216.5 363.5,-186.5 214.5,-186.5"/>
<text text-anchor="start" x="222.5" y="-204.5" font-family="Helvetica,sans-Serif" font-size="10.00">fspm.config.ConfigTest.test</text>
<text text-anchor="middle" x="289" y="-193.5" font-family="Helvetica,sans-Serif" font-size="10.00">_getIntAsDouble</text>
</a>
</g>
</g>
<!-- Node8&#45;&gt;Node12 -->
<g id="edge12" class="edge">
<title>Node8&#45;&gt;Node12</title>
<path fill="none" stroke="midnightblue" d="M463.99,-267.36C439.95,-255.55 404.2,-238.73 372,-226.5 362.82,-223.01 352.92,-219.66 343.28,-216.61"/>
<polygon fill="midnightblue" stroke="midnightblue" points="462.7,-270.63 473.21,-271.94 465.81,-264.36 462.7,-270.63"/>
</g>
<!-- Node13 -->
<g id="node13" class="node">
<title>Node13</title>
<g id="a_node13"><a xlink:href="classfspm_1_1config_1_1ConfigTest_aa9e41d045f61b82c742edbd88424aff3.html#aa9e41d045f61b82c742edbd88424aff3" target="_top" xlink:title=" ">
<polygon fill="none" stroke="black" points="214.5,-323.5 214.5,-353.5 363.5,-353.5 363.5,-323.5 214.5,-323.5"/>
<text text-anchor="start" x="222.5" y="-341.5" font-family="Helvetica,sans-Serif" font-size="10.00">fspm.config.ConfigTest.test</text>
<text text-anchor="middle" x="289" y="-330.5" font-family="Helvetica,sans-Serif" font-size="10.00">_getNullAsTypes</text>
</a>
</g>
</g>
<!-- Node8&#45;&gt;Node13 -->
<g id="edge13" class="edge">
<title>Node8&#45;&gt;Node13</title>
<path fill="none" stroke="midnightblue" d="M435.25,-293.33C426.09,-295.53 416.75,-297.94 408,-300.5 391.67,-305.27 388.14,-308.13 372,-313.5 361.97,-316.84 351.2,-320.25 340.87,-323.43"/>
<polygon fill="midnightblue" stroke="midnightblue" points="436.14,-296.71 445.08,-291.03 434.55,-289.9 436.14,-296.71"/>
</g>
<!-- Node14 -->
<g id="node14" class="node">
<title>Node14</title>
<g id="a_node14"><a xlink:href="classfspm_1_1config_1_1ConfigTest_a0ace3587e0462f748617e279d4d0c659.html#a0ace3587e0462f748617e279d4d0c659" target="_top" xlink:title=" ">
<polygon fill="none" stroke="black" points="10.5,-208.5 10.5,-238.5 159.5,-238.5 159.5,-208.5 10.5,-208.5"/>
<text text-anchor="start" x="18.5" y="-226.5" font-family="Helvetica,sans-Serif" font-size="10.00">fspm.config.ConfigTest.test</text>
<text text-anchor="middle" x="85" y="-215.5" font-family="Helvetica,sans-Serif" font-size="10.00">_types</text>
</a>
</g>
</g>
<!-- Node13&#45;&gt;Node14 -->
<g id="edge14" class="edge">
<title>Node13&#45;&gt;Node14</title>
<path fill="none" stroke="midnightblue" d="M220.19,-319.89C215.31,-317.93 210.53,-315.8 206,-313.5 165.36,-292.87 124.21,-258.39 102.23,-238.63"/>
<polygon fill="midnightblue" stroke="midnightblue" points="219.07,-323.21 229.66,-323.47 221.54,-316.67 219.07,-323.21"/>
</g>
<!-- Node16 -->
<g id="node16" class="node">
<title>Node16</title>
<g id="a_node16"><a xlink:href="classfspm_1_1config_1_1Config_ab63abbac8c043b0cd64927d084bd4c49.html#ab63abbac8c043b0cd64927d084bd4c49" target="_top" xlink:title=" ">
<polygon fill="none" stroke="black" points="208.5,-0.5 208.5,-30.5 369.5,-30.5 369.5,-0.5 208.5,-0.5"/>
<text text-anchor="start" x="216.5" y="-18.5" font-family="Helvetica,sans-Serif" font-size="10.00">fspm.config.Config.getDouble</text>
<text text-anchor="middle" x="289" y="-7.5" font-family="Helvetica,sans-Serif" font-size="10.00">Array</text>
</a>
</g>
</g>
<!-- Node15&#45;&gt;Node16 -->
<g id="edge16" class="edge">
<title>Node15&#45;&gt;Node16</title>
<path fill="none" stroke="midnightblue" d="M420.25,-47.1C397.91,-41.68 373.47,-35.75 351.86,-30.51"/>
<polygon fill="midnightblue" stroke="midnightblue" points="419.48,-50.51 430.02,-49.47 421.13,-43.71 419.48,-50.51"/>
</g>
<!-- Node17 -->
<g id="node17" class="node">
<title>Node17</title>
<g id="a_node17"><a xlink:href="classfspm_1_1config_1_1ConfigTest_a06c9116c21e1df253ca6b4056a187bad.html#a06c9116c21e1df253ca6b4056a187bad" target="_top" xlink:title=" ">
<polygon fill="none" stroke="black" points="214.5,-49.5 214.5,-79.5 363.5,-79.5 363.5,-49.5 214.5,-49.5"/>
<text text-anchor="start" x="222.5" y="-67.5" font-family="Helvetica,sans-Serif" font-size="10.00">fspm.config.ConfigTest.test</text>
<text text-anchor="middle" x="289" y="-56.5" font-family="Helvetica,sans-Serif" font-size="10.00">_phenology</text>
</a>
</g>
</g>
<!-- Node15&#45;&gt;Node17 -->
<g id="edge17" class="edge">
<title>Node15&#45;&gt;Node17</title>
<path fill="none" stroke="midnightblue" d="M402.17,-64.5C389.26,-64.5 376.1,-64.5 363.55,-64.5"/>
<polygon fill="midnightblue" stroke="midnightblue" points="402.45,-68 412.45,-64.5 402.45,-61 402.45,-68"/>
</g>
<!-- Node18&#45;&gt;Node13 -->
<g id="edge20" class="edge">
<title>Node18&#45;&gt;Node13</title>
<path fill="none" stroke="midnightblue" d="M402.17,-349.05C389.26,-347.84 376.1,-346.6 363.55,-345.42"/>
<polygon fill="midnightblue" stroke="midnightblue" points="402.17,-352.57 412.45,-350.02 402.83,-345.6 402.17,-352.57"/>
</g>
<!-- Node19 -->
<g id="node19" class="node">
<title>Node19</title>
<g id="a_node19"><a xlink:href="classfspm_1_1config_1_1Config_ab43ca088e354eed9af2d74c813e08ff8.html#ab43ca088e354eed9af2d74c813e08ff8" target="_top" xlink:title=" ">
<polygon fill="none" stroke="black" points="208.5,-373 208.5,-392 369.5,-392 369.5,-373 208.5,-373"/>
<text text-anchor="middle" x="289" y="-380" font-family="Helvetica,sans-Serif" font-size="10.00">fspm.config.Config.getInteger</text>
</a>
</g>
</g>
<!-- Node18&#45;&gt;Node19 -->
<g id="edge19" class="edge">
<title>Node18&#45;&gt;Node19</title>
<path fill="none" stroke="midnightblue" d="M405.01,-368.27C392.39,-369.83 379.47,-371.43 367.06,-372.96"/>
<polygon fill="midnightblue" stroke="midnightblue" points="405.56,-371.72 415.06,-367.02 404.7,-364.78 405.56,-371.72"/>
</g>
<!-- Node20&#45;&gt;Node4 -->
<g id="edge22" class="edge">
<title>Node20&#45;&gt;Node4</title>
<path fill="none" stroke="midnightblue" d="M419.77,-444.58C403.92,-447.02 387.03,-449.61 370.87,-452.09"/>
<polygon fill="midnightblue" stroke="midnightblue" points="420.67,-447.99 430.02,-443.01 419.61,-441.07 420.67,-447.99"/>
</g>
<!-- Node20&#45;&gt;Node6 -->
<g id="edge24" class="edge">
<title>Node20&#45;&gt;Node6</title>
<path fill="none" stroke="midnightblue" d="M458.14,-447.09C442.68,-453.52 424.24,-461.53 408,-469.5 391.57,-477.56 388.89,-482.44 372,-489.5 364.2,-492.76 355.81,-495.76 347.47,-498.45"/>
<polygon fill="midnightblue" stroke="midnightblue" points="459.9,-450.15 467.81,-443.1 457.23,-443.67 459.9,-450.15"/>
</g>
<!-- Node20&#45;&gt;Node13 -->
<g id="edge25" class="edge">
<title>Node20&#45;&gt;Node13</title>
<path fill="none" stroke="midnightblue" d="M417.82,-420.08C414.4,-418.43 411.1,-416.57 408,-414.5 384.93,-399.08 394.48,-379.76 372,-363.5 366.69,-359.66 360.79,-356.41 354.65,-353.64"/>
<polygon fill="midnightblue" stroke="midnightblue" points="416.56,-423.34 427.14,-424 419.28,-416.89 416.56,-423.34"/>
</g>
<!-- Node21 -->
<g id="node21" class="node">
<title>Node21</title>
<g id="a_node21"><a xlink:href="classfspm_1_1config_1_1Config_af23cb05ac69ea93fa48ed533f677ff1d.html#af23cb05ac69ea93fa48ed533f677ff1d" target="_top" xlink:title=" ">
<polygon fill="none" stroke="black" points="211.5,-411 211.5,-430 366.5,-430 366.5,-411 211.5,-411"/>
<text text-anchor="middle" x="289" y="-418" font-family="Helvetica,sans-Serif" font-size="10.00">fspm.config.Config.getString</text>
</a>
</g>
</g>
<!-- Node20&#45;&gt;Node21 -->
<g id="edge23" class="edge">
<title>Node20&#45;&gt;Node21</title>
<path fill="none" stroke="midnightblue" d="M405.15,-427.91C392.33,-427.09 379.2,-426.24 366.6,-425.43"/>
<polygon fill="midnightblue" stroke="midnightblue" points="405.14,-431.42 415.34,-428.57 405.59,-424.43 405.14,-431.42"/>
</g>
<!-- Node22&#45;&gt;Node13 -->
<g id="edge27" class="edge">
<title>Node22&#45;&gt;Node13</title>
<path fill="none" stroke="midnightblue" d="M413.77,-326.86C397.31,-328.41 379.99,-330.04 363.7,-331.57"/>
<polygon fill="midnightblue" stroke="midnightblue" points="414.27,-330.33 423.89,-325.91 413.61,-323.36 414.27,-330.33"/>
</g>
<!-- Node24&#45;&gt;Node4 -->
<g id="edge30" class="edge">
<title>Node24&#45;&gt;Node4</title>
<path fill="none" stroke="midnightblue" d="M469.68,-175.17C450.38,-196.1 423.25,-228.94 408,-262.5 374.8,-335.59 426,-380.1 372,-439.5 368.5,-443.35 364.42,-446.62 359.99,-449.39"/>
<polygon fill="midnightblue" stroke="midnightblue" points="472.36,-177.44 476.66,-167.76 467.26,-172.64 472.36,-177.44"/>
</g>
<!-- Node24&#45;&gt;Node10 -->
<g id="edge31" class="edge">
<title>Node24&#45;&gt;Node10</title>
<path fill="none" stroke="midnightblue" d="M397.46,-152.5C386.15,-152.5 374.73,-152.5 363.78,-152.5"/>
<polygon fill="midnightblue" stroke="midnightblue" points="397.8,-156 407.8,-152.5 397.8,-149 397.8,-156"/>
</g>
<!-- Node24&#45;&gt;Node14 -->
<g id="edge33" class="edge">
<title>Node24&#45;&gt;Node14</title>
<path fill="none" stroke="midnightblue" d="M437.64,-134.65C378.83,-118.32 283.14,-100.44 206,-127.5 159.93,-143.66 118.4,-185.77 98.47,-208.48"/>
<polygon fill="midnightblue" stroke="midnightblue" points="436.88,-138.08 447.46,-137.47 438.81,-131.35 436.88,-138.08"/>
</g>
<!-- Node24&#45;&gt;Node17 -->
<g id="edge32" class="edge">
<title>Node24&#45;&gt;Node17</title>
<path fill="none" stroke="midnightblue" d="M453.58,-132.72C430.25,-121.02 399.72,-106.23 372,-94.5 359.72,-89.3 346.19,-84.13 333.72,-79.58"/>
<polygon fill="midnightblue" stroke="midnightblue" points="452.28,-135.99 462.79,-137.37 455.44,-129.74 452.28,-135.99"/>
</g>
</g>
</svg>
