<?xml version="1.0" encoding="UTF-8" standalone="no"?>
<!DOCTYPE svg PUBLIC "-//W3C//DTD SVG 1.1//EN"
 "http://www.w3.org/Graphics/SVG/1.1/DTD/svg11.dtd">
<!-- Generated by graphviz version 2.43.0 (0)
 -->
<!-- Title: fspm.config.Config.getBoolean Pages: 1 -->
<!--zoomable 264 -->
<svg id="main" version="1.1" xmlns="http://www.w3.org/2000/svg" xmlns:xlink="http://www.w3.org/1999/xlink" xml:space="preserve" onload="init(evt)">
<style type="text/css"><![CDATA[
.edge:hover path { stroke: red; }
.edge:hover polygon { stroke: red; fill: red; }
]]></style>
<script type="text/javascript"><![CDATA[
var edges = document.getElementsByTagName('g');
if (edges && edges.length) {
  for (var i=0;i<edges.length;i++) {
    if (edges[i].id.substr(0,4)=='edge') {
      edges[i].setAttribute('class','edge');
    }
  }
}
]]></script>
        <defs>
                <circle id="rim" cx="0" cy="0" r="7"/>
                <circle id="rim2" cx="0" cy="0" r="3.5"/>
                <g id="zoomPlus">
                        <use xlink:href="#rim" fill="#404040">
                                <set attributeName="fill" to="#808080" begin="zoomplus.mouseover" end="zoomplus.mouseout"/>
                        </use>
                        <path d="M-4,0h8M0,-4v8" fill="none" stroke="white" stroke-width="1.5" pointer-events="none"/>
                </g>
                <g id="zoomMin">
                        <use xlink:href="#rim" fill="#404040">
                                <set attributeName="fill" to="#808080" begin="zoomminus.mouseover" end="zoomminus.mouseout"/>
                        </use>
                        <path d="M-4,0h8" fill="none" stroke="white" stroke-width="1.5" pointer-events="none"/>
                </g>
                <g id="dirArrow">
                        <path fill="none" stroke="white" stroke-width="1.5" d="M0,-3.0v7 M-2.5,-0.5L0,-3.0L2.5,-0.5"/>
                </g>
               <g id="resetDef">
                       <use xlink:href="#rim2" fill="#404040">
                               <set attributeName="fill" to="#808080" begin="reset.mouseover" end="reset.mouseout"/>
                       </use>
               </g>
        </defs>

<script type="text/javascript">
var viewWidth = 922;
var viewHeight = 264;
var sectionId = 'dynsection-0';
</script>
<script xlink:href="svgpan.js"/>
<svg id="graph" class="graph">
<g id="viewport">
<title>fspm.config.Config.getBoolean</title>
<!-- Node1 -->
<g id="node1" class="node">
<title>Node1</title>
<g id="a_node1"><a xlink:title=" ">
<polygon fill="#bfbfbf" stroke="black" points="0,-96 0,-115 166,-115 166,-96 0,-96"/>
<text text-anchor="middle" x="83" y="-103" font-family="Helvetica,sans-Serif" font-size="10.00">fspm.config.Config.getBoolean</text>
</a>
</g>
</g>
<!-- Node2 -->
<g id="node2" class="node">
<title>Node2</title>
<g id="a_node2"><a xlink:href="classfspm_1_1config_1_1Config_abce61aaf26cf14b4ae2204ff22c27b57.html#abce61aaf26cf14b4ae2204ff22c27b57" target="_top" xlink:title=" ">
<polygon fill="none" stroke="black" points="206,-137.5 206,-167.5 345,-167.5 345,-137.5 206,-137.5"/>
<text text-anchor="start" x="214" y="-155.5" font-family="Helvetica,sans-Serif" font-size="10.00">fspm.config.Config.check</text>
<text text-anchor="middle" x="275.5" y="-144.5" font-family="Helvetica,sans-Serif" font-size="10.00">ContextsExists</text>
</a>
</g>
</g>
<!-- Node1&#45;&gt;Node2 -->
<g id="edge1" class="edge">
<title>Node1&#45;&gt;Node2</title>
<path fill="none" stroke="midnightblue" d="M122.55,-115.01C145.79,-120.74 176.11,-128.22 203.54,-134.99"/>
<polygon fill="midnightblue" stroke="midnightblue" points="202.96,-138.45 213.5,-137.45 204.63,-131.66 202.96,-138.45"/>
</g>
<!-- Node9 -->
<g id="node9" class="node">
<title>Node9</title>
<g id="a_node9"><a xlink:href="classfspm_1_1config_1_1params_1_1ParamCategory_afa61ab695415b052569467d379bf4a07.html#afa61ab695415b052569467d379bf4a07" target="_top" xlink:title=" ">
<polygon fill="none" stroke="black" points="202,-44.5 202,-74.5 349,-74.5 349,-44.5 202,-44.5"/>
<text text-anchor="start" x="210" y="-62.5" font-family="Helvetica,sans-Serif" font-size="10.00">fspm.config.params.Param</text>
<text text-anchor="middle" x="275.5" y="-51.5" font-family="Helvetica,sans-Serif" font-size="10.00">Category.getBoolean</text>
</a>
</g>
</g>
<!-- Node1&#45;&gt;Node9 -->
<g id="edge9" class="edge">
<title>Node1&#45;&gt;Node9</title>
<path fill="none" stroke="midnightblue" d="M123.47,-95.97C146.28,-90.46 175.68,-83.36 202.47,-76.89"/>
<polygon fill="midnightblue" stroke="midnightblue" points="203.3,-80.29 212.2,-74.54 201.66,-73.49 203.3,-80.29"/>
</g>
<!-- Node3 -->
<g id="node3" class="node">
<title>Node3</title>
<g id="a_node3"><a xlink:href="classfspm_1_1config_1_1Config_a3024c037d3ee426c410cb46ee2cd3497.html#a3024c037d3ee426c410cb46ee2cd3497" target="_top" xlink:title=" ">
<polygon fill="none" stroke="black" points="397,-225.5 397,-255.5 536,-255.5 536,-225.5 397,-225.5"/>
<text text-anchor="start" x="405" y="-243.5" font-family="Helvetica,sans-Serif" font-size="10.00">fspm.config.Config.check</text>
<text text-anchor="middle" x="466.5" y="-232.5" font-family="Helvetica,sans-Serif" font-size="10.00">GroupContextExists</text>
</a>
</g>
</g>
<!-- Node2&#45;&gt;Node3 -->
<g id="edge2" class="edge">
<title>Node2&#45;&gt;Node3</title>
<path fill="none" stroke="midnightblue" d="M302.32,-167.57C323.99,-179.91 355.99,-197.41 385,-210.5 393.68,-214.41 403.03,-218.24 412.19,-221.78"/>
<polygon fill="midnightblue" stroke="midnightblue" points="411.03,-225.09 421.62,-225.36 413.51,-218.54 411.03,-225.09"/>
</g>
<!-- Node4 -->
<g id="node4" class="node">
<title>Node4</title>
<g id="a_node4"><a xlink:href="classfspm_1_1config_1_1params_1_1ParamCategory_a4e9b4d10f0f293ae181dd272d302d9b4.html#a4e9b4d10f0f293ae181dd272d302d9b4" target="_top" xlink:title="Get generic Parameter with the given key.">
<polygon fill="none" stroke="black" points="584,-181.5 584,-211.5 731,-211.5 731,-181.5 584,-181.5"/>
<text text-anchor="start" x="592" y="-199.5" font-family="Helvetica,sans-Serif" font-size="10.00">fspm.config.params.Param</text>
<text text-anchor="middle" x="657.5" y="-188.5" font-family="Helvetica,sans-Serif" font-size="10.00">Category.get</text>
</a>
</g>
</g>
<!-- Node2&#45;&gt;Node4 -->
<g id="edge3" class="edge">
<title>Node2&#45;&gt;Node4</title>
<path fill="none" stroke="midnightblue" d="M334.18,-167.55C350.51,-171.33 368.37,-175.02 385,-177.5 447.89,-186.89 519.69,-191.66 573.65,-194.07"/>
<polygon fill="midnightblue" stroke="midnightblue" points="573.71,-197.57 583.85,-194.5 574.01,-190.58 573.71,-197.57"/>
</g>
<!-- Node6 -->
<g id="node6" class="node">
<title>Node6</title>
<g id="a_node6"><a xlink:href="classfspm_1_1config_1_1params_1_1ParamGroup_a4ac641bb901b13ad2186c3d4fe0a75c9.html#a4ac641bb901b13ad2186c3d4fe0a75c9" target="_top" xlink:title=" ">
<polygon fill="none" stroke="black" points="385.5,-137.5 385.5,-167.5 547.5,-167.5 547.5,-137.5 385.5,-137.5"/>
<text text-anchor="start" x="393.5" y="-155.5" font-family="Helvetica,sans-Serif" font-size="10.00">fspm.config.params.Param</text>
<text text-anchor="middle" x="466.5" y="-144.5" font-family="Helvetica,sans-Serif" font-size="10.00">Group.getCategoryWithParam</text>
</a>
</g>
</g>
<!-- Node2&#45;&gt;Node6 -->
<g id="edge5" class="edge">
<title>Node2&#45;&gt;Node6</title>
<path fill="none" stroke="midnightblue" d="M345,-152.5C354.83,-152.5 365.06,-152.5 375.22,-152.5"/>
<polygon fill="midnightblue" stroke="midnightblue" points="375.35,-156 385.35,-152.5 375.35,-149 375.35,-156"/>
</g>
<!-- Node8 -->
<g id="node8" class="node">
<title>Node8</title>
<g id="a_node8"><a xlink:href="classfspm_1_1config_1_1Config_aa3784bee8f29e4340b60735055eb41a6.html#aa3784bee8f29e4340b60735055eb41a6" target="_top" xlink:title=" ">
<polygon fill="none" stroke="black" points="385,-88.5 385,-118.5 548,-118.5 548,-88.5 385,-88.5"/>
<text text-anchor="start" x="393" y="-106.5" font-family="Helvetica,sans-Serif" font-size="10.00">fspm.config.Config.isCategory</text>
<text text-anchor="middle" x="466.5" y="-95.5" font-family="Helvetica,sans-Serif" font-size="10.00">ContextExists</text>
</a>
</g>
</g>
<!-- Node2&#45;&gt;Node8 -->
<g id="edge8" class="edge">
<title>Node2&#45;&gt;Node8</title>
<path fill="none" stroke="midnightblue" d="M334.49,-137.47C354.54,-132.27 377.17,-126.4 397.92,-121.02"/>
<polygon fill="midnightblue" stroke="midnightblue" points="398.82,-124.4 407.62,-118.51 397.06,-117.63 398.82,-124.4"/>
</g>
<!-- Node5 -->
<g id="node5" class="node">
<title>Node5</title>
<g id="a_node5"><a xlink:href="classfspm_1_1config_1_1params_1_1ParamCategory_aac7a0ce7ab7fafe895ba689f644818ab.html#aac7a0ce7ab7fafe895ba689f644818ab" target="_top" xlink:title=" ">
<polygon fill="none" stroke="black" points="767,-181.5 767,-211.5 914,-211.5 914,-181.5 767,-181.5"/>
<text text-anchor="start" x="775" y="-199.5" font-family="Helvetica,sans-Serif" font-size="10.00">fspm.config.params.Param</text>
<text text-anchor="middle" x="840.5" y="-188.5" font-family="Helvetica,sans-Serif" font-size="10.00">Category.getKey</text>
</a>
</g>
</g>
<!-- Node4&#45;&gt;Node5 -->
<g id="edge4" class="edge">
<title>Node4&#45;&gt;Node5</title>
<path fill="none" stroke="midnightblue" d="M731.08,-196.5C739.56,-196.5 748.26,-196.5 756.87,-196.5"/>
<polygon fill="midnightblue" stroke="midnightblue" points="756.91,-200 766.91,-196.5 756.91,-193 756.91,-200"/>
</g>
<!-- Node6&#45;&gt;Node4 -->
<g id="edge6" class="edge">
<title>Node6&#45;&gt;Node4</title>
<path fill="none" stroke="midnightblue" d="M532.01,-167.52C548.04,-171.25 565.36,-175.28 581.83,-179.12"/>
<polygon fill="midnightblue" stroke="midnightblue" points="581.42,-182.62 591.96,-181.47 583.01,-175.8 581.42,-182.62"/>
</g>
<!-- Node7 -->
<g id="node7" class="node">
<title>Node7</title>
<g id="a_node7"><a xlink:href="classfspm_1_1config_1_1params_1_1ParamGroup_a87d9e7182014d1d981c4067083815878.html#a87d9e7182014d1d981c4067083815878" target="_top" xlink:title=" ">
<polygon fill="none" stroke="black" points="584,-132.5 584,-162.5 731,-162.5 731,-132.5 584,-132.5"/>
<text text-anchor="start" x="592" y="-150.5" font-family="Helvetica,sans-Serif" font-size="10.00">fspm.config.params.Param</text>
<text text-anchor="middle" x="657.5" y="-139.5" font-family="Helvetica,sans-Serif" font-size="10.00">Group.getKey</text>
</a>
</g>
</g>
<!-- Node6&#45;&gt;Node7 -->
<g id="edge7" class="edge">
<title>Node6&#45;&gt;Node7</title>
<path fill="none" stroke="midnightblue" d="M547.65,-150.38C556.26,-150.15 565.03,-149.92 573.66,-149.69"/>
<polygon fill="midnightblue" stroke="midnightblue" points="573.82,-153.19 583.72,-149.43 573.63,-146.19 573.82,-153.19"/>
</g>
<!-- Node10 -->
<g id="node10" class="node">
<title>Node10</title>
<g id="a_node10"><a xlink:href="classfspm_1_1config_1_1params_1_1ParamCategory_aa2e79c693bd5784e3397c328d6363ba9.html#aa2e79c693bd5784e3397c328d6363ba9" target="_top" xlink:title="Helper method to get the parameter of a given key, if it is an instance of the Parameter type class p...">
<polygon fill="none" stroke="black" points="584,-22.5 584,-52.5 731,-52.5 731,-22.5 584,-22.5"/>
<text text-anchor="start" x="592" y="-40.5" font-family="Helvetica,sans-Serif" font-size="10.00">fspm.config.params.Param</text>
<text text-anchor="middle" x="657.5" y="-29.5" font-family="Helvetica,sans-Serif" font-size="10.00">Category.getIfInstanceOf</text>
</a>
</g>
</g>
<!-- Node9&#45;&gt;Node10 -->
<g id="edge10" class="edge">
<title>Node9&#45;&gt;Node10</title>
<path fill="none" stroke="midnightblue" d="M349.32,-55.28C413.48,-51.57 506.89,-46.16 573.83,-42.29"/>
<polygon fill="midnightblue" stroke="midnightblue" points="574.15,-45.77 583.93,-41.7 573.74,-38.79 574.15,-45.77"/>
</g>
<!-- Node11 -->
<g id="node11" class="node">
<title>Node11</title>
<g id="a_node11"><a xlink:href="classfspm_1_1config_1_1params_1_1ParamCategory_a9df71240a840aa7875fdd8834c4cdbde.html#a9df71240a840aa7875fdd8834c4cdbde" target="_top" xlink:title="Check and return if is NullParam.">
<polygon fill="none" stroke="black" points="393,-0.5 393,-30.5 540,-30.5 540,-0.5 393,-0.5"/>
<text text-anchor="start" x="401" y="-18.5" font-family="Helvetica,sans-Serif" font-size="10.00">fspm.config.params.Param</text>
<text text-anchor="middle" x="466.5" y="-7.5" font-family="Helvetica,sans-Serif" font-size="10.00">Category.isNull</text>
</a>
</g>
</g>
<!-- Node9&#45;&gt;Node11 -->
<g id="edge11" class="edge">
<title>Node9&#45;&gt;Node11</title>
<path fill="none" stroke="midnightblue" d="M341.01,-44.48C357.04,-40.75 374.36,-36.72 390.83,-32.88"/>
<polygon fill="midnightblue" stroke="midnightblue" points="392.01,-36.2 400.96,-30.53 390.42,-29.38 392.01,-36.2"/>
</g>
<!-- Node11&#45;&gt;Node10 -->
<g id="edge12" class="edge">
<title>Node11&#45;&gt;Node10</title>
<path fill="none" stroke="midnightblue" d="M540.03,-23.94C551.03,-25.22 562.45,-26.55 573.65,-27.86"/>
<polygon fill="midnightblue" stroke="midnightblue" points="573.51,-31.36 583.85,-29.04 574.32,-24.41 573.51,-31.36"/>
</g>
</g>
</svg>
        <g id="navigator" transform="translate(0 0)" fill="#404254">
                <rect fill="#f2f5e9" fill-opacity="0.5" stroke="#606060" stroke-width=".5" x="0" y="0" width="60" height="60"/>
                <use id="zoomplus" xlink:href="#zoomPlus" x="17" y="9" onmousedown="handleZoom(evt,'in')"/>
                <use id="zoomminus" xlink:href="#zoomMin" x="42" y="9" onmousedown="handleZoom(evt,'out')"/>
                <use id="reset" xlink:href="#resetDef" x="30" y="36" onmousedown="handleReset()"/>
                <g id="arrowUp" xlink:href="#dirArrow" transform="translate(30 24)" onmousedown="handlePan(0,-1)">
                  <use xlink:href="#rim" fill="#404040">
                        <set attributeName="fill" to="#808080" begin="arrowUp.mouseover" end="arrowUp.mouseout"/>
                  </use>
                  <path fill="none" stroke="white" stroke-width="1.5" d="M0,-3.0v7 M-2.5,-0.5L0,-3.0L2.5,-0.5"/>
                </g>
                <g id="arrowRight" xlink:href="#dirArrow" transform="rotate(90) translate(36 -43)" onmousedown="handlePan(1,0)">
                  <use xlink:href="#rim" fill="#404040">
                        <set attributeName="fill" to="#808080" begin="arrowRight.mouseover" end="arrowRight.mouseout"/>
                  </use>
                  <path fill="none" stroke="white" stroke-width="1.5" d="M0,-3.0v7 M-2.5,-0.5L0,-3.0L2.5,-0.5"/>
                </g>
                <g id="arrowDown" xlink:href="#dirArrow" transform="rotate(180) translate(-30 -48)" onmousedown="handlePan(0,1)">
                  <use xlink:href="#rim" fill="#404040">
                        <set attributeName="fill" to="#808080" begin="arrowDown.mouseover" end="arrowDown.mouseout"/>
                  </use>
                  <path fill="none" stroke="white" stroke-width="1.5" d="M0,-3.0v7 M-2.5,-0.5L0,-3.0L2.5,-0.5"/>
                </g>
                <g id="arrowLeft" xlink:href="#dirArrow" transform="rotate(270) translate(-36 17)" onmousedown="handlePan(-1,0)">
                  <use xlink:href="#rim" fill="#404040">
                        <set attributeName="fill" to="#808080" begin="arrowLeft.mouseover" end="arrowLeft.mouseout"/>
                  </use>
                  <path fill="none" stroke="white" stroke-width="1.5" d="M0,-3.0v7 M-2.5,-0.5L0,-3.0L2.5,-0.5"/>
                </g>
        </g>
        <svg viewBox="0 0 15 15" width="100%" height="30px" preserveAspectRatio="xMaxYMin meet">
         <g id="arrow_out" transform="scale(0.3 0.3)">
          <a xlink:href="classfspm_1_1config_1_1Config_ae827f35da2e09b1d18f5a82538db57bc_ae827f35da2e09b1d18f5a82538db57bc_cgraph_org.svg" target="_base">
           <rect id="button" ry="5" rx="5" y="6" x="6" height="38" width="38"
                fill="#f2f5e9" fill-opacity="0.5" stroke="#606060" stroke-width="1.0"/>
           <path id="arrow"
             d="M 11.500037,31.436501 C 11.940474,20.09759 22.043105,11.32322 32.158766,21.979434 L 37.068811,17.246167 C 37.068811,17.246167 37.088388,32 37.088388,32 L 22.160133,31.978069 C 22.160133,31.978069 26.997745,27.140456 26.997745,27.140456 C 18.528582,18.264221 13.291696,25.230495 11.500037,31.436501 z"
             style="fill:#404040;"/>
          </a>
         </g>
        </svg>
</svg>
