<?xml version="1.0" encoding="UTF-8" standalone="no"?>
<!DOCTYPE svg PUBLIC "-//W3C//DTD SVG 1.1//EN"
 "http://www.w3.org/Graphics/SVG/1.1/DTD/svg11.dtd">
<!-- Generated by graphviz version 2.43.0 (0)
 -->
<!-- Title: fspm.config.params.groups.DocumentHybridCategoryNameGroup.DocumentHybridCategoryNameGroup Pages: 1 -->
<svg width="660pt" height="50pt"
 viewBox="0.00 0.00 660.00 50.00" xmlns="http://www.w3.org/2000/svg" xmlns:xlink="http://www.w3.org/1999/xlink">
<g id="graph0" class="graph" transform="scale(1 1) rotate(0) translate(4 46)">
<title>fspm.config.params.groups.DocumentHybridCategoryNameGroup.DocumentHybridCategoryNameGroup</title>
<!-- Node1 -->
<g id="node1" class="node">
<title>Node1</title>
<g id="a_node1"><a xlink:title=" ">
<polygon fill="#bfbfbf" stroke="black" points="447,-0.5 447,-41.5 652,-41.5 652,-0.5 447,-0.5"/>
<text text-anchor="start" x="455" y="-29.5" font-family="Helvetica,sans-Serif" font-size="10.00">fspm.config.params.groups.</text>
<text text-anchor="start" x="455" y="-18.5" font-family="Helvetica,sans-Serif" font-size="10.00">DocumentHybridCategoryNameGroup.</text>
<text text-anchor="middle" x="549.5" y="-7.5" font-family="Helvetica,sans-Serif" font-size="10.00">DocumentHybridCategoryNameGroup</text>
</a>
</g>
</g>
<!-- Node2 -->
<g id="node2" class="node">
<title>Node2</title>
<g id="a_node2"><a xlink:href="classfspm_1_1config_1_1params_1_1groups_1_1DocumentHybridCategoryNameGroup_acd5745a400ce830e7f0c66532ba6b991.html#acd5745a400ce830e7f0c66532ba6b991" target="_top" xlink:title=" ">
<polygon fill="none" stroke="black" points="179,-6 179,-36 411,-36 411,-6 179,-6"/>
<text text-anchor="start" x="187" y="-24" font-family="Helvetica,sans-Serif" font-size="10.00">fspm.config.params.groups.</text>
<text text-anchor="middle" x="295" y="-13" font-family="Helvetica,sans-Serif" font-size="10.00">DocumentHybridCategoryNameGroup.parse</text>
</a>
</g>
</g>
<!-- Node1&#45;&gt;Node2 -->
<g id="edge1" class="edge">
<title>Node1&#45;&gt;Node2</title>
<path fill="none" stroke="midnightblue" d="M436.89,-21C428.32,-21 419.66,-21 411.07,-21"/>
<polygon fill="midnightblue" stroke="midnightblue" points="436.89,-24.5 446.89,-21 436.89,-17.5 436.89,-24.5"/>
</g>
<!-- Node3 -->
<g id="node3" class="node">
<title>Node3</title>
<g id="a_node3"><a xlink:href="classfspm_1_1config_1_1adapters_1_1JsonFileReader_a66baa6fc9e08972e7a71cac73d560312.html#a66baa6fc9e08972e7a71cac73d560312" target="_top" xlink:title="Parses and returns a ParamGroup with the parameter contents of the provided file.">
<polygon fill="none" stroke="black" points="0,-6 0,-36 143,-36 143,-6 0,-6"/>
<text text-anchor="start" x="8" y="-24" font-family="Helvetica,sans-Serif" font-size="10.00">fspm.config.adapters.Json</text>
<text text-anchor="middle" x="71.5" y="-13" font-family="Helvetica,sans-Serif" font-size="10.00">FileReader.parse</text>
</a>
</g>
</g>
<!-- Node2&#45;&gt;Node3 -->
<g id="edge2" class="edge">
<title>Node2&#45;&gt;Node3</title>
<path fill="none" stroke="midnightblue" d="M168.54,-21C159.91,-21 151.41,-21 143.24,-21"/>
<polygon fill="midnightblue" stroke="midnightblue" points="168.71,-24.5 178.71,-21 168.71,-17.5 168.71,-24.5"/>
</g>
</g>
</svg>
