<?xml version="1.0" encoding="UTF-8" standalone="no"?>
<!DOCTYPE svg PUBLIC "-//W3C//DTD SVG 1.1//EN"
 "http://www.w3.org/Graphics/SVG/1.1/DTD/svg11.dtd">
<!-- Generated by graphviz version 2.43.0 (0)
 -->
<!-- Title: io.github.fruitcropxl.config.params.groups.DocumentHybridCategoryNameGroup Pages: 1 -->
<svg width="424pt" height="332pt"
 viewBox="0.00 0.00 424.00 332.00" xmlns="http://www.w3.org/2000/svg" xmlns:xlink="http://www.w3.org/1999/xlink">
<g id="graph0" class="graph" transform="scale(1 1) rotate(0) translate(4 328)">
<title>io.github.fruitcropxl.config.params.groups.DocumentHybridCategoryNameGroup</title>
<!-- Node1 -->
<g id="Node000001" class="node">
<title>Node1</title>
<g id="a_Node000001"><a xlink:title="Represents and encapsulates access for the document&#45;hybrid&#45;category&#45;name format.">
<polygon fill="#999999" stroke="transparent" points="385,-131 167,-131 167,0 385,0 385,-131"/>
<text text-anchor="start" x="172" y="-118.5" font-family="Helvetica,sans-Serif" font-size="10.00">io.github.fruitcropxl.config.params.groups.</text>
<text text-anchor="start" x="183" y="-107.5" font-family="Helvetica,sans-Serif" font-size="10.00">DocumentHybridCategoryNameGroup</text>
<text text-anchor="start" x="274" y="-92.5" font-family="Helvetica,sans-Serif" font-size="10.00"> </text>
<text text-anchor="start" x="181" y="-77.5" font-family="Helvetica,sans-Serif" font-size="10.00">+</text>
<text text-anchor="start" x="204" y="-77.5" font-family="Helvetica,sans-Serif" font-size="10.00">DocumentHybridCategoryName</text>
<text text-anchor="start" x="204" y="-66.5" font-family="Helvetica,sans-Serif" font-size="10.00">Group()</text>
<text text-anchor="start" x="181" y="-51.5" font-family="Helvetica,sans-Serif" font-size="10.00">+</text>
<text text-anchor="start" x="204" y="-51.5" font-family="Helvetica,sans-Serif" font-size="10.00">getCategoryStore()</text>
<text text-anchor="start" x="181" y="-36.5" font-family="Helvetica,sans-Serif" font-size="10.00">+</text>
<text text-anchor="start" x="204" y="-36.5" font-family="Helvetica,sans-Serif" font-size="10.00">getTableStore()</text>
<text text-anchor="start" x="181" y="-21.5" font-family="Helvetica,sans-Serif" font-size="10.00">+</text>
<text text-anchor="start" x="204" y="-21.5" font-family="Helvetica,sans-Serif" font-size="10.00">toString()</text>
<text text-anchor="start" x="181" y="-6.5" font-family="Helvetica,sans-Serif" font-size="10.00">+</text>
<text text-anchor="start" x="204" y="-6.5" font-family="Helvetica,sans-Serif" font-size="10.00">parse()</text>
<polygon fill="#666666" stroke="#666666" points="167,-102.5 167,-102.5 385,-102.5 385,-102.5 167,-102.5"/>
<polygon fill="#666666" stroke="#666666" points="167,-87.5 167,-87.5 385,-87.5 385,-87.5 167,-87.5"/>
<polygon fill="none" stroke="#666666" points="167,0 167,-131 385,-131 385,0 167,0"/>
</a>
</g>
</g>
<!-- Node2 -->
<g id="Node000002" class="node">
<title>Node2</title>
<g id="a_Node000002"><a xlink:href="classio_1_1github_1_1fruitcropxl_1_1config_1_1params_1_1groups_1_1ParamGroup.html" target="_top" xlink:title="Parameter configuration class for storing parameter categories.">
<polygon fill="white" stroke="transparent" points="218,-238 0,-238 0,-178 218,-178 218,-238"/>
<text text-anchor="start" x="5" y="-226" font-family="Helvetica,sans-Serif" font-size="10.00">io.github.fruitcropxl.config.params.groups.</text>
<text text-anchor="start" x="78.5" y="-215" font-family="Helvetica,sans-Serif" font-size="10.00">ParamGroup</text>
<text text-anchor="start" x="107" y="-200" font-family="Helvetica,sans-Serif" font-size="10.00"> </text>
<text text-anchor="start" x="36" y="-185" font-family="Helvetica,sans-Serif" font-size="10.00">#</text>
<text text-anchor="start" x="81" y="-185" font-family="Helvetica,sans-Serif" font-size="10.00">ParamGroup()</text>
<polygon fill="#666666" stroke="#666666" points="0,-210 0,-210 218,-210 218,-210 0,-210"/>
<polygon fill="#666666" stroke="#666666" points="0,-195 0,-195 218,-195 218,-195 0,-195"/>
<polygon fill="none" stroke="#666666" points="0,-178 0,-238 218,-238 218,-178 0,-178"/>
</a>
</g>
</g>
<!-- Node2&#45;&gt;Node1 -->
<g id="edge1_Node000001_Node000002" class="edge">
<title>Node2&#45;&gt;Node1</title>
<g id="a_edge1_Node000001_Node000002"><a xlink:title=" ">
<path fill="none" stroke="#63b8ff" d="M151.43,-171.3C165.96,-159.08 182.7,-145 199.09,-131.2"/>
<polygon fill="none" stroke="#63b8ff" points="149,-168.77 143.6,-177.89 153.51,-174.13 149,-168.77"/>
</a>
</g>
</g>
<!-- Node3 -->
<g id="Node000003" class="node">
<title>Node3</title>
<g id="a_Node000003"><a xlink:href="classKeyElement.html" target="_top" xlink:title=" ">
<polygon fill="white" stroke="transparent" points="143.5,-324 74.5,-324 74.5,-275 143.5,-275 143.5,-324"/>
<text text-anchor="start" x="80" y="-311.5" font-family="Helvetica,sans-Serif" font-size="10.00">KeyElement</text>
<text text-anchor="start" x="107.5" y="-296.5" font-family="Helvetica,sans-Serif" font-size="10.00"> </text>
<text text-anchor="start" x="107.5" y="-281.5" font-family="Helvetica,sans-Serif" font-size="10.00"> </text>
<polygon fill="#666666" stroke="#666666" points="75,-306.5 75,-306.5 144,-306.5 144,-306.5 75,-306.5"/>
<polygon fill="#666666" stroke="#666666" points="75,-291.5 75,-291.5 144,-291.5 144,-291.5 75,-291.5"/>
<polygon fill="none" stroke="#666666" points="74.5,-275 74.5,-324 143.5,-324 143.5,-275 74.5,-275"/>
</a>
</g>
</g>
<!-- Node3&#45;&gt;Node2 -->
<g id="edge2_Node000002_Node000003" class="edge">
<title>Node3&#45;&gt;Node2</title>
<g id="a_edge2_Node000002_Node000003"><a xlink:title=" ">
<path fill="none" stroke="#63b8ff" d="M109,-264.7C109,-255.95 109,-246.6 109,-238.12"/>
<polygon fill="none" stroke="#63b8ff" points="105.5,-264.98 109,-274.98 112.5,-264.98 105.5,-264.98"/>
</a>
</g>
</g>
<!-- Node4 -->
<g id="Node000004" class="node">
<title>Node4</title>
<g id="a_Node000004"><a xlink:title=" ">
<polygon fill="white" stroke="transparent" points="316,-232.5 236,-232.5 236,-183.5 316,-183.5 316,-232.5"/>
<text text-anchor="start" x="241" y="-220" font-family="Helvetica,sans-Serif" font-size="10.00">CategoryStore</text>
<text text-anchor="start" x="274" y="-205" font-family="Helvetica,sans-Serif" font-size="10.00"> </text>
<text text-anchor="start" x="274" y="-190" font-family="Helvetica,sans-Serif" font-size="10.00"> </text>
<polygon fill="#666666" stroke="#666666" points="236,-215 236,-215 316,-215 316,-215 236,-215"/>
<polygon fill="#666666" stroke="#666666" points="236,-200 236,-200 316,-200 316,-200 236,-200"/>
<polygon fill="none" stroke="#666666" points="236,-183.5 236,-232.5 316,-232.5 316,-183.5 236,-183.5"/>
</a>
</g>
</g>
<!-- Node4&#45;&gt;Node1 -->
<g id="edge3_Node000001_Node000004" class="edge">
<title>Node4&#45;&gt;Node1</title>
<g id="a_edge3_Node000001_Node000004"><a xlink:title=" ">
<path fill="none" stroke="#63b8ff" d="M276,-183.48C276,-172.19 276,-157.95 276,-143.33"/>
<polygon fill="none" stroke="#63b8ff" points="276,-143.02 272,-137.02 276,-131.02 280,-137.02 276,-143.02"/>
</a>
</g>
<text text-anchor="middle" x="314" y="-152" font-family="Helvetica,sans-Serif" font-size="10.00" fill="grey"> &#45;categoryStore</text>
</g>
<!-- Node5 -->
<g id="Node000005" class="node">
<title>Node5</title>
<g id="a_Node000005"><a xlink:title=" ">
<polygon fill="white" stroke="transparent" points="406,-232.5 344,-232.5 344,-183.5 406,-183.5 406,-232.5"/>
<text text-anchor="start" x="349" y="-220" font-family="Helvetica,sans-Serif" font-size="10.00">TableStore</text>
<text text-anchor="start" x="373" y="-205" font-family="Helvetica,sans-Serif" font-size="10.00"> </text>
<text text-anchor="start" x="373" y="-190" font-family="Helvetica,sans-Serif" font-size="10.00"> </text>
<polygon fill="#666666" stroke="#666666" points="344,-215 344,-215 406,-215 406,-215 344,-215"/>
<polygon fill="#666666" stroke="#666666" points="344,-200 344,-200 406,-200 406,-200 344,-200"/>
<polygon fill="none" stroke="#666666" points="344,-183.5 344,-232.5 406,-232.5 406,-183.5 344,-183.5"/>
</a>
</g>
</g>
<!-- Node5&#45;&gt;Node1 -->
<g id="edge4_Node000001_Node000005" class="edge">
<title>Node5&#45;&gt;Node1</title>
<g id="a_edge4_Node000001_Node000005"><a xlink:title=" ">
<path fill="none" stroke="#63b8ff" d="M368.38,-183.45C364.74,-172.51 359.6,-159.61 353,-149 351.37,-146.38 349.65,-143.77 347.85,-141.18"/>
<polygon fill="none" stroke="#63b8ff" points="347.7,-140.97 340.93,-138.5 340.6,-131.3 347.38,-133.77 347.7,-140.97"/>
</a>
</g>
<text text-anchor="middle" x="387" y="-152" font-family="Helvetica,sans-Serif" font-size="10.00" fill="grey"> &#45;tableStore</text>
</g>
</g>
</svg>
