<?xml version="1.0" encoding="UTF-8" standalone="no"?>
<!DOCTYPE svg PUBLIC "-//W3C//DTD SVG 1.1//EN"
 "http://www.w3.org/Graphics/SVG/1.1/DTD/svg11.dtd">
<!-- Generated by graphviz version 2.43.0 (0)
 -->
<!-- Title: RuntimeException Pages: 1 -->
<svg width="482pt" height="193pt"
 viewBox="0.00 0.00 482.00 193.00" xmlns="http://www.w3.org/2000/svg" xmlns:xlink="http://www.w3.org/1999/xlink">
<g id="graph0" class="graph" transform="scale(1 1) rotate(0) translate(4 189)">
<title>RuntimeException</title>
<!-- Node1 -->
<g id="node1" class="node">
<title>Node1</title>
<g id="a_node1"><a xlink:title=" ">
<polygon fill="#bfbfbf" stroke="black" points="177,-127.5 177,-184.5 283,-184.5 283,-127.5 177,-127.5"/>
<text text-anchor="middle" x="230" y="-172.5" font-family="Helvetica,sans-Serif" font-size="10.00">RuntimeException</text>
<polyline fill="none" stroke="black" points="177,-165.5 283,-165.5 "/>
<text text-anchor="middle" x="230" y="-153.5" font-family="Helvetica,sans-Serif" font-size="10.00"> </text>
<polyline fill="none" stroke="black" points="177,-146.5 283,-146.5 "/>
<text text-anchor="middle" x="230" y="-134.5" font-family="Helvetica,sans-Serif" font-size="10.00"> </text>
</a>
</g>
</g>
<!-- Node2 -->
<g id="node2" class="node">
<title>Node2</title>
<g id="a_node2"><a xlink:href="classfspm_1_1util_1_1exceptions_1_1KeyConflictException.html" target="_top" xlink:title=" ">
<polygon fill="none" stroke="black" points="0,-6 0,-85 138,-85 138,-6 0,-6"/>
<text text-anchor="start" x="8" y="-73" font-family="Helvetica,sans-Serif" font-size="10.00">fspm.util.exceptions.Key</text>
<text text-anchor="middle" x="69" y="-62" font-family="Helvetica,sans-Serif" font-size="10.00">ConflictException</text>
<polyline fill="none" stroke="black" points="0,-55 138,-55 "/>
<text text-anchor="middle" x="69" y="-43" font-family="Helvetica,sans-Serif" font-size="10.00"> </text>
<polyline fill="none" stroke="black" points="0,-36 138,-36 "/>
<text text-anchor="start" x="8" y="-24" font-family="Helvetica,sans-Serif" font-size="10.00">+ KeyConflictException()</text>
<text text-anchor="start" x="8" y="-13" font-family="Helvetica,sans-Serif" font-size="10.00">+ KeyConflictException()</text>
</a>
</g>
</g>
<!-- Node1&#45;&gt;Node2 -->
<g id="edge1" class="edge">
<title>Node1&#45;&gt;Node2</title>
<path fill="none" stroke="midnightblue" d="M180.26,-121.48C163.2,-109.98 143.98,-97.03 126.37,-85.16"/>
<polygon fill="none" stroke="midnightblue" points="178.71,-124.65 188.96,-127.34 182.62,-118.85 178.71,-124.65"/>
</g>
<!-- Node3 -->
<g id="node3" class="node">
<title>Node3</title>
<g id="a_node3"><a xlink:href="classfspm_1_1util_1_1exceptions_1_1KeyNotFoundException.html" target="_top" xlink:title=" ">
<polygon fill="none" stroke="black" points="156,-6 156,-85 304,-85 304,-6 156,-6"/>
<text text-anchor="start" x="164" y="-73" font-family="Helvetica,sans-Serif" font-size="10.00">fspm.util.exceptions.Key</text>
<text text-anchor="middle" x="230" y="-62" font-family="Helvetica,sans-Serif" font-size="10.00">NotFoundException</text>
<polyline fill="none" stroke="black" points="156,-55 304,-55 "/>
<text text-anchor="middle" x="230" y="-43" font-family="Helvetica,sans-Serif" font-size="10.00"> </text>
<polyline fill="none" stroke="black" points="156,-36 304,-36 "/>
<text text-anchor="start" x="164" y="-24" font-family="Helvetica,sans-Serif" font-size="10.00">+ KeyNotFoundException()</text>
<text text-anchor="start" x="164" y="-13" font-family="Helvetica,sans-Serif" font-size="10.00">+ KeyNotFoundException()</text>
</a>
</g>
</g>
<!-- Node1&#45;&gt;Node3 -->
<g id="edge2" class="edge">
<title>Node1&#45;&gt;Node3</title>
<path fill="none" stroke="midnightblue" d="M230,-117.31C230,-106.91 230,-95.61 230,-85.16"/>
<polygon fill="none" stroke="midnightblue" points="226.5,-117.34 230,-127.34 233.5,-117.34 226.5,-117.34"/>
</g>
<!-- Node4 -->
<g id="node4" class="node">
<title>Node4</title>
<g id="a_node4"><a xlink:href="classfspm_1_1util_1_1exceptions_1_1TypeNotFoundException.html" target="_top" xlink:title=" ">
<polygon fill="none" stroke="black" points="322,-0.5 322,-90.5 474,-90.5 474,-0.5 322,-0.5"/>
<text text-anchor="start" x="330" y="-78.5" font-family="Helvetica,sans-Serif" font-size="10.00">fspm.util.exceptions.Type</text>
<text text-anchor="middle" x="398" y="-67.5" font-family="Helvetica,sans-Serif" font-size="10.00">NotFoundException</text>
<polyline fill="none" stroke="black" points="322,-60.5 474,-60.5 "/>
<text text-anchor="middle" x="398" y="-48.5" font-family="Helvetica,sans-Serif" font-size="10.00"> </text>
<polyline fill="none" stroke="black" points="322,-41.5 474,-41.5 "/>
<text text-anchor="start" x="330" y="-29.5" font-family="Helvetica,sans-Serif" font-size="10.00">+ TypeNotFoundException()</text>
<text text-anchor="start" x="330" y="-18.5" font-family="Helvetica,sans-Serif" font-size="10.00">+ TypeNotFoundException()</text>
<text text-anchor="start" x="330" y="-7.5" font-family="Helvetica,sans-Serif" font-size="10.00">&#45; getFormattedString()</text>
</a>
</g>
</g>
<!-- Node1&#45;&gt;Node4 -->
<g id="edge3" class="edge">
<title>Node1&#45;&gt;Node4</title>
<path fill="none" stroke="midnightblue" d="M281.58,-121.69C296.8,-111.86 313.69,-100.95 329.79,-90.55"/>
<polygon fill="none" stroke="midnightblue" points="279.33,-118.97 272.83,-127.34 283.13,-124.85 279.33,-118.97"/>
</g>
</g>
</svg>
