<?xml version="1.0" encoding="UTF-8" standalone="no"?>
<!DOCTYPE svg PUBLIC "-//W3C//DTD SVG 1.1//EN"
 "http://www.w3.org/Graphics/SVG/1.1/DTD/svg11.dtd">
<!-- Generated by graphviz version 2.43.0 (0)
 -->
<!-- Title: fspm.config.params.Parameter Pages: 1 -->
<svg width="235pt" height="419pt"
 viewBox="0.00 0.00 234.50 419.00" xmlns="http://www.w3.org/2000/svg" xmlns:xlink="http://www.w3.org/1999/xlink">
<g id="graph0" class="graph" transform="scale(1 1) rotate(0) translate(4 415)">
<title>fspm.config.params.Parameter</title>
<!-- Node1 -->
<g id="node1" class="node">
<title>Node1</title>
<g id="a_node1"><a xlink:title="Parameter represents variables that can be stored using Java data types or other user&#45;defined types.">
<polygon fill="#bfbfbf" stroke="black" points="59.5,-0.5 59.5,-189.5 226.5,-189.5 226.5,-0.5 59.5,-0.5"/>
<text text-anchor="middle" x="143" y="-177.5" font-family="Helvetica,sans-Serif" font-size="10.00">fspm.config.params.Parameter</text>
<polyline fill="none" stroke="black" points="59.5,-170.5 226.5,-170.5 "/>
<text text-anchor="middle" x="143" y="-158.5" font-family="Helvetica,sans-Serif" font-size="10.00"> </text>
<polyline fill="none" stroke="black" points="59.5,-151.5 226.5,-151.5 "/>
<text text-anchor="start" x="67.5" y="-139.5" font-family="Helvetica,sans-Serif" font-size="10.00">+ Parameter()</text>
<text text-anchor="start" x="67.5" y="-128.5" font-family="Helvetica,sans-Serif" font-size="10.00">+ getType()</text>
<text text-anchor="start" x="67.5" y="-117.5" font-family="Helvetica,sans-Serif" font-size="10.00">+ asBoolean()</text>
<text text-anchor="start" x="67.5" y="-106.5" font-family="Helvetica,sans-Serif" font-size="10.00">+ asString()</text>
<text text-anchor="start" x="67.5" y="-95.5" font-family="Helvetica,sans-Serif" font-size="10.00">+ asInteger()</text>
<text text-anchor="start" x="67.5" y="-84.5" font-family="Helvetica,sans-Serif" font-size="10.00">+ asDouble()</text>
<text text-anchor="start" x="67.5" y="-73.5" font-family="Helvetica,sans-Serif" font-size="10.00">+ asBooleanArray()</text>
<text text-anchor="start" x="67.5" y="-62.5" font-family="Helvetica,sans-Serif" font-size="10.00">+ asStringArray()</text>
<text text-anchor="start" x="67.5" y="-51.5" font-family="Helvetica,sans-Serif" font-size="10.00">+ asIntegerArray()</text>
<text text-anchor="start" x="67.5" y="-40.5" font-family="Helvetica,sans-Serif" font-size="10.00">+ asDoubleArray()</text>
<text text-anchor="start" x="67.5" y="-29.5" font-family="Helvetica,sans-Serif" font-size="10.00">+ isNull()</text>
<text text-anchor="start" x="67.5" y="-18.5" font-family="Helvetica,sans-Serif" font-size="10.00">+ toString()</text>
<text text-anchor="start" x="67.5" y="-7.5" font-family="Helvetica,sans-Serif" font-size="10.00">~ asArray()</text>
</a>
</g>
</g>
<!-- Node2 -->
<g id="node2" class="node">
<title>Node2</title>
<g id="a_node2"><a xlink:href="classfspm_1_1util_1_1KeyElement.html" target="_top" xlink:title=" ">
<polygon fill="none" stroke="black" points="0,-237.5 0,-305.5 122,-305.5 122,-237.5 0,-237.5"/>
<text text-anchor="middle" x="61" y="-293.5" font-family="Helvetica,sans-Serif" font-size="10.00">fspm.util.KeyElement</text>
<polyline fill="none" stroke="black" points="0,-286.5 122,-286.5 "/>
<text text-anchor="middle" x="61" y="-274.5" font-family="Helvetica,sans-Serif" font-size="10.00"> </text>
<polyline fill="none" stroke="black" points="0,-267.5 122,-267.5 "/>
<text text-anchor="start" x="8" y="-255.5" font-family="Helvetica,sans-Serif" font-size="10.00">+ KeyElement()</text>
<text text-anchor="start" x="8" y="-244.5" font-family="Helvetica,sans-Serif" font-size="10.00">+ getKey()</text>
</a>
</g>
</g>
<!-- Node2&#45;&gt;Node1 -->
<g id="edge1" class="edge">
<title>Node2&#45;&gt;Node1</title>
<path fill="none" stroke="midnightblue" d="M80.88,-228.2C86.39,-216.46 92.61,-203.24 98.92,-189.8"/>
<polygon fill="none" stroke="midnightblue" points="77.7,-226.73 76.62,-237.27 84.04,-229.71 77.7,-226.73"/>
</g>
<!-- Node3 -->
<g id="node3" class="node">
<title>Node3</title>
<g id="a_node3"><a xlink:title=" ">
<polygon fill="none" stroke="#bfbfbf" points="38.5,-353.5 38.5,-410.5 83.5,-410.5 83.5,-353.5 38.5,-353.5"/>
<text text-anchor="middle" x="61" y="-398.5" font-family="Helvetica,sans-Serif" font-size="10.00">String</text>
<polyline fill="none" stroke="#bfbfbf" points="38.5,-391.5 83.5,-391.5 "/>
<text text-anchor="middle" x="61" y="-379.5" font-family="Helvetica,sans-Serif" font-size="10.00"> </text>
<polyline fill="none" stroke="#bfbfbf" points="38.5,-372.5 83.5,-372.5 "/>
<text text-anchor="middle" x="61" y="-360.5" font-family="Helvetica,sans-Serif" font-size="10.00"> </text>
</a>
</g>
</g>
<!-- Node3&#45;&gt;Node2 -->
<g id="edge2" class="edge">
<title>Node3&#45;&gt;Node2</title>
<path fill="none" stroke="#404040" d="M61,-353.34C61,-342.53 61,-329.85 61,-317.77"/>
<polygon fill="none" stroke="#404040" points="61,-317.52 57,-311.52 61,-305.52 65,-311.52 61,-317.52"/>
<text text-anchor="middle" x="73.5" y="-327" font-family="Helvetica,sans-Serif" font-size="10.00"> &#45;key</text>
</g>
<!-- Node4 -->
<g id="node4" class="node">
<title>Node4</title>
<g id="a_node4"><a xlink:title=" ">
<polygon fill="none" stroke="#bfbfbf" points="140,-243 140,-300 202,-300 202,-243 140,-243"/>
<text text-anchor="middle" x="171" y="-288" font-family="Helvetica,sans-Serif" font-size="10.00">JsonNode</text>
<polyline fill="none" stroke="#bfbfbf" points="140,-281 202,-281 "/>
<text text-anchor="middle" x="171" y="-269" font-family="Helvetica,sans-Serif" font-size="10.00"> </text>
<polyline fill="none" stroke="#bfbfbf" points="140,-262 202,-262 "/>
<text text-anchor="middle" x="171" y="-250" font-family="Helvetica,sans-Serif" font-size="10.00"> </text>
</a>
</g>
</g>
<!-- Node4&#45;&gt;Node1 -->
<g id="edge3" class="edge">
<title>Node4&#45;&gt;Node1</title>
<path fill="none" stroke="#404040" d="M166.56,-242.85C164.7,-231.25 162.41,-216.95 159.99,-201.88"/>
<polygon fill="none" stroke="#404040" points="159.93,-201.51 155.03,-196.22 158.03,-189.66 162.93,-194.95 159.93,-201.51"/>
<text text-anchor="middle" x="177.5" y="-211" font-family="Helvetica,sans-Serif" font-size="10.00"> &#45;node</text>
</g>
</g>
</svg>
