<?xml version="1.0" encoding="UTF-8" standalone="no"?>
<!DOCTYPE svg PUBLIC "-//W3C//DTD SVG 1.1//EN"
 "http://www.w3.org/Graphics/SVG/1.1/DTD/svg11.dtd">
<!-- Generated by graphviz version 2.43.0 (0)
 -->
<!-- Title: fspm.config.Config Pages: 1 -->
<!--zoomable 1594 -->
<svg id="main" version="1.1" xmlns="http://www.w3.org/2000/svg" xmlns:xlink="http://www.w3.org/1999/xlink" xml:space="preserve" onload="init(evt)">
<style type="text/css"><![CDATA[
.edge:hover path { stroke: red; }
.edge:hover polygon { stroke: red; fill: red; }
]]></style>
<script type="text/javascript"><![CDATA[
var edges = document.getElementsByTagName('g');
if (edges && edges.length) {
  for (var i=0;i<edges.length;i++) {
    if (edges[i].id.substr(0,4)=='edge') {
      edges[i].setAttribute('class','edge');
    }
  }
}
]]></script>
        <defs>
                <circle id="rim" cx="0" cy="0" r="7"/>
                <circle id="rim2" cx="0" cy="0" r="3.5"/>
                <g id="zoomPlus">
                        <use xlink:href="#rim" fill="#404040">
                                <set attributeName="fill" to="#808080" begin="zoomplus.mouseover" end="zoomplus.mouseout"/>
                        </use>
                        <path d="M-4,0h8M0,-4v8" fill="none" stroke="white" stroke-width="1.5" pointer-events="none"/>
                </g>
                <g id="zoomMin">
                        <use xlink:href="#rim" fill="#404040">
                                <set attributeName="fill" to="#808080" begin="zoomminus.mouseover" end="zoomminus.mouseout"/>
                        </use>
                        <path d="M-4,0h8" fill="none" stroke="white" stroke-width="1.5" pointer-events="none"/>
                </g>
                <g id="dirArrow">
                        <path fill="none" stroke="white" stroke-width="1.5" d="M0,-3.0v7 M-2.5,-0.5L0,-3.0L2.5,-0.5"/>
                </g>
               <g id="resetDef">
                       <use xlink:href="#rim2" fill="#404040">
                               <set attributeName="fill" to="#808080" begin="reset.mouseover" end="reset.mouseout"/>
                       </use>
               </g>
        </defs>

<script type="text/javascript">
var viewWidth = 826;
var viewHeight = 1594;
var sectionId = 'dynsection-1';
</script>
<script xlink:href="svgpan.js"/>
<svg id="graph" class="graph">
<g id="viewport">
<title>fspm.config.Config</title>
<!-- Node1 -->
<g id="node1" class="node">
<title>Node1</title>
<g id="a_node1"><a xlink:title="Configuration class for storing input configurations to be used in simulations.">
<polygon fill="#bfbfbf" stroke="black" points="399,-0.5 399,-651.5 579,-651.5 579,-0.5 399,-0.5"/>
<text text-anchor="middle" x="489" y="-639.5" font-family="Helvetica,sans-Serif" font-size="10.00">fspm.config.Config</text>
<polyline fill="none" stroke="black" points="399,-632.5 579,-632.5 "/>
<text text-anchor="middle" x="489" y="-620.5" font-family="Helvetica,sans-Serif" font-size="10.00"> </text>
<polyline fill="none" stroke="black" points="399,-613.5 579,-613.5 "/>
<text text-anchor="start" x="407" y="-601.5" font-family="Helvetica,sans-Serif" font-size="10.00">+ void reset()</text>
<text text-anchor="start" x="407" y="-590.5" font-family="Helvetica,sans-Serif" font-size="10.00">+ void addGroup(ConfigAdapter</text>
<text text-anchor="start" x="407" y="-579.5" font-family="Helvetica,sans-Serif" font-size="10.00"> adapter)</text>
<text text-anchor="start" x="407" y="-568.5" font-family="Helvetica,sans-Serif" font-size="10.00">+ void addGroup(String</text>
<text text-anchor="start" x="407" y="-557.5" font-family="Helvetica,sans-Serif" font-size="10.00"> key, ConfigAdapter adapter)</text>
<text text-anchor="start" x="407" y="-546.5" font-family="Helvetica,sans-Serif" font-size="10.00">+ void addGroup(ParamGroup</text>
<text text-anchor="start" x="407" y="-535.5" font-family="Helvetica,sans-Serif" font-size="10.00"> group)</text>
<text text-anchor="start" x="407" y="-524.5" font-family="Helvetica,sans-Serif" font-size="10.00">+ ParamGroup getGroup</text>
<text text-anchor="start" x="407" y="-513.5" font-family="Helvetica,sans-Serif" font-size="10.00">(String key)</text>
<text text-anchor="start" x="407" y="-502.5" font-family="Helvetica,sans-Serif" font-size="10.00">+ boolean removeGroup</text>
<text text-anchor="start" x="407" y="-491.5" font-family="Helvetica,sans-Serif" font-size="10.00">(String key)</text>
<text text-anchor="start" x="407" y="-480.5" font-family="Helvetica,sans-Serif" font-size="10.00">+ Config setGroupContext</text>
<text text-anchor="start" x="407" y="-469.5" font-family="Helvetica,sans-Serif" font-size="10.00">(String key)</text>
<text text-anchor="start" x="407" y="-458.5" font-family="Helvetica,sans-Serif" font-size="10.00">+ Config setCategoryContext</text>
<text text-anchor="start" x="407" y="-447.5" font-family="Helvetica,sans-Serif" font-size="10.00">(String key)</text>
<text text-anchor="start" x="407" y="-436.5" font-family="Helvetica,sans-Serif" font-size="10.00">+ Boolean getBoolean</text>
<text text-anchor="start" x="407" y="-425.5" font-family="Helvetica,sans-Serif" font-size="10.00">(String key)</text>
<text text-anchor="start" x="407" y="-414.5" font-family="Helvetica,sans-Serif" font-size="10.00">+ String getString(String key)</text>
<text text-anchor="start" x="407" y="-403.5" font-family="Helvetica,sans-Serif" font-size="10.00">+ Integer getInteger</text>
<text text-anchor="start" x="407" y="-392.5" font-family="Helvetica,sans-Serif" font-size="10.00">(String key)</text>
<text text-anchor="start" x="407" y="-381.5" font-family="Helvetica,sans-Serif" font-size="10.00">+ Double getDouble(String key)</text>
<text text-anchor="start" x="407" y="-370.5" font-family="Helvetica,sans-Serif" font-size="10.00">+ Double[] getDoubleArray</text>
<text text-anchor="start" x="407" y="-359.5" font-family="Helvetica,sans-Serif" font-size="10.00">(String key)</text>
<text text-anchor="start" x="407" y="-348.5" font-family="Helvetica,sans-Serif" font-size="10.00">+ boolean getBoolean</text>
<text text-anchor="start" x="407" y="-337.5" font-family="Helvetica,sans-Serif" font-size="10.00">(String key, boolean</text>
<text text-anchor="start" x="407" y="-326.5" font-family="Helvetica,sans-Serif" font-size="10.00"> defaultValue)</text>
<text text-anchor="start" x="407" y="-315.5" font-family="Helvetica,sans-Serif" font-size="10.00">+ String getString(String</text>
<text text-anchor="start" x="407" y="-304.5" font-family="Helvetica,sans-Serif" font-size="10.00"> key, String defaultValue)</text>
<text text-anchor="start" x="407" y="-293.5" font-family="Helvetica,sans-Serif" font-size="10.00">+ int getInteger(String</text>
<text text-anchor="start" x="407" y="-282.5" font-family="Helvetica,sans-Serif" font-size="10.00"> key, int defaultValue)</text>
<text text-anchor="start" x="407" y="-271.5" font-family="Helvetica,sans-Serif" font-size="10.00">+ double getDouble(String</text>
<text text-anchor="start" x="407" y="-260.5" font-family="Helvetica,sans-Serif" font-size="10.00"> key, double defaultValue)</text>
<text text-anchor="start" x="407" y="-249.5" font-family="Helvetica,sans-Serif" font-size="10.00">+ double[] getDoubleArray</text>
<text text-anchor="start" x="407" y="-238.5" font-family="Helvetica,sans-Serif" font-size="10.00">(String key, double[]</text>
<text text-anchor="start" x="407" y="-227.5" font-family="Helvetica,sans-Serif" font-size="10.00"> defaultValue)</text>
<text text-anchor="start" x="407" y="-216.5" font-family="Helvetica,sans-Serif" font-size="10.00">+ void set(String key,</text>
<text text-anchor="start" x="407" y="-205.5" font-family="Helvetica,sans-Serif" font-size="10.00"> boolean value)</text>
<text text-anchor="start" x="407" y="-194.5" font-family="Helvetica,sans-Serif" font-size="10.00">+ void set(String key,</text>
<text text-anchor="start" x="407" y="-183.5" font-family="Helvetica,sans-Serif" font-size="10.00"> String value)</text>
<text text-anchor="start" x="407" y="-172.5" font-family="Helvetica,sans-Serif" font-size="10.00">+ void set(String key,</text>
<text text-anchor="start" x="407" y="-161.5" font-family="Helvetica,sans-Serif" font-size="10.00"> int value)</text>
<text text-anchor="start" x="407" y="-150.5" font-family="Helvetica,sans-Serif" font-size="10.00">+ void set(String key,</text>
<text text-anchor="start" x="407" y="-139.5" font-family="Helvetica,sans-Serif" font-size="10.00"> double value)</text>
<text text-anchor="start" x="407" y="-128.5" font-family="Helvetica,sans-Serif" font-size="10.00">+ void set(String key,</text>
<text text-anchor="start" x="407" y="-117.5" font-family="Helvetica,sans-Serif" font-size="10.00"> Double[] value)</text>
<text text-anchor="start" x="407" y="-106.5" font-family="Helvetica,sans-Serif" font-size="10.00">+ boolean isNull(String key)</text>
<text text-anchor="start" x="407" y="-95.5" font-family="Helvetica,sans-Serif" font-size="10.00">+ static Config getInstance()</text>
<text text-anchor="start" x="407" y="-84.5" font-family="Helvetica,sans-Serif" font-size="10.00">&#45; Config()</text>
<text text-anchor="start" x="407" y="-73.5" font-family="Helvetica,sans-Serif" font-size="10.00">&#45; void addGroup(String</text>
<text text-anchor="start" x="407" y="-62.5" font-family="Helvetica,sans-Serif" font-size="10.00"> key, ParamGroup group)</text>
<text text-anchor="start" x="407" y="-51.5" font-family="Helvetica,sans-Serif" font-size="10.00">&#45; void checkGroupContextExists()</text>
<text text-anchor="start" x="407" y="-40.5" font-family="Helvetica,sans-Serif" font-size="10.00">&#45; boolean isCategoryContext</text>
<text text-anchor="start" x="407" y="-29.5" font-family="Helvetica,sans-Serif" font-size="10.00">Exists()</text>
<text text-anchor="start" x="407" y="-18.5" font-family="Helvetica,sans-Serif" font-size="10.00">&#45; void checkContextsExists</text>
<text text-anchor="start" x="407" y="-7.5" font-family="Helvetica,sans-Serif" font-size="10.00">(String key)</text>
</a>
</g>
</g>
<!-- Node1&#45;&gt;Node1 -->
<g id="edge9" class="edge">
<title>Node1&#45;&gt;Node1</title>
<path fill="none" stroke="#404040" d="M579.2,-382.07C589.97,-371.88 597,-353.19 597,-326 597,-305.82 593.13,-290.32 586.73,-279.51"/>
<polygon fill="none" stroke="#404040" points="586.62,-279.36 579.76,-277.12 579.2,-269.93 586.05,-272.17 586.62,-279.36"/>
<text text-anchor="middle" x="621.5" y="-323.5" font-family="Helvetica,sans-Serif" font-size="10.00"> &#45;instance</text>
</g>
<!-- Node2 -->
<g id="node2" class="node">
<title>Node2</title>
<g id="a_node2"><a xlink:href="interfacefspm_1_1config_1_1params_1_1ParamAccessor.html" target="_top" xlink:title="Blueprint for all classes that handles getting and setting of parameters.">
<polygon fill="none" stroke="black" points="0,-1203.5 0,-1469.5 172,-1469.5 172,-1203.5 0,-1203.5"/>
<text text-anchor="start" x="8" y="-1457.5" font-family="Helvetica,sans-Serif" font-size="10.00">fspm.config.params.Param</text>
<text text-anchor="middle" x="86" y="-1446.5" font-family="Helvetica,sans-Serif" font-size="10.00">Accessor</text>
<polyline fill="none" stroke="black" points="0,-1439.5 172,-1439.5 "/>
<text text-anchor="middle" x="86" y="-1427.5" font-family="Helvetica,sans-Serif" font-size="10.00"> </text>
<polyline fill="none" stroke="black" points="0,-1420.5 172,-1420.5 "/>
<text text-anchor="start" x="8" y="-1408.5" font-family="Helvetica,sans-Serif" font-size="10.00">+ Boolean getBoolean</text>
<text text-anchor="start" x="8" y="-1397.5" font-family="Helvetica,sans-Serif" font-size="10.00">(String key)</text>
<text text-anchor="start" x="8" y="-1386.5" font-family="Helvetica,sans-Serif" font-size="10.00">+ String getString(String key)</text>
<text text-anchor="start" x="8" y="-1375.5" font-family="Helvetica,sans-Serif" font-size="10.00">+ Integer getInteger</text>
<text text-anchor="start" x="8" y="-1364.5" font-family="Helvetica,sans-Serif" font-size="10.00">(String key)</text>
<text text-anchor="start" x="8" y="-1353.5" font-family="Helvetica,sans-Serif" font-size="10.00">+ Double getDouble(String key)</text>
<text text-anchor="start" x="8" y="-1342.5" font-family="Helvetica,sans-Serif" font-size="10.00">+ Double[] getDoubleArray</text>
<text text-anchor="start" x="8" y="-1331.5" font-family="Helvetica,sans-Serif" font-size="10.00">(String key)</text>
<text text-anchor="start" x="8" y="-1320.5" font-family="Helvetica,sans-Serif" font-size="10.00">+ void set(String key,</text>
<text text-anchor="start" x="8" y="-1309.5" font-family="Helvetica,sans-Serif" font-size="10.00"> boolean value)</text>
<text text-anchor="start" x="8" y="-1298.5" font-family="Helvetica,sans-Serif" font-size="10.00">+ void set(String key,</text>
<text text-anchor="start" x="8" y="-1287.5" font-family="Helvetica,sans-Serif" font-size="10.00"> String value)</text>
<text text-anchor="start" x="8" y="-1276.5" font-family="Helvetica,sans-Serif" font-size="10.00">+ void set(String key,</text>
<text text-anchor="start" x="8" y="-1265.5" font-family="Helvetica,sans-Serif" font-size="10.00"> int value)</text>
<text text-anchor="start" x="8" y="-1254.5" font-family="Helvetica,sans-Serif" font-size="10.00">+ void set(String key,</text>
<text text-anchor="start" x="8" y="-1243.5" font-family="Helvetica,sans-Serif" font-size="10.00"> double value)</text>
<text text-anchor="start" x="8" y="-1232.5" font-family="Helvetica,sans-Serif" font-size="10.00">+ void set(String key,</text>
<text text-anchor="start" x="8" y="-1221.5" font-family="Helvetica,sans-Serif" font-size="10.00"> Double[] value)</text>
<text text-anchor="start" x="8" y="-1210.5" font-family="Helvetica,sans-Serif" font-size="10.00">+ boolean isNull(String key)</text>
</a>
</g>
</g>
<!-- Node2&#45;&gt;Node1 -->
<g id="edge1" class="edge">
<title>Node2&#45;&gt;Node1</title>
<path fill="none" stroke="midnightblue" d="M85.3,-1193C89.58,-1059.82 108.94,-858.18 180,-699 231,-584.77 327.31,-477.49 398.91,-407.77"/>
<polygon fill="none" stroke="midnightblue" points="81.79,-1193.17 85,-1203.27 88.79,-1193.38 81.79,-1193.17"/>
</g>
<!-- Node3 -->
<g id="node3" class="node">
<title>Node3</title>
<g id="a_node3"><a xlink:href="classfspm_1_1config_1_1params_1_1ParamCategory.html" target="_top" xlink:title="A ParamCategory stores Parameters that belong to a common category.">
<polygon fill="none" stroke="black" points="189.5,-699.5 189.5,-1097.5 374.5,-1097.5 374.5,-699.5 189.5,-699.5"/>
<text text-anchor="start" x="197.5" y="-1085.5" font-family="Helvetica,sans-Serif" font-size="10.00">fspm.config.params.Param</text>
<text text-anchor="middle" x="282" y="-1074.5" font-family="Helvetica,sans-Serif" font-size="10.00">Category</text>
<polyline fill="none" stroke="black" points="189.5,-1067.5 374.5,-1067.5 "/>
<text text-anchor="middle" x="282" y="-1055.5" font-family="Helvetica,sans-Serif" font-size="10.00"> </text>
<polyline fill="none" stroke="black" points="189.5,-1048.5 374.5,-1048.5 "/>
<text text-anchor="start" x="197.5" y="-1036.5" font-family="Helvetica,sans-Serif" font-size="10.00">+ ParamCategory(String key)</text>
<text text-anchor="start" x="197.5" y="-1025.5" font-family="Helvetica,sans-Serif" font-size="10.00">+ String getKey()</text>
<text text-anchor="start" x="197.5" y="-1014.5" font-family="Helvetica,sans-Serif" font-size="10.00">+ void add(Parameter</text>
<text text-anchor="start" x="197.5" y="-1003.5" font-family="Helvetica,sans-Serif" font-size="10.00"> param)</text>
<text text-anchor="start" x="197.5" y="-992.5" font-family="Helvetica,sans-Serif" font-size="10.00">+ void set(String key,</text>
<text text-anchor="start" x="197.5" y="-981.5" font-family="Helvetica,sans-Serif" font-size="10.00"> String value)</text>
<text text-anchor="start" x="197.5" y="-970.5" font-family="Helvetica,sans-Serif" font-size="10.00">+ void set(String key,</text>
<text text-anchor="start" x="197.5" y="-959.5" font-family="Helvetica,sans-Serif" font-size="10.00"> double value)</text>
<text text-anchor="start" x="197.5" y="-948.5" font-family="Helvetica,sans-Serif" font-size="10.00">+ void set(String key,</text>
<text text-anchor="start" x="197.5" y="-937.5" font-family="Helvetica,sans-Serif" font-size="10.00"> boolean value)</text>
<text text-anchor="start" x="197.5" y="-926.5" font-family="Helvetica,sans-Serif" font-size="10.00">+ void set(String key,</text>
<text text-anchor="start" x="197.5" y="-915.5" font-family="Helvetica,sans-Serif" font-size="10.00"> int value)</text>
<text text-anchor="start" x="197.5" y="-904.5" font-family="Helvetica,sans-Serif" font-size="10.00">+ void set(String key,</text>
<text text-anchor="start" x="197.5" y="-893.5" font-family="Helvetica,sans-Serif" font-size="10.00"> Double[] value)</text>
<text text-anchor="start" x="197.5" y="-882.5" font-family="Helvetica,sans-Serif" font-size="10.00">+ Boolean getBoolean</text>
<text text-anchor="start" x="197.5" y="-871.5" font-family="Helvetica,sans-Serif" font-size="10.00">(String key)</text>
<text text-anchor="start" x="197.5" y="-860.5" font-family="Helvetica,sans-Serif" font-size="10.00">+ String getString(String key)</text>
<text text-anchor="start" x="197.5" y="-849.5" font-family="Helvetica,sans-Serif" font-size="10.00">+ Integer getInteger</text>
<text text-anchor="start" x="197.5" y="-838.5" font-family="Helvetica,sans-Serif" font-size="10.00">(String key)</text>
<text text-anchor="start" x="197.5" y="-827.5" font-family="Helvetica,sans-Serif" font-size="10.00">+ Double getDouble(String key)</text>
<text text-anchor="start" x="197.5" y="-816.5" font-family="Helvetica,sans-Serif" font-size="10.00">+ Double[] getDoubleArray</text>
<text text-anchor="start" x="197.5" y="-805.5" font-family="Helvetica,sans-Serif" font-size="10.00">(String key)</text>
<text text-anchor="start" x="197.5" y="-794.5" font-family="Helvetica,sans-Serif" font-size="10.00">+ boolean isNull(String key)</text>
<text text-anchor="start" x="197.5" y="-783.5" font-family="Helvetica,sans-Serif" font-size="10.00">+ Parameter get(String key)</text>
<text text-anchor="start" x="197.5" y="-772.5" font-family="Helvetica,sans-Serif" font-size="10.00">+ String toString()</text>
<text text-anchor="start" x="197.5" y="-761.5" font-family="Helvetica,sans-Serif" font-size="10.00">~ private&lt; T extends</text>
<text text-anchor="start" x="197.5" y="-750.5" font-family="Helvetica,sans-Serif" font-size="10.00"> Parameter &gt; Parameter</text>
<text text-anchor="start" x="197.5" y="-739.5" font-family="Helvetica,sans-Serif" font-size="10.00"> getIfInstanceOf(String</text>
<text text-anchor="start" x="197.5" y="-728.5" font-family="Helvetica,sans-Serif" font-size="10.00"> key, Class&lt; T &gt; paramTypeClass)</text>
<text text-anchor="start" x="197.5" y="-717.5" font-family="Helvetica,sans-Serif" font-size="10.00">&#45; void set(String key,</text>
<text text-anchor="start" x="197.5" y="-706.5" font-family="Helvetica,sans-Serif" font-size="10.00"> Parameter param)</text>
</a>
</g>
</g>
<!-- Node2&#45;&gt;Node3 -->
<g id="edge3" class="edge">
<title>Node2&#45;&gt;Node3</title>
<path fill="none" stroke="midnightblue" d="M149.72,-1193.75C163.53,-1163.04 178.37,-1130.02 192.95,-1097.59"/>
<polygon fill="none" stroke="midnightblue" points="146.38,-1192.65 145.47,-1203.21 152.76,-1195.52 146.38,-1192.65"/>
</g>
<!-- Node3&#45;&gt;Node1 -->
<g id="edge2" class="edge">
<title>Node3&#45;&gt;Node1</title>
<path fill="none" stroke="#404040" d="M353.96,-699.17C367.11,-662.94 381,-624.65 394.68,-586.96"/>
<polygon fill="none" stroke="#404040" points="394.82,-586.56 393.11,-579.55 398.91,-575.28 400.63,-582.28 394.82,-586.56"/>
<text text-anchor="middle" x="405" y="-673" font-family="Helvetica,sans-Serif" font-size="10.00"> &#45;categoryContext</text>
</g>
<!-- Node4 -->
<g id="node4" class="node">
<title>Node4</title>
<g id="a_node4"><a xlink:title=" ">
<polygon fill="none" stroke="#bfbfbf" points="391.5,-1308 391.5,-1365 436.5,-1365 436.5,-1308 391.5,-1308"/>
<text text-anchor="middle" x="414" y="-1353" font-family="Helvetica,sans-Serif" font-size="10.00">String</text>
<polyline fill="none" stroke="#bfbfbf" points="391.5,-1346 436.5,-1346 "/>
<text text-anchor="middle" x="414" y="-1334" font-family="Helvetica,sans-Serif" font-size="10.00"> </text>
<polyline fill="none" stroke="#bfbfbf" points="391.5,-1327 436.5,-1327 "/>
<text text-anchor="middle" x="414" y="-1315" font-family="Helvetica,sans-Serif" font-size="10.00"> </text>
</a>
</g>
</g>
<!-- Node4&#45;&gt;Node3 -->
<g id="edge4" class="edge">
<title>Node4&#45;&gt;Node3</title>
<path fill="none" stroke="#404040" d="M408.03,-1307.92C402.04,-1281 392.25,-1238.96 382,-1203 373.3,-1172.47 363.49,-1140.42 353.51,-1109.07"/>
<polygon fill="none" stroke="#404040" points="353.48,-1108.98 347.84,-1104.48 349.82,-1097.55 355.46,-1102.04 353.48,-1108.98"/>
<text text-anchor="middle" x="387.5" y="-1148" font-family="Helvetica,sans-Serif" font-size="10.00"> &#45;key</text>
</g>
<!-- Node8 -->
<g id="node8" class="node">
<title>Node8</title>
<g id="a_node8"><a xlink:href="classfspm_1_1config_1_1params_1_1ParamGroup.html" target="_top" xlink:title="Parameter configuration class for storing parameter categories.">
<polygon fill="none" stroke="black" points="392.5,-820.5 392.5,-976.5 585.5,-976.5 585.5,-820.5 392.5,-820.5"/>
<text text-anchor="start" x="400.5" y="-964.5" font-family="Helvetica,sans-Serif" font-size="10.00">fspm.config.params.Param</text>
<text text-anchor="middle" x="489" y="-953.5" font-family="Helvetica,sans-Serif" font-size="10.00">Group</text>
<polyline fill="none" stroke="black" points="392.5,-946.5 585.5,-946.5 "/>
<text text-anchor="middle" x="489" y="-934.5" font-family="Helvetica,sans-Serif" font-size="10.00"> </text>
<polyline fill="none" stroke="black" points="392.5,-927.5 585.5,-927.5 "/>
<text text-anchor="start" x="400.5" y="-915.5" font-family="Helvetica,sans-Serif" font-size="10.00">+ ParamGroup(String key)</text>
<text text-anchor="start" x="400.5" y="-904.5" font-family="Helvetica,sans-Serif" font-size="10.00">+ String getKey()</text>
<text text-anchor="start" x="400.5" y="-893.5" font-family="Helvetica,sans-Serif" font-size="10.00">+ void addCategory(ParamCategory</text>
<text text-anchor="start" x="400.5" y="-882.5" font-family="Helvetica,sans-Serif" font-size="10.00"> category)</text>
<text text-anchor="start" x="400.5" y="-871.5" font-family="Helvetica,sans-Serif" font-size="10.00">+ ParamCategory getCategory</text>
<text text-anchor="start" x="400.5" y="-860.5" font-family="Helvetica,sans-Serif" font-size="10.00">(String key)</text>
<text text-anchor="start" x="400.5" y="-849.5" font-family="Helvetica,sans-Serif" font-size="10.00">+ ParamCategory getCategory</text>
<text text-anchor="start" x="400.5" y="-838.5" font-family="Helvetica,sans-Serif" font-size="10.00">WithParam(String paramKey)</text>
<text text-anchor="start" x="400.5" y="-827.5" font-family="Helvetica,sans-Serif" font-size="10.00">+ String toString()</text>
</a>
</g>
</g>
<!-- Node4&#45;&gt;Node8 -->
<g id="edge11" class="edge">
<title>Node4&#45;&gt;Node8</title>
<path fill="none" stroke="#404040" d="M418.75,-1307.9C429.58,-1244.94 456.49,-1088.47 473.69,-988.51"/>
<polygon fill="none" stroke="#404040" points="473.7,-988.43 470.78,-981.84 475.74,-976.61 478.66,-983.2 473.7,-988.43"/>
<text text-anchor="middle" x="464.5" y="-1148" font-family="Helvetica,sans-Serif" font-size="10.00"> &#45;key</text>
</g>
<!-- Node5 -->
<g id="node5" class="node">
<title>Node5</title>
<g id="a_node5"><a xlink:title=" ">
<polygon fill="none" stroke="#bfbfbf" points="190.5,-1302.5 190.5,-1370.5 373.5,-1370.5 373.5,-1302.5 190.5,-1302.5"/>
<text text-anchor="start" x="198.5" y="-1358.5" font-family="Helvetica,sans-Serif" font-size="10.00">Map&lt; String, fspm.config.params.</text>
<text text-anchor="middle" x="282" y="-1347.5" font-family="Helvetica,sans-Serif" font-size="10.00">Parameter &gt;</text>
<polyline fill="none" stroke="#bfbfbf" points="190.5,-1340.5 373.5,-1340.5 "/>
<text text-anchor="middle" x="282" y="-1328.5" font-family="Helvetica,sans-Serif" font-size="10.00"> </text>
<polyline fill="none" stroke="#bfbfbf" points="190.5,-1321.5 373.5,-1321.5 "/>
<text text-anchor="middle" x="282" y="-1309.5" font-family="Helvetica,sans-Serif" font-size="10.00"> </text>
</a>
</g>
</g>
<!-- Node5&#45;&gt;Node3 -->
<g id="edge5" class="edge">
<title>Node5&#45;&gt;Node3</title>
<path fill="none" stroke="#404040" d="M282,-1302.37C282,-1260.44 282,-1184.65 282,-1110.02"/>
<polygon fill="none" stroke="#404040" points="282,-1109.58 278,-1103.58 282,-1097.58 286,-1103.58 282,-1109.58"/>
<text text-anchor="middle" x="304" y="-1148" font-family="Helvetica,sans-Serif" font-size="10.00"> &#45;params</text>
</g>
<!-- Node6 -->
<g id="node6" class="node">
<title>Node6</title>
<g id="a_node6"><a xlink:title=" ">
<polygon fill="none" stroke="#bfbfbf" points="488,-1528.5 488,-1585.5 526,-1585.5 526,-1528.5 488,-1528.5"/>
<text text-anchor="middle" x="507" y="-1573.5" font-family="Helvetica,sans-Serif" font-size="10.00">Map</text>
<polyline fill="none" stroke="#bfbfbf" points="488,-1566.5 526,-1566.5 "/>
<text text-anchor="middle" x="507" y="-1554.5" font-family="Helvetica,sans-Serif" font-size="10.00"> </text>
<polyline fill="none" stroke="#bfbfbf" points="488,-1547.5 526,-1547.5 "/>
<text text-anchor="middle" x="507" y="-1535.5" font-family="Helvetica,sans-Serif" font-size="10.00"> </text>
</a>
</g>
</g>
<!-- Node6&#45;&gt;Node5 -->
<g id="edge6" class="edge">
<title>Node6&#45;&gt;Node5</title>
<path fill="none" stroke="orange" d="M477.8,-1549.83C452.61,-1543.34 416.39,-1531.06 391,-1510 345.05,-1471.89 312.37,-1409.22 295.39,-1370.83"/>
<polygon fill="orange" stroke="orange" points="477.31,-1553.32 487.85,-1552.27 478.96,-1546.51 477.31,-1553.32"/>
<text text-anchor="start" x="391" y="-1502" font-family="Helvetica,sans-Serif" font-size="10.00"> &lt; String, fspm::config</text>
<text text-anchor="middle" x="446.5" y="-1491" font-family="Helvetica,sans-Serif" font-size="10.00">::params::Parameter &gt;</text>
</g>
<!-- Node7 -->
<g id="node7" class="node">
<title>Node7</title>
<g id="a_node7"><a xlink:title=" ">
<polygon fill="none" stroke="#bfbfbf" points="568.5,-1116.5 568.5,-1184.5 751.5,-1184.5 751.5,-1116.5 568.5,-1116.5"/>
<text text-anchor="start" x="576.5" y="-1172.5" font-family="Helvetica,sans-Serif" font-size="10.00">Map&lt; String, fspm.config.params.</text>
<text text-anchor="middle" x="660" y="-1161.5" font-family="Helvetica,sans-Serif" font-size="10.00">ParamGroup &gt;</text>
<polyline fill="none" stroke="#bfbfbf" points="568.5,-1154.5 751.5,-1154.5 "/>
<text text-anchor="middle" x="660" y="-1142.5" font-family="Helvetica,sans-Serif" font-size="10.00"> </text>
<polyline fill="none" stroke="#bfbfbf" points="568.5,-1135.5 751.5,-1135.5 "/>
<text text-anchor="middle" x="660" y="-1123.5" font-family="Helvetica,sans-Serif" font-size="10.00"> </text>
</a>
</g>
</g>
<!-- Node6&#45;&gt;Node7 -->
<g id="edge8" class="edge">
<title>Node6&#45;&gt;Node7</title>
<path fill="none" stroke="orange" d="M536.29,-1555.14C568.29,-1552.48 618.4,-1542.92 644,-1510 719.24,-1413.23 688.28,-1253.45 669.92,-1184.67"/>
<polygon fill="orange" stroke="orange" points="535.94,-1551.66 526.19,-1555.8 536.4,-1558.64 535.94,-1551.66"/>
<text text-anchor="start" x="655" y="-1502" font-family="Helvetica,sans-Serif" font-size="10.00"> &lt; String, fspm::config</text>
<text text-anchor="middle" x="715.5" y="-1491" font-family="Helvetica,sans-Serif" font-size="10.00">::params::ParamGroup &gt;</text>
</g>
<!-- Node9 -->
<g id="node9" class="node">
<title>Node9</title>
<g id="a_node9"><a xlink:title=" ">
<polygon fill="none" stroke="#bfbfbf" points="454.5,-1302.5 454.5,-1370.5 637.5,-1370.5 637.5,-1302.5 454.5,-1302.5"/>
<text text-anchor="start" x="462.5" y="-1358.5" font-family="Helvetica,sans-Serif" font-size="10.00">Map&lt; String, fspm.config.params.</text>
<text text-anchor="middle" x="546" y="-1347.5" font-family="Helvetica,sans-Serif" font-size="10.00">ParamCategory &gt;</text>
<polyline fill="none" stroke="#bfbfbf" points="454.5,-1340.5 637.5,-1340.5 "/>
<text text-anchor="middle" x="546" y="-1328.5" font-family="Helvetica,sans-Serif" font-size="10.00"> </text>
<polyline fill="none" stroke="#bfbfbf" points="454.5,-1321.5 637.5,-1321.5 "/>
<text text-anchor="middle" x="546" y="-1309.5" font-family="Helvetica,sans-Serif" font-size="10.00"> </text>
</a>
</g>
</g>
<!-- Node6&#45;&gt;Node9 -->
<g id="edge13" class="edge">
<title>Node6&#45;&gt;Node9</title>
<path fill="none" stroke="orange" d="M505.99,-1518.43C506.15,-1508.5 506.71,-1497.82 508,-1488 513.42,-1446.86 526.07,-1400.75 535.29,-1370.54"/>
<polygon fill="orange" stroke="orange" points="502.49,-1518.42 505.96,-1528.43 509.49,-1518.45 502.49,-1518.42"/>
<text text-anchor="start" x="508" y="-1502" font-family="Helvetica,sans-Serif" font-size="10.00"> &lt; String, fspm::config</text>
<text text-anchor="middle" x="576" y="-1491" font-family="Helvetica,sans-Serif" font-size="10.00">::params::ParamCategory &gt;</text>
</g>
<!-- Node7&#45;&gt;Node1 -->
<g id="edge7" class="edge">
<title>Node7&#45;&gt;Node1</title>
<path fill="none" stroke="#404040" d="M638.68,-1116.35C635.65,-1110.43 632.92,-1104.17 631,-1098 578.14,-927.97 627.54,-874.06 595,-699 591.17,-678.39 586.7,-657.27 581.79,-636.08"/>
<polygon fill="none" stroke="#404040" points="581.77,-635.98 576.51,-631.06 579.03,-624.3 584.29,-629.23 581.77,-635.98"/>
<text text-anchor="middle" x="667.5" y="-896" font-family="Helvetica,sans-Serif" font-size="10.00"> &#45;paramGroups</text>
</g>
<!-- Node8&#45;&gt;Node1 -->
<g id="edge10" class="edge">
<title>Node8&#45;&gt;Node1</title>
<path fill="none" stroke="#404040" d="M489,-820.26C489,-778.04 489,-722.5 489,-663.95"/>
<polygon fill="none" stroke="#404040" points="489,-663.81 485,-657.81 489,-651.81 493,-657.81 489,-663.81"/>
<text text-anchor="middle" x="525.5" y="-673" font-family="Helvetica,sans-Serif" font-size="10.00"> &#45;groupContext</text>
</g>
<!-- Node9&#45;&gt;Node8 -->
<g id="edge12" class="edge">
<title>Node9&#45;&gt;Node8</title>
<path fill="none" stroke="#404040" d="M533.79,-1302.26C523.31,-1272.12 508.86,-1226.22 502,-1185 491.16,-1119.91 488.08,-1045.4 487.61,-988.82"/>
<polygon fill="none" stroke="#404040" points="487.61,-988.66 483.58,-982.69 487.55,-976.67 491.58,-982.64 487.61,-988.66"/>
<text text-anchor="middle" x="531" y="-1148" font-family="Helvetica,sans-Serif" font-size="10.00"> &#45;categories</text>
</g>
<!-- Node10 -->
<g id="node10" class="node">
<title>Node10</title>
<g id="a_node10"><a xlink:title=" ">
<polygon fill="none" stroke="#bfbfbf" points="713,-870 713,-927 769,-927 769,-870 713,-870"/>
<text text-anchor="middle" x="741" y="-915" font-family="Helvetica,sans-Serif" font-size="10.00">boolean</text>
<polyline fill="none" stroke="#bfbfbf" points="713,-908 769,-908 "/>
<text text-anchor="middle" x="741" y="-896" font-family="Helvetica,sans-Serif" font-size="10.00"> </text>
<polyline fill="none" stroke="#bfbfbf" points="713,-889 769,-889 "/>
<text text-anchor="middle" x="741" y="-877" font-family="Helvetica,sans-Serif" font-size="10.00"> </text>
</a>
</g>
</g>
<!-- Node10&#45;&gt;Node1 -->
<g id="edge14" class="edge">
<title>Node10&#45;&gt;Node1</title>
<path fill="none" stroke="#404040" d="M737.85,-869.78C732.81,-830.71 721.16,-757.65 699,-699 669.58,-621.13 625.59,-540.03 585.46,-473.5"/>
<polygon fill="none" stroke="#404040" points="585.28,-473.21 578.75,-470.16 579.05,-462.95 585.59,-466 585.28,-473.21"/>
<text text-anchor="middle" x="754" y="-673" font-family="Helvetica,sans-Serif" font-size="10.00"> +useFlattenedCategories</text>
</g>
</g>
</svg>
        <g id="navigator" transform="translate(0 0)" fill="#404254">
                <rect fill="#f2f5e9" fill-opacity="0.5" stroke="#606060" stroke-width=".5" x="0" y="0" width="60" height="60"/>
                <use id="zoomplus" xlink:href="#zoomPlus" x="17" y="9" onmousedown="handleZoom(evt,'in')"/>
                <use id="zoomminus" xlink:href="#zoomMin" x="42" y="9" onmousedown="handleZoom(evt,'out')"/>
                <use id="reset" xlink:href="#resetDef" x="30" y="36" onmousedown="handleReset()"/>
                <g id="arrowUp" xlink:href="#dirArrow" transform="translate(30 24)" onmousedown="handlePan(0,-1)">
                  <use xlink:href="#rim" fill="#404040">
                        <set attributeName="fill" to="#808080" begin="arrowUp.mouseover" end="arrowUp.mouseout"/>
                  </use>
                  <path fill="none" stroke="white" stroke-width="1.5" d="M0,-3.0v7 M-2.5,-0.5L0,-3.0L2.5,-0.5"/>
                </g>
                <g id="arrowRight" xlink:href="#dirArrow" transform="rotate(90) translate(36 -43)" onmousedown="handlePan(1,0)">
                  <use xlink:href="#rim" fill="#404040">
                        <set attributeName="fill" to="#808080" begin="arrowRight.mouseover" end="arrowRight.mouseout"/>
                  </use>
                  <path fill="none" stroke="white" stroke-width="1.5" d="M0,-3.0v7 M-2.5,-0.5L0,-3.0L2.5,-0.5"/>
                </g>
                <g id="arrowDown" xlink:href="#dirArrow" transform="rotate(180) translate(-30 -48)" onmousedown="handlePan(0,1)">
                  <use xlink:href="#rim" fill="#404040">
                        <set attributeName="fill" to="#808080" begin="arrowDown.mouseover" end="arrowDown.mouseout"/>
                  </use>
                  <path fill="none" stroke="white" stroke-width="1.5" d="M0,-3.0v7 M-2.5,-0.5L0,-3.0L2.5,-0.5"/>
                </g>
                <g id="arrowLeft" xlink:href="#dirArrow" transform="rotate(270) translate(-36 17)" onmousedown="handlePan(-1,0)">
                  <use xlink:href="#rim" fill="#404040">
                        <set attributeName="fill" to="#808080" begin="arrowLeft.mouseover" end="arrowLeft.mouseout"/>
                  </use>
                  <path fill="none" stroke="white" stroke-width="1.5" d="M0,-3.0v7 M-2.5,-0.5L0,-3.0L2.5,-0.5"/>
                </g>
        </g>
        <svg viewBox="0 0 15 15" width="100%" height="30px" preserveAspectRatio="xMaxYMin meet">
         <g id="arrow_out" transform="scale(0.3 0.3)">
          <a xlink:href="classfspm_1_1config_1_1Config__coll__graph_org.svg" target="_base">
           <rect id="button" ry="5" rx="5" y="6" x="6" height="38" width="38"
                fill="#f2f5e9" fill-opacity="0.5" stroke="#606060" stroke-width="1.0"/>
           <path id="arrow"
             d="M 11.500037,31.436501 C 11.940474,20.09759 22.043105,11.32322 32.158766,21.979434 L 37.068811,17.246167 C 37.068811,17.246167 37.088388,32 37.088388,32 L 22.160133,31.978069 C 22.160133,31.978069 26.997745,27.140456 26.997745,27.140456 C 18.528582,18.264221 13.291696,25.230495 11.500037,31.436501 z"
             style="fill:#404040;"/>
          </a>
         </g>
        </svg>
</svg>
