<?xml version="1.0" encoding="UTF-8" standalone="no"?>
<!DOCTYPE svg PUBLIC "-//W3C//DTD SVG 1.1//EN"
 "http://www.w3.org/Graphics/SVG/1.1/DTD/svg11.dtd">
<!-- Generated by graphviz version 2.43.0 (0)
 -->
<!-- Title: io.github.fruitcropxl.config.params.structures.CategoryStore.validateFlattenedAccess Pages: 1 -->
<svg width="797pt" height="638pt"
 viewBox="0.00 0.00 797.00 638.00" xmlns="http://www.w3.org/2000/svg" xmlns:xlink="http://www.w3.org/1999/xlink">
<g id="graph0" class="graph" transform="scale(1 1) rotate(0) translate(4 634)">
<title>io.github.fruitcropxl.config.params.structures.CategoryStore.validateFlattenedAccess</title>
<!-- Node1 -->
<g id="Node000001" class="node">
<title>Node1</title>
<g id="a_Node000001"><a xlink:title=" ">
<polygon fill="#999999" stroke="#666666" points="789,-294 550,-294 550,-264 789,-264 789,-294"/>
<text text-anchor="start" x="558" y="-282" font-family="Helvetica,sans-Serif" font-size="10.00">io.github.fruitcropxl.config.params.structures.</text>
<text text-anchor="middle" x="669.5" y="-271" font-family="Helvetica,sans-Serif" font-size="10.00">CategoryStore.validateFlattenedAccess</text>
</a>
</g>
</g>
<!-- Node2 -->
<g id="Node000002" class="node">
<title>Node2</title>
<g id="a_Node000002"><a xlink:href="classio_1_1github_1_1fruitcropxl_1_1config_1_1params_1_1structures_1_1CategoryStore_a74555272c6dec5c9c88d18e876d875f5.html#a74555272c6dec5c9c88d18e876d875f5" target="_top" xlink:title=" ">
<polygon fill="white" stroke="#666666" points="514,-558 275,-558 275,-528 514,-528 514,-558"/>
<text text-anchor="start" x="283" y="-546" font-family="Helvetica,sans-Serif" font-size="10.00">io.github.fruitcropxl.config.params.structures.</text>
<text text-anchor="middle" x="394.5" y="-535" font-family="Helvetica,sans-Serif" font-size="10.00">CategoryStore.get</text>
</a>
</g>
</g>
<!-- Node1&#45;&gt;Node2 -->
<g id="edge1_Node000001_Node000002" class="edge">
<title>Node1&#45;&gt;Node2</title>
<g id="a_edge1_Node000001_Node000002"><a xlink:title=" ">
<path fill="none" stroke="#63b8ff" d="M660.12,-303.65C641.96,-353.1 594.03,-464.33 514,-519 508.97,-522.43 503.57,-525.4 497.93,-527.95"/>
<polygon fill="#63b8ff" stroke="#63b8ff" points="663.47,-304.68 663.54,-294.08 656.88,-302.32 663.47,-304.68"/>
</a>
</g>
</g>
<!-- Node3 -->
<g id="Node000003" class="node">
<title>Node3</title>
<g id="a_Node000003"><a xlink:href="classio_1_1github_1_1fruitcropxl_1_1config_1_1params_1_1structures_1_1CategoryStore_a1016e54e70a0e99488e485d5084b9073.html#a1016e54e70a0e99488e485d5084b9073" target="_top" xlink:title=" ">
<polygon fill="white" stroke="#666666" points="514,-510 275,-510 275,-480 514,-480 514,-510"/>
<text text-anchor="start" x="283" y="-498" font-family="Helvetica,sans-Serif" font-size="10.00">io.github.fruitcropxl.config.params.structures.</text>
<text text-anchor="middle" x="394.5" y="-487" font-family="Helvetica,sans-Serif" font-size="10.00">CategoryStore.get</text>
</a>
</g>
</g>
<!-- Node1&#45;&gt;Node3 -->
<g id="edge2_Node000001_Node000003" class="edge">
<title>Node1&#45;&gt;Node3</title>
<g id="a_edge2_Node000001_Node000003"><a xlink:title=" ">
<path fill="none" stroke="#63b8ff" d="M656.42,-303.07C634.26,-344.53 583.01,-429.02 514,-471 508.35,-474.44 502.3,-477.39 496.03,-479.93"/>
<polygon fill="#63b8ff" stroke="#63b8ff" points="659.52,-304.69 661.06,-294.2 653.32,-301.44 659.52,-304.69"/>
</a>
</g>
</g>
<!-- Node4 -->
<g id="Node000004" class="node">
<title>Node4</title>
<g id="a_Node000004"><a xlink:href="classio_1_1github_1_1fruitcropxl_1_1config_1_1params_1_1structures_1_1CategoryStore_a67390ee277336b6472d8ec095298f722.html#a67390ee277336b6472d8ec095298f722" target="_top" xlink:title=" ">
<polygon fill="white" stroke="#666666" points="514,-462 275,-462 275,-432 514,-432 514,-462"/>
<text text-anchor="start" x="283" y="-450" font-family="Helvetica,sans-Serif" font-size="10.00">io.github.fruitcropxl.config.params.structures.</text>
<text text-anchor="middle" x="394.5" y="-439" font-family="Helvetica,sans-Serif" font-size="10.00">CategoryStore.getArray</text>
</a>
</g>
</g>
<!-- Node1&#45;&gt;Node4 -->
<g id="edge3_Node000001_Node000004" class="edge">
<title>Node1&#45;&gt;Node4</title>
<g id="a_edge3_Node000001_Node000004"><a xlink:title=" ">
<path fill="none" stroke="#63b8ff" d="M650.82,-302.1C624.65,-334.54 572.37,-392.98 514,-423 507.28,-426.46 500.11,-429.41 492.74,-431.95"/>
<polygon fill="#63b8ff" stroke="#63b8ff" points="653.72,-304.07 657.19,-294.06 648.24,-299.72 653.72,-304.07"/>
</a>
</g>
</g>
<!-- Node13 -->
<g id="Node000013" class="node">
<title>Node13</title>
<g id="a_Node000013"><a xlink:href="classio_1_1github_1_1fruitcropxl_1_1config_1_1params_1_1structures_1_1CategoryStore_ac6258c35307415d9c7adeaeeab4095fb.html#ac6258c35307415d9c7adeaeeab4095fb" target="_top" xlink:title=" ">
<polygon fill="white" stroke="#666666" points="514,-414 275,-414 275,-384 514,-384 514,-414"/>
<text text-anchor="start" x="283" y="-402" font-family="Helvetica,sans-Serif" font-size="10.00">io.github.fruitcropxl.config.params.structures.</text>
<text text-anchor="middle" x="394.5" y="-391" font-family="Helvetica,sans-Serif" font-size="10.00">CategoryStore.getArray</text>
</a>
</g>
</g>
<!-- Node1&#45;&gt;Node13 -->
<g id="edge12_Node000001_Node000013" class="edge">
<title>Node1&#45;&gt;Node13</title>
<g id="a_edge12_Node000001_Node000013"><a xlink:title=" ">
<path fill="none" stroke="#63b8ff" d="M641.04,-300.32C611.35,-322.32 561.82,-356.02 514,-375 505.32,-378.45 496.07,-381.42 486.73,-383.98"/>
<polygon fill="#63b8ff" stroke="#63b8ff" points="643.34,-302.97 649.24,-294.17 639.14,-297.37 643.34,-302.97"/>
</a>
</g>
</g>
<!-- Node14 -->
<g id="Node000014" class="node">
<title>Node14</title>
<g id="a_Node000014"><a xlink:href="classio_1_1github_1_1fruitcropxl_1_1config_1_1params_1_1structures_1_1CategoryStore_adcd3d5883367682eb411efd5c94b3cf1.html#adcd3d5883367682eb411efd5c94b3cf1" target="_top" xlink:title=" ">
<polygon fill="white" stroke="#666666" points="514,-366 275,-366 275,-336 514,-336 514,-366"/>
<text text-anchor="start" x="283" y="-354" font-family="Helvetica,sans-Serif" font-size="10.00">io.github.fruitcropxl.config.params.structures.</text>
<text text-anchor="middle" x="394.5" y="-343" font-family="Helvetica,sans-Serif" font-size="10.00">CategoryStore.getBoolean</text>
</a>
</g>
</g>
<!-- Node1&#45;&gt;Node14 -->
<g id="edge13_Node000001_Node000014" class="edge">
<title>Node1&#45;&gt;Node14</title>
<g id="a_edge13_Node000001_Node000014"><a xlink:title=" ">
<path fill="none" stroke="#63b8ff" d="M614.53,-297.24C585.04,-306.84 547.74,-318.37 514,-327 501.6,-330.17 488.37,-333.2 475.43,-335.96"/>
<polygon fill="#63b8ff" stroke="#63b8ff" points="615.81,-300.51 624.22,-294.07 613.63,-293.85 615.81,-300.51"/>
</a>
</g>
</g>
<!-- Node15 -->
<g id="Node000015" class="node">
<title>Node15</title>
<g id="a_Node000015"><a xlink:href="classio_1_1github_1_1fruitcropxl_1_1config_1_1params_1_1structures_1_1CategoryStore_aa919e1da5add99d3dab6a7fec5bbe311.html#aa919e1da5add99d3dab6a7fec5bbe311" target="_top" xlink:title=" ">
<polygon fill="white" stroke="#666666" points="514,-318 275,-318 275,-288 514,-288 514,-318"/>
<text text-anchor="start" x="283" y="-306" font-family="Helvetica,sans-Serif" font-size="10.00">io.github.fruitcropxl.config.params.structures.</text>
<text text-anchor="middle" x="394.5" y="-295" font-family="Helvetica,sans-Serif" font-size="10.00">CategoryStore.isNull</text>
</a>
</g>
</g>
<!-- Node1&#45;&gt;Node15 -->
<g id="edge14_Node000001_Node000015" class="edge">
<title>Node1&#45;&gt;Node15</title>
<g id="a_edge14_Node000001_Node000015"><a xlink:title=" ">
<path fill="none" stroke="#63b8ff" d="M539.96,-290.3C531.42,-291.05 522.85,-291.8 514.37,-292.55"/>
<polygon fill="#63b8ff" stroke="#63b8ff" points="540.29,-293.78 549.95,-289.42 539.68,-286.81 540.29,-293.78"/>
</a>
</g>
</g>
<!-- Node16 -->
<g id="Node000016" class="node">
<title>Node16</title>
<g id="a_Node000016"><a xlink:href="classio_1_1github_1_1fruitcropxl_1_1config_1_1params_1_1structures_1_1CategoryStore_afb87b945d5dcfe049b62d46c6074d040.html#afb87b945d5dcfe049b62d46c6074d040" target="_top" xlink:title=" ">
<polygon fill="white" stroke="#666666" points="514,-270 275,-270 275,-240 514,-240 514,-270"/>
<text text-anchor="start" x="283" y="-258" font-family="Helvetica,sans-Serif" font-size="10.00">io.github.fruitcropxl.config.params.structures.</text>
<text text-anchor="middle" x="394.5" y="-247" font-family="Helvetica,sans-Serif" font-size="10.00">CategoryStore.set</text>
</a>
</g>
</g>
<!-- Node1&#45;&gt;Node16 -->
<g id="edge15_Node000001_Node000016" class="edge">
<title>Node1&#45;&gt;Node16</title>
<g id="a_edge15_Node000001_Node000016"><a xlink:title=" ">
<path fill="none" stroke="#63b8ff" d="M539.96,-267.7C531.42,-266.95 522.85,-266.2 514.37,-265.45"/>
<polygon fill="#63b8ff" stroke="#63b8ff" points="539.68,-271.19 549.95,-268.58 540.29,-264.22 539.68,-271.19"/>
</a>
</g>
</g>
<!-- Node17 -->
<g id="Node000017" class="node">
<title>Node17</title>
<g id="a_Node000017"><a xlink:href="classio_1_1github_1_1fruitcropxl_1_1config_1_1params_1_1structures_1_1CategoryStore_a854e0a86f310abea76cbea37e5c50b11.html#a854e0a86f310abea76cbea37e5c50b11" target="_top" xlink:title=" ">
<polygon fill="white" stroke="#666666" points="514,-222 275,-222 275,-192 514,-192 514,-222"/>
<text text-anchor="start" x="283" y="-210" font-family="Helvetica,sans-Serif" font-size="10.00">io.github.fruitcropxl.config.params.structures.</text>
<text text-anchor="middle" x="394.5" y="-199" font-family="Helvetica,sans-Serif" font-size="10.00">CategoryStore.set</text>
</a>
</g>
</g>
<!-- Node1&#45;&gt;Node17 -->
<g id="edge16_Node000001_Node000017" class="edge">
<title>Node1&#45;&gt;Node17</title>
<g id="a_edge16_Node000001_Node000017"><a xlink:title=" ">
<path fill="none" stroke="#63b8ff" d="M614.53,-260.76C585.04,-251.16 547.74,-239.63 514,-231 501.6,-227.83 488.37,-224.8 475.43,-222.04"/>
<polygon fill="#63b8ff" stroke="#63b8ff" points="613.63,-264.15 624.22,-263.93 615.81,-257.49 613.63,-264.15"/>
</a>
</g>
</g>
<!-- Node18 -->
<g id="Node000018" class="node">
<title>Node18</title>
<g id="a_Node000018"><a xlink:href="classio_1_1github_1_1fruitcropxl_1_1config_1_1params_1_1structures_1_1CategoryStore_ab2304389072647ed89dc005d2307f0d2.html#ab2304389072647ed89dc005d2307f0d2" target="_top" xlink:title=" ">
<polygon fill="white" stroke="#666666" points="514,-174 275,-174 275,-144 514,-144 514,-174"/>
<text text-anchor="start" x="283" y="-162" font-family="Helvetica,sans-Serif" font-size="10.00">io.github.fruitcropxl.config.params.structures.</text>
<text text-anchor="middle" x="394.5" y="-151" font-family="Helvetica,sans-Serif" font-size="10.00">CategoryStore.set</text>
</a>
</g>
</g>
<!-- Node1&#45;&gt;Node18 -->
<g id="edge17_Node000001_Node000018" class="edge">
<title>Node1&#45;&gt;Node18</title>
<g id="a_edge17_Node000001_Node000018"><a xlink:title=" ">
<path fill="none" stroke="#63b8ff" d="M641.04,-257.68C611.35,-235.68 561.82,-201.98 514,-183 505.32,-179.55 496.07,-176.58 486.73,-174.02"/>
<polygon fill="#63b8ff" stroke="#63b8ff" points="639.14,-260.63 649.24,-263.83 643.34,-255.03 639.14,-260.63"/>
</a>
</g>
</g>
<!-- Node19 -->
<g id="Node000019" class="node">
<title>Node19</title>
<g id="a_Node000019"><a xlink:href="classio_1_1github_1_1fruitcropxl_1_1config_1_1params_1_1structures_1_1CategoryStore_a5d46ff214778261fd0a44b708ece4ed3.html#a5d46ff214778261fd0a44b708ece4ed3" target="_top" xlink:title=" ">
<polygon fill="white" stroke="#666666" points="514,-126 275,-126 275,-96 514,-96 514,-126"/>
<text text-anchor="start" x="283" y="-114" font-family="Helvetica,sans-Serif" font-size="10.00">io.github.fruitcropxl.config.params.structures.</text>
<text text-anchor="middle" x="394.5" y="-103" font-family="Helvetica,sans-Serif" font-size="10.00">CategoryStore.set</text>
</a>
</g>
</g>
<!-- Node1&#45;&gt;Node19 -->
<g id="edge18_Node000001_Node000019" class="edge">
<title>Node1&#45;&gt;Node19</title>
<g id="a_edge18_Node000001_Node000019"><a xlink:title=" ">
<path fill="none" stroke="#63b8ff" d="M650.82,-255.9C624.65,-223.46 572.37,-165.02 514,-135 507.28,-131.54 500.11,-128.59 492.74,-126.05"/>
<polygon fill="#63b8ff" stroke="#63b8ff" points="648.24,-258.28 657.19,-263.94 653.72,-253.93 648.24,-258.28"/>
</a>
</g>
</g>
<!-- Node20 -->
<g id="Node000020" class="node">
<title>Node20</title>
<g id="a_Node000020"><a xlink:href="classio_1_1github_1_1fruitcropxl_1_1config_1_1params_1_1structures_1_1CategoryStore_a50a9153ee46f3c8fbed477aec7389707.html#a50a9153ee46f3c8fbed477aec7389707" target="_top" xlink:title=" ">
<polygon fill="white" stroke="#666666" points="514,-78 275,-78 275,-48 514,-48 514,-78"/>
<text text-anchor="start" x="283" y="-66" font-family="Helvetica,sans-Serif" font-size="10.00">io.github.fruitcropxl.config.params.structures.</text>
<text text-anchor="middle" x="394.5" y="-55" font-family="Helvetica,sans-Serif" font-size="10.00">CategoryStore.set</text>
</a>
</g>
</g>
<!-- Node1&#45;&gt;Node20 -->
<g id="edge19_Node000001_Node000020" class="edge">
<title>Node1&#45;&gt;Node20</title>
<g id="a_edge19_Node000001_Node000020"><a xlink:title=" ">
<path fill="none" stroke="#63b8ff" d="M656.42,-254.93C634.26,-213.47 583.01,-128.98 514,-87 508.35,-83.56 502.3,-80.61 496.03,-78.07"/>
<polygon fill="#63b8ff" stroke="#63b8ff" points="653.32,-256.56 661.06,-263.8 659.52,-253.31 653.32,-256.56"/>
</a>
</g>
</g>
<!-- Node21 -->
<g id="Node000021" class="node">
<title>Node21</title>
<g id="a_Node000021"><a xlink:href="classio_1_1github_1_1fruitcropxl_1_1config_1_1params_1_1structures_1_1CategoryStore_ad2c01a6b80b009f853d52f10e5dcc977.html#ad2c01a6b80b009f853d52f10e5dcc977" target="_top" xlink:title=" ">
<polygon fill="white" stroke="#666666" points="514,-30 275,-30 275,0 514,0 514,-30"/>
<text text-anchor="start" x="283" y="-18" font-family="Helvetica,sans-Serif" font-size="10.00">io.github.fruitcropxl.config.params.structures.</text>
<text text-anchor="middle" x="394.5" y="-7" font-family="Helvetica,sans-Serif" font-size="10.00">CategoryStore.set</text>
</a>
</g>
</g>
<!-- Node1&#45;&gt;Node21 -->
<g id="edge20_Node000001_Node000021" class="edge">
<title>Node1&#45;&gt;Node21</title>
<g id="a_edge20_Node000001_Node000021"><a xlink:title=" ">
<path fill="none" stroke="#63b8ff" d="M660.12,-254.35C641.96,-204.9 594.03,-93.67 514,-39 508.97,-35.57 503.57,-32.6 497.93,-30.05"/>
<polygon fill="#63b8ff" stroke="#63b8ff" points="656.88,-255.68 663.54,-263.92 663.47,-253.32 656.88,-255.68"/>
</a>
</g>
</g>
<!-- Node5 -->
<g id="Node000005" class="node">
<title>Node5</title>
<g id="a_Node000005"><a xlink:href="classio_1_1github_1_1fruitcropxl_1_1config_1_1params_1_1structures_1_1CategoryStore_af80f30c0abf379359b59730fd50573ba.html#af80f30c0abf379359b59730fd50573ba" target="_top" xlink:title=" ">
<polygon fill="white" stroke="#666666" points="239,-630 0,-630 0,-600 239,-600 239,-630"/>
<text text-anchor="start" x="8" y="-618" font-family="Helvetica,sans-Serif" font-size="10.00">io.github.fruitcropxl.config.params.structures.</text>
<text text-anchor="middle" x="119.5" y="-607" font-family="Helvetica,sans-Serif" font-size="10.00">CategoryStore.getBooleanArray</text>
</a>
</g>
</g>
<!-- Node4&#45;&gt;Node5 -->
<g id="edge4_Node000004_Node000005" class="edge">
<title>Node4&#45;&gt;Node5</title>
<g id="a_edge4_Node000004_Node000005"><a xlink:title=" ">
<path fill="none" stroke="#63b8ff" d="M278.59,-467.94C277.36,-468.92 276.16,-469.94 275,-471 233.87,-508.53 280.13,-553.47 239,-591 235.28,-594.4 231.21,-597.37 226.9,-599.96"/>
<polygon fill="#63b8ff" stroke="#63b8ff" points="280.87,-470.61 287.1,-462.04 276.89,-464.86 280.87,-470.61"/>
</a>
</g>
</g>
<!-- Node6 -->
<g id="Node000006" class="node">
<title>Node6</title>
<g id="a_Node000006"><a xlink:href="classio_1_1github_1_1fruitcropxl_1_1config_1_1params_1_1structures_1_1CategoryStore_a3f20ca6dad620b86d619f5f913d54c1b.html#a3f20ca6dad620b86d619f5f913d54c1b" target="_top" xlink:title=" ">
<polygon fill="white" stroke="#666666" points="239,-582 0,-582 0,-552 239,-552 239,-582"/>
<text text-anchor="start" x="8" y="-570" font-family="Helvetica,sans-Serif" font-size="10.00">io.github.fruitcropxl.config.params.structures.</text>
<text text-anchor="middle" x="119.5" y="-559" font-family="Helvetica,sans-Serif" font-size="10.00">CategoryStore.getBooleanArray</text>
</a>
</g>
</g>
<!-- Node4&#45;&gt;Node6 -->
<g id="edge5_Node000004_Node000006" class="edge">
<title>Node4&#45;&gt;Node6</title>
<g id="a_edge5_Node000004_Node000006"><a xlink:title=" ">
<path fill="none" stroke="#63b8ff" d="M280.11,-467.38C278.36,-468.53 276.66,-469.73 275,-471 246.59,-492.75 267.41,-521.25 239,-543 234.58,-546.38 229.81,-549.32 224.81,-551.87"/>
<polygon fill="#63b8ff" stroke="#63b8ff" points="282.29,-470.16 289.19,-462.13 278.79,-464.1 282.29,-470.16"/>
</a>
</g>
</g>
<!-- Node7 -->
<g id="Node000007" class="node">
<title>Node7</title>
<g id="a_Node000007"><a xlink:href="classio_1_1github_1_1fruitcropxl_1_1config_1_1params_1_1structures_1_1CategoryStore_a44f2652477aa97d9b03517bcf8d1d8b7.html#a44f2652477aa97d9b03517bcf8d1d8b7" target="_top" xlink:title=" ">
<polygon fill="white" stroke="#666666" points="239,-534 0,-534 0,-504 239,-504 239,-534"/>
<text text-anchor="start" x="8" y="-522" font-family="Helvetica,sans-Serif" font-size="10.00">io.github.fruitcropxl.config.params.structures.</text>
<text text-anchor="middle" x="119.5" y="-511" font-family="Helvetica,sans-Serif" font-size="10.00">CategoryStore.getDoubleArray</text>
</a>
</g>
</g>
<!-- Node4&#45;&gt;Node7 -->
<g id="edge6_Node000004_Node000007" class="edge">
<title>Node4&#45;&gt;Node7</title>
<g id="a_edge6_Node000004_Node000007"><a xlink:title=" ">
<path fill="none" stroke="#63b8ff" d="M291.58,-464.92C285.9,-466.76 280.34,-468.78 275,-471 257.24,-478.38 256.76,-487.62 239,-495 230.67,-498.46 221.79,-501.44 212.78,-504"/>
<polygon fill="#63b8ff" stroke="#63b8ff" points="292.66,-468.25 301.22,-462 290.63,-461.55 292.66,-468.25"/>
</a>
</g>
</g>
<!-- Node8 -->
<g id="Node000008" class="node">
<title>Node8</title>
<g id="a_Node000008"><a xlink:href="classio_1_1github_1_1fruitcropxl_1_1config_1_1params_1_1structures_1_1CategoryStore_ad68a65330093c84406367b533bd742dc.html#ad68a65330093c84406367b533bd742dc" target="_top" xlink:title=" ">
<polygon fill="white" stroke="#666666" points="239,-486 0,-486 0,-456 239,-456 239,-486"/>
<text text-anchor="start" x="8" y="-474" font-family="Helvetica,sans-Serif" font-size="10.00">io.github.fruitcropxl.config.params.structures.</text>
<text text-anchor="middle" x="119.5" y="-463" font-family="Helvetica,sans-Serif" font-size="10.00">CategoryStore.getDoubleArray</text>
</a>
</g>
</g>
<!-- Node4&#45;&gt;Node8 -->
<g id="edge7_Node000004_Node000008" class="edge">
<title>Node4&#45;&gt;Node8</title>
<g id="a_edge7_Node000004_Node000008"><a xlink:title=" ">
<path fill="none" stroke="#63b8ff" d="M264.96,-458.3C256.42,-459.05 247.85,-459.8 239.37,-460.55"/>
<polygon fill="#63b8ff" stroke="#63b8ff" points="265.29,-461.78 274.95,-457.42 264.68,-454.81 265.29,-461.78"/>
</a>
</g>
</g>
<!-- Node9 -->
<g id="Node000009" class="node">
<title>Node9</title>
<g id="a_Node000009"><a xlink:href="classio_1_1github_1_1fruitcropxl_1_1config_1_1params_1_1structures_1_1CategoryStore_a1640aa8fbd2902ddd7341ed39783eb1e.html#a1640aa8fbd2902ddd7341ed39783eb1e" target="_top" xlink:title=" ">
<polygon fill="white" stroke="#666666" points="239,-438 0,-438 0,-408 239,-408 239,-438"/>
<text text-anchor="start" x="8" y="-426" font-family="Helvetica,sans-Serif" font-size="10.00">io.github.fruitcropxl.config.params.structures.</text>
<text text-anchor="middle" x="119.5" y="-415" font-family="Helvetica,sans-Serif" font-size="10.00">CategoryStore.getIntegerArray</text>
</a>
</g>
</g>
<!-- Node4&#45;&gt;Node9 -->
<g id="edge8_Node000004_Node000009" class="edge">
<title>Node4&#45;&gt;Node9</title>
<g id="a_edge8_Node000004_Node000009"><a xlink:title=" ">
<path fill="none" stroke="#63b8ff" d="M264.96,-435.7C256.42,-434.95 247.85,-434.2 239.37,-433.45"/>
<polygon fill="#63b8ff" stroke="#63b8ff" points="264.68,-439.19 274.95,-436.58 265.29,-432.22 264.68,-439.19"/>
</a>
</g>
</g>
<!-- Node10 -->
<g id="Node000010" class="node">
<title>Node10</title>
<g id="a_Node000010"><a xlink:href="classio_1_1github_1_1fruitcropxl_1_1config_1_1params_1_1structures_1_1CategoryStore_a33d6cd04f1d908bfe44d61824e8a9aed.html#a33d6cd04f1d908bfe44d61824e8a9aed" target="_top" xlink:title=" ">
<polygon fill="white" stroke="#666666" points="239,-390 0,-390 0,-360 239,-360 239,-390"/>
<text text-anchor="start" x="8" y="-378" font-family="Helvetica,sans-Serif" font-size="10.00">io.github.fruitcropxl.config.params.structures.</text>
<text text-anchor="middle" x="119.5" y="-367" font-family="Helvetica,sans-Serif" font-size="10.00">CategoryStore.getIntegerArray</text>
</a>
</g>
</g>
<!-- Node4&#45;&gt;Node10 -->
<g id="edge9_Node000004_Node000010" class="edge">
<title>Node4&#45;&gt;Node10</title>
<g id="a_edge9_Node000004_Node000010"><a xlink:title=" ">
<path fill="none" stroke="#63b8ff" d="M291.58,-429.08C285.9,-427.24 280.34,-425.22 275,-423 257.24,-415.62 256.76,-406.38 239,-399 230.67,-395.54 221.79,-392.56 212.78,-390"/>
<polygon fill="#63b8ff" stroke="#63b8ff" points="290.63,-432.45 301.22,-432 292.66,-425.75 290.63,-432.45"/>
</a>
</g>
</g>
<!-- Node11 -->
<g id="Node000011" class="node">
<title>Node11</title>
<g id="a_Node000011"><a xlink:href="classio_1_1github_1_1fruitcropxl_1_1config_1_1params_1_1structures_1_1CategoryStore_ac1c0346a1e128fce0e74842c375fff39.html#ac1c0346a1e128fce0e74842c375fff39" target="_top" xlink:title=" ">
<polygon fill="white" stroke="#666666" points="239,-342 0,-342 0,-312 239,-312 239,-342"/>
<text text-anchor="start" x="8" y="-330" font-family="Helvetica,sans-Serif" font-size="10.00">io.github.fruitcropxl.config.params.structures.</text>
<text text-anchor="middle" x="119.5" y="-319" font-family="Helvetica,sans-Serif" font-size="10.00">CategoryStore.getStringArray</text>
</a>
</g>
</g>
<!-- Node4&#45;&gt;Node11 -->
<g id="edge10_Node000004_Node000011" class="edge">
<title>Node4&#45;&gt;Node11</title>
<g id="a_edge10_Node000004_Node000011"><a xlink:title=" ">
<path fill="none" stroke="#63b8ff" d="M280.11,-426.62C278.36,-425.47 276.66,-424.27 275,-423 246.59,-401.25 267.41,-372.75 239,-351 234.58,-347.62 229.81,-344.68 224.81,-342.13"/>
<polygon fill="#63b8ff" stroke="#63b8ff" points="278.79,-429.9 289.19,-431.87 282.29,-423.84 278.79,-429.9"/>
</a>
</g>
</g>
<!-- Node12 -->
<g id="Node000012" class="node">
<title>Node12</title>
<g id="a_Node000012"><a xlink:href="classio_1_1github_1_1fruitcropxl_1_1config_1_1params_1_1structures_1_1CategoryStore_ab975d7039f5845cea6393d10c729989a.html#ab975d7039f5845cea6393d10c729989a" target="_top" xlink:title=" ">
<polygon fill="white" stroke="#666666" points="239,-294 0,-294 0,-264 239,-264 239,-294"/>
<text text-anchor="start" x="8" y="-282" font-family="Helvetica,sans-Serif" font-size="10.00">io.github.fruitcropxl.config.params.structures.</text>
<text text-anchor="middle" x="119.5" y="-271" font-family="Helvetica,sans-Serif" font-size="10.00">CategoryStore.getStringArray</text>
</a>
</g>
</g>
<!-- Node4&#45;&gt;Node12 -->
<g id="edge11_Node000004_Node000012" class="edge">
<title>Node4&#45;&gt;Node12</title>
<g id="a_edge11_Node000004_Node000012"><a xlink:title=" ">
<path fill="none" stroke="#63b8ff" d="M278.59,-426.06C277.36,-425.08 276.16,-424.06 275,-423 233.87,-385.47 280.13,-340.53 239,-303 235.28,-299.6 231.21,-296.63 226.9,-294.04"/>
<polygon fill="#63b8ff" stroke="#63b8ff" points="276.89,-429.14 287.1,-431.96 280.87,-423.39 276.89,-429.14"/>
</a>
</g>
</g>
</g>
</svg>
