<?xml version="1.0" encoding="UTF-8" standalone="no"?>
<!DOCTYPE svg PUBLIC "-//W3C//DTD SVG 1.1//EN"
 "http://www.w3.org/Graphics/SVG/1.1/DTD/svg11.dtd">
<!-- Generated by graphviz version 2.43.0 (0)
 -->
<!-- Title: fspm.config.adapters.handlers.MetaclassHandler Pages: 1 -->
<svg width="601pt" height="182pt"
 viewBox="0.00 0.00 601.00 182.00" xmlns="http://www.w3.org/2000/svg" xmlns:xlink="http://www.w3.org/1999/xlink">
<g id="graph0" class="graph" transform="scale(1 1) rotate(0) translate(4 178)">
<title>fspm.config.adapters.handlers.MetaclassHandler</title>
<!-- Node1 -->
<g id="node1" class="node">
<title>Node1</title>
<g id="a_node1"><a xlink:title=" ">
<polygon fill="#bfbfbf" stroke="black" points="191,-105.5 191,-173.5 358,-173.5 358,-105.5 191,-105.5"/>
<text text-anchor="start" x="199" y="-161.5" font-family="Helvetica,sans-Serif" font-size="10.00">fspm.config.adapters.handlers.</text>
<text text-anchor="middle" x="274.5" y="-150.5" font-family="Helvetica,sans-Serif" font-size="10.00">MetaclassHandler</text>
<polyline fill="none" stroke="black" points="191,-143.5 358,-143.5 "/>
<text text-anchor="middle" x="274.5" y="-131.5" font-family="Helvetica,sans-Serif" font-size="10.00"> </text>
<polyline fill="none" stroke="black" points="191,-124.5 358,-124.5 "/>
<text text-anchor="start" x="199" y="-112.5" font-family="Helvetica,sans-Serif" font-size="10.00">+ parse()</text>
</a>
</g>
</g>
<!-- Node2 -->
<g id="node2" class="node">
<title>Node2</title>
<g id="a_node2"><a xlink:href="classfspm_1_1config_1_1adapters_1_1handlers_1_1DictionaryHandler.html" target="_top" xlink:title=" ">
<polygon fill="none" stroke="black" points="0,-0.5 0,-68.5 167,-68.5 167,-0.5 0,-0.5"/>
<text text-anchor="start" x="8" y="-56.5" font-family="Helvetica,sans-Serif" font-size="10.00">fspm.config.adapters.handlers.</text>
<text text-anchor="middle" x="83.5" y="-45.5" font-family="Helvetica,sans-Serif" font-size="10.00">DictionaryHandler</text>
<polyline fill="none" stroke="black" points="0,-38.5 167,-38.5 "/>
<text text-anchor="middle" x="83.5" y="-26.5" font-family="Helvetica,sans-Serif" font-size="10.00"> </text>
<polyline fill="none" stroke="black" points="0,-19.5 167,-19.5 "/>
<text text-anchor="start" x="8" y="-7.5" font-family="Helvetica,sans-Serif" font-size="10.00">+ parse()</text>
</a>
</g>
</g>
<!-- Node1&#45;&gt;Node2 -->
<g id="edge1" class="edge">
<title>Node1&#45;&gt;Node2</title>
<path fill="none" stroke="midnightblue" d="M204.41,-100.7C184.83,-90.14 163.72,-78.76 144.7,-68.5"/>
<polygon fill="none" stroke="midnightblue" points="202.82,-103.82 213.28,-105.49 206.14,-97.66 202.82,-103.82"/>
</g>
<!-- Node3 -->
<g id="node3" class="node">
<title>Node3</title>
<g id="a_node3"><a xlink:href="classfspm_1_1config_1_1adapters_1_1handlers_1_1DocumentCategoryNameHandler.html" target="_top" xlink:title=" ">
<polygon fill="none" stroke="black" points="185,-0.5 185,-68.5 364,-68.5 364,-0.5 185,-0.5"/>
<text text-anchor="start" x="193" y="-56.5" font-family="Helvetica,sans-Serif" font-size="10.00">fspm.config.adapters.handlers.</text>
<text text-anchor="middle" x="274.5" y="-45.5" font-family="Helvetica,sans-Serif" font-size="10.00">DocumentCategoryNameHandler</text>
<polyline fill="none" stroke="black" points="185,-38.5 364,-38.5 "/>
<text text-anchor="middle" x="274.5" y="-26.5" font-family="Helvetica,sans-Serif" font-size="10.00"> </text>
<polyline fill="none" stroke="black" points="185,-19.5 364,-19.5 "/>
<text text-anchor="start" x="193" y="-7.5" font-family="Helvetica,sans-Serif" font-size="10.00">+ parse()</text>
</a>
</g>
</g>
<!-- Node1&#45;&gt;Node3 -->
<g id="edge2" class="edge">
<title>Node1&#45;&gt;Node3</title>
<path fill="none" stroke="midnightblue" d="M274.5,-95.14C274.5,-86.26 274.5,-77.04 274.5,-68.59"/>
<polygon fill="none" stroke="midnightblue" points="271,-95.34 274.5,-105.34 278,-95.34 271,-95.34"/>
</g>
<!-- Node4 -->
<g id="node4" class="node">
<title>Node4</title>
<g id="a_node4"><a xlink:href="classfspm_1_1config_1_1adapters_1_1handlers_1_1DocumentHybridCategoryNameHandler.html" target="_top" xlink:title=" ">
<polygon fill="none" stroke="black" points="382,-0.5 382,-68.5 593,-68.5 593,-0.5 382,-0.5"/>
<text text-anchor="start" x="390" y="-56.5" font-family="Helvetica,sans-Serif" font-size="10.00">fspm.config.adapters.handlers.</text>
<text text-anchor="middle" x="487.5" y="-45.5" font-family="Helvetica,sans-Serif" font-size="10.00">DocumentHybridCategoryNameHandler</text>
<polyline fill="none" stroke="black" points="382,-38.5 593,-38.5 "/>
<text text-anchor="middle" x="487.5" y="-26.5" font-family="Helvetica,sans-Serif" font-size="10.00"> </text>
<polyline fill="none" stroke="black" points="382,-19.5 593,-19.5 "/>
<text text-anchor="start" x="390" y="-7.5" font-family="Helvetica,sans-Serif" font-size="10.00">+ parse()</text>
</a>
</g>
</g>
<!-- Node1&#45;&gt;Node4 -->
<g id="edge3" class="edge">
<title>Node1&#45;&gt;Node4</title>
<path fill="none" stroke="midnightblue" d="M351.78,-101.13C373.86,-90.45 397.75,-78.9 419.25,-68.5"/>
<polygon fill="none" stroke="midnightblue" points="350.25,-97.98 342.77,-105.49 353.3,-104.28 350.25,-97.98"/>
</g>
</g>
</svg>
