<?xml version="1.0" encoding="UTF-8" standalone="no"?>
<!DOCTYPE svg PUBLIC "-//W3C//DTD SVG 1.1//EN"
 "http://www.w3.org/Graphics/SVG/1.1/DTD/svg11.dtd">
<!-- Generated by graphviz version 2.43.0 (0)
 -->
<!-- Title: fspm.config.Config Pages: 1 -->
<svg width="269pt" height="386pt"
 viewBox="0.00 0.00 269.00 386.00" xmlns="http://www.w3.org/2000/svg" xmlns:xlink="http://www.w3.org/1999/xlink">
<g id="graph0" class="graph" transform="scale(1 1) rotate(0) translate(4 382)">
<title>fspm.config.Config</title>
<!-- Node1 -->
<g id="node1" class="node">
<title>Node1</title>
<g id="a_node1"><a xlink:title="Configuration class for storing input configurations to be used in simulations.">
<polygon fill="#bfbfbf" stroke="black" points="53.5,-0.5 53.5,-145.5 160.5,-145.5 160.5,-0.5 53.5,-0.5"/>
<text text-anchor="middle" x="107" y="-133.5" font-family="Helvetica,sans-Serif" font-size="10.00">fspm.config.Config</text>
<polyline fill="none" stroke="black" points="53.5,-126.5 160.5,-126.5 "/>
<text text-anchor="middle" x="107" y="-114.5" font-family="Helvetica,sans-Serif" font-size="10.00"> </text>
<polyline fill="none" stroke="black" points="53.5,-107.5 160.5,-107.5 "/>
<text text-anchor="start" x="61.5" y="-95.5" font-family="Helvetica,sans-Serif" font-size="10.00">+ reset()</text>
<text text-anchor="start" x="61.5" y="-84.5" font-family="Helvetica,sans-Serif" font-size="10.00">+ addGroup()</text>
<text text-anchor="start" x="61.5" y="-73.5" font-family="Helvetica,sans-Serif" font-size="10.00">+ addGroup()</text>
<text text-anchor="start" x="61.5" y="-62.5" font-family="Helvetica,sans-Serif" font-size="10.00">+ addGroup()</text>
<text text-anchor="start" x="61.5" y="-51.5" font-family="Helvetica,sans-Serif" font-size="10.00">+ removeGroup()</text>
<text text-anchor="start" x="61.5" y="-40.5" font-family="Helvetica,sans-Serif" font-size="10.00">+ getInstance()</text>
<text text-anchor="start" x="61.5" y="-29.5" font-family="Helvetica,sans-Serif" font-size="10.00">~ getGroup()</text>
<text text-anchor="start" x="61.5" y="-18.5" font-family="Helvetica,sans-Serif" font-size="10.00">&#45; Config()</text>
<text text-anchor="start" x="61.5" y="-7.5" font-family="Helvetica,sans-Serif" font-size="10.00">&#45; addGroup()</text>
</a>
</g>
</g>
<!-- Node1&#45;&gt;Node1 -->
<g id="edge3" class="edge">
<title>Node1&#45;&gt;Node1</title>
<path fill="none" stroke="#404040" d="M160.63,-90.2C171.08,-88.2 178.5,-82.47 178.5,-73 178.5,-67.53 176.02,-63.3 171.91,-60.32"/>
<polygon fill="none" stroke="#404040" points="171.77,-60.27 164.71,-61.75 160.63,-55.8 167.69,-54.32 171.77,-60.27"/>
<text text-anchor="middle" x="203" y="-70.5" font-family="Helvetica,sans-Serif" font-size="10.00"> &#45;instance</text>
</g>
<!-- Node2 -->
<g id="node2" class="node">
<title>Node2</title>
<g id="a_node2"><a xlink:title=" ">
<polygon fill="none" stroke="#bfbfbf" points="0,-193.5 0,-261.5 214,-261.5 214,-193.5 0,-193.5"/>
<text text-anchor="start" x="8" y="-249.5" font-family="Helvetica,sans-Serif" font-size="10.00">Map&lt; String, fspm.config.params.group.</text>
<text text-anchor="middle" x="107" y="-238.5" font-family="Helvetica,sans-Serif" font-size="10.00">ParamGroup &gt;</text>
<polyline fill="none" stroke="#bfbfbf" points="0,-231.5 214,-231.5 "/>
<text text-anchor="middle" x="107" y="-219.5" font-family="Helvetica,sans-Serif" font-size="10.00"> </text>
<polyline fill="none" stroke="#bfbfbf" points="0,-212.5 214,-212.5 "/>
<text text-anchor="middle" x="107" y="-200.5" font-family="Helvetica,sans-Serif" font-size="10.00"> </text>
</a>
</g>
</g>
<!-- Node2&#45;&gt;Node1 -->
<g id="edge1" class="edge">
<title>Node2&#45;&gt;Node1</title>
<path fill="none" stroke="#404040" d="M107,-193.41C107,-182.72 107,-170.35 107,-157.7"/>
<polygon fill="none" stroke="#404040" points="107,-157.53 103,-151.53 107,-145.53 111,-151.53 107,-157.53"/>
<text text-anchor="middle" x="143.5" y="-167" font-family="Helvetica,sans-Serif" font-size="10.00"> &#45;paramGroups</text>
</g>
<!-- Node3 -->
<g id="node3" class="node">
<title>Node3</title>
<g id="a_node3"><a xlink:title=" ">
<polygon fill="none" stroke="#bfbfbf" points="88,-320.5 88,-377.5 126,-377.5 126,-320.5 88,-320.5"/>
<text text-anchor="middle" x="107" y="-365.5" font-family="Helvetica,sans-Serif" font-size="10.00">Map</text>
<polyline fill="none" stroke="#bfbfbf" points="88,-358.5 126,-358.5 "/>
<text text-anchor="middle" x="107" y="-346.5" font-family="Helvetica,sans-Serif" font-size="10.00"> </text>
<polyline fill="none" stroke="#bfbfbf" points="88,-339.5 126,-339.5 "/>
<text text-anchor="middle" x="107" y="-327.5" font-family="Helvetica,sans-Serif" font-size="10.00"> </text>
</a>
</g>
</g>
<!-- Node3&#45;&gt;Node2 -->
<g id="edge2" class="edge">
<title>Node3&#45;&gt;Node2</title>
<path fill="none" stroke="orange" d="M107,-309.95C107,-294.4 107,-276.58 107,-261.59"/>
<polygon fill="orange" stroke="orange" points="103.5,-310.28 107,-320.28 110.5,-310.28 103.5,-310.28"/>
<text text-anchor="start" x="107" y="-294" font-family="Helvetica,sans-Serif" font-size="10.00"> &lt; String, fspm::config</text>
<text text-anchor="middle" x="184" y="-283" font-family="Helvetica,sans-Serif" font-size="10.00">::params::group::ParamGroup &gt;</text>
</g>
</g>
</svg>
