<?xml version="1.0" encoding="UTF-8" standalone="no"?>
<!DOCTYPE svg PUBLIC "-//W3C//DTD SVG 1.1//EN"
 "http://www.w3.org/Graphics/SVG/1.1/DTD/svg11.dtd">
<!-- Generated by graphviz version 2.43.0 (0)
 -->
<!-- Title: fspm.util.KeyElement Pages: 1 -->
<svg width="807pt" height="507pt"
 viewBox="0.00 0.00 806.50 507.00" xmlns="http://www.w3.org/2000/svg" xmlns:xlink="http://www.w3.org/1999/xlink">
<g id="graph0" class="graph" transform="scale(1 1) rotate(0) translate(4 503)">
<title>fspm.util.KeyElement</title>
<!-- Node1 -->
<g id="node1" class="node">
<title>Node1</title>
<g id="a_node1"><a xlink:title="Represents an element which contains a key.">
<polygon fill="#bfbfbf" stroke="black" points="264.5,-430.5 264.5,-498.5 386.5,-498.5 386.5,-430.5 264.5,-430.5"/>
<text text-anchor="middle" x="325.5" y="-486.5" font-family="Helvetica,sans-Serif" font-size="10.00">fspm.util.KeyElement</text>
<polyline fill="none" stroke="black" points="264.5,-479.5 386.5,-479.5 "/>
<text text-anchor="start" x="272.5" y="-467.5" font-family="Helvetica,sans-Serif" font-size="10.00">&#45; key</text>
<polyline fill="none" stroke="black" points="264.5,-460.5 386.5,-460.5 "/>
<text text-anchor="start" x="272.5" y="-448.5" font-family="Helvetica,sans-Serif" font-size="10.00">+ KeyElement()</text>
<text text-anchor="start" x="272.5" y="-437.5" font-family="Helvetica,sans-Serif" font-size="10.00">+ getKey()</text>
</a>
</g>
</g>
<!-- Node2 -->
<g id="node2" class="node">
<title>Node2</title>
<g id="a_node2"><a xlink:href="classfspm_1_1config_1_1params_1_1ParamCategory.html" target="_top" xlink:title="Stores Parameters that belong to a common category.">
<polygon fill="none" stroke="black" points="0,-171.5 0,-393.5 147,-393.5 147,-171.5 0,-171.5"/>
<text text-anchor="start" x="8" y="-381.5" font-family="Helvetica,sans-Serif" font-size="10.00">fspm.config.params.Param</text>
<text text-anchor="middle" x="73.5" y="-370.5" font-family="Helvetica,sans-Serif" font-size="10.00">Category</text>
<polyline fill="none" stroke="black" points="0,-363.5 147,-363.5 "/>
<text text-anchor="start" x="8" y="-351.5" font-family="Helvetica,sans-Serif" font-size="10.00">&#45; params</text>
<polyline fill="none" stroke="black" points="0,-344.5 147,-344.5 "/>
<text text-anchor="start" x="8" y="-332.5" font-family="Helvetica,sans-Serif" font-size="10.00">+ ParamCategory()</text>
<text text-anchor="start" x="8" y="-321.5" font-family="Helvetica,sans-Serif" font-size="10.00">+ addParameter()</text>
<text text-anchor="start" x="8" y="-310.5" font-family="Helvetica,sans-Serif" font-size="10.00">+ setParameter()</text>
<text text-anchor="start" x="8" y="-299.5" font-family="Helvetica,sans-Serif" font-size="10.00">+ getBoolean()</text>
<text text-anchor="start" x="8" y="-288.5" font-family="Helvetica,sans-Serif" font-size="10.00">+ getString()</text>
<text text-anchor="start" x="8" y="-277.5" font-family="Helvetica,sans-Serif" font-size="10.00">+ getInteger()</text>
<text text-anchor="start" x="8" y="-266.5" font-family="Helvetica,sans-Serif" font-size="10.00">+ getDouble()</text>
<text text-anchor="start" x="8" y="-255.5" font-family="Helvetica,sans-Serif" font-size="10.00">+ getBooleanArray()</text>
<text text-anchor="start" x="8" y="-244.5" font-family="Helvetica,sans-Serif" font-size="10.00">+ getStringArray()</text>
<text text-anchor="start" x="8" y="-233.5" font-family="Helvetica,sans-Serif" font-size="10.00">+ getIntegerArray()</text>
<text text-anchor="start" x="8" y="-222.5" font-family="Helvetica,sans-Serif" font-size="10.00">+ getDoubleArray()</text>
<text text-anchor="start" x="8" y="-211.5" font-family="Helvetica,sans-Serif" font-size="10.00">+ isNull()</text>
<text text-anchor="start" x="8" y="-200.5" font-family="Helvetica,sans-Serif" font-size="10.00">+ getParameter()</text>
<text text-anchor="start" x="8" y="-189.5" font-family="Helvetica,sans-Serif" font-size="10.00">+ toString()</text>
<text text-anchor="start" x="8" y="-178.5" font-family="Helvetica,sans-Serif" font-size="10.00">~ getArray()</text>
</a>
</g>
</g>
<!-- Node1&#45;&gt;Node2 -->
<g id="edge1" class="edge">
<title>Node1&#45;&gt;Node2</title>
<path fill="none" stroke="midnightblue" d="M254.41,-444.1C222.06,-432.95 184.6,-416.6 155.5,-394 152.67,-391.8 149.89,-389.48 147.16,-387.06"/>
<polygon fill="none" stroke="midnightblue" points="253.68,-447.54 264.27,-447.39 255.9,-440.9 253.68,-447.54"/>
</g>
<!-- Node3 -->
<g id="node3" class="node">
<title>Node3</title>
<g id="a_node3"><a xlink:href="classfspm_1_1config_1_1params_1_1ParamTable.html" target="_top" xlink:title="Stores Parameters in a tabular format as rows and columns (parameter key).">
<polygon fill="none" stroke="black" points="165,-193.5 165,-371.5 312,-371.5 312,-193.5 165,-193.5"/>
<text text-anchor="start" x="173" y="-359.5" font-family="Helvetica,sans-Serif" font-size="10.00">fspm.config.params.Param</text>
<text text-anchor="middle" x="238.5" y="-348.5" font-family="Helvetica,sans-Serif" font-size="10.00">Table</text>
<polyline fill="none" stroke="black" points="165,-341.5 312,-341.5 "/>
<text text-anchor="start" x="173" y="-329.5" font-family="Helvetica,sans-Serif" font-size="10.00">&#45; rows</text>
<polyline fill="none" stroke="black" points="165,-322.5 312,-322.5 "/>
<text text-anchor="start" x="173" y="-310.5" font-family="Helvetica,sans-Serif" font-size="10.00">+ ParamTable()</text>
<text text-anchor="start" x="173" y="-299.5" font-family="Helvetica,sans-Serif" font-size="10.00">+ addRow()</text>
<text text-anchor="start" x="173" y="-288.5" font-family="Helvetica,sans-Serif" font-size="10.00">+ getBoolean()</text>
<text text-anchor="start" x="173" y="-277.5" font-family="Helvetica,sans-Serif" font-size="10.00">+ getString()</text>
<text text-anchor="start" x="173" y="-266.5" font-family="Helvetica,sans-Serif" font-size="10.00">+ getInteger()</text>
<text text-anchor="start" x="173" y="-255.5" font-family="Helvetica,sans-Serif" font-size="10.00">+ getDouble()</text>
<text text-anchor="start" x="173" y="-244.5" font-family="Helvetica,sans-Serif" font-size="10.00">+ isNull()</text>
<text text-anchor="start" x="173" y="-233.5" font-family="Helvetica,sans-Serif" font-size="10.00">+ toString()</text>
<text text-anchor="start" x="173" y="-222.5" font-family="Helvetica,sans-Serif" font-size="10.00">~ getArray()</text>
<text text-anchor="start" x="173" y="-211.5" font-family="Helvetica,sans-Serif" font-size="10.00">&#45; setRow()</text>
<text text-anchor="start" x="173" y="-200.5" font-family="Helvetica,sans-Serif" font-size="10.00">&#45; getParameter()</text>
</a>
</g>
</g>
<!-- Node1&#45;&gt;Node3 -->
<g id="edge2" class="edge">
<title>Node1&#45;&gt;Node3</title>
<path fill="none" stroke="midnightblue" d="M305.01,-421.11C297.84,-406.27 289.5,-389.01 281.2,-371.84"/>
<polygon fill="none" stroke="midnightblue" points="302.04,-423 309.54,-430.49 308.34,-419.96 302.04,-423"/>
</g>
<!-- Node4 -->
<g id="node4" class="node">
<title>Node4</title>
<g id="a_node4"><a xlink:href="classfspm_1_1config_1_1params_1_1Parameter.html" target="_top" xlink:title="Parameter represents variables that can be stored as Java data types.">
<polygon fill="none" stroke="black" points="330,-182.5 330,-382.5 497,-382.5 497,-182.5 330,-182.5"/>
<text text-anchor="middle" x="413.5" y="-370.5" font-family="Helvetica,sans-Serif" font-size="10.00">fspm.config.params.Parameter</text>
<polyline fill="none" stroke="black" points="330,-363.5 497,-363.5 "/>
<text text-anchor="start" x="338" y="-351.5" font-family="Helvetica,sans-Serif" font-size="10.00">&#45; node</text>
<polyline fill="none" stroke="black" points="330,-344.5 497,-344.5 "/>
<text text-anchor="start" x="338" y="-332.5" font-family="Helvetica,sans-Serif" font-size="10.00">+ Parameter()</text>
<text text-anchor="start" x="338" y="-321.5" font-family="Helvetica,sans-Serif" font-size="10.00">+ getType()</text>
<text text-anchor="start" x="338" y="-310.5" font-family="Helvetica,sans-Serif" font-size="10.00">+ asBoolean()</text>
<text text-anchor="start" x="338" y="-299.5" font-family="Helvetica,sans-Serif" font-size="10.00">+ asString()</text>
<text text-anchor="start" x="338" y="-288.5" font-family="Helvetica,sans-Serif" font-size="10.00">+ asInteger()</text>
<text text-anchor="start" x="338" y="-277.5" font-family="Helvetica,sans-Serif" font-size="10.00">+ asDouble()</text>
<text text-anchor="start" x="338" y="-266.5" font-family="Helvetica,sans-Serif" font-size="10.00">+ asBooleanArray()</text>
<text text-anchor="start" x="338" y="-255.5" font-family="Helvetica,sans-Serif" font-size="10.00">+ asStringArray()</text>
<text text-anchor="start" x="338" y="-244.5" font-family="Helvetica,sans-Serif" font-size="10.00">+ asIntegerArray()</text>
<text text-anchor="start" x="338" y="-233.5" font-family="Helvetica,sans-Serif" font-size="10.00">+ asDoubleArray()</text>
<text text-anchor="start" x="338" y="-222.5" font-family="Helvetica,sans-Serif" font-size="10.00">+ isNull()</text>
<text text-anchor="start" x="338" y="-211.5" font-family="Helvetica,sans-Serif" font-size="10.00">+ toString()</text>
<text text-anchor="start" x="338" y="-200.5" font-family="Helvetica,sans-Serif" font-size="10.00">~ asArray()</text>
<text text-anchor="start" x="338" y="-189.5" font-family="Helvetica,sans-Serif" font-size="10.00">&#45; getDoubleType()</text>
</a>
</g>
</g>
<!-- Node1&#45;&gt;Node4 -->
<g id="edge3" class="edge">
<title>Node1&#45;&gt;Node4</title>
<path fill="none" stroke="midnightblue" d="M346.1,-421.37C351.87,-409.56 358.41,-396.19 365.08,-382.55"/>
<polygon fill="none" stroke="midnightblue" points="342.89,-419.96 341.64,-430.49 349.18,-423.04 342.89,-419.96"/>
</g>
<!-- Node5 -->
<g id="node5" class="node">
<title>Node5</title>
<g id="a_node5"><a xlink:href="classfspm_1_1config_1_1params_1_1groups_1_1ParamGroup.html" target="_top" xlink:title="Parameter configuration class for storing parameter categories.">
<polygon fill="none" stroke="black" points="515.5,-248.5 515.5,-316.5 667.5,-316.5 667.5,-248.5 515.5,-248.5"/>
<text text-anchor="start" x="523.5" y="-304.5" font-family="Helvetica,sans-Serif" font-size="10.00">fspm.config.params.groups.</text>
<text text-anchor="middle" x="591.5" y="-293.5" font-family="Helvetica,sans-Serif" font-size="10.00">ParamGroup</text>
<polyline fill="none" stroke="black" points="515.5,-286.5 667.5,-286.5 "/>
<text text-anchor="middle" x="591.5" y="-274.5" font-family="Helvetica,sans-Serif" font-size="10.00"> </text>
<polyline fill="none" stroke="black" points="515.5,-267.5 667.5,-267.5 "/>
<text text-anchor="start" x="523.5" y="-255.5" font-family="Helvetica,sans-Serif" font-size="10.00"># ParamGroup()</text>
</a>
</g>
</g>
<!-- Node1&#45;&gt;Node5 -->
<g id="edge4" class="edge">
<title>Node1&#45;&gt;Node5</title>
<path fill="none" stroke="midnightblue" d="M396.48,-446.12C431.87,-435.11 473.94,-418.28 506.5,-394 534.34,-373.23 557.68,-341.03 572.81,-316.73"/>
<polygon fill="none" stroke="midnightblue" points="395.25,-442.84 386.69,-449.08 397.28,-449.54 395.25,-442.84"/>
</g>
<!-- Node6 -->
<g id="node6" class="node">
<title>Node6</title>
<g id="a_node6"><a xlink:href="classfspm_1_1config_1_1params_1_1groups_1_1DocumentCategoryNameGroup.html" target="_top" xlink:title="Represents and encapsulates access for the document&#45;category&#45;name format.">
<polygon fill="none" stroke="black" points="390.5,-17 390.5,-118 578.5,-118 578.5,-17 390.5,-17"/>
<text text-anchor="start" x="398.5" y="-106" font-family="Helvetica,sans-Serif" font-size="10.00">fspm.config.params.groups.</text>
<text text-anchor="middle" x="484.5" y="-95" font-family="Helvetica,sans-Serif" font-size="10.00">DocumentCategoryNameGroup</text>
<polyline fill="none" stroke="black" points="390.5,-88 578.5,-88 "/>
<text text-anchor="start" x="398.5" y="-76" font-family="Helvetica,sans-Serif" font-size="10.00">&#45; categoryStore</text>
<polyline fill="none" stroke="black" points="390.5,-69 578.5,-69 "/>
<text text-anchor="start" x="398.5" y="-57" font-family="Helvetica,sans-Serif" font-size="10.00">+ DocumentCategoryNameGroup()</text>
<text text-anchor="start" x="398.5" y="-46" font-family="Helvetica,sans-Serif" font-size="10.00">+ getCategoryStore()</text>
<text text-anchor="start" x="398.5" y="-35" font-family="Helvetica,sans-Serif" font-size="10.00">+ toString()</text>
<text text-anchor="start" x="398.5" y="-24" font-family="Helvetica,sans-Serif" font-size="10.00">+ parse()</text>
</a>
</g>
</g>
<!-- Node5&#45;&gt;Node6 -->
<g id="edge5" class="edge">
<title>Node5&#45;&gt;Node6</title>
<path fill="none" stroke="midnightblue" d="M570.27,-239.25C552.77,-204.4 527.91,-154.91 509.45,-118.17"/>
<polygon fill="none" stroke="midnightblue" points="567.16,-240.85 574.78,-248.22 573.42,-237.71 567.16,-240.85"/>
</g>
<!-- Node7 -->
<g id="node7" class="node">
<title>Node7</title>
<g id="a_node7"><a xlink:href="classfspm_1_1config_1_1params_1_1groups_1_1DocumentHybridCategoryNameGroup.html" target="_top" xlink:title="Represents and encapsulates access for the document&#45;hybrid&#45;category&#45;name format.">
<polygon fill="none" stroke="black" points="596.5,-0.5 596.5,-134.5 798.5,-134.5 798.5,-0.5 596.5,-0.5"/>
<text text-anchor="start" x="604.5" y="-122.5" font-family="Helvetica,sans-Serif" font-size="10.00">fspm.config.params.groups.</text>
<text text-anchor="middle" x="697.5" y="-111.5" font-family="Helvetica,sans-Serif" font-size="10.00">DocumentHybridCategoryNameGroup</text>
<polyline fill="none" stroke="black" points="596.5,-104.5 798.5,-104.5 "/>
<text text-anchor="start" x="604.5" y="-92.5" font-family="Helvetica,sans-Serif" font-size="10.00">&#45; categoryStore</text>
<text text-anchor="start" x="604.5" y="-81.5" font-family="Helvetica,sans-Serif" font-size="10.00">&#45; tableStore</text>
<polyline fill="none" stroke="black" points="596.5,-74.5 798.5,-74.5 "/>
<text text-anchor="start" x="604.5" y="-62.5" font-family="Helvetica,sans-Serif" font-size="10.00">+ DocumentHybridCategoryName</text>
<text text-anchor="start" x="604.5" y="-51.5" font-family="Helvetica,sans-Serif" font-size="10.00">Group()</text>
<text text-anchor="start" x="604.5" y="-40.5" font-family="Helvetica,sans-Serif" font-size="10.00">+ getCategoryStore()</text>
<text text-anchor="start" x="604.5" y="-29.5" font-family="Helvetica,sans-Serif" font-size="10.00">+ getTableStore()</text>
<text text-anchor="start" x="604.5" y="-18.5" font-family="Helvetica,sans-Serif" font-size="10.00">+ toString()</text>
<text text-anchor="start" x="604.5" y="-7.5" font-family="Helvetica,sans-Serif" font-size="10.00">+ parse()</text>
</a>
</g>
</g>
<!-- Node5&#45;&gt;Node7 -->
<g id="edge6" class="edge">
<title>Node5&#45;&gt;Node7</title>
<path fill="none" stroke="midnightblue" d="M612.69,-238.92C627.54,-209.08 647.69,-168.6 664.61,-134.58"/>
<polygon fill="none" stroke="midnightblue" points="609.38,-237.71 608.06,-248.22 615.65,-240.83 609.38,-237.71"/>
</g>
</g>
</svg>
