<?xml version="1.0" encoding="UTF-8" standalone="no"?>
<!DOCTYPE svg PUBLIC "-//W3C//DTD SVG 1.1//EN"
 "http://www.w3.org/Graphics/SVG/1.1/DTD/svg11.dtd">
<!-- Generated by graphviz version 2.43.0 (0)
 -->
<!-- Title: fspm.config.params.type.StringParam Pages: 1 -->
<svg width="258pt" height="343pt"
 viewBox="0.00 0.00 258.00 343.00" xmlns="http://www.w3.org/2000/svg" xmlns:xlink="http://www.w3.org/1999/xlink">
<g id="graph0" class="graph" transform="scale(1 1) rotate(0) translate(4 339)">
<title>fspm.config.params.type.StringParam</title>
<!-- Node1 -->
<g id="node1" class="node">
<title>Node1</title>
<g id="a_node1"><a xlink:title="Concrete Parameter implementation for Strings.">
<polygon fill="#bfbfbf" stroke="black" points="0,-0.5 0,-123.5 141,-123.5 141,-0.5 0,-0.5"/>
<text text-anchor="start" x="8" y="-111.5" font-family="Helvetica,sans-Serif" font-size="10.00">fspm.config.params.type.</text>
<text text-anchor="middle" x="70.5" y="-100.5" font-family="Helvetica,sans-Serif" font-size="10.00">StringParam</text>
<polyline fill="none" stroke="black" points="0,-93.5 141,-93.5 "/>
<text text-anchor="middle" x="70.5" y="-81.5" font-family="Helvetica,sans-Serif" font-size="10.00"> </text>
<polyline fill="none" stroke="black" points="0,-74.5 141,-74.5 "/>
<text text-anchor="start" x="8" y="-62.5" font-family="Helvetica,sans-Serif" font-size="10.00">+ StringParam(String</text>
<text text-anchor="start" x="8" y="-51.5" font-family="Helvetica,sans-Serif" font-size="10.00"> key, String value)</text>
<text text-anchor="start" x="8" y="-40.5" font-family="Helvetica,sans-Serif" font-size="10.00">+ String getValue()</text>
<text text-anchor="start" x="8" y="-29.5" font-family="Helvetica,sans-Serif" font-size="10.00">+ void setValue(String</text>
<text text-anchor="start" x="8" y="-18.5" font-family="Helvetica,sans-Serif" font-size="10.00"> value)</text>
<text text-anchor="start" x="8" y="-7.5" font-family="Helvetica,sans-Serif" font-size="10.00">+ String toString()</text>
</a>
</g>
</g>
<!-- Node2 -->
<g id="node2" class="node">
<title>Node2</title>
<g id="a_node2"><a xlink:href="classfspm_1_1config_1_1params_1_1Parameter.html" target="_top" xlink:title="Parameter represents variables that can be stored using Java data types or other user&#45;defined types.">
<polygon fill="none" stroke="black" points="83,-161.5 83,-229.5 250,-229.5 250,-161.5 83,-161.5"/>
<text text-anchor="middle" x="166.5" y="-217.5" font-family="Helvetica,sans-Serif" font-size="10.00">fspm.config.params.Parameter</text>
<polyline fill="none" stroke="black" points="83,-210.5 250,-210.5 "/>
<text text-anchor="middle" x="166.5" y="-198.5" font-family="Helvetica,sans-Serif" font-size="10.00"> </text>
<polyline fill="none" stroke="black" points="83,-191.5 250,-191.5 "/>
<text text-anchor="start" x="91" y="-179.5" font-family="Helvetica,sans-Serif" font-size="10.00">+ String getKey()</text>
<text text-anchor="start" x="91" y="-168.5" font-family="Helvetica,sans-Serif" font-size="10.00"># Parameter(String key)</text>
</a>
</g>
</g>
<!-- Node2&#45;&gt;Node1 -->
<g id="edge1" class="edge">
<title>Node2&#45;&gt;Node1</title>
<path fill="none" stroke="midnightblue" d="M136.18,-152.97C129.36,-143.63 121.98,-133.52 114.72,-123.57"/>
<polygon fill="none" stroke="midnightblue" points="133.55,-155.3 142.28,-161.32 139.21,-151.18 133.55,-155.3"/>
</g>
<!-- Node3 -->
<g id="node3" class="node">
<title>Node3</title>
<g id="a_node3"><a xlink:title=" ">
<polygon fill="none" stroke="#bfbfbf" points="24,-277.5 24,-334.5 69,-334.5 69,-277.5 24,-277.5"/>
<text text-anchor="middle" x="46.5" y="-322.5" font-family="Helvetica,sans-Serif" font-size="10.00">String</text>
<polyline fill="none" stroke="#bfbfbf" points="24,-315.5 69,-315.5 "/>
<text text-anchor="middle" x="46.5" y="-303.5" font-family="Helvetica,sans-Serif" font-size="10.00"> </text>
<polyline fill="none" stroke="#bfbfbf" points="24,-296.5 69,-296.5 "/>
<text text-anchor="middle" x="46.5" y="-284.5" font-family="Helvetica,sans-Serif" font-size="10.00"> </text>
</a>
</g>
</g>
<!-- Node3&#45;&gt;Node1 -->
<g id="edge3" class="edge">
<title>Node3&#45;&gt;Node1</title>
<path fill="none" stroke="#404040" d="M43.75,-277.25C42.48,-263.12 41.13,-245.66 40.5,-230 39.28,-199.36 35.96,-191.33 40.5,-161 41.77,-152.53 43.62,-143.78 45.79,-135.16"/>
<polygon fill="none" stroke="#404040" points="45.8,-135.11 43.5,-128.27 48.92,-123.52 51.23,-130.35 45.8,-135.11"/>
<text text-anchor="middle" x="57.5" y="-193" font-family="Helvetica,sans-Serif" font-size="10.00"> &#45;value</text>
</g>
<!-- Node3&#45;&gt;Node2 -->
<g id="edge2" class="edge">
<title>Node3&#45;&gt;Node2</title>
<path fill="none" stroke="#404040" d="M69.07,-284.59C83.64,-271.42 103.11,-253.81 120.82,-237.8"/>
<polygon fill="none" stroke="#404040" points="120.98,-237.66 122.75,-230.67 129.88,-229.61 128.11,-236.6 120.98,-237.66"/>
<text text-anchor="middle" x="119" y="-251" font-family="Helvetica,sans-Serif" font-size="10.00"> &#45;key</text>
</g>
</g>
</svg>
