<?xml version="1.0" encoding="UTF-8" standalone="no"?>
<!DOCTYPE svg PUBLIC "-//W3C//DTD SVG 1.1//EN"
 "http://www.w3.org/Graphics/SVG/1.1/DTD/svg11.dtd">
<!-- Generated by graphviz version 2.43.0 (0)
 -->
<!-- Title: Serializable Pages: 1 -->
<svg width="581pt" height="684pt"
 viewBox="0.00 0.00 580.50 684.00" xmlns="http://www.w3.org/2000/svg" xmlns:xlink="http://www.w3.org/1999/xlink">
<g id="graph0" class="graph" transform="scale(1 1) rotate(0) translate(4 680)">
<title>Serializable</title>
<!-- Node1 -->
<g id="Node000001" class="node">
<title>Node1</title>
<g id="a_Node000001"><a xlink:title=" ">
<polygon fill="#999999" stroke="transparent" points="311,-676 243,-676 243,-627 311,-627 311,-676"/>
<text text-anchor="start" x="248" y="-663.5" font-family="Helvetica,sans-Serif" font-size="10.00">Serializable</text>
<text text-anchor="start" x="275" y="-648.5" font-family="Helvetica,sans-Serif" font-size="10.00"> </text>
<text text-anchor="start" x="275" y="-633.5" font-family="Helvetica,sans-Serif" font-size="10.00"> </text>
<polygon fill="#666666" stroke="#666666" points="243,-658.5 243,-658.5 311,-658.5 311,-658.5 243,-658.5"/>
<polygon fill="#666666" stroke="#666666" points="243,-643.5 243,-643.5 311,-643.5 311,-643.5 243,-643.5"/>
<polygon fill="none" stroke="#666666" points="243,-627 243,-676 311,-676 311,-627 243,-627"/>
</a>
</g>
</g>
<!-- Node2 -->
<g id="Node000002" class="node">
<title>Node2</title>
<g id="a_Node000002"><a xlink:href="classio_1_1github_1_1fruitcropxl_1_1config_1_1Config.html" target="_top" xlink:title="Configuration class for storing input configurations to be used in simulations.">
<polygon fill="white" stroke="transparent" points="142,-591 0,-591 0,-396 142,-396 142,-591"/>
<text text-anchor="start" x="5" y="-578.5" font-family="Helvetica,sans-Serif" font-size="10.00">io.github.fruitcropxl.config.</text>
<text text-anchor="start" x="55.5" y="-567.5" font-family="Helvetica,sans-Serif" font-size="10.00">Config</text>
<text text-anchor="start" x="18" y="-552.5" font-family="Helvetica,sans-Serif" font-size="10.00">&#45;</text>
<text text-anchor="start" x="40" y="-552.5" font-family="Helvetica,sans-Serif" font-size="10.00">paramGroups</text>
<text text-anchor="start" x="18" y="-537.5" font-family="Helvetica,sans-Serif" font-size="10.00">&#45;</text>
<text text-anchor="start" x="40" y="-537.5" font-family="Helvetica,sans-Serif" font-size="10.00">instance</text>
<text text-anchor="start" x="15.5" y="-522.5" font-family="Helvetica,sans-Serif" font-size="10.00">+</text>
<text text-anchor="start" x="40" y="-522.5" font-family="Helvetica,sans-Serif" font-size="10.00">reset()</text>
<text text-anchor="start" x="15.5" y="-507.5" font-family="Helvetica,sans-Serif" font-size="10.00">+</text>
<text text-anchor="start" x="40" y="-507.5" font-family="Helvetica,sans-Serif" font-size="10.00">addGroup()</text>
<text text-anchor="start" x="15.5" y="-492.5" font-family="Helvetica,sans-Serif" font-size="10.00">+</text>
<text text-anchor="start" x="40" y="-492.5" font-family="Helvetica,sans-Serif" font-size="10.00">addGroup()</text>
<text text-anchor="start" x="15.5" y="-477.5" font-family="Helvetica,sans-Serif" font-size="10.00">+</text>
<text text-anchor="start" x="40" y="-477.5" font-family="Helvetica,sans-Serif" font-size="10.00">addGroup()</text>
<text text-anchor="start" x="15.5" y="-462.5" font-family="Helvetica,sans-Serif" font-size="10.00">+</text>
<text text-anchor="start" x="40" y="-462.5" font-family="Helvetica,sans-Serif" font-size="10.00">removeGroup()</text>
<text text-anchor="start" x="15.5" y="-447.5" font-family="Helvetica,sans-Serif" font-size="10.00">+</text>
<text text-anchor="start" x="40" y="-447.5" font-family="Helvetica,sans-Serif" font-size="10.00">getInstance()</text>
<text text-anchor="start" x="15.5" y="-432.5" font-family="Helvetica,sans-Serif" font-size="10.00">~</text>
<text text-anchor="start" x="40" y="-432.5" font-family="Helvetica,sans-Serif" font-size="10.00">getGroup()</text>
<text text-anchor="start" x="18" y="-417.5" font-family="Helvetica,sans-Serif" font-size="10.00">&#45;</text>
<text text-anchor="start" x="40" y="-417.5" font-family="Helvetica,sans-Serif" font-size="10.00">Config()</text>
<text text-anchor="start" x="18" y="-402.5" font-family="Helvetica,sans-Serif" font-size="10.00">&#45;</text>
<text text-anchor="start" x="40" y="-402.5" font-family="Helvetica,sans-Serif" font-size="10.00">addGroup()</text>
<polygon fill="#666666" stroke="#666666" points="0,-562.5 0,-562.5 142,-562.5 142,-562.5 0,-562.5"/>
<polygon fill="#666666" stroke="#666666" points="0,-532.5 0,-532.5 38,-532.5 38,-532.5 0,-532.5"/>
<polygon fill="#666666" stroke="#666666" points="38,-532.5 38,-532.5 142,-532.5 142,-532.5 38,-532.5"/>
<polygon fill="none" stroke="#666666" points="0,-396 0,-591 142,-591 142,-396 0,-396"/>
</a>
</g>
</g>
<!-- Node1&#45;&gt;Node2 -->
<g id="edge1_Node000001_Node000002" class="edge">
<title>Node1&#45;&gt;Node2</title>
<g id="a_edge1_Node000001_Node000002"><a xlink:title=" ">
<path fill="none" stroke="#63b8ff" d="M233.61,-635.21C208.3,-625.04 176.61,-610.04 152,-591 148.63,-588.39 145.3,-585.62 142.02,-582.72"/>
<polygon fill="none" stroke="#63b8ff" points="232.38,-638.49 242.97,-638.88 234.93,-631.97 232.38,-638.49"/>
</a>
</g>
</g>
<!-- Node3 -->
<g id="Node000003" class="node">
<title>Node3</title>
<g id="a_Node000003"><a xlink:href="classio_1_1github_1_1fruitcropxl_1_1config_1_1params_1_1structures_1_1ParamStructure.html" target="_top" xlink:title="Represents a structure found in ParamGroups that store parameters.">
<polygon fill="white" stroke="transparent" points="393.5,-531 160.5,-531 160.5,-456 393.5,-456 393.5,-531"/>
<text text-anchor="start" x="166" y="-518.5" font-family="Helvetica,sans-Serif" font-size="10.00">io.github.fruitcropxl.config.params.structures.</text>
<text text-anchor="start" x="239.5" y="-507.5" font-family="Helvetica,sans-Serif" font-size="10.00">ParamStructure</text>
<text text-anchor="start" x="199.5" y="-492.5" font-family="Helvetica,sans-Serif" font-size="10.00">&#45;</text>
<text text-anchor="start" x="242" y="-492.5" font-family="Helvetica,sans-Serif" font-size="10.00">groupKey</text>
<text text-anchor="start" x="197" y="-477.5" font-family="Helvetica,sans-Serif" font-size="10.00">+</text>
<text text-anchor="start" x="242" y="-477.5" font-family="Helvetica,sans-Serif" font-size="10.00">ParamStructure()</text>
<text text-anchor="start" x="197" y="-462.5" font-family="Helvetica,sans-Serif" font-size="10.00">+</text>
<text text-anchor="start" x="242" y="-462.5" font-family="Helvetica,sans-Serif" font-size="10.00">getGroupKey()</text>
<polygon fill="#666666" stroke="#666666" points="161,-502.5 161,-502.5 394,-502.5 394,-502.5 161,-502.5"/>
<polygon fill="#666666" stroke="#666666" points="161,-487.5 161,-487.5 240,-487.5 240,-487.5 161,-487.5"/>
<polygon fill="#666666" stroke="#666666" points="240,-487.5 240,-487.5 394,-487.5 394,-487.5 240,-487.5"/>
<polygon fill="none" stroke="#666666" points="160.5,-456 160.5,-531 393.5,-531 393.5,-456 160.5,-456"/>
</a>
</g>
</g>
<!-- Node1&#45;&gt;Node3 -->
<g id="edge2_Node000001_Node000003" class="edge">
<title>Node1&#45;&gt;Node3</title>
<g id="a_edge2_Node000001_Node000003"><a xlink:title=" ">
<path fill="none" stroke="#63b8ff" d="M277,-616.62C277,-591.42 277,-557.06 277,-531.21"/>
<polygon fill="none" stroke="#63b8ff" points="273.5,-616.81 277,-626.81 280.5,-616.81 273.5,-616.81"/>
</a>
</g>
</g>
<!-- Node6 -->
<g id="Node000006" class="node">
<title>Node6</title>
<g id="a_Node000006"><a xlink:href="classio_1_1github_1_1fruitcropxl_1_1config_1_1util_1_1KeyElement.html" target="_top" xlink:title="Represents an element which contains a key.">
<polygon fill="white" stroke="transparent" points="572.5,-531 411.5,-531 411.5,-456 572.5,-456 572.5,-531"/>
<text text-anchor="start" x="417" y="-518.5" font-family="Helvetica,sans-Serif" font-size="10.00">io.github.fruitcropxl.config.util.</text>
<text text-anchor="start" x="463" y="-507.5" font-family="Helvetica,sans-Serif" font-size="10.00">KeyElement</text>
<text text-anchor="start" x="436.5" y="-492.5" font-family="Helvetica,sans-Serif" font-size="10.00">&#45;</text>
<text text-anchor="start" x="465" y="-492.5" font-family="Helvetica,sans-Serif" font-size="10.00">key</text>
<text text-anchor="start" x="434" y="-477.5" font-family="Helvetica,sans-Serif" font-size="10.00">+</text>
<text text-anchor="start" x="465" y="-477.5" font-family="Helvetica,sans-Serif" font-size="10.00">KeyElement()</text>
<text text-anchor="start" x="434" y="-462.5" font-family="Helvetica,sans-Serif" font-size="10.00">+</text>
<text text-anchor="start" x="465" y="-462.5" font-family="Helvetica,sans-Serif" font-size="10.00">getKey()</text>
<polygon fill="#666666" stroke="#666666" points="412,-502.5 412,-502.5 573,-502.5 573,-502.5 412,-502.5"/>
<polygon fill="#666666" stroke="#666666" points="412,-487.5 412,-487.5 463,-487.5 463,-487.5 412,-487.5"/>
<polygon fill="#666666" stroke="#666666" points="463,-487.5 463,-487.5 573,-487.5 573,-487.5 463,-487.5"/>
<polygon fill="none" stroke="#666666" points="411.5,-456 411.5,-531 572.5,-531 572.5,-456 411.5,-456"/>
</a>
</g>
</g>
<!-- Node1&#45;&gt;Node6 -->
<g id="edge5_Node000001_Node000006" class="edge">
<title>Node1&#45;&gt;Node6</title>
<g id="a_edge5_Node000001_Node000006"><a xlink:title=" ">
<path fill="none" stroke="#63b8ff" d="M320.42,-634.85C345.82,-624.54 377.76,-609.54 403,-591 425.96,-574.14 447.72,-550.73 463.97,-531.2"/>
<polygon fill="none" stroke="#63b8ff" points="319.04,-631.63 311.03,-638.56 321.62,-638.14 319.04,-631.63"/>
</a>
</g>
</g>
<!-- Node4 -->
<g id="Node000004" class="node">
<title>Node4</title>
<g id="a_Node000004"><a xlink:href="classio_1_1github_1_1fruitcropxl_1_1config_1_1params_1_1structures_1_1CategoryStore.html" target="_top" xlink:title="Represents the collection of categories in a document.">
<polygon fill="white" stroke="transparent" points="267.5,-360 34.5,-360 34.5,0 267.5,0 267.5,-360"/>
<text text-anchor="start" x="40" y="-348" font-family="Helvetica,sans-Serif" font-size="10.00">io.github.fruitcropxl.config.params.structures.</text>
<text text-anchor="start" x="116.5" y="-337" font-family="Helvetica,sans-Serif" font-size="10.00">CategoryStore</text>
<text text-anchor="start" x="60" y="-322" font-family="Helvetica,sans-Serif" font-size="10.00">+</text>
<text text-anchor="start" x="94" y="-322" font-family="Helvetica,sans-Serif" font-size="10.00">CATEGORIES_HEADER</text>
<text text-anchor="start" x="62.5" y="-307" font-family="Helvetica,sans-Serif" font-size="10.00">&#45;</text>
<text text-anchor="start" x="94" y="-307" font-family="Helvetica,sans-Serif" font-size="10.00">categoryContext</text>
<text text-anchor="start" x="62.5" y="-292" font-family="Helvetica,sans-Serif" font-size="10.00">&#45;</text>
<text text-anchor="start" x="94" y="-292" font-family="Helvetica,sans-Serif" font-size="10.00">categories</text>
<text text-anchor="start" x="62.5" y="-277" font-family="Helvetica,sans-Serif" font-size="10.00">&#45;</text>
<text text-anchor="start" x="94" y="-277" font-family="Helvetica,sans-Serif" font-size="10.00">useFlattenedCategories</text>
<text text-anchor="start" x="60" y="-262" font-family="Helvetica,sans-Serif" font-size="10.00">+</text>
<text text-anchor="start" x="94" y="-262" font-family="Helvetica,sans-Serif" font-size="10.00">CategoryStore()</text>
<text text-anchor="start" x="60" y="-247" font-family="Helvetica,sans-Serif" font-size="10.00">+</text>
<text text-anchor="start" x="94" y="-247" font-family="Helvetica,sans-Serif" font-size="10.00">addCategory()</text>
<text text-anchor="start" x="60" y="-232" font-family="Helvetica,sans-Serif" font-size="10.00">+</text>
<text text-anchor="start" x="94" y="-232" font-family="Helvetica,sans-Serif" font-size="10.00">getCategory()</text>
<text text-anchor="start" x="60" y="-217" font-family="Helvetica,sans-Serif" font-size="10.00">+</text>
<text text-anchor="start" x="94" y="-217" font-family="Helvetica,sans-Serif" font-size="10.00">getCategoryWithParam()</text>
<text text-anchor="start" x="60" y="-202" font-family="Helvetica,sans-Serif" font-size="10.00">+</text>
<text text-anchor="start" x="94" y="-202" font-family="Helvetica,sans-Serif" font-size="10.00">setCategoryContext()</text>
<text text-anchor="start" x="60" y="-187" font-family="Helvetica,sans-Serif" font-size="10.00">+</text>
<text text-anchor="start" x="94" y="-187" font-family="Helvetica,sans-Serif" font-size="10.00">setFlattenedAccess()</text>
<text text-anchor="start" x="60" y="-172" font-family="Helvetica,sans-Serif" font-size="10.00">+</text>
<text text-anchor="start" x="94" y="-172" font-family="Helvetica,sans-Serif" font-size="10.00">getBoolean()</text>
<text text-anchor="start" x="60" y="-157" font-family="Helvetica,sans-Serif" font-size="10.00">+</text>
<text text-anchor="start" x="94" y="-157" font-family="Helvetica,sans-Serif" font-size="10.00">getBoolean()</text>
<text text-anchor="start" x="60" y="-142" font-family="Helvetica,sans-Serif" font-size="10.00">+</text>
<text text-anchor="start" x="94" y="-142" font-family="Helvetica,sans-Serif" font-size="10.00">getString()</text>
<text text-anchor="start" x="60" y="-127" font-family="Helvetica,sans-Serif" font-size="10.00">+</text>
<text text-anchor="start" x="94" y="-127" font-family="Helvetica,sans-Serif" font-size="10.00">getString()</text>
<text text-anchor="start" x="94" y="-112" font-family="Helvetica,sans-Serif" font-size="10.00">and 19 more...</text>
<text text-anchor="start" x="60" y="-97" font-family="Helvetica,sans-Serif" font-size="10.00">+</text>
<text text-anchor="start" x="94" y="-97" font-family="Helvetica,sans-Serif" font-size="10.00">parse()</text>
<text text-anchor="start" x="60" y="-82" font-family="Helvetica,sans-Serif" font-size="10.00">~</text>
<text text-anchor="start" x="94" y="-82" font-family="Helvetica,sans-Serif" font-size="10.00">get()</text>
<text text-anchor="start" x="60" y="-67" font-family="Helvetica,sans-Serif" font-size="10.00">~</text>
<text text-anchor="start" x="94" y="-67" font-family="Helvetica,sans-Serif" font-size="10.00">get()</text>
<text text-anchor="start" x="60" y="-52" font-family="Helvetica,sans-Serif" font-size="10.00">~</text>
<text text-anchor="start" x="94" y="-52" font-family="Helvetica,sans-Serif" font-size="10.00">getArray()</text>
<text text-anchor="start" x="60" y="-37" font-family="Helvetica,sans-Serif" font-size="10.00">~</text>
<text text-anchor="start" x="94" y="-37" font-family="Helvetica,sans-Serif" font-size="10.00">getArray()</text>
<text text-anchor="start" x="60" y="-22" font-family="Helvetica,sans-Serif" font-size="10.00">~</text>
<text text-anchor="start" x="94" y="-22" font-family="Helvetica,sans-Serif" font-size="10.00">set()</text>
<text text-anchor="start" x="62.5" y="-7" font-family="Helvetica,sans-Serif" font-size="10.00">&#45;</text>
<text text-anchor="start" x="94" y="-7" font-family="Helvetica,sans-Serif" font-size="10.00">validateFlattenedAccess()</text>
<polygon fill="#666666" stroke="#666666" points="35,-332 35,-332 268,-332 268,-332 35,-332"/>
<polygon fill="#666666" stroke="#666666" points="35,-272 35,-272 92,-272 92,-272 35,-272"/>
<polygon fill="#666666" stroke="#666666" points="92,-272 92,-272 268,-272 268,-272 92,-272"/>
<polygon fill="none" stroke="#666666" points="34.5,0 34.5,-360 267.5,-360 267.5,0 34.5,0"/>
</a>
</g>
</g>
<!-- Node3&#45;&gt;Node4 -->
<g id="edge3_Node000003_Node000004" class="edge">
<title>Node3&#45;&gt;Node4</title>
<g id="a_edge3_Node000003_Node000004"><a xlink:title=" ">
<path fill="none" stroke="#63b8ff" d="M258.38,-446.46C248.79,-422.76 236.42,-392.18 223.5,-360.24"/>
<polygon fill="none" stroke="#63b8ff" points="255.18,-447.89 262.18,-455.85 261.67,-445.27 255.18,-447.89"/>
</a>
</g>
</g>
<!-- Node5 -->
<g id="Node000005" class="node">
<title>Node5</title>
<g id="a_Node000005"><a xlink:href="classio_1_1github_1_1fruitcropxl_1_1config_1_1params_1_1structures_1_1TableStore.html" target="_top" xlink:title="Represents the collection of tables in a document.">
<polygon fill="white" stroke="transparent" points="518.5,-247.5 285.5,-247.5 285.5,-112.5 518.5,-112.5 518.5,-247.5"/>
<text text-anchor="start" x="291" y="-235" font-family="Helvetica,sans-Serif" font-size="10.00">io.github.fruitcropxl.config.params.structures.</text>
<text text-anchor="start" x="376.5" y="-224" font-family="Helvetica,sans-Serif" font-size="10.00">TableStore</text>
<text text-anchor="start" x="318.5" y="-209" font-family="Helvetica,sans-Serif" font-size="10.00">+</text>
<text text-anchor="start" x="360" y="-209" font-family="Helvetica,sans-Serif" font-size="10.00">ROW_PREFIX_FIELD</text>
<text text-anchor="start" x="321" y="-194" font-family="Helvetica,sans-Serif" font-size="10.00">&#45;</text>
<text text-anchor="start" x="360" y="-194" font-family="Helvetica,sans-Serif" font-size="10.00">tables</text>
<text text-anchor="start" x="318.5" y="-179" font-family="Helvetica,sans-Serif" font-size="10.00">+</text>
<text text-anchor="start" x="360" y="-179" font-family="Helvetica,sans-Serif" font-size="10.00">TableStore()</text>
<text text-anchor="start" x="318.5" y="-164" font-family="Helvetica,sans-Serif" font-size="10.00">+</text>
<text text-anchor="start" x="360" y="-164" font-family="Helvetica,sans-Serif" font-size="10.00">addTable()</text>
<text text-anchor="start" x="318.5" y="-149" font-family="Helvetica,sans-Serif" font-size="10.00">+</text>
<text text-anchor="start" x="360" y="-149" font-family="Helvetica,sans-Serif" font-size="10.00">getTable()</text>
<text text-anchor="start" x="318.5" y="-134" font-family="Helvetica,sans-Serif" font-size="10.00">+</text>
<text text-anchor="start" x="360" y="-134" font-family="Helvetica,sans-Serif" font-size="10.00">toString()</text>
<text text-anchor="start" x="318.5" y="-119" font-family="Helvetica,sans-Serif" font-size="10.00">+</text>
<text text-anchor="start" x="360" y="-119" font-family="Helvetica,sans-Serif" font-size="10.00">parse()</text>
<polygon fill="#666666" stroke="#666666" points="286,-219 286,-219 519,-219 519,-219 286,-219"/>
<polygon fill="#666666" stroke="#666666" points="286,-189 286,-189 358,-189 358,-189 286,-189"/>
<polygon fill="#666666" stroke="#666666" points="358,-189 358,-189 519,-189 519,-189 358,-189"/>
<polygon fill="none" stroke="#666666" points="285.5,-112.5 285.5,-247.5 518.5,-247.5 518.5,-112.5 285.5,-112.5"/>
</a>
</g>
</g>
<!-- Node3&#45;&gt;Node5 -->
<g id="edge4_Node000003_Node000005" class="edge">
<title>Node3&#45;&gt;Node5</title>
<g id="a_edge4_Node000003_Node000005"><a xlink:title=" ">
<path fill="none" stroke="#63b8ff" d="M295.48,-446.45C316.55,-393.94 351.18,-307.64 375.21,-247.75"/>
<polygon fill="none" stroke="#63b8ff" points="292.18,-445.27 291.71,-455.85 298.68,-447.87 292.18,-445.27"/>
</a>
</g>
</g>
</g>
</svg>
