<?xml version="1.0" encoding="UTF-8" standalone="no"?>
<!DOCTYPE svg PUBLIC "-//W3C//DTD SVG 1.1//EN"
 "http://www.w3.org/Graphics/SVG/1.1/DTD/svg11.dtd">
<!-- Generated by graphviz version 2.43.0 (0)
 -->
<!-- Title: io.github.fruitcropxl.config.params.groups.ParamGroup Pages: 1 -->
<svg width="462pt" height="335pt"
 viewBox="0.00 0.00 462.00 335.00" xmlns="http://www.w3.org/2000/svg" xmlns:xlink="http://www.w3.org/1999/xlink">

<svg id="main" version="1.1" xmlns="http://www.w3.org/2000/svg" xmlns:xlink="http://www.w3.org/1999/xlink" xml:space="preserve" onload="init(evt)">
<style type="text/css"><![CDATA[
.node, .edge {opacity: 0.7;}
.node.selected, .edge.selected {opacity: 1;}
.edge:hover path { stroke: red; }
.edge:hover polygon { stroke: red; fill: red; }
]]></style>
<script type="application/ecmascript" xlink:href="svg.min.js"/>
<svg id="graph" class="graph">
<g id="graph0" class="graph" transform="scale(1 1) rotate(0) translate(4 331)">
<title>io.github.fruitcropxl.config.params.groups.ParamGroup</title>
<!-- Node1 -->
<g id="Node000001" class="node">
<title>Node1</title>
<g id="a_Node000001"><a xlink:title="Parameter configuration class for storing parameter categories.">
<polygon fill="#999999" stroke="transparent" points="336,-242 118,-242 118,-182 336,-182 336,-242"/>
<text text-anchor="start" x="123" y="-230" font-family="Helvetica,sans-Serif" font-size="10.00">io.github.fruitcropxl.config.params.groups.</text>
<text text-anchor="start" x="196.5" y="-219" font-family="Helvetica,sans-Serif" font-size="10.00">ParamGroup</text>
<text text-anchor="start" x="225" y="-204" font-family="Helvetica,sans-Serif" font-size="10.00"> </text>
<text text-anchor="start" x="154" y="-189" font-family="Helvetica,sans-Serif" font-size="10.00">#</text>
<text text-anchor="start" x="199" y="-189" font-family="Helvetica,sans-Serif" font-size="10.00">ParamGroup()</text>
<polygon fill="#666666" stroke="#666666" points="118,-214 118,-214 336,-214 336,-214 118,-214"/>
<polygon fill="#666666" stroke="#666666" points="118,-199 118,-199 336,-199 336,-199 118,-199"/>
<polygon fill="none" stroke="#666666" points="118,-182 118,-242 336,-242 336,-182 118,-182"/>
</a>
</g>
</g>
<!-- Node3 -->
<g id="Node000003" class="node">
<title>Node3</title>
<g id="a_Node000003"><a xlink:href="classio_1_1github_1_1fruitcropxl_1_1config_1_1params_1_1groups_1_1DocumentCategoryNameGroup.html" target="_top" xlink:title="Represents and encapsulates access for the document&#45;category&#45;name format.">
<polygon fill="white" stroke="transparent" points="218,-125.5 0,-125.5 0,-20.5 218,-20.5 218,-125.5"/>
<text text-anchor="start" x="5" y="-113" font-family="Helvetica,sans-Serif" font-size="10.00">io.github.fruitcropxl.config.params.groups.</text>
<text text-anchor="start" x="32" y="-102" font-family="Helvetica,sans-Serif" font-size="10.00">DocumentCategoryNameGroup</text>
<text text-anchor="start" x="15.5" y="-87" font-family="Helvetica,sans-Serif" font-size="10.00">&#45;</text>
<text text-anchor="start" x="35" y="-87" font-family="Helvetica,sans-Serif" font-size="10.00">categoryStore</text>
<text text-anchor="start" x="13" y="-72" font-family="Helvetica,sans-Serif" font-size="10.00">+</text>
<text text-anchor="start" x="35" y="-72" font-family="Helvetica,sans-Serif" font-size="10.00">DocumentCategoryNameGroup()</text>
<text text-anchor="start" x="13" y="-57" font-family="Helvetica,sans-Serif" font-size="10.00">+</text>
<text text-anchor="start" x="35" y="-57" font-family="Helvetica,sans-Serif" font-size="10.00">getCategoryStore()</text>
<text text-anchor="start" x="13" y="-42" font-family="Helvetica,sans-Serif" font-size="10.00">+</text>
<text text-anchor="start" x="35" y="-42" font-family="Helvetica,sans-Serif" font-size="10.00">toString()</text>
<text text-anchor="start" x="13" y="-27" font-family="Helvetica,sans-Serif" font-size="10.00">+</text>
<text text-anchor="start" x="35" y="-27" font-family="Helvetica,sans-Serif" font-size="10.00">parse()</text>
<polygon fill="#666666" stroke="#666666" points="0,-97 0,-97 218,-97 218,-97 0,-97"/>
<polygon fill="#666666" stroke="#666666" points="0,-82 0,-82 33,-82 33,-82 0,-82"/>
<polygon fill="#666666" stroke="#666666" points="33,-82 33,-82 218,-82 218,-82 33,-82"/>
<polygon fill="none" stroke="#666666" points="0,-20.5 0,-125.5 218,-125.5 218,-20.5 0,-20.5"/>
</a>
</g>
</g>
<!-- Node1&#45;&gt;Node3 -->
<g id="edge2_Node000001_Node000003" class="edge">
<title>Node1&#45;&gt;Node3</title>
<g id="a_edge2_Node000001_Node000003"><a xlink:title=" ">
<path fill="none" stroke="#63b8ff" d="M195.11,-173.98C182.32,-159.13 167.36,-141.76 153.53,-125.7"/>
<polygon fill="none" stroke="#63b8ff" points="192.8,-176.65 201.98,-181.95 198.1,-172.08 192.8,-176.65"/>
</a>
</g>
</g>
<!-- Node4 -->
<g id="Node000004" class="node">
<title>Node4</title>
<g id="a_Node000004"><a xlink:href="classio_1_1github_1_1fruitcropxl_1_1config_1_1params_1_1groups_1_1DocumentHybridCategoryNameGroup.html" target="_top" xlink:title="Represents and encapsulates access for the document&#45;hybrid&#45;category&#45;name format.">
<polygon fill="white" stroke="transparent" points="454,-146 236,-146 236,0 454,0 454,-146"/>
<text text-anchor="start" x="241" y="-134" font-family="Helvetica,sans-Serif" font-size="10.00">io.github.fruitcropxl.config.params.groups.</text>
<text text-anchor="start" x="252" y="-123" font-family="Helvetica,sans-Serif" font-size="10.00">DocumentHybridCategoryNameGroup</text>
<text text-anchor="start" x="252.5" y="-108" font-family="Helvetica,sans-Serif" font-size="10.00">&#45;</text>
<text text-anchor="start" x="273" y="-108" font-family="Helvetica,sans-Serif" font-size="10.00">categoryStore</text>
<text text-anchor="start" x="252.5" y="-93" font-family="Helvetica,sans-Serif" font-size="10.00">&#45;</text>
<text text-anchor="start" x="273" y="-93" font-family="Helvetica,sans-Serif" font-size="10.00">tableStore</text>
<text text-anchor="start" x="250" y="-78" font-family="Helvetica,sans-Serif" font-size="10.00">+</text>
<text text-anchor="start" x="273" y="-78" font-family="Helvetica,sans-Serif" font-size="10.00">DocumentHybridCategoryName</text>
<text text-anchor="start" x="273" y="-67" font-family="Helvetica,sans-Serif" font-size="10.00">Group()</text>
<text text-anchor="start" x="250" y="-52" font-family="Helvetica,sans-Serif" font-size="10.00">+</text>
<text text-anchor="start" x="273" y="-52" font-family="Helvetica,sans-Serif" font-size="10.00">getCategoryStore()</text>
<text text-anchor="start" x="250" y="-37" font-family="Helvetica,sans-Serif" font-size="10.00">+</text>
<text text-anchor="start" x="273" y="-37" font-family="Helvetica,sans-Serif" font-size="10.00">getTableStore()</text>
<text text-anchor="start" x="250" y="-22" font-family="Helvetica,sans-Serif" font-size="10.00">+</text>
<text text-anchor="start" x="273" y="-22" font-family="Helvetica,sans-Serif" font-size="10.00">toString()</text>
<text text-anchor="start" x="250" y="-7" font-family="Helvetica,sans-Serif" font-size="10.00">+</text>
<text text-anchor="start" x="273" y="-7" font-family="Helvetica,sans-Serif" font-size="10.00">parse()</text>
<polygon fill="#666666" stroke="#666666" points="236,-118 236,-118 454,-118 454,-118 236,-118"/>
<polygon fill="#666666" stroke="#666666" points="236,-88 236,-88 271,-88 271,-88 236,-88"/>
<polygon fill="#666666" stroke="#666666" points="271,-88 271,-88 454,-88 454,-88 271,-88"/>
<polygon fill="none" stroke="#666666" points="236,0 236,-146 454,-146 454,0 236,0"/>
</a>
</g>
</g>
<!-- Node1&#45;&gt;Node4 -->
<g id="edge3_Node000001_Node000004" class="edge">
<title>Node1&#45;&gt;Node4</title>
<g id="a_edge3_Node000001_Node000004"><a xlink:title=" ">
<path fill="none" stroke="#63b8ff" d="M258.7,-174.2C266.22,-165.47 274.5,-155.85 282.86,-146.14"/>
<polygon fill="none" stroke="#63b8ff" points="255.9,-172.08 252.02,-181.95 261.2,-176.65 255.9,-172.08"/>
</a>
</g>
</g>
<!-- Node2 -->
<g id="Node000002" class="node">
<title>Node2</title>
<g id="a_Node000002"><a xlink:href="classKeyElement.html" target="_top" xlink:title=" ">
<polygon fill="white" stroke="transparent" points="261.5,-327 192.5,-327 192.5,-278 261.5,-278 261.5,-327"/>
<text text-anchor="start" x="198" y="-314.5" font-family="Helvetica,sans-Serif" font-size="10.00">KeyElement</text>
<text text-anchor="start" x="225.5" y="-299.5" font-family="Helvetica,sans-Serif" font-size="10.00"> </text>
<text text-anchor="start" x="225.5" y="-284.5" font-family="Helvetica,sans-Serif" font-size="10.00"> </text>
<polygon fill="#666666" stroke="#666666" points="193,-309.5 193,-309.5 262,-309.5 262,-309.5 193,-309.5"/>
<polygon fill="#666666" stroke="#666666" points="193,-294.5 193,-294.5 262,-294.5 262,-294.5 193,-294.5"/>
<polygon fill="none" stroke="#666666" points="192.5,-278 192.5,-327 261.5,-327 261.5,-278 192.5,-278"/>
</a>
</g>
</g>
<!-- Node2&#45;&gt;Node1 -->
<g id="edge1_Node000001_Node000002" class="edge">
<title>Node2&#45;&gt;Node1</title>
<g id="a_edge1_Node000001_Node000002"><a xlink:title=" ">
<path fill="none" stroke="#63b8ff" d="M227,-267.55C227,-259.18 227,-250.28 227,-242.16"/>
<polygon fill="none" stroke="#63b8ff" points="223.5,-267.78 227,-277.78 230.5,-267.78 223.5,-267.78"/>
</a>
</g>
</g>
</g>
</svg>
</svg>

<style type='text/css'>
<![CDATA[
[data-mouse-over-selected='false'] { opacity: 0.7; }
[data-mouse-over-selected='true']  { opacity: 1.0; }
]]>
</style>
<script type="application/ecmascript"><![CDATA[
document.addEventListener('DOMContentLoaded', (event) => {
  highlightEdges();
  highlightAdjacentNodes();
});
]]></script>
</svg>
