<?xml version="1.0" encoding="UTF-8" standalone="no"?>
<!DOCTYPE svg PUBLIC "-//W3C//DTD SVG 1.1//EN"
 "http://www.w3.org/Graphics/SVG/1.1/DTD/svg11.dtd">
<!-- Generated by graphviz version 2.43.0 (0)
 -->
<!-- Title: io.github.fruitcropxl.config.params.ParamCategory.setParameter Pages: 1 -->
<svg width="471pt" height="278pt"
 viewBox="0.00 0.00 471.00 278.00" xmlns="http://www.w3.org/2000/svg" xmlns:xlink="http://www.w3.org/1999/xlink">

<svg id="main" version="1.1" xmlns="http://www.w3.org/2000/svg" xmlns:xlink="http://www.w3.org/1999/xlink" xml:space="preserve" onload="init(evt)">
<style type="text/css"><![CDATA[
.node, .edge {opacity: 0.7;}
.node.selected, .edge.selected {opacity: 1;}
.edge:hover path { stroke: red; }
.edge:hover polygon { stroke: red; fill: red; }
]]></style>
<script type="application/ecmascript" xlink:href="svg.min.js"/>
<svg id="graph" class="graph">
<g id="graph0" class="graph" transform="scale(1 1) rotate(0) translate(4 274)">
<title>io.github.fruitcropxl.config.params.ParamCategory.setParameter</title>
<!-- Node1 -->
<g id="Node000001" class="node">
<title>Node1</title>
<g id="a_Node000001"><a xlink:title="Set parameter with the given key to the provided Parameter.">
<polygon fill="#999999" stroke="#666666" points="463,-150 275,-150 275,-120 463,-120 463,-150"/>
<text text-anchor="start" x="283" y="-138" font-family="Helvetica,sans-Serif" font-size="10.00">io.github.fruitcropxl.config.params.</text>
<text text-anchor="middle" x="369" y="-127" font-family="Helvetica,sans-Serif" font-size="10.00">ParamCategory.setParameter</text>
</a>
</g>
</g>
<!-- Node2 -->
<g id="Node000002" class="node">
<title>Node2</title>
<g id="a_Node000002"><a xlink:href="classio_1_1github_1_1fruitcropxl_1_1config_1_1params_1_1structures_1_1CategoryStore_afb87b945d5dcfe049b62d46c6074d040.html#afb87b945d5dcfe049b62d46c6074d040" target="_top" xlink:title=" ">
<polygon fill="white" stroke="#666666" points="239,-270 0,-270 0,-240 239,-240 239,-270"/>
<text text-anchor="start" x="8" y="-258" font-family="Helvetica,sans-Serif" font-size="10.00">io.github.fruitcropxl.config.params.structures.</text>
<text text-anchor="middle" x="119.5" y="-247" font-family="Helvetica,sans-Serif" font-size="10.00">CategoryStore.set</text>
</a>
</g>
</g>
<!-- Node1&#45;&gt;Node2 -->
<g id="edge1_Node000001_Node000002" class="edge">
<title>Node1&#45;&gt;Node2</title>
<g id="a_edge1_Node000001_Node000002"><a xlink:title=" ">
<path fill="none" stroke="#63b8ff" d="M344.77,-157.35C320.39,-179.51 280,-212.7 239,-231 231.24,-234.46 222.96,-237.43 214.54,-239.98"/>
<polygon fill="#63b8ff" stroke="#63b8ff" points="347.43,-159.66 352.39,-150.3 342.67,-154.52 347.43,-159.66"/>
</a>
</g>
</g>
<!-- Node3 -->
<g id="Node000003" class="node">
<title>Node3</title>
<g id="a_Node000003"><a xlink:href="classio_1_1github_1_1fruitcropxl_1_1config_1_1params_1_1structures_1_1CategoryStore_a854e0a86f310abea76cbea37e5c50b11.html#a854e0a86f310abea76cbea37e5c50b11" target="_top" xlink:title=" ">
<polygon fill="white" stroke="#666666" points="239,-222 0,-222 0,-192 239,-192 239,-222"/>
<text text-anchor="start" x="8" y="-210" font-family="Helvetica,sans-Serif" font-size="10.00">io.github.fruitcropxl.config.params.structures.</text>
<text text-anchor="middle" x="119.5" y="-199" font-family="Helvetica,sans-Serif" font-size="10.00">CategoryStore.set</text>
</a>
</g>
</g>
<!-- Node1&#45;&gt;Node3 -->
<g id="edge2_Node000001_Node000003" class="edge">
<title>Node1&#45;&gt;Node3</title>
<g id="a_edge2_Node000001_Node000003"><a xlink:title=" ">
<path fill="none" stroke="#63b8ff" d="M322.7,-153.84C298.22,-163.51 267.3,-174.92 239,-183 227.49,-186.28 215.24,-189.3 203.14,-191.99"/>
<polygon fill="#63b8ff" stroke="#63b8ff" points="324.1,-157.05 332.08,-150.09 321.5,-150.55 324.1,-157.05"/>
</a>
</g>
</g>
<!-- Node4 -->
<g id="Node000004" class="node">
<title>Node4</title>
<g id="a_Node000004"><a xlink:href="classio_1_1github_1_1fruitcropxl_1_1config_1_1params_1_1structures_1_1CategoryStore_ab2304389072647ed89dc005d2307f0d2.html#ab2304389072647ed89dc005d2307f0d2" target="_top" xlink:title=" ">
<polygon fill="white" stroke="#666666" points="239,-174 0,-174 0,-144 239,-144 239,-174"/>
<text text-anchor="start" x="8" y="-162" font-family="Helvetica,sans-Serif" font-size="10.00">io.github.fruitcropxl.config.params.structures.</text>
<text text-anchor="middle" x="119.5" y="-151" font-family="Helvetica,sans-Serif" font-size="10.00">CategoryStore.set</text>
</a>
</g>
</g>
<!-- Node1&#45;&gt;Node4 -->
<g id="edge3_Node000001_Node000004" class="edge">
<title>Node1&#45;&gt;Node4</title>
<g id="a_edge3_Node000001_Node000004"><a xlink:title=" ">
<path fill="none" stroke="#63b8ff" d="M264.6,-145.03C256.19,-145.84 247.64,-146.67 239.14,-147.5"/>
<polygon fill="#63b8ff" stroke="#63b8ff" points="265.17,-148.49 274.78,-144.04 264.49,-141.52 265.17,-148.49"/>
</a>
</g>
</g>
<!-- Node5 -->
<g id="Node000005" class="node">
<title>Node5</title>
<g id="a_Node000005"><a xlink:href="classio_1_1github_1_1fruitcropxl_1_1config_1_1params_1_1structures_1_1CategoryStore_a5d46ff214778261fd0a44b708ece4ed3.html#a5d46ff214778261fd0a44b708ece4ed3" target="_top" xlink:title=" ">
<polygon fill="white" stroke="#666666" points="239,-126 0,-126 0,-96 239,-96 239,-126"/>
<text text-anchor="start" x="8" y="-114" font-family="Helvetica,sans-Serif" font-size="10.00">io.github.fruitcropxl.config.params.structures.</text>
<text text-anchor="middle" x="119.5" y="-103" font-family="Helvetica,sans-Serif" font-size="10.00">CategoryStore.set</text>
</a>
</g>
</g>
<!-- Node1&#45;&gt;Node5 -->
<g id="edge4_Node000001_Node000005" class="edge">
<title>Node1&#45;&gt;Node5</title>
<g id="a_edge4_Node000001_Node000005"><a xlink:title=" ">
<path fill="none" stroke="#63b8ff" d="M264.6,-124.97C256.19,-124.16 247.64,-123.33 239.14,-122.5"/>
<polygon fill="#63b8ff" stroke="#63b8ff" points="264.49,-128.48 274.78,-125.96 265.17,-121.51 264.49,-128.48"/>
</a>
</g>
</g>
<!-- Node6 -->
<g id="Node000006" class="node">
<title>Node6</title>
<g id="a_Node000006"><a xlink:href="classio_1_1github_1_1fruitcropxl_1_1config_1_1params_1_1structures_1_1CategoryStore_a50a9153ee46f3c8fbed477aec7389707.html#a50a9153ee46f3c8fbed477aec7389707" target="_top" xlink:title=" ">
<polygon fill="white" stroke="#666666" points="239,-78 0,-78 0,-48 239,-48 239,-78"/>
<text text-anchor="start" x="8" y="-66" font-family="Helvetica,sans-Serif" font-size="10.00">io.github.fruitcropxl.config.params.structures.</text>
<text text-anchor="middle" x="119.5" y="-55" font-family="Helvetica,sans-Serif" font-size="10.00">CategoryStore.set</text>
</a>
</g>
</g>
<!-- Node1&#45;&gt;Node6 -->
<g id="edge5_Node000001_Node000006" class="edge">
<title>Node1&#45;&gt;Node6</title>
<g id="a_edge5_Node000001_Node000006"><a xlink:title=" ">
<path fill="none" stroke="#63b8ff" d="M322.7,-116.16C298.22,-106.49 267.3,-95.08 239,-87 227.49,-83.72 215.24,-80.7 203.14,-78.01"/>
<polygon fill="#63b8ff" stroke="#63b8ff" points="321.5,-119.45 332.08,-119.91 324.1,-112.95 321.5,-119.45"/>
</a>
</g>
</g>
<!-- Node7 -->
<g id="Node000007" class="node">
<title>Node7</title>
<g id="a_Node000007"><a xlink:href="classio_1_1github_1_1fruitcropxl_1_1config_1_1params_1_1structures_1_1CategoryStore_ad2c01a6b80b009f853d52f10e5dcc977.html#ad2c01a6b80b009f853d52f10e5dcc977" target="_top" xlink:title=" ">
<polygon fill="white" stroke="#666666" points="239,-30 0,-30 0,0 239,0 239,-30"/>
<text text-anchor="start" x="8" y="-18" font-family="Helvetica,sans-Serif" font-size="10.00">io.github.fruitcropxl.config.params.structures.</text>
<text text-anchor="middle" x="119.5" y="-7" font-family="Helvetica,sans-Serif" font-size="10.00">CategoryStore.set</text>
</a>
</g>
</g>
<!-- Node1&#45;&gt;Node7 -->
<g id="edge6_Node000001_Node000007" class="edge">
<title>Node1&#45;&gt;Node7</title>
<g id="a_edge6_Node000001_Node000007"><a xlink:title=" ">
<path fill="none" stroke="#63b8ff" d="M344.77,-112.65C320.39,-90.49 280,-57.3 239,-39 231.24,-35.54 222.96,-32.57 214.54,-30.02"/>
<polygon fill="#63b8ff" stroke="#63b8ff" points="342.67,-115.48 352.39,-119.7 347.43,-110.34 342.67,-115.48"/>
</a>
</g>
</g>
</g>
</svg>
</svg>

<style type='text/css'>
<![CDATA[
[data-mouse-over-selected='false'] { opacity: 0.7; }
[data-mouse-over-selected='true']  { opacity: 1.0; }
]]>
</style>
<script type="application/ecmascript"><![CDATA[
document.addEventListener('DOMContentLoaded', (event) => {
  highlightEdges();
  highlightAdjacentNodes();
});
]]></script>
</svg>
