<?xml version="1.0" encoding="UTF-8" standalone="no"?>
<!DOCTYPE svg PUBLIC "-//W3C//DTD SVG 1.1//EN"
 "http://www.w3.org/Graphics/SVG/1.1/DTD/svg11.dtd">
<!-- Generated by graphviz version 2.43.0 (0)
 -->
<!-- Title: fspm.util.KeyElement Pages: 1 -->
<svg width="804pt" height="496pt"
 viewBox="0.00 0.00 803.50 496.00" xmlns="http://www.w3.org/2000/svg" xmlns:xlink="http://www.w3.org/1999/xlink">
<g id="graph0" class="graph" transform="scale(1 1) rotate(0) translate(4 492)">
<title>fspm.util.KeyElement</title>
<!-- Node1 -->
<g id="node1" class="node">
<title>Node1</title>
<g id="a_node1"><a xlink:title=" ">
<polygon fill="#bfbfbf" stroke="black" points="264.5,-419.5 264.5,-487.5 386.5,-487.5 386.5,-419.5 264.5,-419.5"/>
<text text-anchor="middle" x="325.5" y="-475.5" font-family="Helvetica,sans-Serif" font-size="10.00">fspm.util.KeyElement</text>
<polyline fill="none" stroke="black" points="264.5,-468.5 386.5,-468.5 "/>
<text text-anchor="start" x="272.5" y="-456.5" font-family="Helvetica,sans-Serif" font-size="10.00">&#45; key</text>
<polyline fill="none" stroke="black" points="264.5,-449.5 386.5,-449.5 "/>
<text text-anchor="start" x="272.5" y="-437.5" font-family="Helvetica,sans-Serif" font-size="10.00">+ KeyElement()</text>
<text text-anchor="start" x="272.5" y="-426.5" font-family="Helvetica,sans-Serif" font-size="10.00">+ getKey()</text>
</a>
</g>
</g>
<!-- Node2 -->
<g id="node2" class="node">
<title>Node2</title>
<g id="a_node2"><a xlink:href="classfspm_1_1config_1_1params_1_1ParamCategory.html" target="_top" xlink:title="A ParamCategory stores Parameters that belong to a common category.">
<polygon fill="none" stroke="black" points="0,-160.5 0,-382.5 147,-382.5 147,-160.5 0,-160.5"/>
<text text-anchor="start" x="8" y="-370.5" font-family="Helvetica,sans-Serif" font-size="10.00">fspm.config.params.Param</text>
<text text-anchor="middle" x="73.5" y="-359.5" font-family="Helvetica,sans-Serif" font-size="10.00">Category</text>
<polyline fill="none" stroke="black" points="0,-352.5 147,-352.5 "/>
<text text-anchor="start" x="8" y="-340.5" font-family="Helvetica,sans-Serif" font-size="10.00">&#45; params</text>
<polyline fill="none" stroke="black" points="0,-333.5 147,-333.5 "/>
<text text-anchor="start" x="8" y="-321.5" font-family="Helvetica,sans-Serif" font-size="10.00">+ ParamCategory()</text>
<text text-anchor="start" x="8" y="-310.5" font-family="Helvetica,sans-Serif" font-size="10.00">+ addParameter()</text>
<text text-anchor="start" x="8" y="-299.5" font-family="Helvetica,sans-Serif" font-size="10.00">+ setParameter()</text>
<text text-anchor="start" x="8" y="-288.5" font-family="Helvetica,sans-Serif" font-size="10.00">+ getBoolean()</text>
<text text-anchor="start" x="8" y="-277.5" font-family="Helvetica,sans-Serif" font-size="10.00">+ getString()</text>
<text text-anchor="start" x="8" y="-266.5" font-family="Helvetica,sans-Serif" font-size="10.00">+ getInteger()</text>
<text text-anchor="start" x="8" y="-255.5" font-family="Helvetica,sans-Serif" font-size="10.00">+ getDouble()</text>
<text text-anchor="start" x="8" y="-244.5" font-family="Helvetica,sans-Serif" font-size="10.00">+ getBooleanArray()</text>
<text text-anchor="start" x="8" y="-233.5" font-family="Helvetica,sans-Serif" font-size="10.00">+ getStringArray()</text>
<text text-anchor="start" x="8" y="-222.5" font-family="Helvetica,sans-Serif" font-size="10.00">+ getIntegerArray()</text>
<text text-anchor="start" x="8" y="-211.5" font-family="Helvetica,sans-Serif" font-size="10.00">+ getDoubleArray()</text>
<text text-anchor="start" x="8" y="-200.5" font-family="Helvetica,sans-Serif" font-size="10.00">+ isNull()</text>
<text text-anchor="start" x="8" y="-189.5" font-family="Helvetica,sans-Serif" font-size="10.00">+ getParameter()</text>
<text text-anchor="start" x="8" y="-178.5" font-family="Helvetica,sans-Serif" font-size="10.00">+ toString()</text>
<text text-anchor="start" x="8" y="-167.5" font-family="Helvetica,sans-Serif" font-size="10.00">~ getArray()</text>
</a>
</g>
</g>
<!-- Node1&#45;&gt;Node2 -->
<g id="edge1" class="edge">
<title>Node1&#45;&gt;Node2</title>
<path fill="none" stroke="midnightblue" d="M254.51,-432.82C222.45,-421.64 185.38,-405.34 156.5,-383 153.27,-380.5 150.11,-377.85 147.01,-375.08"/>
<polygon fill="none" stroke="midnightblue" points="253.69,-436.23 264.29,-436.12 255.93,-429.6 253.69,-436.23"/>
</g>
<!-- Node3 -->
<g id="node3" class="node">
<title>Node3</title>
<g id="a_node3"><a xlink:href="classfspm_1_1config_1_1params_1_1ParamTable.html" target="_top" xlink:title=" ">
<polygon fill="none" stroke="black" points="165,-182.5 165,-360.5 312,-360.5 312,-182.5 165,-182.5"/>
<text text-anchor="start" x="173" y="-348.5" font-family="Helvetica,sans-Serif" font-size="10.00">fspm.config.params.Param</text>
<text text-anchor="middle" x="238.5" y="-337.5" font-family="Helvetica,sans-Serif" font-size="10.00">Table</text>
<polyline fill="none" stroke="black" points="165,-330.5 312,-330.5 "/>
<text text-anchor="start" x="173" y="-318.5" font-family="Helvetica,sans-Serif" font-size="10.00">&#45; rows</text>
<polyline fill="none" stroke="black" points="165,-311.5 312,-311.5 "/>
<text text-anchor="start" x="173" y="-299.5" font-family="Helvetica,sans-Serif" font-size="10.00">+ ParamTable()</text>
<text text-anchor="start" x="173" y="-288.5" font-family="Helvetica,sans-Serif" font-size="10.00">+ add()</text>
<text text-anchor="start" x="173" y="-277.5" font-family="Helvetica,sans-Serif" font-size="10.00">+ getBoolean()</text>
<text text-anchor="start" x="173" y="-266.5" font-family="Helvetica,sans-Serif" font-size="10.00">+ getString()</text>
<text text-anchor="start" x="173" y="-255.5" font-family="Helvetica,sans-Serif" font-size="10.00">+ getInteger()</text>
<text text-anchor="start" x="173" y="-244.5" font-family="Helvetica,sans-Serif" font-size="10.00">+ getDouble()</text>
<text text-anchor="start" x="173" y="-233.5" font-family="Helvetica,sans-Serif" font-size="10.00">+ isNull()</text>
<text text-anchor="start" x="173" y="-222.5" font-family="Helvetica,sans-Serif" font-size="10.00">+ toString()</text>
<text text-anchor="start" x="173" y="-211.5" font-family="Helvetica,sans-Serif" font-size="10.00">~ getArray()</text>
<text text-anchor="start" x="173" y="-200.5" font-family="Helvetica,sans-Serif" font-size="10.00">&#45; set()</text>
<text text-anchor="start" x="173" y="-189.5" font-family="Helvetica,sans-Serif" font-size="10.00">&#45; getParameter()</text>
</a>
</g>
</g>
<!-- Node1&#45;&gt;Node3 -->
<g id="edge2" class="edge">
<title>Node1&#45;&gt;Node3</title>
<path fill="none" stroke="midnightblue" d="M305.01,-410.11C297.84,-395.27 289.5,-378.01 281.2,-360.84"/>
<polygon fill="none" stroke="midnightblue" points="302.04,-412 309.54,-419.49 308.34,-408.96 302.04,-412"/>
</g>
<!-- Node4 -->
<g id="node4" class="node">
<title>Node4</title>
<g id="a_node4"><a xlink:href="classfspm_1_1config_1_1params_1_1Parameter.html" target="_top" xlink:title="Parameter represents variables that can be stored using Java data types or other user&#45;defined types.">
<polygon fill="none" stroke="black" points="330,-177 330,-366 497,-366 497,-177 330,-177"/>
<text text-anchor="middle" x="413.5" y="-354" font-family="Helvetica,sans-Serif" font-size="10.00">fspm.config.params.Parameter</text>
<polyline fill="none" stroke="black" points="330,-347 497,-347 "/>
<text text-anchor="start" x="338" y="-335" font-family="Helvetica,sans-Serif" font-size="10.00">&#45; node</text>
<polyline fill="none" stroke="black" points="330,-328 497,-328 "/>
<text text-anchor="start" x="338" y="-316" font-family="Helvetica,sans-Serif" font-size="10.00">+ Parameter()</text>
<text text-anchor="start" x="338" y="-305" font-family="Helvetica,sans-Serif" font-size="10.00">+ getType()</text>
<text text-anchor="start" x="338" y="-294" font-family="Helvetica,sans-Serif" font-size="10.00">+ asBoolean()</text>
<text text-anchor="start" x="338" y="-283" font-family="Helvetica,sans-Serif" font-size="10.00">+ asString()</text>
<text text-anchor="start" x="338" y="-272" font-family="Helvetica,sans-Serif" font-size="10.00">+ asInteger()</text>
<text text-anchor="start" x="338" y="-261" font-family="Helvetica,sans-Serif" font-size="10.00">+ asDouble()</text>
<text text-anchor="start" x="338" y="-250" font-family="Helvetica,sans-Serif" font-size="10.00">+ asBooleanArray()</text>
<text text-anchor="start" x="338" y="-239" font-family="Helvetica,sans-Serif" font-size="10.00">+ asStringArray()</text>
<text text-anchor="start" x="338" y="-228" font-family="Helvetica,sans-Serif" font-size="10.00">+ asIntegerArray()</text>
<text text-anchor="start" x="338" y="-217" font-family="Helvetica,sans-Serif" font-size="10.00">+ asDoubleArray()</text>
<text text-anchor="start" x="338" y="-206" font-family="Helvetica,sans-Serif" font-size="10.00">+ isNull()</text>
<text text-anchor="start" x="338" y="-195" font-family="Helvetica,sans-Serif" font-size="10.00">+ toString()</text>
<text text-anchor="start" x="338" y="-184" font-family="Helvetica,sans-Serif" font-size="10.00">~ asArray()</text>
</a>
</g>
</g>
<!-- Node1&#45;&gt;Node4 -->
<g id="edge3" class="edge">
<title>Node1&#45;&gt;Node4</title>
<path fill="none" stroke="midnightblue" d="M346.2,-410.17C352.7,-396.86 360.16,-381.6 367.69,-366.2"/>
<polygon fill="none" stroke="midnightblue" points="342.89,-408.96 341.64,-419.49 349.18,-412.04 342.89,-408.96"/>
</g>
<!-- Node5 -->
<g id="node5" class="node">
<title>Node5</title>
<g id="a_node5"><a xlink:href="classfspm_1_1config_1_1params_1_1group_1_1ParamGroup.html" target="_top" xlink:title="Parameter configuration class for storing parameter categories.">
<polygon fill="none" stroke="black" points="515,-237.5 515,-305.5 662,-305.5 662,-237.5 515,-237.5"/>
<text text-anchor="start" x="523" y="-293.5" font-family="Helvetica,sans-Serif" font-size="10.00">fspm.config.params.group.</text>
<text text-anchor="middle" x="588.5" y="-282.5" font-family="Helvetica,sans-Serif" font-size="10.00">ParamGroup</text>
<polyline fill="none" stroke="black" points="515,-275.5 662,-275.5 "/>
<text text-anchor="middle" x="588.5" y="-263.5" font-family="Helvetica,sans-Serif" font-size="10.00"> </text>
<polyline fill="none" stroke="black" points="515,-256.5 662,-256.5 "/>
<text text-anchor="start" x="523" y="-244.5" font-family="Helvetica,sans-Serif" font-size="10.00"># ParamGroup()</text>
</a>
</g>
</g>
<!-- Node1&#45;&gt;Node5 -->
<g id="edge4" class="edge">
<title>Node1&#45;&gt;Node5</title>
<path fill="none" stroke="midnightblue" d="M396.66,-435.36C432.09,-424.41 474.16,-407.56 506.5,-383 533.8,-362.27 556.26,-330.06 570.73,-305.75"/>
<polygon fill="none" stroke="midnightblue" points="395.43,-432.07 386.85,-438.29 397.44,-438.78 395.43,-432.07"/>
</g>
<!-- Node6 -->
<g id="node6" class="node">
<title>Node6</title>
<g id="a_node6"><a xlink:href="classfspm_1_1config_1_1params_1_1group_1_1DocumentCategoryNameGroup.html" target="_top" xlink:title=" ">
<polygon fill="none" stroke="black" points="387.5,-17 387.5,-107 575.5,-107 575.5,-17 387.5,-17"/>
<text text-anchor="start" x="395.5" y="-95" font-family="Helvetica,sans-Serif" font-size="10.00">fspm.config.params.group.</text>
<text text-anchor="middle" x="481.5" y="-84" font-family="Helvetica,sans-Serif" font-size="10.00">DocumentCategoryNameGroup</text>
<polyline fill="none" stroke="black" points="387.5,-77 575.5,-77 "/>
<text text-anchor="start" x="395.5" y="-65" font-family="Helvetica,sans-Serif" font-size="10.00">&#45; categoryHierarchy</text>
<polyline fill="none" stroke="black" points="387.5,-58 575.5,-58 "/>
<text text-anchor="start" x="395.5" y="-46" font-family="Helvetica,sans-Serif" font-size="10.00">+ DocumentCategoryNameGroup()</text>
<text text-anchor="start" x="395.5" y="-35" font-family="Helvetica,sans-Serif" font-size="10.00">+ getCategoryHierarchy()</text>
<text text-anchor="start" x="395.5" y="-24" font-family="Helvetica,sans-Serif" font-size="10.00">+ toString()</text>
</a>
</g>
</g>
<!-- Node5&#45;&gt;Node6 -->
<g id="edge5" class="edge">
<title>Node5&#45;&gt;Node6</title>
<path fill="none" stroke="midnightblue" d="M566.63,-228.08C548.45,-192.83 522.66,-142.83 504.25,-107.11"/>
<polygon fill="none" stroke="midnightblue" points="563.61,-229.88 571.31,-237.16 569.84,-226.67 563.61,-229.88"/>
</g>
<!-- Node7 -->
<g id="node7" class="node">
<title>Node7</title>
<g id="a_node7"><a xlink:href="classfspm_1_1config_1_1params_1_1group_1_1DocumentHybridCategoryNameGroup.html" target="_top" xlink:title=" ">
<polygon fill="none" stroke="black" points="593.5,-0.5 593.5,-123.5 795.5,-123.5 795.5,-0.5 593.5,-0.5"/>
<text text-anchor="start" x="601.5" y="-111.5" font-family="Helvetica,sans-Serif" font-size="10.00">fspm.config.params.group.</text>
<text text-anchor="middle" x="694.5" y="-100.5" font-family="Helvetica,sans-Serif" font-size="10.00">DocumentHybridCategoryNameGroup</text>
<polyline fill="none" stroke="black" points="593.5,-93.5 795.5,-93.5 "/>
<text text-anchor="start" x="601.5" y="-81.5" font-family="Helvetica,sans-Serif" font-size="10.00">&#45; categoryHierarchy</text>
<text text-anchor="start" x="601.5" y="-70.5" font-family="Helvetica,sans-Serif" font-size="10.00">&#45; tableHierarchy</text>
<polyline fill="none" stroke="black" points="593.5,-63.5 795.5,-63.5 "/>
<text text-anchor="start" x="601.5" y="-51.5" font-family="Helvetica,sans-Serif" font-size="10.00">+ DocumentHybridCategoryName</text>
<text text-anchor="start" x="601.5" y="-40.5" font-family="Helvetica,sans-Serif" font-size="10.00">Group()</text>
<text text-anchor="start" x="601.5" y="-29.5" font-family="Helvetica,sans-Serif" font-size="10.00">+ getCategoryHierarchy()</text>
<text text-anchor="start" x="601.5" y="-18.5" font-family="Helvetica,sans-Serif" font-size="10.00">+ getTableHierarchy()</text>
<text text-anchor="start" x="601.5" y="-7.5" font-family="Helvetica,sans-Serif" font-size="10.00">+ toString()</text>
</a>
</g>
</g>
<!-- Node5&#45;&gt;Node7 -->
<g id="edge6" class="edge">
<title>Node5&#45;&gt;Node7</title>
<path fill="none" stroke="midnightblue" d="M610.11,-228.21C625.45,-198.17 646.28,-157.4 663.4,-123.88"/>
<polygon fill="none" stroke="midnightblue" points="606.96,-226.66 605.53,-237.16 613.2,-229.85 606.96,-226.66"/>
</g>
</g>
</svg>
