<?xml version="1.0" encoding="UTF-8" standalone="no"?>
<!DOCTYPE svg PUBLIC "-//W3C//DTD SVG 1.1//EN"
 "http://www.w3.org/Graphics/SVG/1.1/DTD/svg11.dtd">
<!-- Generated by graphviz version 2.43.0 (0)
 -->
<!-- Title: fspm.config.params.structures.CategoryStore Pages: 1 -->
<svg width="665pt" height="802pt"
 viewBox="0.00 0.00 665.00 802.00" xmlns="http://www.w3.org/2000/svg" xmlns:xlink="http://www.w3.org/1999/xlink">
<g id="graph0" class="graph" transform="scale(1 1) rotate(0) translate(4 798)">
<title>fspm.config.params.structures.CategoryStore</title>
<!-- Node1 -->
<g id="node1" class="node">
<title>Node1</title>
<g id="a_node1"><a xlink:title=" ">
<polygon fill="#bfbfbf" stroke="black" points="252,-0.5 252,-222.5 420,-222.5 420,-0.5 252,-0.5"/>
<text text-anchor="start" x="260" y="-210.5" font-family="Helvetica,sans-Serif" font-size="10.00">fspm.config.params.structures.</text>
<text text-anchor="middle" x="336" y="-199.5" font-family="Helvetica,sans-Serif" font-size="10.00">CategoryStore</text>
<polyline fill="none" stroke="black" points="252,-192.5 420,-192.5 "/>
<text text-anchor="middle" x="336" y="-180.5" font-family="Helvetica,sans-Serif" font-size="10.00"> </text>
<polyline fill="none" stroke="black" points="252,-173.5 420,-173.5 "/>
<text text-anchor="start" x="260" y="-161.5" font-family="Helvetica,sans-Serif" font-size="10.00">+ CategoryStore()</text>
<text text-anchor="start" x="260" y="-150.5" font-family="Helvetica,sans-Serif" font-size="10.00">+ addCategory()</text>
<text text-anchor="start" x="260" y="-139.5" font-family="Helvetica,sans-Serif" font-size="10.00">+ getCategory()</text>
<text text-anchor="start" x="260" y="-128.5" font-family="Helvetica,sans-Serif" font-size="10.00">+ getCategoryWithParam()</text>
<text text-anchor="start" x="260" y="-117.5" font-family="Helvetica,sans-Serif" font-size="10.00">+ setCategoryContext()</text>
<text text-anchor="start" x="260" y="-106.5" font-family="Helvetica,sans-Serif" font-size="10.00">+ getBoolean()</text>
<text text-anchor="start" x="260" y="-95.5" font-family="Helvetica,sans-Serif" font-size="10.00">+ getString()</text>
<text text-anchor="start" x="260" y="-84.5" font-family="Helvetica,sans-Serif" font-size="10.00">+ getInteger()</text>
<text text-anchor="start" x="260" y="-73.5" font-family="Helvetica,sans-Serif" font-size="10.00">+ getDouble()</text>
<text text-anchor="start" x="260" y="-62.5" font-family="Helvetica,sans-Serif" font-size="10.00">+ getBooleanArray()</text>
<text text-anchor="start" x="260" y="-51.5" font-family="Helvetica,sans-Serif" font-size="10.00">and 18 more...</text>
<text text-anchor="start" x="260" y="-40.5" font-family="Helvetica,sans-Serif" font-size="10.00">+ parse()</text>
<text text-anchor="start" x="260" y="-29.5" font-family="Helvetica,sans-Serif" font-size="10.00">~ getArray()</text>
<text text-anchor="start" x="260" y="-18.5" font-family="Helvetica,sans-Serif" font-size="10.00">~ getArray()</text>
<text text-anchor="start" x="260" y="-7.5" font-family="Helvetica,sans-Serif" font-size="10.00">&#45; validateFlattenedAccess()</text>
</a>
</g>
</g>
<!-- Node2 -->
<g id="node2" class="node">
<title>Node2</title>
<g id="a_node2"><a xlink:href="classfspm_1_1config_1_1params_1_1structures_1_1ParamStructure.html" target="_top" xlink:title="Represents a structure found in ParamGroups that store parameters.">
<polygon fill="none" stroke="black" points="0,-511.5 0,-590.5 168,-590.5 168,-511.5 0,-511.5"/>
<text text-anchor="start" x="8" y="-578.5" font-family="Helvetica,sans-Serif" font-size="10.00">fspm.config.params.structures.</text>
<text text-anchor="middle" x="84" y="-567.5" font-family="Helvetica,sans-Serif" font-size="10.00">ParamStructure</text>
<polyline fill="none" stroke="black" points="0,-560.5 168,-560.5 "/>
<text text-anchor="middle" x="84" y="-548.5" font-family="Helvetica,sans-Serif" font-size="10.00"> </text>
<polyline fill="none" stroke="black" points="0,-541.5 168,-541.5 "/>
<text text-anchor="start" x="8" y="-529.5" font-family="Helvetica,sans-Serif" font-size="10.00">+ ParamStructure()</text>
<text text-anchor="start" x="8" y="-518.5" font-family="Helvetica,sans-Serif" font-size="10.00">+ getGroupKey()</text>
</a>
</g>
</g>
<!-- Node2&#45;&gt;Node1 -->
<g id="edge1" class="edge">
<title>Node2&#45;&gt;Node1</title>
<path fill="none" stroke="midnightblue" d="M84.62,-501.14C87.43,-442.26 99,-342.25 143,-270 169.66,-226.23 212.99,-189.23 251.85,-162.12"/>
<polygon fill="none" stroke="midnightblue" points="81.11,-501.15 84.2,-511.29 88.11,-501.44 81.11,-501.15"/>
</g>
<!-- Node3 -->
<g id="node3" class="node">
<title>Node3</title>
<g id="a_node3"><a xlink:title=" ">
<polygon fill="none" stroke="#bfbfbf" points="47.5,-736.5 47.5,-793.5 92.5,-793.5 92.5,-736.5 47.5,-736.5"/>
<text text-anchor="middle" x="70" y="-781.5" font-family="Helvetica,sans-Serif" font-size="10.00">String</text>
<polyline fill="none" stroke="#bfbfbf" points="47.5,-774.5 92.5,-774.5 "/>
<text text-anchor="middle" x="70" y="-762.5" font-family="Helvetica,sans-Serif" font-size="10.00"> </text>
<polyline fill="none" stroke="#bfbfbf" points="47.5,-755.5 92.5,-755.5 "/>
<text text-anchor="middle" x="70" y="-743.5" font-family="Helvetica,sans-Serif" font-size="10.00"> </text>
</a>
</g>
</g>
<!-- Node3&#45;&gt;Node2 -->
<g id="edge2" class="edge">
<title>Node3&#45;&gt;Node2</title>
<path fill="none" stroke="#404040" d="M47.22,-740.99C41.84,-734.14 36.84,-726.24 34,-718 30.81,-708.76 33.11,-705.74 34,-696 37.57,-656.85 36.16,-645.8 50,-609 50.94,-606.5 51.99,-603.99 53.12,-601.49"/>
<polygon fill="none" stroke="#404040" points="53.17,-601.39 52.25,-594.23 58.5,-590.64 59.42,-597.79 53.17,-601.39"/>
<text text-anchor="middle" x="60.5" y="-704.5" font-family="Helvetica,sans-Serif" font-size="10.00"> &#45;groupKey</text>
</g>
<!-- Node6 -->
<g id="node6" class="node">
<title>Node6</title>
<g id="a_node6"><a xlink:href="classfspm_1_1util_1_1KeyElement.html" target="_top" xlink:title=" ">
<polygon fill="none" stroke="black" points="59,-609.5 59,-677.5 181,-677.5 181,-609.5 59,-609.5"/>
<text text-anchor="middle" x="120" y="-665.5" font-family="Helvetica,sans-Serif" font-size="10.00">fspm.util.KeyElement</text>
<polyline fill="none" stroke="black" points="59,-658.5 181,-658.5 "/>
<text text-anchor="middle" x="120" y="-646.5" font-family="Helvetica,sans-Serif" font-size="10.00"> </text>
<polyline fill="none" stroke="black" points="59,-639.5 181,-639.5 "/>
<text text-anchor="start" x="67" y="-627.5" font-family="Helvetica,sans-Serif" font-size="10.00">+ KeyElement()</text>
<text text-anchor="start" x="67" y="-616.5" font-family="Helvetica,sans-Serif" font-size="10.00">+ getKey()</text>
</a>
</g>
</g>
<!-- Node3&#45;&gt;Node6 -->
<g id="edge6" class="edge">
<title>Node3&#45;&gt;Node6</title>
<path fill="none" stroke="#404040" d="M81.6,-736.28C87.49,-722.19 94.8,-704.72 101.46,-688.82"/>
<polygon fill="none" stroke="#404040" points="101.52,-688.66 100.15,-681.58 106.16,-677.59 107.53,-684.67 101.52,-688.66"/>
<text text-anchor="middle" x="110.5" y="-704.5" font-family="Helvetica,sans-Serif" font-size="10.00"> &#45;key</text>
</g>
<!-- Node4 -->
<g id="node4" class="node">
<title>Node4</title>
<g id="a_node4"><a xlink:title=" ">
<polygon fill="none" stroke="#bfbfbf" points="412.5,-353 412.5,-410 511.5,-410 511.5,-353 412.5,-353"/>
<text text-anchor="middle" x="462" y="-398" font-family="Helvetica,sans-Serif" font-size="10.00">static final String</text>
<polyline fill="none" stroke="#bfbfbf" points="412.5,-391 511.5,-391 "/>
<text text-anchor="middle" x="462" y="-379" font-family="Helvetica,sans-Serif" font-size="10.00"> </text>
<polyline fill="none" stroke="#bfbfbf" points="412.5,-372 511.5,-372 "/>
<text text-anchor="middle" x="462" y="-360" font-family="Helvetica,sans-Serif" font-size="10.00"> </text>
</a>
</g>
</g>
<!-- Node4&#45;&gt;Node1 -->
<g id="edge3" class="edge">
<title>Node4&#45;&gt;Node1</title>
<path fill="none" stroke="#404040" d="M448.99,-352.83C435.6,-324.35 413.8,-277.99 392.91,-233.55"/>
<polygon fill="none" stroke="#404040" points="392.87,-233.46 386.7,-229.74 387.77,-222.6 393.94,-226.33 392.87,-233.46"/>
<text text-anchor="middle" x="458.5" y="-244" font-family="Helvetica,sans-Serif" font-size="10.00"> +CATEGORIES_HEADER</text>
</g>
<!-- Node5 -->
<g id="node5" class="node">
<title>Node5</title>
<g id="a_node5"><a xlink:href="classfspm_1_1config_1_1params_1_1ParamCategory.html" target="_top" xlink:title="A ParamCategory stores Parameters that belong to a common category.">
<polygon fill="none" stroke="black" points="152.5,-270.5 152.5,-492.5 299.5,-492.5 299.5,-270.5 152.5,-270.5"/>
<text text-anchor="start" x="160.5" y="-480.5" font-family="Helvetica,sans-Serif" font-size="10.00">fspm.config.params.Param</text>
<text text-anchor="middle" x="226" y="-469.5" font-family="Helvetica,sans-Serif" font-size="10.00">Category</text>
<polyline fill="none" stroke="black" points="152.5,-462.5 299.5,-462.5 "/>
<text text-anchor="middle" x="226" y="-450.5" font-family="Helvetica,sans-Serif" font-size="10.00"> </text>
<polyline fill="none" stroke="black" points="152.5,-443.5 299.5,-443.5 "/>
<text text-anchor="start" x="160.5" y="-431.5" font-family="Helvetica,sans-Serif" font-size="10.00">+ ParamCategory()</text>
<text text-anchor="start" x="160.5" y="-420.5" font-family="Helvetica,sans-Serif" font-size="10.00">+ addParameter()</text>
<text text-anchor="start" x="160.5" y="-409.5" font-family="Helvetica,sans-Serif" font-size="10.00">+ setParameter()</text>
<text text-anchor="start" x="160.5" y="-398.5" font-family="Helvetica,sans-Serif" font-size="10.00">+ getBoolean()</text>
<text text-anchor="start" x="160.5" y="-387.5" font-family="Helvetica,sans-Serif" font-size="10.00">+ getString()</text>
<text text-anchor="start" x="160.5" y="-376.5" font-family="Helvetica,sans-Serif" font-size="10.00">+ getInteger()</text>
<text text-anchor="start" x="160.5" y="-365.5" font-family="Helvetica,sans-Serif" font-size="10.00">+ getDouble()</text>
<text text-anchor="start" x="160.5" y="-354.5" font-family="Helvetica,sans-Serif" font-size="10.00">+ getBooleanArray()</text>
<text text-anchor="start" x="160.5" y="-343.5" font-family="Helvetica,sans-Serif" font-size="10.00">+ getStringArray()</text>
<text text-anchor="start" x="160.5" y="-332.5" font-family="Helvetica,sans-Serif" font-size="10.00">+ getIntegerArray()</text>
<text text-anchor="start" x="160.5" y="-321.5" font-family="Helvetica,sans-Serif" font-size="10.00">+ getDoubleArray()</text>
<text text-anchor="start" x="160.5" y="-310.5" font-family="Helvetica,sans-Serif" font-size="10.00">+ isNull()</text>
<text text-anchor="start" x="160.5" y="-299.5" font-family="Helvetica,sans-Serif" font-size="10.00">+ getParameter()</text>
<text text-anchor="start" x="160.5" y="-288.5" font-family="Helvetica,sans-Serif" font-size="10.00">+ toString()</text>
<text text-anchor="start" x="160.5" y="-277.5" font-family="Helvetica,sans-Serif" font-size="10.00">~ getArray()</text>
</a>
</g>
</g>
<!-- Node5&#45;&gt;Node1 -->
<g id="edge4" class="edge">
<title>Node5&#45;&gt;Node1</title>
<path fill="none" stroke="#404040" d="M225.96,-270.25C227.85,-260.19 230.46,-250.29 234,-241 237.21,-232.58 241.18,-224.28 245.68,-216.19"/>
<polygon fill="none" stroke="#404040" points="245.78,-216.03 245.39,-208.83 251.88,-205.7 252.27,-212.9 245.78,-216.03"/>
<text text-anchor="middle" x="278" y="-244" font-family="Helvetica,sans-Serif" font-size="10.00"> &#45;categoryContext</text>
</g>
<!-- Node6&#45;&gt;Node5 -->
<g id="edge5" class="edge">
<title>Node6&#45;&gt;Node5</title>
<path fill="none" stroke="midnightblue" d="M169.55,-601.67C172.3,-598.25 174.83,-594.68 177,-591 194.49,-561.38 205.74,-525.95 212.97,-492.77"/>
<polygon fill="none" stroke="midnightblue" points="166.74,-599.57 162.77,-609.39 172,-604.19 166.74,-599.57"/>
</g>
<!-- Node7 -->
<g id="node7" class="node">
<title>Node7</title>
<g id="a_node7"><a xlink:title=" ">
<polygon fill="none" stroke="#bfbfbf" points="199.5,-609.5 199.5,-677.5 382.5,-677.5 382.5,-609.5 199.5,-609.5"/>
<text text-anchor="start" x="207.5" y="-665.5" font-family="Helvetica,sans-Serif" font-size="10.00">Map&lt; String, fspm.config.params.</text>
<text text-anchor="middle" x="291" y="-654.5" font-family="Helvetica,sans-Serif" font-size="10.00">Parameter &gt;</text>
<polyline fill="none" stroke="#bfbfbf" points="199.5,-647.5 382.5,-647.5 "/>
<text text-anchor="middle" x="291" y="-635.5" font-family="Helvetica,sans-Serif" font-size="10.00"> </text>
<polyline fill="none" stroke="#bfbfbf" points="199.5,-628.5 382.5,-628.5 "/>
<text text-anchor="middle" x="291" y="-616.5" font-family="Helvetica,sans-Serif" font-size="10.00"> </text>
</a>
</g>
</g>
<!-- Node7&#45;&gt;Node5 -->
<g id="edge7" class="edge">
<title>Node7&#45;&gt;Node5</title>
<path fill="none" stroke="#404040" d="M269.34,-609.28C266.16,-603.36 263.22,-597.13 261,-591 251.13,-563.7 244.02,-533.36 238.9,-504.47"/>
<polygon fill="none" stroke="#404040" points="238.9,-504.45 233.95,-499.21 236.9,-492.62 241.84,-497.87 238.9,-504.45"/>
<text text-anchor="middle" x="283" y="-548.5" font-family="Helvetica,sans-Serif" font-size="10.00"> &#45;params</text>
</g>
<!-- Node8 -->
<g id="node8" class="node">
<title>Node8</title>
<g id="a_node8"><a xlink:title=" ">
<polygon fill="none" stroke="#bfbfbf" points="332,-736.5 332,-793.5 370,-793.5 370,-736.5 332,-736.5"/>
<text text-anchor="middle" x="351" y="-781.5" font-family="Helvetica,sans-Serif" font-size="10.00">Map</text>
<polyline fill="none" stroke="#bfbfbf" points="332,-774.5 370,-774.5 "/>
<text text-anchor="middle" x="351" y="-762.5" font-family="Helvetica,sans-Serif" font-size="10.00"> </text>
<polyline fill="none" stroke="#bfbfbf" points="332,-755.5 370,-755.5 "/>
<text text-anchor="middle" x="351" y="-743.5" font-family="Helvetica,sans-Serif" font-size="10.00"> </text>
</a>
</g>
</g>
<!-- Node8&#45;&gt;Node7 -->
<g id="edge8" class="edge">
<title>Node8&#45;&gt;Node7</title>
<path fill="none" stroke="orange" d="M322.4,-751.93C308.42,-744.39 292.93,-733.19 285,-718 278.6,-705.74 278.67,-690.75 280.89,-677.5"/>
<polygon fill="orange" stroke="orange" points="321.21,-755.25 331.72,-756.57 324.33,-748.98 321.21,-755.25"/>
<text text-anchor="start" x="285" y="-710" font-family="Helvetica,sans-Serif" font-size="10.00"> &lt; String, fspm::config</text>
<text text-anchor="middle" x="340.5" y="-699" font-family="Helvetica,sans-Serif" font-size="10.00">::params::Parameter &gt;</text>
</g>
<!-- Node9 -->
<g id="node9" class="node">
<title>Node9</title>
<g id="a_node9"><a xlink:title=" ">
<polygon fill="none" stroke="#bfbfbf" points="313.5,-517 313.5,-585 496.5,-585 496.5,-517 313.5,-517"/>
<text text-anchor="start" x="321.5" y="-573" font-family="Helvetica,sans-Serif" font-size="10.00">Map&lt; String, fspm.config.params.</text>
<text text-anchor="middle" x="405" y="-562" font-family="Helvetica,sans-Serif" font-size="10.00">ParamCategory &gt;</text>
<polyline fill="none" stroke="#bfbfbf" points="313.5,-555 496.5,-555 "/>
<text text-anchor="middle" x="405" y="-543" font-family="Helvetica,sans-Serif" font-size="10.00"> </text>
<polyline fill="none" stroke="#bfbfbf" points="313.5,-536 496.5,-536 "/>
<text text-anchor="middle" x="405" y="-524" font-family="Helvetica,sans-Serif" font-size="10.00"> </text>
</a>
</g>
</g>
<!-- Node8&#45;&gt;Node9 -->
<g id="edge10" class="edge">
<title>Node8&#45;&gt;Node9</title>
<path fill="none" stroke="orange" d="M377.87,-742.92C385.03,-735.82 391.9,-727.31 396,-718 414.88,-675.07 413.42,-619.75 409.83,-585.07"/>
<polygon fill="orange" stroke="orange" points="375.11,-740.7 370.11,-750.04 379.84,-745.86 375.11,-740.7"/>
<text text-anchor="start" x="403" y="-710" font-family="Helvetica,sans-Serif" font-size="10.00"> &lt; String, fspm::config</text>
<text text-anchor="middle" x="471" y="-699" font-family="Helvetica,sans-Serif" font-size="10.00">::params::ParamCategory &gt;</text>
</g>
<!-- Node9&#45;&gt;Node1 -->
<g id="edge9" class="edge">
<title>Node9&#45;&gt;Node1</title>
<path fill="none" stroke="#404040" d="M362.29,-516.95C355.72,-509.8 349.84,-501.73 346,-493 326.34,-448.31 326.04,-328.43 329.31,-235.05"/>
<polygon fill="none" stroke="#404040" points="329.31,-234.93 325.54,-228.79 329.76,-222.94 333.53,-229.08 329.31,-234.93"/>
<text text-anchor="middle" x="375" y="-379" font-family="Helvetica,sans-Serif" font-size="10.00"> &#45;categories</text>
</g>
<!-- Node10 -->
<g id="node10" class="node">
<title>Node10</title>
<g id="a_node10"><a xlink:title=" ">
<polygon fill="none" stroke="#bfbfbf" points="553,-353 553,-410 609,-410 609,-353 553,-353"/>
<text text-anchor="middle" x="581" y="-398" font-family="Helvetica,sans-Serif" font-size="10.00">boolean</text>
<polyline fill="none" stroke="#bfbfbf" points="553,-391 609,-391 "/>
<text text-anchor="middle" x="581" y="-379" font-family="Helvetica,sans-Serif" font-size="10.00"> </text>
<polyline fill="none" stroke="#bfbfbf" points="553,-372 609,-372 "/>
<text text-anchor="middle" x="581" y="-360" font-family="Helvetica,sans-Serif" font-size="10.00"> </text>
</a>
</g>
</g>
<!-- Node10&#45;&gt;Node1 -->
<g id="edge11" class="edge">
<title>Node10&#45;&gt;Node1</title>
<path fill="none" stroke="#404040" d="M574.32,-352.91C565.98,-322.87 549.39,-274.65 522,-241 496.96,-210.24 462.7,-183.74 430.41,-162.93"/>
<polygon fill="none" stroke="#404040" points="430.16,-162.77 422.95,-162.96 420.01,-156.37 427.22,-156.19 430.16,-162.77"/>
<text text-anchor="middle" x="593" y="-244" font-family="Helvetica,sans-Serif" font-size="10.00"> +useFlattenedCategories</text>
</g>
</g>
</svg>
