<?xml version="1.0" encoding="UTF-8" standalone="no"?>
<!DOCTYPE svg PUBLIC "-//W3C//DTD SVG 1.1//EN"
 "http://www.w3.org/Graphics/SVG/1.1/DTD/svg11.dtd">
<!-- Generated by graphviz version 2.43.0 (0)
 -->
<!-- Title: fspm.config.ConfigTestSuite.addGroups Pages: 1 -->
<svg width="579pt" height="176pt"
 viewBox="0.00 0.00 579.00 176.00" xmlns="http://www.w3.org/2000/svg" xmlns:xlink="http://www.w3.org/1999/xlink">
<g id="graph0" class="graph" transform="scale(1 1) rotate(0) translate(4 172)">
<title>fspm.config.ConfigTestSuite.addGroups</title>
<!-- Node1 -->
<g id="node1" class="node">
<title>Node1</title>
<g id="a_node1"><a xlink:title="Note: does not work when running tests in parallel.">
<polygon fill="#bfbfbf" stroke="black" points="0,-71.5 0,-101.5 173,-101.5 173,-71.5 0,-71.5"/>
<text text-anchor="start" x="8" y="-89.5" font-family="Helvetica,sans-Serif" font-size="10.00">fspm.config.ConfigTestSuite.add</text>
<text text-anchor="middle" x="86.5" y="-78.5" font-family="Helvetica,sans-Serif" font-size="10.00">Groups</text>
</a>
</g>
</g>
<!-- Node2 -->
<g id="node2" class="node">
<title>Node2</title>
<g id="a_node2"><a xlink:href="classfspm_1_1config_1_1params_1_1structures_1_1CategoryStore_a848e878d6fbdff21c30ac6cfd8336ecb.html#a848e878d6fbdff21c30ac6cfd8336ecb" target="_top" xlink:title="Adds a new category.">
<polygon fill="none" stroke="black" points="209,-137.5 209,-167.5 377,-167.5 377,-137.5 209,-137.5"/>
<text text-anchor="start" x="217" y="-155.5" font-family="Helvetica,sans-Serif" font-size="10.00">fspm.config.params.structures.</text>
<text text-anchor="middle" x="293" y="-144.5" font-family="Helvetica,sans-Serif" font-size="10.00">CategoryStore.addCategory</text>
</a>
</g>
</g>
<!-- Node1&#45;&gt;Node2 -->
<g id="edge1" class="edge">
<title>Node1&#45;&gt;Node2</title>
<path fill="none" stroke="midnightblue" d="M130.97,-101.55C154.08,-109.46 183.02,-119.21 209,-127.5 216.18,-129.79 223.72,-132.14 231.21,-134.44"/>
<polygon fill="midnightblue" stroke="midnightblue" points="230.41,-137.86 241,-137.43 232.46,-131.16 230.41,-137.86"/>
</g>
<!-- Node4 -->
<g id="node4" class="node">
<title>Node4</title>
<g id="a_node4"><a xlink:href="classfspm_1_1config_1_1Config_a42612499256e159a84e5244fcae25b31.html#a42612499256e159a84e5244fcae25b31" target="_top" xlink:title=" ">
<polygon fill="none" stroke="black" points="214,-99 214,-118 372,-118 372,-99 214,-99"/>
<text text-anchor="middle" x="293" y="-106" font-family="Helvetica,sans-Serif" font-size="10.00">fspm.config.Config.addGroup</text>
</a>
</g>
</g>
<!-- Node1&#45;&gt;Node4 -->
<g id="edge3" class="edge">
<title>Node1&#45;&gt;Node4</title>
<path fill="none" stroke="midnightblue" d="M173.04,-95.7C183.22,-96.8 193.63,-97.92 203.84,-99.02"/>
<polygon fill="midnightblue" stroke="midnightblue" points="203.66,-102.52 213.98,-100.11 204.41,-95.56 203.66,-102.52"/>
</g>
<!-- Node5 -->
<g id="node5" class="node">
<title>Node5</title>
<g id="a_node5"><a xlink:href="classfspm_1_1config_1_1params_1_1ParamCategory_a142ca4734877ac3625b6b95d8b81055a.html#a142ca4734877ac3625b6b95d8b81055a" target="_top" xlink:title="Adds a new Parameter to the category.">
<polygon fill="none" stroke="black" points="219.5,-49.5 219.5,-79.5 366.5,-79.5 366.5,-49.5 219.5,-49.5"/>
<text text-anchor="start" x="227.5" y="-67.5" font-family="Helvetica,sans-Serif" font-size="10.00">fspm.config.params.Param</text>
<text text-anchor="middle" x="293" y="-56.5" font-family="Helvetica,sans-Serif" font-size="10.00">Category.addParameter</text>
</a>
</g>
</g>
<!-- Node1&#45;&gt;Node5 -->
<g id="edge4" class="edge">
<title>Node1&#45;&gt;Node5</title>
<path fill="none" stroke="midnightblue" d="M173.04,-77.3C185.1,-76 197.47,-74.67 209.47,-73.38"/>
<polygon fill="midnightblue" stroke="midnightblue" points="209.88,-76.85 219.45,-72.31 209.13,-69.9 209.88,-76.85"/>
</g>
<!-- Node6 -->
<g id="node6" class="node">
<title>Node6</title>
<g id="a_node6"><a xlink:href="classfspm_1_1config_1_1params_1_1ParamFactory_a306a864a6bafd2dee7394c87cee9db15.html#a306a864a6bafd2dee7394c87cee9db15" target="_top" xlink:title=" ">
<polygon fill="none" stroke="black" points="219.5,-0.5 219.5,-30.5 366.5,-30.5 366.5,-0.5 219.5,-0.5"/>
<text text-anchor="start" x="227.5" y="-18.5" font-family="Helvetica,sans-Serif" font-size="10.00">fspm.config.params.Param</text>
<text text-anchor="middle" x="293" y="-7.5" font-family="Helvetica,sans-Serif" font-size="10.00">Factory.createParameter</text>
</a>
</g>
</g>
<!-- Node1&#45;&gt;Node6 -->
<g id="edge6" class="edge">
<title>Node1&#45;&gt;Node6</title>
<path fill="none" stroke="midnightblue" d="M125.29,-71.42C149.15,-62.09 180.7,-50.11 209,-40.5 215.86,-38.17 223.07,-35.84 230.26,-33.58"/>
<polygon fill="midnightblue" stroke="midnightblue" points="231.51,-36.86 240.02,-30.55 229.43,-30.17 231.51,-36.86"/>
</g>
<!-- Node3 -->
<g id="node3" class="node">
<title>Node3</title>
<g id="a_node3"><a xlink:href="classfspm_1_1util_1_1KeyElement_a653aac67328f98c1201974736671fe0d.html#a653aac67328f98c1201974736671fe0d" target="_top" xlink:title=" ">
<polygon fill="none" stroke="black" points="413,-99 413,-118 571,-118 571,-99 413,-99"/>
<text text-anchor="middle" x="492" y="-106" font-family="Helvetica,sans-Serif" font-size="10.00">fspm.util.KeyElement.getKey</text>
</a>
</g>
</g>
<!-- Node2&#45;&gt;Node3 -->
<g id="edge2" class="edge">
<title>Node2&#45;&gt;Node3</title>
<path fill="none" stroke="midnightblue" d="M361.25,-137.48C386.51,-131.84 414.83,-125.51 438.55,-120.22"/>
<polygon fill="midnightblue" stroke="midnightblue" points="439.41,-123.61 448.41,-118.01 437.89,-116.78 439.41,-123.61"/>
</g>
<!-- Node5&#45;&gt;Node3 -->
<g id="edge5" class="edge">
<title>Node5&#45;&gt;Node3</title>
<path fill="none" stroke="midnightblue" d="M361.25,-79.52C386.51,-85.16 414.83,-91.49 438.55,-96.78"/>
<polygon fill="midnightblue" stroke="midnightblue" points="437.89,-100.22 448.41,-98.99 439.41,-93.39 437.89,-100.22"/>
</g>
</g>
</svg>
