<?xml version="1.0" encoding="UTF-8" standalone="no"?>
<!DOCTYPE svg PUBLIC "-//W3C//DTD SVG 1.1//EN"
 "http://www.w3.org/Graphics/SVG/1.1/DTD/svg11.dtd">
<!-- Generated by graphviz version 2.43.0 (0)
 -->
<!-- Title: fspm.config.params.ParamGroup Pages: 1 -->
<svg width="328pt" height="397pt"
 viewBox="0.00 0.00 327.50 397.00" xmlns="http://www.w3.org/2000/svg" xmlns:xlink="http://www.w3.org/1999/xlink">
<g id="graph0" class="graph" transform="scale(1 1) rotate(0) translate(4 393)">
<title>fspm.config.params.ParamGroup</title>
<!-- Node1 -->
<g id="node1" class="node">
<title>Node1</title>
<g id="a_node1"><a xlink:title="Parameter configuration class for storing parameter categories.">
<polygon fill="#bfbfbf" stroke="black" points="0,-0.5 0,-156.5 193,-156.5 193,-0.5 0,-0.5"/>
<text text-anchor="start" x="8" y="-144.5" font-family="Helvetica,sans-Serif" font-size="10.00">fspm.config.params.Param</text>
<text text-anchor="middle" x="96.5" y="-133.5" font-family="Helvetica,sans-Serif" font-size="10.00">Group</text>
<polyline fill="none" stroke="black" points="0,-126.5 193,-126.5 "/>
<text text-anchor="middle" x="96.5" y="-114.5" font-family="Helvetica,sans-Serif" font-size="10.00"> </text>
<polyline fill="none" stroke="black" points="0,-107.5 193,-107.5 "/>
<text text-anchor="start" x="8" y="-95.5" font-family="Helvetica,sans-Serif" font-size="10.00">+ ParamGroup(String key)</text>
<text text-anchor="start" x="8" y="-84.5" font-family="Helvetica,sans-Serif" font-size="10.00">+ String getKey()</text>
<text text-anchor="start" x="8" y="-73.5" font-family="Helvetica,sans-Serif" font-size="10.00">+ void addCategory(ParamCategory</text>
<text text-anchor="start" x="8" y="-62.5" font-family="Helvetica,sans-Serif" font-size="10.00"> category)</text>
<text text-anchor="start" x="8" y="-51.5" font-family="Helvetica,sans-Serif" font-size="10.00">+ ParamCategory getCategory</text>
<text text-anchor="start" x="8" y="-40.5" font-family="Helvetica,sans-Serif" font-size="10.00">(String key)</text>
<text text-anchor="start" x="8" y="-29.5" font-family="Helvetica,sans-Serif" font-size="10.00">+ ParamCategory getCategory</text>
<text text-anchor="start" x="8" y="-18.5" font-family="Helvetica,sans-Serif" font-size="10.00">WithParam(String paramKey)</text>
<text text-anchor="start" x="8" y="-7.5" font-family="Helvetica,sans-Serif" font-size="10.00">+ String toString()</text>
</a>
</g>
</g>
<!-- Node2 -->
<g id="node2" class="node">
<title>Node2</title>
<g id="a_node2"><a xlink:title=" ">
<polygon fill="none" stroke="#bfbfbf" points="29,-210 29,-267 74,-267 74,-210 29,-210"/>
<text text-anchor="middle" x="51.5" y="-255" font-family="Helvetica,sans-Serif" font-size="10.00">String</text>
<polyline fill="none" stroke="#bfbfbf" points="29,-248 74,-248 "/>
<text text-anchor="middle" x="51.5" y="-236" font-family="Helvetica,sans-Serif" font-size="10.00"> </text>
<polyline fill="none" stroke="#bfbfbf" points="29,-229 74,-229 "/>
<text text-anchor="middle" x="51.5" y="-217" font-family="Helvetica,sans-Serif" font-size="10.00"> </text>
</a>
</g>
</g>
<!-- Node2&#45;&gt;Node1 -->
<g id="edge1" class="edge">
<title>Node2&#45;&gt;Node1</title>
<path fill="none" stroke="#404040" d="M59.34,-209.98C62.73,-198.07 66.91,-183.4 71.22,-168.25"/>
<polygon fill="none" stroke="#404040" points="71.25,-168.14 69.05,-161.27 74.54,-156.6 76.75,-163.46 71.25,-168.14"/>
<text text-anchor="middle" x="81" y="-178" font-family="Helvetica,sans-Serif" font-size="10.00"> &#45;key</text>
</g>
<!-- Node3 -->
<g id="node3" class="node">
<title>Node3</title>
<g id="a_node3"><a xlink:title=" ">
<polygon fill="none" stroke="#bfbfbf" points="92,-204.5 92,-272.5 275,-272.5 275,-204.5 92,-204.5"/>
<text text-anchor="start" x="100" y="-260.5" font-family="Helvetica,sans-Serif" font-size="10.00">Map&lt; String, fspm.config.params.</text>
<text text-anchor="middle" x="183.5" y="-249.5" font-family="Helvetica,sans-Serif" font-size="10.00">ParamCategory &gt;</text>
<polyline fill="none" stroke="#bfbfbf" points="92,-242.5 275,-242.5 "/>
<text text-anchor="middle" x="183.5" y="-230.5" font-family="Helvetica,sans-Serif" font-size="10.00"> </text>
<polyline fill="none" stroke="#bfbfbf" points="92,-223.5 275,-223.5 "/>
<text text-anchor="middle" x="183.5" y="-211.5" font-family="Helvetica,sans-Serif" font-size="10.00"> </text>
</a>
</g>
</g>
<!-- Node3&#45;&gt;Node1 -->
<g id="edge2" class="edge">
<title>Node3&#45;&gt;Node1</title>
<path fill="none" stroke="#404040" d="M165.26,-204.38C159.17,-193.31 152.06,-180.41 144.77,-167.17"/>
<polygon fill="none" stroke="#404040" points="144.7,-167.03 138.3,-163.7 138.91,-156.52 145.31,-159.84 144.7,-167.03"/>
<text text-anchor="middle" x="181.5" y="-178" font-family="Helvetica,sans-Serif" font-size="10.00"> &#45;categories</text>
</g>
<!-- Node4 -->
<g id="node4" class="node">
<title>Node4</title>
<g id="a_node4"><a xlink:title=" ">
<polygon fill="none" stroke="#bfbfbf" points="164.5,-331.5 164.5,-388.5 202.5,-388.5 202.5,-331.5 164.5,-331.5"/>
<text text-anchor="middle" x="183.5" y="-376.5" font-family="Helvetica,sans-Serif" font-size="10.00">Map</text>
<polyline fill="none" stroke="#bfbfbf" points="164.5,-369.5 202.5,-369.5 "/>
<text text-anchor="middle" x="183.5" y="-357.5" font-family="Helvetica,sans-Serif" font-size="10.00"> </text>
<polyline fill="none" stroke="#bfbfbf" points="164.5,-350.5 202.5,-350.5 "/>
<text text-anchor="middle" x="183.5" y="-338.5" font-family="Helvetica,sans-Serif" font-size="10.00"> </text>
</a>
</g>
</g>
<!-- Node4&#45;&gt;Node3 -->
<g id="edge3" class="edge">
<title>Node4&#45;&gt;Node3</title>
<path fill="none" stroke="orange" d="M183.5,-320.95C183.5,-305.4 183.5,-287.58 183.5,-272.59"/>
<polygon fill="orange" stroke="orange" points="180,-321.28 183.5,-331.28 187,-321.28 180,-321.28"/>
<text text-anchor="start" x="183.5" y="-305" font-family="Helvetica,sans-Serif" font-size="10.00"> &lt; String, fspm::config</text>
<text text-anchor="middle" x="251.5" y="-294" font-family="Helvetica,sans-Serif" font-size="10.00">::params::ParamCategory &gt;</text>
</g>
</g>
</svg>
