<?xml version="1.0" encoding="UTF-8" standalone="no"?>
<!DOCTYPE svg PUBLIC "-//W3C//DTD SVG 1.1//EN"
 "http://www.w3.org/Graphics/SVG/1.1/DTD/svg11.dtd">
<!-- Generated by graphviz version 2.43.0 (0)
 -->
<!-- Title: fspm.config.Config.addGroup Pages: 1 -->
<svg width="751pt" height="100pt"
 viewBox="0.00 0.00 751.00 99.50" xmlns="http://www.w3.org/2000/svg" xmlns:xlink="http://www.w3.org/1999/xlink">
<g id="graph0" class="graph" transform="scale(1 1) rotate(0) translate(4 95.5)">
<title>fspm.config.Config.addGroup</title>
<!-- Node1 -->
<g id="node1" class="node">
<title>Node1</title>
<g id="a_node1"><a xlink:title=" ">
<polygon fill="#bfbfbf" stroke="black" points="585,-50 585,-69 743,-69 743,-50 585,-50"/>
<text text-anchor="middle" x="664" y="-57" font-family="Helvetica,sans-Serif" font-size="10.00">fspm.config.Config.addGroup</text>
</a>
</g>
</g>
<!-- Node2 -->
<g id="node2" class="node">
<title>Node2</title>
<g id="a_node2"><a xlink:href="classfspm_1_1config_1_1Config_a381d7c4f91bba726f1dc19d493fd3ef8.html#a381d7c4f91bba726f1dc19d493fd3ef8" target="_top" xlink:title=" ">
<polygon fill="none" stroke="black" points="391,-72 391,-91 549,-91 549,-72 391,-72"/>
<text text-anchor="middle" x="470" y="-79" font-family="Helvetica,sans-Serif" font-size="10.00">fspm.config.Config.addGroup</text>
</a>
</g>
</g>
<!-- Node1&#45;&gt;Node2 -->
<g id="edge1" class="edge">
<title>Node1&#45;&gt;Node2</title>
<path fill="none" stroke="midnightblue" d="M574.85,-69.6C566.23,-70.59 557.53,-71.59 549.02,-72.56"/>
<polygon fill="midnightblue" stroke="midnightblue" points="575.37,-73.06 584.91,-68.45 574.57,-66.11 575.37,-73.06"/>
</g>
<!-- Node3 -->
<g id="node3" class="node">
<title>Node3</title>
<g id="a_node3"><a xlink:href="classfspm_1_1config_1_1ConfigTest_ad96b864581ccf61453d97330a34958f8.html#ad96b864581ccf61453d97330a34958f8" target="_top" xlink:title=" ">
<polygon fill="none" stroke="black" points="396,-22.5 396,-52.5 544,-52.5 544,-22.5 396,-22.5"/>
<text text-anchor="start" x="404" y="-40.5" font-family="Helvetica,sans-Serif" font-size="10.00">fspm.config.ConfigTest.add</text>
<text text-anchor="middle" x="470" y="-29.5" font-family="Helvetica,sans-Serif" font-size="10.00">Groups</text>
</a>
</g>
</g>
<!-- Node1&#45;&gt;Node3 -->
<g id="edge2" class="edge">
<title>Node1&#45;&gt;Node3</title>
<path fill="none" stroke="midnightblue" d="M574.71,-49.38C564.46,-48.21 554.08,-47.02 544.07,-45.87"/>
<polygon fill="midnightblue" stroke="midnightblue" points="574.57,-52.89 584.91,-50.55 575.37,-45.94 574.57,-52.89"/>
</g>
<!-- Node4 -->
<g id="node4" class="node">
<title>Node4</title>
<g id="a_node4"><a xlink:href="classfspm_1_1config_1_1ConfigTest_aacca92fc43946c5a3d4613a1085d59f9.html#aacca92fc43946c5a3d4613a1085d59f9" target="_top" xlink:title=" ">
<polygon fill="none" stroke="black" points="0,-28 0,-47 170,-47 170,-28 0,-28"/>
<text text-anchor="middle" x="85" y="-35" font-family="Helvetica,sans-Serif" font-size="10.00">fspm.config.ConfigTest.runMain</text>
</a>
</g>
</g>
<!-- Node3&#45;&gt;Node4 -->
<g id="edge3" class="edge">
<title>Node3&#45;&gt;Node4</title>
<path fill="none" stroke="midnightblue" d="M385.5,-39.95C375.23,-40.18 364.87,-40.37 355,-40.5 288.78,-41.37 272.22,-41.33 206,-40.5 194.43,-40.36 182.24,-40.13 170.24,-39.87"/>
<polygon fill="midnightblue" stroke="midnightblue" points="385.81,-43.44 395.72,-39.71 385.64,-36.45 385.81,-43.44"/>
</g>
<!-- Node5 -->
<g id="node5" class="node">
<title>Node5</title>
<g id="a_node5"><a xlink:href="classfspm_1_1config_1_1ConfigTest_a09a38b5eee655b088e4e144df5ad5a85.html#a09a38b5eee655b088e4e144df5ad5a85" target="_top" xlink:title=" ">
<polygon fill="none" stroke="black" points="206,-0.5 206,-30.5 355,-30.5 355,-0.5 206,-0.5"/>
<text text-anchor="start" x="214" y="-18.5" font-family="Helvetica,sans-Serif" font-size="10.00">fspm.config.ConfigTest.test</text>
<text text-anchor="middle" x="280.5" y="-7.5" font-family="Helvetica,sans-Serif" font-size="10.00">_flatCategories</text>
</a>
</g>
</g>
<!-- Node3&#45;&gt;Node5 -->
<g id="edge4" class="edge">
<title>Node3&#45;&gt;Node5</title>
<path fill="none" stroke="midnightblue" d="M385.85,-27.74C375.66,-26.55 365.3,-25.33 355.26,-24.15"/>
<polygon fill="midnightblue" stroke="midnightblue" points="385.63,-31.24 395.97,-28.93 386.45,-24.29 385.63,-31.24"/>
</g>
<!-- Node5&#45;&gt;Node4 -->
<g id="edge5" class="edge">
<title>Node5&#45;&gt;Node4</title>
<path fill="none" stroke="midnightblue" d="M195.78,-25.02C187.19,-26 178.45,-26.99 169.85,-27.97"/>
<polygon fill="midnightblue" stroke="midnightblue" points="196.25,-28.49 205.79,-23.88 195.46,-21.53 196.25,-28.49"/>
</g>
</g>
</svg>
