<?xml version="1.0" encoding="UTF-8" standalone="no"?>
<!DOCTYPE svg PUBLIC "-//W3C//DTD SVG 1.1//EN"
 "http://www.w3.org/Graphics/SVG/1.1/DTD/svg11.dtd">
<!-- Generated by graphviz version 2.43.0 (0)
 -->
<!-- Title: io.github.fruitcropxl.config.params.ParamTable.get Pages: 1 -->
<svg width="420pt" height="86pt"
 viewBox="0.00 0.00 420.00 86.00" xmlns="http://www.w3.org/2000/svg" xmlns:xlink="http://www.w3.org/1999/xlink">
<g id="graph0" class="graph" transform="scale(1 1) rotate(0) translate(4 82)">
<title>io.github.fruitcropxl.config.params.ParamTable.get</title>
<!-- Node1 -->
<g id="Node000001" class="node">
<title>Node1</title>
<g id="a_Node000001"><a xlink:title=" ">
<polygon fill="#999999" stroke="#666666" points="188,-54 0,-54 0,-24 188,-24 188,-54"/>
<text text-anchor="start" x="8" y="-42" font-family="Helvetica,sans-Serif" font-size="10.00">io.github.fruitcropxl.config.params.</text>
<text text-anchor="middle" x="94" y="-31" font-family="Helvetica,sans-Serif" font-size="10.00">ParamTable.get</text>
</a>
</g>
</g>
<!-- Node2 -->
<g id="Node000002" class="node">
<title>Node2</title>
<g id="a_Node000002"><a xlink:href="classio_1_1github_1_1fruitcropxl_1_1config_1_1params_1_1ParamTable_a358fda824b5d5f8df3b9aec30722676a.html#a358fda824b5d5f8df3b9aec30722676a" target="_top" xlink:title=" ">
<polygon fill="white" stroke="#666666" points="412,-78 224,-78 224,-48 412,-48 412,-78"/>
<text text-anchor="start" x="232" y="-66" font-family="Helvetica,sans-Serif" font-size="10.00">io.github.fruitcropxl.config.params.</text>
<text text-anchor="middle" x="318" y="-55" font-family="Helvetica,sans-Serif" font-size="10.00">ParamTable.getParameter</text>
</a>
</g>
</g>
<!-- Node1&#45;&gt;Node2 -->
<g id="edge1_Node000001_Node000002" class="edge">
<title>Node1&#45;&gt;Node2</title>
<g id="a_edge1_Node000001_Node000002"><a xlink:title=" ">
<path fill="none" stroke="#63b8ff" d="M188.18,-49.07C196.63,-49.99 205.21,-50.91 213.73,-51.84"/>
<polygon fill="#63b8ff" stroke="#63b8ff" points="213.38,-55.32 223.7,-52.91 214.13,-48.36 213.38,-55.32"/>
</a>
</g>
</g>
<!-- Node3 -->
<g id="Node000003" class="node">
<title>Node3</title>
<g id="a_Node000003"><a xlink:href="classio_1_1github_1_1fruitcropxl_1_1config_1_1params_1_1Parameter_aacab48aea46625c49025845f91364918.html#aacab48aea46625c49025845f91364918" target="_top" xlink:title="Get the value of the parameter as the given type.">
<polygon fill="white" stroke="#666666" points="412,-30 224,-30 224,0 412,0 412,-30"/>
<text text-anchor="start" x="232" y="-18" font-family="Helvetica,sans-Serif" font-size="10.00">io.github.fruitcropxl.config.params.</text>
<text text-anchor="middle" x="318" y="-7" font-family="Helvetica,sans-Serif" font-size="10.00">Parameter.getValue</text>
</a>
</g>
</g>
<!-- Node1&#45;&gt;Node3 -->
<g id="edge2_Node000001_Node000003" class="edge">
<title>Node1&#45;&gt;Node3</title>
<g id="a_edge2_Node000001_Node000003"><a xlink:title=" ">
<path fill="none" stroke="#63b8ff" d="M188.18,-28.93C196.63,-28.01 205.21,-27.09 213.73,-26.16"/>
<polygon fill="#63b8ff" stroke="#63b8ff" points="214.13,-29.64 223.7,-25.09 213.38,-22.68 214.13,-29.64"/>
</a>
</g>
</g>
</g>
</svg>
