<?xml version="1.0" encoding="UTF-8" standalone="no"?>
<!DOCTYPE svg PUBLIC "-//W3C//DTD SVG 1.1//EN"
 "http://www.w3.org/Graphics/SVG/1.1/DTD/svg11.dtd">
<!-- Generated by graphviz version 2.43.0 (0)
 -->
<!-- Title: fspm.config.Config.getString Pages: 1 -->
<!--zoomable 264 -->
<svg id="main" version="1.1" xmlns="http://www.w3.org/2000/svg" xmlns:xlink="http://www.w3.org/1999/xlink" xml:space="preserve" onload="init(evt)">
<style type="text/css"><![CDATA[
.edge:hover path { stroke: red; }
.edge:hover polygon { stroke: red; fill: red; }
]]></style>
<script type="text/javascript"><![CDATA[
var edges = document.getElementsByTagName('g');
if (edges && edges.length) {
  for (var i=0;i<edges.length;i++) {
    if (edges[i].id.substr(0,4)=='edge') {
      edges[i].setAttribute('class','edge');
    }
  }
}
]]></script>
        <defs>
                <circle id="rim" cx="0" cy="0" r="7"/>
                <circle id="rim2" cx="0" cy="0" r="3.5"/>
                <g id="zoomPlus">
                        <use xlink:href="#rim" fill="#404040">
                                <set attributeName="fill" to="#808080" begin="zoomplus.mouseover" end="zoomplus.mouseout"/>
                        </use>
                        <path d="M-4,0h8M0,-4v8" fill="none" stroke="white" stroke-width="1.5" pointer-events="none"/>
                </g>
                <g id="zoomMin">
                        <use xlink:href="#rim" fill="#404040">
                                <set attributeName="fill" to="#808080" begin="zoomminus.mouseover" end="zoomminus.mouseout"/>
                        </use>
                        <path d="M-4,0h8" fill="none" stroke="white" stroke-width="1.5" pointer-events="none"/>
                </g>
                <g id="dirArrow">
                        <path fill="none" stroke="white" stroke-width="1.5" d="M0,-3.0v7 M-2.5,-0.5L0,-3.0L2.5,-0.5"/>
                </g>
               <g id="resetDef">
                       <use xlink:href="#rim2" fill="#404040">
                               <set attributeName="fill" to="#808080" begin="reset.mouseover" end="reset.mouseout"/>
                       </use>
               </g>
        </defs>

<script type="text/javascript">
var viewWidth = 911;
var viewHeight = 264;
var sectionId = 'dynsection-0';
</script>
<script xlink:href="svgpan.js"/>
<svg id="graph" class="graph">
<g id="viewport">
<title>fspm.config.Config.getString</title>
<!-- Node1 -->
<g id="node1" class="node">
<title>Node1</title>
<g id="a_node1"><a xlink:title=" ">
<polygon fill="#bfbfbf" stroke="black" points="0,-96 0,-115 155,-115 155,-96 0,-96"/>
<text text-anchor="middle" x="77.5" y="-103" font-family="Helvetica,sans-Serif" font-size="10.00">fspm.config.Config.getString</text>
</a>
</g>
</g>
<!-- Node2 -->
<g id="node2" class="node">
<title>Node2</title>
<g id="a_node2"><a xlink:href="classfspm_1_1config_1_1Config_abce61aaf26cf14b4ae2204ff22c27b57.html#abce61aaf26cf14b4ae2204ff22c27b57" target="_top" xlink:title=" ">
<polygon fill="none" stroke="black" points="195,-137.5 195,-167.5 334,-167.5 334,-137.5 195,-137.5"/>
<text text-anchor="start" x="203" y="-155.5" font-family="Helvetica,sans-Serif" font-size="10.00">fspm.config.Config.check</text>
<text text-anchor="middle" x="264.5" y="-144.5" font-family="Helvetica,sans-Serif" font-size="10.00">ContextsExists</text>
</a>
</g>
</g>
<!-- Node1&#45;&gt;Node2 -->
<g id="edge1" class="edge">
<title>Node1&#45;&gt;Node2</title>
<path fill="none" stroke="midnightblue" d="M115.94,-115.01C138.41,-120.72 167.69,-128.16 194.24,-134.9"/>
<polygon fill="midnightblue" stroke="midnightblue" points="193.71,-138.38 204.27,-137.45 195.43,-131.6 193.71,-138.38"/>
</g>
<!-- Node9 -->
<g id="node9" class="node">
<title>Node9</title>
<g id="a_node9"><a xlink:href="classfspm_1_1config_1_1params_1_1ParamCategory_a18b0a3b2a74f69aa936eaecf40927c5a.html#a18b0a3b2a74f69aa936eaecf40927c5a" target="_top" xlink:title=" ">
<polygon fill="none" stroke="black" points="191,-44.5 191,-74.5 338,-74.5 338,-44.5 191,-44.5"/>
<text text-anchor="start" x="199" y="-62.5" font-family="Helvetica,sans-Serif" font-size="10.00">fspm.config.params.Param</text>
<text text-anchor="middle" x="264.5" y="-51.5" font-family="Helvetica,sans-Serif" font-size="10.00">Category.getString</text>
</a>
</g>
</g>
<!-- Node1&#45;&gt;Node9 -->
<g id="edge9" class="edge">
<title>Node1&#45;&gt;Node9</title>
<path fill="none" stroke="midnightblue" d="M116.83,-95.97C138.89,-90.49 167.28,-83.42 193.21,-76.98"/>
<polygon fill="midnightblue" stroke="midnightblue" points="194.14,-80.35 203,-74.54 192.45,-73.56 194.14,-80.35"/>
</g>
<!-- Node3 -->
<g id="node3" class="node">
<title>Node3</title>
<g id="a_node3"><a xlink:href="classfspm_1_1config_1_1Config_a3024c037d3ee426c410cb46ee2cd3497.html#a3024c037d3ee426c410cb46ee2cd3497" target="_top" xlink:title=" ">
<polygon fill="none" stroke="black" points="386,-225.5 386,-255.5 525,-255.5 525,-225.5 386,-225.5"/>
<text text-anchor="start" x="394" y="-243.5" font-family="Helvetica,sans-Serif" font-size="10.00">fspm.config.Config.check</text>
<text text-anchor="middle" x="455.5" y="-232.5" font-family="Helvetica,sans-Serif" font-size="10.00">GroupContextExists</text>
</a>
</g>
</g>
<!-- Node2&#45;&gt;Node3 -->
<g id="edge2" class="edge">
<title>Node2&#45;&gt;Node3</title>
<path fill="none" stroke="midnightblue" d="M291.32,-167.57C312.99,-179.91 344.99,-197.41 374,-210.5 382.68,-214.41 392.03,-218.24 401.19,-221.78"/>
<polygon fill="midnightblue" stroke="midnightblue" points="400.03,-225.09 410.62,-225.36 402.51,-218.54 400.03,-225.09"/>
</g>
<!-- Node4 -->
<g id="node4" class="node">
<title>Node4</title>
<g id="a_node4"><a xlink:href="classfspm_1_1config_1_1params_1_1ParamCategory_a4e9b4d10f0f293ae181dd272d302d9b4.html#a4e9b4d10f0f293ae181dd272d302d9b4" target="_top" xlink:title="Get generic Parameter with the given key.">
<polygon fill="none" stroke="black" points="573,-181.5 573,-211.5 720,-211.5 720,-181.5 573,-181.5"/>
<text text-anchor="start" x="581" y="-199.5" font-family="Helvetica,sans-Serif" font-size="10.00">fspm.config.params.Param</text>
<text text-anchor="middle" x="646.5" y="-188.5" font-family="Helvetica,sans-Serif" font-size="10.00">Category.get</text>
</a>
</g>
</g>
<!-- Node2&#45;&gt;Node4 -->
<g id="edge3" class="edge">
<title>Node2&#45;&gt;Node4</title>
<path fill="none" stroke="midnightblue" d="M323.18,-167.55C339.51,-171.33 357.37,-175.02 374,-177.5 436.89,-186.89 508.69,-191.66 562.65,-194.07"/>
<polygon fill="midnightblue" stroke="midnightblue" points="562.71,-197.57 572.85,-194.5 563.01,-190.58 562.71,-197.57"/>
</g>
<!-- Node6 -->
<g id="node6" class="node">
<title>Node6</title>
<g id="a_node6"><a xlink:href="classfspm_1_1config_1_1params_1_1ParamGroup_a4ac641bb901b13ad2186c3d4fe0a75c9.html#a4ac641bb901b13ad2186c3d4fe0a75c9" target="_top" xlink:title=" ">
<polygon fill="none" stroke="black" points="374.5,-137.5 374.5,-167.5 536.5,-167.5 536.5,-137.5 374.5,-137.5"/>
<text text-anchor="start" x="382.5" y="-155.5" font-family="Helvetica,sans-Serif" font-size="10.00">fspm.config.params.Param</text>
<text text-anchor="middle" x="455.5" y="-144.5" font-family="Helvetica,sans-Serif" font-size="10.00">Group.getCategoryWithParam</text>
</a>
</g>
</g>
<!-- Node2&#45;&gt;Node6 -->
<g id="edge5" class="edge">
<title>Node2&#45;&gt;Node6</title>
<path fill="none" stroke="midnightblue" d="M334,-152.5C343.83,-152.5 354.06,-152.5 364.22,-152.5"/>
<polygon fill="midnightblue" stroke="midnightblue" points="364.35,-156 374.35,-152.5 364.35,-149 364.35,-156"/>
</g>
<!-- Node8 -->
<g id="node8" class="node">
<title>Node8</title>
<g id="a_node8"><a xlink:href="classfspm_1_1config_1_1Config_aa3784bee8f29e4340b60735055eb41a6.html#aa3784bee8f29e4340b60735055eb41a6" target="_top" xlink:title=" ">
<polygon fill="none" stroke="black" points="374,-88.5 374,-118.5 537,-118.5 537,-88.5 374,-88.5"/>
<text text-anchor="start" x="382" y="-106.5" font-family="Helvetica,sans-Serif" font-size="10.00">fspm.config.Config.isCategory</text>
<text text-anchor="middle" x="455.5" y="-95.5" font-family="Helvetica,sans-Serif" font-size="10.00">ContextExists</text>
</a>
</g>
</g>
<!-- Node2&#45;&gt;Node8 -->
<g id="edge8" class="edge">
<title>Node2&#45;&gt;Node8</title>
<path fill="none" stroke="midnightblue" d="M323.49,-137.47C343.54,-132.27 366.17,-126.4 386.92,-121.02"/>
<polygon fill="midnightblue" stroke="midnightblue" points="387.82,-124.4 396.62,-118.51 386.06,-117.63 387.82,-124.4"/>
</g>
<!-- Node5 -->
<g id="node5" class="node">
<title>Node5</title>
<g id="a_node5"><a xlink:href="classfspm_1_1config_1_1params_1_1ParamCategory_aac7a0ce7ab7fafe895ba689f644818ab.html#aac7a0ce7ab7fafe895ba689f644818ab" target="_top" xlink:title=" ">
<polygon fill="none" stroke="black" points="756,-181.5 756,-211.5 903,-211.5 903,-181.5 756,-181.5"/>
<text text-anchor="start" x="764" y="-199.5" font-family="Helvetica,sans-Serif" font-size="10.00">fspm.config.params.Param</text>
<text text-anchor="middle" x="829.5" y="-188.5" font-family="Helvetica,sans-Serif" font-size="10.00">Category.getKey</text>
</a>
</g>
</g>
<!-- Node4&#45;&gt;Node5 -->
<g id="edge4" class="edge">
<title>Node4&#45;&gt;Node5</title>
<path fill="none" stroke="midnightblue" d="M720.08,-196.5C728.56,-196.5 737.26,-196.5 745.87,-196.5"/>
<polygon fill="midnightblue" stroke="midnightblue" points="745.91,-200 755.91,-196.5 745.91,-193 745.91,-200"/>
</g>
<!-- Node6&#45;&gt;Node4 -->
<g id="edge6" class="edge">
<title>Node6&#45;&gt;Node4</title>
<path fill="none" stroke="midnightblue" d="M521.01,-167.52C537.04,-171.25 554.36,-175.28 570.83,-179.12"/>
<polygon fill="midnightblue" stroke="midnightblue" points="570.42,-182.62 580.96,-181.47 572.01,-175.8 570.42,-182.62"/>
</g>
<!-- Node7 -->
<g id="node7" class="node">
<title>Node7</title>
<g id="a_node7"><a xlink:href="classfspm_1_1config_1_1params_1_1ParamGroup_a87d9e7182014d1d981c4067083815878.html#a87d9e7182014d1d981c4067083815878" target="_top" xlink:title=" ">
<polygon fill="none" stroke="black" points="573,-132.5 573,-162.5 720,-162.5 720,-132.5 573,-132.5"/>
<text text-anchor="start" x="581" y="-150.5" font-family="Helvetica,sans-Serif" font-size="10.00">fspm.config.params.Param</text>
<text text-anchor="middle" x="646.5" y="-139.5" font-family="Helvetica,sans-Serif" font-size="10.00">Group.getKey</text>
</a>
</g>
</g>
<!-- Node6&#45;&gt;Node7 -->
<g id="edge7" class="edge">
<title>Node6&#45;&gt;Node7</title>
<path fill="none" stroke="midnightblue" d="M536.65,-150.38C545.26,-150.15 554.03,-149.92 562.66,-149.69"/>
<polygon fill="midnightblue" stroke="midnightblue" points="562.82,-153.19 572.72,-149.43 562.63,-146.19 562.82,-153.19"/>
</g>
<!-- Node10 -->
<g id="node10" class="node">
<title>Node10</title>
<g id="a_node10"><a xlink:href="classfspm_1_1config_1_1params_1_1ParamCategory_aa2e79c693bd5784e3397c328d6363ba9.html#aa2e79c693bd5784e3397c328d6363ba9" target="_top" xlink:title="Helper method to get the parameter of a given key, if it is an instance of the Parameter type class p...">
<polygon fill="none" stroke="black" points="573,-22.5 573,-52.5 720,-52.5 720,-22.5 573,-22.5"/>
<text text-anchor="start" x="581" y="-40.5" font-family="Helvetica,sans-Serif" font-size="10.00">fspm.config.params.Param</text>
<text text-anchor="middle" x="646.5" y="-29.5" font-family="Helvetica,sans-Serif" font-size="10.00">Category.getIfInstanceOf</text>
</a>
</g>
</g>
<!-- Node9&#45;&gt;Node10 -->
<g id="edge10" class="edge">
<title>Node9&#45;&gt;Node10</title>
<path fill="none" stroke="midnightblue" d="M338.32,-55.28C402.48,-51.57 495.89,-46.16 562.83,-42.29"/>
<polygon fill="midnightblue" stroke="midnightblue" points="563.15,-45.77 572.93,-41.7 562.74,-38.79 563.15,-45.77"/>
</g>
<!-- Node11 -->
<g id="node11" class="node">
<title>Node11</title>
<g id="a_node11"><a xlink:href="classfspm_1_1config_1_1params_1_1ParamCategory_a9df71240a840aa7875fdd8834c4cdbde.html#a9df71240a840aa7875fdd8834c4cdbde" target="_top" xlink:title="Check and return if is NullParam.">
<polygon fill="none" stroke="black" points="382,-0.5 382,-30.5 529,-30.5 529,-0.5 382,-0.5"/>
<text text-anchor="start" x="390" y="-18.5" font-family="Helvetica,sans-Serif" font-size="10.00">fspm.config.params.Param</text>
<text text-anchor="middle" x="455.5" y="-7.5" font-family="Helvetica,sans-Serif" font-size="10.00">Category.isNull</text>
</a>
</g>
</g>
<!-- Node9&#45;&gt;Node11 -->
<g id="edge11" class="edge">
<title>Node9&#45;&gt;Node11</title>
<path fill="none" stroke="midnightblue" d="M330.01,-44.48C346.04,-40.75 363.36,-36.72 379.83,-32.88"/>
<polygon fill="midnightblue" stroke="midnightblue" points="381.01,-36.2 389.96,-30.53 379.42,-29.38 381.01,-36.2"/>
</g>
<!-- Node11&#45;&gt;Node10 -->
<g id="edge12" class="edge">
<title>Node11&#45;&gt;Node10</title>
<path fill="none" stroke="midnightblue" d="M529.03,-23.94C540.03,-25.22 551.45,-26.55 562.65,-27.86"/>
<polygon fill="midnightblue" stroke="midnightblue" points="562.51,-31.36 572.85,-29.04 563.32,-24.41 562.51,-31.36"/>
</g>
</g>
</svg>
        <g id="navigator" transform="translate(0 0)" fill="#404254">
                <rect fill="#f2f5e9" fill-opacity="0.5" stroke="#606060" stroke-width=".5" x="0" y="0" width="60" height="60"/>
                <use id="zoomplus" xlink:href="#zoomPlus" x="17" y="9" onmousedown="handleZoom(evt,'in')"/>
                <use id="zoomminus" xlink:href="#zoomMin" x="42" y="9" onmousedown="handleZoom(evt,'out')"/>
                <use id="reset" xlink:href="#resetDef" x="30" y="36" onmousedown="handleReset()"/>
                <g id="arrowUp" xlink:href="#dirArrow" transform="translate(30 24)" onmousedown="handlePan(0,-1)">
                  <use xlink:href="#rim" fill="#404040">
                        <set attributeName="fill" to="#808080" begin="arrowUp.mouseover" end="arrowUp.mouseout"/>
                  </use>
                  <path fill="none" stroke="white" stroke-width="1.5" d="M0,-3.0v7 M-2.5,-0.5L0,-3.0L2.5,-0.5"/>
                </g>
                <g id="arrowRight" xlink:href="#dirArrow" transform="rotate(90) translate(36 -43)" onmousedown="handlePan(1,0)">
                  <use xlink:href="#rim" fill="#404040">
                        <set attributeName="fill" to="#808080" begin="arrowRight.mouseover" end="arrowRight.mouseout"/>
                  </use>
                  <path fill="none" stroke="white" stroke-width="1.5" d="M0,-3.0v7 M-2.5,-0.5L0,-3.0L2.5,-0.5"/>
                </g>
                <g id="arrowDown" xlink:href="#dirArrow" transform="rotate(180) translate(-30 -48)" onmousedown="handlePan(0,1)">
                  <use xlink:href="#rim" fill="#404040">
                        <set attributeName="fill" to="#808080" begin="arrowDown.mouseover" end="arrowDown.mouseout"/>
                  </use>
                  <path fill="none" stroke="white" stroke-width="1.5" d="M0,-3.0v7 M-2.5,-0.5L0,-3.0L2.5,-0.5"/>
                </g>
                <g id="arrowLeft" xlink:href="#dirArrow" transform="rotate(270) translate(-36 17)" onmousedown="handlePan(-1,0)">
                  <use xlink:href="#rim" fill="#404040">
                        <set attributeName="fill" to="#808080" begin="arrowLeft.mouseover" end="arrowLeft.mouseout"/>
                  </use>
                  <path fill="none" stroke="white" stroke-width="1.5" d="M0,-3.0v7 M-2.5,-0.5L0,-3.0L2.5,-0.5"/>
                </g>
        </g>
        <svg viewBox="0 0 15 15" width="100%" height="30px" preserveAspectRatio="xMaxYMin meet">
         <g id="arrow_out" transform="scale(0.3 0.3)">
          <a xlink:href="classfspm_1_1config_1_1Config_a3be13c8aecc91ab1cd95692ec65df305_a3be13c8aecc91ab1cd95692ec65df305_cgraph_org.svg" target="_base">
           <rect id="button" ry="5" rx="5" y="6" x="6" height="38" width="38"
                fill="#f2f5e9" fill-opacity="0.5" stroke="#606060" stroke-width="1.0"/>
           <path id="arrow"
             d="M 11.500037,31.436501 C 11.940474,20.09759 22.043105,11.32322 32.158766,21.979434 L 37.068811,17.246167 C 37.068811,17.246167 37.088388,32 37.088388,32 L 22.160133,31.978069 C 22.160133,31.978069 26.997745,27.140456 26.997745,27.140456 C 18.528582,18.264221 13.291696,25.230495 11.500037,31.436501 z"
             style="fill:#404040;"/>
          </a>
         </g>
        </svg>
</svg>
