<?xml version="1.0" encoding="UTF-8" standalone="no"?>
<!DOCTYPE svg PUBLIC "-//W3C//DTD SVG 1.1//EN"
 "http://www.w3.org/Graphics/SVG/1.1/DTD/svg11.dtd">
<!-- Generated by graphviz version 2.43.0 (0)
 -->
<!-- Title: fspm.config.params.hierarchy.CategoryHierarchy.getStringArray Pages: 1 -->
<svg width="1128pt" height="165pt"
 viewBox="0.00 0.00 1128.00 165.00" xmlns="http://www.w3.org/2000/svg" xmlns:xlink="http://www.w3.org/1999/xlink">
<g id="graph0" class="graph" transform="scale(1 1) rotate(0) translate(4 161)">
<title>fspm.config.params.hierarchy.CategoryHierarchy.getStringArray</title>
<!-- Node1 -->
<g id="node1" class="node">
<title>Node1</title>
<g id="a_node1"><a xlink:title=" ">
<polygon fill="#bfbfbf" stroke="black" points="0,-62.5 0,-92.5 180,-92.5 180,-62.5 0,-62.5"/>
<text text-anchor="start" x="8" y="-80.5" font-family="Helvetica,sans-Serif" font-size="10.00">fspm.config.params.hierarchy.</text>
<text text-anchor="middle" x="90" y="-69.5" font-family="Helvetica,sans-Serif" font-size="10.00">CategoryHierarchy.getStringArray</text>
</a>
</g>
</g>
<!-- Node2 -->
<g id="node2" class="node">
<title>Node2</title>
<g id="a_node2"><a xlink:href="classfspm_1_1config_1_1params_1_1ParamCategory_acfe96862fe8cea782cd628ff73071ed5.html#acfe96862fe8cea782cd628ff73071ed5" target="_top" xlink:title=" ">
<polygon fill="none" stroke="black" points="240.5,-90.5 240.5,-120.5 387.5,-120.5 387.5,-90.5 240.5,-90.5"/>
<text text-anchor="start" x="248.5" y="-108.5" font-family="Helvetica,sans-Serif" font-size="10.00">fspm.config.params.Param</text>
<text text-anchor="middle" x="314" y="-97.5" font-family="Helvetica,sans-Serif" font-size="10.00">Category.getStringArray</text>
</a>
</g>
</g>
<!-- Node1&#45;&gt;Node2 -->
<g id="edge1" class="edge">
<title>Node1&#45;&gt;Node2</title>
<path fill="none" stroke="midnightblue" d="M180.02,-88.73C196.6,-90.82 213.86,-93 230.25,-95.06"/>
<polygon fill="midnightblue" stroke="midnightblue" points="229.96,-98.55 240.32,-96.33 230.84,-91.61 229.96,-98.55"/>
</g>
<!-- Node8 -->
<g id="node8" class="node">
<title>Node8</title>
<g id="a_node8"><a xlink:href="classfspm_1_1config_1_1params_1_1hierarchy_1_1CategoryHierarchy_a97a3787601b2a1964f925a5509267602.html#a97a3787601b2a1964f925a5509267602" target="_top" xlink:title=" ">
<polygon fill="none" stroke="black" points="216,-30 216,-71 412,-71 412,-30 216,-30"/>
<text text-anchor="start" x="224" y="-59" font-family="Helvetica,sans-Serif" font-size="10.00">fspm.config.params.hierarchy.</text>
<text text-anchor="start" x="224" y="-48" font-family="Helvetica,sans-Serif" font-size="10.00">CategoryHierarchy.validateFlattened</text>
<text text-anchor="middle" x="314" y="-37" font-family="Helvetica,sans-Serif" font-size="10.00">Access</text>
</a>
</g>
</g>
<!-- Node1&#45;&gt;Node8 -->
<g id="edge8" class="edge">
<title>Node1&#45;&gt;Node8</title>
<path fill="none" stroke="midnightblue" d="M180.02,-66.67C188.51,-65.64 197.19,-64.59 205.83,-63.53"/>
<polygon fill="midnightblue" stroke="midnightblue" points="206.45,-66.98 215.96,-62.3 205.61,-60.04 206.45,-66.98"/>
</g>
<!-- Node3 -->
<g id="node3" class="node">
<title>Node3</title>
<g id="a_node3"><a xlink:href="classfspm_1_1config_1_1params_1_1Parameter_a80c0cb3ad8030dd29fdc38382dffbb61.html#a80c0cb3ad8030dd29fdc38382dffbb61" target="_top" xlink:title=" ">
<polygon fill="none" stroke="black" points="469.5,-126.5 469.5,-156.5 649.5,-156.5 649.5,-126.5 469.5,-126.5"/>
<text text-anchor="start" x="477.5" y="-144.5" font-family="Helvetica,sans-Serif" font-size="10.00">fspm.config.params.Parameter.as</text>
<text text-anchor="middle" x="559.5" y="-133.5" font-family="Helvetica,sans-Serif" font-size="10.00">StringArray</text>
</a>
</g>
</g>
<!-- Node2&#45;&gt;Node3 -->
<g id="edge2" class="edge">
<title>Node2&#45;&gt;Node3</title>
<path fill="none" stroke="midnightblue" d="M387.73,-116.25C410.17,-119.57 435.27,-123.28 459.19,-126.82"/>
<polygon fill="midnightblue" stroke="midnightblue" points="458.94,-130.32 469.35,-128.32 459.97,-123.39 458.94,-130.32"/>
</g>
<!-- Node7 -->
<g id="node7" class="node">
<title>Node7</title>
<g id="a_node7"><a xlink:href="classfspm_1_1config_1_1params_1_1ParamCategory_ac81e6b98fa48fc3426eed6f60e81da5b.html#ac81e6b98fa48fc3426eed6f60e81da5b" target="_top" xlink:title="Get generic Parameter with the given key.">
<polygon fill="none" stroke="black" points="723.5,-60.5 723.5,-90.5 870.5,-90.5 870.5,-60.5 723.5,-60.5"/>
<text text-anchor="start" x="731.5" y="-78.5" font-family="Helvetica,sans-Serif" font-size="10.00">fspm.config.params.Param</text>
<text text-anchor="middle" x="797" y="-67.5" font-family="Helvetica,sans-Serif" font-size="10.00">Category.getParameter</text>
</a>
</g>
</g>
<!-- Node2&#45;&gt;Node7 -->
<g id="edge6" class="edge">
<title>Node2&#45;&gt;Node7</title>
<path fill="none" stroke="midnightblue" d="M387.53,-100.98C474.93,-95.53 621.44,-86.39 713.19,-80.66"/>
<polygon fill="midnightblue" stroke="midnightblue" points="713.51,-84.15 723.27,-80.04 713.07,-77.17 713.51,-84.15"/>
</g>
<!-- Node4 -->
<g id="node4" class="node">
<title>Node4</title>
<g id="a_node4"><a xlink:href="classfspm_1_1config_1_1params_1_1Parameter_a2dced470a20701940042f6dacad7f78e.html#a2dced470a20701940042f6dacad7f78e" target="_top" xlink:title=" ">
<polygon fill="none" stroke="black" points="707,-117.5 707,-147.5 887,-147.5 887,-117.5 707,-117.5"/>
<text text-anchor="start" x="715" y="-135.5" font-family="Helvetica,sans-Serif" font-size="10.00">fspm.config.params.Parameter.as</text>
<text text-anchor="middle" x="797" y="-124.5" font-family="Helvetica,sans-Serif" font-size="10.00">Array</text>
</a>
</g>
</g>
<!-- Node3&#45;&gt;Node4 -->
<g id="edge3" class="edge">
<title>Node3&#45;&gt;Node4</title>
<path fill="none" stroke="midnightblue" d="M649.53,-138.1C664.92,-137.51 681,-136.89 696.64,-136.3"/>
<polygon fill="midnightblue" stroke="midnightblue" points="696.98,-139.79 706.84,-135.91 696.72,-132.79 696.98,-139.79"/>
</g>
<!-- Node5 -->
<g id="node5" class="node">
<title>Node5</title>
<g id="a_node5"><a xlink:href="classfspm_1_1util_1_1KeyElement_a653aac67328f98c1201974736671fe0d.html#a653aac67328f98c1201974736671fe0d" target="_top" xlink:title=" ">
<polygon fill="none" stroke="black" points="942.5,-80 942.5,-99 1100.5,-99 1100.5,-80 942.5,-80"/>
<text text-anchor="middle" x="1021.5" y="-87" font-family="Helvetica,sans-Serif" font-size="10.00">fspm.util.KeyElement.getKey</text>
</a>
</g>
</g>
<!-- Node4&#45;&gt;Node5 -->
<g id="edge4" class="edge">
<title>Node4&#45;&gt;Node5</title>
<path fill="none" stroke="midnightblue" d="M875.82,-117.46C903.81,-112.05 934.91,-106.04 961.08,-100.98"/>
<polygon fill="midnightblue" stroke="midnightblue" points="962.07,-104.36 971.23,-99.02 960.75,-97.48 962.07,-104.36"/>
</g>
<!-- Node6 -->
<g id="node6" class="node">
<title>Node6</title>
<g id="a_node6"><a xlink:href="classfspm_1_1config_1_1params_1_1Parameter_a2fd72835a908354fea23f92e3f3b1800.html#a2fd72835a908354fea23f92e3f3b1800" target="_top" xlink:title=" ">
<polygon fill="none" stroke="black" points="923,-123 923,-142 1120,-142 1120,-123 923,-123"/>
<text text-anchor="middle" x="1021.5" y="-130" font-family="Helvetica,sans-Serif" font-size="10.00">fspm.config.params.Parameter.isNull</text>
</a>
</g>
</g>
<!-- Node4&#45;&gt;Node6 -->
<g id="edge5" class="edge">
<title>Node4&#45;&gt;Node6</title>
<path fill="none" stroke="midnightblue" d="M887.22,-132.5C895.65,-132.5 904.25,-132.5 912.83,-132.5"/>
<polygon fill="midnightblue" stroke="midnightblue" points="912.87,-136 922.87,-132.5 912.87,-129 912.87,-136"/>
</g>
<!-- Node7&#45;&gt;Node5 -->
<g id="edge7" class="edge">
<title>Node7&#45;&gt;Node5</title>
<path fill="none" stroke="midnightblue" d="M870.55,-80.06C890.18,-81.3 911.66,-82.65 932.06,-83.94"/>
<polygon fill="midnightblue" stroke="midnightblue" points="932.1,-87.44 942.3,-84.58 932.54,-80.46 932.1,-87.44"/>
</g>
<!-- Node8&#45;&gt;Node7 -->
<g id="edge11" class="edge">
<title>Node8&#45;&gt;Node7</title>
<path fill="none" stroke="midnightblue" d="M412.05,-55.54C500.43,-60.14 629.55,-66.85 713.18,-71.2"/>
<polygon fill="midnightblue" stroke="midnightblue" points="713.23,-74.7 723.4,-71.73 713.59,-67.71 713.23,-74.7"/>
</g>
<!-- Node9 -->
<g id="node9" class="node">
<title>Node9</title>
<g id="a_node9"><a xlink:href="classfspm_1_1config_1_1params_1_1hierarchy_1_1CategoryHierarchy_a9c1b08f5e63a4e2ae1092e048db34237.html#a9c1b08f5e63a4e2ae1092e048db34237" target="_top" xlink:title=" ">
<polygon fill="none" stroke="black" points="448,-0.5 448,-30.5 671,-30.5 671,-0.5 448,-0.5"/>
<text text-anchor="start" x="456" y="-18.5" font-family="Helvetica,sans-Serif" font-size="10.00">fspm.config.params.hierarchy.</text>
<text text-anchor="middle" x="559.5" y="-7.5" font-family="Helvetica,sans-Serif" font-size="10.00">CategoryHierarchy.getCategoryWithParam</text>
</a>
</g>
</g>
<!-- Node8&#45;&gt;Node9 -->
<g id="edge9" class="edge">
<title>Node8&#45;&gt;Node9</title>
<path fill="none" stroke="midnightblue" d="M412.29,-36.52C422.63,-35.03 433.21,-33.51 443.73,-32"/>
<polygon fill="midnightblue" stroke="midnightblue" points="444.38,-35.44 453.78,-30.55 443.38,-28.51 444.38,-35.44"/>
</g>
<!-- Node9&#45;&gt;Node7 -->
<g id="edge10" class="edge">
<title>Node9&#45;&gt;Node7</title>
<path fill="none" stroke="midnightblue" d="M619.62,-30.56C652.24,-38.87 692.91,-49.23 726.97,-57.91"/>
<polygon fill="midnightblue" stroke="midnightblue" points="726.3,-61.35 736.85,-60.43 728.03,-54.57 726.3,-61.35"/>
</g>
</g>
</svg>
