<?xml version="1.0" encoding="UTF-8" standalone="no"?>
<!DOCTYPE svg PUBLIC "-//W3C//DTD SVG 1.1//EN"
 "http://www.w3.org/Graphics/SVG/1.1/DTD/svg11.dtd">
<!-- Generated by graphviz version 2.43.0 (0)
 -->
<!-- Title: fspm.config.params.hierarchy.CategoryHierarchy.isNull Pages: 1 -->
<svg width="1040pt" height="139pt"
 viewBox="0.00 0.00 1040.00 139.23" xmlns="http://www.w3.org/2000/svg" xmlns:xlink="http://www.w3.org/1999/xlink">
<g id="graph0" class="graph" transform="scale(1 1) rotate(0) translate(4 135.23)">
<title>fspm.config.params.hierarchy.CategoryHierarchy.isNull</title>
<!-- Node1 -->
<g id="node1" class="node">
<title>Node1</title>
<g id="a_node1"><a xlink:title=" ">
<polygon fill="#bfbfbf" stroke="black" points="0,-62.5 0,-92.5 164,-92.5 164,-62.5 0,-62.5"/>
<text text-anchor="start" x="8" y="-80.5" font-family="Helvetica,sans-Serif" font-size="10.00">fspm.config.params.hierarchy.</text>
<text text-anchor="middle" x="82" y="-69.5" font-family="Helvetica,sans-Serif" font-size="10.00">CategoryHierarchy.isNull</text>
</a>
</g>
</g>
<!-- Node2 -->
<g id="node2" class="node">
<title>Node2</title>
<g id="a_node2"><a xlink:href="classfspm_1_1config_1_1params_1_1ParamCategory_a9df71240a840aa7875fdd8834c4cdbde.html#a9df71240a840aa7875fdd8834c4cdbde" target="_top" xlink:title=" ">
<polygon fill="none" stroke="black" points="224.5,-90.5 224.5,-120.5 371.5,-120.5 371.5,-90.5 224.5,-90.5"/>
<text text-anchor="start" x="232.5" y="-108.5" font-family="Helvetica,sans-Serif" font-size="10.00">fspm.config.params.Param</text>
<text text-anchor="middle" x="298" y="-97.5" font-family="Helvetica,sans-Serif" font-size="10.00">Category.isNull</text>
</a>
</g>
</g>
<!-- Node1&#45;&gt;Node2 -->
<g id="edge1" class="edge">
<title>Node1&#45;&gt;Node2</title>
<path fill="none" stroke="midnightblue" d="M164.21,-88.13C180.56,-90.27 197.77,-92.52 214.18,-94.66"/>
<polygon fill="midnightblue" stroke="midnightblue" points="213.9,-98.16 224.27,-95.98 214.81,-91.22 213.9,-98.16"/>
</g>
<!-- Node6 -->
<g id="node6" class="node">
<title>Node6</title>
<g id="a_node6"><a xlink:href="classfspm_1_1config_1_1params_1_1hierarchy_1_1CategoryHierarchy_a97a3787601b2a1964f925a5509267602.html#a97a3787601b2a1964f925a5509267602" target="_top" xlink:title=" ">
<polygon fill="none" stroke="black" points="200,-30 200,-71 396,-71 396,-30 200,-30"/>
<text text-anchor="start" x="208" y="-59" font-family="Helvetica,sans-Serif" font-size="10.00">fspm.config.params.hierarchy.</text>
<text text-anchor="start" x="208" y="-48" font-family="Helvetica,sans-Serif" font-size="10.00">CategoryHierarchy.validateFlattened</text>
<text text-anchor="middle" x="298" y="-37" font-family="Helvetica,sans-Serif" font-size="10.00">Access</text>
</a>
</g>
</g>
<!-- Node1&#45;&gt;Node6 -->
<g id="edge5" class="edge">
<title>Node1&#45;&gt;Node6</title>
<path fill="none" stroke="midnightblue" d="M164.21,-67.25C172.54,-66.2 181.09,-65.12 189.64,-64.05"/>
<polygon fill="midnightblue" stroke="midnightblue" points="190.19,-67.5 199.67,-62.78 189.31,-60.56 190.19,-67.5"/>
</g>
<!-- Node3 -->
<g id="node3" class="node">
<title>Node3</title>
<g id="a_node3"><a xlink:href="classfspm_1_1config_1_1params_1_1ParamCategory_ac81e6b98fa48fc3426eed6f60e81da5b.html#ac81e6b98fa48fc3426eed6f60e81da5b" target="_top" xlink:title="Get generic Parameter with the given key.">
<polygon fill="none" stroke="black" points="691,-44.5 691,-74.5 838,-74.5 838,-44.5 691,-44.5"/>
<text text-anchor="start" x="699" y="-62.5" font-family="Helvetica,sans-Serif" font-size="10.00">fspm.config.params.Param</text>
<text text-anchor="middle" x="764.5" y="-51.5" font-family="Helvetica,sans-Serif" font-size="10.00">Category.getParameter</text>
</a>
</g>
</g>
<!-- Node2&#45;&gt;Node3 -->
<g id="edge2" class="edge">
<title>Node2&#45;&gt;Node3</title>
<path fill="none" stroke="midnightblue" d="M371.8,-119.08C444.61,-130.04 559.24,-140.12 655,-116.5 683.56,-109.45 712.92,-93.4 733.88,-80.11"/>
<polygon fill="midnightblue" stroke="midnightblue" points="735.85,-83.01 742.32,-74.62 732.03,-77.14 735.85,-83.01"/>
</g>
<!-- Node5 -->
<g id="node5" class="node">
<title>Node5</title>
<g id="a_node5"><a xlink:href="classfspm_1_1config_1_1params_1_1Parameter_a2fd72835a908354fea23f92e3f3b1800.html#a2fd72835a908354fea23f92e3f3b1800" target="_top" xlink:title=" ">
<polygon fill="none" stroke="black" points="445,-88 445,-107 642,-107 642,-88 445,-88"/>
<text text-anchor="middle" x="543.5" y="-95" font-family="Helvetica,sans-Serif" font-size="10.00">fspm.config.params.Parameter.isNull</text>
</a>
</g>
</g>
<!-- Node2&#45;&gt;Node5 -->
<g id="edge4" class="edge">
<title>Node2&#45;&gt;Node5</title>
<path fill="none" stroke="midnightblue" d="M371.73,-103.11C391.57,-102.46 413.49,-101.74 434.84,-101.04"/>
<polygon fill="midnightblue" stroke="midnightblue" points="435.04,-104.53 444.92,-100.71 434.81,-97.54 435.04,-104.53"/>
</g>
<!-- Node4 -->
<g id="node4" class="node">
<title>Node4</title>
<g id="a_node4"><a xlink:href="classfspm_1_1util_1_1KeyElement_a653aac67328f98c1201974736671fe0d.html#a653aac67328f98c1201974736671fe0d" target="_top" xlink:title=" ">
<polygon fill="none" stroke="black" points="874,-50 874,-69 1032,-69 1032,-50 874,-50"/>
<text text-anchor="middle" x="953" y="-57" font-family="Helvetica,sans-Serif" font-size="10.00">fspm.util.KeyElement.getKey</text>
</a>
</g>
</g>
<!-- Node3&#45;&gt;Node4 -->
<g id="edge3" class="edge">
<title>Node3&#45;&gt;Node4</title>
<path fill="none" stroke="midnightblue" d="M838.14,-59.5C846.52,-59.5 855.13,-59.5 863.69,-59.5"/>
<polygon fill="midnightblue" stroke="midnightblue" points="863.7,-63 873.7,-59.5 863.7,-56 863.7,-63"/>
</g>
<!-- Node6&#45;&gt;Node3 -->
<g id="edge8" class="edge">
<title>Node6&#45;&gt;Node3</title>
<path fill="none" stroke="midnightblue" d="M396.09,-52.38C480.38,-54.01 601.11,-56.35 680.86,-57.9"/>
<polygon fill="midnightblue" stroke="midnightblue" points="680.79,-61.4 690.86,-58.09 680.93,-54.4 680.79,-61.4"/>
</g>
<!-- Node7 -->
<g id="node7" class="node">
<title>Node7</title>
<g id="a_node7"><a xlink:href="classfspm_1_1config_1_1params_1_1hierarchy_1_1CategoryHierarchy_a9c1b08f5e63a4e2ae1092e048db34237.html#a9c1b08f5e63a4e2ae1092e048db34237" target="_top" xlink:title=" ">
<polygon fill="none" stroke="black" points="432,-0.5 432,-30.5 655,-30.5 655,-0.5 432,-0.5"/>
<text text-anchor="start" x="440" y="-18.5" font-family="Helvetica,sans-Serif" font-size="10.00">fspm.config.params.hierarchy.</text>
<text text-anchor="middle" x="543.5" y="-7.5" font-family="Helvetica,sans-Serif" font-size="10.00">CategoryHierarchy.getCategoryWithParam</text>
</a>
</g>
</g>
<!-- Node6&#45;&gt;Node7 -->
<g id="edge6" class="edge">
<title>Node6&#45;&gt;Node7</title>
<path fill="none" stroke="midnightblue" d="M396.29,-36.52C406.63,-35.03 417.21,-33.51 427.73,-32"/>
<polygon fill="midnightblue" stroke="midnightblue" points="428.38,-35.44 437.78,-30.55 427.38,-28.51 428.38,-35.44"/>
</g>
<!-- Node7&#45;&gt;Node3 -->
<g id="edge7" class="edge">
<title>Node7&#45;&gt;Node3</title>
<path fill="none" stroke="midnightblue" d="M619.25,-30.52C639.17,-34.52 660.79,-38.86 681.09,-42.94"/>
<polygon fill="midnightblue" stroke="midnightblue" points="680.44,-46.38 690.93,-44.92 681.82,-39.52 680.44,-46.38"/>
</g>
</g>
</svg>
