<?xml version="1.0" encoding="UTF-8" standalone="no"?>
<!DOCTYPE svg PUBLIC "-//W3C//DTD SVG 1.1//EN"
 "http://www.w3.org/Graphics/SVG/1.1/DTD/svg11.dtd">
<!-- Generated by graphviz version 2.43.0 (0)
 -->
<!-- Title: io.github.fruitcropxl.config.params.structures.CategoryStore.isNull Pages: 1 -->
<svg width="1021pt" height="148pt"
 viewBox="0.00 0.00 1021.00 147.66" xmlns="http://www.w3.org/2000/svg" xmlns:xlink="http://www.w3.org/1999/xlink">
<g id="graph0" class="graph" transform="scale(1 1) rotate(0) translate(4 143.66)">
<title>io.github.fruitcropxl.config.params.structures.CategoryStore.isNull</title>
<!-- Node1 -->
<g id="Node000001" class="node">
<title>Node1</title>
<g id="a_Node000001"><a xlink:title=" ">
<polygon fill="#999999" stroke="#666666" points="239,-94 0,-94 0,-64 239,-64 239,-94"/>
<text text-anchor="start" x="8" y="-82" font-family="Helvetica,sans-Serif" font-size="10.00">io.github.fruitcropxl.config.params.structures.</text>
<text text-anchor="middle" x="119.5" y="-71" font-family="Helvetica,sans-Serif" font-size="10.00">CategoryStore.isNull</text>
</a>
</g>
</g>
<!-- Node2 -->
<g id="Node000002" class="node">
<title>Node2</title>
<g id="a_Node000002"><a xlink:href="classio_1_1github_1_1fruitcropxl_1_1config_1_1params_1_1ParamCategory_a51ea686cc7549745dfb4a69fc64d4230.html#a51ea686cc7549745dfb4a69fc64d4230" target="_top" xlink:title=" ">
<polygon fill="white" stroke="#666666" points="488.5,-118 300.5,-118 300.5,-88 488.5,-88 488.5,-118"/>
<text text-anchor="start" x="308.5" y="-106" font-family="Helvetica,sans-Serif" font-size="10.00">io.github.fruitcropxl.config.params.</text>
<text text-anchor="middle" x="394.5" y="-95" font-family="Helvetica,sans-Serif" font-size="10.00">ParamCategory.isNull</text>
</a>
</g>
</g>
<!-- Node1&#45;&gt;Node2 -->
<g id="edge1_Node000001_Node000002" class="edge">
<title>Node1&#45;&gt;Node2</title>
<g id="a_edge1_Node000001_Node000002"><a xlink:title=" ">
<path fill="none" stroke="#63b8ff" d="M239.05,-89.42C255.97,-90.91 273.27,-92.43 289.87,-93.89"/>
<polygon fill="#63b8ff" stroke="#63b8ff" points="289.85,-97.4 300.11,-94.79 290.46,-90.43 289.85,-97.4"/>
</a>
</g>
</g>
<!-- Node5 -->
<g id="Node000005" class="node">
<title>Node5</title>
<g id="a_Node000005"><a xlink:href="classio_1_1github_1_1fruitcropxl_1_1config_1_1params_1_1structures_1_1CategoryStore_aa90095e4111da0b9c60d098de4a89a4f.html#aa90095e4111da0b9c60d098de4a89a4f" target="_top" xlink:title=" ">
<polygon fill="white" stroke="#666666" points="514,-70 275,-70 275,-40 514,-40 514,-70"/>
<text text-anchor="start" x="283" y="-58" font-family="Helvetica,sans-Serif" font-size="10.00">io.github.fruitcropxl.config.params.structures.</text>
<text text-anchor="middle" x="394.5" y="-47" font-family="Helvetica,sans-Serif" font-size="10.00">CategoryStore.validateFlattenedAccess</text>
</a>
</g>
</g>
<!-- Node1&#45;&gt;Node5 -->
<g id="edge4_Node000001_Node000005" class="edge">
<title>Node1&#45;&gt;Node5</title>
<g id="a_edge4_Node000001_Node000005"><a xlink:title=" ">
<path fill="none" stroke="#63b8ff" d="M239.05,-68.58C247.53,-67.83 256.11,-67.08 264.64,-66.33"/>
<polygon fill="#63b8ff" stroke="#63b8ff" points="264.98,-69.81 274.63,-65.45 264.37,-62.84 264.98,-69.81"/>
</a>
</g>
</g>
<!-- Node3 -->
<g id="Node000003" class="node">
<title>Node3</title>
<g id="a_Node000003"><a xlink:href="classio_1_1github_1_1fruitcropxl_1_1config_1_1params_1_1ParamCategory_ad96823e990040d8e36517b130dd87b74.html#ad96823e990040d8e36517b130dd87b74" target="_top" xlink:title="Get generic Parameter with the given key.">
<polygon fill="white" stroke="#666666" points="1013,-73 825,-73 825,-43 1013,-43 1013,-73"/>
<text text-anchor="start" x="833" y="-61" font-family="Helvetica,sans-Serif" font-size="10.00">io.github.fruitcropxl.config.params.</text>
<text text-anchor="middle" x="919" y="-50" font-family="Helvetica,sans-Serif" font-size="10.00">ParamCategory.getParameter</text>
</a>
</g>
</g>
<!-- Node2&#45;&gt;Node3 -->
<g id="edge2_Node000002_Node000003" class="edge">
<title>Node2&#45;&gt;Node3</title>
<g id="a_edge2_Node000002_Node000003"><a xlink:title=" ">
<path fill="none" stroke="#63b8ff" d="M460.28,-118.05C539.15,-133.78 675.84,-152.64 789,-125 825.46,-116.1 863.1,-94.92 888.24,-78.74"/>
<polygon fill="#63b8ff" stroke="#63b8ff" points="890.48,-81.46 896.91,-73.04 886.63,-75.61 890.48,-81.46"/>
</a>
</g>
</g>
<!-- Node4 -->
<g id="Node000004" class="node">
<title>Node4</title>
<g id="a_Node000004"><a xlink:href="classio_1_1github_1_1fruitcropxl_1_1config_1_1params_1_1Parameter_aa989e0ad581b0dc655b75ccbf70cb26e.html#aa989e0ad581b0dc655b75ccbf70cb26e" target="_top" xlink:title=" ">
<polygon fill="white" stroke="#666666" points="763.5,-116 575.5,-116 575.5,-86 763.5,-86 763.5,-116"/>
<text text-anchor="start" x="583.5" y="-104" font-family="Helvetica,sans-Serif" font-size="10.00">io.github.fruitcropxl.config.params.</text>
<text text-anchor="middle" x="669.5" y="-93" font-family="Helvetica,sans-Serif" font-size="10.00">Parameter.isNull</text>
</a>
</g>
</g>
<!-- Node2&#45;&gt;Node4 -->
<g id="edge3_Node000002_Node000004" class="edge">
<title>Node2&#45;&gt;Node4</title>
<g id="a_edge3_Node000002_Node000004"><a xlink:title=" ">
<path fill="none" stroke="#63b8ff" d="M488.69,-102.32C513.26,-102.14 539.92,-101.94 565,-101.76"/>
<polygon fill="#63b8ff" stroke="#63b8ff" points="565.3,-105.26 575.27,-101.68 565.24,-98.26 565.3,-105.26"/>
</a>
</g>
</g>
<!-- Node5&#45;&gt;Node3 -->
<g id="edge7_Node000005_Node000003" class="edge">
<title>Node5&#45;&gt;Node3</title>
<g id="a_edge7_Node000005_Node000003"><a xlink:title=" ">
<path fill="none" stroke="#63b8ff" d="M514.06,-55.68C604.57,-56.2 728.04,-56.91 814.57,-57.41"/>
<polygon fill="#63b8ff" stroke="#63b8ff" points="814.65,-60.91 824.67,-57.46 814.69,-53.91 814.65,-60.91"/>
</a>
</g>
</g>
<!-- Node6 -->
<g id="Node000006" class="node">
<title>Node6</title>
<g id="a_Node000006"><a xlink:href="classio_1_1github_1_1fruitcropxl_1_1config_1_1params_1_1structures_1_1CategoryStore_a9b2ec8a2beb1fd75ac2fb60a9389ac84.html#a9b2ec8a2beb1fd75ac2fb60a9389ac84" target="_top" xlink:title=" ">
<polygon fill="white" stroke="#666666" points="789,-30 550,-30 550,0 789,0 789,-30"/>
<text text-anchor="start" x="558" y="-18" font-family="Helvetica,sans-Serif" font-size="10.00">io.github.fruitcropxl.config.params.structures.</text>
<text text-anchor="middle" x="669.5" y="-7" font-family="Helvetica,sans-Serif" font-size="10.00">CategoryStore.getCategoryWithParam</text>
</a>
</g>
</g>
<!-- Node5&#45;&gt;Node6 -->
<g id="edge5_Node000005_Node000006" class="edge">
<title>Node5&#45;&gt;Node6</title>
<g id="a_edge5_Node000005_Node000006"><a xlink:title=" ">
<path fill="none" stroke="#63b8ff" d="M497.93,-39.99C516.87,-37.22 536.75,-34.3 555.97,-31.49"/>
<polygon fill="#63b8ff" stroke="#63b8ff" points="556.56,-34.94 565.95,-30.03 555.55,-28.01 556.56,-34.94"/>
</a>
</g>
</g>
<!-- Node6&#45;&gt;Node3 -->
<g id="edge6_Node000006_Node000003" class="edge">
<title>Node6&#45;&gt;Node3</title>
<g id="a_edge6_Node000006_Node000003"><a xlink:title=" ">
<path fill="none" stroke="#63b8ff" d="M757.06,-30.04C777.88,-33.66 800.25,-37.54 821.49,-41.23"/>
<polygon fill="#63b8ff" stroke="#63b8ff" points="821.03,-44.71 831.49,-42.97 822.23,-37.81 821.03,-44.71"/>
</a>
</g>
</g>
</g>
</svg>
