<?xml version="1.0" encoding="UTF-8" standalone="no"?>
<!DOCTYPE svg PUBLIC "-//W3C//DTD SVG 1.1//EN"
 "http://www.w3.org/Graphics/SVG/1.1/DTD/svg11.dtd">
<!-- Generated by graphviz version 2.43.0 (0)
 -->
<!-- Title: fspm.config.Config.addGroup Pages: 1 -->
<svg width="577pt" height="137pt"
 viewBox="0.00 0.00 577.00 137.00" xmlns="http://www.w3.org/2000/svg" xmlns:xlink="http://www.w3.org/1999/xlink">
<g id="graph0" class="graph" transform="scale(1 1) rotate(0) translate(4 133)">
<title>fspm.config.Config.addGroup</title>
<!-- Node1 -->
<g id="node1" class="node">
<title>Node1</title>
<g id="a_node1"><a xlink:title=" ">
<polygon fill="#bfbfbf" stroke="black" points="411,-77 411,-96 569,-96 569,-77 411,-77"/>
<text text-anchor="middle" x="490" y="-84" font-family="Helvetica,sans-Serif" font-size="10.00">fspm.config.Config.addGroup</text>
</a>
</g>
</g>
<!-- Node2 -->
<g id="node2" class="node">
<title>Node2</title>
<g id="a_node2"><a xlink:href="classfspm_1_1config_1_1Config_a381d7c4f91bba726f1dc19d493fd3ef8.html#a381d7c4f91bba726f1dc19d493fd3ef8" target="_top" xlink:title=" ">
<polygon fill="none" stroke="black" points="212,-99 212,-118 370,-118 370,-99 212,-99"/>
<text text-anchor="middle" x="291" y="-106" font-family="Helvetica,sans-Serif" font-size="10.00">fspm.config.Config.addGroup</text>
</a>
</g>
</g>
<!-- Node1&#45;&gt;Node2 -->
<g id="edge1" class="edge">
<title>Node1&#45;&gt;Node2</title>
<path fill="none" stroke="midnightblue" d="M400.7,-96.36C390.48,-97.5 380.12,-98.66 370.05,-99.78"/>
<polygon fill="midnightblue" stroke="midnightblue" points="401.31,-99.81 410.86,-95.23 400.53,-92.86 401.31,-99.81"/>
</g>
<!-- Node3 -->
<g id="node3" class="node">
<title>Node3</title>
<g id="a_node3"><a xlink:href="classfspm_1_1config_1_1tests_1_1ParamAccessTestSuite_ae63569c144c7462a35948dda27f2228d.html#ae63569c144c7462a35948dda27f2228d" target="_top" xlink:title=" ">
<polygon fill="none" stroke="black" points="207,-49.5 207,-79.5 375,-79.5 375,-49.5 207,-49.5"/>
<text text-anchor="start" x="215" y="-67.5" font-family="Helvetica,sans-Serif" font-size="10.00">fspm.config.tests.ParamAccess</text>
<text text-anchor="middle" x="291" y="-56.5" font-family="Helvetica,sans-Serif" font-size="10.00">TestSuite.addGroups</text>
</a>
</g>
</g>
<!-- Node1&#45;&gt;Node3 -->
<g id="edge2" class="edge">
<title>Node1&#45;&gt;Node3</title>
<path fill="none" stroke="midnightblue" d="M400.9,-76.66C392.36,-75.71 383.72,-74.74 375.23,-73.79"/>
<polygon fill="midnightblue" stroke="midnightblue" points="400.53,-80.14 410.86,-77.77 401.31,-73.19 400.53,-80.14"/>
</g>
<!-- Node4 -->
<g id="node4" class="node">
<title>Node4</title>
<g id="a_node4"><a xlink:href="classfspm_1_1config_1_1tests_1_1Hierarchy_1_1TableHierarchyTest_a704bbb652137e7f0ee7cbcbfda4371ba.html#a704bbb652137e7f0ee7cbcbfda4371ba" target="_top" xlink:title=" ">
<polygon fill="none" stroke="black" points="9.5,-98.5 9.5,-128.5 161.5,-128.5 161.5,-98.5 9.5,-98.5"/>
<text text-anchor="start" x="17.5" y="-116.5" font-family="Helvetica,sans-Serif" font-size="10.00">fspm.config.tests.Hierarchy.</text>
<text text-anchor="middle" x="85.5" y="-105.5" font-family="Helvetica,sans-Serif" font-size="10.00">TableHierarchyTest.reset</text>
</a>
</g>
</g>
<!-- Node3&#45;&gt;Node4 -->
<g id="edge3" class="edge">
<title>Node3&#45;&gt;Node4</title>
<path fill="none" stroke="midnightblue" d="M217.72,-81.9C195.21,-87.32 170.59,-93.25 148.82,-98.49"/>
<polygon fill="midnightblue" stroke="midnightblue" points="218.66,-85.28 227.56,-79.53 217.02,-78.47 218.66,-85.28"/>
</g>
<!-- Node5 -->
<g id="node5" class="node">
<title>Node5</title>
<g id="a_node5"><a xlink:href="classfspm_1_1config_1_1tests_1_1ParamAccess_1_1ArrayTest_a60540cf6cf3766703ba581adcd6f3e08.html#a60540cf6cf3766703ba581adcd6f3e08" target="_top" xlink:title=" ">
<polygon fill="none" stroke="black" points="0,-49.5 0,-79.5 171,-79.5 171,-49.5 0,-49.5"/>
<text text-anchor="start" x="8" y="-67.5" font-family="Helvetica,sans-Serif" font-size="10.00">fspm.config.tests.ParamAccess.</text>
<text text-anchor="middle" x="85.5" y="-56.5" font-family="Helvetica,sans-Serif" font-size="10.00">ArrayTest.reset</text>
</a>
</g>
</g>
<!-- Node3&#45;&gt;Node5 -->
<g id="edge4" class="edge">
<title>Node3&#45;&gt;Node5</title>
<path fill="none" stroke="midnightblue" d="M196.67,-64.5C188.2,-64.5 179.66,-64.5 171.28,-64.5"/>
<polygon fill="midnightblue" stroke="midnightblue" points="196.94,-68 206.94,-64.5 196.94,-61 196.94,-68"/>
</g>
<!-- Node6 -->
<g id="node6" class="node">
<title>Node6</title>
<g id="a_node6"><a xlink:href="classfspm_1_1config_1_1tests_1_1ParamAccess_1_1SimpleTest_a9cc2fe2607fe05386ecabdd4fbab6480.html#a9cc2fe2607fe05386ecabdd4fbab6480" target="_top" xlink:title=" ">
<polygon fill="none" stroke="black" points="0,-0.5 0,-30.5 171,-30.5 171,-0.5 0,-0.5"/>
<text text-anchor="start" x="8" y="-18.5" font-family="Helvetica,sans-Serif" font-size="10.00">fspm.config.tests.ParamAccess.</text>
<text text-anchor="middle" x="85.5" y="-7.5" font-family="Helvetica,sans-Serif" font-size="10.00">SimpleTest.reset</text>
</a>
</g>
</g>
<!-- Node3&#45;&gt;Node6 -->
<g id="edge5" class="edge">
<title>Node3&#45;&gt;Node6</title>
<path fill="none" stroke="midnightblue" d="M217.72,-47.1C195.21,-41.68 170.59,-35.75 148.82,-30.51"/>
<polygon fill="midnightblue" stroke="midnightblue" points="217.02,-50.53 227.56,-49.47 218.66,-43.72 217.02,-50.53"/>
</g>
</g>
</svg>
