<?xml version="1.0" encoding="UTF-8" standalone="no"?>
<!DOCTYPE svg PUBLIC "-//W3C//DTD SVG 1.1//EN"
 "http://www.w3.org/Graphics/SVG/1.1/DTD/svg11.dtd">
<!-- Generated by graphviz version 2.43.0 (0)
 -->
<!-- Title: io.github.fruitcropxl.config.params.structures.CategoryStore.setCategoryContext Pages: 1 -->
<svg width="970pt" height="86pt"
 viewBox="0.00 0.00 970.00 86.00" xmlns="http://www.w3.org/2000/svg" xmlns:xlink="http://www.w3.org/1999/xlink">
<g id="graph0" class="graph" transform="scale(1 1) rotate(0) translate(4 82)">
<title>io.github.fruitcropxl.config.params.structures.CategoryStore.setCategoryContext</title>
<!-- Node1 -->
<g id="Node000001" class="node">
<title>Node1</title>
<g id="a_Node000001"><a xlink:title="Sets the category context for the CategoryStore.">
<polygon fill="#999999" stroke="#666666" points="239,-54 0,-54 0,-24 239,-24 239,-54"/>
<text text-anchor="start" x="8" y="-42" font-family="Helvetica,sans-Serif" font-size="10.00">io.github.fruitcropxl.config.params.structures.</text>
<text text-anchor="middle" x="119.5" y="-31" font-family="Helvetica,sans-Serif" font-size="10.00">CategoryStore.setCategoryContext</text>
</a>
</g>
</g>
<!-- Node2 -->
<g id="Node000002" class="node">
<title>Node2</title>
<g id="a_Node000002"><a xlink:href="classio_1_1github_1_1fruitcropxl_1_1config_1_1params_1_1structures_1_1CategoryStore_ae7921bf95e6451354dc2960de705971d.html#ae7921bf95e6451354dc2960de705971d" target="_top" xlink:title="Gets the category with the given key.">
<polygon fill="white" stroke="#666666" points="514,-54 275,-54 275,-24 514,-24 514,-54"/>
<text text-anchor="start" x="283" y="-42" font-family="Helvetica,sans-Serif" font-size="10.00">io.github.fruitcropxl.config.params.structures.</text>
<text text-anchor="middle" x="394.5" y="-31" font-family="Helvetica,sans-Serif" font-size="10.00">CategoryStore.getCategory</text>
</a>
</g>
</g>
<!-- Node1&#45;&gt;Node2 -->
<g id="edge1_Node000001_Node000002" class="edge">
<title>Node1&#45;&gt;Node2</title>
<g id="a_edge1_Node000001_Node000002"><a xlink:title=" ">
<path fill="none" stroke="#63b8ff" d="M239.05,-39C247.44,-39 255.92,-39 264.36,-39"/>
<polygon fill="#63b8ff" stroke="#63b8ff" points="264.63,-42.5 274.63,-39 264.63,-35.5 264.63,-42.5"/>
</a>
</g>
</g>
<!-- Node3 -->
<g id="Node000003" class="node">
<title>Node3</title>
<g id="a_Node000003"><a xlink:href="classio_1_1github_1_1fruitcropxl_1_1config_1_1params_1_1ParamCategory_a083b9f85f2c96a5ca12ebbd968a75a67.html#a083b9f85f2c96a5ca12ebbd968a75a67" target="_top" xlink:title=" ">
<polygon fill="white" stroke="#666666" points="738,-54 550,-54 550,-24 738,-24 738,-54"/>
<text text-anchor="start" x="558" y="-42" font-family="Helvetica,sans-Serif" font-size="10.00">io.github.fruitcropxl.config.params.</text>
<text text-anchor="middle" x="644" y="-31" font-family="Helvetica,sans-Serif" font-size="10.00">ParamCategory.get</text>
</a>
</g>
</g>
<!-- Node2&#45;&gt;Node3 -->
<g id="edge2_Node000002_Node000003" class="edge">
<title>Node2&#45;&gt;Node3</title>
<g id="a_edge2_Node000002_Node000003"><a xlink:title=" ">
<path fill="none" stroke="#63b8ff" d="M514.18,-39C522.64,-39 531.14,-39 539.51,-39"/>
<polygon fill="#63b8ff" stroke="#63b8ff" points="539.65,-42.5 549.65,-39 539.65,-35.5 539.65,-42.5"/>
</a>
</g>
</g>
<!-- Node4 -->
<g id="Node000004" class="node">
<title>Node4</title>
<g id="a_Node000004"><a xlink:href="classio_1_1github_1_1fruitcropxl_1_1config_1_1params_1_1ParamCategory_ad96823e990040d8e36517b130dd87b74.html#ad96823e990040d8e36517b130dd87b74" target="_top" xlink:title="Get generic Parameter with the given key.">
<polygon fill="white" stroke="#666666" points="962,-78 774,-78 774,-48 962,-48 962,-78"/>
<text text-anchor="start" x="782" y="-66" font-family="Helvetica,sans-Serif" font-size="10.00">io.github.fruitcropxl.config.params.</text>
<text text-anchor="middle" x="868" y="-55" font-family="Helvetica,sans-Serif" font-size="10.00">ParamCategory.getParameter</text>
</a>
</g>
</g>
<!-- Node3&#45;&gt;Node4 -->
<g id="edge3_Node000003_Node000004" class="edge">
<title>Node3&#45;&gt;Node4</title>
<g id="a_edge3_Node000003_Node000004"><a xlink:title=" ">
<path fill="none" stroke="#63b8ff" d="M738.18,-49.07C746.63,-49.99 755.21,-50.91 763.73,-51.84"/>
<polygon fill="#63b8ff" stroke="#63b8ff" points="763.38,-55.32 773.7,-52.91 764.13,-48.36 763.38,-55.32"/>
</a>
</g>
</g>
<!-- Node5 -->
<g id="Node000005" class="node">
<title>Node5</title>
<g id="a_Node000005"><a xlink:href="classio_1_1github_1_1fruitcropxl_1_1config_1_1params_1_1Parameter_aacab48aea46625c49025845f91364918.html#aacab48aea46625c49025845f91364918" target="_top" xlink:title="Get the value of the parameter as the given type.">
<polygon fill="white" stroke="#666666" points="962,-30 774,-30 774,0 962,0 962,-30"/>
<text text-anchor="start" x="782" y="-18" font-family="Helvetica,sans-Serif" font-size="10.00">io.github.fruitcropxl.config.params.</text>
<text text-anchor="middle" x="868" y="-7" font-family="Helvetica,sans-Serif" font-size="10.00">Parameter.getValue</text>
</a>
</g>
</g>
<!-- Node3&#45;&gt;Node5 -->
<g id="edge4_Node000003_Node000005" class="edge">
<title>Node3&#45;&gt;Node5</title>
<g id="a_edge4_Node000003_Node000005"><a xlink:title=" ">
<path fill="none" stroke="#63b8ff" d="M738.18,-28.93C746.63,-28.01 755.21,-27.09 763.73,-26.16"/>
<polygon fill="#63b8ff" stroke="#63b8ff" points="764.13,-29.64 773.7,-25.09 763.38,-22.68 764.13,-29.64"/>
</a>
</g>
</g>
</g>
</svg>
