<?xml version="1.0" encoding="UTF-8" standalone="no"?>
<!DOCTYPE svg PUBLIC "-//W3C//DTD SVG 1.1//EN"
 "http://www.w3.org/Graphics/SVG/1.1/DTD/svg11.dtd">
<!-- Generated by graphviz version 2.43.0 (0)
 -->
<!-- Title: io.github.fruitcropxl.config.params.Parameter.getValue Pages: 1 -->
<svg width="970pt" height="182pt"
 viewBox="0.00 0.00 970.00 182.00" xmlns="http://www.w3.org/2000/svg" xmlns:xlink="http://www.w3.org/1999/xlink">
<g id="graph0" class="graph" transform="scale(1 1) rotate(0) translate(4 178)">
<title>io.github.fruitcropxl.config.params.Parameter.getValue</title>
<!-- Node1 -->
<g id="Node000001" class="node">
<title>Node1</title>
<g id="a_Node000001"><a xlink:title="Get the value of the parameter as the given type.">
<polygon fill="#999999" stroke="#666666" points="962,-78 774,-78 774,-48 962,-48 962,-78"/>
<text text-anchor="start" x="782" y="-66" font-family="Helvetica,sans-Serif" font-size="10.00">io.github.fruitcropxl.config.params.</text>
<text text-anchor="middle" x="868" y="-55" font-family="Helvetica,sans-Serif" font-size="10.00">Parameter.getValue</text>
</a>
</g>
</g>
<!-- Node2 -->
<g id="Node000002" class="node">
<title>Node2</title>
<g id="a_Node000002"><a xlink:href="classio_1_1github_1_1fruitcropxl_1_1config_1_1params_1_1ParamCategory_a083b9f85f2c96a5ca12ebbd968a75a67.html#a083b9f85f2c96a5ca12ebbd968a75a67" target="_top" xlink:title=" ">
<polygon fill="white" stroke="#666666" points="738,-114 550,-114 550,-84 738,-84 738,-114"/>
<text text-anchor="start" x="558" y="-102" font-family="Helvetica,sans-Serif" font-size="10.00">io.github.fruitcropxl.config.params.</text>
<text text-anchor="middle" x="644" y="-91" font-family="Helvetica,sans-Serif" font-size="10.00">ParamCategory.get</text>
</a>
</g>
</g>
<!-- Node1&#45;&gt;Node2 -->
<g id="edge1_Node000001_Node000002" class="edge">
<title>Node1&#45;&gt;Node2</title>
<g id="a_edge1_Node000001_Node000002"><a xlink:title=" ">
<path fill="none" stroke="#63b8ff" d="M764.45,-79.63C755.54,-81.07 746.57,-82.53 737.75,-83.96"/>
<polygon fill="#63b8ff" stroke="#63b8ff" points="765.15,-83.06 774.46,-78.01 764.03,-76.15 765.15,-83.06"/>
</a>
</g>
</g>
<!-- Node7 -->
<g id="Node000007" class="node">
<title>Node7</title>
<g id="a_Node000007"><a xlink:href="classio_1_1github_1_1fruitcropxl_1_1config_1_1params_1_1ParamTable_a9a19ed9d8e338e803e4309b0a6da4ef9.html#a9a19ed9d8e338e803e4309b0a6da4ef9" target="_top" xlink:title=" ">
<polygon fill="white" stroke="#666666" points="738,-54 550,-54 550,-24 738,-24 738,-54"/>
<text text-anchor="start" x="558" y="-42" font-family="Helvetica,sans-Serif" font-size="10.00">io.github.fruitcropxl.config.params.</text>
<text text-anchor="middle" x="644" y="-31" font-family="Helvetica,sans-Serif" font-size="10.00">ParamTable.get</text>
</a>
</g>
</g>
<!-- Node1&#45;&gt;Node7 -->
<g id="edge6_Node000001_Node000007" class="edge">
<title>Node1&#45;&gt;Node7</title>
<g id="a_edge6_Node000001_Node000007"><a xlink:title=" ">
<path fill="none" stroke="#63b8ff" d="M763.85,-51.85C755.33,-50.93 746.74,-50 738.3,-49.09"/>
<polygon fill="#63b8ff" stroke="#63b8ff" points="763.5,-55.33 773.82,-52.93 764.25,-48.37 763.5,-55.33"/>
</a>
</g>
</g>
<!-- Node3 -->
<g id="Node000003" class="node">
<title>Node3</title>
<g id="a_Node000003"><a xlink:href="classio_1_1github_1_1fruitcropxl_1_1config_1_1params_1_1structures_1_1CategoryStore_a74555272c6dec5c9c88d18e876d875f5.html#a74555272c6dec5c9c88d18e876d875f5" target="_top" xlink:title=" ">
<polygon fill="white" stroke="#666666" points="514,-174 275,-174 275,-144 514,-144 514,-174"/>
<text text-anchor="start" x="283" y="-162" font-family="Helvetica,sans-Serif" font-size="10.00">io.github.fruitcropxl.config.params.structures.</text>
<text text-anchor="middle" x="394.5" y="-151" font-family="Helvetica,sans-Serif" font-size="10.00">CategoryStore.get</text>
</a>
</g>
</g>
<!-- Node2&#45;&gt;Node3 -->
<g id="edge2_Node000002_Node000003" class="edge">
<title>Node2&#45;&gt;Node3</title>
<g id="a_edge2_Node000002_Node000003"><a xlink:title=" ">
<path fill="none" stroke="#63b8ff" d="M582.68,-116.81C561.1,-122.92 536.55,-129.58 514,-135 501.04,-138.12 487.22,-141.16 473.76,-143.98"/>
<polygon fill="#63b8ff" stroke="#63b8ff" points="583.71,-120.15 592.37,-114.04 581.79,-113.42 583.71,-120.15"/>
</a>
</g>
</g>
<!-- Node4 -->
<g id="Node000004" class="node">
<title>Node4</title>
<g id="a_Node000004"><a xlink:href="classio_1_1github_1_1fruitcropxl_1_1config_1_1params_1_1structures_1_1CategoryStore_a1016e54e70a0e99488e485d5084b9073.html#a1016e54e70a0e99488e485d5084b9073" target="_top" xlink:title=" ">
<polygon fill="white" stroke="#666666" points="514,-126 275,-126 275,-96 514,-96 514,-126"/>
<text text-anchor="start" x="283" y="-114" font-family="Helvetica,sans-Serif" font-size="10.00">io.github.fruitcropxl.config.params.structures.</text>
<text text-anchor="middle" x="394.5" y="-103" font-family="Helvetica,sans-Serif" font-size="10.00">CategoryStore.get</text>
</a>
</g>
</g>
<!-- Node2&#45;&gt;Node4 -->
<g id="edge3_Node000002_Node000004" class="edge">
<title>Node2&#45;&gt;Node4</title>
<g id="a_edge3_Node000002_Node000004"><a xlink:title=" ">
<path fill="none" stroke="#63b8ff" d="M539.6,-104.01C531.19,-104.42 522.64,-104.84 514.14,-105.25"/>
<polygon fill="#63b8ff" stroke="#63b8ff" points="539.96,-107.5 549.78,-103.52 539.63,-100.51 539.96,-107.5"/>
</a>
</g>
</g>
<!-- Node5 -->
<g id="Node000005" class="node">
<title>Node5</title>
<g id="a_Node000005"><a xlink:href="classio_1_1github_1_1fruitcropxl_1_1config_1_1params_1_1structures_1_1CategoryStore_ae7921bf95e6451354dc2960de705971d.html#ae7921bf95e6451354dc2960de705971d" target="_top" xlink:title="Gets the category with the given key.">
<polygon fill="white" stroke="#666666" points="514,-78 275,-78 275,-48 514,-48 514,-78"/>
<text text-anchor="start" x="283" y="-66" font-family="Helvetica,sans-Serif" font-size="10.00">io.github.fruitcropxl.config.params.structures.</text>
<text text-anchor="middle" x="394.5" y="-55" font-family="Helvetica,sans-Serif" font-size="10.00">CategoryStore.getCategory</text>
</a>
</g>
</g>
<!-- Node2&#45;&gt;Node5 -->
<g id="edge4_Node000002_Node000005" class="edge">
<title>Node2&#45;&gt;Node5</title>
<g id="a_edge4_Node000002_Node000005"><a xlink:title=" ">
<path fill="none" stroke="#63b8ff" d="M539.59,-83.96C526.17,-82.01 512.42,-80.01 499,-78.05"/>
<polygon fill="#63b8ff" stroke="#63b8ff" points="539.38,-87.47 549.78,-85.44 540.39,-80.54 539.38,-87.47"/>
</a>
</g>
</g>
<!-- Node6 -->
<g id="Node000006" class="node">
<title>Node6</title>
<g id="a_Node000006"><a xlink:href="classio_1_1github_1_1fruitcropxl_1_1config_1_1params_1_1structures_1_1CategoryStore_a5b66766ba5158506c14486e06a93d705.html#a5b66766ba5158506c14486e06a93d705" target="_top" xlink:title="Sets the category context for the CategoryStore.">
<polygon fill="white" stroke="#666666" points="239,-78 0,-78 0,-48 239,-48 239,-78"/>
<text text-anchor="start" x="8" y="-66" font-family="Helvetica,sans-Serif" font-size="10.00">io.github.fruitcropxl.config.params.structures.</text>
<text text-anchor="middle" x="119.5" y="-55" font-family="Helvetica,sans-Serif" font-size="10.00">CategoryStore.setCategoryContext</text>
</a>
</g>
</g>
<!-- Node5&#45;&gt;Node6 -->
<g id="edge5_Node000005_Node000006" class="edge">
<title>Node5&#45;&gt;Node6</title>
<g id="a_edge5_Node000005_Node000006"><a xlink:title=" ">
<path fill="none" stroke="#63b8ff" d="M264.68,-63C256.24,-63 247.76,-63 239.37,-63"/>
<polygon fill="#63b8ff" stroke="#63b8ff" points="264.95,-66.5 274.95,-63 264.95,-59.5 264.95,-66.5"/>
</a>
</g>
</g>
<!-- Node8 -->
<g id="Node000008" class="node">
<title>Node8</title>
<g id="a_Node000008"><a xlink:href="classio_1_1github_1_1fruitcropxl_1_1config_1_1params_1_1structures_1_1TableStore_a7c08cb50dcc88836cdab9104a0b514a9.html#a7c08cb50dcc88836cdab9104a0b514a9" target="_top" xlink:title=" ">
<polygon fill="white" stroke="#666666" points="514,-30 275,-30 275,0 514,0 514,-30"/>
<text text-anchor="start" x="283" y="-18" font-family="Helvetica,sans-Serif" font-size="10.00">io.github.fruitcropxl.config.params.structures.</text>
<text text-anchor="middle" x="394.5" y="-7" font-family="Helvetica,sans-Serif" font-size="10.00">TableStore.getTable</text>
</a>
</g>
</g>
<!-- Node7&#45;&gt;Node8 -->
<g id="edge7_Node000007_Node000008" class="edge">
<title>Node7&#45;&gt;Node8</title>
<g id="a_edge7_Node000007_Node000008"><a xlink:title=" ">
<path fill="none" stroke="#63b8ff" d="M539.6,-28.97C531.19,-28.16 522.64,-27.33 514.14,-26.5"/>
<polygon fill="#63b8ff" stroke="#63b8ff" points="539.49,-32.48 549.78,-29.96 540.17,-25.51 539.49,-32.48"/>
</a>
</g>
</g>
</g>
</svg>
