<?xml version="1.0" encoding="UTF-8" standalone="no"?>
<!DOCTYPE svg PUBLIC "-//W3C//DTD SVG 1.1//EN"
 "http://www.w3.org/Graphics/SVG/1.1/DTD/svg11.dtd">
<!-- Generated by graphviz version 2.43.0 (0)
 -->
<!-- Title: io.github.fruitcropxl.config.params.groups.DocumentCategoryNameGroup Pages: 1 -->
<svg width="351pt" height="306pt"
 viewBox="0.00 0.00 351.00 306.00" xmlns="http://www.w3.org/2000/svg" xmlns:xlink="http://www.w3.org/1999/xlink">
<g id="graph0" class="graph" transform="scale(1 1) rotate(0) translate(4 302)">
<title>io.github.fruitcropxl.config.params.groups.DocumentCategoryNameGroup</title>
<!-- Node1 -->
<g id="Node000001" class="node">
<title>Node1</title>
<g id="a_Node000001"><a xlink:title="Represents and encapsulates access for the document&#45;category&#45;name format.">
<polygon fill="#999999" stroke="transparent" points="343,-105 125,-105 125,0 343,0 343,-105"/>
<text text-anchor="start" x="130" y="-92.5" font-family="Helvetica,sans-Serif" font-size="10.00">io.github.fruitcropxl.config.params.groups.</text>
<text text-anchor="start" x="157" y="-81.5" font-family="Helvetica,sans-Serif" font-size="10.00">DocumentCategoryNameGroup</text>
<text text-anchor="start" x="232" y="-66.5" font-family="Helvetica,sans-Serif" font-size="10.00"> </text>
<text text-anchor="start" x="138" y="-51.5" font-family="Helvetica,sans-Serif" font-size="10.00">+</text>
<text text-anchor="start" x="160" y="-51.5" font-family="Helvetica,sans-Serif" font-size="10.00">DocumentCategoryNameGroup()</text>
<text text-anchor="start" x="138" y="-36.5" font-family="Helvetica,sans-Serif" font-size="10.00">+</text>
<text text-anchor="start" x="160" y="-36.5" font-family="Helvetica,sans-Serif" font-size="10.00">getCategoryStore()</text>
<text text-anchor="start" x="138" y="-21.5" font-family="Helvetica,sans-Serif" font-size="10.00">+</text>
<text text-anchor="start" x="160" y="-21.5" font-family="Helvetica,sans-Serif" font-size="10.00">toString()</text>
<text text-anchor="start" x="138" y="-6.5" font-family="Helvetica,sans-Serif" font-size="10.00">+</text>
<text text-anchor="start" x="160" y="-6.5" font-family="Helvetica,sans-Serif" font-size="10.00">parse()</text>
<polygon fill="#666666" stroke="#666666" points="125,-76.5 125,-76.5 343,-76.5 343,-76.5 125,-76.5"/>
<polygon fill="#666666" stroke="#666666" points="125,-61.5 125,-61.5 343,-61.5 343,-61.5 125,-61.5"/>
<polygon fill="none" stroke="#666666" points="125,0 125,-105 343,-105 343,0 125,0"/>
</a>
</g>
</g>
<!-- Node2 -->
<g id="Node000002" class="node">
<title>Node2</title>
<g id="a_Node000002"><a xlink:href="classio_1_1github_1_1fruitcropxl_1_1config_1_1params_1_1groups_1_1ParamGroup.html" target="_top" xlink:title="Parameter configuration class for storing parameter categories.">
<polygon fill="white" stroke="transparent" points="218,-212 0,-212 0,-152 218,-152 218,-212"/>
<text text-anchor="start" x="5" y="-200" font-family="Helvetica,sans-Serif" font-size="10.00">io.github.fruitcropxl.config.params.groups.</text>
<text text-anchor="start" x="78.5" y="-189" font-family="Helvetica,sans-Serif" font-size="10.00">ParamGroup</text>
<text text-anchor="start" x="107" y="-174" font-family="Helvetica,sans-Serif" font-size="10.00"> </text>
<text text-anchor="start" x="36" y="-159" font-family="Helvetica,sans-Serif" font-size="10.00">#</text>
<text text-anchor="start" x="81" y="-159" font-family="Helvetica,sans-Serif" font-size="10.00">ParamGroup()</text>
<polygon fill="#666666" stroke="#666666" points="0,-184 0,-184 218,-184 218,-184 0,-184"/>
<polygon fill="#666666" stroke="#666666" points="0,-169 0,-169 218,-169 218,-169 0,-169"/>
<polygon fill="none" stroke="#666666" points="0,-152 0,-212 218,-212 218,-152 0,-152"/>
</a>
</g>
</g>
<!-- Node2&#45;&gt;Node1 -->
<g id="edge1_Node000001_Node000002" class="edge">
<title>Node2&#45;&gt;Node1</title>
<g id="a_edge1_Node000001_Node000002"><a xlink:title=" ">
<path fill="none" stroke="#63b8ff" d="M144.91,-144.37C156.9,-132.14 170.49,-118.28 183.38,-105.13"/>
<polygon fill="none" stroke="#63b8ff" points="142.18,-142.16 137.68,-151.75 147.18,-147.06 142.18,-142.16"/>
</a>
</g>
</g>
<!-- Node3 -->
<g id="Node000003" class="node">
<title>Node3</title>
<g id="a_Node000003"><a xlink:href="classKeyElement.html" target="_top" xlink:title=" ">
<polygon fill="white" stroke="transparent" points="143.5,-298 74.5,-298 74.5,-249 143.5,-249 143.5,-298"/>
<text text-anchor="start" x="80" y="-285.5" font-family="Helvetica,sans-Serif" font-size="10.00">KeyElement</text>
<text text-anchor="start" x="107.5" y="-270.5" font-family="Helvetica,sans-Serif" font-size="10.00"> </text>
<text text-anchor="start" x="107.5" y="-255.5" font-family="Helvetica,sans-Serif" font-size="10.00"> </text>
<polygon fill="#666666" stroke="#666666" points="75,-280.5 75,-280.5 144,-280.5 144,-280.5 75,-280.5"/>
<polygon fill="#666666" stroke="#666666" points="75,-265.5 75,-265.5 144,-265.5 144,-265.5 75,-265.5"/>
<polygon fill="none" stroke="#666666" points="74.5,-249 74.5,-298 143.5,-298 143.5,-249 74.5,-249"/>
</a>
</g>
</g>
<!-- Node3&#45;&gt;Node2 -->
<g id="edge2_Node000002_Node000003" class="edge">
<title>Node3&#45;&gt;Node2</title>
<g id="a_edge2_Node000002_Node000003"><a xlink:title=" ">
<path fill="none" stroke="#63b8ff" d="M109,-238.7C109,-229.95 109,-220.6 109,-212.12"/>
<polygon fill="none" stroke="#63b8ff" points="105.5,-238.98 109,-248.98 112.5,-238.98 105.5,-238.98"/>
</a>
</g>
</g>
<!-- Node4 -->
<g id="Node000004" class="node">
<title>Node4</title>
<g id="a_Node000004"><a xlink:title=" ">
<polygon fill="white" stroke="transparent" points="316,-206.5 236,-206.5 236,-157.5 316,-157.5 316,-206.5"/>
<text text-anchor="start" x="241" y="-194" font-family="Helvetica,sans-Serif" font-size="10.00">CategoryStore</text>
<text text-anchor="start" x="274" y="-179" font-family="Helvetica,sans-Serif" font-size="10.00"> </text>
<text text-anchor="start" x="274" y="-164" font-family="Helvetica,sans-Serif" font-size="10.00"> </text>
<polygon fill="#666666" stroke="#666666" points="236,-189 236,-189 316,-189 316,-189 236,-189"/>
<polygon fill="#666666" stroke="#666666" points="236,-174 236,-174 316,-174 316,-174 236,-174"/>
<polygon fill="none" stroke="#666666" points="236,-157.5 236,-206.5 316,-206.5 316,-157.5 236,-157.5"/>
</a>
</g>
</g>
<!-- Node4&#45;&gt;Node1 -->
<g id="edge3_Node000001_Node000004" class="edge">
<title>Node4&#45;&gt;Node1</title>
<g id="a_edge3_Node000001_Node000004"><a xlink:title=" ">
<path fill="none" stroke="#63b8ff" d="M268.2,-157.32C264.38,-145.72 259.58,-131.16 254.8,-116.64"/>
<polygon fill="none" stroke="#63b8ff" points="254.74,-116.46 249.06,-112.01 250.98,-105.06 256.66,-109.5 254.74,-116.46"/>
</a>
</g>
<text text-anchor="middle" x="297" y="-126" font-family="Helvetica,sans-Serif" font-size="10.00" fill="grey"> &#45;categoryStore</text>
</g>
</g>
</svg>
