<?xml version="1.0" encoding="UTF-8" standalone="no"?>
<!DOCTYPE svg PUBLIC "-//W3C//DTD SVG 1.1//EN"
 "http://www.w3.org/Graphics/SVG/1.1/DTD/svg11.dtd">
<!-- Generated by graphviz version 2.43.0 (0)
 -->
<!-- Title: fspm.config.ConfigTest.test_getNullAsTypes Pages: 1 -->
<!--zoomable 351 -->
<svg id="main" version="1.1" xmlns="http://www.w3.org/2000/svg" xmlns:xlink="http://www.w3.org/1999/xlink" xml:space="preserve" onload="init(evt)">
<style type="text/css"><![CDATA[
.edge:hover path { stroke: red; }
.edge:hover polygon { stroke: red; fill: red; }
]]></style>
<script type="text/javascript"><![CDATA[
var edges = document.getElementsByTagName('g');
if (edges && edges.length) {
  for (var i=0;i<edges.length;i++) {
    if (edges[i].id.substr(0,4)=='edge') {
      edges[i].setAttribute('class','edge');
    }
  }
}
]]></script>
        <defs>
                <circle id="rim" cx="0" cy="0" r="7"/>
                <circle id="rim2" cx="0" cy="0" r="3.5"/>
                <g id="zoomPlus">
                        <use xlink:href="#rim" fill="#404040">
                                <set attributeName="fill" to="#808080" begin="zoomplus.mouseover" end="zoomplus.mouseout"/>
                        </use>
                        <path d="M-4,0h8M0,-4v8" fill="none" stroke="white" stroke-width="1.5" pointer-events="none"/>
                </g>
                <g id="zoomMin">
                        <use xlink:href="#rim" fill="#404040">
                                <set attributeName="fill" to="#808080" begin="zoomminus.mouseover" end="zoomminus.mouseout"/>
                        </use>
                        <path d="M-4,0h8" fill="none" stroke="white" stroke-width="1.5" pointer-events="none"/>
                </g>
                <g id="dirArrow">
                        <path fill="none" stroke="white" stroke-width="1.5" d="M0,-3.0v7 M-2.5,-0.5L0,-3.0L2.5,-0.5"/>
                </g>
               <g id="resetDef">
                       <use xlink:href="#rim2" fill="#404040">
                               <set attributeName="fill" to="#808080" begin="reset.mouseover" end="reset.mouseout"/>
                       </use>
               </g>
        </defs>

<script type="text/javascript">
var viewWidth = 1102;
var viewHeight = 351;
var sectionId = 'dynsection-0';
</script>
<script xlink:href="svgpan.js"/>
<svg id="graph" class="graph">
<g id="viewport">
<title>fspm.config.ConfigTest.test_getNullAsTypes</title>
<!-- Node1 -->
<g id="node1" class="node">
<title>Node1</title>
<g id="a_node1"><a xlink:title=" ">
<polygon fill="#bfbfbf" stroke="black" points="0,-189.5 0,-219.5 149,-219.5 149,-189.5 0,-189.5"/>
<text text-anchor="start" x="8" y="-207.5" font-family="Helvetica,sans-Serif" font-size="10.00">fspm.config.ConfigTest.test</text>
<text text-anchor="middle" x="74.5" y="-196.5" font-family="Helvetica,sans-Serif" font-size="10.00">_getNullAsTypes</text>
</a>
</g>
</g>
<!-- Node2 -->
<g id="node2" class="node">
<title>Node2</title>
<g id="a_node2"><a xlink:href="classfspm_1_1config_1_1Config_ae462a8b94814530c25f796f0b4f48115.html#ae462a8b94814530c25f796f0b4f48115" target="_top" xlink:title=" ">
<polygon fill="none" stroke="black" points="185,-271 185,-290 346,-290 346,-271 185,-271"/>
<text text-anchor="middle" x="265.5" y="-278" font-family="Helvetica,sans-Serif" font-size="10.00">fspm.config.Config.getDouble</text>
</a>
</g>
</g>
<!-- Node1&#45;&gt;Node2 -->
<g id="edge1" class="edge">
<title>Node1&#45;&gt;Node2</title>
<path fill="none" stroke="midnightblue" d="M100.35,-219.69C122.03,-232.38 154.68,-250.18 185,-261.5 191.76,-264.02 198.98,-266.3 206.2,-268.32"/>
<polygon fill="midnightblue" stroke="midnightblue" points="205.44,-271.74 216.01,-270.91 207.23,-264.97 205.44,-271.74"/>
</g>
<!-- Node13 -->
<g id="node13" class="node">
<title>Node13</title>
<g id="a_node13"><a xlink:href="classfspm_1_1config_1_1Config_a5e0b8f5ad9a3ead9ec4c4ab031918b94.html#a5e0b8f5ad9a3ead9ec4c4ab031918b94" target="_top" xlink:title=" ">
<polygon fill="none" stroke="black" points="185,-233 185,-252 346,-252 346,-233 185,-233"/>
<text text-anchor="middle" x="265.5" y="-240" font-family="Helvetica,sans-Serif" font-size="10.00">fspm.config.Config.getInteger</text>
</a>
</g>
</g>
<!-- Node1&#45;&gt;Node13 -->
<g id="edge14" class="edge">
<title>Node1&#45;&gt;Node13</title>
<path fill="none" stroke="midnightblue" d="M149.11,-219.3C168.44,-223.19 188.99,-227.32 207.32,-231"/>
<polygon fill="midnightblue" stroke="midnightblue" points="206.75,-234.46 217.25,-233 208.13,-227.6 206.75,-234.46"/>
</g>
<!-- Node15 -->
<g id="node15" class="node">
<title>Node15</title>
<g id="a_node15"><a xlink:href="classfspm_1_1config_1_1Config_a3be13c8aecc91ab1cd95692ec65df305.html#a3be13c8aecc91ab1cd95692ec65df305" target="_top" xlink:title=" ">
<polygon fill="none" stroke="black" points="188,-157 188,-176 343,-176 343,-157 188,-157"/>
<text text-anchor="middle" x="265.5" y="-164" font-family="Helvetica,sans-Serif" font-size="10.00">fspm.config.Config.getString</text>
</a>
</g>
</g>
<!-- Node1&#45;&gt;Node15 -->
<g id="edge19" class="edge">
<title>Node1&#45;&gt;Node15</title>
<path fill="none" stroke="midnightblue" d="M149.11,-189.7C168.44,-185.81 188.99,-181.68 207.32,-178"/>
<polygon fill="midnightblue" stroke="midnightblue" points="208.13,-181.4 217.25,-176 206.75,-174.54 208.13,-181.4"/>
</g>
<!-- Node17 -->
<g id="node17" class="node">
<title>Node17</title>
<g id="a_node17"><a xlink:href="classfspm_1_1config_1_1Config_a23eaad13093f0089ec76d726607956b5.html#a23eaad13093f0089ec76d726607956b5" target="_top" xlink:title=" ">
<polygon fill="none" stroke="black" points="196.5,-195 196.5,-214 334.5,-214 334.5,-195 196.5,-195"/>
<text text-anchor="middle" x="265.5" y="-202" font-family="Helvetica,sans-Serif" font-size="10.00">fspm.config.Config.isNull</text>
</a>
</g>
</g>
<!-- Node1&#45;&gt;Node17 -->
<g id="edge24" class="edge">
<title>Node1&#45;&gt;Node17</title>
<path fill="none" stroke="midnightblue" d="M149.11,-204.5C161.26,-204.5 173.89,-204.5 186.15,-204.5"/>
<polygon fill="midnightblue" stroke="midnightblue" points="186.34,-208 196.34,-204.5 186.34,-201 186.34,-208"/>
</g>
<!-- Node18 -->
<g id="node18" class="node">
<title>Node18</title>
<g id="a_node18"><a xlink:href="classfspm_1_1config_1_1ConfigTest_a1f7ba3e24b4e27a319db83eb75e9f691.html#a1f7ba3e24b4e27a319db83eb75e9f691" target="_top" xlink:title=" ">
<polygon fill="none" stroke="black" points="185,-119 185,-138 346,-138 346,-119 185,-119"/>
<text text-anchor="middle" x="265.5" y="-126" font-family="Helvetica,sans-Serif" font-size="10.00">fspm.config.ConfigTest.println</text>
</a>
</g>
</g>
<!-- Node1&#45;&gt;Node18 -->
<g id="edge27" class="edge">
<title>Node1&#45;&gt;Node18</title>
<path fill="none" stroke="midnightblue" d="M100.35,-189.31C122.03,-176.62 154.68,-158.82 185,-147.5 191.76,-144.98 198.98,-142.7 206.2,-140.68"/>
<polygon fill="midnightblue" stroke="midnightblue" points="207.23,-144.03 216.01,-138.09 205.44,-137.26 207.23,-144.03"/>
</g>
<!-- Node3 -->
<g id="node3" class="node">
<title>Node3</title>
<g id="a_node3"><a xlink:href="classfspm_1_1config_1_1Config_abce61aaf26cf14b4ae2204ff22c27b57.html#abce61aaf26cf14b4ae2204ff22c27b57" target="_top" xlink:title=" ">
<polygon fill="none" stroke="black" points="386,-126.5 386,-156.5 525,-156.5 525,-126.5 386,-126.5"/>
<text text-anchor="start" x="394" y="-144.5" font-family="Helvetica,sans-Serif" font-size="10.00">fspm.config.Config.check</text>
<text text-anchor="middle" x="455.5" y="-133.5" font-family="Helvetica,sans-Serif" font-size="10.00">ContextsExists</text>
</a>
</g>
</g>
<!-- Node2&#45;&gt;Node3 -->
<g id="edge2" class="edge">
<title>Node2&#45;&gt;Node3</title>
<path fill="none" stroke="midnightblue" d="M331.29,-270.94C336.62,-268.44 341.63,-265.34 346,-261.5 379.9,-231.67 349.59,-197.94 382,-166.5 383.63,-164.92 385.37,-163.44 387.18,-162.05"/>
<polygon fill="midnightblue" stroke="midnightblue" points="389.16,-164.93 395.63,-156.54 385.34,-159.07 389.16,-164.93"/>
</g>
<!-- Node10 -->
<g id="node10" class="node">
<title>Node10</title>
<g id="a_node10"><a xlink:href="classfspm_1_1config_1_1params_1_1ParamCategory_ad9163381c1dfed699d3d74b2d36c1893.html#ad9163381c1dfed699d3d74b2d36c1893" target="_top" xlink:title=" ">
<polygon fill="none" stroke="black" points="382,-312.5 382,-342.5 529,-342.5 529,-312.5 382,-312.5"/>
<text text-anchor="start" x="390" y="-330.5" font-family="Helvetica,sans-Serif" font-size="10.00">fspm.config.params.Param</text>
<text text-anchor="middle" x="455.5" y="-319.5" font-family="Helvetica,sans-Serif" font-size="10.00">Category.getDouble</text>
</a>
</g>
</g>
<!-- Node2&#45;&gt;Node10 -->
<g id="edge10" class="edge">
<title>Node2&#45;&gt;Node10</title>
<path fill="none" stroke="midnightblue" d="M304.54,-290.01C327.48,-295.74 357.4,-303.22 384.48,-309.99"/>
<polygon fill="midnightblue" stroke="midnightblue" points="383.75,-313.42 394.3,-312.45 385.45,-306.63 383.75,-313.42"/>
</g>
<!-- Node4 -->
<g id="node4" class="node">
<title>Node4</title>
<g id="a_node4"><a xlink:href="classfspm_1_1config_1_1Config_a3024c037d3ee426c410cb46ee2cd3497.html#a3024c037d3ee426c410cb46ee2cd3497" target="_top" xlink:title=" ">
<polygon fill="none" stroke="black" points="577,-142.5 577,-172.5 716,-172.5 716,-142.5 577,-142.5"/>
<text text-anchor="start" x="585" y="-160.5" font-family="Helvetica,sans-Serif" font-size="10.00">fspm.config.Config.check</text>
<text text-anchor="middle" x="646.5" y="-149.5" font-family="Helvetica,sans-Serif" font-size="10.00">GroupContextExists</text>
</a>
</g>
</g>
<!-- Node3&#45;&gt;Node4 -->
<g id="edge3" class="edge">
<title>Node3&#45;&gt;Node4</title>
<path fill="none" stroke="midnightblue" d="M525,-147.3C538.6,-148.45 552.98,-149.67 566.89,-150.85"/>
<polygon fill="midnightblue" stroke="midnightblue" points="566.66,-154.34 576.92,-151.69 567.25,-147.36 566.66,-154.34"/>
</g>
<!-- Node5 -->
<g id="node5" class="node">
<title>Node5</title>
<g id="a_node5"><a xlink:href="classfspm_1_1config_1_1params_1_1ParamCategory_a4e9b4d10f0f293ae181dd272d302d9b4.html#a4e9b4d10f0f293ae181dd272d302d9b4" target="_top" xlink:title="Get generic Parameter with the given key.">
<polygon fill="none" stroke="black" points="764,-49.5 764,-79.5 911,-79.5 911,-49.5 764,-49.5"/>
<text text-anchor="start" x="772" y="-67.5" font-family="Helvetica,sans-Serif" font-size="10.00">fspm.config.params.Param</text>
<text text-anchor="middle" x="837.5" y="-56.5" font-family="Helvetica,sans-Serif" font-size="10.00">Category.get</text>
</a>
</g>
</g>
<!-- Node3&#45;&gt;Node5 -->
<g id="edge4" class="edge">
<title>Node3&#45;&gt;Node5</title>
<path fill="none" stroke="midnightblue" d="M478.17,-126.35C499.27,-112.49 532.78,-92.78 565,-83.5 626.53,-65.78 699,-61.5 753.58,-61.39"/>
<polygon fill="midnightblue" stroke="midnightblue" points="753.89,-64.89 763.9,-61.42 753.91,-57.89 753.89,-64.89"/>
</g>
<!-- Node7 -->
<g id="node7" class="node">
<title>Node7</title>
<g id="a_node7"><a xlink:href="classfspm_1_1config_1_1params_1_1ParamGroup_a4ac641bb901b13ad2186c3d4fe0a75c9.html#a4ac641bb901b13ad2186c3d4fe0a75c9" target="_top" xlink:title=" ">
<polygon fill="none" stroke="black" points="565.5,-5.5 565.5,-35.5 727.5,-35.5 727.5,-5.5 565.5,-5.5"/>
<text text-anchor="start" x="573.5" y="-23.5" font-family="Helvetica,sans-Serif" font-size="10.00">fspm.config.params.Param</text>
<text text-anchor="middle" x="646.5" y="-12.5" font-family="Helvetica,sans-Serif" font-size="10.00">Group.getCategoryWithParam</text>
</a>
</g>
</g>
<!-- Node3&#45;&gt;Node7 -->
<g id="edge6" class="edge">
<title>Node3&#45;&gt;Node7</title>
<path fill="none" stroke="midnightblue" d="M471.05,-126.44C490.77,-106.72 527.82,-72.15 565,-50.5 572.06,-46.39 579.77,-42.67 587.55,-39.35"/>
<polygon fill="midnightblue" stroke="midnightblue" points="589.07,-42.51 597.02,-35.51 586.44,-36.03 589.07,-42.51"/>
</g>
<!-- Node9 -->
<g id="node9" class="node">
<title>Node9</title>
<g id="a_node9"><a xlink:href="classfspm_1_1config_1_1Config_aa3784bee8f29e4340b60735055eb41a6.html#aa3784bee8f29e4340b60735055eb41a6" target="_top" xlink:title=" ">
<polygon fill="none" stroke="black" points="565,-93.5 565,-123.5 728,-123.5 728,-93.5 565,-93.5"/>
<text text-anchor="start" x="573" y="-111.5" font-family="Helvetica,sans-Serif" font-size="10.00">fspm.config.Config.isCategory</text>
<text text-anchor="middle" x="646.5" y="-100.5" font-family="Helvetica,sans-Serif" font-size="10.00">ContextExists</text>
</a>
</g>
</g>
<!-- Node3&#45;&gt;Node9 -->
<g id="edge9" class="edge">
<title>Node3&#45;&gt;Node9</title>
<path fill="none" stroke="midnightblue" d="M525,-129.54C534.67,-127.85 544.73,-126.1 554.73,-124.35"/>
<polygon fill="midnightblue" stroke="midnightblue" points="555.45,-127.78 564.7,-122.61 554.25,-120.88 555.45,-127.78"/>
</g>
<!-- Node6 -->
<g id="node6" class="node">
<title>Node6</title>
<g id="a_node6"><a xlink:href="classfspm_1_1config_1_1params_1_1ParamCategory_aac7a0ce7ab7fafe895ba689f644818ab.html#aac7a0ce7ab7fafe895ba689f644818ab" target="_top" xlink:title=" ">
<polygon fill="none" stroke="black" points="947,-49.5 947,-79.5 1094,-79.5 1094,-49.5 947,-49.5"/>
<text text-anchor="start" x="955" y="-67.5" font-family="Helvetica,sans-Serif" font-size="10.00">fspm.config.params.Param</text>
<text text-anchor="middle" x="1020.5" y="-56.5" font-family="Helvetica,sans-Serif" font-size="10.00">Category.getKey</text>
</a>
</g>
</g>
<!-- Node5&#45;&gt;Node6 -->
<g id="edge5" class="edge">
<title>Node5&#45;&gt;Node6</title>
<path fill="none" stroke="midnightblue" d="M911.08,-64.5C919.56,-64.5 928.26,-64.5 936.87,-64.5"/>
<polygon fill="midnightblue" stroke="midnightblue" points="936.91,-68 946.91,-64.5 936.91,-61 936.91,-68"/>
</g>
<!-- Node7&#45;&gt;Node5 -->
<g id="edge7" class="edge">
<title>Node7&#45;&gt;Node5</title>
<path fill="none" stroke="midnightblue" d="M712.01,-35.52C728.04,-39.25 745.36,-43.28 761.83,-47.12"/>
<polygon fill="midnightblue" stroke="midnightblue" points="761.42,-50.62 771.96,-49.47 763.01,-43.8 761.42,-50.62"/>
</g>
<!-- Node8 -->
<g id="node8" class="node">
<title>Node8</title>
<g id="a_node8"><a xlink:href="classfspm_1_1config_1_1params_1_1ParamGroup_a87d9e7182014d1d981c4067083815878.html#a87d9e7182014d1d981c4067083815878" target="_top" xlink:title=" ">
<polygon fill="none" stroke="black" points="764,-0.5 764,-30.5 911,-30.5 911,-0.5 764,-0.5"/>
<text text-anchor="start" x="772" y="-18.5" font-family="Helvetica,sans-Serif" font-size="10.00">fspm.config.params.Param</text>
<text text-anchor="middle" x="837.5" y="-7.5" font-family="Helvetica,sans-Serif" font-size="10.00">Group.getKey</text>
</a>
</g>
</g>
<!-- Node7&#45;&gt;Node8 -->
<g id="edge8" class="edge">
<title>Node7&#45;&gt;Node8</title>
<path fill="none" stroke="midnightblue" d="M727.65,-18.38C736.26,-18.15 745.03,-17.92 753.66,-17.69"/>
<polygon fill="midnightblue" stroke="midnightblue" points="753.82,-21.19 763.72,-17.43 753.63,-14.19 753.82,-21.19"/>
</g>
<!-- Node11 -->
<g id="node11" class="node">
<title>Node11</title>
<g id="a_node11"><a xlink:href="classfspm_1_1config_1_1params_1_1ParamCategory_aa2e79c693bd5784e3397c328d6363ba9.html#aa2e79c693bd5784e3397c328d6363ba9" target="_top" xlink:title="Helper method to get the parameter of a given key, if it is an instance of the Parameter type class p...">
<polygon fill="none" stroke="black" points="764,-252.5 764,-282.5 911,-282.5 911,-252.5 764,-252.5"/>
<text text-anchor="start" x="772" y="-270.5" font-family="Helvetica,sans-Serif" font-size="10.00">fspm.config.params.Param</text>
<text text-anchor="middle" x="837.5" y="-259.5" font-family="Helvetica,sans-Serif" font-size="10.00">Category.getIfInstanceOf</text>
</a>
</g>
</g>
<!-- Node10&#45;&gt;Node11 -->
<g id="edge11" class="edge">
<title>Node10&#45;&gt;Node11</title>
<path fill="none" stroke="midnightblue" d="M529.17,-317C583.89,-308.98 660.72,-297.47 728,-286.5 736.43,-285.12 745.23,-283.65 754,-282.15"/>
<polygon fill="midnightblue" stroke="midnightblue" points="754.61,-285.6 763.88,-280.46 753.43,-278.7 754.61,-285.6"/>
</g>
<!-- Node12 -->
<g id="node12" class="node">
<title>Node12</title>
<g id="a_node12"><a xlink:href="classfspm_1_1config_1_1params_1_1ParamCategory_a9df71240a840aa7875fdd8834c4cdbde.html#a9df71240a840aa7875fdd8834c4cdbde" target="_top" xlink:title="Check and return if is NullParam.">
<polygon fill="none" stroke="black" points="573,-230.5 573,-260.5 720,-260.5 720,-230.5 573,-230.5"/>
<text text-anchor="start" x="581" y="-248.5" font-family="Helvetica,sans-Serif" font-size="10.00">fspm.config.params.Param</text>
<text text-anchor="middle" x="646.5" y="-237.5" font-family="Helvetica,sans-Serif" font-size="10.00">Category.isNull</text>
</a>
</g>
</g>
<!-- Node10&#45;&gt;Node12 -->
<g id="edge12" class="edge">
<title>Node10&#45;&gt;Node12</title>
<path fill="none" stroke="midnightblue" d="M505.21,-312.44C513.23,-309.65 521.4,-306.63 529,-303.5 556.36,-292.23 586.21,-277.31 608.85,-265.43"/>
<polygon fill="midnightblue" stroke="midnightblue" points="610.57,-268.48 617.77,-260.71 607.29,-262.29 610.57,-268.48"/>
</g>
<!-- Node12&#45;&gt;Node11 -->
<g id="edge13" class="edge">
<title>Node12&#45;&gt;Node11</title>
<path fill="none" stroke="midnightblue" d="M720.03,-253.94C731.03,-255.22 742.45,-256.55 753.65,-257.86"/>
<polygon fill="midnightblue" stroke="midnightblue" points="753.51,-261.36 763.85,-259.04 754.32,-254.41 753.51,-261.36"/>
</g>
<!-- Node13&#45;&gt;Node3 -->
<g id="edge15" class="edge">
<title>Node13&#45;&gt;Node3</title>
<path fill="none" stroke="midnightblue" d="M328.1,-232.95C334.46,-230.48 340.58,-227.38 346,-223.5 370.37,-206.07 358.51,-185.1 382,-166.5 384.3,-164.68 386.74,-162.99 389.28,-161.41"/>
<polygon fill="midnightblue" stroke="midnightblue" points="391.15,-164.38 398.24,-156.51 387.79,-158.24 391.15,-164.38"/>
</g>
<!-- Node14 -->
<g id="node14" class="node">
<title>Node14</title>
<g id="a_node14"><a xlink:href="classfspm_1_1config_1_1params_1_1ParamCategory_a176eab656e051784323f2132a4994fc6.html#a176eab656e051784323f2132a4994fc6" target="_top" xlink:title=" ">
<polygon fill="none" stroke="black" points="382,-263.5 382,-293.5 529,-293.5 529,-263.5 382,-263.5"/>
<text text-anchor="start" x="390" y="-281.5" font-family="Helvetica,sans-Serif" font-size="10.00">fspm.config.params.Param</text>
<text text-anchor="middle" x="455.5" y="-270.5" font-family="Helvetica,sans-Serif" font-size="10.00">Category.getInteger</text>
</a>
</g>
</g>
<!-- Node13&#45;&gt;Node14 -->
<g id="edge16" class="edge">
<title>Node13&#45;&gt;Node14</title>
<path fill="none" stroke="midnightblue" d="M316.39,-252.05C333.35,-255.3 352.8,-259.03 371.64,-262.63"/>
<polygon fill="midnightblue" stroke="midnightblue" points="371.24,-266.12 381.72,-264.56 372.56,-259.25 371.24,-266.12"/>
</g>
<!-- Node14&#45;&gt;Node11 -->
<g id="edge17" class="edge">
<title>Node14&#45;&gt;Node11</title>
<path fill="none" stroke="midnightblue" d="M529.32,-276.39C593.48,-274.53 686.89,-271.83 753.83,-269.89"/>
<polygon fill="midnightblue" stroke="midnightblue" points="754.03,-273.39 763.93,-269.6 753.83,-266.39 754.03,-273.39"/>
</g>
<!-- Node14&#45;&gt;Node12 -->
<g id="edge18" class="edge">
<title>Node14&#45;&gt;Node12</title>
<path fill="none" stroke="midnightblue" d="M529.03,-265.84C540.14,-263.9 551.68,-261.88 562.99,-259.91"/>
<polygon fill="midnightblue" stroke="midnightblue" points="563.6,-263.35 572.85,-258.18 562.4,-256.46 563.6,-263.35"/>
</g>
<!-- Node15&#45;&gt;Node3 -->
<g id="edge20" class="edge">
<title>Node15&#45;&gt;Node3</title>
<path fill="none" stroke="midnightblue" d="M338.11,-156.98C350.47,-155.33 363.39,-153.62 375.92,-151.95"/>
<polygon fill="midnightblue" stroke="midnightblue" points="376.43,-155.41 385.88,-150.63 375.5,-148.47 376.43,-155.41"/>
</g>
<!-- Node16 -->
<g id="node16" class="node">
<title>Node16</title>
<g id="a_node16"><a xlink:href="classfspm_1_1config_1_1params_1_1ParamCategory_a18b0a3b2a74f69aa936eaecf40927c5a.html#a18b0a3b2a74f69aa936eaecf40927c5a" target="_top" xlink:title=" ">
<polygon fill="none" stroke="black" points="382,-175.5 382,-205.5 529,-205.5 529,-175.5 382,-175.5"/>
<text text-anchor="start" x="390" y="-193.5" font-family="Helvetica,sans-Serif" font-size="10.00">fspm.config.params.Param</text>
<text text-anchor="middle" x="455.5" y="-182.5" font-family="Helvetica,sans-Serif" font-size="10.00">Category.getString</text>
</a>
</g>
</g>
<!-- Node15&#45;&gt;Node16 -->
<g id="edge21" class="edge">
<title>Node15&#45;&gt;Node16</title>
<path fill="none" stroke="midnightblue" d="M341.07,-176.02C351.14,-177.31 361.53,-178.63 371.73,-179.93"/>
<polygon fill="midnightblue" stroke="midnightblue" points="371.5,-183.43 381.86,-181.23 372.38,-176.49 371.5,-183.43"/>
</g>
<!-- Node16&#45;&gt;Node11 -->
<g id="edge22" class="edge">
<title>Node16&#45;&gt;Node11</title>
<path fill="none" stroke="midnightblue" d="M529.28,-193.14C584.56,-196.5 662.05,-204.14 728,-221.5 752.08,-227.84 777.79,-238.55 798.14,-248.04"/>
<polygon fill="midnightblue" stroke="midnightblue" points="796.84,-251.3 807.38,-252.44 799.85,-244.98 796.84,-251.3"/>
</g>
<!-- Node16&#45;&gt;Node12 -->
<g id="edge23" class="edge">
<title>Node16&#45;&gt;Node12</title>
<path fill="none" stroke="midnightblue" d="M508.15,-205.53C531.58,-212.35 559.49,-220.47 584,-227.6"/>
<polygon fill="midnightblue" stroke="midnightblue" points="583.34,-231.06 593.92,-230.49 585.29,-224.33 583.34,-231.06"/>
</g>
<!-- Node17&#45;&gt;Node3 -->
<g id="edge25" class="edge">
<title>Node17&#45;&gt;Node3</title>
<path fill="none" stroke="midnightblue" d="M315.01,-194.96C325.38,-192.35 336.17,-189.2 346,-185.5 362.93,-179.12 365.4,-173.69 382,-166.5 387.04,-164.32 392.34,-162.19 397.68,-160.15"/>
<polygon fill="midnightblue" stroke="midnightblue" points="399.13,-163.35 407.3,-156.6 396.7,-156.78 399.13,-163.35"/>
</g>
<!-- Node17&#45;&gt;Node12 -->
<g id="edge26" class="edge">
<title>Node17&#45;&gt;Node12</title>
<path fill="none" stroke="midnightblue" d="M334.7,-211.88C398.55,-218.79 494.11,-229.12 562.39,-236.51"/>
<polygon fill="midnightblue" stroke="midnightblue" points="562.37,-240.03 572.69,-237.62 563.12,-233.07 562.37,-240.03"/>
</g>
</g>
</svg>
        <g id="navigator" transform="translate(0 0)" fill="#404254">
                <rect fill="#f2f5e9" fill-opacity="0.5" stroke="#606060" stroke-width=".5" x="0" y="0" width="60" height="60"/>
                <use id="zoomplus" xlink:href="#zoomPlus" x="17" y="9" onmousedown="handleZoom(evt,'in')"/>
                <use id="zoomminus" xlink:href="#zoomMin" x="42" y="9" onmousedown="handleZoom(evt,'out')"/>
                <use id="reset" xlink:href="#resetDef" x="30" y="36" onmousedown="handleReset()"/>
                <g id="arrowUp" xlink:href="#dirArrow" transform="translate(30 24)" onmousedown="handlePan(0,-1)">
                  <use xlink:href="#rim" fill="#404040">
                        <set attributeName="fill" to="#808080" begin="arrowUp.mouseover" end="arrowUp.mouseout"/>
                  </use>
                  <path fill="none" stroke="white" stroke-width="1.5" d="M0,-3.0v7 M-2.5,-0.5L0,-3.0L2.5,-0.5"/>
                </g>
                <g id="arrowRight" xlink:href="#dirArrow" transform="rotate(90) translate(36 -43)" onmousedown="handlePan(1,0)">
                  <use xlink:href="#rim" fill="#404040">
                        <set attributeName="fill" to="#808080" begin="arrowRight.mouseover" end="arrowRight.mouseout"/>
                  </use>
                  <path fill="none" stroke="white" stroke-width="1.5" d="M0,-3.0v7 M-2.5,-0.5L0,-3.0L2.5,-0.5"/>
                </g>
                <g id="arrowDown" xlink:href="#dirArrow" transform="rotate(180) translate(-30 -48)" onmousedown="handlePan(0,1)">
                  <use xlink:href="#rim" fill="#404040">
                        <set attributeName="fill" to="#808080" begin="arrowDown.mouseover" end="arrowDown.mouseout"/>
                  </use>
                  <path fill="none" stroke="white" stroke-width="1.5" d="M0,-3.0v7 M-2.5,-0.5L0,-3.0L2.5,-0.5"/>
                </g>
                <g id="arrowLeft" xlink:href="#dirArrow" transform="rotate(270) translate(-36 17)" onmousedown="handlePan(-1,0)">
                  <use xlink:href="#rim" fill="#404040">
                        <set attributeName="fill" to="#808080" begin="arrowLeft.mouseover" end="arrowLeft.mouseout"/>
                  </use>
                  <path fill="none" stroke="white" stroke-width="1.5" d="M0,-3.0v7 M-2.5,-0.5L0,-3.0L2.5,-0.5"/>
                </g>
        </g>
        <svg viewBox="0 0 15 15" width="100%" height="30px" preserveAspectRatio="xMaxYMin meet">
         <g id="arrow_out" transform="scale(0.3 0.3)">
          <a xlink:href="classfspm_1_1config_1_1ConfigTest_aa9e41d045f61b82c742edbd88424aff3_aa9e41d045f61b82c742edbd88424aff3_cgraph_org.svg" target="_base">
           <rect id="button" ry="5" rx="5" y="6" x="6" height="38" width="38"
                fill="#f2f5e9" fill-opacity="0.5" stroke="#606060" stroke-width="1.0"/>
           <path id="arrow"
             d="M 11.500037,31.436501 C 11.940474,20.09759 22.043105,11.32322 32.158766,21.979434 L 37.068811,17.246167 C 37.068811,17.246167 37.088388,32 37.088388,32 L 22.160133,31.978069 C 22.160133,31.978069 26.997745,27.140456 26.997745,27.140456 C 18.528582,18.264221 13.291696,25.230495 11.500037,31.436501 z"
             style="fill:#404040;"/>
          </a>
         </g>
        </svg>
</svg>
