<?xml version="1.0" encoding="UTF-8" standalone="no"?>
<!DOCTYPE svg PUBLIC "-//W3C//DTD SVG 1.1//EN"
 "http://www.w3.org/Graphics/SVG/1.1/DTD/svg11.dtd">
<!-- Generated by graphviz version 2.43.0 (0)
 -->
<!-- Title: io.github.fruitcropxl.config.params.ParamCategory.get Pages: 1 -->
<svg width="746pt" height="134pt"
 viewBox="0.00 0.00 746.00 134.00" xmlns="http://www.w3.org/2000/svg" xmlns:xlink="http://www.w3.org/1999/xlink">
<g id="graph0" class="graph" transform="scale(1 1) rotate(0) translate(4 130)">
<title>io.github.fruitcropxl.config.params.ParamCategory.get</title>
<!-- Node1 -->
<g id="Node000001" class="node">
<title>Node1</title>
<g id="a_Node000001"><a xlink:title=" ">
<polygon fill="#999999" stroke="#666666" points="738,-78 550,-78 550,-48 738,-48 738,-78"/>
<text text-anchor="start" x="558" y="-66" font-family="Helvetica,sans-Serif" font-size="10.00">io.github.fruitcropxl.config.params.</text>
<text text-anchor="middle" x="644" y="-55" font-family="Helvetica,sans-Serif" font-size="10.00">ParamCategory.get</text>
</a>
</g>
</g>
<!-- Node2 -->
<g id="Node000002" class="node">
<title>Node2</title>
<g id="a_Node000002"><a xlink:href="classio_1_1github_1_1fruitcropxl_1_1config_1_1params_1_1structures_1_1CategoryStore_a74555272c6dec5c9c88d18e876d875f5.html#a74555272c6dec5c9c88d18e876d875f5" target="_top" xlink:title=" ">
<polygon fill="white" stroke="#666666" points="514,-126 275,-126 275,-96 514,-96 514,-126"/>
<text text-anchor="start" x="283" y="-114" font-family="Helvetica,sans-Serif" font-size="10.00">io.github.fruitcropxl.config.params.structures.</text>
<text text-anchor="middle" x="394.5" y="-103" font-family="Helvetica,sans-Serif" font-size="10.00">CategoryStore.get</text>
</a>
</g>
</g>
<!-- Node1&#45;&gt;Node2 -->
<g id="edge1_Node000001_Node000002" class="edge">
<title>Node1&#45;&gt;Node2</title>
<g id="a_edge1_Node000001_Node000002"><a xlink:title=" ">
<path fill="none" stroke="#63b8ff" d="M555.2,-80.03C528.33,-85.24 498.98,-90.93 472.86,-96"/>
<polygon fill="#63b8ff" stroke="#63b8ff" points="556.22,-83.4 565.37,-78.06 554.89,-76.52 556.22,-83.4"/>
</a>
</g>
</g>
<!-- Node3 -->
<g id="Node000003" class="node">
<title>Node3</title>
<g id="a_Node000003"><a xlink:href="classio_1_1github_1_1fruitcropxl_1_1config_1_1params_1_1structures_1_1CategoryStore_a1016e54e70a0e99488e485d5084b9073.html#a1016e54e70a0e99488e485d5084b9073" target="_top" xlink:title=" ">
<polygon fill="white" stroke="#666666" points="514,-78 275,-78 275,-48 514,-48 514,-78"/>
<text text-anchor="start" x="283" y="-66" font-family="Helvetica,sans-Serif" font-size="10.00">io.github.fruitcropxl.config.params.structures.</text>
<text text-anchor="middle" x="394.5" y="-55" font-family="Helvetica,sans-Serif" font-size="10.00">CategoryStore.get</text>
</a>
</g>
</g>
<!-- Node1&#45;&gt;Node3 -->
<g id="edge2_Node000001_Node000003" class="edge">
<title>Node1&#45;&gt;Node3</title>
<g id="a_edge2_Node000001_Node000003"><a xlink:title=" ">
<path fill="none" stroke="#63b8ff" d="M539.6,-63C531.19,-63 522.64,-63 514.14,-63"/>
<polygon fill="#63b8ff" stroke="#63b8ff" points="539.78,-66.5 549.78,-63 539.78,-59.5 539.78,-66.5"/>
</a>
</g>
</g>
<!-- Node4 -->
<g id="Node000004" class="node">
<title>Node4</title>
<g id="a_Node000004"><a xlink:href="classio_1_1github_1_1fruitcropxl_1_1config_1_1params_1_1structures_1_1CategoryStore_ae7921bf95e6451354dc2960de705971d.html#ae7921bf95e6451354dc2960de705971d" target="_top" xlink:title="Gets the category with the given key.">
<polygon fill="white" stroke="#666666" points="514,-30 275,-30 275,0 514,0 514,-30"/>
<text text-anchor="start" x="283" y="-18" font-family="Helvetica,sans-Serif" font-size="10.00">io.github.fruitcropxl.config.params.structures.</text>
<text text-anchor="middle" x="394.5" y="-7" font-family="Helvetica,sans-Serif" font-size="10.00">CategoryStore.getCategory</text>
</a>
</g>
</g>
<!-- Node1&#45;&gt;Node4 -->
<g id="edge3_Node000001_Node000004" class="edge">
<title>Node1&#45;&gt;Node4</title>
<g id="a_edge3_Node000001_Node000004"><a xlink:title=" ">
<path fill="none" stroke="#63b8ff" d="M555.2,-45.97C528.33,-40.76 498.98,-35.07 472.86,-30"/>
<polygon fill="#63b8ff" stroke="#63b8ff" points="554.89,-49.48 565.37,-47.94 556.22,-42.6 554.89,-49.48"/>
</a>
</g>
</g>
<!-- Node5 -->
<g id="Node000005" class="node">
<title>Node5</title>
<g id="a_Node000005"><a xlink:href="classio_1_1github_1_1fruitcropxl_1_1config_1_1params_1_1structures_1_1CategoryStore_a5b66766ba5158506c14486e06a93d705.html#a5b66766ba5158506c14486e06a93d705" target="_top" xlink:title="Sets the category context for the CategoryStore.">
<polygon fill="white" stroke="#666666" points="239,-30 0,-30 0,0 239,0 239,-30"/>
<text text-anchor="start" x="8" y="-18" font-family="Helvetica,sans-Serif" font-size="10.00">io.github.fruitcropxl.config.params.structures.</text>
<text text-anchor="middle" x="119.5" y="-7" font-family="Helvetica,sans-Serif" font-size="10.00">CategoryStore.setCategoryContext</text>
</a>
</g>
</g>
<!-- Node4&#45;&gt;Node5 -->
<g id="edge4_Node000004_Node000005" class="edge">
<title>Node4&#45;&gt;Node5</title>
<g id="a_edge4_Node000004_Node000005"><a xlink:title=" ">
<path fill="none" stroke="#63b8ff" d="M264.68,-15C256.24,-15 247.76,-15 239.37,-15"/>
<polygon fill="#63b8ff" stroke="#63b8ff" points="264.95,-18.5 274.95,-15 264.95,-11.5 264.95,-18.5"/>
</a>
</g>
</g>
</g>
</svg>
