<?xml version="1.0" encoding="UTF-8" standalone="no"?>
<!DOCTYPE svg PUBLIC "-//W3C//DTD SVG 1.1//EN"
 "http://www.w3.org/Graphics/SVG/1.1/DTD/svg11.dtd">
<!-- Generated by graphviz version 2.43.0 (0)
 -->
<!-- Title: fspm.config.params.structures.CategoryStore.getArray Pages: 1 -->
<svg width="1313pt" height="170pt"
 viewBox="0.00 0.00 1313.00 170.00" xmlns="http://www.w3.org/2000/svg" xmlns:xlink="http://www.w3.org/1999/xlink">
<g id="graph0" class="graph" transform="scale(1 1) rotate(0) translate(4 166)">
<title>fspm.config.params.structures.CategoryStore.getArray</title>
<!-- Node1 -->
<g id="node1" class="node">
<title>Node1</title>
<g id="a_node1"><a xlink:title=" ">
<polygon fill="#bfbfbf" stroke="black" points="0,-66.5 0,-96.5 168,-96.5 168,-66.5 0,-66.5"/>
<text text-anchor="start" x="8" y="-84.5" font-family="Helvetica,sans-Serif" font-size="10.00">fspm.config.params.structures.</text>
<text text-anchor="middle" x="84" y="-73.5" font-family="Helvetica,sans-Serif" font-size="10.00">CategoryStore.getArray</text>
</a>
</g>
</g>
<!-- Node2 -->
<g id="node2" class="node">
<title>Node2</title>
<g id="a_node2"><a xlink:href="classfspm_1_1config_1_1params_1_1structures_1_1CategoryStore_ac2aa1d4fec9c78f0e9433016759c39e0.html#ac2aa1d4fec9c78f0e9433016759c39e0" target="_top" xlink:title=" ">
<polygon fill="none" stroke="black" points="204,-66.5 204,-96.5 372,-96.5 372,-66.5 204,-66.5"/>
<text text-anchor="start" x="212" y="-84.5" font-family="Helvetica,sans-Serif" font-size="10.00">fspm.config.params.structures.</text>
<text text-anchor="middle" x="288" y="-73.5" font-family="Helvetica,sans-Serif" font-size="10.00">CategoryStore.getArray</text>
</a>
</g>
</g>
<!-- Node1&#45;&gt;Node2 -->
<g id="edge1" class="edge">
<title>Node1&#45;&gt;Node2</title>
<path fill="none" stroke="midnightblue" d="M168.04,-81.5C176.56,-81.5 185.26,-81.5 193.89,-81.5"/>
<polygon fill="midnightblue" stroke="midnightblue" points="193.96,-85 203.96,-81.5 193.96,-78 193.96,-85"/>
</g>
<!-- Node3 -->
<g id="node3" class="node">
<title>Node3</title>
<g id="a_node3"><a xlink:href="classfspm_1_1config_1_1params_1_1ParamCategory_addcc002dbf650fbc675a1ef472dfa088.html#addcc002dbf650fbc675a1ef472dfa088" target="_top" xlink:title=" ">
<polygon fill="none" stroke="black" points="681,-88.5 681,-118.5 828,-118.5 828,-88.5 681,-88.5"/>
<text text-anchor="start" x="689" y="-106.5" font-family="Helvetica,sans-Serif" font-size="10.00">fspm.config.params.Param</text>
<text text-anchor="middle" x="754.5" y="-95.5" font-family="Helvetica,sans-Serif" font-size="10.00">Category.getArray</text>
</a>
</g>
</g>
<!-- Node2&#45;&gt;Node3 -->
<g id="edge2" class="edge">
<title>Node2&#45;&gt;Node3</title>
<path fill="none" stroke="midnightblue" d="M372.04,-85.43C456.42,-89.43 586.37,-95.58 670.67,-99.58"/>
<polygon fill="midnightblue" stroke="midnightblue" points="670.57,-103.08 680.72,-100.05 670.9,-96.08 670.57,-103.08"/>
</g>
<!-- Node9 -->
<g id="node9" class="node">
<title>Node9</title>
<g id="a_node9"><a xlink:href="classfspm_1_1config_1_1params_1_1structures_1_1CategoryStore_ae066b355d784560a9c277722940d3d4a.html#ae066b355d784560a9c277722940d3d4a" target="_top" xlink:title=" ">
<polygon fill="none" stroke="black" points="408,-44.5 408,-74.5 617,-74.5 617,-44.5 408,-44.5"/>
<text text-anchor="start" x="416" y="-62.5" font-family="Helvetica,sans-Serif" font-size="10.00">fspm.config.params.structures.</text>
<text text-anchor="middle" x="512.5" y="-51.5" font-family="Helvetica,sans-Serif" font-size="10.00">CategoryStore.validateFlattenedAccess</text>
</a>
</g>
</g>
<!-- Node2&#45;&gt;Node9 -->
<g id="edge9" class="edge">
<title>Node2&#45;&gt;Node9</title>
<path fill="none" stroke="midnightblue" d="M372.17,-73.28C380.51,-72.45 389.07,-71.61 397.66,-70.76"/>
<polygon fill="midnightblue" stroke="midnightblue" points="398.13,-74.23 407.73,-69.76 397.44,-67.26 398.13,-74.23"/>
</g>
<!-- Node4 -->
<g id="node4" class="node">
<title>Node4</title>
<g id="a_node4"><a xlink:href="classfspm_1_1config_1_1params_1_1Parameter_a2dced470a20701940042f6dacad7f78e.html#a2dced470a20701940042f6dacad7f78e" target="_top" xlink:title=" ">
<polygon fill="none" stroke="black" points="892,-90.5 892,-120.5 1072,-120.5 1072,-90.5 892,-90.5"/>
<text text-anchor="start" x="900" y="-108.5" font-family="Helvetica,sans-Serif" font-size="10.00">fspm.config.params.Parameter.as</text>
<text text-anchor="middle" x="982" y="-97.5" font-family="Helvetica,sans-Serif" font-size="10.00">Array</text>
</a>
</g>
</g>
<!-- Node3&#45;&gt;Node4 -->
<g id="edge3" class="edge">
<title>Node3&#45;&gt;Node4</title>
<path fill="none" stroke="midnightblue" d="M828.09,-104.14C845.26,-104.3 863.85,-104.46 881.96,-104.62"/>
<polygon fill="midnightblue" stroke="midnightblue" points="881.93,-108.12 891.96,-104.71 881.99,-101.12 881.93,-108.12"/>
</g>
<!-- Node8 -->
<g id="node8" class="node">
<title>Node8</title>
<g id="a_node8"><a xlink:href="classfspm_1_1config_1_1params_1_1ParamCategory_ac81e6b98fa48fc3426eed6f60e81da5b.html#ac81e6b98fa48fc3426eed6f60e81da5b" target="_top" xlink:title="Get generic Parameter with the given key.">
<polygon fill="none" stroke="black" points="908.5,-41.5 908.5,-71.5 1055.5,-71.5 1055.5,-41.5 908.5,-41.5"/>
<text text-anchor="start" x="916.5" y="-59.5" font-family="Helvetica,sans-Serif" font-size="10.00">fspm.config.params.Param</text>
<text text-anchor="middle" x="982" y="-48.5" font-family="Helvetica,sans-Serif" font-size="10.00">Category.getParameter</text>
</a>
</g>
</g>
<!-- Node3&#45;&gt;Node8 -->
<g id="edge7" class="edge">
<title>Node3&#45;&gt;Node8</title>
<path fill="none" stroke="midnightblue" d="M827.47,-88.5C850.25,-83.75 875.6,-78.47 899.03,-73.58"/>
<polygon fill="midnightblue" stroke="midnightblue" points="899.87,-76.99 908.94,-71.52 898.44,-70.13 899.87,-76.99"/>
</g>
<!-- Node5 -->
<g id="node5" class="node">
<title>Node5</title>
<g id="a_node5"><a xlink:href="classfspm_1_1config_1_1params_1_1Parameter_a54e9dcffe048d38566416b7bf8e09fe1.html#a54e9dcffe048d38566416b7bf8e09fe1" target="_top" xlink:title=" ">
<polygon fill="none" stroke="black" points="1114,-131.5 1114,-161.5 1299,-161.5 1299,-131.5 1114,-131.5"/>
<text text-anchor="start" x="1122" y="-149.5" font-family="Helvetica,sans-Serif" font-size="10.00">fspm.config.params.Parameter.get</text>
<text text-anchor="middle" x="1206.5" y="-138.5" font-family="Helvetica,sans-Serif" font-size="10.00">DoubleType</text>
</a>
</g>
</g>
<!-- Node4&#45;&gt;Node5 -->
<g id="edge4" class="edge">
<title>Node4&#45;&gt;Node5</title>
<path fill="none" stroke="midnightblue" d="M1064.59,-120.53C1080.61,-123.49 1097.52,-126.6 1113.84,-129.61"/>
<polygon fill="midnightblue" stroke="midnightblue" points="1113.45,-133.1 1123.92,-131.47 1114.72,-126.21 1113.45,-133.1"/>
</g>
<!-- Node6 -->
<g id="node6" class="node">
<title>Node6</title>
<g id="a_node6"><a xlink:href="classfspm_1_1util_1_1KeyElement_a653aac67328f98c1201974736671fe0d.html#a653aac67328f98c1201974736671fe0d" target="_top" xlink:title=" ">
<polygon fill="none" stroke="black" points="1127.5,-52 1127.5,-71 1285.5,-71 1285.5,-52 1127.5,-52"/>
<text text-anchor="middle" x="1206.5" y="-59" font-family="Helvetica,sans-Serif" font-size="10.00">fspm.util.KeyElement.getKey</text>
</a>
</g>
</g>
<!-- Node4&#45;&gt;Node6 -->
<g id="edge5" class="edge">
<title>Node4&#45;&gt;Node6</title>
<path fill="none" stroke="midnightblue" d="M1058.95,-90.48C1087.86,-84.76 1120.32,-78.34 1147.33,-73"/>
<polygon fill="midnightblue" stroke="midnightblue" points="1148.27,-76.39 1157.4,-71.01 1146.91,-69.52 1148.27,-76.39"/>
</g>
<!-- Node7 -->
<g id="node7" class="node">
<title>Node7</title>
<g id="a_node7"><a xlink:href="classfspm_1_1config_1_1params_1_1Parameter_a2fd72835a908354fea23f92e3f3b1800.html#a2fd72835a908354fea23f92e3f3b1800" target="_top" xlink:title=" ">
<polygon fill="none" stroke="black" points="1108,-93 1108,-112 1305,-112 1305,-93 1108,-93"/>
<text text-anchor="middle" x="1206.5" y="-100" font-family="Helvetica,sans-Serif" font-size="10.00">fspm.config.params.Parameter.isNull</text>
</a>
</g>
</g>
<!-- Node4&#45;&gt;Node7 -->
<g id="edge6" class="edge">
<title>Node4&#45;&gt;Node7</title>
<path fill="none" stroke="midnightblue" d="M1072.22,-104.3C1080.65,-104.18 1089.25,-104.07 1097.83,-103.95"/>
<polygon fill="midnightblue" stroke="midnightblue" points="1097.92,-107.45 1107.87,-103.82 1097.82,-100.45 1097.92,-107.45"/>
</g>
<!-- Node8&#45;&gt;Node6 -->
<g id="edge8" class="edge">
<title>Node8&#45;&gt;Node6</title>
<path fill="none" stroke="midnightblue" d="M1055.55,-58.13C1075.18,-58.57 1096.66,-59.05 1117.06,-59.51"/>
<polygon fill="midnightblue" stroke="midnightblue" points="1117.22,-63.02 1127.3,-59.74 1117.38,-56.02 1117.22,-63.02"/>
</g>
<!-- Node9&#45;&gt;Node8 -->
<g id="edge12" class="edge">
<title>Node9&#45;&gt;Node8</title>
<path fill="none" stroke="midnightblue" d="M617.25,-58.83C701.82,-58.29 819.68,-57.54 898.06,-57.03"/>
<polygon fill="midnightblue" stroke="midnightblue" points="898.4,-60.53 908.37,-56.97 898.35,-53.53 898.4,-60.53"/>
</g>
<!-- Node10 -->
<g id="node10" class="node">
<title>Node10</title>
<g id="a_node10"><a xlink:href="classfspm_1_1config_1_1params_1_1structures_1_1CategoryStore_a05635b1745cfdb9ed85c076ee762cbdf.html#a05635b1745cfdb9ed85c076ee762cbdf" target="_top" xlink:title=" ">
<polygon fill="none" stroke="black" points="653,-0.5 653,-30.5 856,-30.5 856,-0.5 653,-0.5"/>
<text text-anchor="start" x="661" y="-18.5" font-family="Helvetica,sans-Serif" font-size="10.00">fspm.config.params.structures.</text>
<text text-anchor="middle" x="754.5" y="-7.5" font-family="Helvetica,sans-Serif" font-size="10.00">CategoryStore.getCategoryWithParam</text>
</a>
</g>
</g>
<!-- Node9&#45;&gt;Node10 -->
<g id="edge10" class="edge">
<title>Node9&#45;&gt;Node10</title>
<path fill="none" stroke="midnightblue" d="M595.42,-44.48C616.74,-40.57 639.84,-36.34 661.63,-32.34"/>
<polygon fill="midnightblue" stroke="midnightblue" points="662.33,-35.77 671.54,-30.53 661.07,-28.89 662.33,-35.77"/>
</g>
<!-- Node10&#45;&gt;Node8 -->
<g id="edge11" class="edge">
<title>Node10&#45;&gt;Node8</title>
<path fill="none" stroke="midnightblue" d="M838.19,-30.53C857.87,-34.11 878.86,-37.93 898.53,-41.51"/>
<polygon fill="midnightblue" stroke="midnightblue" points="897.91,-44.95 908.37,-43.3 899.16,-38.06 897.91,-44.95"/>
</g>
</g>
</svg>
