<?xml version="1.0" encoding="UTF-8" standalone="no"?>
<!DOCTYPE svg PUBLIC "-//W3C//DTD SVG 1.1//EN"
 "http://www.w3.org/Graphics/SVG/1.1/DTD/svg11.dtd">
<!-- Generated by graphviz version 2.43.0 (0)
 -->
<!-- Title: fspm.config.params.ParamCategory.getString Pages: 1 -->
<svg width="568pt" height="235pt"
 viewBox="0.00 0.00 568.00 235.00" xmlns="http://www.w3.org/2000/svg" xmlns:xlink="http://www.w3.org/1999/xlink">
<g id="graph0" class="graph" transform="scale(1 1) rotate(0) translate(4 231)">
<title>fspm.config.params.ParamCategory.getString</title>
<!-- Node1 -->
<g id="node1" class="node">
<title>Node1</title>
<g id="a_node1"><a xlink:title=" ">
<polygon fill="#bfbfbf" stroke="black" points="413,-144.5 413,-174.5 560,-174.5 560,-144.5 413,-144.5"/>
<text text-anchor="start" x="421" y="-162.5" font-family="Helvetica,sans-Serif" font-size="10.00">fspm.config.params.Param</text>
<text text-anchor="middle" x="486.5" y="-151.5" font-family="Helvetica,sans-Serif" font-size="10.00">Category.getString</text>
</a>
</g>
</g>
<!-- Node2 -->
<g id="node2" class="node">
<title>Node2</title>
<g id="a_node2"><a xlink:href="classfspm_1_1config_1_1params_1_1structures_1_1CategoryStore_a2b41f068e5aeebf3afdea43c4186aaaa.html#a2b41f068e5aeebf3afdea43c4186aaaa" target="_top" xlink:title=" ">
<polygon fill="none" stroke="black" points="209,-122.5 209,-152.5 377,-152.5 377,-122.5 209,-122.5"/>
<text text-anchor="start" x="217" y="-140.5" font-family="Helvetica,sans-Serif" font-size="10.00">fspm.config.params.structures.</text>
<text text-anchor="middle" x="293" y="-129.5" font-family="Helvetica,sans-Serif" font-size="10.00">CategoryStore.getString</text>
</a>
</g>
</g>
<!-- Node1&#45;&gt;Node2 -->
<g id="edge1" class="edge">
<title>Node1&#45;&gt;Node2</title>
<path fill="none" stroke="midnightblue" d="M402.63,-149.98C394.2,-149.01 385.64,-148.03 377.21,-147.06"/>
<polygon fill="midnightblue" stroke="midnightblue" points="402.49,-153.49 412.83,-151.15 403.29,-146.53 402.49,-153.49"/>
</g>
<!-- Node4 -->
<g id="node4" class="node">
<title>Node4</title>
<g id="a_node4"><a xlink:href="classfspm_1_1config_1_1tests_1_1ParamAccess_1_1SimpleTest_a1ebf711e67df23a453e0ce50bc63b482.html#a1ebf711e67df23a453e0ce50bc63b482" target="_top" xlink:title=" ">
<polygon fill="none" stroke="black" points="0,-196.5 0,-226.5 173,-226.5 173,-196.5 0,-196.5"/>
<text text-anchor="start" x="8" y="-214.5" font-family="Helvetica,sans-Serif" font-size="10.00">fspm.config.tests.ParamAccess.</text>
<text text-anchor="middle" x="86.5" y="-203.5" font-family="Helvetica,sans-Serif" font-size="10.00">SimpleTest.testAccessExamples</text>
</a>
</g>
</g>
<!-- Node1&#45;&gt;Node4 -->
<g id="edge7" class="edge">
<title>Node1&#45;&gt;Node4</title>
<path fill="none" stroke="midnightblue" d="M402.83,-170.3C335.59,-179.09 241.03,-191.44 173.02,-200.33"/>
<polygon fill="midnightblue" stroke="midnightblue" points="403.5,-173.74 412.96,-168.98 402.59,-166.8 403.5,-173.74"/>
</g>
<!-- Node3 -->
<g id="node3" class="node">
<title>Node3</title>
<g id="a_node3"><a xlink:href="classfspm_1_1config_1_1params_1_1structures_1_1CategoryStore_a7d8b8fea26862bb41862b264e082074f.html#a7d8b8fea26862bb41862b264e082074f" target="_top" xlink:title=" ">
<polygon fill="none" stroke="black" points="2.5,-147.5 2.5,-177.5 170.5,-177.5 170.5,-147.5 2.5,-147.5"/>
<text text-anchor="start" x="10.5" y="-165.5" font-family="Helvetica,sans-Serif" font-size="10.00">fspm.config.params.structures.</text>
<text text-anchor="middle" x="86.5" y="-154.5" font-family="Helvetica,sans-Serif" font-size="10.00">CategoryStore.getString</text>
</a>
</g>
</g>
<!-- Node2&#45;&gt;Node3 -->
<g id="edge2" class="edge">
<title>Node2&#45;&gt;Node3</title>
<path fill="none" stroke="midnightblue" d="M198.71,-148.91C189.33,-150.05 179.86,-151.21 170.6,-152.34"/>
<polygon fill="midnightblue" stroke="midnightblue" points="199.32,-152.36 208.82,-147.67 198.47,-145.41 199.32,-152.36"/>
</g>
<!-- Node2&#45;&gt;Node4 -->
<g id="edge3" class="edge">
<title>Node2&#45;&gt;Node4</title>
<path fill="none" stroke="midnightblue" d="M250.05,-156.63C227.48,-166.53 199.01,-178.42 173,-187.5 163.97,-190.65 154.31,-193.68 144.84,-196.47"/>
<polygon fill="midnightblue" stroke="midnightblue" points="251.61,-159.76 259.34,-152.52 248.78,-153.36 251.61,-159.76"/>
</g>
<!-- Node5 -->
<g id="node5" class="node">
<title>Node5</title>
<g id="a_node5"><a xlink:href="classfspm_1_1config_1_1tests_1_1ParamAccess_1_1SimpleTest_a8a856d084a9f7cc18dd02285f8bff9b4.html#a8a856d084a9f7cc18dd02285f8bff9b4" target="_top" xlink:title=" ">
<polygon fill="none" stroke="black" points="1,-98.5 1,-128.5 172,-128.5 172,-98.5 1,-98.5"/>
<text text-anchor="start" x="9" y="-116.5" font-family="Helvetica,sans-Serif" font-size="10.00">fspm.config.tests.ParamAccess.</text>
<text text-anchor="middle" x="86.5" y="-105.5" font-family="Helvetica,sans-Serif" font-size="10.00">SimpleTest.testFlatCategories</text>
</a>
</g>
</g>
<!-- Node2&#45;&gt;Node5 -->
<g id="edge4" class="edge">
<title>Node2&#45;&gt;Node5</title>
<path fill="none" stroke="midnightblue" d="M198.87,-126.57C190,-125.53 181.04,-124.48 172.27,-123.45"/>
<polygon fill="midnightblue" stroke="midnightblue" points="198.48,-130.05 208.82,-127.74 199.3,-123.1 198.48,-130.05"/>
</g>
<!-- Node6 -->
<g id="node6" class="node">
<title>Node6</title>
<g id="a_node6"><a xlink:href="classfspm_1_1config_1_1tests_1_1ParamAccess_1_1SimpleTest_add14e7bad047c7089ed8e08680f4c2cf.html#add14e7bad047c7089ed8e08680f4c2cf" target="_top" xlink:title=" ">
<polygon fill="none" stroke="black" points="1,-49.5 1,-79.5 172,-79.5 172,-49.5 1,-49.5"/>
<text text-anchor="start" x="9" y="-67.5" font-family="Helvetica,sans-Serif" font-size="10.00">fspm.config.tests.ParamAccess.</text>
<text text-anchor="middle" x="86.5" y="-56.5" font-family="Helvetica,sans-Serif" font-size="10.00">SimpleTest.testNull</text>
</a>
</g>
</g>
<!-- Node2&#45;&gt;Node6 -->
<g id="edge5" class="edge">
<title>Node2&#45;&gt;Node6</title>
<path fill="none" stroke="midnightblue" d="M249.29,-118.49C226.83,-108.86 198.69,-97.36 173,-88.5 163.96,-85.38 154.29,-82.37 144.82,-79.59"/>
<polygon fill="midnightblue" stroke="midnightblue" points="247.98,-121.74 258.55,-122.5 250.76,-115.32 247.98,-121.74"/>
</g>
<!-- Node7 -->
<g id="node7" class="node">
<title>Node7</title>
<g id="a_node7"><a xlink:href="classfspm_1_1config_1_1tests_1_1ParamAccess_1_1SimpleTest_a6ff9e514f8013564285ff10fa6a0af6f.html#a6ff9e514f8013564285ff10fa6a0af6f" target="_top" xlink:title=" ">
<polygon fill="none" stroke="black" points="1,-0.5 1,-30.5 172,-30.5 172,-0.5 1,-0.5"/>
<text text-anchor="start" x="9" y="-18.5" font-family="Helvetica,sans-Serif" font-size="10.00">fspm.config.tests.ParamAccess.</text>
<text text-anchor="middle" x="86.5" y="-7.5" font-family="Helvetica,sans-Serif" font-size="10.00">SimpleTest.testTypes</text>
</a>
</g>
</g>
<!-- Node2&#45;&gt;Node7 -->
<g id="edge6" class="edge">
<title>Node2&#45;&gt;Node7</title>
<path fill="none" stroke="midnightblue" d="M270.41,-114.91C248.01,-92.7 210.99,-59.34 173,-39.5 166.44,-36.07 159.33,-33.09 152.12,-30.5"/>
<polygon fill="midnightblue" stroke="midnightblue" points="268.18,-117.62 277.7,-122.25 273.14,-112.69 268.18,-117.62"/>
</g>
</g>
</svg>
