<?xml version="1.0" encoding="UTF-8" standalone="no"?>
<!DOCTYPE svg PUBLIC "-//W3C//DTD SVG 1.1//EN"
 "http://www.w3.org/Graphics/SVG/1.1/DTD/svg11.dtd">
<!-- Generated by graphviz version 2.43.0 (0)
 -->
<!-- Title: fspm.config.adapters.handlers.DocumentHybridCategoryNameHandler.parse Pages: 1 -->
<svg width="879pt" height="382pt"
 viewBox="0.00 0.00 879.00 382.00" xmlns="http://www.w3.org/2000/svg" xmlns:xlink="http://www.w3.org/1999/xlink">
<g id="graph0" class="graph" transform="scale(1 1) rotate(0) translate(4 378)">
<title>fspm.config.adapters.handlers.DocumentHybridCategoryNameHandler.parse</title>
<!-- Node1 -->
<g id="node1" class="node">
<title>Node1</title>
<g id="a_node1"><a xlink:title=" ">
<polygon fill="#bfbfbf" stroke="black" points="0,-159.5 0,-189.5 240,-189.5 240,-159.5 0,-159.5"/>
<text text-anchor="start" x="8" y="-177.5" font-family="Helvetica,sans-Serif" font-size="10.00">fspm.config.adapters.handlers.</text>
<text text-anchor="middle" x="120" y="-166.5" font-family="Helvetica,sans-Serif" font-size="10.00">DocumentHybridCategoryNameHandler.parse</text>
</a>
</g>
</g>
<!-- Node2 -->
<g id="node2" class="node">
<title>Node2</title>
<g id="a_node2"><a xlink:href="classfspm_1_1config_1_1params_1_1hierarchy_1_1CategoryHierarchy_ace6e5895f31f542bd87cd5b9650577b8.html#ace6e5895f31f542bd87cd5b9650577b8" target="_top" xlink:title=" ">
<polygon fill="none" stroke="black" points="276,-208.5 276,-238.5 440,-238.5 440,-208.5 276,-208.5"/>
<text text-anchor="start" x="284" y="-226.5" font-family="Helvetica,sans-Serif" font-size="10.00">fspm.config.params.hierarchy.</text>
<text text-anchor="middle" x="358" y="-215.5" font-family="Helvetica,sans-Serif" font-size="10.00">CategoryHierarchy.parse</text>
</a>
</g>
</g>
<!-- Node1&#45;&gt;Node2 -->
<g id="edge1" class="edge">
<title>Node1&#45;&gt;Node2</title>
<path fill="none" stroke="midnightblue" d="M193.41,-189.53C219.12,-194.87 248.25,-200.92 274.72,-206.42"/>
<polygon fill="midnightblue" stroke="midnightblue" points="274.22,-209.89 284.73,-208.49 275.65,-203.03 274.22,-209.89"/>
</g>
<!-- Node9 -->
<g id="node9" class="node">
<title>Node9</title>
<g id="a_node9"><a xlink:href="classfspm_1_1config_1_1params_1_1hierarchy_1_1TableHierarchy_a43301537b61d4e184566f4518c9c8bc7.html#a43301537b61d4e184566f4518c9c8bc7" target="_top" xlink:title=" ">
<polygon fill="none" stroke="black" points="276,-135.5 276,-165.5 440,-165.5 440,-135.5 276,-135.5"/>
<text text-anchor="start" x="284" y="-153.5" font-family="Helvetica,sans-Serif" font-size="10.00">fspm.config.params.hierarchy.</text>
<text text-anchor="middle" x="358" y="-142.5" font-family="Helvetica,sans-Serif" font-size="10.00">TableHierarchy.parse</text>
</a>
</g>
</g>
<!-- Node1&#45;&gt;Node9 -->
<g id="edge9" class="edge">
<title>Node1&#45;&gt;Node9</title>
<path fill="none" stroke="midnightblue" d="M240.04,-162.39C248.67,-161.52 257.3,-160.64 265.73,-159.78"/>
<polygon fill="midnightblue" stroke="midnightblue" points="266.31,-163.24 275.91,-158.75 265.6,-156.28 266.31,-163.24"/>
</g>
<!-- Node3 -->
<g id="node3" class="node">
<title>Node3</title>
<g id="a_node3"><a xlink:href="classfspm_1_1config_1_1params_1_1hierarchy_1_1CategoryHierarchy_a1749c4a4dba84b42cc2abdab39aa0e3e.html#a1749c4a4dba84b42cc2abdab39aa0e3e" target="_top" xlink:title="Adds a new category.">
<polygon fill="none" stroke="black" points="490.5,-245.5 490.5,-275.5 662.5,-275.5 662.5,-245.5 490.5,-245.5"/>
<text text-anchor="start" x="498.5" y="-263.5" font-family="Helvetica,sans-Serif" font-size="10.00">fspm.config.params.hierarchy.</text>
<text text-anchor="middle" x="576.5" y="-252.5" font-family="Helvetica,sans-Serif" font-size="10.00">CategoryHierarchy.addCategory</text>
</a>
</g>
</g>
<!-- Node2&#45;&gt;Node3 -->
<g id="edge2" class="edge">
<title>Node2&#45;&gt;Node3</title>
<path fill="none" stroke="midnightblue" d="M440.23,-237.38C453.24,-239.61 466.8,-241.92 480.09,-244.19"/>
<polygon fill="midnightblue" stroke="midnightblue" points="479.75,-247.69 490.2,-245.92 480.93,-240.79 479.75,-247.69"/>
</g>
<!-- Node5 -->
<g id="node5" class="node">
<title>Node5</title>
<g id="a_node5"><a xlink:href="classfspm_1_1config_1_1params_1_1ParamCategory_a142ca4734877ac3625b6b95d8b81055a.html#a142ca4734877ac3625b6b95d8b81055a" target="_top" xlink:title="Adds a new Parameter to the category.">
<polygon fill="none" stroke="black" points="503,-343.5 503,-373.5 650,-373.5 650,-343.5 503,-343.5"/>
<text text-anchor="start" x="511" y="-361.5" font-family="Helvetica,sans-Serif" font-size="10.00">fspm.config.params.Param</text>
<text text-anchor="middle" x="576.5" y="-350.5" font-family="Helvetica,sans-Serif" font-size="10.00">Category.addParameter</text>
</a>
</g>
</g>
<!-- Node2&#45;&gt;Node5 -->
<g id="edge4" class="edge">
<title>Node2&#45;&gt;Node5</title>
<path fill="none" stroke="midnightblue" d="M370.5,-238.67C389.65,-262.81 430.49,-309.76 476,-334.5 481.48,-337.48 487.33,-340.09 493.34,-342.39"/>
<polygon fill="midnightblue" stroke="midnightblue" points="492.3,-345.73 502.9,-345.73 494.62,-339.12 492.3,-345.73"/>
</g>
<!-- Node6 -->
<g id="node6" class="node">
<title>Node6</title>
<g id="a_node6"><a xlink:href="classfspm_1_1config_1_1params_1_1hierarchy_1_1CategoryHierarchy_aaee7106d64014154be33e5ec077c7a89.html#aaee7106d64014154be33e5ec077c7a89" target="_top" xlink:title=" ">
<polygon fill="none" stroke="black" points="476,-294.5 476,-324.5 677,-324.5 677,-294.5 476,-294.5"/>
<text text-anchor="start" x="484" y="-312.5" font-family="Helvetica,sans-Serif" font-size="10.00">fspm.config.params.hierarchy.</text>
<text text-anchor="middle" x="576.5" y="-301.5" font-family="Helvetica,sans-Serif" font-size="10.00">CategoryHierarchy.CategoryHierarchy</text>
</a>
</g>
</g>
<!-- Node2&#45;&gt;Node6 -->
<g id="edge6" class="edge">
<title>Node2&#45;&gt;Node6</title>
<path fill="none" stroke="midnightblue" d="M383.26,-238.68C406.35,-252.56 442.46,-272.8 476,-285.5 481.78,-287.69 487.83,-289.73 493.96,-291.61"/>
<polygon fill="midnightblue" stroke="midnightblue" points="493.06,-295 503.64,-294.45 495.03,-288.28 493.06,-295"/>
</g>
<!-- Node7 -->
<g id="node7" class="node">
<title>Node7</title>
<g id="a_node7"><a xlink:href="classfspm_1_1config_1_1adapters_1_1JsonFileReader_ade656b5e0e5d950b9997ee04ec01964d.html#ade656b5e0e5d950b9997ee04ec01964d" target="_top" xlink:title="Helper function for getting root/tree node from a JSON file.">
<polygon fill="none" stroke="black" points="502,-196.5 502,-226.5 651,-226.5 651,-196.5 502,-196.5"/>
<text text-anchor="start" x="510" y="-214.5" font-family="Helvetica,sans-Serif" font-size="10.00">fspm.config.adapters.Json</text>
<text text-anchor="middle" x="576.5" y="-203.5" font-family="Helvetica,sans-Serif" font-size="10.00">FileReader.getTreeFromFile</text>
</a>
</g>
</g>
<!-- Node2&#45;&gt;Node7 -->
<g id="edge7" class="edge">
<title>Node2&#45;&gt;Node7</title>
<path fill="none" stroke="midnightblue" d="M440.23,-219C456.93,-218.07 474.53,-217.1 491.33,-216.17"/>
<polygon fill="midnightblue" stroke="midnightblue" points="491.87,-219.64 501.66,-215.59 491.49,-212.65 491.87,-219.64"/>
</g>
<!-- Node8 -->
<g id="node8" class="node">
<title>Node8</title>
<g id="a_node8"><a xlink:href="classfspm_1_1config_1_1params_1_1ParamFactory_aadcecc67803da778c697f1b6683cd5c7.html#aadcecc67803da778c697f1b6683cd5c7" target="_top" xlink:title="Returns a concrete Parameter instance depending on the data type of the JsonNode passed in.">
<polygon fill="none" stroke="black" points="503,-147.5 503,-177.5 650,-177.5 650,-147.5 503,-147.5"/>
<text text-anchor="start" x="511" y="-165.5" font-family="Helvetica,sans-Serif" font-size="10.00">fspm.config.params.Param</text>
<text text-anchor="middle" x="576.5" y="-154.5" font-family="Helvetica,sans-Serif" font-size="10.00">Factory.parseParameter</text>
</a>
</g>
</g>
<!-- Node2&#45;&gt;Node8 -->
<g id="edge8" class="edge">
<title>Node2&#45;&gt;Node8</title>
<path fill="none" stroke="midnightblue" d="M405.8,-208.49C427.14,-201.8 452.77,-193.99 476,-187.5 484.98,-184.99 494.44,-182.47 503.82,-180.03"/>
<polygon fill="midnightblue" stroke="midnightblue" points="504.72,-183.42 513.53,-177.54 502.98,-176.64 504.72,-183.42"/>
</g>
<!-- Node4 -->
<g id="node4" class="node">
<title>Node4</title>
<g id="a_node4"><a xlink:href="classfspm_1_1util_1_1KeyElement_a653aac67328f98c1201974736671fe0d.html#a653aac67328f98c1201974736671fe0d" target="_top" xlink:title=" ">
<polygon fill="none" stroke="black" points="713,-251 713,-270 871,-270 871,-251 713,-251"/>
<text text-anchor="middle" x="792" y="-258" font-family="Helvetica,sans-Serif" font-size="10.00">fspm.util.KeyElement.getKey</text>
</a>
</g>
</g>
<!-- Node3&#45;&gt;Node4 -->
<g id="edge3" class="edge">
<title>Node3&#45;&gt;Node4</title>
<path fill="none" stroke="midnightblue" d="M662.8,-260.5C675.94,-260.5 689.54,-260.5 702.75,-260.5"/>
<polygon fill="midnightblue" stroke="midnightblue" points="702.75,-264 712.75,-260.5 702.75,-257 702.75,-264"/>
</g>
<!-- Node5&#45;&gt;Node4 -->
<g id="edge5" class="edge">
<title>Node5&#45;&gt;Node4</title>
<path fill="none" stroke="midnightblue" d="M650.18,-344.02C659.37,-341.31 668.51,-338.15 677,-334.5 712.43,-319.26 749.1,-293.31 770.98,-276.54"/>
<polygon fill="midnightblue" stroke="midnightblue" points="773.4,-279.09 779.13,-270.18 769.09,-273.57 773.4,-279.09"/>
</g>
<!-- Node9&#45;&gt;Node7 -->
<g id="edge13" class="edge">
<title>Node9&#45;&gt;Node7</title>
<path fill="none" stroke="midnightblue" d="M404.06,-165.56C425.71,-172.58 452.09,-180.84 476,-187.5 483.94,-189.71 492.26,-191.91 500.57,-194.02"/>
<polygon fill="midnightblue" stroke="midnightblue" points="499.75,-197.42 510.3,-196.46 501.46,-190.63 499.75,-197.42"/>
</g>
<!-- Node9&#45;&gt;Node8 -->
<g id="edge14" class="edge">
<title>Node9&#45;&gt;Node8</title>
<path fill="none" stroke="midnightblue" d="M440.23,-155C457.38,-155.95 475.5,-156.96 492.71,-157.91"/>
<polygon fill="midnightblue" stroke="midnightblue" points="492.54,-161.41 502.72,-158.47 492.93,-154.42 492.54,-161.41"/>
</g>
<!-- Node10 -->
<g id="node10" class="node">
<title>Node10</title>
<g id="a_node10"><a xlink:href="classfspm_1_1config_1_1params_1_1ParamTable_a399e39364c1efcbbe169e6373e722c2f.html#a399e39364c1efcbbe169e6373e722c2f" target="_top" xlink:title=" ">
<polygon fill="none" stroke="black" points="503,-49.5 503,-79.5 650,-79.5 650,-49.5 503,-49.5"/>
<text text-anchor="start" x="511" y="-67.5" font-family="Helvetica,sans-Serif" font-size="10.00">fspm.config.params.Param</text>
<text text-anchor="middle" x="576.5" y="-56.5" font-family="Helvetica,sans-Serif" font-size="10.00">Table.add</text>
</a>
</g>
</g>
<!-- Node9&#45;&gt;Node10 -->
<g id="edge10" class="edge">
<title>Node9&#45;&gt;Node10</title>
<path fill="none" stroke="midnightblue" d="M383.26,-135.32C406.35,-121.44 442.46,-101.2 476,-88.5 481.78,-86.31 487.83,-84.27 493.96,-82.39"/>
<polygon fill="midnightblue" stroke="midnightblue" points="495.03,-85.72 503.64,-79.55 493.06,-79 495.03,-85.72"/>
</g>
<!-- Node11 -->
<g id="node11" class="node">
<title>Node11</title>
<g id="a_node11"><a xlink:href="classfspm_1_1config_1_1params_1_1hierarchy_1_1TableHierarchy_abc2eae14dccf78994e72a387599192dd.html#abc2eae14dccf78994e72a387599192dd" target="_top" xlink:title=" ">
<polygon fill="none" stroke="black" points="494.5,-98.5 494.5,-128.5 658.5,-128.5 658.5,-98.5 494.5,-98.5"/>
<text text-anchor="start" x="502.5" y="-116.5" font-family="Helvetica,sans-Serif" font-size="10.00">fspm.config.params.hierarchy.</text>
<text text-anchor="middle" x="576.5" y="-105.5" font-family="Helvetica,sans-Serif" font-size="10.00">TableHierarchy.addTable</text>
</a>
</g>
</g>
<!-- Node9&#45;&gt;Node11 -->
<g id="edge11" class="edge">
<title>Node9&#45;&gt;Node11</title>
<path fill="none" stroke="midnightblue" d="M440.23,-136.62C454.56,-134.17 469.57,-131.6 484.15,-129.11"/>
<polygon fill="midnightblue" stroke="midnightblue" points="484.9,-132.53 494.17,-127.4 483.73,-125.63 484.9,-132.53"/>
</g>
<!-- Node12 -->
<g id="node12" class="node">
<title>Node12</title>
<g id="a_node12"><a xlink:href="classfspm_1_1config_1_1params_1_1hierarchy_1_1TableHierarchy_a8e7d715c59f3acf3e79fb53f9d1ef884.html#a8e7d715c59f3acf3e79fb53f9d1ef884" target="_top" xlink:title=" ">
<polygon fill="none" stroke="black" points="494.5,-0.5 494.5,-30.5 658.5,-30.5 658.5,-0.5 494.5,-0.5"/>
<text text-anchor="start" x="502.5" y="-18.5" font-family="Helvetica,sans-Serif" font-size="10.00">fspm.config.params.hierarchy.</text>
<text text-anchor="middle" x="576.5" y="-7.5" font-family="Helvetica,sans-Serif" font-size="10.00">TableHierarchy.TableHierarchy</text>
</a>
</g>
</g>
<!-- Node9&#45;&gt;Node12 -->
<g id="edge15" class="edge">
<title>Node9&#45;&gt;Node12</title>
<path fill="none" stroke="midnightblue" d="M370.5,-135.33C389.65,-111.19 430.49,-64.24 476,-39.5 479.46,-37.62 483.06,-35.89 486.76,-34.29"/>
<polygon fill="midnightblue" stroke="midnightblue" points="488.11,-37.52 496.12,-30.58 485.54,-31.01 488.11,-37.52"/>
</g>
<!-- Node11&#45;&gt;Node4 -->
<g id="edge12" class="edge">
<title>Node11&#45;&gt;Node4</title>
<path fill="none" stroke="midnightblue" d="M655.82,-128.54C663.21,-131.32 670.4,-134.61 677,-138.5 722.35,-165.23 760.72,-215.43 779.2,-242.35"/>
<polygon fill="midnightblue" stroke="midnightblue" points="776.41,-244.47 784.88,-250.82 782.22,-240.57 776.41,-244.47"/>
</g>
</g>
</svg>
