<?xml version="1.0" encoding="UTF-8" standalone="no"?>
<!DOCTYPE svg PUBLIC "-//W3C//DTD SVG 1.1//EN"
 "http://www.w3.org/Graphics/SVG/1.1/DTD/svg11.dtd">
<!-- Generated by graphviz version 2.43.0 (0)
 -->
<!-- Title: fspm.config.params.ParamCategory.getString Pages: 1 -->
<svg width="564pt" height="235pt"
 viewBox="0.00 0.00 564.00 235.00" xmlns="http://www.w3.org/2000/svg" xmlns:xlink="http://www.w3.org/1999/xlink">
<g id="graph0" class="graph" transform="scale(1 1) rotate(0) translate(4 231)">
<title>fspm.config.params.ParamCategory.getString</title>
<!-- Node1 -->
<g id="node1" class="node">
<title>Node1</title>
<g id="a_node1"><a xlink:title=" ">
<polygon fill="#bfbfbf" stroke="black" points="409,-144.5 409,-174.5 556,-174.5 556,-144.5 409,-144.5"/>
<text text-anchor="start" x="417" y="-162.5" font-family="Helvetica,sans-Serif" font-size="10.00">fspm.config.params.Param</text>
<text text-anchor="middle" x="482.5" y="-151.5" font-family="Helvetica,sans-Serif" font-size="10.00">Category.getString</text>
</a>
</g>
</g>
<!-- Node2 -->
<g id="node2" class="node">
<title>Node2</title>
<g id="a_node2"><a xlink:href="classfspm_1_1config_1_1params_1_1hierarchy_1_1CategoryHierarchy_a17938746666bf49fe2633a4e9d24cd4b.html#a17938746666bf49fe2633a4e9d24cd4b" target="_top" xlink:title=" ">
<polygon fill="none" stroke="black" points="209,-122.5 209,-152.5 373,-152.5 373,-122.5 209,-122.5"/>
<text text-anchor="start" x="217" y="-140.5" font-family="Helvetica,sans-Serif" font-size="10.00">fspm.config.params.hierarchy.</text>
<text text-anchor="middle" x="291" y="-129.5" font-family="Helvetica,sans-Serif" font-size="10.00">CategoryHierarchy.getString</text>
</a>
</g>
</g>
<!-- Node1&#45;&gt;Node2 -->
<g id="edge1" class="edge">
<title>Node1&#45;&gt;Node2</title>
<path fill="none" stroke="midnightblue" d="M398.82,-149.9C390.27,-148.91 381.58,-147.9 373.05,-146.91"/>
<polygon fill="midnightblue" stroke="midnightblue" points="398.44,-153.38 408.78,-151.06 399.25,-146.43 398.44,-153.38"/>
</g>
<!-- Node4 -->
<g id="node4" class="node">
<title>Node4</title>
<g id="a_node4"><a xlink:href="classfspm_1_1config_1_1tests_1_1ParamAccess_1_1SimpleTest_a1ebf711e67df23a453e0ce50bc63b482.html#a1ebf711e67df23a453e0ce50bc63b482" target="_top" xlink:title=" ">
<polygon fill="none" stroke="black" points="0,-196.5 0,-226.5 173,-226.5 173,-196.5 0,-196.5"/>
<text text-anchor="start" x="8" y="-214.5" font-family="Helvetica,sans-Serif" font-size="10.00">fspm.config.tests.ParamAccess.</text>
<text text-anchor="middle" x="86.5" y="-203.5" font-family="Helvetica,sans-Serif" font-size="10.00">SimpleTest.testAccessExamples</text>
</a>
</g>
</g>
<!-- Node1&#45;&gt;Node4 -->
<g id="edge7" class="edge">
<title>Node1&#45;&gt;Node4</title>
<path fill="none" stroke="midnightblue" d="M398.8,-170.41C332.62,-179.15 240.13,-191.36 173.17,-200.19"/>
<polygon fill="midnightblue" stroke="midnightblue" points="399.32,-173.88 408.78,-169.1 398.4,-166.94 399.32,-173.88"/>
</g>
<!-- Node3 -->
<g id="node3" class="node">
<title>Node3</title>
<g id="a_node3"><a xlink:href="classfspm_1_1config_1_1params_1_1hierarchy_1_1CategoryHierarchy_a04a8bf1882e75d9f01107dc56b18452e.html#a04a8bf1882e75d9f01107dc56b18452e" target="_top" xlink:title=" ">
<polygon fill="none" stroke="black" points="4.5,-147.5 4.5,-177.5 168.5,-177.5 168.5,-147.5 4.5,-147.5"/>
<text text-anchor="start" x="12.5" y="-165.5" font-family="Helvetica,sans-Serif" font-size="10.00">fspm.config.params.hierarchy.</text>
<text text-anchor="middle" x="86.5" y="-154.5" font-family="Helvetica,sans-Serif" font-size="10.00">CategoryHierarchy.getString</text>
</a>
</g>
</g>
<!-- Node2&#45;&gt;Node3 -->
<g id="edge2" class="edge">
<title>Node2&#45;&gt;Node3</title>
<path fill="none" stroke="midnightblue" d="M198.83,-148.76C188.79,-150 178.62,-151.25 168.72,-152.47"/>
<polygon fill="midnightblue" stroke="midnightblue" points="199.31,-152.22 208.8,-147.52 198.45,-145.28 199.31,-152.22"/>
</g>
<!-- Node2&#45;&gt;Node4 -->
<g id="edge3" class="edge">
<title>Node2&#45;&gt;Node4</title>
<path fill="none" stroke="midnightblue" d="M248.26,-156.91C226.16,-166.78 198.41,-178.55 173,-187.5 164.13,-190.63 154.63,-193.62 145.31,-196.38"/>
<polygon fill="midnightblue" stroke="midnightblue" points="249.99,-159.96 257.67,-152.66 247.11,-153.58 249.99,-159.96"/>
</g>
<!-- Node5 -->
<g id="node5" class="node">
<title>Node5</title>
<g id="a_node5"><a xlink:href="classfspm_1_1config_1_1tests_1_1ParamAccess_1_1SimpleTest_a8a856d084a9f7cc18dd02285f8bff9b4.html#a8a856d084a9f7cc18dd02285f8bff9b4" target="_top" xlink:title=" ">
<polygon fill="none" stroke="black" points="1,-98.5 1,-128.5 172,-128.5 172,-98.5 1,-98.5"/>
<text text-anchor="start" x="9" y="-116.5" font-family="Helvetica,sans-Serif" font-size="10.00">fspm.config.tests.ParamAccess.</text>
<text text-anchor="middle" x="86.5" y="-105.5" font-family="Helvetica,sans-Serif" font-size="10.00">SimpleTest.testFlatCategories</text>
</a>
</g>
</g>
<!-- Node2&#45;&gt;Node5 -->
<g id="edge4" class="edge">
<title>Node2&#45;&gt;Node5</title>
<path fill="none" stroke="midnightblue" d="M198.8,-126.69C189.89,-125.63 180.87,-124.57 172.03,-123.52"/>
<polygon fill="midnightblue" stroke="midnightblue" points="198.46,-130.18 208.8,-127.88 199.28,-123.22 198.46,-130.18"/>
</g>
<!-- Node6 -->
<g id="node6" class="node">
<title>Node6</title>
<g id="a_node6"><a xlink:href="classfspm_1_1config_1_1tests_1_1ParamAccess_1_1SimpleTest_add14e7bad047c7089ed8e08680f4c2cf.html#add14e7bad047c7089ed8e08680f4c2cf" target="_top" xlink:title=" ">
<polygon fill="none" stroke="black" points="1,-49.5 1,-79.5 172,-79.5 172,-49.5 1,-49.5"/>
<text text-anchor="start" x="9" y="-67.5" font-family="Helvetica,sans-Serif" font-size="10.00">fspm.config.tests.ParamAccess.</text>
<text text-anchor="middle" x="86.5" y="-56.5" font-family="Helvetica,sans-Serif" font-size="10.00">SimpleTest.testNull</text>
</a>
</g>
</g>
<!-- Node2&#45;&gt;Node6 -->
<g id="edge5" class="edge">
<title>Node2&#45;&gt;Node6</title>
<path fill="none" stroke="midnightblue" d="M247.74,-118.32C225.72,-108.71 198.18,-97.27 173,-88.5 163.97,-85.36 154.3,-82.33 144.83,-79.54"/>
<polygon fill="midnightblue" stroke="midnightblue" points="246.57,-121.63 257.14,-122.46 249.4,-115.23 246.57,-121.63"/>
</g>
<!-- Node7 -->
<g id="node7" class="node">
<title>Node7</title>
<g id="a_node7"><a xlink:href="classfspm_1_1config_1_1tests_1_1ParamAccess_1_1SimpleTest_a6ff9e514f8013564285ff10fa6a0af6f.html#a6ff9e514f8013564285ff10fa6a0af6f" target="_top" xlink:title=" ">
<polygon fill="none" stroke="black" points="1,-0.5 1,-30.5 172,-30.5 172,-0.5 1,-0.5"/>
<text text-anchor="start" x="9" y="-18.5" font-family="Helvetica,sans-Serif" font-size="10.00">fspm.config.tests.ParamAccess.</text>
<text text-anchor="middle" x="86.5" y="-7.5" font-family="Helvetica,sans-Serif" font-size="10.00">SimpleTest.testTypes</text>
</a>
</g>
</g>
<!-- Node2&#45;&gt;Node7 -->
<g id="edge6" class="edge">
<title>Node2&#45;&gt;Node7</title>
<path fill="none" stroke="midnightblue" d="M268.85,-114.89C246.88,-92.67 210.52,-59.3 173,-39.5 166.59,-36.12 159.65,-33.17 152.6,-30.61"/>
<polygon fill="midnightblue" stroke="midnightblue" points="266.52,-117.51 276,-122.24 271.54,-112.63 266.52,-117.51"/>
</g>
</g>
</svg>
