<?xml version="1.0" encoding="UTF-8" standalone="no"?>
<!DOCTYPE svg PUBLIC "-//W3C//DTD SVG 1.1//EN"
 "http://www.w3.org/Graphics/SVG/1.1/DTD/svg11.dtd">
<!-- Generated by graphviz version 2.43.0 (0)
 -->
<!-- Title: io.github.fruitcropxl.config.util.KeyElement Pages: 1 -->
<svg width="169pt" height="179pt"
 viewBox="0.00 0.00 169.00 179.00" xmlns="http://www.w3.org/2000/svg" xmlns:xlink="http://www.w3.org/1999/xlink">
<g id="graph0" class="graph" transform="scale(1 1) rotate(0) translate(4 175)">
<title>io.github.fruitcropxl.config.util.KeyElement</title>
<!-- Node1 -->
<g id="Node000001" class="node">
<title>Node1</title>
<g id="a_Node000001"><a xlink:title="Represents an element which contains a key.">
<polygon fill="#999999" stroke="transparent" points="161,-75 0,-75 0,0 161,0 161,-75"/>
<text text-anchor="start" x="5.5" y="-62.5" font-family="Helvetica,sans-Serif" font-size="10.00">io.github.fruitcropxl.config.util.</text>
<text text-anchor="start" x="51.5" y="-51.5" font-family="Helvetica,sans-Serif" font-size="10.00">KeyElement</text>
<text text-anchor="start" x="79" y="-36.5" font-family="Helvetica,sans-Serif" font-size="10.00"> </text>
<text text-anchor="start" x="22.5" y="-21.5" font-family="Helvetica,sans-Serif" font-size="10.00">+</text>
<text text-anchor="start" x="53.5" y="-21.5" font-family="Helvetica,sans-Serif" font-size="10.00">KeyElement()</text>
<text text-anchor="start" x="22.5" y="-6.5" font-family="Helvetica,sans-Serif" font-size="10.00">+</text>
<text text-anchor="start" x="53.5" y="-6.5" font-family="Helvetica,sans-Serif" font-size="10.00">getKey()</text>
<polygon fill="#666666" stroke="#666666" points="0.5,-46.5 0.5,-46.5 161.5,-46.5 161.5,-46.5 0.5,-46.5"/>
<polygon fill="#666666" stroke="#666666" points="0.5,-31.5 0.5,-31.5 161.5,-31.5 161.5,-31.5 0.5,-31.5"/>
<polygon fill="none" stroke="#666666" points="0,0 0,-75 161,-75 161,0 0,0"/>
</a>
</g>
</g>
<!-- Node2 -->
<g id="Node000002" class="node">
<title>Node2</title>
<g id="a_Node000002"><a xlink:href="classSerializable.html" target="_top" xlink:title=" ">
<polygon fill="white" stroke="transparent" points="78.5,-171 10.5,-171 10.5,-122 78.5,-122 78.5,-171"/>
<text text-anchor="start" x="15.5" y="-158.5" font-family="Helvetica,sans-Serif" font-size="10.00">Serializable</text>
<text text-anchor="start" x="42.5" y="-143.5" font-family="Helvetica,sans-Serif" font-size="10.00"> </text>
<text text-anchor="start" x="42.5" y="-128.5" font-family="Helvetica,sans-Serif" font-size="10.00"> </text>
<polygon fill="#666666" stroke="#666666" points="10.5,-153.5 10.5,-153.5 78.5,-153.5 78.5,-153.5 10.5,-153.5"/>
<polygon fill="#666666" stroke="#666666" points="10.5,-138.5 10.5,-138.5 78.5,-138.5 78.5,-138.5 10.5,-138.5"/>
<polygon fill="none" stroke="#666666" points="10.5,-122 10.5,-171 78.5,-171 78.5,-122 10.5,-122"/>
</a>
</g>
</g>
<!-- Node2&#45;&gt;Node1 -->
<g id="edge1_Node000001_Node000002" class="edge">
<title>Node2&#45;&gt;Node1</title>
<g id="a_edge1_Node000001_Node000002"><a xlink:title=" ">
<path fill="none" stroke="#63b8ff" d="M55.79,-111.95C59.72,-100.28 64.14,-87.13 68.15,-75.22"/>
<polygon fill="none" stroke="#63b8ff" points="52.36,-111.16 52.49,-121.75 59,-113.39 52.36,-111.16"/>
</a>
</g>
</g>
<!-- Node3 -->
<g id="Node000003" class="node">
<title>Node3</title>
<g id="a_Node000003"><a xlink:title=" ">
<polygon fill="white" stroke="transparent" points="136,-171 97,-171 97,-122 136,-122 136,-171"/>
<text text-anchor="start" x="102.5" y="-158.5" font-family="Helvetica,sans-Serif" font-size="10.00">String</text>
<text text-anchor="start" x="115" y="-143.5" font-family="Helvetica,sans-Serif" font-size="10.00"> </text>
<text text-anchor="start" x="115" y="-128.5" font-family="Helvetica,sans-Serif" font-size="10.00"> </text>
<polygon fill="#666666" stroke="#666666" points="97.5,-153.5 97.5,-153.5 136.5,-153.5 136.5,-153.5 97.5,-153.5"/>
<polygon fill="#666666" stroke="#666666" points="97.5,-138.5 97.5,-138.5 136.5,-138.5 136.5,-138.5 97.5,-138.5"/>
<polygon fill="none" stroke="#666666" points="97,-122 97,-171 136,-171 136,-122 97,-122"/>
</a>
</g>
</g>
<!-- Node3&#45;&gt;Node1 -->
<g id="edge2_Node000001_Node000003" class="edge">
<title>Node3&#45;&gt;Node1</title>
<g id="a_edge2_Node000001_Node000003"><a xlink:title=" ">
<path fill="none" stroke="#63b8ff" d="M108.51,-121.75C105.03,-111.4 100.81,-98.86 96.71,-86.69"/>
<polygon fill="none" stroke="#63b8ff" points="96.68,-86.59 90.98,-82.18 92.85,-75.22 98.56,-79.63 96.68,-86.59"/>
</a>
</g>
<text text-anchor="middle" x="114" y="-96" font-family="Helvetica,sans-Serif" font-size="10.00" fill="grey"> &#45;key</text>
</g>
</g>
</svg>
