<?xml version="1.0" encoding="UTF-8" standalone="no"?>
<!DOCTYPE svg PUBLIC "-//W3C//DTD SVG 1.1//EN"
 "http://www.w3.org/Graphics/SVG/1.1/DTD/svg11.dtd">
<!-- Generated by graphviz version 2.43.0 (0)
 -->
<!-- Title: fspm.config.ConfigTest Pages: 1 -->
<!--zoomable 1853 -->
<svg id="main" version="1.1" xmlns="http://www.w3.org/2000/svg" xmlns:xlink="http://www.w3.org/1999/xlink" xml:space="preserve" onload="init(evt)">
<style type="text/css"><![CDATA[
.edge:hover path { stroke: red; }
.edge:hover polygon { stroke: red; fill: red; }
]]></style>
<script type="text/javascript"><![CDATA[
var edges = document.getElementsByTagName('g');
if (edges && edges.length) {
  for (var i=0;i<edges.length;i++) {
    if (edges[i].id.substr(0,4)=='edge') {
      edges[i].setAttribute('class','edge');
    }
  }
}
]]></script>
        <defs>
                <circle id="rim" cx="0" cy="0" r="7"/>
                <circle id="rim2" cx="0" cy="0" r="3.5"/>
                <g id="zoomPlus">
                        <use xlink:href="#rim" fill="#404040">
                                <set attributeName="fill" to="#808080" begin="zoomplus.mouseover" end="zoomplus.mouseout"/>
                        </use>
                        <path d="M-4,0h8M0,-4v8" fill="none" stroke="white" stroke-width="1.5" pointer-events="none"/>
                </g>
                <g id="zoomMin">
                        <use xlink:href="#rim" fill="#404040">
                                <set attributeName="fill" to="#808080" begin="zoomminus.mouseover" end="zoomminus.mouseout"/>
                        </use>
                        <path d="M-4,0h8" fill="none" stroke="white" stroke-width="1.5" pointer-events="none"/>
                </g>
                <g id="dirArrow">
                        <path fill="none" stroke="white" stroke-width="1.5" d="M0,-3.0v7 M-2.5,-0.5L0,-3.0L2.5,-0.5"/>
                </g>
               <g id="resetDef">
                       <use xlink:href="#rim2" fill="#404040">
                               <set attributeName="fill" to="#808080" begin="reset.mouseover" end="reset.mouseout"/>
                       </use>
               </g>
        </defs>

<script type="text/javascript">
var viewWidth = 826;
var viewHeight = 1853;
var sectionId = 'dynsection-0';
</script>
<script xlink:href="svgpan.js"/>
<svg id="graph" class="graph">
<g id="viewport">
<title>fspm.config.ConfigTest</title>
<!-- Node1 -->
<g id="node1" class="node">
<title>Node1</title>
<g id="a_node1"><a xlink:title=" ">
<polygon fill="#bfbfbf" stroke="black" points="400.5,-0.5 400.5,-211.5 577.5,-211.5 577.5,-0.5 400.5,-0.5"/>
<text text-anchor="middle" x="489" y="-199.5" font-family="Helvetica,sans-Serif" font-size="10.00">fspm.config.ConfigTest</text>
<polyline fill="none" stroke="black" points="400.5,-192.5 577.5,-192.5 "/>
<text text-anchor="middle" x="489" y="-180.5" font-family="Helvetica,sans-Serif" font-size="10.00"> </text>
<polyline fill="none" stroke="black" points="400.5,-173.5 577.5,-173.5 "/>
<text text-anchor="start" x="408.5" y="-161.5" font-family="Helvetica,sans-Serif" font-size="10.00">+ void runMain()</text>
<text text-anchor="start" x="408.5" y="-150.5" font-family="Helvetica,sans-Serif" font-size="10.00">&#45; static void addGroups()</text>
<text text-anchor="start" x="408.5" y="-139.5" font-family="Helvetica,sans-Serif" font-size="10.00">&#45; static void accessExamples()</text>
<text text-anchor="start" x="408.5" y="-128.5" font-family="Helvetica,sans-Serif" font-size="10.00">&#45; static void test_types()</text>
<text text-anchor="start" x="408.5" y="-117.5" font-family="Helvetica,sans-Serif" font-size="10.00">&#45; static void test_default()</text>
<text text-anchor="start" x="408.5" y="-106.5" font-family="Helvetica,sans-Serif" font-size="10.00">&#45; static void test_getIntAs</text>
<text text-anchor="start" x="408.5" y="-95.5" font-family="Helvetica,sans-Serif" font-size="10.00">Double()</text>
<text text-anchor="start" x="408.5" y="-84.5" font-family="Helvetica,sans-Serif" font-size="10.00">&#45; static void test_getFloat</text>
<text text-anchor="start" x="408.5" y="-73.5" font-family="Helvetica,sans-Serif" font-size="10.00">AsDouble()</text>
<text text-anchor="start" x="408.5" y="-62.5" font-family="Helvetica,sans-Serif" font-size="10.00">&#45; static void test_getNull</text>
<text text-anchor="start" x="408.5" y="-51.5" font-family="Helvetica,sans-Serif" font-size="10.00">AsTypes()</text>
<text text-anchor="start" x="408.5" y="-40.5" font-family="Helvetica,sans-Serif" font-size="10.00">&#45; static void test_phenology()</text>
<text text-anchor="start" x="408.5" y="-29.5" font-family="Helvetica,sans-Serif" font-size="10.00">&#45; static void test_flatCategories()</text>
<text text-anchor="start" x="408.5" y="-18.5" font-family="Helvetica,sans-Serif" font-size="10.00">&#45; static void println</text>
<text text-anchor="start" x="408.5" y="-7.5" font-family="Helvetica,sans-Serif" font-size="10.00">(Object o)</text>
</a>
</g>
</g>
<!-- Node2 -->
<g id="node2" class="node">
<title>Node2</title>
<g id="a_node2"><a xlink:href="classfspm_1_1config_1_1Config.html" target="_top" xlink:title="Configuration class for storing input configurations to be used in simulations.">
<polygon fill="none" stroke="black" points="399,-259.5 399,-910.5 579,-910.5 579,-259.5 399,-259.5"/>
<text text-anchor="middle" x="489" y="-898.5" font-family="Helvetica,sans-Serif" font-size="10.00">fspm.config.Config</text>
<polyline fill="none" stroke="black" points="399,-891.5 579,-891.5 "/>
<text text-anchor="middle" x="489" y="-879.5" font-family="Helvetica,sans-Serif" font-size="10.00"> </text>
<polyline fill="none" stroke="black" points="399,-872.5 579,-872.5 "/>
<text text-anchor="start" x="407" y="-860.5" font-family="Helvetica,sans-Serif" font-size="10.00">+ void reset()</text>
<text text-anchor="start" x="407" y="-849.5" font-family="Helvetica,sans-Serif" font-size="10.00">+ void addGroup(ConfigAdapter</text>
<text text-anchor="start" x="407" y="-838.5" font-family="Helvetica,sans-Serif" font-size="10.00"> adapter)</text>
<text text-anchor="start" x="407" y="-827.5" font-family="Helvetica,sans-Serif" font-size="10.00">+ void addGroup(String</text>
<text text-anchor="start" x="407" y="-816.5" font-family="Helvetica,sans-Serif" font-size="10.00"> key, ConfigAdapter adapter)</text>
<text text-anchor="start" x="407" y="-805.5" font-family="Helvetica,sans-Serif" font-size="10.00">+ void addGroup(ParamGroup</text>
<text text-anchor="start" x="407" y="-794.5" font-family="Helvetica,sans-Serif" font-size="10.00"> group)</text>
<text text-anchor="start" x="407" y="-783.5" font-family="Helvetica,sans-Serif" font-size="10.00">+ ParamGroup getGroup</text>
<text text-anchor="start" x="407" y="-772.5" font-family="Helvetica,sans-Serif" font-size="10.00">(String key)</text>
<text text-anchor="start" x="407" y="-761.5" font-family="Helvetica,sans-Serif" font-size="10.00">+ boolean removeGroup</text>
<text text-anchor="start" x="407" y="-750.5" font-family="Helvetica,sans-Serif" font-size="10.00">(String key)</text>
<text text-anchor="start" x="407" y="-739.5" font-family="Helvetica,sans-Serif" font-size="10.00">+ Config setGroupContext</text>
<text text-anchor="start" x="407" y="-728.5" font-family="Helvetica,sans-Serif" font-size="10.00">(String key)</text>
<text text-anchor="start" x="407" y="-717.5" font-family="Helvetica,sans-Serif" font-size="10.00">+ Config setCategoryContext</text>
<text text-anchor="start" x="407" y="-706.5" font-family="Helvetica,sans-Serif" font-size="10.00">(String key)</text>
<text text-anchor="start" x="407" y="-695.5" font-family="Helvetica,sans-Serif" font-size="10.00">+ Boolean getBoolean</text>
<text text-anchor="start" x="407" y="-684.5" font-family="Helvetica,sans-Serif" font-size="10.00">(String key)</text>
<text text-anchor="start" x="407" y="-673.5" font-family="Helvetica,sans-Serif" font-size="10.00">+ String getString(String key)</text>
<text text-anchor="start" x="407" y="-662.5" font-family="Helvetica,sans-Serif" font-size="10.00">+ Integer getInteger</text>
<text text-anchor="start" x="407" y="-651.5" font-family="Helvetica,sans-Serif" font-size="10.00">(String key)</text>
<text text-anchor="start" x="407" y="-640.5" font-family="Helvetica,sans-Serif" font-size="10.00">+ Double getDouble(String key)</text>
<text text-anchor="start" x="407" y="-629.5" font-family="Helvetica,sans-Serif" font-size="10.00">+ Double[] getDoubleArray</text>
<text text-anchor="start" x="407" y="-618.5" font-family="Helvetica,sans-Serif" font-size="10.00">(String key)</text>
<text text-anchor="start" x="407" y="-607.5" font-family="Helvetica,sans-Serif" font-size="10.00">+ boolean getBoolean</text>
<text text-anchor="start" x="407" y="-596.5" font-family="Helvetica,sans-Serif" font-size="10.00">(String key, boolean</text>
<text text-anchor="start" x="407" y="-585.5" font-family="Helvetica,sans-Serif" font-size="10.00"> defaultValue)</text>
<text text-anchor="start" x="407" y="-574.5" font-family="Helvetica,sans-Serif" font-size="10.00">+ String getString(String</text>
<text text-anchor="start" x="407" y="-563.5" font-family="Helvetica,sans-Serif" font-size="10.00"> key, String defaultValue)</text>
<text text-anchor="start" x="407" y="-552.5" font-family="Helvetica,sans-Serif" font-size="10.00">+ int getInteger(String</text>
<text text-anchor="start" x="407" y="-541.5" font-family="Helvetica,sans-Serif" font-size="10.00"> key, int defaultValue)</text>
<text text-anchor="start" x="407" y="-530.5" font-family="Helvetica,sans-Serif" font-size="10.00">+ double getDouble(String</text>
<text text-anchor="start" x="407" y="-519.5" font-family="Helvetica,sans-Serif" font-size="10.00"> key, double defaultValue)</text>
<text text-anchor="start" x="407" y="-508.5" font-family="Helvetica,sans-Serif" font-size="10.00">+ double[] getDoubleArray</text>
<text text-anchor="start" x="407" y="-497.5" font-family="Helvetica,sans-Serif" font-size="10.00">(String key, double[]</text>
<text text-anchor="start" x="407" y="-486.5" font-family="Helvetica,sans-Serif" font-size="10.00"> defaultValue)</text>
<text text-anchor="start" x="407" y="-475.5" font-family="Helvetica,sans-Serif" font-size="10.00">+ void set(String key,</text>
<text text-anchor="start" x="407" y="-464.5" font-family="Helvetica,sans-Serif" font-size="10.00"> boolean value)</text>
<text text-anchor="start" x="407" y="-453.5" font-family="Helvetica,sans-Serif" font-size="10.00">+ void set(String key,</text>
<text text-anchor="start" x="407" y="-442.5" font-family="Helvetica,sans-Serif" font-size="10.00"> String value)</text>
<text text-anchor="start" x="407" y="-431.5" font-family="Helvetica,sans-Serif" font-size="10.00">+ void set(String key,</text>
<text text-anchor="start" x="407" y="-420.5" font-family="Helvetica,sans-Serif" font-size="10.00"> int value)</text>
<text text-anchor="start" x="407" y="-409.5" font-family="Helvetica,sans-Serif" font-size="10.00">+ void set(String key,</text>
<text text-anchor="start" x="407" y="-398.5" font-family="Helvetica,sans-Serif" font-size="10.00"> double value)</text>
<text text-anchor="start" x="407" y="-387.5" font-family="Helvetica,sans-Serif" font-size="10.00">+ void set(String key,</text>
<text text-anchor="start" x="407" y="-376.5" font-family="Helvetica,sans-Serif" font-size="10.00"> Double[] value)</text>
<text text-anchor="start" x="407" y="-365.5" font-family="Helvetica,sans-Serif" font-size="10.00">+ boolean isNull(String key)</text>
<text text-anchor="start" x="407" y="-354.5" font-family="Helvetica,sans-Serif" font-size="10.00">+ static Config getInstance()</text>
<text text-anchor="start" x="407" y="-343.5" font-family="Helvetica,sans-Serif" font-size="10.00">&#45; Config()</text>
<text text-anchor="start" x="407" y="-332.5" font-family="Helvetica,sans-Serif" font-size="10.00">&#45; void addGroup(String</text>
<text text-anchor="start" x="407" y="-321.5" font-family="Helvetica,sans-Serif" font-size="10.00"> key, ParamGroup group)</text>
<text text-anchor="start" x="407" y="-310.5" font-family="Helvetica,sans-Serif" font-size="10.00">&#45; void checkGroupContextExists()</text>
<text text-anchor="start" x="407" y="-299.5" font-family="Helvetica,sans-Serif" font-size="10.00">&#45; boolean isCategoryContext</text>
<text text-anchor="start" x="407" y="-288.5" font-family="Helvetica,sans-Serif" font-size="10.00">Exists()</text>
<text text-anchor="start" x="407" y="-277.5" font-family="Helvetica,sans-Serif" font-size="10.00">&#45; void checkContextsExists</text>
<text text-anchor="start" x="407" y="-266.5" font-family="Helvetica,sans-Serif" font-size="10.00">(String key)</text>
</a>
</g>
</g>
<!-- Node2&#45;&gt;Node1 -->
<g id="edge1" class="edge">
<title>Node2&#45;&gt;Node1</title>
<path fill="none" stroke="#404040" d="M489,-259.24C489,-247 489,-235.12 489,-223.74"/>
<polygon fill="none" stroke="#404040" points="489,-223.59 485,-217.59 489,-211.59 493,-217.59 489,-223.59"/>
<text text-anchor="middle" x="514" y="-233" font-family="Helvetica,sans-Serif" font-size="10.00"> ~CONFIG</text>
</g>
<!-- Node2&#45;&gt;Node2 -->
<g id="edge10" class="edge">
<title>Node2&#45;&gt;Node2</title>
<path fill="none" stroke="#404040" d="M579.2,-641.07C589.97,-630.88 597,-612.19 597,-585 597,-564.82 593.13,-549.32 586.73,-538.51"/>
<polygon fill="none" stroke="#404040" points="586.62,-538.36 579.76,-536.12 579.2,-528.93 586.05,-531.17 586.62,-538.36"/>
<text text-anchor="middle" x="621.5" y="-582.5" font-family="Helvetica,sans-Serif" font-size="10.00"> &#45;instance</text>
</g>
<!-- Node3 -->
<g id="node3" class="node">
<title>Node3</title>
<g id="a_node3"><a xlink:href="interfacefspm_1_1config_1_1params_1_1ParamAccessor.html" target="_top" xlink:title="Blueprint for all classes that handles getting and setting of parameters.">
<polygon fill="none" stroke="black" points="0,-1462.5 0,-1728.5 172,-1728.5 172,-1462.5 0,-1462.5"/>
<text text-anchor="start" x="8" y="-1716.5" font-family="Helvetica,sans-Serif" font-size="10.00">fspm.config.params.Param</text>
<text text-anchor="middle" x="86" y="-1705.5" font-family="Helvetica,sans-Serif" font-size="10.00">Accessor</text>
<polyline fill="none" stroke="black" points="0,-1698.5 172,-1698.5 "/>
<text text-anchor="middle" x="86" y="-1686.5" font-family="Helvetica,sans-Serif" font-size="10.00"> </text>
<polyline fill="none" stroke="black" points="0,-1679.5 172,-1679.5 "/>
<text text-anchor="start" x="8" y="-1667.5" font-family="Helvetica,sans-Serif" font-size="10.00">+ Boolean getBoolean</text>
<text text-anchor="start" x="8" y="-1656.5" font-family="Helvetica,sans-Serif" font-size="10.00">(String key)</text>
<text text-anchor="start" x="8" y="-1645.5" font-family="Helvetica,sans-Serif" font-size="10.00">+ String getString(String key)</text>
<text text-anchor="start" x="8" y="-1634.5" font-family="Helvetica,sans-Serif" font-size="10.00">+ Integer getInteger</text>
<text text-anchor="start" x="8" y="-1623.5" font-family="Helvetica,sans-Serif" font-size="10.00">(String key)</text>
<text text-anchor="start" x="8" y="-1612.5" font-family="Helvetica,sans-Serif" font-size="10.00">+ Double getDouble(String key)</text>
<text text-anchor="start" x="8" y="-1601.5" font-family="Helvetica,sans-Serif" font-size="10.00">+ Double[] getDoubleArray</text>
<text text-anchor="start" x="8" y="-1590.5" font-family="Helvetica,sans-Serif" font-size="10.00">(String key)</text>
<text text-anchor="start" x="8" y="-1579.5" font-family="Helvetica,sans-Serif" font-size="10.00">+ void set(String key,</text>
<text text-anchor="start" x="8" y="-1568.5" font-family="Helvetica,sans-Serif" font-size="10.00"> boolean value)</text>
<text text-anchor="start" x="8" y="-1557.5" font-family="Helvetica,sans-Serif" font-size="10.00">+ void set(String key,</text>
<text text-anchor="start" x="8" y="-1546.5" font-family="Helvetica,sans-Serif" font-size="10.00"> String value)</text>
<text text-anchor="start" x="8" y="-1535.5" font-family="Helvetica,sans-Serif" font-size="10.00">+ void set(String key,</text>
<text text-anchor="start" x="8" y="-1524.5" font-family="Helvetica,sans-Serif" font-size="10.00"> int value)</text>
<text text-anchor="start" x="8" y="-1513.5" font-family="Helvetica,sans-Serif" font-size="10.00">+ void set(String key,</text>
<text text-anchor="start" x="8" y="-1502.5" font-family="Helvetica,sans-Serif" font-size="10.00"> double value)</text>
<text text-anchor="start" x="8" y="-1491.5" font-family="Helvetica,sans-Serif" font-size="10.00">+ void set(String key,</text>
<text text-anchor="start" x="8" y="-1480.5" font-family="Helvetica,sans-Serif" font-size="10.00"> Double[] value)</text>
<text text-anchor="start" x="8" y="-1469.5" font-family="Helvetica,sans-Serif" font-size="10.00">+ boolean isNull(String key)</text>
</a>
</g>
</g>
<!-- Node3&#45;&gt;Node2 -->
<g id="edge2" class="edge">
<title>Node3&#45;&gt;Node2</title>
<path fill="none" stroke="midnightblue" d="M85.3,-1452C89.58,-1318.82 108.94,-1117.18 180,-958 231,-843.77 327.31,-736.49 398.91,-666.77"/>
<polygon fill="none" stroke="midnightblue" points="81.79,-1452.17 85,-1462.27 88.79,-1452.38 81.79,-1452.17"/>
</g>
<!-- Node4 -->
<g id="node4" class="node">
<title>Node4</title>
<g id="a_node4"><a xlink:href="classfspm_1_1config_1_1params_1_1ParamCategory.html" target="_top" xlink:title="A ParamCategory stores Parameters that belong to a common category.">
<polygon fill="none" stroke="black" points="189.5,-958.5 189.5,-1356.5 374.5,-1356.5 374.5,-958.5 189.5,-958.5"/>
<text text-anchor="start" x="197.5" y="-1344.5" font-family="Helvetica,sans-Serif" font-size="10.00">fspm.config.params.Param</text>
<text text-anchor="middle" x="282" y="-1333.5" font-family="Helvetica,sans-Serif" font-size="10.00">Category</text>
<polyline fill="none" stroke="black" points="189.5,-1326.5 374.5,-1326.5 "/>
<text text-anchor="middle" x="282" y="-1314.5" font-family="Helvetica,sans-Serif" font-size="10.00"> </text>
<polyline fill="none" stroke="black" points="189.5,-1307.5 374.5,-1307.5 "/>
<text text-anchor="start" x="197.5" y="-1295.5" font-family="Helvetica,sans-Serif" font-size="10.00">+ ParamCategory(String key)</text>
<text text-anchor="start" x="197.5" y="-1284.5" font-family="Helvetica,sans-Serif" font-size="10.00">+ String getKey()</text>
<text text-anchor="start" x="197.5" y="-1273.5" font-family="Helvetica,sans-Serif" font-size="10.00">+ void add(Parameter</text>
<text text-anchor="start" x="197.5" y="-1262.5" font-family="Helvetica,sans-Serif" font-size="10.00"> param)</text>
<text text-anchor="start" x="197.5" y="-1251.5" font-family="Helvetica,sans-Serif" font-size="10.00">+ void set(String key,</text>
<text text-anchor="start" x="197.5" y="-1240.5" font-family="Helvetica,sans-Serif" font-size="10.00"> String value)</text>
<text text-anchor="start" x="197.5" y="-1229.5" font-family="Helvetica,sans-Serif" font-size="10.00">+ void set(String key,</text>
<text text-anchor="start" x="197.5" y="-1218.5" font-family="Helvetica,sans-Serif" font-size="10.00"> double value)</text>
<text text-anchor="start" x="197.5" y="-1207.5" font-family="Helvetica,sans-Serif" font-size="10.00">+ void set(String key,</text>
<text text-anchor="start" x="197.5" y="-1196.5" font-family="Helvetica,sans-Serif" font-size="10.00"> boolean value)</text>
<text text-anchor="start" x="197.5" y="-1185.5" font-family="Helvetica,sans-Serif" font-size="10.00">+ void set(String key,</text>
<text text-anchor="start" x="197.5" y="-1174.5" font-family="Helvetica,sans-Serif" font-size="10.00"> int value)</text>
<text text-anchor="start" x="197.5" y="-1163.5" font-family="Helvetica,sans-Serif" font-size="10.00">+ void set(String key,</text>
<text text-anchor="start" x="197.5" y="-1152.5" font-family="Helvetica,sans-Serif" font-size="10.00"> Double[] value)</text>
<text text-anchor="start" x="197.5" y="-1141.5" font-family="Helvetica,sans-Serif" font-size="10.00">+ Boolean getBoolean</text>
<text text-anchor="start" x="197.5" y="-1130.5" font-family="Helvetica,sans-Serif" font-size="10.00">(String key)</text>
<text text-anchor="start" x="197.5" y="-1119.5" font-family="Helvetica,sans-Serif" font-size="10.00">+ String getString(String key)</text>
<text text-anchor="start" x="197.5" y="-1108.5" font-family="Helvetica,sans-Serif" font-size="10.00">+ Integer getInteger</text>
<text text-anchor="start" x="197.5" y="-1097.5" font-family="Helvetica,sans-Serif" font-size="10.00">(String key)</text>
<text text-anchor="start" x="197.5" y="-1086.5" font-family="Helvetica,sans-Serif" font-size="10.00">+ Double getDouble(String key)</text>
<text text-anchor="start" x="197.5" y="-1075.5" font-family="Helvetica,sans-Serif" font-size="10.00">+ Double[] getDoubleArray</text>
<text text-anchor="start" x="197.5" y="-1064.5" font-family="Helvetica,sans-Serif" font-size="10.00">(String key)</text>
<text text-anchor="start" x="197.5" y="-1053.5" font-family="Helvetica,sans-Serif" font-size="10.00">+ boolean isNull(String key)</text>
<text text-anchor="start" x="197.5" y="-1042.5" font-family="Helvetica,sans-Serif" font-size="10.00">+ Parameter get(String key)</text>
<text text-anchor="start" x="197.5" y="-1031.5" font-family="Helvetica,sans-Serif" font-size="10.00">+ String toString()</text>
<text text-anchor="start" x="197.5" y="-1020.5" font-family="Helvetica,sans-Serif" font-size="10.00">~ private&lt; T extends</text>
<text text-anchor="start" x="197.5" y="-1009.5" font-family="Helvetica,sans-Serif" font-size="10.00"> Parameter &gt; Parameter</text>
<text text-anchor="start" x="197.5" y="-998.5" font-family="Helvetica,sans-Serif" font-size="10.00"> getIfInstanceOf(String</text>
<text text-anchor="start" x="197.5" y="-987.5" font-family="Helvetica,sans-Serif" font-size="10.00"> key, Class&lt; T &gt; paramTypeClass)</text>
<text text-anchor="start" x="197.5" y="-976.5" font-family="Helvetica,sans-Serif" font-size="10.00">&#45; void set(String key,</text>
<text text-anchor="start" x="197.5" y="-965.5" font-family="Helvetica,sans-Serif" font-size="10.00"> Parameter param)</text>
</a>
</g>
</g>
<!-- Node3&#45;&gt;Node4 -->
<g id="edge4" class="edge">
<title>Node3&#45;&gt;Node4</title>
<path fill="none" stroke="midnightblue" d="M149.72,-1452.75C163.53,-1422.04 178.37,-1389.02 192.95,-1356.59"/>
<polygon fill="none" stroke="midnightblue" points="146.38,-1451.65 145.47,-1462.21 152.76,-1454.52 146.38,-1451.65"/>
</g>
<!-- Node4&#45;&gt;Node2 -->
<g id="edge3" class="edge">
<title>Node4&#45;&gt;Node2</title>
<path fill="none" stroke="#404040" d="M353.96,-958.17C367.11,-921.94 381,-883.65 394.68,-845.96"/>
<polygon fill="none" stroke="#404040" points="394.82,-845.56 393.11,-838.55 398.91,-834.28 400.63,-841.28 394.82,-845.56"/>
<text text-anchor="middle" x="405" y="-932" font-family="Helvetica,sans-Serif" font-size="10.00"> &#45;categoryContext</text>
</g>
<!-- Node5 -->
<g id="node5" class="node">
<title>Node5</title>
<g id="a_node5"><a xlink:title=" ">
<polygon fill="none" stroke="#bfbfbf" points="391.5,-1567 391.5,-1624 436.5,-1624 436.5,-1567 391.5,-1567"/>
<text text-anchor="middle" x="414" y="-1612" font-family="Helvetica,sans-Serif" font-size="10.00">String</text>
<polyline fill="none" stroke="#bfbfbf" points="391.5,-1605 436.5,-1605 "/>
<text text-anchor="middle" x="414" y="-1593" font-family="Helvetica,sans-Serif" font-size="10.00"> </text>
<polyline fill="none" stroke="#bfbfbf" points="391.5,-1586 436.5,-1586 "/>
<text text-anchor="middle" x="414" y="-1574" font-family="Helvetica,sans-Serif" font-size="10.00"> </text>
</a>
</g>
</g>
<!-- Node5&#45;&gt;Node4 -->
<g id="edge5" class="edge">
<title>Node5&#45;&gt;Node4</title>
<path fill="none" stroke="#404040" d="M408.03,-1566.92C402.04,-1540 392.25,-1497.96 382,-1462 373.3,-1431.47 363.49,-1399.42 353.51,-1368.07"/>
<polygon fill="none" stroke="#404040" points="353.48,-1367.98 347.84,-1363.48 349.82,-1356.55 355.46,-1361.04 353.48,-1367.98"/>
<text text-anchor="middle" x="387.5" y="-1407" font-family="Helvetica,sans-Serif" font-size="10.00"> &#45;key</text>
</g>
<!-- Node9 -->
<g id="node9" class="node">
<title>Node9</title>
<g id="a_node9"><a xlink:href="classfspm_1_1config_1_1params_1_1ParamGroup.html" target="_top" xlink:title="Parameter configuration class for storing parameter categories.">
<polygon fill="none" stroke="black" points="392.5,-1079.5 392.5,-1235.5 585.5,-1235.5 585.5,-1079.5 392.5,-1079.5"/>
<text text-anchor="start" x="400.5" y="-1223.5" font-family="Helvetica,sans-Serif" font-size="10.00">fspm.config.params.Param</text>
<text text-anchor="middle" x="489" y="-1212.5" font-family="Helvetica,sans-Serif" font-size="10.00">Group</text>
<polyline fill="none" stroke="black" points="392.5,-1205.5 585.5,-1205.5 "/>
<text text-anchor="middle" x="489" y="-1193.5" font-family="Helvetica,sans-Serif" font-size="10.00"> </text>
<polyline fill="none" stroke="black" points="392.5,-1186.5 585.5,-1186.5 "/>
<text text-anchor="start" x="400.5" y="-1174.5" font-family="Helvetica,sans-Serif" font-size="10.00">+ ParamGroup(String key)</text>
<text text-anchor="start" x="400.5" y="-1163.5" font-family="Helvetica,sans-Serif" font-size="10.00">+ String getKey()</text>
<text text-anchor="start" x="400.5" y="-1152.5" font-family="Helvetica,sans-Serif" font-size="10.00">+ void addCategory(ParamCategory</text>
<text text-anchor="start" x="400.5" y="-1141.5" font-family="Helvetica,sans-Serif" font-size="10.00"> category)</text>
<text text-anchor="start" x="400.5" y="-1130.5" font-family="Helvetica,sans-Serif" font-size="10.00">+ ParamCategory getCategory</text>
<text text-anchor="start" x="400.5" y="-1119.5" font-family="Helvetica,sans-Serif" font-size="10.00">(String key)</text>
<text text-anchor="start" x="400.5" y="-1108.5" font-family="Helvetica,sans-Serif" font-size="10.00">+ ParamCategory getCategory</text>
<text text-anchor="start" x="400.5" y="-1097.5" font-family="Helvetica,sans-Serif" font-size="10.00">WithParam(String paramKey)</text>
<text text-anchor="start" x="400.5" y="-1086.5" font-family="Helvetica,sans-Serif" font-size="10.00">+ String toString()</text>
</a>
</g>
</g>
<!-- Node5&#45;&gt;Node9 -->
<g id="edge12" class="edge">
<title>Node5&#45;&gt;Node9</title>
<path fill="none" stroke="#404040" d="M418.75,-1566.9C429.58,-1503.94 456.49,-1347.47 473.69,-1247.51"/>
<polygon fill="none" stroke="#404040" points="473.7,-1247.43 470.78,-1240.84 475.74,-1235.61 478.66,-1242.2 473.7,-1247.43"/>
<text text-anchor="middle" x="464.5" y="-1407" font-family="Helvetica,sans-Serif" font-size="10.00"> &#45;key</text>
</g>
<!-- Node6 -->
<g id="node6" class="node">
<title>Node6</title>
<g id="a_node6"><a xlink:title=" ">
<polygon fill="none" stroke="#bfbfbf" points="190.5,-1561.5 190.5,-1629.5 373.5,-1629.5 373.5,-1561.5 190.5,-1561.5"/>
<text text-anchor="start" x="198.5" y="-1617.5" font-family="Helvetica,sans-Serif" font-size="10.00">Map&lt; String, fspm.config.params.</text>
<text text-anchor="middle" x="282" y="-1606.5" font-family="Helvetica,sans-Serif" font-size="10.00">Parameter &gt;</text>
<polyline fill="none" stroke="#bfbfbf" points="190.5,-1599.5 373.5,-1599.5 "/>
<text text-anchor="middle" x="282" y="-1587.5" font-family="Helvetica,sans-Serif" font-size="10.00"> </text>
<polyline fill="none" stroke="#bfbfbf" points="190.5,-1580.5 373.5,-1580.5 "/>
<text text-anchor="middle" x="282" y="-1568.5" font-family="Helvetica,sans-Serif" font-size="10.00"> </text>
</a>
</g>
</g>
<!-- Node6&#45;&gt;Node4 -->
<g id="edge6" class="edge">
<title>Node6&#45;&gt;Node4</title>
<path fill="none" stroke="#404040" d="M282,-1561.37C282,-1519.44 282,-1443.65 282,-1369.02"/>
<polygon fill="none" stroke="#404040" points="282,-1368.58 278,-1362.58 282,-1356.58 286,-1362.58 282,-1368.58"/>
<text text-anchor="middle" x="304" y="-1407" font-family="Helvetica,sans-Serif" font-size="10.00"> &#45;params</text>
</g>
<!-- Node7 -->
<g id="node7" class="node">
<title>Node7</title>
<g id="a_node7"><a xlink:title=" ">
<polygon fill="none" stroke="#bfbfbf" points="488,-1787.5 488,-1844.5 526,-1844.5 526,-1787.5 488,-1787.5"/>
<text text-anchor="middle" x="507" y="-1832.5" font-family="Helvetica,sans-Serif" font-size="10.00">Map</text>
<polyline fill="none" stroke="#bfbfbf" points="488,-1825.5 526,-1825.5 "/>
<text text-anchor="middle" x="507" y="-1813.5" font-family="Helvetica,sans-Serif" font-size="10.00"> </text>
<polyline fill="none" stroke="#bfbfbf" points="488,-1806.5 526,-1806.5 "/>
<text text-anchor="middle" x="507" y="-1794.5" font-family="Helvetica,sans-Serif" font-size="10.00"> </text>
</a>
</g>
</g>
<!-- Node7&#45;&gt;Node6 -->
<g id="edge7" class="edge">
<title>Node7&#45;&gt;Node6</title>
<path fill="none" stroke="orange" d="M477.8,-1808.83C452.61,-1802.34 416.39,-1790.06 391,-1769 345.05,-1730.89 312.37,-1668.22 295.39,-1629.83"/>
<polygon fill="orange" stroke="orange" points="477.31,-1812.32 487.85,-1811.27 478.96,-1805.51 477.31,-1812.32"/>
<text text-anchor="start" x="391" y="-1761" font-family="Helvetica,sans-Serif" font-size="10.00"> &lt; String, fspm::config</text>
<text text-anchor="middle" x="446.5" y="-1750" font-family="Helvetica,sans-Serif" font-size="10.00">::params::Parameter &gt;</text>
</g>
<!-- Node8 -->
<g id="node8" class="node">
<title>Node8</title>
<g id="a_node8"><a xlink:title=" ">
<polygon fill="none" stroke="#bfbfbf" points="568.5,-1375.5 568.5,-1443.5 751.5,-1443.5 751.5,-1375.5 568.5,-1375.5"/>
<text text-anchor="start" x="576.5" y="-1431.5" font-family="Helvetica,sans-Serif" font-size="10.00">Map&lt; String, fspm.config.params.</text>
<text text-anchor="middle" x="660" y="-1420.5" font-family="Helvetica,sans-Serif" font-size="10.00">ParamGroup &gt;</text>
<polyline fill="none" stroke="#bfbfbf" points="568.5,-1413.5 751.5,-1413.5 "/>
<text text-anchor="middle" x="660" y="-1401.5" font-family="Helvetica,sans-Serif" font-size="10.00"> </text>
<polyline fill="none" stroke="#bfbfbf" points="568.5,-1394.5 751.5,-1394.5 "/>
<text text-anchor="middle" x="660" y="-1382.5" font-family="Helvetica,sans-Serif" font-size="10.00"> </text>
</a>
</g>
</g>
<!-- Node7&#45;&gt;Node8 -->
<g id="edge9" class="edge">
<title>Node7&#45;&gt;Node8</title>
<path fill="none" stroke="orange" d="M536.29,-1814.14C568.29,-1811.48 618.4,-1801.92 644,-1769 719.24,-1672.23 688.28,-1512.45 669.92,-1443.67"/>
<polygon fill="orange" stroke="orange" points="535.94,-1810.66 526.19,-1814.8 536.4,-1817.64 535.94,-1810.66"/>
<text text-anchor="start" x="655" y="-1761" font-family="Helvetica,sans-Serif" font-size="10.00"> &lt; String, fspm::config</text>
<text text-anchor="middle" x="715.5" y="-1750" font-family="Helvetica,sans-Serif" font-size="10.00">::params::ParamGroup &gt;</text>
</g>
<!-- Node10 -->
<g id="node10" class="node">
<title>Node10</title>
<g id="a_node10"><a xlink:title=" ">
<polygon fill="none" stroke="#bfbfbf" points="454.5,-1561.5 454.5,-1629.5 637.5,-1629.5 637.5,-1561.5 454.5,-1561.5"/>
<text text-anchor="start" x="462.5" y="-1617.5" font-family="Helvetica,sans-Serif" font-size="10.00">Map&lt; String, fspm.config.params.</text>
<text text-anchor="middle" x="546" y="-1606.5" font-family="Helvetica,sans-Serif" font-size="10.00">ParamCategory &gt;</text>
<polyline fill="none" stroke="#bfbfbf" points="454.5,-1599.5 637.5,-1599.5 "/>
<text text-anchor="middle" x="546" y="-1587.5" font-family="Helvetica,sans-Serif" font-size="10.00"> </text>
<polyline fill="none" stroke="#bfbfbf" points="454.5,-1580.5 637.5,-1580.5 "/>
<text text-anchor="middle" x="546" y="-1568.5" font-family="Helvetica,sans-Serif" font-size="10.00"> </text>
</a>
</g>
</g>
<!-- Node7&#45;&gt;Node10 -->
<g id="edge14" class="edge">
<title>Node7&#45;&gt;Node10</title>
<path fill="none" stroke="orange" d="M505.99,-1777.43C506.15,-1767.5 506.71,-1756.82 508,-1747 513.42,-1705.86 526.07,-1659.75 535.29,-1629.54"/>
<polygon fill="orange" stroke="orange" points="502.49,-1777.42 505.96,-1787.43 509.49,-1777.45 502.49,-1777.42"/>
<text text-anchor="start" x="508" y="-1761" font-family="Helvetica,sans-Serif" font-size="10.00"> &lt; String, fspm::config</text>
<text text-anchor="middle" x="576" y="-1750" font-family="Helvetica,sans-Serif" font-size="10.00">::params::ParamCategory &gt;</text>
</g>
<!-- Node8&#45;&gt;Node2 -->
<g id="edge8" class="edge">
<title>Node8&#45;&gt;Node2</title>
<path fill="none" stroke="#404040" d="M638.68,-1375.35C635.65,-1369.43 632.92,-1363.17 631,-1357 578.14,-1186.97 627.54,-1133.06 595,-958 591.17,-937.39 586.7,-916.27 581.79,-895.08"/>
<polygon fill="none" stroke="#404040" points="581.77,-894.98 576.51,-890.06 579.03,-883.3 584.29,-888.23 581.77,-894.98"/>
<text text-anchor="middle" x="667.5" y="-1155" font-family="Helvetica,sans-Serif" font-size="10.00"> &#45;paramGroups</text>
</g>
<!-- Node9&#45;&gt;Node2 -->
<g id="edge11" class="edge">
<title>Node9&#45;&gt;Node2</title>
<path fill="none" stroke="#404040" d="M489,-1079.26C489,-1037.04 489,-981.5 489,-922.95"/>
<polygon fill="none" stroke="#404040" points="489,-922.81 485,-916.81 489,-910.81 493,-916.81 489,-922.81"/>
<text text-anchor="middle" x="525.5" y="-932" font-family="Helvetica,sans-Serif" font-size="10.00"> &#45;groupContext</text>
</g>
<!-- Node10&#45;&gt;Node9 -->
<g id="edge13" class="edge">
<title>Node10&#45;&gt;Node9</title>
<path fill="none" stroke="#404040" d="M533.79,-1561.26C523.31,-1531.12 508.86,-1485.22 502,-1444 491.16,-1378.91 488.08,-1304.4 487.61,-1247.82"/>
<polygon fill="none" stroke="#404040" points="487.61,-1247.66 483.58,-1241.69 487.55,-1235.67 491.58,-1241.64 487.61,-1247.66"/>
<text text-anchor="middle" x="531" y="-1407" font-family="Helvetica,sans-Serif" font-size="10.00"> &#45;categories</text>
</g>
<!-- Node11 -->
<g id="node11" class="node">
<title>Node11</title>
<g id="a_node11"><a xlink:title=" ">
<polygon fill="none" stroke="#bfbfbf" points="713,-1129 713,-1186 769,-1186 769,-1129 713,-1129"/>
<text text-anchor="middle" x="741" y="-1174" font-family="Helvetica,sans-Serif" font-size="10.00">boolean</text>
<polyline fill="none" stroke="#bfbfbf" points="713,-1167 769,-1167 "/>
<text text-anchor="middle" x="741" y="-1155" font-family="Helvetica,sans-Serif" font-size="10.00"> </text>
<polyline fill="none" stroke="#bfbfbf" points="713,-1148 769,-1148 "/>
<text text-anchor="middle" x="741" y="-1136" font-family="Helvetica,sans-Serif" font-size="10.00"> </text>
</a>
</g>
</g>
<!-- Node11&#45;&gt;Node2 -->
<g id="edge15" class="edge">
<title>Node11&#45;&gt;Node2</title>
<path fill="none" stroke="#404040" d="M737.85,-1128.78C732.81,-1089.71 721.16,-1016.65 699,-958 669.58,-880.13 625.59,-799.03 585.46,-732.5"/>
<polygon fill="none" stroke="#404040" points="585.28,-732.21 578.75,-729.16 579.05,-721.95 585.59,-725 585.28,-732.21"/>
<text text-anchor="middle" x="754" y="-932" font-family="Helvetica,sans-Serif" font-size="10.00"> +useFlattenedCategories</text>
</g>
</g>
</svg>
        <g id="navigator" transform="translate(0 0)" fill="#404254">
                <rect fill="#f2f5e9" fill-opacity="0.5" stroke="#606060" stroke-width=".5" x="0" y="0" width="60" height="60"/>
                <use id="zoomplus" xlink:href="#zoomPlus" x="17" y="9" onmousedown="handleZoom(evt,'in')"/>
                <use id="zoomminus" xlink:href="#zoomMin" x="42" y="9" onmousedown="handleZoom(evt,'out')"/>
                <use id="reset" xlink:href="#resetDef" x="30" y="36" onmousedown="handleReset()"/>
                <g id="arrowUp" xlink:href="#dirArrow" transform="translate(30 24)" onmousedown="handlePan(0,-1)">
                  <use xlink:href="#rim" fill="#404040">
                        <set attributeName="fill" to="#808080" begin="arrowUp.mouseover" end="arrowUp.mouseout"/>
                  </use>
                  <path fill="none" stroke="white" stroke-width="1.5" d="M0,-3.0v7 M-2.5,-0.5L0,-3.0L2.5,-0.5"/>
                </g>
                <g id="arrowRight" xlink:href="#dirArrow" transform="rotate(90) translate(36 -43)" onmousedown="handlePan(1,0)">
                  <use xlink:href="#rim" fill="#404040">
                        <set attributeName="fill" to="#808080" begin="arrowRight.mouseover" end="arrowRight.mouseout"/>
                  </use>
                  <path fill="none" stroke="white" stroke-width="1.5" d="M0,-3.0v7 M-2.5,-0.5L0,-3.0L2.5,-0.5"/>
                </g>
                <g id="arrowDown" xlink:href="#dirArrow" transform="rotate(180) translate(-30 -48)" onmousedown="handlePan(0,1)">
                  <use xlink:href="#rim" fill="#404040">
                        <set attributeName="fill" to="#808080" begin="arrowDown.mouseover" end="arrowDown.mouseout"/>
                  </use>
                  <path fill="none" stroke="white" stroke-width="1.5" d="M0,-3.0v7 M-2.5,-0.5L0,-3.0L2.5,-0.5"/>
                </g>
                <g id="arrowLeft" xlink:href="#dirArrow" transform="rotate(270) translate(-36 17)" onmousedown="handlePan(-1,0)">
                  <use xlink:href="#rim" fill="#404040">
                        <set attributeName="fill" to="#808080" begin="arrowLeft.mouseover" end="arrowLeft.mouseout"/>
                  </use>
                  <path fill="none" stroke="white" stroke-width="1.5" d="M0,-3.0v7 M-2.5,-0.5L0,-3.0L2.5,-0.5"/>
                </g>
        </g>
        <svg viewBox="0 0 15 15" width="100%" height="30px" preserveAspectRatio="xMaxYMin meet">
         <g id="arrow_out" transform="scale(0.3 0.3)">
          <a xlink:href="classfspm_1_1config_1_1ConfigTest__coll__graph_org.svg" target="_base">
           <rect id="button" ry="5" rx="5" y="6" x="6" height="38" width="38"
                fill="#f2f5e9" fill-opacity="0.5" stroke="#606060" stroke-width="1.0"/>
           <path id="arrow"
             d="M 11.500037,31.436501 C 11.940474,20.09759 22.043105,11.32322 32.158766,21.979434 L 37.068811,17.246167 C 37.068811,17.246167 37.088388,32 37.088388,32 L 22.160133,31.978069 C 22.160133,31.978069 26.997745,27.140456 26.997745,27.140456 C 18.528582,18.264221 13.291696,25.230495 11.500037,31.436501 z"
             style="fill:#404040;"/>
          </a>
         </g>
        </svg>
</svg>
