<?xml version="1.0" encoding="UTF-8" standalone="no"?>
<!DOCTYPE svg PUBLIC "-//W3C//DTD SVG 1.1//EN"
 "http://www.w3.org/Graphics/SVG/1.1/DTD/svg11.dtd">
<!-- Generated by graphviz version 2.43.0 (0)
 -->
<!-- Title: fspm.config.params.type.NullParam Pages: 1 -->
<svg width="175pt" height="204pt"
 viewBox="0.00 0.00 175.00 204.00" xmlns="http://www.w3.org/2000/svg" xmlns:xlink="http://www.w3.org/1999/xlink">
<g id="graph0" class="graph" transform="scale(1 1) rotate(0) translate(4 200)">
<title>fspm.config.params.type.NullParam</title>
<!-- Node1 -->
<g id="node1" class="node">
<title>Node1</title>
<g id="a_node1"><a xlink:title="Concrete Parameter implementation for Null parameters representing a null value JsonNode.">
<polygon fill="#bfbfbf" stroke="black" points="13,-0.5 13,-90.5 154,-90.5 154,-0.5 13,-0.5"/>
<text text-anchor="start" x="21" y="-78.5" font-family="Helvetica,sans-Serif" font-size="10.00">fspm.config.params.type.</text>
<text text-anchor="middle" x="83.5" y="-67.5" font-family="Helvetica,sans-Serif" font-size="10.00">NullParam</text>
<polyline fill="none" stroke="black" points="13,-60.5 154,-60.5 "/>
<text text-anchor="start" x="21" y="-48.5" font-family="Helvetica,sans-Serif" font-size="10.00">+ static final String</text>
<text text-anchor="start" x="21" y="-37.5" font-family="Helvetica,sans-Serif" font-size="10.00"> nullString</text>
<polyline fill="none" stroke="black" points="13,-30.5 154,-30.5 "/>
<text text-anchor="start" x="21" y="-18.5" font-family="Helvetica,sans-Serif" font-size="10.00">+ NullParam(String key)</text>
<text text-anchor="start" x="21" y="-7.5" font-family="Helvetica,sans-Serif" font-size="10.00">+ String toString()</text>
</a>
</g>
</g>
<!-- Node2 -->
<g id="node2" class="node">
<title>Node2</title>
<g id="a_node2"><a xlink:href="classfspm_1_1config_1_1params_1_1Parameter.html" target="_top" xlink:title="Parameter represents variables that can be stored using Java data types or other user&#45;defined types.">
<polygon fill="none" stroke="black" points="0,-127.5 0,-195.5 167,-195.5 167,-127.5 0,-127.5"/>
<text text-anchor="middle" x="83.5" y="-183.5" font-family="Helvetica,sans-Serif" font-size="10.00">fspm.config.params.Parameter</text>
<polyline fill="none" stroke="black" points="0,-176.5 167,-176.5 "/>
<text text-anchor="start" x="8" y="-164.5" font-family="Helvetica,sans-Serif" font-size="10.00">&#45; String key</text>
<polyline fill="none" stroke="black" points="0,-157.5 167,-157.5 "/>
<text text-anchor="start" x="8" y="-145.5" font-family="Helvetica,sans-Serif" font-size="10.00">+ String getKey()</text>
<text text-anchor="start" x="8" y="-134.5" font-family="Helvetica,sans-Serif" font-size="10.00"># Parameter(String key)</text>
</a>
</g>
</g>
<!-- Node2&#45;&gt;Node1 -->
<g id="edge1" class="edge">
<title>Node2&#45;&gt;Node1</title>
<path fill="none" stroke="midnightblue" d="M83.5,-116.97C83.5,-108.35 83.5,-99.28 83.5,-90.64"/>
<polygon fill="none" stroke="midnightblue" points="80,-117.22 83.5,-127.22 87,-117.22 80,-117.22"/>
</g>
</g>
</svg>
