<?xml version="1.0" encoding="UTF-8" standalone="no"?>
<!DOCTYPE svg PUBLIC "-//W3C//DTD SVG 1.1//EN"
 "http://www.w3.org/Graphics/SVG/1.1/DTD/svg11.dtd">
<!-- Generated by graphviz version 2.43.0 (0)
 -->
<!-- Title: fspm.config.params.structures.CategoryStore.getCategoryWithParam Pages: 1 -->
<!--zoomable 725 -->
<svg id="main" version="1.1" xmlns="http://www.w3.org/2000/svg" xmlns:xlink="http://www.w3.org/1999/xlink" xml:space="preserve" onload="init(evt)">
<style type="text/css"><![CDATA[
.edge:hover path { stroke: red; }
.edge:hover polygon { stroke: red; fill: red; }
]]></style>
<script type="text/javascript"><![CDATA[
var edges = document.getElementsByTagName('g');
if (edges && edges.length) {
  for (var i=0;i<edges.length;i++) {
    if (edges[i].id.substr(0,4)=='edge') {
      edges[i].setAttribute('class','edge');
    }
  }
}
]]></script>
        <defs>
                <circle id="rim" cx="0" cy="0" r="7"/>
                <circle id="rim2" cx="0" cy="0" r="3.5"/>
                <g id="zoomPlus">
                        <use xlink:href="#rim" fill="#404040">
                                <set attributeName="fill" to="#808080" begin="zoomplus.mouseover" end="zoomplus.mouseout"/>
                        </use>
                        <path d="M-4,0h8M0,-4v8" fill="none" stroke="white" stroke-width="1.5" pointer-events="none"/>
                </g>
                <g id="zoomMin">
                        <use xlink:href="#rim" fill="#404040">
                                <set attributeName="fill" to="#808080" begin="zoomminus.mouseover" end="zoomminus.mouseout"/>
                        </use>
                        <path d="M-4,0h8" fill="none" stroke="white" stroke-width="1.5" pointer-events="none"/>
                </g>
                <g id="dirArrow">
                        <path fill="none" stroke="white" stroke-width="1.5" d="M0,-3.0v7 M-2.5,-0.5L0,-3.0L2.5,-0.5"/>
                </g>
               <g id="resetDef">
                       <use xlink:href="#rim2" fill="#404040">
                               <set attributeName="fill" to="#808080" begin="reset.mouseover" end="reset.mouseout"/>
                       </use>
               </g>
        </defs>

<script type="text/javascript">
var viewWidth = 896;
var viewHeight = 725;
var sectionId = 'dynsection-1';
</script>
<script xlink:href="svgpan.js"/>
<svg id="graph" class="graph">
<g id="viewport">
<title>fspm.config.params.structures.CategoryStore.getCategoryWithParam</title>
<!-- Node1 -->
<g id="node1" class="node">
<title>Node1</title>
<g id="a_node1"><a xlink:title=" ">
<polygon fill="#bfbfbf" stroke="black" points="685,-245.5 685,-275.5 888,-275.5 888,-245.5 685,-245.5"/>
<text text-anchor="start" x="693" y="-263.5" font-family="Helvetica,sans-Serif" font-size="10.00">fspm.config.params.structures.</text>
<text text-anchor="middle" x="786.5" y="-252.5" font-family="Helvetica,sans-Serif" font-size="10.00">CategoryStore.getCategoryWithParam</text>
</a>
</g>
</g>
<!-- Node2 -->
<g id="node2" class="node">
<title>Node2</title>
<g id="a_node2"><a xlink:href="classfspm_1_1config_1_1params_1_1structures_1_1CategoryStore_ae066b355d784560a9c277722940d3d4a.html#ae066b355d784560a9c277722940d3d4a" target="_top" xlink:title=" ">
<polygon fill="none" stroke="black" points="440,-245.5 440,-275.5 649,-275.5 649,-245.5 440,-245.5"/>
<text text-anchor="start" x="448" y="-263.5" font-family="Helvetica,sans-Serif" font-size="10.00">fspm.config.params.structures.</text>
<text text-anchor="middle" x="544.5" y="-252.5" font-family="Helvetica,sans-Serif" font-size="10.00">CategoryStore.validateFlattenedAccess</text>
</a>
</g>
</g>
<!-- Node1&#45;&gt;Node2 -->
<g id="edge1" class="edge">
<title>Node1&#45;&gt;Node2</title>
<path fill="none" stroke="midnightblue" d="M674.75,-260.5C666.2,-260.5 657.57,-260.5 649.06,-260.5"/>
<polygon fill="midnightblue" stroke="midnightblue" points="674.76,-264 684.76,-260.5 674.76,-257 674.76,-264"/>
</g>
<!-- Node3 -->
<g id="node3" class="node">
<title>Node3</title>
<g id="a_node3"><a xlink:href="classfspm_1_1config_1_1params_1_1structures_1_1CategoryStore_ac2aa1d4fec9c78f0e9433016759c39e0.html#ac2aa1d4fec9c78f0e9433016759c39e0" target="_top" xlink:title=" ">
<polygon fill="none" stroke="black" points="234.5,-612.5 234.5,-642.5 402.5,-642.5 402.5,-612.5 234.5,-612.5"/>
<text text-anchor="start" x="242.5" y="-630.5" font-family="Helvetica,sans-Serif" font-size="10.00">fspm.config.params.structures.</text>
<text text-anchor="middle" x="318.5" y="-619.5" font-family="Helvetica,sans-Serif" font-size="10.00">CategoryStore.getArray</text>
</a>
</g>
</g>
<!-- Node2&#45;&gt;Node3 -->
<g id="edge2" class="edge">
<title>Node2&#45;&gt;Node3</title>
<path fill="none" stroke="midnightblue" d="M538.3,-285.45C525.12,-343.39 485.5,-489.02 404,-579.5 391.35,-593.54 373.6,-604.48 357.63,-612.35"/>
<polygon fill="midnightblue" stroke="midnightblue" points="541.72,-286.2 540.46,-275.68 534.88,-284.69 541.72,-286.2"/>
</g>
<!-- Node7 -->
<g id="node7" class="node">
<title>Node7</title>
<g id="a_node7"><a xlink:href="classfspm_1_1config_1_1params_1_1structures_1_1CategoryStore_adbcea0df7b9ee09a9981f4740c7400a6.html#adbcea0df7b9ee09a9981f4740c7400a6" target="_top" xlink:title=" ">
<polygon fill="none" stroke="black" points="234.5,-245.5 234.5,-275.5 402.5,-275.5 402.5,-245.5 234.5,-245.5"/>
<text text-anchor="start" x="242.5" y="-263.5" font-family="Helvetica,sans-Serif" font-size="10.00">fspm.config.params.structures.</text>
<text text-anchor="middle" x="318.5" y="-252.5" font-family="Helvetica,sans-Serif" font-size="10.00">CategoryStore.getBoolean</text>
</a>
</g>
</g>
<!-- Node2&#45;&gt;Node7 -->
<g id="edge6" class="edge">
<title>Node2&#45;&gt;Node7</title>
<path fill="none" stroke="midnightblue" d="M429.54,-260.5C420.54,-260.5 411.56,-260.5 402.82,-260.5"/>
<polygon fill="midnightblue" stroke="midnightblue" points="429.7,-264 439.7,-260.5 429.7,-257 429.7,-264"/>
</g>
<!-- Node12 -->
<g id="node12" class="node">
<title>Node12</title>
<g id="a_node12"><a xlink:href="classfspm_1_1config_1_1params_1_1structures_1_1CategoryStore_aca9abcc056b90dadb0c476b829f77f92.html#aca9abcc056b90dadb0c476b829f77f92" target="_top" xlink:title=" ">
<polygon fill="none" stroke="black" points="233,-441.5 233,-471.5 404,-471.5 404,-441.5 233,-441.5"/>
<text text-anchor="start" x="241" y="-459.5" font-family="Helvetica,sans-Serif" font-size="10.00">fspm.config.params.structures.</text>
<text text-anchor="middle" x="318.5" y="-448.5" font-family="Helvetica,sans-Serif" font-size="10.00">CategoryStore.getBooleanArray</text>
</a>
</g>
</g>
<!-- Node2&#45;&gt;Node12 -->
<g id="edge11" class="edge">
<title>Node2&#45;&gt;Node12</title>
<path fill="none" stroke="midnightblue" d="M518.69,-282.51C490.85,-307.18 444.3,-348.33 404,-383.5 380.92,-403.64 354.14,-426.73 337.02,-441.45"/>
<polygon fill="midnightblue" stroke="midnightblue" points="521.21,-284.96 526.37,-275.7 516.56,-279.72 521.21,-284.96"/>
</g>
<!-- Node14 -->
<g id="node14" class="node">
<title>Node14</title>
<g id="a_node14"><a xlink:href="classfspm_1_1config_1_1params_1_1structures_1_1CategoryStore_a07f4c3b69f3b2f6a5d635aad33488b15.html#a07f4c3b69f3b2f6a5d635aad33488b15" target="_top" xlink:title=" ">
<polygon fill="none" stroke="black" points="234.5,-343.5 234.5,-373.5 402.5,-373.5 402.5,-343.5 234.5,-343.5"/>
<text text-anchor="start" x="242.5" y="-361.5" font-family="Helvetica,sans-Serif" font-size="10.00">fspm.config.params.structures.</text>
<text text-anchor="middle" x="318.5" y="-350.5" font-family="Helvetica,sans-Serif" font-size="10.00">CategoryStore.getDouble</text>
</a>
</g>
</g>
<!-- Node2&#45;&gt;Node14 -->
<g id="edge13" class="edge">
<title>Node2&#45;&gt;Node14</title>
<path fill="none" stroke="midnightblue" d="M510.2,-280.74C482.52,-296.92 441.71,-319.34 404,-334.5 395.93,-337.74 387.27,-340.73 378.68,-343.42"/>
<polygon fill="midnightblue" stroke="midnightblue" points="512.23,-283.61 519.06,-275.51 508.67,-277.58 512.23,-283.61"/>
</g>
<!-- Node20 -->
<g id="node20" class="node">
<title>Node20</title>
<g id="a_node20"><a xlink:href="classfspm_1_1config_1_1params_1_1structures_1_1CategoryStore_a9950176b2d1474857fac4ca1f0cb58ea.html#a9950176b2d1474857fac4ca1f0cb58ea" target="_top" xlink:title=" ">
<polygon fill="none" stroke="black" points="234.5,-294.5 234.5,-324.5 402.5,-324.5 402.5,-294.5 234.5,-294.5"/>
<text text-anchor="start" x="242.5" y="-312.5" font-family="Helvetica,sans-Serif" font-size="10.00">fspm.config.params.structures.</text>
<text text-anchor="middle" x="318.5" y="-301.5" font-family="Helvetica,sans-Serif" font-size="10.00">CategoryStore.getDoubleArray</text>
</a>
</g>
</g>
<!-- Node2&#45;&gt;Node20 -->
<g id="edge20" class="edge">
<title>Node2&#45;&gt;Node20</title>
<path fill="none" stroke="midnightblue" d="M464.94,-277.69C439.89,-283.16 412.38,-289.18 388.1,-294.49"/>
<polygon fill="midnightblue" stroke="midnightblue" points="465.75,-281.09 474.77,-275.53 464.25,-274.25 465.75,-281.09"/>
</g>
<!-- Node21 -->
<g id="node21" class="node">
<title>Node21</title>
<g id="a_node21"><a xlink:href="classfspm_1_1config_1_1params_1_1structures_1_1CategoryStore_ac01c1aeb2e8b97d657263cac5b8b272a.html#ac01c1aeb2e8b97d657263cac5b8b272a" target="_top" xlink:title=" ">
<polygon fill="none" stroke="black" points="234.5,-147.5 234.5,-177.5 402.5,-177.5 402.5,-147.5 234.5,-147.5"/>
<text text-anchor="start" x="242.5" y="-165.5" font-family="Helvetica,sans-Serif" font-size="10.00">fspm.config.params.structures.</text>
<text text-anchor="middle" x="318.5" y="-154.5" font-family="Helvetica,sans-Serif" font-size="10.00">CategoryStore.getInteger</text>
</a>
</g>
</g>
<!-- Node2&#45;&gt;Node21 -->
<g id="edge21" class="edge">
<title>Node2&#45;&gt;Node21</title>
<path fill="none" stroke="midnightblue" d="M509.36,-240.24C481.65,-224.39 441.22,-202.58 404,-187.5 395.07,-183.88 385.41,-180.53 375.93,-177.53"/>
<polygon fill="midnightblue" stroke="midnightblue" points="507.84,-243.4 518.25,-245.37 511.34,-237.34 507.84,-243.4"/>
</g>
<!-- Node23 -->
<g id="node23" class="node">
<title>Node23</title>
<g id="a_node23"><a xlink:href="classfspm_1_1config_1_1params_1_1structures_1_1CategoryStore_a6759242817483869cfef2820dfb8afe4.html#a6759242817483869cfef2820dfb8afe4" target="_top" xlink:title=" ">
<polygon fill="none" stroke="black" points="234.5,-539.5 234.5,-569.5 402.5,-569.5 402.5,-539.5 234.5,-539.5"/>
<text text-anchor="start" x="242.5" y="-557.5" font-family="Helvetica,sans-Serif" font-size="10.00">fspm.config.params.structures.</text>
<text text-anchor="middle" x="318.5" y="-546.5" font-family="Helvetica,sans-Serif" font-size="10.00">CategoryStore.getIntegerArray</text>
</a>
</g>
</g>
<!-- Node2&#45;&gt;Node23 -->
<g id="edge26" class="edge">
<title>Node2&#45;&gt;Node23</title>
<path fill="none" stroke="midnightblue" d="M531.26,-284.77C509.21,-327.22 459.88,-416.58 404,-481.5 384.65,-503.98 358.25,-525.67 340.13,-539.48"/>
<polygon fill="midnightblue" stroke="midnightblue" points="534.44,-286.24 535.91,-275.74 528.22,-283.03 534.44,-286.24"/>
</g>
<!-- Node24 -->
<g id="node24" class="node">
<title>Node24</title>
<g id="a_node24"><a xlink:href="classfspm_1_1config_1_1params_1_1structures_1_1CategoryStore_a2b41f068e5aeebf3afdea43c4186aaaa.html#a2b41f068e5aeebf3afdea43c4186aaaa" target="_top" xlink:title=" ">
<polygon fill="none" stroke="black" points="234.5,-196.5 234.5,-226.5 402.5,-226.5 402.5,-196.5 234.5,-196.5"/>
<text text-anchor="start" x="242.5" y="-214.5" font-family="Helvetica,sans-Serif" font-size="10.00">fspm.config.params.structures.</text>
<text text-anchor="middle" x="318.5" y="-203.5" font-family="Helvetica,sans-Serif" font-size="10.00">CategoryStore.getString</text>
</a>
</g>
</g>
<!-- Node2&#45;&gt;Node24 -->
<g id="edge28" class="edge">
<title>Node2&#45;&gt;Node24</title>
<path fill="none" stroke="midnightblue" d="M464.94,-243.31C439.89,-237.84 412.38,-231.82 388.1,-226.51"/>
<polygon fill="midnightblue" stroke="midnightblue" points="464.25,-246.75 474.77,-245.47 465.75,-239.91 464.25,-246.75"/>
</g>
<!-- Node26 -->
<g id="node26" class="node">
<title>Node26</title>
<g id="a_node26"><a xlink:href="classfspm_1_1config_1_1params_1_1structures_1_1CategoryStore_a9061f43fab298f2399489236e31c198d.html#a9061f43fab298f2399489236e31c198d" target="_top" xlink:title=" ">
<polygon fill="none" stroke="black" points="234.5,-98.5 234.5,-128.5 402.5,-128.5 402.5,-98.5 234.5,-98.5"/>
<text text-anchor="start" x="242.5" y="-116.5" font-family="Helvetica,sans-Serif" font-size="10.00">fspm.config.params.structures.</text>
<text text-anchor="middle" x="318.5" y="-105.5" font-family="Helvetica,sans-Serif" font-size="10.00">CategoryStore.getStringArray</text>
</a>
</g>
</g>
<!-- Node2&#45;&gt;Node26 -->
<g id="edge34" class="edge">
<title>Node2&#45;&gt;Node26</title>
<path fill="none" stroke="midnightblue" d="M523.57,-237.91C498.31,-210.61 452.23,-165.04 404,-138.5 397.03,-134.66 389.41,-131.36 381.68,-128.52"/>
<polygon fill="midnightblue" stroke="midnightblue" points="521.09,-240.39 530.42,-245.42 526.27,-235.67 521.09,-240.39"/>
</g>
<!-- Node27 -->
<g id="node27" class="node">
<title>Node27</title>
<g id="a_node27"><a xlink:href="classfspm_1_1config_1_1params_1_1structures_1_1CategoryStore_a56fc7f50592ed263798ee94ecd789b4b.html#a56fc7f50592ed263798ee94ecd789b4b" target="_top" xlink:title=" ">
<polygon fill="none" stroke="black" points="234.5,-49.5 234.5,-79.5 402.5,-79.5 402.5,-49.5 234.5,-49.5"/>
<text text-anchor="start" x="242.5" y="-67.5" font-family="Helvetica,sans-Serif" font-size="10.00">fspm.config.params.structures.</text>
<text text-anchor="middle" x="318.5" y="-56.5" font-family="Helvetica,sans-Serif" font-size="10.00">CategoryStore.isNull</text>
</a>
</g>
</g>
<!-- Node2&#45;&gt;Node27 -->
<g id="edge35" class="edge">
<title>Node2&#45;&gt;Node27</title>
<path fill="none" stroke="midnightblue" d="M530.23,-236.27C508.64,-199.14 462.42,-128.37 404,-89.5 398.27,-85.69 391.94,-82.44 385.4,-79.68"/>
<polygon fill="midnightblue" stroke="midnightblue" points="527.42,-238.42 535.41,-245.38 533.5,-234.95 527.42,-238.42"/>
</g>
<!-- Node28 -->
<g id="node28" class="node">
<title>Node28</title>
<g id="a_node28"><a xlink:href="classfspm_1_1config_1_1params_1_1structures_1_1CategoryStore_a0e0bf49ac1f827559ae35a5cff9dbd24.html#a0e0bf49ac1f827559ae35a5cff9dbd24" target="_top" xlink:title=" ">
<polygon fill="none" stroke="black" points="234.5,-0.5 234.5,-30.5 402.5,-30.5 402.5,-0.5 234.5,-0.5"/>
<text text-anchor="start" x="242.5" y="-18.5" font-family="Helvetica,sans-Serif" font-size="10.00">fspm.config.params.structures.</text>
<text text-anchor="middle" x="318.5" y="-7.5" font-family="Helvetica,sans-Serif" font-size="10.00">CategoryStore.set</text>
</a>
</g>
</g>
<!-- Node2&#45;&gt;Node28 -->
<g id="edge37" class="edge">
<title>Node2&#45;&gt;Node28</title>
<path fill="none" stroke="midnightblue" d="M534.9,-236.07C517.55,-190.36 473.92,-91.8 404,-39.5 399.36,-36.03 394.23,-33.06 388.87,-30.52"/>
<polygon fill="midnightblue" stroke="midnightblue" points="531.64,-237.33 538.39,-245.49 538.2,-234.9 531.64,-237.33"/>
</g>
<!-- Node4 -->
<g id="node4" class="node">
<title>Node4</title>
<g id="a_node4"><a xlink:href="classfspm_1_1config_1_1params_1_1structures_1_1CategoryStore_a4131c35940f4f94adc66a52f714c31bb.html#a4131c35940f4f94adc66a52f714c31bb" target="_top" xlink:title=" ">
<polygon fill="none" stroke="black" points="14.5,-686.5 14.5,-716.5 182.5,-716.5 182.5,-686.5 14.5,-686.5"/>
<text text-anchor="start" x="22.5" y="-704.5" font-family="Helvetica,sans-Serif" font-size="10.00">fspm.config.params.structures.</text>
<text text-anchor="middle" x="98.5" y="-693.5" font-family="Helvetica,sans-Serif" font-size="10.00">CategoryStore.getArray</text>
</a>
</g>
</g>
<!-- Node3&#45;&gt;Node4 -->
<g id="edge3" class="edge">
<title>Node3&#45;&gt;Node4</title>
<path fill="none" stroke="midnightblue" d="M275.61,-646.73C252.7,-656.77 223.64,-668.75 197,-677.5 187.23,-680.71 176.78,-683.71 166.49,-686.44"/>
<polygon fill="midnightblue" stroke="midnightblue" points="277.29,-649.81 285.02,-642.56 274.46,-643.41 277.29,-649.81"/>
</g>
<!-- Node5 -->
<g id="node5" class="node">
<title>Node5</title>
<g id="a_node5"><a xlink:href="classfspm_1_1config_1_1tests_1_1ParamAccess_1_1ArrayTest_a7f034099689706d2e263f1d7d04b0f9a.html#a7f034099689706d2e263f1d7d04b0f9a" target="_top" xlink:title=" ">
<polygon fill="none" stroke="black" points="13,-588.5 13,-618.5 184,-618.5 184,-588.5 13,-588.5"/>
<text text-anchor="start" x="21" y="-606.5" font-family="Helvetica,sans-Serif" font-size="10.00">fspm.config.tests.ParamAccess.</text>
<text text-anchor="middle" x="98.5" y="-595.5" font-family="Helvetica,sans-Serif" font-size="10.00">ArrayTest.testGetArrays</text>
</a>
</g>
</g>
<!-- Node3&#45;&gt;Node5 -->
<g id="edge4" class="edge">
<title>Node3&#45;&gt;Node5</title>
<path fill="none" stroke="midnightblue" d="M224.33,-617.24C210.97,-615.77 197.29,-614.27 184.11,-612.82"/>
<polygon fill="midnightblue" stroke="midnightblue" points="224.14,-620.74 234.46,-618.36 224.9,-613.78 224.14,-620.74"/>
</g>
<!-- Node6 -->
<g id="node6" class="node">
<title>Node6</title>
<g id="a_node6"><a xlink:href="classfspm_1_1config_1_1tests_1_1ParamAccess_1_1ArrayTest_aeb939f25bb8cc9702e5a4ad8d2cdbc2c.html#aeb939f25bb8cc9702e5a4ad8d2cdbc2c" target="_top" xlink:title=" ">
<polygon fill="none" stroke="black" points="13,-637.5 13,-667.5 184,-667.5 184,-637.5 13,-637.5"/>
<text text-anchor="start" x="21" y="-655.5" font-family="Helvetica,sans-Serif" font-size="10.00">fspm.config.tests.ParamAccess.</text>
<text text-anchor="middle" x="98.5" y="-644.5" font-family="Helvetica,sans-Serif" font-size="10.00">ArrayTest.testPhenology</text>
</a>
</g>
</g>
<!-- Node3&#45;&gt;Node6 -->
<g id="edge5" class="edge">
<title>Node3&#45;&gt;Node6</title>
<path fill="none" stroke="midnightblue" d="M224.33,-638.19C210.97,-639.72 197.29,-641.29 184.11,-642.8"/>
<polygon fill="midnightblue" stroke="midnightblue" points="224.93,-641.64 234.46,-637.02 224.13,-634.68 224.93,-641.64"/>
</g>
<!-- Node8 -->
<g id="node8" class="node">
<title>Node8</title>
<g id="a_node8"><a xlink:href="classfspm_1_1config_1_1params_1_1structures_1_1CategoryStore_a08b4f8afb977e4744fe02d17ad75f8af.html#a08b4f8afb977e4744fe02d17ad75f8af" target="_top" xlink:title=" ">
<polygon fill="none" stroke="black" points="14.5,-294.5 14.5,-324.5 182.5,-324.5 182.5,-294.5 14.5,-294.5"/>
<text text-anchor="start" x="22.5" y="-312.5" font-family="Helvetica,sans-Serif" font-size="10.00">fspm.config.params.structures.</text>
<text text-anchor="middle" x="98.5" y="-301.5" font-family="Helvetica,sans-Serif" font-size="10.00">CategoryStore.getBoolean</text>
</a>
</g>
</g>
<!-- Node7&#45;&gt;Node8 -->
<g id="edge7" class="edge">
<title>Node7&#45;&gt;Node8</title>
<path fill="none" stroke="midnightblue" d="M240.72,-277.76C216.43,-283.22 189.79,-289.21 166.26,-294.49"/>
<polygon fill="midnightblue" stroke="midnightblue" points="241.62,-281.14 250.61,-275.53 240.09,-274.31 241.62,-281.14"/>
</g>
<!-- Node9 -->
<g id="node9" class="node">
<title>Node9</title>
<g id="a_node9"><a xlink:href="classfspm_1_1config_1_1tests_1_1ParamAccess_1_1SimpleTest_a1ebf711e67df23a453e0ce50bc63b482.html#a1ebf711e67df23a453e0ce50bc63b482" target="_top" xlink:title=" ">
<polygon fill="none" stroke="black" points="12,-245.5 12,-275.5 185,-275.5 185,-245.5 12,-245.5"/>
<text text-anchor="start" x="20" y="-263.5" font-family="Helvetica,sans-Serif" font-size="10.00">fspm.config.tests.ParamAccess.</text>
<text text-anchor="middle" x="98.5" y="-252.5" font-family="Helvetica,sans-Serif" font-size="10.00">SimpleTest.testAccessExamples</text>
</a>
</g>
</g>
<!-- Node7&#45;&gt;Node9 -->
<g id="edge8" class="edge">
<title>Node7&#45;&gt;Node9</title>
<path fill="none" stroke="midnightblue" d="M224.17,-260.5C211.23,-260.5 197.99,-260.5 185.2,-260.5"/>
<polygon fill="midnightblue" stroke="midnightblue" points="224.46,-264 234.46,-260.5 224.46,-257 224.46,-264"/>
</g>
<!-- Node10 -->
<g id="node10" class="node">
<title>Node10</title>
<g id="a_node10"><a xlink:href="classfspm_1_1config_1_1tests_1_1ParamAccess_1_1SimpleTest_a4612b4a76c0c5eb3a4d9fac2c0fa2bf8.html#a4612b4a76c0c5eb3a4d9fac2c0fa2bf8" target="_top" xlink:title=" ">
<polygon fill="none" stroke="black" points="0,-147.5 0,-177.5 197,-177.5 197,-147.5 0,-147.5"/>
<text text-anchor="start" x="8" y="-165.5" font-family="Helvetica,sans-Serif" font-size="10.00">fspm.config.tests.ParamAccess.</text>
<text text-anchor="middle" x="98.5" y="-154.5" font-family="Helvetica,sans-Serif" font-size="10.00">SimpleTest.testCrossCategoryAccess</text>
</a>
</g>
</g>
<!-- Node7&#45;&gt;Node10 -->
<g id="edge9" class="edge">
<title>Node7&#45;&gt;Node10</title>
<path fill="none" stroke="midnightblue" d="M239.66,-240.68C237.37,-239.38 235.14,-237.98 233,-236.5 210.8,-221.09 219.39,-202.63 197,-187.5 191.21,-183.59 184.85,-180.29 178.23,-177.5"/>
<polygon fill="midnightblue" stroke="midnightblue" points="238.31,-243.92 248.82,-245.31 241.47,-237.68 238.31,-243.92"/>
</g>
<!-- Node11 -->
<g id="node11" class="node">
<title>Node11</title>
<g id="a_node11"><a xlink:href="classfspm_1_1config_1_1tests_1_1ParamAccess_1_1SimpleTest_a8a856d084a9f7cc18dd02285f8bff9b4.html#a8a856d084a9f7cc18dd02285f8bff9b4" target="_top" xlink:title=" ">
<polygon fill="none" stroke="black" points="13,-196.5 13,-226.5 184,-226.5 184,-196.5 13,-196.5"/>
<text text-anchor="start" x="21" y="-214.5" font-family="Helvetica,sans-Serif" font-size="10.00">fspm.config.tests.ParamAccess.</text>
<text text-anchor="middle" x="98.5" y="-203.5" font-family="Helvetica,sans-Serif" font-size="10.00">SimpleTest.testFlatCategories</text>
</a>
</g>
</g>
<!-- Node7&#45;&gt;Node11 -->
<g id="edge10" class="edge">
<title>Node7&#45;&gt;Node11</title>
<path fill="none" stroke="midnightblue" d="M240.72,-243.24C216.43,-237.78 189.79,-231.79 166.26,-226.51"/>
<polygon fill="midnightblue" stroke="midnightblue" points="240.09,-246.69 250.61,-245.47 241.62,-239.86 240.09,-246.69"/>
</g>
<!-- Node13 -->
<g id="node13" class="node">
<title>Node13</title>
<g id="a_node13"><a xlink:href="classfspm_1_1config_1_1tests_1_1ParamAccess_1_1ArrayTest_aa473b3f7e16319b82590bc9558a94bd4.html#aa473b3f7e16319b82590bc9558a94bd4" target="_top" xlink:title=" ">
<polygon fill="none" stroke="black" points="10.5,-539.5 10.5,-569.5 186.5,-569.5 186.5,-539.5 10.5,-539.5"/>
<text text-anchor="start" x="18.5" y="-557.5" font-family="Helvetica,sans-Serif" font-size="10.00">fspm.config.tests.ParamAccess.</text>
<text text-anchor="middle" x="98.5" y="-546.5" font-family="Helvetica,sans-Serif" font-size="10.00">ArrayTest.testIncorrectArrayType</text>
</a>
</g>
</g>
<!-- Node12&#45;&gt;Node13 -->
<g id="edge12" class="edge">
<title>Node12&#45;&gt;Node13</title>
<path fill="none" stroke="midnightblue" d="M288.77,-477.68C265.18,-494.19 230.34,-516.56 197,-530.5 188.88,-533.9 180.17,-536.89 171.41,-539.5"/>
<polygon fill="midnightblue" stroke="midnightblue" points="291.1,-480.32 297.23,-471.68 287.05,-474.61 291.1,-480.32"/>
</g>
<!-- Node14&#45;&gt;Node11 -->
<g id="edge16" class="edge">
<title>Node14&#45;&gt;Node11</title>
<path fill="none" stroke="midnightblue" d="M236.59,-337.57C235.35,-336.59 234.15,-335.57 233,-334.5 198.98,-302.95 231.43,-267.61 197,-236.5 192.72,-232.63 187.93,-229.35 182.82,-226.56"/>
<polygon fill="midnightblue" stroke="midnightblue" points="235,-340.72 245.25,-343.38 238.9,-334.9 235,-340.72"/>
</g>
<!-- Node15 -->
<g id="node15" class="node">
<title>Node15</title>
<g id="a_node15"><a xlink:href="classfspm_1_1config_1_1params_1_1structures_1_1CategoryStore_aa6dbb5480c7d496c088b160822991b06.html#aa6dbb5480c7d496c088b160822991b06" target="_top" xlink:title=" ">
<polygon fill="none" stroke="black" points="14.5,-490.5 14.5,-520.5 182.5,-520.5 182.5,-490.5 14.5,-490.5"/>
<text text-anchor="start" x="22.5" y="-508.5" font-family="Helvetica,sans-Serif" font-size="10.00">fspm.config.params.structures.</text>
<text text-anchor="middle" x="98.5" y="-497.5" font-family="Helvetica,sans-Serif" font-size="10.00">CategoryStore.getDouble</text>
</a>
</g>
</g>
<!-- Node14&#45;&gt;Node15 -->
<g id="edge14" class="edge">
<title>Node14&#45;&gt;Node15</title>
<path fill="none" stroke="midnightblue" d="M289.95,-380.04C272.73,-394.11 250.56,-413.36 233,-432.5 214.73,-452.41 219.47,-466.48 197,-481.5 191.93,-484.89 186.42,-487.8 180.69,-490.3"/>
<polygon fill="midnightblue" stroke="midnightblue" points="292.38,-382.57 297.96,-373.57 287.98,-377.12 292.38,-382.57"/>
</g>
<!-- Node16 -->
<g id="node16" class="node">
<title>Node16</title>
<g id="a_node16"><a xlink:href="classfspm_1_1config_1_1tests_1_1ParamAccess_1_1SimpleTest_a55f06c98bf87ce61c0a511a84ff4d506.html#a55f06c98bf87ce61c0a511a84ff4d506" target="_top" xlink:title=" ">
<polygon fill="none" stroke="black" points="13,-441.5 13,-471.5 184,-471.5 184,-441.5 13,-441.5"/>
<text text-anchor="start" x="21" y="-459.5" font-family="Helvetica,sans-Serif" font-size="10.00">fspm.config.tests.ParamAccess.</text>
<text text-anchor="middle" x="98.5" y="-448.5" font-family="Helvetica,sans-Serif" font-size="10.00">SimpleTest.testDefault</text>
</a>
</g>
</g>
<!-- Node14&#45;&gt;Node16 -->
<g id="edge15" class="edge">
<title>Node14&#45;&gt;Node16</title>
<path fill="none" stroke="midnightblue" d="M288.77,-379.68C265.18,-396.19 230.34,-418.56 197,-432.5 188.88,-435.9 180.17,-438.89 171.41,-441.5"/>
<polygon fill="midnightblue" stroke="midnightblue" points="291.1,-382.32 297.23,-373.68 287.05,-376.61 291.1,-382.32"/>
</g>
<!-- Node17 -->
<g id="node17" class="node">
<title>Node17</title>
<g id="a_node17"><a xlink:href="classfspm_1_1config_1_1tests_1_1ParamAccess_1_1SimpleTest_add14e7bad047c7089ed8e08680f4c2cf.html#add14e7bad047c7089ed8e08680f4c2cf" target="_top" xlink:title=" ">
<polygon fill="none" stroke="black" points="13,-343.5 13,-373.5 184,-373.5 184,-343.5 13,-343.5"/>
<text text-anchor="start" x="21" y="-361.5" font-family="Helvetica,sans-Serif" font-size="10.00">fspm.config.tests.ParamAccess.</text>
<text text-anchor="middle" x="98.5" y="-350.5" font-family="Helvetica,sans-Serif" font-size="10.00">SimpleTest.testNull</text>
</a>
</g>
</g>
<!-- Node14&#45;&gt;Node17 -->
<g id="edge17" class="edge">
<title>Node14&#45;&gt;Node17</title>
<path fill="none" stroke="midnightblue" d="M224.33,-358.5C210.97,-358.5 197.29,-358.5 184.11,-358.5"/>
<polygon fill="midnightblue" stroke="midnightblue" points="224.46,-362 234.46,-358.5 224.46,-355 224.46,-362"/>
</g>
<!-- Node18 -->
<g id="node18" class="node">
<title>Node18</title>
<g id="a_node18"><a xlink:href="classfspm_1_1config_1_1tests_1_1ParamAccess_1_1SimpleTest_ad0bca9bf9a2f6f7c6dc7aab7b0791fc5.html#ad0bca9bf9a2f6f7c6dc7aab7b0791fc5" target="_top" xlink:title=" ">
<polygon fill="none" stroke="black" points="0,-392.5 0,-422.5 197,-422.5 197,-392.5 0,-392.5"/>
<text text-anchor="start" x="8" y="-410.5" font-family="Helvetica,sans-Serif" font-size="10.00">fspm.config.tests.ParamAccess.</text>
<text text-anchor="middle" x="98.5" y="-399.5" font-family="Helvetica,sans-Serif" font-size="10.00">SimpleTest.testNullWithDefaultValue</text>
</a>
</g>
</g>
<!-- Node14&#45;&gt;Node18 -->
<g id="edge18" class="edge">
<title>Node14&#45;&gt;Node18</title>
<path fill="none" stroke="midnightblue" d="M240.72,-375.76C216.43,-381.22 189.79,-387.21 166.26,-392.49"/>
<polygon fill="midnightblue" stroke="midnightblue" points="241.62,-379.14 250.61,-373.53 240.09,-372.31 241.62,-379.14"/>
</g>
<!-- Node19 -->
<g id="node19" class="node">
<title>Node19</title>
<g id="a_node19"><a xlink:href="classfspm_1_1config_1_1tests_1_1ParamAccess_1_1SimpleTest_a6ff9e514f8013564285ff10fa6a0af6f.html#a6ff9e514f8013564285ff10fa6a0af6f" target="_top" xlink:title=" ">
<polygon fill="none" stroke="black" points="13,-49.5 13,-79.5 184,-79.5 184,-49.5 13,-49.5"/>
<text text-anchor="start" x="21" y="-67.5" font-family="Helvetica,sans-Serif" font-size="10.00">fspm.config.tests.ParamAccess.</text>
<text text-anchor="middle" x="98.5" y="-56.5" font-family="Helvetica,sans-Serif" font-size="10.00">SimpleTest.testTypes</text>
</a>
</g>
</g>
<!-- Node14&#45;&gt;Node19 -->
<g id="edge19" class="edge">
<title>Node14&#45;&gt;Node19</title>
<path fill="none" stroke="midnightblue" d="M235.35,-336.99C234.54,-336.19 233.75,-335.36 233,-334.5 160.43,-251.76 270.63,-171.3 197,-89.5 193.26,-85.34 188.93,-81.84 184.22,-78.88"/>
<polygon fill="midnightblue" stroke="midnightblue" points="233.3,-339.84 243.26,-343.45 237.73,-334.42 233.3,-339.84"/>
</g>
<!-- Node21&#45;&gt;Node10 -->
<g id="edge23" class="edge">
<title>Node21&#45;&gt;Node10</title>
<path fill="none" stroke="midnightblue" d="M224.4,-162.5C215.43,-162.5 206.3,-162.5 197.28,-162.5"/>
<polygon fill="midnightblue" stroke="midnightblue" points="224.46,-166 234.46,-162.5 224.46,-159 224.46,-166"/>
</g>
<!-- Node21&#45;&gt;Node11 -->
<g id="edge24" class="edge">
<title>Node21&#45;&gt;Node11</title>
<path fill="none" stroke="midnightblue" d="M240.72,-179.76C216.43,-185.22 189.79,-191.21 166.26,-196.49"/>
<polygon fill="midnightblue" stroke="midnightblue" points="241.62,-183.14 250.61,-177.53 240.09,-176.31 241.62,-183.14"/>
</g>
<!-- Node21&#45;&gt;Node19 -->
<g id="edge25" class="edge">
<title>Node21&#45;&gt;Node19</title>
<path fill="none" stroke="midnightblue" d="M239.66,-142.68C237.37,-141.38 235.14,-139.98 233,-138.5 210.8,-123.09 219.39,-104.63 197,-89.5 191.21,-85.59 184.85,-82.29 178.23,-79.5"/>
<polygon fill="midnightblue" stroke="midnightblue" points="238.31,-145.92 248.82,-147.31 241.47,-139.68 238.31,-145.92"/>
</g>
<!-- Node22 -->
<g id="node22" class="node">
<title>Node22</title>
<g id="a_node22"><a xlink:href="classfspm_1_1config_1_1params_1_1structures_1_1CategoryStore_aa34de605ea7ee27a1c2c473dbebe272f.html#aa34de605ea7ee27a1c2c473dbebe272f" target="_top" xlink:title=" ">
<polygon fill="none" stroke="black" points="14.5,-0.5 14.5,-30.5 182.5,-30.5 182.5,-0.5 14.5,-0.5"/>
<text text-anchor="start" x="22.5" y="-18.5" font-family="Helvetica,sans-Serif" font-size="10.00">fspm.config.params.structures.</text>
<text text-anchor="middle" x="98.5" y="-7.5" font-family="Helvetica,sans-Serif" font-size="10.00">CategoryStore.getInteger</text>
</a>
</g>
</g>
<!-- Node21&#45;&gt;Node22 -->
<g id="edge22" class="edge">
<title>Node21&#45;&gt;Node22</title>
<path fill="none" stroke="midnightblue" d="M236.58,-141.57C235.35,-140.6 234.15,-139.57 233,-138.5 198.72,-106.61 231.84,-70.78 197,-39.5 192.72,-35.66 187.92,-32.41 182.81,-29.66"/>
<polygon fill="midnightblue" stroke="midnightblue" points="234.99,-144.72 245.24,-147.4 238.89,-138.91 234.99,-144.72"/>
</g>
<!-- Node23&#45;&gt;Node5 -->
<g id="edge27" class="edge">
<title>Node23&#45;&gt;Node5</title>
<path fill="none" stroke="midnightblue" d="M240.72,-571.76C216.43,-577.22 189.79,-583.21 166.26,-588.49"/>
<polygon fill="midnightblue" stroke="midnightblue" points="241.62,-575.14 250.61,-569.53 240.09,-568.31 241.62,-575.14"/>
</g>
<!-- Node24&#45;&gt;Node9 -->
<g id="edge30" class="edge">
<title>Node24&#45;&gt;Node9</title>
<path fill="none" stroke="midnightblue" d="M240.72,-228.76C216.43,-234.22 189.79,-240.21 166.26,-245.49"/>
<polygon fill="midnightblue" stroke="midnightblue" points="241.62,-232.14 250.61,-226.53 240.09,-225.31 241.62,-232.14"/>
</g>
<!-- Node24&#45;&gt;Node11 -->
<g id="edge31" class="edge">
<title>Node24&#45;&gt;Node11</title>
<path fill="none" stroke="midnightblue" d="M224.33,-211.5C210.97,-211.5 197.29,-211.5 184.11,-211.5"/>
<polygon fill="midnightblue" stroke="midnightblue" points="224.46,-215 234.46,-211.5 224.46,-208 224.46,-215"/>
</g>
<!-- Node24&#45;&gt;Node17 -->
<g id="edge32" class="edge">
<title>Node24&#45;&gt;Node17</title>
<path fill="none" stroke="midnightblue" d="M238.3,-232.07C236.45,-233.45 234.68,-234.93 233,-236.5 199.15,-268.24 231.58,-303.55 197,-334.5 193.1,-337.99 188.78,-340.99 184.19,-343.57"/>
<polygon fill="midnightblue" stroke="midnightblue" points="240.32,-234.93 246.85,-226.58 236.54,-229.04 240.32,-234.93"/>
</g>
<!-- Node24&#45;&gt;Node19 -->
<g id="edge33" class="edge">
<title>Node24&#45;&gt;Node19</title>
<path fill="none" stroke="midnightblue" d="M236.59,-190.57C235.35,-189.59 234.15,-188.57 233,-187.5 198.98,-155.95 231.43,-120.61 197,-89.5 192.72,-85.63 187.93,-82.35 182.82,-79.56"/>
<polygon fill="midnightblue" stroke="midnightblue" points="235,-193.72 245.25,-196.38 238.9,-187.9 235,-193.72"/>
</g>
<!-- Node25 -->
<g id="node25" class="node">
<title>Node25</title>
<g id="a_node25"><a xlink:href="classfspm_1_1config_1_1params_1_1structures_1_1CategoryStore_a7d8b8fea26862bb41862b264e082074f.html#a7d8b8fea26862bb41862b264e082074f" target="_top" xlink:title=" ">
<polygon fill="none" stroke="black" points="14.5,-98.5 14.5,-128.5 182.5,-128.5 182.5,-98.5 14.5,-98.5"/>
<text text-anchor="start" x="22.5" y="-116.5" font-family="Helvetica,sans-Serif" font-size="10.00">fspm.config.params.structures.</text>
<text text-anchor="middle" x="98.5" y="-105.5" font-family="Helvetica,sans-Serif" font-size="10.00">CategoryStore.getString</text>
</a>
</g>
</g>
<!-- Node24&#45;&gt;Node25 -->
<g id="edge29" class="edge">
<title>Node24&#45;&gt;Node25</title>
<path fill="none" stroke="midnightblue" d="M239.66,-191.68C237.37,-190.38 235.14,-188.98 233,-187.5 210.8,-172.09 219.39,-153.63 197,-138.5 191.21,-134.59 184.85,-131.29 178.23,-128.5"/>
<polygon fill="midnightblue" stroke="midnightblue" points="238.31,-194.92 248.82,-196.31 241.47,-188.68 238.31,-194.92"/>
</g>
<!-- Node27&#45;&gt;Node19 -->
<g id="edge36" class="edge">
<title>Node27&#45;&gt;Node19</title>
<path fill="none" stroke="midnightblue" d="M224.33,-64.5C210.97,-64.5 197.29,-64.5 184.11,-64.5"/>
<polygon fill="midnightblue" stroke="midnightblue" points="224.46,-68 234.46,-64.5 224.46,-61 224.46,-68"/>
</g>
</g>
</svg>
        <g id="navigator" transform="translate(0 0)" fill="#404254">
                <rect fill="#f2f5e9" fill-opacity="0.5" stroke="#606060" stroke-width=".5" x="0" y="0" width="60" height="60"/>
                <use id="zoomplus" xlink:href="#zoomPlus" x="17" y="9" onmousedown="handleZoom(evt,'in')"/>
                <use id="zoomminus" xlink:href="#zoomMin" x="42" y="9" onmousedown="handleZoom(evt,'out')"/>
                <use id="reset" xlink:href="#resetDef" x="30" y="36" onmousedown="handleReset()"/>
                <g id="arrowUp" xlink:href="#dirArrow" transform="translate(30 24)" onmousedown="handlePan(0,-1)">
                  <use xlink:href="#rim" fill="#404040">
                        <set attributeName="fill" to="#808080" begin="arrowUp.mouseover" end="arrowUp.mouseout"/>
                  </use>
                  <path fill="none" stroke="white" stroke-width="1.5" d="M0,-3.0v7 M-2.5,-0.5L0,-3.0L2.5,-0.5"/>
                </g>
                <g id="arrowRight" xlink:href="#dirArrow" transform="rotate(90) translate(36 -43)" onmousedown="handlePan(1,0)">
                  <use xlink:href="#rim" fill="#404040">
                        <set attributeName="fill" to="#808080" begin="arrowRight.mouseover" end="arrowRight.mouseout"/>
                  </use>
                  <path fill="none" stroke="white" stroke-width="1.5" d="M0,-3.0v7 M-2.5,-0.5L0,-3.0L2.5,-0.5"/>
                </g>
                <g id="arrowDown" xlink:href="#dirArrow" transform="rotate(180) translate(-30 -48)" onmousedown="handlePan(0,1)">
                  <use xlink:href="#rim" fill="#404040">
                        <set attributeName="fill" to="#808080" begin="arrowDown.mouseover" end="arrowDown.mouseout"/>
                  </use>
                  <path fill="none" stroke="white" stroke-width="1.5" d="M0,-3.0v7 M-2.5,-0.5L0,-3.0L2.5,-0.5"/>
                </g>
                <g id="arrowLeft" xlink:href="#dirArrow" transform="rotate(270) translate(-36 17)" onmousedown="handlePan(-1,0)">
                  <use xlink:href="#rim" fill="#404040">
                        <set attributeName="fill" to="#808080" begin="arrowLeft.mouseover" end="arrowLeft.mouseout"/>
                  </use>
                  <path fill="none" stroke="white" stroke-width="1.5" d="M0,-3.0v7 M-2.5,-0.5L0,-3.0L2.5,-0.5"/>
                </g>
        </g>
        <svg viewBox="0 0 15 15" width="100%" height="30px" preserveAspectRatio="xMaxYMin meet">
         <g id="arrow_out" transform="scale(0.3 0.3)">
          <a xlink:href="classfspm_1_1config_1_1params_1_1structures_1_1CategoryStore_a05635b1745cfdb9ed85c076ee762cbdf_a05635b1745cfdb9ed85c076ee762cbdf_icgraph_org.svg" target="_base">
           <rect id="button" ry="5" rx="5" y="6" x="6" height="38" width="38"
                fill="#f2f5e9" fill-opacity="0.5" stroke="#606060" stroke-width="1.0"/>
           <path id="arrow"
             d="M 11.500037,31.436501 C 11.940474,20.09759 22.043105,11.32322 32.158766,21.979434 L 37.068811,17.246167 C 37.068811,17.246167 37.088388,32 37.088388,32 L 22.160133,31.978069 C 22.160133,31.978069 26.997745,27.140456 26.997745,27.140456 C 18.528582,18.264221 13.291696,25.230495 11.500037,31.436501 z"
             style="fill:#404040;"/>
          </a>
         </g>
        </svg>
</svg>
