<?xml version="1.0" encoding="UTF-8" standalone="no"?>
<!DOCTYPE svg PUBLIC "-//W3C//DTD SVG 1.1//EN"
 "http://www.w3.org/Graphics/SVG/1.1/DTD/svg11.dtd">
<!-- Generated by graphviz version 2.43.0 (0)
 -->
<!-- Title: fspm.config.params.ParamFactory.parseParameter Pages: 1 -->
<svg width="806pt" height="88pt"
 viewBox="0.00 0.00 806.00 88.00" xmlns="http://www.w3.org/2000/svg" xmlns:xlink="http://www.w3.org/1999/xlink">
<g id="graph0" class="graph" transform="scale(1 1) rotate(0) translate(4 84)">
<title>fspm.config.params.ParamFactory.parseParameter</title>
<!-- Node1 -->
<g id="node1" class="node">
<title>Node1</title>
<g id="a_node1"><a xlink:title="Returns a Parameter instance which can be used to retrieve the parsed value.">
<polygon fill="#bfbfbf" stroke="black" points="651,-24.5 651,-54.5 798,-54.5 798,-24.5 651,-24.5"/>
<text text-anchor="start" x="659" y="-42.5" font-family="Helvetica,sans-Serif" font-size="10.00">fspm.config.params.Param</text>
<text text-anchor="middle" x="724.5" y="-31.5" font-family="Helvetica,sans-Serif" font-size="10.00">Factory.parseParameter</text>
</a>
</g>
</g>
<!-- Node2 -->
<g id="node2" class="node">
<title>Node2</title>
<g id="a_node2"><a xlink:href="classfspm_1_1config_1_1params_1_1structures_1_1CategoryStore_a5b1316078bc6e936f6b443d6026bbdf6.html#a5b1316078bc6e936f6b443d6026bbdf6" target="_top" xlink:title=" ">
<polygon fill="none" stroke="black" points="447,-49.5 447,-79.5 615,-79.5 615,-49.5 447,-49.5"/>
<text text-anchor="start" x="455" y="-67.5" font-family="Helvetica,sans-Serif" font-size="10.00">fspm.config.params.structures.</text>
<text text-anchor="middle" x="531" y="-56.5" font-family="Helvetica,sans-Serif" font-size="10.00">CategoryStore.parse</text>
</a>
</g>
</g>
<!-- Node1&#45;&gt;Node2 -->
<g id="edge1" class="edge">
<title>Node1&#45;&gt;Node2</title>
<path fill="none" stroke="midnightblue" d="M640.91,-50.28C632.39,-51.39 623.73,-52.52 615.21,-53.64"/>
<polygon fill="midnightblue" stroke="midnightblue" points="641.37,-53.75 650.83,-48.99 640.46,-46.81 641.37,-53.75"/>
</g>
<!-- Node6 -->
<g id="node6" class="node">
<title>Node6</title>
<g id="a_node6"><a xlink:href="classfspm_1_1config_1_1params_1_1structures_1_1TableStore_aac5f94da214bb70c4221c30300916d03.html#aac5f94da214bb70c4221c30300916d03" target="_top" xlink:title=" ">
<polygon fill="none" stroke="black" points="447,-0.5 447,-30.5 615,-30.5 615,-0.5 447,-0.5"/>
<text text-anchor="start" x="455" y="-18.5" font-family="Helvetica,sans-Serif" font-size="10.00">fspm.config.params.structures.</text>
<text text-anchor="middle" x="531" y="-7.5" font-family="Helvetica,sans-Serif" font-size="10.00">TableStore.parse</text>
</a>
</g>
</g>
<!-- Node1&#45;&gt;Node6 -->
<g id="edge6" class="edge">
<title>Node1&#45;&gt;Node6</title>
<path fill="none" stroke="midnightblue" d="M640.63,-29.11C632.2,-28.06 623.64,-26.98 615.21,-25.93"/>
<polygon fill="midnightblue" stroke="midnightblue" points="640.47,-32.62 650.83,-30.39 641.34,-25.68 640.47,-32.62"/>
</g>
<!-- Node3 -->
<g id="node3" class="node">
<title>Node3</title>
<g id="a_node3"><a xlink:href="classfspm_1_1config_1_1params_1_1groups_1_1DocumentCategoryNameGroup_a83d422ab7ad1e384663d9b5e1e02a339.html#a83d422ab7ad1e384663d9b5e1e02a339" target="_top" xlink:title=" ">
<polygon fill="none" stroke="black" points="195,-49.5 195,-79.5 395,-79.5 395,-49.5 195,-49.5"/>
<text text-anchor="start" x="203" y="-67.5" font-family="Helvetica,sans-Serif" font-size="10.00">fspm.config.params.groups.</text>
<text text-anchor="middle" x="295" y="-56.5" font-family="Helvetica,sans-Serif" font-size="10.00">DocumentCategoryNameGroup.parse</text>
</a>
</g>
</g>
<!-- Node2&#45;&gt;Node3 -->
<g id="edge2" class="edge">
<title>Node2&#45;&gt;Node3</title>
<path fill="none" stroke="midnightblue" d="M436.56,-64.5C422.99,-64.5 408.98,-64.5 395.3,-64.5"/>
<polygon fill="midnightblue" stroke="midnightblue" points="436.84,-68 446.84,-64.5 436.84,-61 436.84,-68"/>
</g>
<!-- Node5 -->
<g id="node5" class="node">
<title>Node5</title>
<g id="a_node5"><a xlink:href="classfspm_1_1config_1_1params_1_1groups_1_1DocumentHybridCategoryNameGroup_acd5745a400ce830e7f0c66532ba6b991.html#acd5745a400ce830e7f0c66532ba6b991" target="_top" xlink:title=" ">
<polygon fill="none" stroke="black" points="179,-0.5 179,-30.5 411,-30.5 411,-0.5 179,-0.5"/>
<text text-anchor="start" x="187" y="-18.5" font-family="Helvetica,sans-Serif" font-size="10.00">fspm.config.params.groups.</text>
<text text-anchor="middle" x="295" y="-7.5" font-family="Helvetica,sans-Serif" font-size="10.00">DocumentHybridCategoryNameGroup.parse</text>
</a>
</g>
</g>
<!-- Node2&#45;&gt;Node5 -->
<g id="edge4" class="edge">
<title>Node2&#45;&gt;Node5</title>
<path fill="none" stroke="midnightblue" d="M448.28,-47.39C422.02,-41.89 393.14,-35.84 367.66,-30.51"/>
<polygon fill="midnightblue" stroke="midnightblue" points="447.7,-50.84 458.2,-49.47 449.13,-43.99 447.7,-50.84"/>
</g>
<!-- Node4 -->
<g id="node4" class="node">
<title>Node4</title>
<g id="a_node4"><a xlink:href="classfspm_1_1config_1_1adapters_1_1JsonFileReader_a66baa6fc9e08972e7a71cac73d560312.html#a66baa6fc9e08972e7a71cac73d560312" target="_top" xlink:title="Parses and returns a ParamGroup with the parameter contents of the provided file.">
<polygon fill="none" stroke="black" points="0,-24.5 0,-54.5 143,-54.5 143,-24.5 0,-24.5"/>
<text text-anchor="start" x="8" y="-42.5" font-family="Helvetica,sans-Serif" font-size="10.00">fspm.config.adapters.Json</text>
<text text-anchor="middle" x="71.5" y="-31.5" font-family="Helvetica,sans-Serif" font-size="10.00">FileReader.parse</text>
</a>
</g>
</g>
<!-- Node3&#45;&gt;Node4 -->
<g id="edge3" class="edge">
<title>Node3&#45;&gt;Node4</title>
<path fill="none" stroke="midnightblue" d="M184.69,-52.16C170.62,-50.57 156.53,-48.98 143.31,-47.49"/>
<polygon fill="midnightblue" stroke="midnightblue" points="184.58,-55.67 194.91,-53.32 185.37,-48.72 184.58,-55.67"/>
</g>
<!-- Node5&#45;&gt;Node4 -->
<g id="edge5" class="edge">
<title>Node5&#45;&gt;Node4</title>
<path fill="none" stroke="midnightblue" d="M168.54,-29.09C159.91,-30.03 151.41,-30.95 143.24,-31.84"/>
<polygon fill="midnightblue" stroke="midnightblue" points="169.14,-32.55 178.71,-27.99 168.39,-25.59 169.14,-32.55"/>
</g>
<!-- Node6&#45;&gt;Node5 -->
<g id="edge7" class="edge">
<title>Node6&#45;&gt;Node5</title>
<path fill="none" stroke="midnightblue" d="M436.71,-15.5C428.32,-15.5 419.77,-15.5 411.22,-15.5"/>
<polygon fill="midnightblue" stroke="midnightblue" points="436.84,-19 446.84,-15.5 436.84,-12 436.84,-19"/>
</g>
</g>
</svg>
