<?xml version="1.0" encoding="UTF-8" standalone="no"?>
<!DOCTYPE svg PUBLIC "-//W3C//DTD SVG 1.1//EN"
 "http://www.w3.org/Graphics/SVG/1.1/DTD/svg11.dtd">
<!-- Generated by graphviz version 2.43.0 (0)
 -->
<!-- Title: fspm.config.params.Parameter Pages: 1 -->
<!--zoomable 237 -->
<svg id="main" version="1.1" xmlns="http://www.w3.org/2000/svg" xmlns:xlink="http://www.w3.org/1999/xlink" xml:space="preserve" onload="init(evt)">
<style type="text/css"><![CDATA[
.edge:hover path { stroke: red; }
.edge:hover polygon { stroke: red; fill: red; }
]]></style>
<script type="text/javascript"><![CDATA[
var edges = document.getElementsByTagName('g');
if (edges && edges.length) {
  for (var i=0;i<edges.length;i++) {
    if (edges[i].id.substr(0,4)=='edge') {
      edges[i].setAttribute('class','edge');
    }
  }
}
]]></script>
        <defs>
                <circle id="rim" cx="0" cy="0" r="7"/>
                <circle id="rim2" cx="0" cy="0" r="3.5"/>
                <g id="zoomPlus">
                        <use xlink:href="#rim" fill="#404040">
                                <set attributeName="fill" to="#808080" begin="zoomplus.mouseover" end="zoomplus.mouseout"/>
                        </use>
                        <path d="M-4,0h8M0,-4v8" fill="none" stroke="white" stroke-width="1.5" pointer-events="none"/>
                </g>
                <g id="zoomMin">
                        <use xlink:href="#rim" fill="#404040">
                                <set attributeName="fill" to="#808080" begin="zoomminus.mouseover" end="zoomminus.mouseout"/>
                        </use>
                        <path d="M-4,0h8" fill="none" stroke="white" stroke-width="1.5" pointer-events="none"/>
                </g>
                <g id="dirArrow">
                        <path fill="none" stroke="white" stroke-width="1.5" d="M0,-3.0v7 M-2.5,-0.5L0,-3.0L2.5,-0.5"/>
                </g>
               <g id="resetDef">
                       <use xlink:href="#rim2" fill="#404040">
                               <set attributeName="fill" to="#808080" begin="reset.mouseover" end="reset.mouseout"/>
                       </use>
               </g>
        </defs>

<script type="text/javascript">
var viewWidth = 952;
var viewHeight = 237;
var sectionId = 'dynsection-0';
</script>
<script xlink:href="svgpan.js"/>
<svg id="graph" class="graph">
<g id="viewport">
<title>fspm.config.params.Parameter</title>
<!-- Node1 -->
<g id="node1" class="node">
<title>Node1</title>
<g id="a_node1"><a xlink:title="Parameter represents variables that can be stored using Java data types or other user&#45;defined types.">
<polygon fill="#bfbfbf" stroke="black" points="389,-160.5 389,-228.5 556,-228.5 556,-160.5 389,-160.5"/>
<text text-anchor="middle" x="472.5" y="-216.5" font-family="Helvetica,sans-Serif" font-size="10.00">fspm.config.params.Parameter</text>
<polyline fill="none" stroke="black" points="389,-209.5 556,-209.5 "/>
<text text-anchor="start" x="397" y="-197.5" font-family="Helvetica,sans-Serif" font-size="10.00">&#45; String key</text>
<polyline fill="none" stroke="black" points="389,-190.5 556,-190.5 "/>
<text text-anchor="start" x="397" y="-178.5" font-family="Helvetica,sans-Serif" font-size="10.00">+ String getKey()</text>
<text text-anchor="start" x="397" y="-167.5" font-family="Helvetica,sans-Serif" font-size="10.00"># Parameter(String key)</text>
</a>
</g>
</g>
<!-- Node2 -->
<g id="node2" class="node">
<title>Node2</title>
<g id="a_node2"><a xlink:href="classfspm_1_1config_1_1params_1_1type_1_1ArrayParam.html" target="_top" xlink:title=" ">
<polygon fill="none" stroke="black" points="0,-6 0,-118 145,-118 145,-6 0,-6"/>
<text text-anchor="start" x="8" y="-106" font-family="Helvetica,sans-Serif" font-size="10.00">fspm.config.params.type.</text>
<text text-anchor="middle" x="72.5" y="-95" font-family="Helvetica,sans-Serif" font-size="10.00">ArrayParam&lt; T &gt;</text>
<polyline fill="none" stroke="black" points="0,-88 145,-88 "/>
<text text-anchor="start" x="8" y="-76" font-family="Helvetica,sans-Serif" font-size="10.00">&#45; T[] value</text>
<polyline fill="none" stroke="black" points="0,-69 145,-69 "/>
<text text-anchor="start" x="8" y="-57" font-family="Helvetica,sans-Serif" font-size="10.00">+ ArrayParam(String</text>
<text text-anchor="start" x="8" y="-46" font-family="Helvetica,sans-Serif" font-size="10.00"> key, T[] value)</text>
<text text-anchor="start" x="8" y="-35" font-family="Helvetica,sans-Serif" font-size="10.00">+ T[] getValue()</text>
<text text-anchor="start" x="8" y="-24" font-family="Helvetica,sans-Serif" font-size="10.00">+ void setValue(T[] value)</text>
<text text-anchor="start" x="8" y="-13" font-family="Helvetica,sans-Serif" font-size="10.00">+ String toString()</text>
</a>
</g>
</g>
<!-- Node1&#45;&gt;Node2 -->
<g id="edge1" class="edge">
<title>Node1&#45;&gt;Node2</title>
<path fill="none" stroke="midnightblue" d="M378.47,-183.81C313.08,-174.53 225.15,-156.86 153.5,-124 149.66,-122.24 145.83,-120.27 142.04,-118.15"/>
<polygon fill="none" stroke="midnightblue" points="378.38,-187.33 388.77,-185.23 379.34,-180.4 378.38,-187.33"/>
</g>
<!-- Node3 -->
<g id="node3" class="node">
<title>Node3</title>
<g id="a_node3"><a xlink:href="classfspm_1_1config_1_1params_1_1type_1_1BooleanParam.html" target="_top" xlink:title="Concrete Parameter implementation for booleans.">
<polygon fill="none" stroke="black" points="163,-0.5 163,-123.5 304,-123.5 304,-0.5 163,-0.5"/>
<text text-anchor="start" x="171" y="-111.5" font-family="Helvetica,sans-Serif" font-size="10.00">fspm.config.params.type.</text>
<text text-anchor="middle" x="233.5" y="-100.5" font-family="Helvetica,sans-Serif" font-size="10.00">BooleanParam</text>
<polyline fill="none" stroke="black" points="163,-93.5 304,-93.5 "/>
<text text-anchor="start" x="171" y="-81.5" font-family="Helvetica,sans-Serif" font-size="10.00">&#45; boolean value</text>
<polyline fill="none" stroke="black" points="163,-74.5 304,-74.5 "/>
<text text-anchor="start" x="171" y="-62.5" font-family="Helvetica,sans-Serif" font-size="10.00">+ BooleanParam(String</text>
<text text-anchor="start" x="171" y="-51.5" font-family="Helvetica,sans-Serif" font-size="10.00"> key, boolean value)</text>
<text text-anchor="start" x="171" y="-40.5" font-family="Helvetica,sans-Serif" font-size="10.00">+ boolean getValue()</text>
<text text-anchor="start" x="171" y="-29.5" font-family="Helvetica,sans-Serif" font-size="10.00">+ void setValue(boolean</text>
<text text-anchor="start" x="171" y="-18.5" font-family="Helvetica,sans-Serif" font-size="10.00"> value)</text>
<text text-anchor="start" x="171" y="-7.5" font-family="Helvetica,sans-Serif" font-size="10.00">+ String toString()</text>
</a>
</g>
</g>
<!-- Node1&#45;&gt;Node3 -->
<g id="edge2" class="edge">
<title>Node1&#45;&gt;Node3</title>
<path fill="none" stroke="midnightblue" d="M379.54,-157.75C357.05,-147.85 333.47,-136.39 312.5,-124 309.81,-122.41 307.12,-120.75 304.42,-119.02"/>
<polygon fill="none" stroke="midnightblue" points="378.19,-160.98 388.76,-161.75 380.98,-154.56 378.19,-160.98"/>
</g>
<!-- Node4 -->
<g id="node4" class="node">
<title>Node4</title>
<g id="a_node4"><a xlink:href="classfspm_1_1config_1_1params_1_1type_1_1DoubleParam.html" target="_top" xlink:title="Concrete Parameter implementation for doubles.">
<polygon fill="none" stroke="black" points="322,-0.5 322,-123.5 463,-123.5 463,-0.5 322,-0.5"/>
<text text-anchor="start" x="330" y="-111.5" font-family="Helvetica,sans-Serif" font-size="10.00">fspm.config.params.type.</text>
<text text-anchor="middle" x="392.5" y="-100.5" font-family="Helvetica,sans-Serif" font-size="10.00">DoubleParam</text>
<polyline fill="none" stroke="black" points="322,-93.5 463,-93.5 "/>
<text text-anchor="start" x="330" y="-81.5" font-family="Helvetica,sans-Serif" font-size="10.00">&#45; double value</text>
<polyline fill="none" stroke="black" points="322,-74.5 463,-74.5 "/>
<text text-anchor="start" x="330" y="-62.5" font-family="Helvetica,sans-Serif" font-size="10.00">+ DoubleParam(String</text>
<text text-anchor="start" x="330" y="-51.5" font-family="Helvetica,sans-Serif" font-size="10.00"> key, double value)</text>
<text text-anchor="start" x="330" y="-40.5" font-family="Helvetica,sans-Serif" font-size="10.00">+ double getValue()</text>
<text text-anchor="start" x="330" y="-29.5" font-family="Helvetica,sans-Serif" font-size="10.00">+ void setValue(double</text>
<text text-anchor="start" x="330" y="-18.5" font-family="Helvetica,sans-Serif" font-size="10.00"> value)</text>
<text text-anchor="start" x="330" y="-7.5" font-family="Helvetica,sans-Serif" font-size="10.00">+ String toString()</text>
</a>
</g>
</g>
<!-- Node1&#45;&gt;Node4 -->
<g id="edge3" class="edge">
<title>Node1&#45;&gt;Node4</title>
<path fill="none" stroke="midnightblue" d="M446.79,-151.57C441.33,-142.65 435.45,-133.06 429.65,-123.61"/>
<polygon fill="none" stroke="midnightblue" points="443.9,-153.54 452.11,-160.23 449.86,-149.88 443.9,-153.54"/>
</g>
<!-- Node5 -->
<g id="node5" class="node">
<title>Node5</title>
<g id="a_node5"><a xlink:href="classfspm_1_1config_1_1params_1_1type_1_1IntegerParam.html" target="_top" xlink:title="Concrete Parameter implementation for integers.">
<polygon fill="none" stroke="black" points="481.5,-6 481.5,-118 625.5,-118 625.5,-6 481.5,-6"/>
<text text-anchor="start" x="489.5" y="-106" font-family="Helvetica,sans-Serif" font-size="10.00">fspm.config.params.type.</text>
<text text-anchor="middle" x="553.5" y="-95" font-family="Helvetica,sans-Serif" font-size="10.00">IntegerParam</text>
<polyline fill="none" stroke="black" points="481.5,-88 625.5,-88 "/>
<text text-anchor="start" x="489.5" y="-76" font-family="Helvetica,sans-Serif" font-size="10.00">&#45; int value</text>
<polyline fill="none" stroke="black" points="481.5,-69 625.5,-69 "/>
<text text-anchor="start" x="489.5" y="-57" font-family="Helvetica,sans-Serif" font-size="10.00">+ IntegerParam(String</text>
<text text-anchor="start" x="489.5" y="-46" font-family="Helvetica,sans-Serif" font-size="10.00"> key, int value)</text>
<text text-anchor="start" x="489.5" y="-35" font-family="Helvetica,sans-Serif" font-size="10.00">+ int getValue()</text>
<text text-anchor="start" x="489.5" y="-24" font-family="Helvetica,sans-Serif" font-size="10.00">+ void setValue(int value)</text>
<text text-anchor="start" x="489.5" y="-13" font-family="Helvetica,sans-Serif" font-size="10.00">+ String toString()</text>
</a>
</g>
</g>
<!-- Node1&#45;&gt;Node5 -->
<g id="edge4" class="edge">
<title>Node1&#45;&gt;Node5</title>
<path fill="none" stroke="midnightblue" d="M498.56,-151.52C505.18,-140.85 512.4,-129.22 519.36,-118.01"/>
<polygon fill="none" stroke="midnightblue" points="495.45,-149.89 493.15,-160.23 501.4,-153.58 495.45,-149.89"/>
</g>
<!-- Node6 -->
<g id="node6" class="node">
<title>Node6</title>
<g id="a_node6"><a xlink:href="classfspm_1_1config_1_1params_1_1type_1_1NullParam.html" target="_top" xlink:title="Concrete Parameter implementation for Null parameters representing a null value JsonNode.">
<polygon fill="none" stroke="black" points="644,-17 644,-107 785,-107 785,-17 644,-17"/>
<text text-anchor="start" x="652" y="-95" font-family="Helvetica,sans-Serif" font-size="10.00">fspm.config.params.type.</text>
<text text-anchor="middle" x="714.5" y="-84" font-family="Helvetica,sans-Serif" font-size="10.00">NullParam</text>
<polyline fill="none" stroke="black" points="644,-77 785,-77 "/>
<text text-anchor="start" x="652" y="-65" font-family="Helvetica,sans-Serif" font-size="10.00">+ static final String</text>
<text text-anchor="start" x="652" y="-54" font-family="Helvetica,sans-Serif" font-size="10.00"> nullString</text>
<polyline fill="none" stroke="black" points="644,-47 785,-47 "/>
<text text-anchor="start" x="652" y="-35" font-family="Helvetica,sans-Serif" font-size="10.00">+ NullParam(String key)</text>
<text text-anchor="start" x="652" y="-24" font-family="Helvetica,sans-Serif" font-size="10.00">+ String toString()</text>
</a>
</g>
</g>
<!-- Node1&#45;&gt;Node6 -->
<g id="edge5" class="edge">
<title>Node1&#45;&gt;Node6</title>
<path fill="none" stroke="midnightblue" d="M565.84,-158.1C588.83,-148.13 613.01,-136.54 634.5,-124 643.1,-118.98 651.83,-113.17 660.22,-107.18"/>
<polygon fill="none" stroke="midnightblue" points="564.24,-154.98 556.42,-162.13 566.99,-161.42 564.24,-154.98"/>
</g>
<!-- Node7 -->
<g id="node7" class="node">
<title>Node7</title>
<g id="a_node7"><a xlink:href="classfspm_1_1config_1_1params_1_1type_1_1StringParam.html" target="_top" xlink:title="Concrete Parameter implementation for Strings.">
<polygon fill="none" stroke="black" points="803,-0.5 803,-123.5 944,-123.5 944,-0.5 803,-0.5"/>
<text text-anchor="start" x="811" y="-111.5" font-family="Helvetica,sans-Serif" font-size="10.00">fspm.config.params.type.</text>
<text text-anchor="middle" x="873.5" y="-100.5" font-family="Helvetica,sans-Serif" font-size="10.00">StringParam</text>
<polyline fill="none" stroke="black" points="803,-93.5 944,-93.5 "/>
<text text-anchor="start" x="811" y="-81.5" font-family="Helvetica,sans-Serif" font-size="10.00">&#45; String value</text>
<polyline fill="none" stroke="black" points="803,-74.5 944,-74.5 "/>
<text text-anchor="start" x="811" y="-62.5" font-family="Helvetica,sans-Serif" font-size="10.00">+ StringParam(String</text>
<text text-anchor="start" x="811" y="-51.5" font-family="Helvetica,sans-Serif" font-size="10.00"> key, String value)</text>
<text text-anchor="start" x="811" y="-40.5" font-family="Helvetica,sans-Serif" font-size="10.00">+ String getValue()</text>
<text text-anchor="start" x="811" y="-29.5" font-family="Helvetica,sans-Serif" font-size="10.00">+ void setValue(String</text>
<text text-anchor="start" x="811" y="-18.5" font-family="Helvetica,sans-Serif" font-size="10.00"> value)</text>
<text text-anchor="start" x="811" y="-7.5" font-family="Helvetica,sans-Serif" font-size="10.00">+ String toString()</text>
</a>
</g>
</g>
<!-- Node1&#45;&gt;Node7 -->
<g id="edge6" class="edge">
<title>Node1&#45;&gt;Node7</title>
<path fill="none" stroke="midnightblue" d="M566.12,-184.42C632.32,-175.38 721.86,-157.76 794.5,-124 797.33,-122.69 800.15,-121.25 802.95,-119.73"/>
<polygon fill="none" stroke="midnightblue" points="565.56,-180.96 556.11,-185.74 566.48,-187.9 565.56,-180.96"/>
</g>
</g>
</svg>
        <g id="navigator" transform="translate(0 0)" fill="#404254">
                <rect fill="#f2f5e9" fill-opacity="0.5" stroke="#606060" stroke-width=".5" x="0" y="0" width="60" height="60"/>
                <use id="zoomplus" xlink:href="#zoomPlus" x="17" y="9" onmousedown="handleZoom(evt,'in')"/>
                <use id="zoomminus" xlink:href="#zoomMin" x="42" y="9" onmousedown="handleZoom(evt,'out')"/>
                <use id="reset" xlink:href="#resetDef" x="30" y="36" onmousedown="handleReset()"/>
                <g id="arrowUp" xlink:href="#dirArrow" transform="translate(30 24)" onmousedown="handlePan(0,-1)">
                  <use xlink:href="#rim" fill="#404040">
                        <set attributeName="fill" to="#808080" begin="arrowUp.mouseover" end="arrowUp.mouseout"/>
                  </use>
                  <path fill="none" stroke="white" stroke-width="1.5" d="M0,-3.0v7 M-2.5,-0.5L0,-3.0L2.5,-0.5"/>
                </g>
                <g id="arrowRight" xlink:href="#dirArrow" transform="rotate(90) translate(36 -43)" onmousedown="handlePan(1,0)">
                  <use xlink:href="#rim" fill="#404040">
                        <set attributeName="fill" to="#808080" begin="arrowRight.mouseover" end="arrowRight.mouseout"/>
                  </use>
                  <path fill="none" stroke="white" stroke-width="1.5" d="M0,-3.0v7 M-2.5,-0.5L0,-3.0L2.5,-0.5"/>
                </g>
                <g id="arrowDown" xlink:href="#dirArrow" transform="rotate(180) translate(-30 -48)" onmousedown="handlePan(0,1)">
                  <use xlink:href="#rim" fill="#404040">
                        <set attributeName="fill" to="#808080" begin="arrowDown.mouseover" end="arrowDown.mouseout"/>
                  </use>
                  <path fill="none" stroke="white" stroke-width="1.5" d="M0,-3.0v7 M-2.5,-0.5L0,-3.0L2.5,-0.5"/>
                </g>
                <g id="arrowLeft" xlink:href="#dirArrow" transform="rotate(270) translate(-36 17)" onmousedown="handlePan(-1,0)">
                  <use xlink:href="#rim" fill="#404040">
                        <set attributeName="fill" to="#808080" begin="arrowLeft.mouseover" end="arrowLeft.mouseout"/>
                  </use>
                  <path fill="none" stroke="white" stroke-width="1.5" d="M0,-3.0v7 M-2.5,-0.5L0,-3.0L2.5,-0.5"/>
                </g>
        </g>
        <svg viewBox="0 0 15 15" width="100%" height="30px" preserveAspectRatio="xMaxYMin meet">
         <g id="arrow_out" transform="scale(0.3 0.3)">
          <a xlink:href="classfspm_1_1config_1_1params_1_1Parameter__inherit__graph_org.svg" target="_base">
           <rect id="button" ry="5" rx="5" y="6" x="6" height="38" width="38"
                fill="#f2f5e9" fill-opacity="0.5" stroke="#606060" stroke-width="1.0"/>
           <path id="arrow"
             d="M 11.500037,31.436501 C 11.940474,20.09759 22.043105,11.32322 32.158766,21.979434 L 37.068811,17.246167 C 37.068811,17.246167 37.088388,32 37.088388,32 L 22.160133,31.978069 C 22.160133,31.978069 26.997745,27.140456 26.997745,27.140456 C 18.528582,18.264221 13.291696,25.230495 11.500037,31.436501 z"
             style="fill:#404040;"/>
          </a>
         </g>
        </svg>
</svg>
