<?xml version="1.0" encoding="UTF-8" standalone="no"?>
<!DOCTYPE svg PUBLIC "-//W3C//DTD SVG 1.1//EN"
 "http://www.w3.org/Graphics/SVG/1.1/DTD/svg11.dtd">
<!-- Generated by graphviz version 2.43.0 (0)
 -->
<!-- Title: fspm.config.params.Parameter.asDouble Pages: 1 -->
<svg width="808pt" height="284pt"
 viewBox="0.00 0.00 808.00 284.00" xmlns="http://www.w3.org/2000/svg" xmlns:xlink="http://www.w3.org/1999/xlink">
<g id="graph0" class="graph" transform="scale(1 1) rotate(0) translate(4 280)">
<title>fspm.config.params.Parameter.asDouble</title>
<!-- Node1 -->
<g id="node1" class="node">
<title>Node1</title>
<g id="a_node1"><a xlink:title=" ">
<polygon fill="#bfbfbf" stroke="black" points="620,-97.5 620,-127.5 800,-127.5 800,-97.5 620,-97.5"/>
<text text-anchor="start" x="628" y="-115.5" font-family="Helvetica,sans-Serif" font-size="10.00">fspm.config.params.Parameter.as</text>
<text text-anchor="middle" x="710" y="-104.5" font-family="Helvetica,sans-Serif" font-size="10.00">Double</text>
</a>
</g>
</g>
<!-- Node2 -->
<g id="node2" class="node">
<title>Node2</title>
<g id="a_node2"><a xlink:href="classfspm_1_1config_1_1params_1_1ParamCategory_ad9163381c1dfed699d3d74b2d36c1893.html#ad9163381c1dfed699d3d74b2d36c1893" target="_top" xlink:title=" ">
<polygon fill="none" stroke="black" points="437,-122.5 437,-152.5 584,-152.5 584,-122.5 437,-122.5"/>
<text text-anchor="start" x="445" y="-140.5" font-family="Helvetica,sans-Serif" font-size="10.00">fspm.config.params.Param</text>
<text text-anchor="middle" x="510.5" y="-129.5" font-family="Helvetica,sans-Serif" font-size="10.00">Category.getDouble</text>
</a>
</g>
</g>
<!-- Node1&#45;&gt;Node2 -->
<g id="edge1" class="edge">
<title>Node1&#45;&gt;Node2</title>
<path fill="none" stroke="midnightblue" d="M609.66,-125.07C601.03,-126.17 592.41,-127.26 584.05,-128.32"/>
<polygon fill="midnightblue" stroke="midnightblue" points="610.3,-128.52 619.78,-123.79 609.42,-121.58 610.3,-128.52"/>
</g>
<!-- Node10 -->
<g id="node10" class="node">
<title>Node10</title>
<g id="a_node10"><a xlink:href="classfspm_1_1config_1_1params_1_1ParamTable_a36883c5705a953d8309e9d26fcdf7275.html#a36883c5705a953d8309e9d26fcdf7275" target="_top" xlink:title=" ">
<polygon fill="none" stroke="black" points="437,-73.5 437,-103.5 584,-103.5 584,-73.5 437,-73.5"/>
<text text-anchor="start" x="445" y="-91.5" font-family="Helvetica,sans-Serif" font-size="10.00">fspm.config.params.Param</text>
<text text-anchor="middle" x="510.5" y="-80.5" font-family="Helvetica,sans-Serif" font-size="10.00">Table.getDouble</text>
</a>
</g>
</g>
<!-- Node1&#45;&gt;Node10 -->
<g id="edge9" class="edge">
<title>Node1&#45;&gt;Node10</title>
<path fill="none" stroke="midnightblue" d="M609.66,-100.43C601.03,-99.38 592.41,-98.33 584.05,-97.32"/>
<polygon fill="midnightblue" stroke="midnightblue" points="609.43,-103.93 619.78,-101.66 610.28,-96.98 609.43,-103.93"/>
</g>
<!-- Node3 -->
<g id="node3" class="node">
<title>Node3</title>
<g id="a_node3"><a xlink:href="classfspm_1_1config_1_1params_1_1structures_1_1CategoryStore_a07f4c3b69f3b2f6a5d635aad33488b15.html#a07f4c3b69f3b2f6a5d635aad33488b15" target="_top" xlink:title=" ">
<polygon fill="none" stroke="black" points="233,-122.5 233,-152.5 401,-152.5 401,-122.5 233,-122.5"/>
<text text-anchor="start" x="241" y="-140.5" font-family="Helvetica,sans-Serif" font-size="10.00">fspm.config.params.structures.</text>
<text text-anchor="middle" x="317" y="-129.5" font-family="Helvetica,sans-Serif" font-size="10.00">CategoryStore.getDouble</text>
</a>
</g>
</g>
<!-- Node2&#45;&gt;Node3 -->
<g id="edge2" class="edge">
<title>Node2&#45;&gt;Node3</title>
<path fill="none" stroke="midnightblue" d="M426.63,-137.5C418.2,-137.5 409.64,-137.5 401.21,-137.5"/>
<polygon fill="midnightblue" stroke="midnightblue" points="426.83,-141 436.83,-137.5 426.83,-134 426.83,-141"/>
</g>
<!-- Node4 -->
<g id="node4" class="node">
<title>Node4</title>
<g id="a_node4"><a xlink:href="classfspm_1_1config_1_1params_1_1structures_1_1CategoryStore_aa6dbb5480c7d496c088b160822991b06.html#aa6dbb5480c7d496c088b160822991b06" target="_top" xlink:title=" ">
<polygon fill="none" stroke="black" points="14.5,-245.5 14.5,-275.5 182.5,-275.5 182.5,-245.5 14.5,-245.5"/>
<text text-anchor="start" x="22.5" y="-263.5" font-family="Helvetica,sans-Serif" font-size="10.00">fspm.config.params.structures.</text>
<text text-anchor="middle" x="98.5" y="-252.5" font-family="Helvetica,sans-Serif" font-size="10.00">CategoryStore.getDouble</text>
</a>
</g>
</g>
<!-- Node3&#45;&gt;Node4 -->
<g id="edge3" class="edge">
<title>Node3&#45;&gt;Node4</title>
<path fill="none" stroke="midnightblue" d="M294.96,-160.22C272.74,-182.86 235.63,-216.99 197,-236.5 190.15,-239.96 182.78,-242.94 175.26,-245.5"/>
<polygon fill="midnightblue" stroke="midnightblue" points="297.76,-162.36 302.18,-152.73 292.72,-157.5 297.76,-162.36"/>
</g>
<!-- Node5 -->
<g id="node5" class="node">
<title>Node5</title>
<g id="a_node5"><a xlink:href="classfspm_1_1config_1_1tests_1_1ParamAccess_1_1SimpleTest_a55f06c98bf87ce61c0a511a84ff4d506.html#a55f06c98bf87ce61c0a511a84ff4d506" target="_top" xlink:title=" ">
<polygon fill="none" stroke="black" points="13,-196.5 13,-226.5 184,-226.5 184,-196.5 13,-196.5"/>
<text text-anchor="start" x="21" y="-214.5" font-family="Helvetica,sans-Serif" font-size="10.00">fspm.config.tests.ParamAccess.</text>
<text text-anchor="middle" x="98.5" y="-203.5" font-family="Helvetica,sans-Serif" font-size="10.00">SimpleTest.testDefault</text>
</a>
</g>
</g>
<!-- Node3&#45;&gt;Node5 -->
<g id="edge4" class="edge">
<title>Node3&#45;&gt;Node5</title>
<path fill="none" stroke="midnightblue" d="M274.65,-156.75C252.04,-166.8 223.34,-178.78 197,-187.5 187.24,-190.73 176.79,-193.75 166.5,-196.48"/>
<polygon fill="midnightblue" stroke="midnightblue" points="276.26,-159.87 283.94,-152.58 273.39,-153.48 276.26,-159.87"/>
</g>
<!-- Node6 -->
<g id="node6" class="node">
<title>Node6</title>
<g id="a_node6"><a xlink:href="classfspm_1_1config_1_1tests_1_1ParamAccess_1_1SimpleTest_a8a856d084a9f7cc18dd02285f8bff9b4.html#a8a856d084a9f7cc18dd02285f8bff9b4" target="_top" xlink:title=" ">
<polygon fill="none" stroke="black" points="13,-147.5 13,-177.5 184,-177.5 184,-147.5 13,-147.5"/>
<text text-anchor="start" x="21" y="-165.5" font-family="Helvetica,sans-Serif" font-size="10.00">fspm.config.tests.ParamAccess.</text>
<text text-anchor="middle" x="98.5" y="-154.5" font-family="Helvetica,sans-Serif" font-size="10.00">SimpleTest.testFlatCategories</text>
</a>
</g>
</g>
<!-- Node3&#45;&gt;Node6 -->
<g id="edge5" class="edge">
<title>Node3&#45;&gt;Node6</title>
<path fill="none" stroke="midnightblue" d="M222.71,-148.27C209.9,-149.75 196.8,-151.26 184.15,-152.72"/>
<polygon fill="midnightblue" stroke="midnightblue" points="223.38,-151.72 232.91,-147.09 222.58,-144.76 223.38,-151.72"/>
</g>
<!-- Node7 -->
<g id="node7" class="node">
<title>Node7</title>
<g id="a_node7"><a xlink:href="classfspm_1_1config_1_1tests_1_1ParamAccess_1_1SimpleTest_add14e7bad047c7089ed8e08680f4c2cf.html#add14e7bad047c7089ed8e08680f4c2cf" target="_top" xlink:title=" ">
<polygon fill="none" stroke="black" points="13,-98.5 13,-128.5 184,-128.5 184,-98.5 13,-98.5"/>
<text text-anchor="start" x="21" y="-116.5" font-family="Helvetica,sans-Serif" font-size="10.00">fspm.config.tests.ParamAccess.</text>
<text text-anchor="middle" x="98.5" y="-105.5" font-family="Helvetica,sans-Serif" font-size="10.00">SimpleTest.testNull</text>
</a>
</g>
</g>
<!-- Node3&#45;&gt;Node7 -->
<g id="edge6" class="edge">
<title>Node3&#45;&gt;Node7</title>
<path fill="none" stroke="midnightblue" d="M222.71,-127.16C209.9,-125.74 196.8,-124.29 184.15,-122.88"/>
<polygon fill="midnightblue" stroke="midnightblue" points="222.59,-130.67 232.91,-128.29 223.36,-123.71 222.59,-130.67"/>
</g>
<!-- Node8 -->
<g id="node8" class="node">
<title>Node8</title>
<g id="a_node8"><a xlink:href="classfspm_1_1config_1_1tests_1_1ParamAccess_1_1SimpleTest_ad0bca9bf9a2f6f7c6dc7aab7b0791fc5.html#ad0bca9bf9a2f6f7c6dc7aab7b0791fc5" target="_top" xlink:title=" ">
<polygon fill="none" stroke="black" points="0,-49.5 0,-79.5 197,-79.5 197,-49.5 0,-49.5"/>
<text text-anchor="start" x="8" y="-67.5" font-family="Helvetica,sans-Serif" font-size="10.00">fspm.config.tests.ParamAccess.</text>
<text text-anchor="middle" x="98.5" y="-56.5" font-family="Helvetica,sans-Serif" font-size="10.00">SimpleTest.testNullWithDefaultValue</text>
</a>
</g>
</g>
<!-- Node3&#45;&gt;Node8 -->
<g id="edge7" class="edge">
<title>Node3&#45;&gt;Node8</title>
<path fill="none" stroke="midnightblue" d="M246.33,-119.09C241.76,-117.35 237.28,-115.49 233,-113.5 215.56,-105.4 214.56,-97.33 197,-89.5 188.46,-85.69 179.23,-82.38 169.98,-79.53"/>
<polygon fill="midnightblue" stroke="midnightblue" points="245.21,-122.4 255.8,-122.48 247.57,-115.81 245.21,-122.4"/>
</g>
<!-- Node9 -->
<g id="node9" class="node">
<title>Node9</title>
<g id="a_node9"><a xlink:href="classfspm_1_1config_1_1tests_1_1ParamAccess_1_1SimpleTest_a6ff9e514f8013564285ff10fa6a0af6f.html#a6ff9e514f8013564285ff10fa6a0af6f" target="_top" xlink:title=" ">
<polygon fill="none" stroke="black" points="13,-0.5 13,-30.5 184,-30.5 184,-0.5 13,-0.5"/>
<text text-anchor="start" x="21" y="-18.5" font-family="Helvetica,sans-Serif" font-size="10.00">fspm.config.tests.ParamAccess.</text>
<text text-anchor="middle" x="98.5" y="-7.5" font-family="Helvetica,sans-Serif" font-size="10.00">SimpleTest.testTypes</text>
</a>
</g>
</g>
<!-- Node3&#45;&gt;Node9 -->
<g id="edge8" class="edge">
<title>Node3&#45;&gt;Node9</title>
<path fill="none" stroke="midnightblue" d="M237.84,-117.2C236.17,-116.04 234.55,-114.8 233,-113.5 205.02,-89.95 225.45,-62.49 197,-39.5 192.8,-36.1 188.18,-33.18 183.32,-30.66"/>
<polygon fill="midnightblue" stroke="midnightblue" points="236.24,-120.33 246.62,-122.5 239.86,-114.33 236.24,-120.33"/>
</g>
<!-- Node11 -->
<g id="node11" class="node">
<title>Node11</title>
<g id="a_node11"><a xlink:href="classfspm_1_1config_1_1tests_1_1Structure_1_1TableStoreTest_ae0ee4dcb8470b2e8fb2d14bd57eb6f7e.html#ae0ee4dcb8470b2e8fb2d14bd57eb6f7e" target="_top" xlink:title=" ">
<polygon fill="none" stroke="black" points="241,-73.5 241,-103.5 393,-103.5 393,-73.5 241,-73.5"/>
<text text-anchor="start" x="249" y="-91.5" font-family="Helvetica,sans-Serif" font-size="10.00">fspm.config.tests.Structure.</text>
<text text-anchor="middle" x="317" y="-80.5" font-family="Helvetica,sans-Serif" font-size="10.00">TableStoreTest.testGetTable</text>
</a>
</g>
</g>
<!-- Node10&#45;&gt;Node11 -->
<g id="edge10" class="edge">
<title>Node10&#45;&gt;Node11</title>
<path fill="none" stroke="midnightblue" d="M426.68,-88.5C415.54,-88.5 404.17,-88.5 393.17,-88.5"/>
<polygon fill="midnightblue" stroke="midnightblue" points="426.83,-92 436.83,-88.5 426.83,-85 426.83,-92"/>
</g>
</g>
</svg>
