<?xml version="1.0" encoding="UTF-8" standalone="no"?>
<!DOCTYPE svg PUBLIC "-//W3C//DTD SVG 1.1//EN"
 "http://www.w3.org/Graphics/SVG/1.1/DTD/svg11.dtd">
<!-- Generated by graphviz version 2.43.0 (0)
 -->
<!-- Title: fspm.config.params.hierarchy.CategoryHierarchy.getCategoryWithParam Pages: 1 -->
<svg width="923pt" height="774pt"
 viewBox="0.00 0.00 923.00 774.00" xmlns="http://www.w3.org/2000/svg" xmlns:xlink="http://www.w3.org/1999/xlink">
<g id="graph0" class="graph" transform="scale(1 1) rotate(0) translate(4 770)">
<title>fspm.config.params.hierarchy.CategoryHierarchy.getCategoryWithParam</title>
<!-- Node1 -->
<g id="node1" class="node">
<title>Node1</title>
<g id="a_node1"><a xlink:title=" ">
<polygon fill="#bfbfbf" stroke="black" points="692,-245.5 692,-275.5 915,-275.5 915,-245.5 692,-245.5"/>
<text text-anchor="start" x="700" y="-263.5" font-family="Helvetica,sans-Serif" font-size="10.00">fspm.config.params.hierarchy.</text>
<text text-anchor="middle" x="803.5" y="-252.5" font-family="Helvetica,sans-Serif" font-size="10.00">CategoryHierarchy.getCategoryWithParam</text>
</a>
</g>
</g>
<!-- Node2 -->
<g id="node2" class="node">
<title>Node2</title>
<g id="a_node2"><a xlink:href="classfspm_1_1config_1_1params_1_1hierarchy_1_1CategoryHierarchy_a97a3787601b2a1964f925a5509267602.html#a97a3787601b2a1964f925a5509267602" target="_top" xlink:title=" ">
<polygon fill="none" stroke="black" points="460,-240 460,-281 656,-281 656,-240 460,-240"/>
<text text-anchor="start" x="468" y="-269" font-family="Helvetica,sans-Serif" font-size="10.00">fspm.config.params.hierarchy.</text>
<text text-anchor="start" x="468" y="-258" font-family="Helvetica,sans-Serif" font-size="10.00">CategoryHierarchy.validateFlattened</text>
<text text-anchor="middle" x="558" y="-247" font-family="Helvetica,sans-Serif" font-size="10.00">Access</text>
</a>
</g>
</g>
<!-- Node1&#45;&gt;Node2 -->
<g id="edge1" class="edge">
<title>Node1&#45;&gt;Node2</title>
<path fill="none" stroke="midnightblue" d="M681.7,-260.5C673.09,-260.5 664.47,-260.5 656.02,-260.5"/>
<polygon fill="midnightblue" stroke="midnightblue" points="681.79,-264 691.79,-260.5 681.79,-257 681.79,-264"/>
</g>
<!-- Node3 -->
<g id="node3" class="node">
<title>Node3</title>
<g id="a_node3"><a xlink:href="classfspm_1_1config_1_1params_1_1hierarchy_1_1CategoryHierarchy_acac58ead81a0e7ce29fc33e0ccfb95b4.html#acac58ead81a0e7ce29fc33e0ccfb95b4" target="_top" xlink:title=" ">
<polygon fill="none" stroke="black" points="246.5,-637.5 246.5,-667.5 410.5,-667.5 410.5,-637.5 246.5,-637.5"/>
<text text-anchor="start" x="254.5" y="-655.5" font-family="Helvetica,sans-Serif" font-size="10.00">fspm.config.params.hierarchy.</text>
<text text-anchor="middle" x="328.5" y="-644.5" font-family="Helvetica,sans-Serif" font-size="10.00">CategoryHierarchy.getArray</text>
</a>
</g>
</g>
<!-- Node2&#45;&gt;Node3 -->
<g id="edge2" class="edge">
<title>Node2&#45;&gt;Node3</title>
<path fill="none" stroke="midnightblue" d="M547.34,-290.65C528.76,-346.12 484.44,-466.77 424,-555.5 401.9,-587.95 368.42,-619.34 347.81,-637.25"/>
<polygon fill="midnightblue" stroke="midnightblue" points="550.69,-291.67 550.51,-281.08 544.05,-289.47 550.69,-291.67"/>
</g>
<!-- Node8 -->
<g id="node8" class="node">
<title>Node8</title>
<g id="a_node8"><a xlink:href="classfspm_1_1config_1_1params_1_1hierarchy_1_1CategoryHierarchy_a919331cbea40c893fc991b895e65797c.html#a919331cbea40c893fc991b895e65797c" target="_top" xlink:title=" ">
<polygon fill="none" stroke="black" points="246,-392.5 246,-422.5 411,-422.5 411,-392.5 246,-392.5"/>
<text text-anchor="start" x="254" y="-410.5" font-family="Helvetica,sans-Serif" font-size="10.00">fspm.config.params.hierarchy.</text>
<text text-anchor="middle" x="328.5" y="-399.5" font-family="Helvetica,sans-Serif" font-size="10.00">CategoryHierarchy.getBoolean</text>
</a>
</g>
</g>
<!-- Node2&#45;&gt;Node8 -->
<g id="edge7" class="edge">
<title>Node2&#45;&gt;Node8</title>
<path fill="none" stroke="midnightblue" d="M516.35,-286.77C468.68,-317.57 391.31,-367.56 352.81,-392.44"/>
<polygon fill="midnightblue" stroke="midnightblue" points="518.39,-289.62 524.89,-281.25 514.59,-283.74 518.39,-289.62"/>
</g>
<!-- Node13 -->
<g id="node13" class="node">
<title>Node13</title>
<g id="a_node13"><a xlink:href="classfspm_1_1config_1_1params_1_1hierarchy_1_1CategoryHierarchy_a7970892fcc03921063891466f26ddbb0.html#a7970892fcc03921063891466f26ddbb0" target="_top" xlink:title=" ">
<polygon fill="none" stroke="black" points="233,-98.5 233,-128.5 424,-128.5 424,-98.5 233,-98.5"/>
<text text-anchor="start" x="241" y="-116.5" font-family="Helvetica,sans-Serif" font-size="10.00">fspm.config.params.hierarchy.</text>
<text text-anchor="middle" x="328.5" y="-105.5" font-family="Helvetica,sans-Serif" font-size="10.00">CategoryHierarchy.getBooleanArray</text>
</a>
</g>
</g>
<!-- Node2&#45;&gt;Node13 -->
<g id="edge12" class="edge">
<title>Node2&#45;&gt;Node13</title>
<path fill="none" stroke="midnightblue" d="M533.56,-232.14C509.04,-204.3 468.04,-162.58 424,-138.5 417,-134.67 409.39,-131.41 401.62,-128.63"/>
<polygon fill="midnightblue" stroke="midnightblue" points="531.13,-234.69 540.33,-239.96 536.43,-230.11 531.13,-234.69"/>
</g>
<!-- Node14 -->
<g id="node14" class="node">
<title>Node14</title>
<g id="a_node14"><a xlink:href="classfspm_1_1config_1_1params_1_1hierarchy_1_1CategoryHierarchy_a102a9918613120b35bf206b2add5044a.html#a102a9918613120b35bf206b2add5044a" target="_top" xlink:title=" ">
<polygon fill="none" stroke="black" points="246.5,-294.5 246.5,-324.5 410.5,-324.5 410.5,-294.5 246.5,-294.5"/>
<text text-anchor="start" x="254.5" y="-312.5" font-family="Helvetica,sans-Serif" font-size="10.00">fspm.config.params.hierarchy.</text>
<text text-anchor="middle" x="328.5" y="-301.5" font-family="Helvetica,sans-Serif" font-size="10.00">CategoryHierarchy.getDouble</text>
</a>
</g>
</g>
<!-- Node2&#45;&gt;Node14 -->
<g id="edge13" class="edge">
<title>Node2&#45;&gt;Node14</title>
<path fill="none" stroke="midnightblue" d="M451.65,-283.19C433.84,-287.03 415.76,-290.92 399.16,-294.5"/>
<polygon fill="midnightblue" stroke="midnightblue" points="452.47,-286.59 461.51,-281.07 451,-279.75 452.47,-286.59"/>
</g>
<!-- Node20 -->
<g id="node20" class="node">
<title>Node20</title>
<g id="a_node20"><a xlink:href="classfspm_1_1config_1_1params_1_1hierarchy_1_1CategoryHierarchy_aa00dcf6e501990ed32745e4befe7986c.html#aa00dcf6e501990ed32745e4befe7986c" target="_top" xlink:title=" ">
<polygon fill="none" stroke="black" points="235.5,-515.5 235.5,-545.5 421.5,-545.5 421.5,-515.5 235.5,-515.5"/>
<text text-anchor="start" x="243.5" y="-533.5" font-family="Helvetica,sans-Serif" font-size="10.00">fspm.config.params.hierarchy.</text>
<text text-anchor="middle" x="328.5" y="-522.5" font-family="Helvetica,sans-Serif" font-size="10.00">CategoryHierarchy.getDoubleArray</text>
</a>
</g>
</g>
<!-- Node2&#45;&gt;Node20 -->
<g id="edge20" class="edge">
<title>Node2&#45;&gt;Node20</title>
<path fill="none" stroke="midnightblue" d="M536.09,-289.48C510.64,-324.3 465.87,-384.06 424,-432.5 397.57,-463.08 364.29,-496.53 345.1,-515.38"/>
<polygon fill="midnightblue" stroke="midnightblue" points="539.07,-291.34 542.13,-281.19 533.42,-287.21 539.07,-291.34"/>
</g>
<!-- Node21 -->
<g id="node21" class="node">
<title>Node21</title>
<g id="a_node21"><a xlink:href="classfspm_1_1config_1_1params_1_1hierarchy_1_1CategoryHierarchy_a4cc1777d6041d4ed07c6adb34bfcb043.html#a4cc1777d6041d4ed07c6adb34bfcb043" target="_top" xlink:title=" ">
<polygon fill="none" stroke="black" points="246.5,-196.5 246.5,-226.5 410.5,-226.5 410.5,-196.5 246.5,-196.5"/>
<text text-anchor="start" x="254.5" y="-214.5" font-family="Helvetica,sans-Serif" font-size="10.00">fspm.config.params.hierarchy.</text>
<text text-anchor="middle" x="328.5" y="-203.5" font-family="Helvetica,sans-Serif" font-size="10.00">CategoryHierarchy.getInteger</text>
</a>
</g>
</g>
<!-- Node2&#45;&gt;Node21 -->
<g id="edge22" class="edge">
<title>Node2&#45;&gt;Node21</title>
<path fill="none" stroke="midnightblue" d="M451.65,-237.81C433.84,-233.97 415.76,-230.08 399.16,-226.5"/>
<polygon fill="midnightblue" stroke="midnightblue" points="451,-241.25 461.51,-239.93 452.47,-234.41 451,-241.25"/>
</g>
<!-- Node23 -->
<g id="node23" class="node">
<title>Node23</title>
<g id="a_node23"><a xlink:href="classfspm_1_1config_1_1params_1_1hierarchy_1_1CategoryHierarchy_a768fd7434215517760d2f4dd066cac99.html#a768fd7434215517760d2f4dd066cac99" target="_top" xlink:title=" ">
<polygon fill="none" stroke="black" points="235.5,-710.5 235.5,-740.5 421.5,-740.5 421.5,-710.5 235.5,-710.5"/>
<text text-anchor="start" x="243.5" y="-728.5" font-family="Helvetica,sans-Serif" font-size="10.00">fspm.config.params.hierarchy.</text>
<text text-anchor="middle" x="328.5" y="-717.5" font-family="Helvetica,sans-Serif" font-size="10.00">CategoryHierarchy.getIntegerArray</text>
</a>
</g>
</g>
<!-- Node2&#45;&gt;Node23 -->
<g id="edge27" class="edge">
<title>Node2&#45;&gt;Node23</title>
<path fill="none" stroke="midnightblue" d="M555.11,-291.59C549.01,-366.61 523.95,-559.98 424,-677.5 411.48,-692.22 393.34,-702.94 376.28,-710.46"/>
<polygon fill="midnightblue" stroke="midnightblue" points="558.62,-291.64 555.88,-281.41 551.64,-291.12 558.62,-291.64"/>
</g>
<!-- Node24 -->
<g id="node24" class="node">
<title>Node24</title>
<g id="a_node24"><a xlink:href="classfspm_1_1config_1_1params_1_1hierarchy_1_1CategoryHierarchy_a17938746666bf49fe2633a4e9d24cd4b.html#a17938746666bf49fe2633a4e9d24cd4b" target="_top" xlink:title=" ">
<polygon fill="none" stroke="black" points="246.5,-245.5 246.5,-275.5 410.5,-275.5 410.5,-245.5 246.5,-245.5"/>
<text text-anchor="start" x="254.5" y="-263.5" font-family="Helvetica,sans-Serif" font-size="10.00">fspm.config.params.hierarchy.</text>
<text text-anchor="middle" x="328.5" y="-252.5" font-family="Helvetica,sans-Serif" font-size="10.00">CategoryHierarchy.getString</text>
</a>
</g>
</g>
<!-- Node2&#45;&gt;Node24 -->
<g id="edge29" class="edge">
<title>Node2&#45;&gt;Node24</title>
<path fill="none" stroke="midnightblue" d="M449.8,-260.5C436.61,-260.5 423.3,-260.5 410.58,-260.5"/>
<polygon fill="midnightblue" stroke="midnightblue" points="449.86,-264 459.86,-260.5 449.86,-257 449.86,-264"/>
</g>
<!-- Node26 -->
<g id="node26" class="node">
<title>Node26</title>
<g id="a_node26"><a xlink:href="classfspm_1_1config_1_1params_1_1hierarchy_1_1CategoryHierarchy_a2a14d7bc7abfd46799c79393a1fd4354.html#a2a14d7bc7abfd46799c79393a1fd4354" target="_top" xlink:title=" ">
<polygon fill="none" stroke="black" points="238.5,-49.5 238.5,-79.5 418.5,-79.5 418.5,-49.5 238.5,-49.5"/>
<text text-anchor="start" x="246.5" y="-67.5" font-family="Helvetica,sans-Serif" font-size="10.00">fspm.config.params.hierarchy.</text>
<text text-anchor="middle" x="328.5" y="-56.5" font-family="Helvetica,sans-Serif" font-size="10.00">CategoryHierarchy.getStringArray</text>
</a>
</g>
</g>
<!-- Node2&#45;&gt;Node26 -->
<g id="edge35" class="edge">
<title>Node2&#45;&gt;Node26</title>
<path fill="none" stroke="midnightblue" d="M541.86,-230.68C520.75,-192.15 478.81,-125.74 424,-89.5 418.2,-85.66 411.83,-82.41 405.22,-79.66"/>
<polygon fill="midnightblue" stroke="midnightblue" points="538.96,-232.68 546.77,-239.84 545.13,-229.37 538.96,-232.68"/>
</g>
<!-- Node27 -->
<g id="node27" class="node">
<title>Node27</title>
<g id="a_node27"><a xlink:href="classfspm_1_1config_1_1params_1_1hierarchy_1_1CategoryHierarchy_ab4557561031b5b29d93cb5b188babd0b.html#ab4557561031b5b29d93cb5b188babd0b" target="_top" xlink:title=" ">
<polygon fill="none" stroke="black" points="246.5,-147.5 246.5,-177.5 410.5,-177.5 410.5,-147.5 246.5,-147.5"/>
<text text-anchor="start" x="254.5" y="-165.5" font-family="Helvetica,sans-Serif" font-size="10.00">fspm.config.params.hierarchy.</text>
<text text-anchor="middle" x="328.5" y="-154.5" font-family="Helvetica,sans-Serif" font-size="10.00">CategoryHierarchy.isNull</text>
</a>
</g>
</g>
<!-- Node2&#45;&gt;Node27 -->
<g id="edge36" class="edge">
<title>Node2&#45;&gt;Node27</title>
<path fill="none" stroke="midnightblue" d="M516.04,-234.62C490.37,-219.27 456.16,-200.36 424,-187.5 414.7,-183.78 404.67,-180.45 394.74,-177.53"/>
<polygon fill="midnightblue" stroke="midnightblue" points="514.38,-237.7 524.75,-239.88 518.01,-231.71 514.38,-237.7"/>
</g>
<!-- Node28 -->
<g id="node28" class="node">
<title>Node28</title>
<g id="a_node28"><a xlink:href="classfspm_1_1config_1_1params_1_1hierarchy_1_1CategoryHierarchy_ae2186995ff3d6aa9c2de32be44e673bb.html#ae2186995ff3d6aa9c2de32be44e673bb" target="_top" xlink:title=" ">
<polygon fill="none" stroke="black" points="246.5,-0.5 246.5,-30.5 410.5,-30.5 410.5,-0.5 246.5,-0.5"/>
<text text-anchor="start" x="254.5" y="-18.5" font-family="Helvetica,sans-Serif" font-size="10.00">fspm.config.params.hierarchy.</text>
<text text-anchor="middle" x="328.5" y="-7.5" font-family="Helvetica,sans-Serif" font-size="10.00">CategoryHierarchy.set</text>
</a>
</g>
</g>
<!-- Node2&#45;&gt;Node28 -->
<g id="edge38" class="edge">
<title>Node2&#45;&gt;Node28</title>
<path fill="none" stroke="midnightblue" d="M547.29,-230.22C530.28,-182.16 490.45,-88.86 424,-39.5 419.38,-36.07 414.32,-33.12 409.02,-30.6"/>
<polygon fill="midnightblue" stroke="midnightblue" points="544.01,-231.43 550.57,-239.75 550.63,-229.16 544.01,-231.43"/>
</g>
<!-- Node4 -->
<g id="node4" class="node">
<title>Node4</title>
<g id="a_node4"><a xlink:href="classfspm_1_1config_1_1params_1_1hierarchy_1_1CategoryHierarchy_ad3b6d28c086ea8df8940cbfd35a72022.html#ad3b6d28c086ea8df8940cbfd35a72022" target="_top" xlink:title=" ">
<polygon fill="none" stroke="black" points="16.5,-637.5 16.5,-667.5 180.5,-667.5 180.5,-637.5 16.5,-637.5"/>
<text text-anchor="start" x="24.5" y="-655.5" font-family="Helvetica,sans-Serif" font-size="10.00">fspm.config.params.hierarchy.</text>
<text text-anchor="middle" x="98.5" y="-644.5" font-family="Helvetica,sans-Serif" font-size="10.00">CategoryHierarchy.getArray</text>
</a>
</g>
</g>
<!-- Node3&#45;&gt;Node4 -->
<g id="edge3" class="edge">
<title>Node3&#45;&gt;Node4</title>
<path fill="none" stroke="midnightblue" d="M236.34,-652.5C217.93,-652.5 198.69,-652.5 180.65,-652.5"/>
<polygon fill="midnightblue" stroke="midnightblue" points="236.47,-656 246.47,-652.5 236.47,-649 236.47,-656"/>
</g>
<!-- Node5 -->
<g id="node5" class="node">
<title>Node5</title>
<g id="a_node5"><a xlink:href="classfspm_1_1config_1_1tests_1_1ParamAccess_1_1ArrayTest_a7f034099689706d2e263f1d7d04b0f9a.html#a7f034099689706d2e263f1d7d04b0f9a" target="_top" xlink:title=" ">
<polygon fill="none" stroke="black" points="13,-735.5 13,-765.5 184,-765.5 184,-735.5 13,-735.5"/>
<text text-anchor="start" x="21" y="-753.5" font-family="Helvetica,sans-Serif" font-size="10.00">fspm.config.tests.ParamAccess.</text>
<text text-anchor="middle" x="98.5" y="-742.5" font-family="Helvetica,sans-Serif" font-size="10.00">ArrayTest.testGetArrays</text>
</a>
</g>
</g>
<!-- Node3&#45;&gt;Node5 -->
<g id="edge4" class="edge">
<title>Node3&#45;&gt;Node5</title>
<path fill="none" stroke="midnightblue" d="M286.8,-672.16C269.89,-680.7 250.23,-691.11 233,-701.5 216.32,-711.56 214.75,-718.48 197,-726.5 189.45,-729.91 181.35,-732.88 173.16,-735.45"/>
<polygon fill="midnightblue" stroke="midnightblue" points="288.5,-675.22 295.88,-667.62 285.37,-668.96 288.5,-675.22"/>
</g>
<!-- Node6 -->
<g id="node6" class="node">
<title>Node6</title>
<g id="a_node6"><a xlink:href="classfspm_1_1config_1_1tests_1_1ParamAccess_1_1ArrayTest_aa473b3f7e16319b82590bc9558a94bd4.html#aa473b3f7e16319b82590bc9558a94bd4" target="_top" xlink:title=" ">
<polygon fill="none" stroke="black" points="10.5,-588.5 10.5,-618.5 186.5,-618.5 186.5,-588.5 10.5,-588.5"/>
<text text-anchor="start" x="18.5" y="-606.5" font-family="Helvetica,sans-Serif" font-size="10.00">fspm.config.tests.ParamAccess.</text>
<text text-anchor="middle" x="98.5" y="-595.5" font-family="Helvetica,sans-Serif" font-size="10.00">ArrayTest.testIncorrectArrayType</text>
</a>
</g>
</g>
<!-- Node3&#45;&gt;Node6 -->
<g id="edge5" class="edge">
<title>Node3&#45;&gt;Node6</title>
<path fill="none" stroke="midnightblue" d="M247.54,-635.31C222.04,-629.84 194.04,-623.82 169.32,-618.51"/>
<polygon fill="midnightblue" stroke="midnightblue" points="247.03,-638.79 257.54,-637.47 248.5,-631.94 247.03,-638.79"/>
</g>
<!-- Node7 -->
<g id="node7" class="node">
<title>Node7</title>
<g id="a_node7"><a xlink:href="classfspm_1_1config_1_1tests_1_1ParamAccess_1_1ArrayTest_aeb939f25bb8cc9702e5a4ad8d2cdbc2c.html#aeb939f25bb8cc9702e5a4ad8d2cdbc2c" target="_top" xlink:title=" ">
<polygon fill="none" stroke="black" points="13,-686.5 13,-716.5 184,-716.5 184,-686.5 13,-686.5"/>
<text text-anchor="start" x="21" y="-704.5" font-family="Helvetica,sans-Serif" font-size="10.00">fspm.config.tests.ParamAccess.</text>
<text text-anchor="middle" x="98.5" y="-693.5" font-family="Helvetica,sans-Serif" font-size="10.00">ArrayTest.testPhenology</text>
</a>
</g>
</g>
<!-- Node3&#45;&gt;Node7 -->
<g id="edge6" class="edge">
<title>Node3&#45;&gt;Node7</title>
<path fill="none" stroke="midnightblue" d="M247.54,-669.69C222.04,-675.16 194.04,-681.18 169.32,-686.49"/>
<polygon fill="midnightblue" stroke="midnightblue" points="248.5,-673.06 257.54,-667.53 247.03,-666.21 248.5,-673.06"/>
</g>
<!-- Node9 -->
<g id="node9" class="node">
<title>Node9</title>
<g id="a_node9"><a xlink:href="classfspm_1_1config_1_1params_1_1hierarchy_1_1CategoryHierarchy_a6591eafe8a9348743ec6fad43e676919.html#a6591eafe8a9348743ec6fad43e676919" target="_top" xlink:title=" ">
<polygon fill="none" stroke="black" points="16,-539.5 16,-569.5 181,-569.5 181,-539.5 16,-539.5"/>
<text text-anchor="start" x="24" y="-557.5" font-family="Helvetica,sans-Serif" font-size="10.00">fspm.config.params.hierarchy.</text>
<text text-anchor="middle" x="98.5" y="-546.5" font-family="Helvetica,sans-Serif" font-size="10.00">CategoryHierarchy.getBoolean</text>
</a>
</g>
</g>
<!-- Node8&#45;&gt;Node9 -->
<g id="edge8" class="edge">
<title>Node8&#45;&gt;Node9</title>
<path fill="none" stroke="midnightblue" d="M306.21,-430.17C275.99,-461.88 221.58,-517.12 197,-530.5 190.65,-533.96 183.79,-536.93 176.76,-539.47"/>
<polygon fill="midnightblue" stroke="midnightblue" points="309,-432.31 313.34,-422.65 303.92,-427.5 309,-432.31"/>
</g>
<!-- Node10 -->
<g id="node10" class="node">
<title>Node10</title>
<g id="a_node10"><a xlink:href="classfspm_1_1config_1_1tests_1_1ParamAccess_1_1SimpleTest_a1ebf711e67df23a453e0ce50bc63b482.html#a1ebf711e67df23a453e0ce50bc63b482" target="_top" xlink:title=" ">
<polygon fill="none" stroke="black" points="12,-490.5 12,-520.5 185,-520.5 185,-490.5 12,-490.5"/>
<text text-anchor="start" x="20" y="-508.5" font-family="Helvetica,sans-Serif" font-size="10.00">fspm.config.tests.ParamAccess.</text>
<text text-anchor="middle" x="98.5" y="-497.5" font-family="Helvetica,sans-Serif" font-size="10.00">SimpleTest.testAccessExamples</text>
</a>
</g>
</g>
<!-- Node8&#45;&gt;Node10 -->
<g id="edge9" class="edge">
<title>Node8&#45;&gt;Node10</title>
<path fill="none" stroke="midnightblue" d="M296.8,-428.13C271.09,-444.6 232.94,-467.2 197,-481.5 188.58,-484.85 179.55,-487.83 170.52,-490.45"/>
<polygon fill="midnightblue" stroke="midnightblue" points="298.86,-430.96 305.35,-422.58 295.05,-425.09 298.86,-430.96"/>
</g>
<!-- Node11 -->
<g id="node11" class="node">
<title>Node11</title>
<g id="a_node11"><a xlink:href="classfspm_1_1config_1_1tests_1_1ParamAccess_1_1SimpleTest_a4612b4a76c0c5eb3a4d9fac2c0fa2bf8.html#a4612b4a76c0c5eb3a4d9fac2c0fa2bf8" target="_top" xlink:title=" ">
<polygon fill="none" stroke="black" points="0,-392.5 0,-422.5 197,-422.5 197,-392.5 0,-392.5"/>
<text text-anchor="start" x="8" y="-410.5" font-family="Helvetica,sans-Serif" font-size="10.00">fspm.config.tests.ParamAccess.</text>
<text text-anchor="middle" x="98.5" y="-399.5" font-family="Helvetica,sans-Serif" font-size="10.00">SimpleTest.testCrossCategoryAccess</text>
</a>
</g>
</g>
<!-- Node8&#45;&gt;Node11 -->
<g id="edge10" class="edge">
<title>Node8&#45;&gt;Node11</title>
<path fill="none" stroke="midnightblue" d="M235.78,-407.5C223.13,-407.5 210.09,-407.5 197.34,-407.5"/>
<polygon fill="midnightblue" stroke="midnightblue" points="235.83,-411 245.83,-407.5 235.83,-404 235.83,-411"/>
</g>
<!-- Node12 -->
<g id="node12" class="node">
<title>Node12</title>
<g id="a_node12"><a xlink:href="classfspm_1_1config_1_1tests_1_1ParamAccess_1_1SimpleTest_a8a856d084a9f7cc18dd02285f8bff9b4.html#a8a856d084a9f7cc18dd02285f8bff9b4" target="_top" xlink:title=" ">
<polygon fill="none" stroke="black" points="13,-196.5 13,-226.5 184,-226.5 184,-196.5 13,-196.5"/>
<text text-anchor="start" x="21" y="-214.5" font-family="Helvetica,sans-Serif" font-size="10.00">fspm.config.tests.ParamAccess.</text>
<text text-anchor="middle" x="98.5" y="-203.5" font-family="Helvetica,sans-Serif" font-size="10.00">SimpleTest.testFlatCategories</text>
</a>
</g>
</g>
<!-- Node8&#45;&gt;Node12 -->
<g id="edge11" class="edge">
<title>Node8&#45;&gt;Node12</title>
<path fill="none" stroke="midnightblue" d="M292.04,-387.07C272.33,-374.17 248.69,-355.91 233,-334.5 205.57,-297.08 231.43,-267.61 197,-236.5 192.72,-232.63 187.93,-229.35 182.82,-226.56"/>
<polygon fill="midnightblue" stroke="midnightblue" points="290.17,-390.03 300.49,-392.43 293.93,-384.12 290.17,-390.03"/>
</g>
<!-- Node14&#45;&gt;Node12 -->
<g id="edge16" class="edge">
<title>Node14&#45;&gt;Node12</title>
<path fill="none" stroke="midnightblue" d="M240.12,-289.84C237.67,-288.49 235.29,-287.04 233,-285.5 210.59,-270.4 219.39,-251.63 197,-236.5 191.21,-232.59 184.85,-229.29 178.23,-226.5"/>
<polygon fill="midnightblue" stroke="midnightblue" points="238.76,-293.07 249.28,-294.33 241.85,-286.78 238.76,-293.07"/>
</g>
<!-- Node15 -->
<g id="node15" class="node">
<title>Node15</title>
<g id="a_node15"><a xlink:href="classfspm_1_1config_1_1params_1_1hierarchy_1_1CategoryHierarchy_aa7db1da528c5dbf1c71c29e2b0105c50.html#aa7db1da528c5dbf1c71c29e2b0105c50" target="_top" xlink:title=" ">
<polygon fill="none" stroke="black" points="16.5,-294.5 16.5,-324.5 180.5,-324.5 180.5,-294.5 16.5,-294.5"/>
<text text-anchor="start" x="24.5" y="-312.5" font-family="Helvetica,sans-Serif" font-size="10.00">fspm.config.params.hierarchy.</text>
<text text-anchor="middle" x="98.5" y="-301.5" font-family="Helvetica,sans-Serif" font-size="10.00">CategoryHierarchy.getDouble</text>
</a>
</g>
</g>
<!-- Node14&#45;&gt;Node15 -->
<g id="edge14" class="edge">
<title>Node14&#45;&gt;Node15</title>
<path fill="none" stroke="midnightblue" d="M236.34,-309.5C217.93,-309.5 198.69,-309.5 180.65,-309.5"/>
<polygon fill="midnightblue" stroke="midnightblue" points="236.47,-313 246.47,-309.5 236.47,-306 236.47,-313"/>
</g>
<!-- Node16 -->
<g id="node16" class="node">
<title>Node16</title>
<g id="a_node16"><a xlink:href="classfspm_1_1config_1_1tests_1_1ParamAccess_1_1SimpleTest_a55f06c98bf87ce61c0a511a84ff4d506.html#a55f06c98bf87ce61c0a511a84ff4d506" target="_top" xlink:title=" ">
<polygon fill="none" stroke="black" points="13,-441.5 13,-471.5 184,-471.5 184,-441.5 13,-441.5"/>
<text text-anchor="start" x="21" y="-459.5" font-family="Helvetica,sans-Serif" font-size="10.00">fspm.config.tests.ParamAccess.</text>
<text text-anchor="middle" x="98.5" y="-448.5" font-family="Helvetica,sans-Serif" font-size="10.00">SimpleTest.testDefault</text>
</a>
</g>
</g>
<!-- Node14&#45;&gt;Node16 -->
<g id="edge15" class="edge">
<title>Node14&#45;&gt;Node16</title>
<path fill="none" stroke="midnightblue" d="M296.5,-330.47C277.15,-344.33 252.33,-363.56 233,-383.5 214.19,-402.9 219.47,-417.48 197,-432.5 191.93,-435.89 186.42,-438.8 180.69,-441.3"/>
<polygon fill="midnightblue" stroke="midnightblue" points="298.54,-333.31 304.7,-324.68 294.51,-327.59 298.54,-333.31"/>
</g>
<!-- Node17 -->
<g id="node17" class="node">
<title>Node17</title>
<g id="a_node17"><a xlink:href="classfspm_1_1config_1_1tests_1_1ParamAccess_1_1SimpleTest_add14e7bad047c7089ed8e08680f4c2cf.html#add14e7bad047c7089ed8e08680f4c2cf" target="_top" xlink:title=" ">
<polygon fill="none" stroke="black" points="13,-245.5 13,-275.5 184,-275.5 184,-245.5 13,-245.5"/>
<text text-anchor="start" x="21" y="-263.5" font-family="Helvetica,sans-Serif" font-size="10.00">fspm.config.tests.ParamAccess.</text>
<text text-anchor="middle" x="98.5" y="-252.5" font-family="Helvetica,sans-Serif" font-size="10.00">SimpleTest.testNull</text>
</a>
</g>
</g>
<!-- Node14&#45;&gt;Node17 -->
<g id="edge17" class="edge">
<title>Node14&#45;&gt;Node17</title>
<path fill="none" stroke="midnightblue" d="M247.54,-292.31C222.04,-286.84 194.04,-280.82 169.32,-275.51"/>
<polygon fill="midnightblue" stroke="midnightblue" points="247.03,-295.79 257.54,-294.47 248.5,-288.94 247.03,-295.79"/>
</g>
<!-- Node18 -->
<g id="node18" class="node">
<title>Node18</title>
<g id="a_node18"><a xlink:href="classfspm_1_1config_1_1tests_1_1ParamAccess_1_1SimpleTest_ad0bca9bf9a2f6f7c6dc7aab7b0791fc5.html#ad0bca9bf9a2f6f7c6dc7aab7b0791fc5" target="_top" xlink:title=" ">
<polygon fill="none" stroke="black" points="0,-343.5 0,-373.5 197,-373.5 197,-343.5 0,-343.5"/>
<text text-anchor="start" x="8" y="-361.5" font-family="Helvetica,sans-Serif" font-size="10.00">fspm.config.tests.ParamAccess.</text>
<text text-anchor="middle" x="98.5" y="-350.5" font-family="Helvetica,sans-Serif" font-size="10.00">SimpleTest.testNullWithDefaultValue</text>
</a>
</g>
</g>
<!-- Node14&#45;&gt;Node18 -->
<g id="edge18" class="edge">
<title>Node14&#45;&gt;Node18</title>
<path fill="none" stroke="midnightblue" d="M247.54,-326.69C222.04,-332.16 194.04,-338.18 169.32,-343.49"/>
<polygon fill="midnightblue" stroke="midnightblue" points="248.5,-330.06 257.54,-324.53 247.03,-323.21 248.5,-330.06"/>
</g>
<!-- Node19 -->
<g id="node19" class="node">
<title>Node19</title>
<g id="a_node19"><a xlink:href="classfspm_1_1config_1_1tests_1_1ParamAccess_1_1SimpleTest_a6ff9e514f8013564285ff10fa6a0af6f.html#a6ff9e514f8013564285ff10fa6a0af6f" target="_top" xlink:title=" ">
<polygon fill="none" stroke="black" points="13,-98.5 13,-128.5 184,-128.5 184,-98.5 13,-98.5"/>
<text text-anchor="start" x="21" y="-116.5" font-family="Helvetica,sans-Serif" font-size="10.00">fspm.config.tests.ParamAccess.</text>
<text text-anchor="middle" x="98.5" y="-105.5" font-family="Helvetica,sans-Serif" font-size="10.00">SimpleTest.testTypes</text>
</a>
</g>
</g>
<!-- Node14&#45;&gt;Node19 -->
<g id="edge19" class="edge">
<title>Node14&#45;&gt;Node19</title>
<path fill="none" stroke="midnightblue" d="M237.65,-289.7C236.03,-288.39 234.47,-286.99 233,-285.5 185.64,-237.73 244.3,-186.32 197,-138.5 193.19,-134.65 188.87,-131.36 184.23,-128.56"/>
<polygon fill="midnightblue" stroke="midnightblue" points="236.04,-292.84 246.26,-295.62 240,-287.07 236.04,-292.84"/>
</g>
<!-- Node20&#45;&gt;Node6 -->
<g id="edge21" class="edge">
<title>Node20&#45;&gt;Node6</title>
<path fill="none" stroke="midnightblue" d="M281.55,-549.27C256.75,-559.01 225.47,-570.68 197,-579.5 186.76,-582.67 175.81,-585.7 165.09,-588.48"/>
<polygon fill="midnightblue" stroke="midnightblue" points="283.05,-552.44 291.06,-545.5 280.47,-545.93 283.05,-552.44"/>
</g>
<!-- Node21&#45;&gt;Node11 -->
<g id="edge24" class="edge">
<title>Node21&#45;&gt;Node11</title>
<path fill="none" stroke="midnightblue" d="M237.64,-232.26C236.02,-233.59 234.47,-235 233,-236.5 185.88,-284.5 244.53,-335.91 197,-383.5 193.67,-386.83 189.96,-389.72 185.99,-392.24"/>
<polygon fill="midnightblue" stroke="midnightblue" points="240.04,-234.85 246.24,-226.26 236.03,-229.11 240.04,-234.85"/>
</g>
<!-- Node21&#45;&gt;Node12 -->
<g id="edge25" class="edge">
<title>Node21&#45;&gt;Node12</title>
<path fill="none" stroke="midnightblue" d="M236.41,-211.5C219.15,-211.5 201.17,-211.5 184.12,-211.5"/>
<polygon fill="midnightblue" stroke="midnightblue" points="236.47,-215 246.47,-211.5 236.47,-208 236.47,-215"/>
</g>
<!-- Node21&#45;&gt;Node19 -->
<g id="edge26" class="edge">
<title>Node21&#45;&gt;Node19</title>
<path fill="none" stroke="midnightblue" d="M240.12,-191.84C237.67,-190.49 235.29,-189.04 233,-187.5 210.59,-172.4 219.39,-153.63 197,-138.5 191.21,-134.59 184.85,-131.29 178.23,-128.5"/>
<polygon fill="midnightblue" stroke="midnightblue" points="238.76,-195.07 249.28,-196.33 241.85,-188.78 238.76,-195.07"/>
</g>
<!-- Node22 -->
<g id="node22" class="node">
<title>Node22</title>
<g id="a_node22"><a xlink:href="classfspm_1_1config_1_1params_1_1hierarchy_1_1CategoryHierarchy_ac9c2f536d23ca5848b462061f8b657d1.html#ac9c2f536d23ca5848b462061f8b657d1" target="_top" xlink:title=" ">
<polygon fill="none" stroke="black" points="16.5,-49.5 16.5,-79.5 180.5,-79.5 180.5,-49.5 16.5,-49.5"/>
<text text-anchor="start" x="24.5" y="-67.5" font-family="Helvetica,sans-Serif" font-size="10.00">fspm.config.params.hierarchy.</text>
<text text-anchor="middle" x="98.5" y="-56.5" font-family="Helvetica,sans-Serif" font-size="10.00">CategoryHierarchy.getInteger</text>
</a>
</g>
</g>
<!-- Node21&#45;&gt;Node22 -->
<g id="edge23" class="edge">
<title>Node21&#45;&gt;Node22</title>
<path fill="none" stroke="midnightblue" d="M237.71,-191.36C236.08,-190.15 234.51,-188.86 233,-187.5 198.54,-156.43 231.43,-120.61 197,-89.5 192.2,-85.16 186.76,-81.56 180.95,-78.57"/>
<polygon fill="midnightblue" stroke="midnightblue" points="235.99,-194.41 246.3,-196.86 239.77,-188.52 235.99,-194.41"/>
</g>
<!-- Node23&#45;&gt;Node5 -->
<g id="edge28" class="edge">
<title>Node23&#45;&gt;Node5</title>
<path fill="none" stroke="midnightblue" d="M225.43,-736.69C211.65,-738.2 197.62,-739.74 184.18,-741.21"/>
<polygon fill="midnightblue" stroke="midnightblue" points="225.86,-740.17 235.42,-735.6 225.1,-733.21 225.86,-740.17"/>
</g>
<!-- Node24&#45;&gt;Node10 -->
<g id="edge31" class="edge">
<title>Node24&#45;&gt;Node10</title>
<path fill="none" stroke="midnightblue" d="M238.07,-280.67C236.29,-282.17 234.59,-283.78 233,-285.5 172.83,-350.49 257.73,-417.03 197,-481.5 193.53,-485.18 189.6,-488.33 185.35,-491.03"/>
<polygon fill="midnightblue" stroke="midnightblue" points="240.28,-283.39 246.4,-274.74 236.22,-277.69 240.28,-283.39"/>
</g>
<!-- Node24&#45;&gt;Node12 -->
<g id="edge32" class="edge">
<title>Node24&#45;&gt;Node12</title>
<path fill="none" stroke="midnightblue" d="M247.54,-243.31C222.04,-237.84 194.04,-231.82 169.32,-226.51"/>
<polygon fill="midnightblue" stroke="midnightblue" points="247.03,-246.79 257.54,-245.47 248.5,-239.94 247.03,-246.79"/>
</g>
<!-- Node24&#45;&gt;Node17 -->
<g id="edge33" class="edge">
<title>Node24&#45;&gt;Node17</title>
<path fill="none" stroke="midnightblue" d="M236.41,-260.5C219.15,-260.5 201.17,-260.5 184.12,-260.5"/>
<polygon fill="midnightblue" stroke="midnightblue" points="236.47,-264 246.47,-260.5 236.47,-257 236.47,-264"/>
</g>
<!-- Node24&#45;&gt;Node19 -->
<g id="edge34" class="edge">
<title>Node24&#45;&gt;Node19</title>
<path fill="none" stroke="midnightblue" d="M237.71,-240.36C236.08,-239.15 234.51,-237.86 233,-236.5 198.54,-205.43 231.43,-169.61 197,-138.5 192.72,-134.63 187.93,-131.35 182.82,-128.56"/>
<polygon fill="midnightblue" stroke="midnightblue" points="235.99,-243.41 246.3,-245.86 239.77,-237.52 235.99,-243.41"/>
</g>
<!-- Node25 -->
<g id="node25" class="node">
<title>Node25</title>
<g id="a_node25"><a xlink:href="classfspm_1_1config_1_1params_1_1hierarchy_1_1CategoryHierarchy_a04a8bf1882e75d9f01107dc56b18452e.html#a04a8bf1882e75d9f01107dc56b18452e" target="_top" xlink:title=" ">
<polygon fill="none" stroke="black" points="16.5,-147.5 16.5,-177.5 180.5,-177.5 180.5,-147.5 16.5,-147.5"/>
<text text-anchor="start" x="24.5" y="-165.5" font-family="Helvetica,sans-Serif" font-size="10.00">fspm.config.params.hierarchy.</text>
<text text-anchor="middle" x="98.5" y="-154.5" font-family="Helvetica,sans-Serif" font-size="10.00">CategoryHierarchy.getString</text>
</a>
</g>
</g>
<!-- Node24&#45;&gt;Node25 -->
<g id="edge30" class="edge">
<title>Node24&#45;&gt;Node25</title>
<path fill="none" stroke="midnightblue" d="M240.12,-240.84C237.67,-239.49 235.29,-238.04 233,-236.5 210.59,-221.4 219.39,-202.63 197,-187.5 191.21,-183.59 184.85,-180.29 178.23,-177.5"/>
<polygon fill="midnightblue" stroke="midnightblue" points="238.76,-244.07 249.28,-245.33 241.85,-237.78 238.76,-244.07"/>
</g>
<!-- Node27&#45;&gt;Node19 -->
<g id="edge37" class="edge">
<title>Node27&#45;&gt;Node19</title>
<path fill="none" stroke="midnightblue" d="M247.54,-145.31C222.04,-139.84 194.04,-133.82 169.32,-128.51"/>
<polygon fill="midnightblue" stroke="midnightblue" points="247.03,-148.79 257.54,-147.47 248.5,-141.94 247.03,-148.79"/>
</g>
</g>
</svg>
