<?xml version="1.0" encoding="UTF-8" standalone="no"?>
<!DOCTYPE svg PUBLIC "-//W3C//DTD SVG 1.1//EN"
 "http://www.w3.org/Graphics/SVG/1.1/DTD/svg11.dtd">
<!-- Generated by graphviz version 2.43.0 (0)
 -->
<!-- Title: io.github.fruitcropxl.config.params.ParamCategory.getBooleanArray Pages: 1 -->
<svg width="868pt" height="110pt"
 viewBox="0.00 0.00 868.00 110.00" xmlns="http://www.w3.org/2000/svg" xmlns:xlink="http://www.w3.org/1999/xlink">
<g id="graph0" class="graph" transform="scale(1 1) rotate(0) translate(4 106)">
<title>io.github.fruitcropxl.config.params.ParamCategory.getBooleanArray</title>
<!-- Node1 -->
<g id="Node000001" class="node">
<title>Node1</title>
<g id="a_Node000001"><a xlink:title=" ">
<polygon fill="#999999" stroke="#666666" points="188,-54 0,-54 0,-24 188,-24 188,-54"/>
<text text-anchor="start" x="8" y="-42" font-family="Helvetica,sans-Serif" font-size="10.00">io.github.fruitcropxl.config.params.</text>
<text text-anchor="middle" x="94" y="-31" font-family="Helvetica,sans-Serif" font-size="10.00">ParamCategory.getBooleanArray</text>
</a>
</g>
</g>
<!-- Node2 -->
<g id="Node000002" class="node">
<title>Node2</title>
<g id="a_Node000002"><a xlink:href="classio_1_1github_1_1fruitcropxl_1_1config_1_1params_1_1ParamCategory_ac64ba4716a6f5a7cbbe77b5b8154dd7d.html#ac64ba4716a6f5a7cbbe77b5b8154dd7d" target="_top" xlink:title=" ">
<polygon fill="white" stroke="#666666" points="412,-54 224,-54 224,-24 412,-24 412,-54"/>
<text text-anchor="start" x="232" y="-42" font-family="Helvetica,sans-Serif" font-size="10.00">io.github.fruitcropxl.config.params.</text>
<text text-anchor="middle" x="318" y="-31" font-family="Helvetica,sans-Serif" font-size="10.00">ParamCategory.getArray</text>
</a>
</g>
</g>
<!-- Node1&#45;&gt;Node2 -->
<g id="edge1_Node000001_Node000002" class="edge">
<title>Node1&#45;&gt;Node2</title>
<g id="a_edge1_Node000001_Node000002"><a xlink:title=" ">
<path fill="none" stroke="#63b8ff" d="M188.18,-39C196.53,-39 205.02,-39 213.46,-39"/>
<polygon fill="#63b8ff" stroke="#63b8ff" points="213.7,-42.5 223.7,-39 213.7,-35.5 213.7,-42.5"/>
</a>
</g>
</g>
<!-- Node3 -->
<g id="Node000003" class="node">
<title>Node3</title>
<g id="a_Node000003"><a xlink:href="classio_1_1github_1_1fruitcropxl_1_1config_1_1params_1_1Parameter_af214f779c4a3550b86aef81d1aca6317.html#af214f779c4a3550b86aef81d1aca6317" target="_top" xlink:title="Generic method for getting arrays of a given type.">
<polygon fill="white" stroke="#666666" points="636,-78 448,-78 448,-48 636,-48 636,-78"/>
<text text-anchor="start" x="456" y="-66" font-family="Helvetica,sans-Serif" font-size="10.00">io.github.fruitcropxl.config.params.</text>
<text text-anchor="middle" x="542" y="-55" font-family="Helvetica,sans-Serif" font-size="10.00">Parameter.asArray</text>
</a>
</g>
</g>
<!-- Node2&#45;&gt;Node3 -->
<g id="edge2_Node000002_Node000003" class="edge">
<title>Node2&#45;&gt;Node3</title>
<g id="a_edge2_Node000002_Node000003"><a xlink:title=" ">
<path fill="none" stroke="#63b8ff" d="M412.18,-49.07C420.63,-49.99 429.21,-50.91 437.73,-51.84"/>
<polygon fill="#63b8ff" stroke="#63b8ff" points="437.38,-55.32 447.7,-52.91 438.13,-48.36 437.38,-55.32"/>
</a>
</g>
</g>
<!-- Node6 -->
<g id="Node000006" class="node">
<title>Node6</title>
<g id="a_Node000006"><a xlink:href="classio_1_1github_1_1fruitcropxl_1_1config_1_1params_1_1ParamCategory_ad96823e990040d8e36517b130dd87b74.html#ad96823e990040d8e36517b130dd87b74" target="_top" xlink:title="Get generic Parameter with the given key.">
<polygon fill="white" stroke="#666666" points="636,-30 448,-30 448,0 636,0 636,-30"/>
<text text-anchor="start" x="456" y="-18" font-family="Helvetica,sans-Serif" font-size="10.00">io.github.fruitcropxl.config.params.</text>
<text text-anchor="middle" x="542" y="-7" font-family="Helvetica,sans-Serif" font-size="10.00">ParamCategory.getParameter</text>
</a>
</g>
</g>
<!-- Node2&#45;&gt;Node6 -->
<g id="edge5_Node000002_Node000006" class="edge">
<title>Node2&#45;&gt;Node6</title>
<g id="a_edge5_Node000002_Node000006"><a xlink:title=" ">
<path fill="none" stroke="#63b8ff" d="M412.18,-28.93C420.63,-28.01 429.21,-27.09 437.73,-26.16"/>
<polygon fill="#63b8ff" stroke="#63b8ff" points="438.13,-29.64 447.7,-25.09 437.38,-22.68 438.13,-29.64"/>
</a>
</g>
</g>
<!-- Node4 -->
<g id="Node000004" class="node">
<title>Node4</title>
<g id="a_Node000004"><a xlink:href="classio_1_1github_1_1fruitcropxl_1_1config_1_1params_1_1Parameter_afb814e7b56aca911abaa4ea6cec8dfa9.html#afb814e7b56aca911abaa4ea6cec8dfa9" target="_top" xlink:title="Check which type the double value has been parsed as.">
<polygon fill="white" stroke="#666666" points="860,-102 672,-102 672,-72 860,-72 860,-102"/>
<text text-anchor="start" x="680" y="-90" font-family="Helvetica,sans-Serif" font-size="10.00">io.github.fruitcropxl.config.params.</text>
<text text-anchor="middle" x="766" y="-79" font-family="Helvetica,sans-Serif" font-size="10.00">Parameter.getDoubleType</text>
</a>
</g>
</g>
<!-- Node3&#45;&gt;Node4 -->
<g id="edge3_Node000003_Node000004" class="edge">
<title>Node3&#45;&gt;Node4</title>
<g id="a_edge3_Node000003_Node000004"><a xlink:title=" ">
<path fill="none" stroke="#63b8ff" d="M636.18,-73.07C644.63,-73.99 653.21,-74.91 661.73,-75.84"/>
<polygon fill="#63b8ff" stroke="#63b8ff" points="661.38,-79.32 671.7,-76.91 662.13,-72.36 661.38,-79.32"/>
</a>
</g>
</g>
<!-- Node5 -->
<g id="Node000005" class="node">
<title>Node5</title>
<g id="a_Node000005"><a xlink:href="classio_1_1github_1_1fruitcropxl_1_1config_1_1params_1_1Parameter_aa989e0ad581b0dc655b75ccbf70cb26e.html#aa989e0ad581b0dc655b75ccbf70cb26e" target="_top" xlink:title=" ">
<polygon fill="white" stroke="#666666" points="860,-54 672,-54 672,-24 860,-24 860,-54"/>
<text text-anchor="start" x="680" y="-42" font-family="Helvetica,sans-Serif" font-size="10.00">io.github.fruitcropxl.config.params.</text>
<text text-anchor="middle" x="766" y="-31" font-family="Helvetica,sans-Serif" font-size="10.00">Parameter.isNull</text>
</a>
</g>
</g>
<!-- Node3&#45;&gt;Node5 -->
<g id="edge4_Node000003_Node000005" class="edge">
<title>Node3&#45;&gt;Node5</title>
<g id="a_edge4_Node000003_Node000005"><a xlink:title=" ">
<path fill="none" stroke="#63b8ff" d="M636.18,-52.93C644.63,-52.01 653.21,-51.09 661.73,-50.16"/>
<polygon fill="#63b8ff" stroke="#63b8ff" points="662.13,-53.64 671.7,-49.09 661.38,-46.68 662.13,-53.64"/>
</a>
</g>
</g>
</g>
</svg>
