<?xml version="1.0" encoding="UTF-8" standalone="no"?>
<!DOCTYPE svg PUBLIC "-//W3C//DTD SVG 1.1//EN"
 "http://www.w3.org/Graphics/SVG/1.1/DTD/svg11.dtd">
<!-- Generated by graphviz version 2.43.0 (0)
 -->
<!-- Title: fspm.config.params.structures.CategoryStore.parse Pages: 1 -->
<svg width="623pt" height="88pt"
 viewBox="0.00 0.00 623.00 88.00" xmlns="http://www.w3.org/2000/svg" xmlns:xlink="http://www.w3.org/1999/xlink">
<g id="graph0" class="graph" transform="scale(1 1) rotate(0) translate(4 84)">
<title>fspm.config.params.structures.CategoryStore.parse</title>
<!-- Node1 -->
<g id="node1" class="node">
<title>Node1</title>
<g id="a_node1"><a xlink:title=" ">
<polygon fill="#bfbfbf" stroke="black" points="447,-24.5 447,-54.5 615,-54.5 615,-24.5 447,-24.5"/>
<text text-anchor="start" x="455" y="-42.5" font-family="Helvetica,sans-Serif" font-size="10.00">fspm.config.params.structures.</text>
<text text-anchor="middle" x="531" y="-31.5" font-family="Helvetica,sans-Serif" font-size="10.00">CategoryStore.parse</text>
</a>
</g>
</g>
<!-- Node2 -->
<g id="node2" class="node">
<title>Node2</title>
<g id="a_node2"><a xlink:href="classfspm_1_1config_1_1params_1_1groups_1_1DocumentCategoryNameGroup_a83d422ab7ad1e384663d9b5e1e02a339.html#a83d422ab7ad1e384663d9b5e1e02a339" target="_top" xlink:title=" ">
<polygon fill="none" stroke="black" points="195,-49.5 195,-79.5 395,-79.5 395,-49.5 195,-49.5"/>
<text text-anchor="start" x="203" y="-67.5" font-family="Helvetica,sans-Serif" font-size="10.00">fspm.config.params.groups.</text>
<text text-anchor="middle" x="295" y="-56.5" font-family="Helvetica,sans-Serif" font-size="10.00">DocumentCategoryNameGroup.parse</text>
</a>
</g>
</g>
<!-- Node1&#45;&gt;Node2 -->
<g id="edge1" class="edge">
<title>Node1&#45;&gt;Node2</title>
<path fill="none" stroke="midnightblue" d="M436.56,-49.48C422.99,-50.93 408.98,-52.43 395.3,-53.89"/>
<polygon fill="midnightblue" stroke="midnightblue" points="437.27,-52.93 446.84,-48.38 436.53,-45.97 437.27,-52.93"/>
</g>
<!-- Node4 -->
<g id="node4" class="node">
<title>Node4</title>
<g id="a_node4"><a xlink:href="classfspm_1_1config_1_1params_1_1groups_1_1DocumentHybridCategoryNameGroup_acd5745a400ce830e7f0c66532ba6b991.html#acd5745a400ce830e7f0c66532ba6b991" target="_top" xlink:title=" ">
<polygon fill="none" stroke="black" points="179,-0.5 179,-30.5 411,-30.5 411,-0.5 179,-0.5"/>
<text text-anchor="start" x="187" y="-18.5" font-family="Helvetica,sans-Serif" font-size="10.00">fspm.config.params.groups.</text>
<text text-anchor="middle" x="295" y="-7.5" font-family="Helvetica,sans-Serif" font-size="10.00">DocumentHybridCategoryNameGroup.parse</text>
</a>
</g>
</g>
<!-- Node1&#45;&gt;Node4 -->
<g id="edge3" class="edge">
<title>Node1&#45;&gt;Node4</title>
<path fill="none" stroke="midnightblue" d="M436.71,-29.93C428.32,-29.07 419.77,-28.19 411.22,-27.32"/>
<polygon fill="midnightblue" stroke="midnightblue" points="436.54,-33.43 446.84,-30.97 437.25,-26.47 436.54,-33.43"/>
</g>
<!-- Node3 -->
<g id="node3" class="node">
<title>Node3</title>
<g id="a_node3"><a xlink:href="classfspm_1_1config_1_1adapters_1_1JsonFileReader_a66baa6fc9e08972e7a71cac73d560312.html#a66baa6fc9e08972e7a71cac73d560312" target="_top" xlink:title="Parses and returns a ParamGroup with the parameter contents of the provided file.">
<polygon fill="none" stroke="black" points="0,-24.5 0,-54.5 143,-54.5 143,-24.5 0,-24.5"/>
<text text-anchor="start" x="8" y="-42.5" font-family="Helvetica,sans-Serif" font-size="10.00">fspm.config.adapters.Json</text>
<text text-anchor="middle" x="71.5" y="-31.5" font-family="Helvetica,sans-Serif" font-size="10.00">FileReader.parse</text>
</a>
</g>
</g>
<!-- Node2&#45;&gt;Node3 -->
<g id="edge2" class="edge">
<title>Node2&#45;&gt;Node3</title>
<path fill="none" stroke="midnightblue" d="M184.69,-52.16C170.62,-50.57 156.53,-48.98 143.31,-47.49"/>
<polygon fill="midnightblue" stroke="midnightblue" points="184.58,-55.67 194.91,-53.32 185.37,-48.72 184.58,-55.67"/>
</g>
<!-- Node4&#45;&gt;Node3 -->
<g id="edge4" class="edge">
<title>Node4&#45;&gt;Node3</title>
<path fill="none" stroke="midnightblue" d="M168.54,-29.09C159.91,-30.03 151.41,-30.95 143.24,-31.84"/>
<polygon fill="midnightblue" stroke="midnightblue" points="169.14,-32.55 178.71,-27.99 168.39,-25.59 169.14,-32.55"/>
</g>
</g>
</svg>
