<?xml version="1.0" encoding="UTF-8" standalone="no"?>
<!DOCTYPE svg PUBLIC "-//W3C//DTD SVG 1.1//EN"
 "http://www.w3.org/Graphics/SVG/1.1/DTD/svg11.dtd">
<!-- Generated by graphviz version 2.43.0 (0)
 -->
<!-- Title: fspm.config.adapters.JsonFileReader.getTreeFromFile Pages: 1 -->
<svg width="812pt" height="162pt"
 viewBox="0.00 0.00 812.00 162.09" xmlns="http://www.w3.org/2000/svg" xmlns:xlink="http://www.w3.org/1999/xlink">
<g id="graph0" class="graph" transform="scale(1 1) rotate(0) translate(4 158.09)">
<title>fspm.config.adapters.JsonFileReader.getTreeFromFile</title>
<!-- Node1 -->
<g id="node1" class="node">
<title>Node1</title>
<g id="a_node1"><a xlink:title="Helper function for getting root/tree node from a JSON file.">
<polygon fill="#bfbfbf" stroke="black" points="655,-73.5 655,-103.5 804,-103.5 804,-73.5 655,-73.5"/>
<text text-anchor="start" x="663" y="-91.5" font-family="Helvetica,sans-Serif" font-size="10.00">fspm.config.adapters.Json</text>
<text text-anchor="middle" x="729.5" y="-80.5" font-family="Helvetica,sans-Serif" font-size="10.00">FileReader.getTreeFromFile</text>
</a>
</g>
</g>
<!-- Node2 -->
<g id="node2" class="node">
<title>Node2</title>
<g id="a_node2"><a xlink:href="classfspm_1_1config_1_1adapters_1_1JsonFileReader_a66baa6fc9e08972e7a71cac73d560312.html#a66baa6fc9e08972e7a71cac73d560312" target="_top" xlink:title="Parses and returns a ParamGroup with the parameter contents of the provided file.">
<polygon fill="none" stroke="black" points="0,-73.5 0,-103.5 143,-103.5 143,-73.5 0,-73.5"/>
<text text-anchor="start" x="8" y="-91.5" font-family="Helvetica,sans-Serif" font-size="10.00">fspm.config.adapters.Json</text>
<text text-anchor="middle" x="71.5" y="-80.5" font-family="Helvetica,sans-Serif" font-size="10.00">FileReader.parse</text>
</a>
</g>
</g>
<!-- Node1&#45;&gt;Node2 -->
<g id="edge1" class="edge">
<title>Node1&#45;&gt;Node2</title>
<path fill="none" stroke="midnightblue" d="M667.61,-106.14C565.4,-133.06 353.41,-177.4 179,-138.5 149.1,-131.83 117.67,-115.81 96.78,-103.69"/>
<polygon fill="midnightblue" stroke="midnightblue" points="668.69,-109.47 677.45,-103.51 666.88,-102.71 668.69,-109.47"/>
</g>
<!-- Node3 -->
<g id="node3" class="node">
<title>Node3</title>
<g id="a_node3"><a xlink:href="classfspm_1_1config_1_1adapters_1_1handlers_1_1DictionaryHandler_a55603453bc56522c2b8dd6c98c0f6d0c.html#a55603453bc56522c2b8dd6c98c0f6d0c" target="_top" xlink:title=" ">
<polygon fill="none" stroke="black" points="215.5,-98.5 215.5,-128.5 382.5,-128.5 382.5,-98.5 215.5,-98.5"/>
<text text-anchor="start" x="223.5" y="-116.5" font-family="Helvetica,sans-Serif" font-size="10.00">fspm.config.adapters.handlers.</text>
<text text-anchor="middle" x="299" y="-105.5" font-family="Helvetica,sans-Serif" font-size="10.00">DictionaryHandler.parse</text>
</a>
</g>
</g>
<!-- Node1&#45;&gt;Node3 -->
<g id="edge2" class="edge">
<title>Node1&#45;&gt;Node3</title>
<path fill="none" stroke="midnightblue" d="M644.85,-93.38C569.06,-97.8 458.02,-104.28 382.57,-108.68"/>
<polygon fill="midnightblue" stroke="midnightblue" points="645.06,-96.87 654.84,-92.8 644.65,-89.89 645.06,-96.87"/>
</g>
<!-- Node4 -->
<g id="node4" class="node">
<title>Node4</title>
<g id="a_node4"><a xlink:href="classfspm_1_1config_1_1params_1_1hierarchy_1_1CategoryHierarchy_ace6e5895f31f542bd87cd5b9650577b8.html#ace6e5895f31f542bd87cd5b9650577b8" target="_top" xlink:title=" ">
<polygon fill="none" stroke="black" points="455,-49.5 455,-79.5 619,-79.5 619,-49.5 455,-49.5"/>
<text text-anchor="start" x="463" y="-67.5" font-family="Helvetica,sans-Serif" font-size="10.00">fspm.config.params.hierarchy.</text>
<text text-anchor="middle" x="537" y="-56.5" font-family="Helvetica,sans-Serif" font-size="10.00">CategoryHierarchy.parse</text>
</a>
</g>
</g>
<!-- Node1&#45;&gt;Node4 -->
<g id="edge4" class="edge">
<title>Node1&#45;&gt;Node4</title>
<path fill="none" stroke="midnightblue" d="M644.86,-77.96C636.29,-76.88 627.59,-75.79 619.05,-74.71"/>
<polygon fill="midnightblue" stroke="midnightblue" points="644.49,-81.44 654.85,-79.22 645.36,-74.5 644.49,-81.44"/>
</g>
<!-- Node7 -->
<g id="node7" class="node">
<title>Node7</title>
<g id="a_node7"><a xlink:href="classfspm_1_1config_1_1params_1_1hierarchy_1_1TableHierarchy_a43301537b61d4e184566f4518c9c8bc7.html#a43301537b61d4e184566f4518c9c8bc7" target="_top" xlink:title=" ">
<polygon fill="none" stroke="black" points="455,-0.5 455,-30.5 619,-30.5 619,-0.5 455,-0.5"/>
<text text-anchor="start" x="463" y="-18.5" font-family="Helvetica,sans-Serif" font-size="10.00">fspm.config.params.hierarchy.</text>
<text text-anchor="middle" x="537" y="-7.5" font-family="Helvetica,sans-Serif" font-size="10.00">TableHierarchy.parse</text>
</a>
</g>
</g>
<!-- Node1&#45;&gt;Node7 -->
<g id="edge9" class="edge">
<title>Node1&#45;&gt;Node7</title>
<path fill="none" stroke="midnightblue" d="M688.75,-69.18C668.19,-59.58 642.54,-48.21 619,-39.5 610.47,-36.34 601.32,-33.31 592.36,-30.52"/>
<polygon fill="midnightblue" stroke="midnightblue" points="687.27,-72.35 697.8,-73.45 690.25,-66.02 687.27,-72.35"/>
</g>
<!-- Node3&#45;&gt;Node2 -->
<g id="edge3" class="edge">
<title>Node3&#45;&gt;Node2</title>
<path fill="none" stroke="midnightblue" d="M205.24,-103.22C184.55,-100.92 162.94,-98.53 143.3,-96.35"/>
<polygon fill="midnightblue" stroke="midnightblue" points="204.99,-106.71 215.31,-104.33 205.76,-99.75 204.99,-106.71"/>
</g>
<!-- Node5 -->
<g id="node5" class="node">
<title>Node5</title>
<g id="a_node5"><a xlink:href="classfspm_1_1config_1_1adapters_1_1handlers_1_1DocumentCategoryNameHandler_a14c971bed31f4417a5cf1b7341971fff.html#a14c971bed31f4417a5cf1b7341971fff" target="_top" xlink:title=" ">
<polygon fill="none" stroke="black" points="195,-49.5 195,-79.5 403,-79.5 403,-49.5 195,-49.5"/>
<text text-anchor="start" x="203" y="-67.5" font-family="Helvetica,sans-Serif" font-size="10.00">fspm.config.adapters.handlers.</text>
<text text-anchor="middle" x="299" y="-56.5" font-family="Helvetica,sans-Serif" font-size="10.00">DocumentCategoryNameHandler.parse</text>
</a>
</g>
</g>
<!-- Node4&#45;&gt;Node5 -->
<g id="edge5" class="edge">
<title>Node4&#45;&gt;Node5</title>
<path fill="none" stroke="midnightblue" d="M444.5,-64.5C430.92,-64.5 416.84,-64.5 403.04,-64.5"/>
<polygon fill="midnightblue" stroke="midnightblue" points="444.78,-68 454.78,-64.5 444.78,-61 444.78,-68"/>
</g>
<!-- Node6 -->
<g id="node6" class="node">
<title>Node6</title>
<g id="a_node6"><a xlink:href="classfspm_1_1config_1_1adapters_1_1handlers_1_1DocumentHybridCategoryNameHandler_a2f0e1a530f1048eeabf572e5108cd1f1.html#a2f0e1a530f1048eeabf572e5108cd1f1" target="_top" xlink:title=" ">
<polygon fill="none" stroke="black" points="179,-0.5 179,-30.5 419,-30.5 419,-0.5 179,-0.5"/>
<text text-anchor="start" x="187" y="-18.5" font-family="Helvetica,sans-Serif" font-size="10.00">fspm.config.adapters.handlers.</text>
<text text-anchor="middle" x="299" y="-7.5" font-family="Helvetica,sans-Serif" font-size="10.00">DocumentHybridCategoryNameHandler.parse</text>
</a>
</g>
</g>
<!-- Node4&#45;&gt;Node6 -->
<g id="edge7" class="edge">
<title>Node4&#45;&gt;Node6</title>
<path fill="none" stroke="midnightblue" d="M456.46,-47.38C443.93,-44.71 431.12,-42.02 419,-39.5 404.86,-36.56 389.77,-33.48 375.25,-30.54"/>
<polygon fill="midnightblue" stroke="midnightblue" points="455.92,-50.84 466.43,-49.5 457.37,-43.99 455.92,-50.84"/>
</g>
<!-- Node5&#45;&gt;Node2 -->
<g id="edge6" class="edge">
<title>Node5&#45;&gt;Node2</title>
<path fill="none" stroke="midnightblue" d="M184.54,-76.58C170.4,-78.08 156.28,-79.58 143.06,-80.99"/>
<polygon fill="midnightblue" stroke="midnightblue" points="185.25,-80.02 194.82,-75.48 184.5,-73.06 185.25,-80.02"/>
</g>
<!-- Node6&#45;&gt;Node2 -->
<g id="edge8" class="edge">
<title>Node6&#45;&gt;Node2</title>
<path fill="none" stroke="midnightblue" d="M201.51,-32.96C193.84,-34.96 186.26,-37.13 179,-39.5 151.52,-48.46 121.76,-62.55 100.7,-73.33"/>
<polygon fill="midnightblue" stroke="midnightblue" points="202.41,-36.35 211.27,-30.54 200.72,-29.56 202.41,-36.35"/>
</g>
<!-- Node7&#45;&gt;Node6 -->
<g id="edge10" class="edge">
<title>Node7&#45;&gt;Node6</title>
<path fill="none" stroke="midnightblue" d="M444.72,-15.5C436.39,-15.5 427.87,-15.5 419.33,-15.5"/>
<polygon fill="midnightblue" stroke="midnightblue" points="444.78,-19 454.78,-15.5 444.78,-12 444.78,-19"/>
</g>
</g>
</svg>
