<?xml version="1.0" encoding="UTF-8" standalone="no"?>
<!DOCTYPE svg PUBLIC "-//W3C//DTD SVG 1.1//EN"
 "http://www.w3.org/Graphics/SVG/1.1/DTD/svg11.dtd">
<!-- Generated by graphviz version 2.43.0 (0)
 -->
<!-- Title: io.github.fruitcropxl.config.params.ParamCategory.getArray Pages: 1 -->
<svg width="746pt" height="686pt"
 viewBox="0.00 0.00 746.00 686.00" xmlns="http://www.w3.org/2000/svg" xmlns:xlink="http://www.w3.org/1999/xlink">
<g id="graph0" class="graph" transform="scale(1 1) rotate(0) translate(4 682)">
<title>io.github.fruitcropxl.config.params.ParamCategory.getArray</title>
<!-- Node1 -->
<g id="Node000001" class="node">
<title>Node1</title>
<g id="a_Node000001"><a xlink:title=" ">
<polygon fill="#999999" stroke="#666666" points="738,-270 550,-270 550,-240 738,-240 738,-270"/>
<text text-anchor="start" x="558" y="-258" font-family="Helvetica,sans-Serif" font-size="10.00">io.github.fruitcropxl.config.params.</text>
<text text-anchor="middle" x="644" y="-247" font-family="Helvetica,sans-Serif" font-size="10.00">ParamCategory.getArray</text>
</a>
</g>
</g>
<!-- Node2 -->
<g id="Node000002" class="node">
<title>Node2</title>
<g id="a_Node000002"><a xlink:href="classio_1_1github_1_1fruitcropxl_1_1config_1_1params_1_1structures_1_1CategoryStore_a67390ee277336b6472d8ec095298f722.html#a67390ee277336b6472d8ec095298f722" target="_top" xlink:title=" ">
<polygon fill="white" stroke="#666666" points="514,-510 275,-510 275,-480 514,-480 514,-510"/>
<text text-anchor="start" x="283" y="-498" font-family="Helvetica,sans-Serif" font-size="10.00">io.github.fruitcropxl.config.params.structures.</text>
<text text-anchor="middle" x="394.5" y="-487" font-family="Helvetica,sans-Serif" font-size="10.00">CategoryStore.getArray</text>
</a>
</g>
</g>
<!-- Node1&#45;&gt;Node2 -->
<g id="edge1_Node000001_Node000002" class="edge">
<title>Node1&#45;&gt;Node2</title>
<g id="a_edge1_Node000001_Node000002"><a xlink:title=" ">
<path fill="none" stroke="#63b8ff" d="M635.58,-279.97C620.61,-325.7 582.29,-422.64 514,-471 509.2,-474.4 504.04,-477.34 498.64,-479.88"/>
<polygon fill="#63b8ff" stroke="#63b8ff" points="638.97,-280.85 638.65,-270.26 632.3,-278.73 638.97,-280.85"/>
</a>
</g>
</g>
<!-- Node11 -->
<g id="Node000011" class="node">
<title>Node11</title>
<g id="a_Node000011"><a xlink:href="classio_1_1github_1_1fruitcropxl_1_1config_1_1params_1_1ParamCategory_af59b1d417f8e3f90df5148c96b8faf43.html#af59b1d417f8e3f90df5148c96b8faf43" target="_top" xlink:title=" ">
<polygon fill="white" stroke="#666666" points="488.5,-462 300.5,-462 300.5,-432 488.5,-432 488.5,-462"/>
<text text-anchor="start" x="308.5" y="-450" font-family="Helvetica,sans-Serif" font-size="10.00">io.github.fruitcropxl.config.params.</text>
<text text-anchor="middle" x="394.5" y="-439" font-family="Helvetica,sans-Serif" font-size="10.00">ParamCategory.getArray</text>
</a>
</g>
</g>
<!-- Node1&#45;&gt;Node11 -->
<g id="edge10_Node000001_Node000011" class="edge">
<title>Node1&#45;&gt;Node11</title>
<g id="a_edge10_Node000001_Node000011"><a xlink:title=" ">
<path fill="none" stroke="#63b8ff" d="M631.62,-279.14C612.75,-316.38 571.28,-387.26 514,-423 506.16,-427.89 497.52,-431.81 488.58,-434.94"/>
<polygon fill="#63b8ff" stroke="#63b8ff" points="634.84,-280.53 636.14,-270.01 628.57,-277.42 634.84,-280.53"/>
</a>
</g>
</g>
<!-- Node12 -->
<g id="Node000012" class="node">
<title>Node12</title>
<g id="a_Node000012"><a xlink:href="classio_1_1github_1_1fruitcropxl_1_1config_1_1params_1_1structures_1_1CategoryStore_ac6258c35307415d9c7adeaeeab4095fb.html#ac6258c35307415d9c7adeaeeab4095fb" target="_top" xlink:title=" ">
<polygon fill="white" stroke="#666666" points="514,-414 275,-414 275,-384 514,-384 514,-414"/>
<text text-anchor="start" x="283" y="-402" font-family="Helvetica,sans-Serif" font-size="10.00">io.github.fruitcropxl.config.params.structures.</text>
<text text-anchor="middle" x="394.5" y="-391" font-family="Helvetica,sans-Serif" font-size="10.00">CategoryStore.getArray</text>
</a>
</g>
</g>
<!-- Node1&#45;&gt;Node12 -->
<g id="edge11_Node000001_Node000012" class="edge">
<title>Node1&#45;&gt;Node12</title>
<g id="a_edge11_Node000001_Node000012"><a xlink:title=" ">
<path fill="none" stroke="#63b8ff" d="M624.92,-278.3C602.15,-305.92 560.36,-351.19 514,-375 507.28,-378.45 500.1,-381.41 492.74,-383.94"/>
<polygon fill="#63b8ff" stroke="#63b8ff" points="627.79,-280.32 631.36,-270.34 622.35,-275.91 627.79,-280.32"/>
</a>
</g>
</g>
<!-- Node13 -->
<g id="Node000013" class="node">
<title>Node13</title>
<g id="a_Node000013"><a xlink:href="classio_1_1github_1_1fruitcropxl_1_1config_1_1params_1_1ParamCategory_aaf8155a895956c8317c04e6a7c4cc516.html#aaf8155a895956c8317c04e6a7c4cc516" target="_top" xlink:title=" ">
<polygon fill="white" stroke="#666666" points="488.5,-366 300.5,-366 300.5,-336 488.5,-336 488.5,-366"/>
<text text-anchor="start" x="308.5" y="-354" font-family="Helvetica,sans-Serif" font-size="10.00">io.github.fruitcropxl.config.params.</text>
<text text-anchor="middle" x="394.5" y="-343" font-family="Helvetica,sans-Serif" font-size="10.00">ParamCategory.getBooleanArray</text>
</a>
</g>
</g>
<!-- Node1&#45;&gt;Node13 -->
<g id="edge12_Node000001_Node000013" class="edge">
<title>Node1&#45;&gt;Node13</title>
<g id="a_edge12_Node000001_Node000013"><a xlink:title=" ">
<path fill="none" stroke="#63b8ff" d="M612.29,-275.73C586.95,-291.94 549.5,-313.86 514,-327 504.75,-330.42 494.9,-333.4 484.98,-335.98"/>
<polygon fill="#63b8ff" stroke="#63b8ff" points="614.25,-278.64 620.73,-270.26 610.44,-272.76 614.25,-278.64"/>
</a>
</g>
</g>
<!-- Node14 -->
<g id="Node000014" class="node">
<title>Node14</title>
<g id="a_Node000014"><a xlink:href="classio_1_1github_1_1fruitcropxl_1_1config_1_1params_1_1ParamCategory_a9b67eef8c274baaee12610d89da6ecc8.html#a9b67eef8c274baaee12610d89da6ecc8" target="_top" xlink:title=" ">
<polygon fill="white" stroke="#666666" points="488.5,-318 300.5,-318 300.5,-288 488.5,-288 488.5,-318"/>
<text text-anchor="start" x="308.5" y="-306" font-family="Helvetica,sans-Serif" font-size="10.00">io.github.fruitcropxl.config.params.</text>
<text text-anchor="middle" x="394.5" y="-295" font-family="Helvetica,sans-Serif" font-size="10.00">ParamCategory.getBooleanArray</text>
</a>
</g>
</g>
<!-- Node1&#45;&gt;Node14 -->
<g id="edge13_Node000001_Node000014" class="edge">
<title>Node1&#45;&gt;Node14</title>
<g id="a_edge13_Node000001_Node000014"><a xlink:title=" ">
<path fill="none" stroke="#63b8ff" d="M555.2,-272.03C528.33,-277.24 498.98,-282.93 472.86,-288"/>
<polygon fill="#63b8ff" stroke="#63b8ff" points="556.22,-275.4 565.37,-270.06 554.89,-268.52 556.22,-275.4"/>
</a>
</g>
</g>
<!-- Node15 -->
<g id="Node000015" class="node">
<title>Node15</title>
<g id="a_Node000015"><a xlink:href="classio_1_1github_1_1fruitcropxl_1_1config_1_1params_1_1ParamCategory_a082992e09866698509ecf8d4852be693.html#a082992e09866698509ecf8d4852be693" target="_top" xlink:title=" ">
<polygon fill="white" stroke="#666666" points="488.5,-270 300.5,-270 300.5,-240 488.5,-240 488.5,-270"/>
<text text-anchor="start" x="308.5" y="-258" font-family="Helvetica,sans-Serif" font-size="10.00">io.github.fruitcropxl.config.params.</text>
<text text-anchor="middle" x="394.5" y="-247" font-family="Helvetica,sans-Serif" font-size="10.00">ParamCategory.getDoubleArray</text>
</a>
</g>
</g>
<!-- Node1&#45;&gt;Node15 -->
<g id="edge14_Node000001_Node000015" class="edge">
<title>Node1&#45;&gt;Node15</title>
<g id="a_edge14_Node000001_Node000015"><a xlink:title=" ">
<path fill="none" stroke="#63b8ff" d="M539.38,-255C522.54,-255 505.2,-255 488.63,-255"/>
<polygon fill="#63b8ff" stroke="#63b8ff" points="539.78,-258.5 549.78,-255 539.78,-251.5 539.78,-258.5"/>
</a>
</g>
</g>
<!-- Node16 -->
<g id="Node000016" class="node">
<title>Node16</title>
<g id="a_Node000016"><a xlink:href="classio_1_1github_1_1fruitcropxl_1_1config_1_1params_1_1ParamCategory_a1bbc211bcd60c919616d9845d292b472.html#a1bbc211bcd60c919616d9845d292b472" target="_top" xlink:title=" ">
<polygon fill="white" stroke="#666666" points="488.5,-222 300.5,-222 300.5,-192 488.5,-192 488.5,-222"/>
<text text-anchor="start" x="308.5" y="-210" font-family="Helvetica,sans-Serif" font-size="10.00">io.github.fruitcropxl.config.params.</text>
<text text-anchor="middle" x="394.5" y="-199" font-family="Helvetica,sans-Serif" font-size="10.00">ParamCategory.getDoubleArray</text>
</a>
</g>
</g>
<!-- Node1&#45;&gt;Node16 -->
<g id="edge15_Node000001_Node000016" class="edge">
<title>Node1&#45;&gt;Node16</title>
<g id="a_edge15_Node000001_Node000016"><a xlink:title=" ">
<path fill="none" stroke="#63b8ff" d="M555.2,-237.97C528.33,-232.76 498.98,-227.07 472.86,-222"/>
<polygon fill="#63b8ff" stroke="#63b8ff" points="554.89,-241.48 565.37,-239.94 556.22,-234.6 554.89,-241.48"/>
</a>
</g>
</g>
<!-- Node17 -->
<g id="Node000017" class="node">
<title>Node17</title>
<g id="a_Node000017"><a xlink:href="classio_1_1github_1_1fruitcropxl_1_1config_1_1params_1_1ParamCategory_a90e58112bcc533598bb9f1a73e9d4d5d.html#a90e58112bcc533598bb9f1a73e9d4d5d" target="_top" xlink:title=" ">
<polygon fill="white" stroke="#666666" points="488.5,-174 300.5,-174 300.5,-144 488.5,-144 488.5,-174"/>
<text text-anchor="start" x="308.5" y="-162" font-family="Helvetica,sans-Serif" font-size="10.00">io.github.fruitcropxl.config.params.</text>
<text text-anchor="middle" x="394.5" y="-151" font-family="Helvetica,sans-Serif" font-size="10.00">ParamCategory.getIntegerArray</text>
</a>
</g>
</g>
<!-- Node1&#45;&gt;Node17 -->
<g id="edge16_Node000001_Node000017" class="edge">
<title>Node1&#45;&gt;Node17</title>
<g id="a_edge16_Node000001_Node000017"><a xlink:title=" ">
<path fill="none" stroke="#63b8ff" d="M612.29,-234.27C586.95,-218.06 549.5,-196.14 514,-183 504.75,-179.58 494.9,-176.6 484.98,-174.02"/>
<polygon fill="#63b8ff" stroke="#63b8ff" points="610.44,-237.24 620.73,-239.74 614.25,-231.36 610.44,-237.24"/>
</a>
</g>
</g>
<!-- Node18 -->
<g id="Node000018" class="node">
<title>Node18</title>
<g id="a_Node000018"><a xlink:href="classio_1_1github_1_1fruitcropxl_1_1config_1_1params_1_1ParamCategory_a5dcc6f9b68264d7527c4934201912002.html#a5dcc6f9b68264d7527c4934201912002" target="_top" xlink:title=" ">
<polygon fill="white" stroke="#666666" points="488.5,-126 300.5,-126 300.5,-96 488.5,-96 488.5,-126"/>
<text text-anchor="start" x="308.5" y="-114" font-family="Helvetica,sans-Serif" font-size="10.00">io.github.fruitcropxl.config.params.</text>
<text text-anchor="middle" x="394.5" y="-103" font-family="Helvetica,sans-Serif" font-size="10.00">ParamCategory.getIntegerArray</text>
</a>
</g>
</g>
<!-- Node1&#45;&gt;Node18 -->
<g id="edge17_Node000001_Node000018" class="edge">
<title>Node1&#45;&gt;Node18</title>
<g id="a_edge17_Node000001_Node000018"><a xlink:title=" ">
<path fill="none" stroke="#63b8ff" d="M624.92,-231.7C602.15,-204.08 560.36,-158.81 514,-135 506.06,-130.92 497.5,-127.54 488.73,-124.73"/>
<polygon fill="#63b8ff" stroke="#63b8ff" points="622.35,-234.09 631.36,-239.66 627.79,-229.68 622.35,-234.09"/>
</a>
</g>
</g>
<!-- Node19 -->
<g id="Node000019" class="node">
<title>Node19</title>
<g id="a_Node000019"><a xlink:href="classio_1_1github_1_1fruitcropxl_1_1config_1_1params_1_1ParamCategory_aee6721bdcb2d4ff2ec2142f2845a0065.html#aee6721bdcb2d4ff2ec2142f2845a0065" target="_top" xlink:title=" ">
<polygon fill="white" stroke="#666666" points="488.5,-78 300.5,-78 300.5,-48 488.5,-48 488.5,-78"/>
<text text-anchor="start" x="308.5" y="-66" font-family="Helvetica,sans-Serif" font-size="10.00">io.github.fruitcropxl.config.params.</text>
<text text-anchor="middle" x="394.5" y="-55" font-family="Helvetica,sans-Serif" font-size="10.00">ParamCategory.getStringArray</text>
</a>
</g>
</g>
<!-- Node1&#45;&gt;Node19 -->
<g id="edge18_Node000001_Node000019" class="edge">
<title>Node1&#45;&gt;Node19</title>
<g id="a_edge18_Node000001_Node000019"><a xlink:title=" ">
<path fill="none" stroke="#63b8ff" d="M631.62,-230.86C612.75,-193.62 571.28,-122.74 514,-87 506.16,-82.11 497.52,-78.19 488.58,-75.06"/>
<polygon fill="#63b8ff" stroke="#63b8ff" points="628.57,-232.58 636.14,-239.99 634.84,-229.47 628.57,-232.58"/>
</a>
</g>
</g>
<!-- Node20 -->
<g id="Node000020" class="node">
<title>Node20</title>
<g id="a_Node000020"><a xlink:href="classio_1_1github_1_1fruitcropxl_1_1config_1_1params_1_1ParamCategory_ae35b663298256f3b048b4e5f81ca33f3.html#ae35b663298256f3b048b4e5f81ca33f3" target="_top" xlink:title=" ">
<polygon fill="white" stroke="#666666" points="488.5,-30 300.5,-30 300.5,0 488.5,0 488.5,-30"/>
<text text-anchor="start" x="308.5" y="-18" font-family="Helvetica,sans-Serif" font-size="10.00">io.github.fruitcropxl.config.params.</text>
<text text-anchor="middle" x="394.5" y="-7" font-family="Helvetica,sans-Serif" font-size="10.00">ParamCategory.getStringArray</text>
</a>
</g>
</g>
<!-- Node1&#45;&gt;Node20 -->
<g id="edge19_Node000001_Node000020" class="edge">
<title>Node1&#45;&gt;Node20</title>
<g id="a_edge19_Node000001_Node000020"><a xlink:title=" ">
<path fill="none" stroke="#63b8ff" d="M635.58,-230.03C620.61,-184.3 582.29,-87.36 514,-39 506.29,-33.54 497.63,-29.26 488.59,-25.91"/>
<polygon fill="#63b8ff" stroke="#63b8ff" points="632.3,-231.27 638.65,-239.74 638.97,-229.15 632.3,-231.27"/>
</a>
</g>
</g>
<!-- Node3 -->
<g id="Node000003" class="node">
<title>Node3</title>
<g id="a_Node000003"><a xlink:href="classio_1_1github_1_1fruitcropxl_1_1config_1_1params_1_1structures_1_1CategoryStore_af80f30c0abf379359b59730fd50573ba.html#af80f30c0abf379359b59730fd50573ba" target="_top" xlink:title=" ">
<polygon fill="white" stroke="#666666" points="239,-678 0,-678 0,-648 239,-648 239,-678"/>
<text text-anchor="start" x="8" y="-666" font-family="Helvetica,sans-Serif" font-size="10.00">io.github.fruitcropxl.config.params.structures.</text>
<text text-anchor="middle" x="119.5" y="-655" font-family="Helvetica,sans-Serif" font-size="10.00">CategoryStore.getBooleanArray</text>
</a>
</g>
</g>
<!-- Node2&#45;&gt;Node3 -->
<g id="edge2_Node000002_Node000003" class="edge">
<title>Node2&#45;&gt;Node3</title>
<g id="a_edge2_Node000002_Node000003"><a xlink:title=" ">
<path fill="none" stroke="#63b8ff" d="M375.82,-518.1C349.65,-550.54 297.37,-608.98 239,-639 232.28,-642.46 225.11,-645.41 217.74,-647.95"/>
<polygon fill="#63b8ff" stroke="#63b8ff" points="378.72,-520.07 382.19,-510.06 373.24,-515.72 378.72,-520.07"/>
</a>
</g>
</g>
<!-- Node4 -->
<g id="Node000004" class="node">
<title>Node4</title>
<g id="a_Node000004"><a xlink:href="classio_1_1github_1_1fruitcropxl_1_1config_1_1params_1_1structures_1_1CategoryStore_a3f20ca6dad620b86d619f5f913d54c1b.html#a3f20ca6dad620b86d619f5f913d54c1b" target="_top" xlink:title=" ">
<polygon fill="white" stroke="#666666" points="239,-630 0,-630 0,-600 239,-600 239,-630"/>
<text text-anchor="start" x="8" y="-618" font-family="Helvetica,sans-Serif" font-size="10.00">io.github.fruitcropxl.config.params.structures.</text>
<text text-anchor="middle" x="119.5" y="-607" font-family="Helvetica,sans-Serif" font-size="10.00">CategoryStore.getBooleanArray</text>
</a>
</g>
</g>
<!-- Node2&#45;&gt;Node4 -->
<g id="edge3_Node000002_Node000004" class="edge">
<title>Node2&#45;&gt;Node4</title>
<g id="a_edge3_Node000002_Node000004"><a xlink:title=" ">
<path fill="none" stroke="#63b8ff" d="M366.04,-516.32C336.35,-538.32 286.82,-572.02 239,-591 230.32,-594.45 221.07,-597.42 211.73,-599.98"/>
<polygon fill="#63b8ff" stroke="#63b8ff" points="368.34,-518.97 374.24,-510.17 364.14,-513.37 368.34,-518.97"/>
</a>
</g>
</g>
<!-- Node5 -->
<g id="Node000005" class="node">
<title>Node5</title>
<g id="a_Node000005"><a xlink:href="classio_1_1github_1_1fruitcropxl_1_1config_1_1params_1_1structures_1_1CategoryStore_a44f2652477aa97d9b03517bcf8d1d8b7.html#a44f2652477aa97d9b03517bcf8d1d8b7" target="_top" xlink:title=" ">
<polygon fill="white" stroke="#666666" points="239,-582 0,-582 0,-552 239,-552 239,-582"/>
<text text-anchor="start" x="8" y="-570" font-family="Helvetica,sans-Serif" font-size="10.00">io.github.fruitcropxl.config.params.structures.</text>
<text text-anchor="middle" x="119.5" y="-559" font-family="Helvetica,sans-Serif" font-size="10.00">CategoryStore.getDoubleArray</text>
</a>
</g>
</g>
<!-- Node2&#45;&gt;Node5 -->
<g id="edge4_Node000002_Node000005" class="edge">
<title>Node2&#45;&gt;Node5</title>
<g id="a_edge4_Node000002_Node000005"><a xlink:title=" ">
<path fill="none" stroke="#63b8ff" d="M339.53,-513.24C310.04,-522.84 272.74,-534.37 239,-543 226.6,-546.17 213.37,-549.2 200.43,-551.96"/>
<polygon fill="#63b8ff" stroke="#63b8ff" points="340.81,-516.51 349.22,-510.07 338.63,-509.85 340.81,-516.51"/>
</a>
</g>
</g>
<!-- Node6 -->
<g id="Node000006" class="node">
<title>Node6</title>
<g id="a_Node000006"><a xlink:href="classio_1_1github_1_1fruitcropxl_1_1config_1_1params_1_1structures_1_1CategoryStore_ad68a65330093c84406367b533bd742dc.html#ad68a65330093c84406367b533bd742dc" target="_top" xlink:title=" ">
<polygon fill="white" stroke="#666666" points="239,-534 0,-534 0,-504 239,-504 239,-534"/>
<text text-anchor="start" x="8" y="-522" font-family="Helvetica,sans-Serif" font-size="10.00">io.github.fruitcropxl.config.params.structures.</text>
<text text-anchor="middle" x="119.5" y="-511" font-family="Helvetica,sans-Serif" font-size="10.00">CategoryStore.getDoubleArray</text>
</a>
</g>
</g>
<!-- Node2&#45;&gt;Node6 -->
<g id="edge5_Node000002_Node000006" class="edge">
<title>Node2&#45;&gt;Node6</title>
<g id="a_edge5_Node000002_Node000006"><a xlink:title=" ">
<path fill="none" stroke="#63b8ff" d="M264.96,-506.3C256.42,-507.05 247.85,-507.8 239.37,-508.55"/>
<polygon fill="#63b8ff" stroke="#63b8ff" points="265.29,-509.78 274.95,-505.42 264.68,-502.81 265.29,-509.78"/>
</a>
</g>
</g>
<!-- Node7 -->
<g id="Node000007" class="node">
<title>Node7</title>
<g id="a_Node000007"><a xlink:href="classio_1_1github_1_1fruitcropxl_1_1config_1_1params_1_1structures_1_1CategoryStore_a1640aa8fbd2902ddd7341ed39783eb1e.html#a1640aa8fbd2902ddd7341ed39783eb1e" target="_top" xlink:title=" ">
<polygon fill="white" stroke="#666666" points="239,-486 0,-486 0,-456 239,-456 239,-486"/>
<text text-anchor="start" x="8" y="-474" font-family="Helvetica,sans-Serif" font-size="10.00">io.github.fruitcropxl.config.params.structures.</text>
<text text-anchor="middle" x="119.5" y="-463" font-family="Helvetica,sans-Serif" font-size="10.00">CategoryStore.getIntegerArray</text>
</a>
</g>
</g>
<!-- Node2&#45;&gt;Node7 -->
<g id="edge6_Node000002_Node000007" class="edge">
<title>Node2&#45;&gt;Node7</title>
<g id="a_edge6_Node000002_Node000007"><a xlink:title=" ">
<path fill="none" stroke="#63b8ff" d="M264.96,-483.7C256.42,-482.95 247.85,-482.2 239.37,-481.45"/>
<polygon fill="#63b8ff" stroke="#63b8ff" points="264.68,-487.19 274.95,-484.58 265.29,-480.22 264.68,-487.19"/>
</a>
</g>
</g>
<!-- Node8 -->
<g id="Node000008" class="node">
<title>Node8</title>
<g id="a_Node000008"><a xlink:href="classio_1_1github_1_1fruitcropxl_1_1config_1_1params_1_1structures_1_1CategoryStore_a33d6cd04f1d908bfe44d61824e8a9aed.html#a33d6cd04f1d908bfe44d61824e8a9aed" target="_top" xlink:title=" ">
<polygon fill="white" stroke="#666666" points="239,-438 0,-438 0,-408 239,-408 239,-438"/>
<text text-anchor="start" x="8" y="-426" font-family="Helvetica,sans-Serif" font-size="10.00">io.github.fruitcropxl.config.params.structures.</text>
<text text-anchor="middle" x="119.5" y="-415" font-family="Helvetica,sans-Serif" font-size="10.00">CategoryStore.getIntegerArray</text>
</a>
</g>
</g>
<!-- Node2&#45;&gt;Node8 -->
<g id="edge7_Node000002_Node000008" class="edge">
<title>Node2&#45;&gt;Node8</title>
<g id="a_edge7_Node000002_Node000008"><a xlink:title=" ">
<path fill="none" stroke="#63b8ff" d="M291.58,-477.08C285.9,-475.24 280.34,-473.22 275,-471 257.24,-463.62 256.76,-454.38 239,-447 230.67,-443.54 221.79,-440.56 212.78,-438"/>
<polygon fill="#63b8ff" stroke="#63b8ff" points="290.63,-480.45 301.22,-480 292.66,-473.75 290.63,-480.45"/>
</a>
</g>
</g>
<!-- Node9 -->
<g id="Node000009" class="node">
<title>Node9</title>
<g id="a_Node000009"><a xlink:href="classio_1_1github_1_1fruitcropxl_1_1config_1_1params_1_1structures_1_1CategoryStore_ac1c0346a1e128fce0e74842c375fff39.html#ac1c0346a1e128fce0e74842c375fff39" target="_top" xlink:title=" ">
<polygon fill="white" stroke="#666666" points="239,-390 0,-390 0,-360 239,-360 239,-390"/>
<text text-anchor="start" x="8" y="-378" font-family="Helvetica,sans-Serif" font-size="10.00">io.github.fruitcropxl.config.params.structures.</text>
<text text-anchor="middle" x="119.5" y="-367" font-family="Helvetica,sans-Serif" font-size="10.00">CategoryStore.getStringArray</text>
</a>
</g>
</g>
<!-- Node2&#45;&gt;Node9 -->
<g id="edge8_Node000002_Node000009" class="edge">
<title>Node2&#45;&gt;Node9</title>
<g id="a_edge8_Node000002_Node000009"><a xlink:title=" ">
<path fill="none" stroke="#63b8ff" d="M280.11,-474.62C278.36,-473.47 276.66,-472.27 275,-471 246.59,-449.25 267.41,-420.75 239,-399 234.58,-395.62 229.81,-392.68 224.81,-390.13"/>
<polygon fill="#63b8ff" stroke="#63b8ff" points="278.79,-477.9 289.19,-479.87 282.29,-471.84 278.79,-477.9"/>
</a>
</g>
</g>
<!-- Node10 -->
<g id="Node000010" class="node">
<title>Node10</title>
<g id="a_Node000010"><a xlink:href="classio_1_1github_1_1fruitcropxl_1_1config_1_1params_1_1structures_1_1CategoryStore_ab975d7039f5845cea6393d10c729989a.html#ab975d7039f5845cea6393d10c729989a" target="_top" xlink:title=" ">
<polygon fill="white" stroke="#666666" points="239,-342 0,-342 0,-312 239,-312 239,-342"/>
<text text-anchor="start" x="8" y="-330" font-family="Helvetica,sans-Serif" font-size="10.00">io.github.fruitcropxl.config.params.structures.</text>
<text text-anchor="middle" x="119.5" y="-319" font-family="Helvetica,sans-Serif" font-size="10.00">CategoryStore.getStringArray</text>
</a>
</g>
</g>
<!-- Node2&#45;&gt;Node10 -->
<g id="edge9_Node000002_Node000010" class="edge">
<title>Node2&#45;&gt;Node10</title>
<g id="a_edge9_Node000002_Node000010"><a xlink:title=" ">
<path fill="none" stroke="#63b8ff" d="M278.59,-474.06C277.36,-473.08 276.16,-472.06 275,-471 233.87,-433.47 280.13,-388.53 239,-351 235.28,-347.6 231.21,-344.63 226.9,-342.04"/>
<polygon fill="#63b8ff" stroke="#63b8ff" points="276.89,-477.14 287.1,-479.96 280.87,-471.39 276.89,-477.14"/>
</a>
</g>
</g>
</g>
</svg>
