<?xml version="1.0" encoding="UTF-8" standalone="no"?>
<!DOCTYPE svg PUBLIC "-//W3C//DTD SVG 1.1//EN"
 "http://www.w3.org/Graphics/SVG/1.1/DTD/svg11.dtd">
<!-- Generated by graphviz version 2.43.0 (0)
 -->
<!-- Title: fspm.config.params.ParamCategory.getIntegerArray Pages: 1 -->
<svg width="820pt" height="129pt"
 viewBox="0.00 0.00 820.00 129.00" xmlns="http://www.w3.org/2000/svg" xmlns:xlink="http://www.w3.org/1999/xlink">
<g id="graph0" class="graph" transform="scale(1 1) rotate(0) translate(4 125)">
<title>fspm.config.params.ParamCategory.getIntegerArray</title>
<!-- Node1 -->
<g id="node1" class="node">
<title>Node1</title>
<g id="a_node1"><a xlink:title=" ">
<polygon fill="#bfbfbf" stroke="black" points="0,-24.5 0,-54.5 147,-54.5 147,-24.5 0,-24.5"/>
<text text-anchor="start" x="8" y="-42.5" font-family="Helvetica,sans-Serif" font-size="10.00">fspm.config.params.Param</text>
<text text-anchor="middle" x="73.5" y="-31.5" font-family="Helvetica,sans-Serif" font-size="10.00">Category.getIntegerArray</text>
</a>
</g>
</g>
<!-- Node2 -->
<g id="node2" class="node">
<title>Node2</title>
<g id="a_node2"><a xlink:href="classfspm_1_1config_1_1params_1_1Parameter_a05e8bc0ef3f057f90004b4ec4b3d0efe.html#a05e8bc0ef3f057f90004b4ec4b3d0efe" target="_top" xlink:title=" ">
<polygon fill="none" stroke="black" points="183,-47.5 183,-77.5 363,-77.5 363,-47.5 183,-47.5"/>
<text text-anchor="start" x="191" y="-65.5" font-family="Helvetica,sans-Serif" font-size="10.00">fspm.config.params.Parameter.as</text>
<text text-anchor="middle" x="273" y="-54.5" font-family="Helvetica,sans-Serif" font-size="10.00">IntegerArray</text>
</a>
</g>
</g>
<!-- Node1&#45;&gt;Node2 -->
<g id="edge1" class="edge">
<title>Node1&#45;&gt;Node2</title>
<path fill="none" stroke="midnightblue" d="M147.2,-47.97C155.5,-48.93 164.07,-49.93 172.64,-50.93"/>
<polygon fill="midnightblue" stroke="midnightblue" points="172.35,-54.42 182.69,-52.1 173.16,-47.47 172.35,-54.42"/>
</g>
<!-- Node7 -->
<g id="node7" class="node">
<title>Node7</title>
<g id="a_node7"><a xlink:href="classfspm_1_1config_1_1params_1_1ParamCategory_ac81e6b98fa48fc3426eed6f60e81da5b.html#ac81e6b98fa48fc3426eed6f60e81da5b" target="_top" xlink:title="Get generic Parameter with the given key.">
<polygon fill="none" stroke="black" points="415.5,-0.5 415.5,-30.5 562.5,-30.5 562.5,-0.5 415.5,-0.5"/>
<text text-anchor="start" x="423.5" y="-18.5" font-family="Helvetica,sans-Serif" font-size="10.00">fspm.config.params.Param</text>
<text text-anchor="middle" x="489" y="-7.5" font-family="Helvetica,sans-Serif" font-size="10.00">Category.getParameter</text>
</a>
</g>
</g>
<!-- Node1&#45;&gt;Node7 -->
<g id="edge6" class="edge">
<title>Node1&#45;&gt;Node7</title>
<path fill="none" stroke="midnightblue" d="M147.47,-35.26C219.55,-31.08 329.64,-24.69 405.01,-20.32"/>
<polygon fill="midnightblue" stroke="midnightblue" points="405.63,-23.79 415.41,-19.71 405.22,-16.8 405.63,-23.79"/>
</g>
<!-- Node3 -->
<g id="node3" class="node">
<title>Node3</title>
<g id="a_node3"><a xlink:href="classfspm_1_1config_1_1params_1_1Parameter_a2dced470a20701940042f6dacad7f78e.html#a2dced470a20701940042f6dacad7f78e" target="_top" xlink:title="Generic method for getting arrays of a given type.">
<polygon fill="none" stroke="black" points="399,-49.5 399,-79.5 579,-79.5 579,-49.5 399,-49.5"/>
<text text-anchor="start" x="407" y="-67.5" font-family="Helvetica,sans-Serif" font-size="10.00">fspm.config.params.Parameter.as</text>
<text text-anchor="middle" x="489" y="-56.5" font-family="Helvetica,sans-Serif" font-size="10.00">Array</text>
</a>
</g>
</g>
<!-- Node2&#45;&gt;Node3 -->
<g id="edge2" class="edge">
<title>Node2&#45;&gt;Node3</title>
<path fill="none" stroke="midnightblue" d="M363.21,-63.33C371.7,-63.41 380.34,-63.49 388.92,-63.57"/>
<polygon fill="midnightblue" stroke="midnightblue" points="388.91,-67.07 398.94,-63.67 388.97,-60.07 388.91,-67.07"/>
</g>
<!-- Node4 -->
<g id="node4" class="node">
<title>Node4</title>
<g id="a_node4"><a xlink:href="classfspm_1_1config_1_1params_1_1Parameter_a54e9dcffe048d38566416b7bf8e09fe1.html#a54e9dcffe048d38566416b7bf8e09fe1" target="_top" xlink:title=" ">
<polygon fill="none" stroke="black" points="621,-90.5 621,-120.5 806,-120.5 806,-90.5 621,-90.5"/>
<text text-anchor="start" x="629" y="-108.5" font-family="Helvetica,sans-Serif" font-size="10.00">fspm.config.params.Parameter.get</text>
<text text-anchor="middle" x="713.5" y="-97.5" font-family="Helvetica,sans-Serif" font-size="10.00">DoubleType</text>
</a>
</g>
</g>
<!-- Node3&#45;&gt;Node4 -->
<g id="edge3" class="edge">
<title>Node3&#45;&gt;Node4</title>
<path fill="none" stroke="midnightblue" d="M571.59,-79.53C587.61,-82.49 604.52,-85.6 620.84,-88.61"/>
<polygon fill="midnightblue" stroke="midnightblue" points="620.45,-92.1 630.92,-90.47 621.72,-85.21 620.45,-92.1"/>
</g>
<!-- Node5 -->
<g id="node5" class="node">
<title>Node5</title>
<g id="a_node5"><a xlink:href="classfspm_1_1util_1_1KeyElement_a653aac67328f98c1201974736671fe0d.html#a653aac67328f98c1201974736671fe0d" target="_top" xlink:title=" ">
<polygon fill="none" stroke="black" points="634.5,-11 634.5,-30 792.5,-30 792.5,-11 634.5,-11"/>
<text text-anchor="middle" x="713.5" y="-18" font-family="Helvetica,sans-Serif" font-size="10.00">fspm.util.KeyElement.getKey</text>
</a>
</g>
</g>
<!-- Node3&#45;&gt;Node5 -->
<g id="edge4" class="edge">
<title>Node3&#45;&gt;Node5</title>
<path fill="none" stroke="midnightblue" d="M565.95,-49.48C594.86,-43.76 627.32,-37.34 654.33,-32"/>
<polygon fill="midnightblue" stroke="midnightblue" points="655.27,-35.39 664.4,-30.01 653.91,-28.52 655.27,-35.39"/>
</g>
<!-- Node6 -->
<g id="node6" class="node">
<title>Node6</title>
<g id="a_node6"><a xlink:href="classfspm_1_1config_1_1params_1_1Parameter_a2fd72835a908354fea23f92e3f3b1800.html#a2fd72835a908354fea23f92e3f3b1800" target="_top" xlink:title=" ">
<polygon fill="none" stroke="black" points="615,-52 615,-71 812,-71 812,-52 615,-52"/>
<text text-anchor="middle" x="713.5" y="-59" font-family="Helvetica,sans-Serif" font-size="10.00">fspm.config.params.Parameter.isNull</text>
</a>
</g>
</g>
<!-- Node3&#45;&gt;Node6 -->
<g id="edge5" class="edge">
<title>Node3&#45;&gt;Node6</title>
<path fill="none" stroke="midnightblue" d="M579.22,-63.3C587.65,-63.18 596.25,-63.07 604.83,-62.95"/>
<polygon fill="midnightblue" stroke="midnightblue" points="604.92,-66.45 614.87,-62.82 604.82,-59.45 604.92,-66.45"/>
</g>
<!-- Node7&#45;&gt;Node5 -->
<g id="edge7" class="edge">
<title>Node7&#45;&gt;Node5</title>
<path fill="none" stroke="midnightblue" d="M562.55,-17.13C582.18,-17.57 603.66,-18.05 624.06,-18.51"/>
<polygon fill="midnightblue" stroke="midnightblue" points="624.22,-22.02 634.3,-18.74 624.38,-15.02 624.22,-22.02"/>
</g>
</g>
</svg>
