<?xml version="1.0" encoding="UTF-8" standalone="no"?>
<!DOCTYPE svg PUBLIC "-//W3C//DTD SVG 1.1//EN"
 "http://www.w3.org/Graphics/SVG/1.1/DTD/svg11.dtd">
<!-- Generated by graphviz version 2.43.0 (0)
 -->
<!-- Title: fspm.config.ConfigTest.runMain Pages: 1 -->
<!--zoomable 420 -->
<svg id="main" version="1.1" xmlns="http://www.w3.org/2000/svg" xmlns:xlink="http://www.w3.org/1999/xlink" xml:space="preserve" onload="init(evt)">
<style type="text/css"><![CDATA[
.edge:hover path { stroke: red; }
.edge:hover polygon { stroke: red; fill: red; }
]]></style>
<script type="text/javascript"><![CDATA[
var edges = document.getElementsByTagName('g');
if (edges && edges.length) {
  for (var i=0;i<edges.length;i++) {
    if (edges[i].id.substr(0,4)=='edge') {
      edges[i].setAttribute('class','edge');
    }
  }
}
]]></script>
        <defs>
                <circle id="rim" cx="0" cy="0" r="7"/>
                <circle id="rim2" cx="0" cy="0" r="3.5"/>
                <g id="zoomPlus">
                        <use xlink:href="#rim" fill="#404040">
                                <set attributeName="fill" to="#808080" begin="zoomplus.mouseover" end="zoomplus.mouseout"/>
                        </use>
                        <path d="M-4,0h8M0,-4v8" fill="none" stroke="white" stroke-width="1.5" pointer-events="none"/>
                </g>
                <g id="zoomMin">
                        <use xlink:href="#rim" fill="#404040">
                                <set attributeName="fill" to="#808080" begin="zoomminus.mouseover" end="zoomminus.mouseout"/>
                        </use>
                        <path d="M-4,0h8" fill="none" stroke="white" stroke-width="1.5" pointer-events="none"/>
                </g>
                <g id="dirArrow">
                        <path fill="none" stroke="white" stroke-width="1.5" d="M0,-3.0v7 M-2.5,-0.5L0,-3.0L2.5,-0.5"/>
                </g>
               <g id="resetDef">
                       <use xlink:href="#rim2" fill="#404040">
                               <set attributeName="fill" to="#808080" begin="reset.mouseover" end="reset.mouseout"/>
                       </use>
               </g>
        </defs>

<script type="text/javascript">
var viewWidth = 1364;
var viewHeight = 420;
var sectionId = 'dynsection-0';
</script>
<script xlink:href="svgpan.js"/>
<svg id="graph" class="graph">
<g id="viewport">
<title>fspm.config.ConfigTest.runMain</title>
<!-- Node1 -->
<g id="node1" class="node">
<title>Node1</title>
<g id="a_node1"><a xlink:title=" ">
<polygon fill="#bfbfbf" stroke="black" points="0,-244.53 0,-263.53 170,-263.53 170,-244.53 0,-244.53"/>
<text text-anchor="middle" x="85" y="-251.53" font-family="Helvetica,sans-Serif" font-size="10.00">fspm.config.ConfigTest.runMain</text>
</a>
</g>
</g>
<!-- Node2 -->
<g id="node2" class="node">
<title>Node2</title>
<g id="a_node2"><a xlink:href="classfspm_1_1config_1_1ConfigTest_ad96b864581ccf61453d97330a34958f8.html#ad96b864581ccf61453d97330a34958f8" target="_top" xlink:title=" ">
<polygon fill="none" stroke="black" points="400,-337.03 400,-367.03 548,-367.03 548,-337.03 400,-337.03"/>
<text text-anchor="start" x="408" y="-355.03" font-family="Helvetica,sans-Serif" font-size="10.00">fspm.config.ConfigTest.add</text>
<text text-anchor="middle" x="474" y="-344.03" font-family="Helvetica,sans-Serif" font-size="10.00">Groups</text>
</a>
</g>
</g>
<!-- Node1&#45;&gt;Node2 -->
<g id="edge1" class="edge">
<title>Node1&#45;&gt;Node2</title>
<path fill="none" stroke="midnightblue" d="M123.81,-263.6C188.69,-280.03 322.13,-313.82 403.97,-334.55"/>
<polygon fill="midnightblue" stroke="midnightblue" points="403.13,-337.95 413.68,-337.01 404.85,-331.16 403.13,-337.95"/>
</g>
<!-- Node8 -->
<g id="node8" class="node">
<title>Node8</title>
<g id="a_node8"><a xlink:href="classfspm_1_1config_1_1ConfigTest_a09a38b5eee655b088e4e144df5ad5a85.html#a09a38b5eee655b088e4e144df5ad5a85" target="_top" xlink:title=" ">
<polygon fill="none" stroke="black" points="206,-217.03 206,-247.03 355,-247.03 355,-217.03 206,-217.03"/>
<text text-anchor="start" x="214" y="-235.03" font-family="Helvetica,sans-Serif" font-size="10.00">fspm.config.ConfigTest.test</text>
<text text-anchor="middle" x="280.5" y="-224.03" font-family="Helvetica,sans-Serif" font-size="10.00">_flatCategories</text>
</a>
</g>
</g>
<!-- Node1&#45;&gt;Node8 -->
<g id="edge7" class="edge">
<title>Node1&#45;&gt;Node8</title>
<path fill="none" stroke="midnightblue" d="M169.75,-244.51C178.41,-243.52 187.21,-242.52 195.88,-241.54"/>
<polygon fill="midnightblue" stroke="midnightblue" points="196.42,-245 205.96,-240.39 195.63,-238.04 196.42,-245"/>
</g>
<!-- Node3 -->
<g id="node3" class="node">
<title>Node3</title>
<g id="a_node3"><a xlink:href="classfspm_1_1config_1_1params_1_1ParamCategory_ad03625c20e319546f4f20eec30de6aba.html#ad03625c20e319546f4f20eec30de6aba" target="_top" xlink:title="Adds a new Parameter to the category.">
<polygon fill="none" stroke="black" points="598.5,-381.03 598.5,-411.03 745.5,-411.03 745.5,-381.03 598.5,-381.03"/>
<text text-anchor="start" x="606.5" y="-399.03" font-family="Helvetica,sans-Serif" font-size="10.00">fspm.config.params.Param</text>
<text text-anchor="middle" x="672" y="-388.03" font-family="Helvetica,sans-Serif" font-size="10.00">Category.add</text>
</a>
</g>
</g>
<!-- Node2&#45;&gt;Node3 -->
<g id="edge2" class="edge">
<title>Node2&#45;&gt;Node3</title>
<path fill="none" stroke="midnightblue" d="M541.9,-367.05C558.68,-370.81 576.82,-374.89 594.05,-378.75"/>
<polygon fill="midnightblue" stroke="midnightblue" points="593.54,-382.23 604.07,-381 595.07,-375.4 593.54,-382.23"/>
</g>
<!-- Node5 -->
<g id="node5" class="node">
<title>Node5</title>
<g id="a_node5"><a xlink:href="classfspm_1_1config_1_1params_1_1ParamGroup_ac83104c7751a96252a45ca014d3a7630.html#ac83104c7751a96252a45ca014d3a7630" target="_top" xlink:title="Adds a new category.">
<polygon fill="none" stroke="black" points="1026,-337.03 1026,-367.03 1173,-367.03 1173,-337.03 1026,-337.03"/>
<text text-anchor="start" x="1034" y="-355.03" font-family="Helvetica,sans-Serif" font-size="10.00">fspm.config.params.Param</text>
<text text-anchor="middle" x="1099.5" y="-344.03" font-family="Helvetica,sans-Serif" font-size="10.00">Group.addCategory</text>
</a>
</g>
</g>
<!-- Node2&#45;&gt;Node5 -->
<g id="edge4" class="edge">
<title>Node2&#45;&gt;Node5</title>
<path fill="none" stroke="midnightblue" d="M548.05,-352.03C664.87,-352.03 893.04,-352.03 1015.73,-352.03"/>
<polygon fill="midnightblue" stroke="midnightblue" points="1015.82,-355.53 1025.82,-352.03 1015.82,-348.53 1015.82,-355.53"/>
</g>
<!-- Node7 -->
<g id="node7" class="node">
<title>Node7</title>
<g id="a_node7"><a xlink:href="classfspm_1_1config_1_1Config_a42612499256e159a84e5244fcae25b31.html#a42612499256e159a84e5244fcae25b31" target="_top" xlink:title=" ">
<polygon fill="none" stroke="black" points="593,-304.53 593,-323.53 751,-323.53 751,-304.53 593,-304.53"/>
<text text-anchor="middle" x="672" y="-311.53" font-family="Helvetica,sans-Serif" font-size="10.00">fspm.config.Config.addGroup</text>
</a>
</g>
</g>
<!-- Node2&#45;&gt;Node7 -->
<g id="edge6" class="edge">
<title>Node2&#45;&gt;Node7</title>
<path fill="none" stroke="midnightblue" d="M548.26,-337.82C569.28,-333.75 591.93,-329.36 611.98,-325.47"/>
<polygon fill="midnightblue" stroke="midnightblue" points="612.74,-328.89 621.9,-323.55 611.41,-322.02 612.74,-328.89"/>
</g>
<!-- Node4 -->
<g id="node4" class="node">
<title>Node4</title>
<g id="a_node4"><a xlink:href="classfspm_1_1config_1_1params_1_1Parameter_ad5a60f676f454623b049f41637274ea6.html#ad5a60f676f454623b049f41637274ea6" target="_top" xlink:title=" ">
<polygon fill="none" stroke="black" points="787,-386.53 787,-405.53 990,-405.53 990,-386.53 787,-386.53"/>
<text text-anchor="middle" x="888.5" y="-393.53" font-family="Helvetica,sans-Serif" font-size="10.00">fspm.config.params.Parameter.getKey</text>
</a>
</g>
</g>
<!-- Node3&#45;&gt;Node4 -->
<g id="edge3" class="edge">
<title>Node3&#45;&gt;Node4</title>
<path fill="none" stroke="midnightblue" d="M745.62,-396.03C755.66,-396.03 766.15,-396.03 776.69,-396.03"/>
<polygon fill="midnightblue" stroke="midnightblue" points="776.8,-399.53 786.8,-396.03 776.8,-392.53 776.8,-399.53"/>
</g>
<!-- Node6 -->
<g id="node6" class="node">
<title>Node6</title>
<g id="a_node6"><a xlink:href="classfspm_1_1config_1_1params_1_1ParamCategory_aac7a0ce7ab7fafe895ba689f644818ab.html#aac7a0ce7ab7fafe895ba689f644818ab" target="_top" xlink:title=" ">
<polygon fill="none" stroke="black" points="1209,-288.03 1209,-318.03 1356,-318.03 1356,-288.03 1209,-288.03"/>
<text text-anchor="start" x="1217" y="-306.03" font-family="Helvetica,sans-Serif" font-size="10.00">fspm.config.params.Param</text>
<text text-anchor="middle" x="1282.5" y="-295.03" font-family="Helvetica,sans-Serif" font-size="10.00">Category.getKey</text>
</a>
</g>
</g>
<!-- Node5&#45;&gt;Node6 -->
<g id="edge5" class="edge">
<title>Node5&#45;&gt;Node6</title>
<path fill="none" stroke="midnightblue" d="M1156.28,-336.93C1175.21,-331.8 1196.52,-326.03 1216.13,-320.73"/>
<polygon fill="midnightblue" stroke="midnightblue" points="1217.16,-324.07 1225.9,-318.08 1215.33,-317.32 1217.16,-324.07"/>
</g>
<!-- Node8&#45;&gt;Node2 -->
<g id="edge8" class="edge">
<title>Node8&#45;&gt;Node2</title>
<path fill="none" stroke="midnightblue" d="M296.57,-247.27C316.6,-266.84 353.83,-300.78 391,-322.03 398.11,-326.09 405.87,-329.78 413.69,-333.06"/>
<polygon fill="midnightblue" stroke="midnightblue" points="412.64,-336.41 423.22,-336.87 415.24,-329.91 412.64,-336.41"/>
</g>
<!-- Node9 -->
<g id="node9" class="node">
<title>Node9</title>
<g id="a_node9"><a xlink:href="classfspm_1_1config_1_1Config_ae827f35da2e09b1d18f5a82538db57bc.html#ae827f35da2e09b1d18f5a82538db57bc" target="_top" xlink:title=" ">
<polygon fill="none" stroke="black" points="391,-96.53 391,-115.53 557,-115.53 557,-96.53 391,-96.53"/>
<text text-anchor="middle" x="474" y="-103.53" font-family="Helvetica,sans-Serif" font-size="10.00">fspm.config.Config.getBoolean</text>
</a>
</g>
</g>
<!-- Node8&#45;&gt;Node9 -->
<g id="edge9" class="edge">
<title>Node8&#45;&gt;Node9</title>
<path fill="none" stroke="midnightblue" d="M292.43,-216.97C310.3,-193.51 348.1,-148.51 391,-125.03 395.19,-122.74 399.64,-120.72 404.22,-118.95"/>
<polygon fill="midnightblue" stroke="midnightblue" points="405.47,-122.22 413.77,-115.64 403.17,-115.61 405.47,-122.22"/>
</g>
<!-- Node19 -->
<g id="node19" class="node">
<title>Node19</title>
<g id="a_node19"><a xlink:href="classfspm_1_1config_1_1Config_ae462a8b94814530c25f796f0b4f48115.html#ae462a8b94814530c25f796f0b4f48115" target="_top" xlink:title=" ">
<polygon fill="none" stroke="black" points="393.5,-134.53 393.5,-153.53 554.5,-153.53 554.5,-134.53 393.5,-134.53"/>
<text text-anchor="middle" x="474" y="-141.53" font-family="Helvetica,sans-Serif" font-size="10.00">fspm.config.Config.getDouble</text>
</a>
</g>
</g>
<!-- Node8&#45;&gt;Node19 -->
<g id="edge22" class="edge">
<title>Node8&#45;&gt;Node19</title>
<path fill="none" stroke="midnightblue" d="M301.43,-216.93C322.6,-201.56 357.57,-178.06 391,-164.03 397.95,-161.11 405.42,-158.56 412.92,-156.34"/>
<polygon fill="midnightblue" stroke="midnightblue" points="414.05,-159.66 422.75,-153.62 412.18,-152.91 414.05,-159.66"/>
</g>
<!-- Node21 -->
<g id="node21" class="node">
<title>Node21</title>
<g id="a_node21"><a xlink:href="classfspm_1_1config_1_1Config_a8ef1527d11b0866fcd366c9fc2b84306.html#a8ef1527d11b0866fcd366c9fc2b84306" target="_top" xlink:title="Gets the parameter group with the given key.">
<polygon fill="none" stroke="black" points="594.5,-239.53 594.5,-258.53 749.5,-258.53 749.5,-239.53 594.5,-239.53"/>
<text text-anchor="middle" x="672" y="-246.53" font-family="Helvetica,sans-Serif" font-size="10.00">fspm.config.Config.getGroup</text>
</a>
</g>
</g>
<!-- Node8&#45;&gt;Node21 -->
<g id="edge27" class="edge">
<title>Node8&#45;&gt;Node21</title>
<path fill="none" stroke="midnightblue" d="M302.89,-247.15C324.11,-261.15 358.11,-280.98 391,-289.03 462.66,-306.56 484.27,-301.42 557,-289.03 586.54,-284 618.61,-272.12 641.19,-262.61"/>
<polygon fill="midnightblue" stroke="midnightblue" points="642.76,-265.75 650.55,-258.58 639.98,-259.32 642.76,-265.75"/>
</g>
<!-- Node22 -->
<g id="node22" class="node">
<title>Node22</title>
<g id="a_node22"><a xlink:href="classfspm_1_1config_1_1Config_a3be13c8aecc91ab1cd95692ec65df305.html#a3be13c8aecc91ab1cd95692ec65df305" target="_top" xlink:title=" ">
<polygon fill="none" stroke="black" points="396.5,-58.53 396.5,-77.53 551.5,-77.53 551.5,-58.53 396.5,-58.53"/>
<text text-anchor="middle" x="474" y="-65.53" font-family="Helvetica,sans-Serif" font-size="10.00">fspm.config.Config.getString</text>
</a>
</g>
</g>
<!-- Node8&#45;&gt;Node22 -->
<g id="edge28" class="edge">
<title>Node8&#45;&gt;Node22</title>
<path fill="none" stroke="midnightblue" d="M288.4,-216.96C302.88,-187.12 339.41,-120.53 391,-87.03 394.19,-84.96 397.58,-83.11 401.1,-81.46"/>
<polygon fill="midnightblue" stroke="midnightblue" points="402.71,-84.58 410.64,-77.56 400.06,-78.11 402.71,-84.58"/>
</g>
<!-- Node24 -->
<g id="node24" class="node">
<title>Node24</title>
<g id="a_node24"><a xlink:href="classfspm_1_1config_1_1ConfigTest_a1f7ba3e24b4e27a319db83eb75e9f691.html#a1f7ba3e24b4e27a319db83eb75e9f691" target="_top" xlink:title=" ">
<polygon fill="none" stroke="black" points="393.5,-260.53 393.5,-279.53 554.5,-279.53 554.5,-260.53 393.5,-260.53"/>
<text text-anchor="middle" x="474" y="-267.53" font-family="Helvetica,sans-Serif" font-size="10.00">fspm.config.ConfigTest.println</text>
</a>
</g>
</g>
<!-- Node8&#45;&gt;Node24 -->
<g id="edge33" class="edge">
<title>Node8&#45;&gt;Node24</title>
<path fill="none" stroke="midnightblue" d="M355.26,-246.67C375.09,-250.6 396.25,-254.8 415.08,-258.54"/>
<polygon fill="midnightblue" stroke="midnightblue" points="414.5,-261.99 424.99,-260.5 415.86,-255.12 414.5,-261.99"/>
</g>
<!-- Node25 -->
<g id="node25" class="node">
<title>Node25</title>
<g id="a_node25"><a xlink:href="classfspm_1_1config_1_1Config_a6069a78eec5ca1610f69d9556802e8a5.html#a6069a78eec5ca1610f69d9556802e8a5" target="_top" xlink:title=" ">
<polygon fill="none" stroke="black" points="406.5,-222.53 406.5,-241.53 541.5,-241.53 541.5,-222.53 406.5,-222.53"/>
<text text-anchor="middle" x="474" y="-229.53" font-family="Helvetica,sans-Serif" font-size="10.00">fspm.config.Config.reset</text>
</a>
</g>
</g>
<!-- Node8&#45;&gt;Node25 -->
<g id="edge34" class="edge">
<title>Node8&#45;&gt;Node25</title>
<path fill="none" stroke="midnightblue" d="M355.26,-232.03C368.7,-232.03 382.74,-232.03 396.26,-232.03"/>
<polygon fill="midnightblue" stroke="midnightblue" points="396.48,-235.53 406.48,-232.03 396.48,-228.53 396.48,-235.53"/>
</g>
<!-- Node26 -->
<g id="node26" class="node">
<title>Node26</title>
<g id="a_node26"><a xlink:href="classfspm_1_1config_1_1Config_a97ddea0bf83d5ca1c6c42e8edf12bf7c.html#a97ddea0bf83d5ca1c6c42e8edf12bf7c" target="_top" xlink:title=" ">
<polygon fill="none" stroke="black" points="396.5,-173.03 396.5,-203.03 551.5,-203.03 551.5,-173.03 396.5,-173.03"/>
<text text-anchor="start" x="404.5" y="-191.03" font-family="Helvetica,sans-Serif" font-size="10.00">fspm.config.Config.setGroup</text>
<text text-anchor="middle" x="474" y="-180.03" font-family="Helvetica,sans-Serif" font-size="10.00">Context</text>
</a>
</g>
</g>
<!-- Node8&#45;&gt;Node26 -->
<g id="edge35" class="edge">
<title>Node8&#45;&gt;Node26</title>
<path fill="none" stroke="midnightblue" d="M346.87,-217.01C363.26,-213.24 380.98,-209.17 397.81,-205.3"/>
<polygon fill="midnightblue" stroke="midnightblue" points="398.64,-208.71 407.6,-203.05 397.07,-201.88 398.64,-208.71"/>
</g>
<!-- Node10 -->
<g id="node10" class="node">
<title>Node10</title>
<g id="a_node10"><a xlink:href="classfspm_1_1config_1_1Config_abce61aaf26cf14b4ae2204ff22c27b57.html#abce61aaf26cf14b4ae2204ff22c27b57" target="_top" xlink:title=" ">
<polygon fill="none" stroke="black" points="602.5,-157.03 602.5,-187.03 741.5,-187.03 741.5,-157.03 602.5,-157.03"/>
<text text-anchor="start" x="610.5" y="-175.03" font-family="Helvetica,sans-Serif" font-size="10.00">fspm.config.Config.check</text>
<text text-anchor="middle" x="672" y="-164.03" font-family="Helvetica,sans-Serif" font-size="10.00">ContextsExists</text>
</a>
</g>
</g>
<!-- Node9&#45;&gt;Node10 -->
<g id="edge10" class="edge">
<title>Node9&#45;&gt;Node10</title>
<path fill="none" stroke="midnightblue" d="M528.33,-115.6C538.06,-118.12 547.97,-121.23 557,-125.03 574.5,-132.39 575.77,-140.05 593,-148.03 597.09,-149.92 601.36,-151.71 605.72,-153.4"/>
<polygon fill="midnightblue" stroke="midnightblue" points="604.74,-156.77 615.33,-156.93 607.15,-150.2 604.74,-156.77"/>
</g>
<!-- Node16 -->
<g id="node16" class="node">
<title>Node16</title>
<g id="a_node16"><a xlink:href="classfspm_1_1config_1_1params_1_1ParamCategory_afa61ab695415b052569467d379bf4a07.html#afa61ab695415b052569467d379bf4a07" target="_top" xlink:title=" ">
<polygon fill="none" stroke="black" points="598.5,-59.03 598.5,-89.03 745.5,-89.03 745.5,-59.03 598.5,-59.03"/>
<text text-anchor="start" x="606.5" y="-77.03" font-family="Helvetica,sans-Serif" font-size="10.00">fspm.config.params.Param</text>
<text text-anchor="middle" x="672" y="-66.03" font-family="Helvetica,sans-Serif" font-size="10.00">Category.getBoolean</text>
</a>
</g>
</g>
<!-- Node9&#45;&gt;Node16 -->
<g id="edge18" class="edge">
<title>Node9&#45;&gt;Node16</title>
<path fill="none" stroke="midnightblue" d="M533.28,-96.51C550.59,-93.69 569.89,-90.54 588.44,-87.51"/>
<polygon fill="midnightblue" stroke="midnightblue" points="589.05,-90.96 598.35,-85.89 587.92,-84.05 589.05,-90.96"/>
</g>
<!-- Node11 -->
<g id="node11" class="node">
<title>Node11</title>
<g id="a_node11"><a xlink:href="classfspm_1_1config_1_1Config_a3024c037d3ee426c410cb46ee2cd3497.html#a3024c037d3ee426c410cb46ee2cd3497" target="_top" xlink:title=" ">
<polygon fill="none" stroke="black" points="819,-195.03 819,-225.03 958,-225.03 958,-195.03 819,-195.03"/>
<text text-anchor="start" x="827" y="-213.03" font-family="Helvetica,sans-Serif" font-size="10.00">fspm.config.Config.check</text>
<text text-anchor="middle" x="888.5" y="-202.03" font-family="Helvetica,sans-Serif" font-size="10.00">GroupContextExists</text>
</a>
</g>
</g>
<!-- Node10&#45;&gt;Node11 -->
<g id="edge11" class="edge">
<title>Node10&#45;&gt;Node11</title>
<path fill="none" stroke="midnightblue" d="M741.75,-184.21C763.11,-187.99 786.82,-192.19 808.8,-196.09"/>
<polygon fill="midnightblue" stroke="midnightblue" points="808.31,-199.55 818.77,-197.85 809.53,-192.66 808.31,-199.55"/>
</g>
<!-- Node12 -->
<g id="node12" class="node">
<title>Node12</title>
<g id="a_node12"><a xlink:href="classfspm_1_1config_1_1params_1_1ParamCategory_a4e9b4d10f0f293ae181dd272d302d9b4.html#a4e9b4d10f0f293ae181dd272d302d9b4" target="_top" xlink:title="Get generic Parameter with the given key.">
<polygon fill="none" stroke="black" points="1026,-239.03 1026,-269.03 1173,-269.03 1173,-239.03 1026,-239.03"/>
<text text-anchor="start" x="1034" y="-257.03" font-family="Helvetica,sans-Serif" font-size="10.00">fspm.config.params.Param</text>
<text text-anchor="middle" x="1099.5" y="-246.03" font-family="Helvetica,sans-Serif" font-size="10.00">Category.get</text>
</a>
</g>
</g>
<!-- Node10&#45;&gt;Node12 -->
<g id="edge12" class="edge">
<title>Node10&#45;&gt;Node12</title>
<path fill="none" stroke="midnightblue" d="M693.59,-187.14C715.52,-202.29 751.82,-224.8 787,-235.03 862.31,-256.92 952.05,-260.13 1015.82,-258.79"/>
<polygon fill="midnightblue" stroke="midnightblue" points="1015.92,-262.28 1025.83,-258.53 1015.74,-255.29 1015.92,-262.28"/>
</g>
<!-- Node13 -->
<g id="node13" class="node">
<title>Node13</title>
<g id="a_node13"><a xlink:href="classfspm_1_1config_1_1params_1_1ParamGroup_a4ac641bb901b13ad2186c3d4fe0a75c9.html#a4ac641bb901b13ad2186c3d4fe0a75c9" target="_top" xlink:title=" ">
<polygon fill="none" stroke="black" points="807.5,-283.03 807.5,-313.03 969.5,-313.03 969.5,-283.03 807.5,-283.03"/>
<text text-anchor="start" x="815.5" y="-301.03" font-family="Helvetica,sans-Serif" font-size="10.00">fspm.config.params.Param</text>
<text text-anchor="middle" x="888.5" y="-290.03" font-family="Helvetica,sans-Serif" font-size="10.00">Group.getCategoryWithParam</text>
</a>
</g>
</g>
<!-- Node10&#45;&gt;Node13 -->
<g id="edge14" class="edge">
<title>Node10&#45;&gt;Node13</title>
<path fill="none" stroke="midnightblue" d="M695.31,-187.06C711.35,-198.24 733.2,-214.23 751,-230.03 768.4,-245.47 767.18,-255.84 787,-268.03 794.14,-272.42 801.95,-276.19 809.97,-279.44"/>
<polygon fill="midnightblue" stroke="midnightblue" points="808.86,-282.76 819.46,-283.02 811.33,-276.21 808.86,-282.76"/>
</g>
<!-- Node15 -->
<g id="node15" class="node">
<title>Node15</title>
<g id="a_node15"><a xlink:href="classfspm_1_1config_1_1Config_aa3784bee8f29e4340b60735055eb41a6.html#aa3784bee8f29e4340b60735055eb41a6" target="_top" xlink:title=" ">
<polygon fill="none" stroke="black" points="807,-146.03 807,-176.03 970,-176.03 970,-146.03 807,-146.03"/>
<text text-anchor="start" x="815" y="-164.03" font-family="Helvetica,sans-Serif" font-size="10.00">fspm.config.Config.isCategory</text>
<text text-anchor="middle" x="888.5" y="-153.03" font-family="Helvetica,sans-Serif" font-size="10.00">ContextExists</text>
</a>
</g>
</g>
<!-- Node10&#45;&gt;Node15 -->
<g id="edge17" class="edge">
<title>Node10&#45;&gt;Node15</title>
<path fill="none" stroke="midnightblue" d="M741.75,-168.5C759.23,-167.61 778.27,-166.63 796.66,-165.69"/>
<polygon fill="midnightblue" stroke="midnightblue" points="796.98,-169.18 806.79,-165.17 796.63,-162.18 796.98,-169.18"/>
</g>
<!-- Node12&#45;&gt;Node6 -->
<g id="edge13" class="edge">
<title>Node12&#45;&gt;Node6</title>
<path fill="none" stroke="midnightblue" d="M1156.28,-269.13C1175.21,-274.25 1196.52,-280.02 1216.13,-285.33"/>
<polygon fill="midnightblue" stroke="midnightblue" points="1215.33,-288.74 1225.9,-287.98 1217.16,-281.99 1215.33,-288.74"/>
</g>
<!-- Node13&#45;&gt;Node12 -->
<g id="edge15" class="edge">
<title>Node13&#45;&gt;Node12</title>
<path fill="none" stroke="midnightblue" d="M960.84,-283.01C978.98,-279.19 998.62,-275.06 1017.21,-271.14"/>
<polygon fill="midnightblue" stroke="midnightblue" points="1018.06,-274.54 1027.13,-269.05 1016.62,-267.69 1018.06,-274.54"/>
</g>
<!-- Node14 -->
<g id="node14" class="node">
<title>Node14</title>
<g id="a_node14"><a xlink:href="classfspm_1_1config_1_1params_1_1ParamGroup_a87d9e7182014d1d981c4067083815878.html#a87d9e7182014d1d981c4067083815878" target="_top" xlink:title=" ">
<polygon fill="none" stroke="black" points="1026,-288.03 1026,-318.03 1173,-318.03 1173,-288.03 1026,-288.03"/>
<text text-anchor="start" x="1034" y="-306.03" font-family="Helvetica,sans-Serif" font-size="10.00">fspm.config.params.Param</text>
<text text-anchor="middle" x="1099.5" y="-295.03" font-family="Helvetica,sans-Serif" font-size="10.00">Group.getKey</text>
</a>
</g>
</g>
<!-- Node13&#45;&gt;Node14 -->
<g id="edge16" class="edge">
<title>Node13&#45;&gt;Node14</title>
<path fill="none" stroke="midnightblue" d="M969.71,-299.95C984.67,-300.31 1000.34,-300.68 1015.39,-301.04"/>
<polygon fill="midnightblue" stroke="midnightblue" points="1015.61,-304.55 1025.7,-301.29 1015.78,-297.55 1015.61,-304.55"/>
</g>
<!-- Node17 -->
<g id="node17" class="node">
<title>Node17</title>
<g id="a_node17"><a xlink:href="classfspm_1_1config_1_1params_1_1ParamCategory_aa2e79c693bd5784e3397c328d6363ba9.html#aa2e79c693bd5784e3397c328d6363ba9" target="_top" xlink:title="Helper method to get the parameter of a given key, if it is an instance of the Parameter type class p...">
<polygon fill="none" stroke="black" points="1026,-42.03 1026,-72.03 1173,-72.03 1173,-42.03 1026,-42.03"/>
<text text-anchor="start" x="1034" y="-60.03" font-family="Helvetica,sans-Serif" font-size="10.00">fspm.config.params.Param</text>
<text text-anchor="middle" x="1099.5" y="-49.03" font-family="Helvetica,sans-Serif" font-size="10.00">Category.getIfInstanceOf</text>
</a>
</g>
</g>
<!-- Node16&#45;&gt;Node17 -->
<g id="edge19" class="edge">
<title>Node16&#45;&gt;Node17</title>
<path fill="none" stroke="midnightblue" d="M745.66,-71.13C820.51,-68.14 937.01,-63.48 1015.45,-60.35"/>
<polygon fill="midnightblue" stroke="midnightblue" points="1015.93,-63.83 1025.78,-59.93 1015.65,-56.84 1015.93,-63.83"/>
</g>
<!-- Node18 -->
<g id="node18" class="node">
<title>Node18</title>
<g id="a_node18"><a xlink:href="classfspm_1_1config_1_1params_1_1ParamCategory_a9df71240a840aa7875fdd8834c4cdbde.html#a9df71240a840aa7875fdd8834c4cdbde" target="_top" xlink:title="Check and return if is NullParam.">
<polygon fill="none" stroke="black" points="815,-20.03 815,-50.03 962,-50.03 962,-20.03 815,-20.03"/>
<text text-anchor="start" x="823" y="-38.03" font-family="Helvetica,sans-Serif" font-size="10.00">fspm.config.params.Param</text>
<text text-anchor="middle" x="888.5" y="-27.03" font-family="Helvetica,sans-Serif" font-size="10.00">Category.isNull</text>
</a>
</g>
</g>
<!-- Node16&#45;&gt;Node18 -->
<g id="edge20" class="edge">
<title>Node16&#45;&gt;Node18</title>
<path fill="none" stroke="midnightblue" d="M745.62,-60.83C764.66,-57.36 785.34,-53.6 804.86,-50.05"/>
<polygon fill="midnightblue" stroke="midnightblue" points="805.74,-53.45 814.95,-48.22 804.49,-46.56 805.74,-53.45"/>
</g>
<!-- Node18&#45;&gt;Node17 -->
<g id="edge21" class="edge">
<title>Node18&#45;&gt;Node17</title>
<path fill="none" stroke="midnightblue" d="M962.01,-42.66C979.26,-44.48 997.79,-46.43 1015.47,-48.29"/>
<polygon fill="midnightblue" stroke="midnightblue" points="1015.45,-51.81 1025.76,-49.37 1016.18,-44.84 1015.45,-51.81"/>
</g>
<!-- Node19&#45;&gt;Node10 -->
<g id="edge23" class="edge">
<title>Node19&#45;&gt;Node10</title>
<path fill="none" stroke="midnightblue" d="M541.63,-153.55C557.81,-155.86 575.25,-158.35 591.94,-160.73"/>
<polygon fill="midnightblue" stroke="midnightblue" points="591.82,-164.25 602.22,-162.2 592.81,-157.32 591.82,-164.25"/>
</g>
<!-- Node20 -->
<g id="node20" class="node">
<title>Node20</title>
<g id="a_node20"><a xlink:href="classfspm_1_1config_1_1params_1_1ParamCategory_ad9163381c1dfed699d3d74b2d36c1893.html#ad9163381c1dfed699d3d74b2d36c1893" target="_top" xlink:title=" ">
<polygon fill="none" stroke="black" points="598.5,-108.03 598.5,-138.03 745.5,-138.03 745.5,-108.03 598.5,-108.03"/>
<text text-anchor="start" x="606.5" y="-126.03" font-family="Helvetica,sans-Serif" font-size="10.00">fspm.config.params.Param</text>
<text text-anchor="middle" x="672" y="-115.03" font-family="Helvetica,sans-Serif" font-size="10.00">Category.getDouble</text>
</a>
</g>
</g>
<!-- Node19&#45;&gt;Node20 -->
<g id="edge24" class="edge">
<title>Node19&#45;&gt;Node20</title>
<path fill="none" stroke="midnightblue" d="M554.72,-135.49C565.76,-134.3 577.11,-133.09 588.2,-131.9"/>
<polygon fill="midnightblue" stroke="midnightblue" points="588.73,-135.36 598.3,-130.82 587.98,-128.4 588.73,-135.36"/>
</g>
<!-- Node20&#45;&gt;Node17 -->
<g id="edge25" class="edge">
<title>Node20&#45;&gt;Node17</title>
<path fill="none" stroke="midnightblue" d="M745.63,-114.73C810.03,-107 906.55,-94.51 990,-80.03 1000.21,-78.26 1010.92,-76.21 1021.47,-74.09"/>
<polygon fill="midnightblue" stroke="midnightblue" points="1022.41,-77.47 1031.51,-72.04 1021.01,-70.61 1022.41,-77.47"/>
</g>
<!-- Node20&#45;&gt;Node18 -->
<g id="edge26" class="edge">
<title>Node20&#45;&gt;Node18</title>
<path fill="none" stroke="midnightblue" d="M723.25,-107.92C732.55,-104.85 742.12,-101.49 751,-98.03 784.51,-84.98 821.48,-67.74 848.48,-54.58"/>
<polygon fill="midnightblue" stroke="midnightblue" points="850.16,-57.66 857.6,-50.12 847.08,-51.38 850.16,-57.66"/>
</g>
<!-- Node22&#45;&gt;Node10 -->
<g id="edge29" class="edge">
<title>Node22&#45;&gt;Node10</title>
<path fill="none" stroke="midnightblue" d="M539.48,-77.55C545.72,-80.03 551.7,-83.14 557,-87.03 582.39,-105.64 568.29,-128.53 593,-148.03 594.76,-149.42 596.61,-150.73 598.51,-151.96"/>
<polygon fill="midnightblue" stroke="midnightblue" points="596.8,-155.02 607.23,-156.91 600.26,-148.93 596.8,-155.02"/>
</g>
<!-- Node23 -->
<g id="node23" class="node">
<title>Node23</title>
<g id="a_node23"><a xlink:href="classfspm_1_1config_1_1params_1_1ParamCategory_a18b0a3b2a74f69aa936eaecf40927c5a.html#a18b0a3b2a74f69aa936eaecf40927c5a" target="_top" xlink:title=" ">
<polygon fill="none" stroke="black" points="598.5,-10.03 598.5,-40.03 745.5,-40.03 745.5,-10.03 598.5,-10.03"/>
<text text-anchor="start" x="606.5" y="-28.03" font-family="Helvetica,sans-Serif" font-size="10.00">fspm.config.params.Param</text>
<text text-anchor="middle" x="672" y="-17.03" font-family="Helvetica,sans-Serif" font-size="10.00">Category.getString</text>
</a>
</g>
</g>
<!-- Node22&#45;&gt;Node23 -->
<g id="edge30" class="edge">
<title>Node22&#45;&gt;Node23</title>
<path fill="none" stroke="midnightblue" d="M518.5,-58.49C540.3,-53.7 567.39,-47.76 592.65,-42.22"/>
<polygon fill="midnightblue" stroke="midnightblue" points="593.58,-45.6 602.6,-40.03 592.08,-38.76 593.58,-45.6"/>
</g>
<!-- Node23&#45;&gt;Node17 -->
<g id="edge31" class="edge">
<title>Node23&#45;&gt;Node17</title>
<path fill="none" stroke="midnightblue" d="M745.57,-11.39C810.35,-1.62 907.46,7.08 990,-10.03 1015.45,-15.3 1042.26,-26.86 1062.87,-37.19"/>
<polygon fill="midnightblue" stroke="midnightblue" points="1061.38,-40.36 1071.87,-41.82 1064.58,-34.13 1061.38,-40.36"/>
</g>
<!-- Node23&#45;&gt;Node18 -->
<g id="edge32" class="edge">
<title>Node23&#45;&gt;Node18</title>
<path fill="none" stroke="midnightblue" d="M745.62,-28.41C764.66,-29.3 785.34,-30.27 804.86,-31.18"/>
<polygon fill="midnightblue" stroke="midnightblue" points="804.8,-34.68 814.95,-31.65 805.13,-27.68 804.8,-34.68"/>
</g>
<!-- Node26&#45;&gt;Node21 -->
<g id="edge36" class="edge">
<title>Node26&#45;&gt;Node21</title>
<path fill="none" stroke="midnightblue" d="M524.89,-203.15C535.5,-206.39 546.62,-209.81 557,-213.03 581.75,-220.71 609.48,-229.46 631.4,-236.42"/>
<polygon fill="midnightblue" stroke="midnightblue" points="630.43,-239.78 641.02,-239.47 632.55,-233.11 630.43,-239.78"/>
</g>
</g>
</svg>
        <g id="navigator" transform="translate(0 0)" fill="#404254">
                <rect fill="#f2f5e9" fill-opacity="0.5" stroke="#606060" stroke-width=".5" x="0" y="0" width="60" height="60"/>
                <use id="zoomplus" xlink:href="#zoomPlus" x="17" y="9" onmousedown="handleZoom(evt,'in')"/>
                <use id="zoomminus" xlink:href="#zoomMin" x="42" y="9" onmousedown="handleZoom(evt,'out')"/>
                <use id="reset" xlink:href="#resetDef" x="30" y="36" onmousedown="handleReset()"/>
                <g id="arrowUp" xlink:href="#dirArrow" transform="translate(30 24)" onmousedown="handlePan(0,-1)">
                  <use xlink:href="#rim" fill="#404040">
                        <set attributeName="fill" to="#808080" begin="arrowUp.mouseover" end="arrowUp.mouseout"/>
                  </use>
                  <path fill="none" stroke="white" stroke-width="1.5" d="M0,-3.0v7 M-2.5,-0.5L0,-3.0L2.5,-0.5"/>
                </g>
                <g id="arrowRight" xlink:href="#dirArrow" transform="rotate(90) translate(36 -43)" onmousedown="handlePan(1,0)">
                  <use xlink:href="#rim" fill="#404040">
                        <set attributeName="fill" to="#808080" begin="arrowRight.mouseover" end="arrowRight.mouseout"/>
                  </use>
                  <path fill="none" stroke="white" stroke-width="1.5" d="M0,-3.0v7 M-2.5,-0.5L0,-3.0L2.5,-0.5"/>
                </g>
                <g id="arrowDown" xlink:href="#dirArrow" transform="rotate(180) translate(-30 -48)" onmousedown="handlePan(0,1)">
                  <use xlink:href="#rim" fill="#404040">
                        <set attributeName="fill" to="#808080" begin="arrowDown.mouseover" end="arrowDown.mouseout"/>
                  </use>
                  <path fill="none" stroke="white" stroke-width="1.5" d="M0,-3.0v7 M-2.5,-0.5L0,-3.0L2.5,-0.5"/>
                </g>
                <g id="arrowLeft" xlink:href="#dirArrow" transform="rotate(270) translate(-36 17)" onmousedown="handlePan(-1,0)">
                  <use xlink:href="#rim" fill="#404040">
                        <set attributeName="fill" to="#808080" begin="arrowLeft.mouseover" end="arrowLeft.mouseout"/>
                  </use>
                  <path fill="none" stroke="white" stroke-width="1.5" d="M0,-3.0v7 M-2.5,-0.5L0,-3.0L2.5,-0.5"/>
                </g>
        </g>
        <svg viewBox="0 0 15 15" width="100%" height="30px" preserveAspectRatio="xMaxYMin meet">
         <g id="arrow_out" transform="scale(0.3 0.3)">
          <a xlink:href="classfspm_1_1config_1_1ConfigTest_aacca92fc43946c5a3d4613a1085d59f9_aacca92fc43946c5a3d4613a1085d59f9_cgraph_org.svg" target="_base">
           <rect id="button" ry="5" rx="5" y="6" x="6" height="38" width="38"
                fill="#f2f5e9" fill-opacity="0.5" stroke="#606060" stroke-width="1.0"/>
           <path id="arrow"
             d="M 11.500037,31.436501 C 11.940474,20.09759 22.043105,11.32322 32.158766,21.979434 L 37.068811,17.246167 C 37.068811,17.246167 37.088388,32 37.088388,32 L 22.160133,31.978069 C 22.160133,31.978069 26.997745,27.140456 26.997745,27.140456 C 18.528582,18.264221 13.291696,25.230495 11.500037,31.436501 z"
             style="fill:#404040;"/>
          </a>
         </g>
        </svg>
</svg>
