<?xml version="1.0" encoding="UTF-8" standalone="no"?>
<!DOCTYPE svg PUBLIC "-//W3C//DTD SVG 1.1//EN"
 "http://www.w3.org/Graphics/SVG/1.1/DTD/svg11.dtd">
<!-- Generated by graphviz version 2.43.0 (0)
 -->
<!-- Title: fspm.config.adapters.JsonFileReader.getTreeFromFile Pages: 1 -->
<svg width="808pt" height="114pt"
 viewBox="0.00 0.00 808.00 114.03" xmlns="http://www.w3.org/2000/svg" xmlns:xlink="http://www.w3.org/1999/xlink">
<g id="graph0" class="graph" transform="scale(1 1) rotate(0) translate(4 110.03)">
<title>fspm.config.adapters.JsonFileReader.getTreeFromFile</title>
<!-- Node1 -->
<g id="node1" class="node">
<title>Node1</title>
<g id="a_node1"><a xlink:title="Helper function for getting root/tree node from a JSON file.">
<polygon fill="#bfbfbf" stroke="black" points="651,-49.5 651,-79.5 800,-79.5 800,-49.5 651,-49.5"/>
<text text-anchor="start" x="659" y="-67.5" font-family="Helvetica,sans-Serif" font-size="10.00">fspm.config.adapters.Json</text>
<text text-anchor="middle" x="725.5" y="-56.5" font-family="Helvetica,sans-Serif" font-size="10.00">FileReader.getTreeFromFile</text>
</a>
</g>
</g>
<!-- Node2 -->
<g id="node2" class="node">
<title>Node2</title>
<g id="a_node2"><a xlink:href="classfspm_1_1config_1_1adapters_1_1JsonFileReader_a66baa6fc9e08972e7a71cac73d560312.html#a66baa6fc9e08972e7a71cac73d560312" target="_top" xlink:title="Parses and returns a ParamGroup with the parameter contents of the provided file.">
<polygon fill="none" stroke="black" points="0,-49.5 0,-79.5 143,-79.5 143,-49.5 0,-49.5"/>
<text text-anchor="start" x="8" y="-67.5" font-family="Helvetica,sans-Serif" font-size="10.00">fspm.config.adapters.Json</text>
<text text-anchor="middle" x="71.5" y="-56.5" font-family="Helvetica,sans-Serif" font-size="10.00">FileReader.parse</text>
</a>
</g>
</g>
<!-- Node1&#45;&gt;Node2 -->
<g id="edge1" class="edge">
<title>Node1&#45;&gt;Node2</title>
<path fill="none" stroke="midnightblue" d="M659.81,-81.79C645.18,-85 629.64,-87.85 615,-89.5 422.44,-111.2 371.49,-111.79 179,-89.5 161.45,-87.47 142.6,-83.61 125.71,-79.53"/>
<polygon fill="midnightblue" stroke="midnightblue" points="660.79,-85.16 669.77,-79.53 659.24,-78.33 660.79,-85.16"/>
</g>
<!-- Node3 -->
<g id="node3" class="node">
<title>Node3</title>
<g id="a_node3"><a xlink:href="classfspm_1_1config_1_1params_1_1structures_1_1CategoryStore_a5b1316078bc6e936f6b443d6026bbdf6.html#a5b1316078bc6e936f6b443d6026bbdf6" target="_top" xlink:title=" ">
<polygon fill="none" stroke="black" points="447,-49.5 447,-79.5 615,-79.5 615,-49.5 447,-49.5"/>
<text text-anchor="start" x="455" y="-67.5" font-family="Helvetica,sans-Serif" font-size="10.00">fspm.config.params.structures.</text>
<text text-anchor="middle" x="531" y="-56.5" font-family="Helvetica,sans-Serif" font-size="10.00">CategoryStore.parse</text>
</a>
</g>
</g>
<!-- Node1&#45;&gt;Node3 -->
<g id="edge2" class="edge">
<title>Node1&#45;&gt;Node3</title>
<path fill="none" stroke="midnightblue" d="M640.68,-64.5C632.22,-64.5 623.64,-64.5 615.2,-64.5"/>
<polygon fill="midnightblue" stroke="midnightblue" points="640.9,-68 650.9,-64.5 640.9,-61 640.9,-68"/>
</g>
<!-- Node6 -->
<g id="node6" class="node">
<title>Node6</title>
<g id="a_node6"><a xlink:href="classfspm_1_1config_1_1params_1_1structures_1_1TableStore_aac5f94da214bb70c4221c30300916d03.html#aac5f94da214bb70c4221c30300916d03" target="_top" xlink:title=" ">
<polygon fill="none" stroke="black" points="447,-0.5 447,-30.5 615,-30.5 615,-0.5 447,-0.5"/>
<text text-anchor="start" x="455" y="-18.5" font-family="Helvetica,sans-Serif" font-size="10.00">fspm.config.params.structures.</text>
<text text-anchor="middle" x="531" y="-7.5" font-family="Helvetica,sans-Serif" font-size="10.00">TableStore.parse</text>
</a>
</g>
</g>
<!-- Node1&#45;&gt;Node6 -->
<g id="edge7" class="edge">
<title>Node1&#45;&gt;Node6</title>
<path fill="none" stroke="midnightblue" d="M655.55,-46.95C634.42,-41.57 611.36,-35.7 590.95,-30.51"/>
<polygon fill="midnightblue" stroke="midnightblue" points="654.88,-50.39 665.44,-49.47 656.61,-43.61 654.88,-50.39"/>
</g>
<!-- Node4 -->
<g id="node4" class="node">
<title>Node4</title>
<g id="a_node4"><a xlink:href="classfspm_1_1config_1_1params_1_1groups_1_1DocumentCategoryNameGroup_a83d422ab7ad1e384663d9b5e1e02a339.html#a83d422ab7ad1e384663d9b5e1e02a339" target="_top" xlink:title=" ">
<polygon fill="none" stroke="black" points="195,-49.5 195,-79.5 395,-79.5 395,-49.5 195,-49.5"/>
<text text-anchor="start" x="203" y="-67.5" font-family="Helvetica,sans-Serif" font-size="10.00">fspm.config.params.groups.</text>
<text text-anchor="middle" x="295" y="-56.5" font-family="Helvetica,sans-Serif" font-size="10.00">DocumentCategoryNameGroup.parse</text>
</a>
</g>
</g>
<!-- Node3&#45;&gt;Node4 -->
<g id="edge3" class="edge">
<title>Node3&#45;&gt;Node4</title>
<path fill="none" stroke="midnightblue" d="M436.56,-64.5C422.99,-64.5 408.98,-64.5 395.3,-64.5"/>
<polygon fill="midnightblue" stroke="midnightblue" points="436.84,-68 446.84,-64.5 436.84,-61 436.84,-68"/>
</g>
<!-- Node5 -->
<g id="node5" class="node">
<title>Node5</title>
<g id="a_node5"><a xlink:href="classfspm_1_1config_1_1params_1_1groups_1_1DocumentHybridCategoryNameGroup_acd5745a400ce830e7f0c66532ba6b991.html#acd5745a400ce830e7f0c66532ba6b991" target="_top" xlink:title=" ">
<polygon fill="none" stroke="black" points="179,-0.5 179,-30.5 411,-30.5 411,-0.5 179,-0.5"/>
<text text-anchor="start" x="187" y="-18.5" font-family="Helvetica,sans-Serif" font-size="10.00">fspm.config.params.groups.</text>
<text text-anchor="middle" x="295" y="-7.5" font-family="Helvetica,sans-Serif" font-size="10.00">DocumentHybridCategoryNameGroup.parse</text>
</a>
</g>
</g>
<!-- Node3&#45;&gt;Node5 -->
<g id="edge5" class="edge">
<title>Node3&#45;&gt;Node5</title>
<path fill="none" stroke="midnightblue" d="M448.57,-47.38C435.99,-44.74 423.15,-42.04 411,-39.5 397.13,-36.59 382.31,-33.5 368.08,-30.53"/>
<polygon fill="midnightblue" stroke="midnightblue" points="448.08,-50.85 458.58,-49.48 449.51,-44 448.08,-50.85"/>
</g>
<!-- Node4&#45;&gt;Node2 -->
<g id="edge4" class="edge">
<title>Node4&#45;&gt;Node2</title>
<path fill="none" stroke="midnightblue" d="M184.69,-64.5C170.62,-64.5 156.53,-64.5 143.31,-64.5"/>
<polygon fill="midnightblue" stroke="midnightblue" points="184.91,-68 194.91,-64.5 184.91,-61 184.91,-68"/>
</g>
<!-- Node5&#45;&gt;Node2 -->
<g id="edge6" class="edge">
<title>Node5&#45;&gt;Node2</title>
<path fill="none" stroke="midnightblue" d="M210.83,-32.6C200.11,-34.88 189.29,-37.22 179,-39.5 164.91,-42.62 149.8,-46.1 135.51,-49.44"/>
<polygon fill="midnightblue" stroke="midnightblue" points="211.57,-36.02 220.63,-30.53 210.12,-29.17 211.57,-36.02"/>
</g>
<!-- Node6&#45;&gt;Node5 -->
<g id="edge8" class="edge">
<title>Node6&#45;&gt;Node5</title>
<path fill="none" stroke="midnightblue" d="M436.71,-15.5C428.32,-15.5 419.77,-15.5 411.22,-15.5"/>
<polygon fill="midnightblue" stroke="midnightblue" points="436.84,-19 446.84,-15.5 436.84,-12 436.84,-19"/>
</g>
</g>
</svg>
