<?xml version="1.0" encoding="UTF-8" standalone="no"?>
<!DOCTYPE svg PUBLIC "-//W3C//DTD SVG 1.1//EN"
 "http://www.w3.org/Graphics/SVG/1.1/DTD/svg11.dtd">
<!-- Generated by graphviz version 2.43.0 (0)
 -->
<!-- Title: fspm.config.params.structures.TableStore Pages: 1 -->
<!--zoomable 364 -->
<svg id="main" version="1.1" xmlns="http://www.w3.org/2000/svg" xmlns:xlink="http://www.w3.org/1999/xlink" xml:space="preserve" onload="init(evt)">
<style type="text/css"><![CDATA[
.edge:hover path { stroke: red; }
.edge:hover polygon { stroke: red; fill: red; }
]]></style>
<script type="text/javascript"><![CDATA[
var edges = document.getElementsByTagName('g');
if (edges && edges.length) {
  for (var i=0;i<edges.length;i++) {
    if (edges[i].id.substr(0,4)=='edge') {
      edges[i].setAttribute('class','edge');
    }
  }
}
]]></script>
        <defs>
                <circle id="rim" cx="0" cy="0" r="7"/>
                <circle id="rim2" cx="0" cy="0" r="3.5"/>
                <g id="zoomPlus">
                        <use xlink:href="#rim" fill="#404040">
                                <set attributeName="fill" to="#808080" begin="zoomplus.mouseover" end="zoomplus.mouseout"/>
                        </use>
                        <path d="M-4,0h8M0,-4v8" fill="none" stroke="white" stroke-width="1.5" pointer-events="none"/>
                </g>
                <g id="zoomMin">
                        <use xlink:href="#rim" fill="#404040">
                                <set attributeName="fill" to="#808080" begin="zoomminus.mouseover" end="zoomminus.mouseout"/>
                        </use>
                        <path d="M-4,0h8" fill="none" stroke="white" stroke-width="1.5" pointer-events="none"/>
                </g>
                <g id="dirArrow">
                        <path fill="none" stroke="white" stroke-width="1.5" d="M0,-3.0v7 M-2.5,-0.5L0,-3.0L2.5,-0.5"/>
                </g>
               <g id="resetDef">
                       <use xlink:href="#rim2" fill="#404040">
                               <set attributeName="fill" to="#808080" begin="reset.mouseover" end="reset.mouseout"/>
                       </use>
               </g>
        </defs>

<script type="text/javascript">
var viewWidth = 532;
var viewHeight = 364;
var sectionId = 'dynsection-1';
</script>
<script xlink:href="svgpan.js"/>
<svg id="graph" class="graph">
<g id="viewport">
<title>fspm.config.params.structures.TableStore</title>
<!-- Node1 -->
<g id="node1" class="node">
<title>Node1</title>
<g id="a_node1"><a xlink:title=" ">
<polygon fill="#bfbfbf" stroke="black" points="128.98,-0.5 128.98,-112.5 296.98,-112.5 296.98,-0.5 128.98,-0.5"/>
<text text-anchor="start" x="136.98" y="-100.5" font-family="Helvetica,sans-Serif" font-size="10.00">fspm.config.params.structures.</text>
<text text-anchor="middle" x="212.98" y="-89.5" font-family="Helvetica,sans-Serif" font-size="10.00">TableStore</text>
<polyline fill="none" stroke="black" points="128.98,-82.5 296.98,-82.5 "/>
<text text-anchor="middle" x="212.98" y="-70.5" font-family="Helvetica,sans-Serif" font-size="10.00"> </text>
<polyline fill="none" stroke="black" points="128.98,-63.5 296.98,-63.5 "/>
<text text-anchor="start" x="136.98" y="-51.5" font-family="Helvetica,sans-Serif" font-size="10.00">+ TableStore()</text>
<text text-anchor="start" x="136.98" y="-40.5" font-family="Helvetica,sans-Serif" font-size="10.00">+ addTable()</text>
<text text-anchor="start" x="136.98" y="-29.5" font-family="Helvetica,sans-Serif" font-size="10.00">+ getTable()</text>
<text text-anchor="start" x="136.98" y="-18.5" font-family="Helvetica,sans-Serif" font-size="10.00">+ toString()</text>
<text text-anchor="start" x="136.98" y="-7.5" font-family="Helvetica,sans-Serif" font-size="10.00">+ parse()</text>
</a>
</g>
</g>
<!-- Node2 -->
<g id="node2" class="node">
<title>Node2</title>
<g id="a_node2"><a xlink:href="classfspm_1_1config_1_1params_1_1structures_1_1ParamStructure.html" target="_top" xlink:title="Represents a structure found in ParamGroups that store parameters.">
<polygon fill="none" stroke="black" points="128.98,-160.5 128.98,-239.5 296.98,-239.5 296.98,-160.5 128.98,-160.5"/>
<text text-anchor="start" x="136.98" y="-227.5" font-family="Helvetica,sans-Serif" font-size="10.00">fspm.config.params.structures.</text>
<text text-anchor="middle" x="212.98" y="-216.5" font-family="Helvetica,sans-Serif" font-size="10.00">ParamStructure</text>
<polyline fill="none" stroke="black" points="128.98,-209.5 296.98,-209.5 "/>
<text text-anchor="middle" x="212.98" y="-197.5" font-family="Helvetica,sans-Serif" font-size="10.00"> </text>
<polyline fill="none" stroke="black" points="128.98,-190.5 296.98,-190.5 "/>
<text text-anchor="start" x="136.98" y="-178.5" font-family="Helvetica,sans-Serif" font-size="10.00">+ ParamStructure()</text>
<text text-anchor="start" x="136.98" y="-167.5" font-family="Helvetica,sans-Serif" font-size="10.00">+ getGroupKey()</text>
</a>
</g>
</g>
<!-- Node2&#45;&gt;Node1 -->
<g id="edge1" class="edge">
<title>Node2&#45;&gt;Node1</title>
<path fill="none" stroke="midnightblue" d="M212.98,-150C212.98,-137.92 212.98,-124.91 212.98,-112.56"/>
<polygon fill="none" stroke="midnightblue" points="209.48,-150.33 212.98,-160.33 216.48,-150.33 209.48,-150.33"/>
</g>
<!-- Node3 -->
<g id="node3" class="node">
<title>Node3</title>
<g id="a_node3"><a xlink:title=" ">
<polygon fill="none" stroke="#bfbfbf" points="32.48,-298.5 32.48,-355.5 77.48,-355.5 77.48,-298.5 32.48,-298.5"/>
<text text-anchor="middle" x="54.98" y="-343.5" font-family="Helvetica,sans-Serif" font-size="10.00">String</text>
<polyline fill="none" stroke="#bfbfbf" points="32.48,-336.5 77.48,-336.5 "/>
<text text-anchor="middle" x="54.98" y="-324.5" font-family="Helvetica,sans-Serif" font-size="10.00"> </text>
<polyline fill="none" stroke="#bfbfbf" points="32.48,-317.5 77.48,-317.5 "/>
<text text-anchor="middle" x="54.98" y="-305.5" font-family="Helvetica,sans-Serif" font-size="10.00"> </text>
</a>
</g>
</g>
<!-- Node3&#45;&gt;Node1 -->
<g id="edge3" class="edge">
<title>Node3&#45;&gt;Node1</title>
<path fill="none" stroke="#404040" d="M35.21,-298.23C13.23,-263.61 -15.86,-203.7 10.98,-160 34.48,-121.71 77.24,-97.19 117.38,-81.76"/>
<polygon fill="none" stroke="#404040" points="117.62,-81.67 121.88,-75.86 128.89,-77.55 124.63,-83.37 117.62,-81.67"/>
<text text-anchor="middle" x="65.48" y="-197.5" font-family="Helvetica,sans-Serif" font-size="10.00"> +ROW_PREFIX_FIELD</text>
</g>
<!-- Node3&#45;&gt;Node2 -->
<g id="edge2" class="edge">
<title>Node3&#45;&gt;Node2</title>
<path fill="none" stroke="#404040" d="M77.61,-308.09C97.6,-292.28 127.63,-268.52 154.33,-247.4"/>
<polygon fill="none" stroke="#404040" points="154.58,-247.2 156.81,-240.34 163.99,-239.75 161.77,-246.61 154.58,-247.2"/>
<text text-anchor="middle" x="165.48" y="-266.5" font-family="Helvetica,sans-Serif" font-size="10.00"> &#45;groupKey</text>
</g>
<!-- Node4 -->
<g id="node4" class="node">
<title>Node4</title>
<g id="a_node4"><a xlink:title=" ">
<polygon fill="none" stroke="#bfbfbf" points="315.48,-166 315.48,-234 498.48,-234 498.48,-166 315.48,-166"/>
<text text-anchor="start" x="323.48" y="-222" font-family="Helvetica,sans-Serif" font-size="10.00">Map&lt; String, fspm.config.params.</text>
<text text-anchor="middle" x="406.98" y="-211" font-family="Helvetica,sans-Serif" font-size="10.00">ParamTable &gt;</text>
<polyline fill="none" stroke="#bfbfbf" points="315.48,-204 498.48,-204 "/>
<text text-anchor="middle" x="406.98" y="-192" font-family="Helvetica,sans-Serif" font-size="10.00"> </text>
<polyline fill="none" stroke="#bfbfbf" points="315.48,-185 498.48,-185 "/>
<text text-anchor="middle" x="406.98" y="-173" font-family="Helvetica,sans-Serif" font-size="10.00"> </text>
</a>
</g>
</g>
<!-- Node4&#45;&gt;Node1 -->
<g id="edge4" class="edge">
<title>Node4&#45;&gt;Node1</title>
<path fill="none" stroke="#404040" d="M361.49,-165.82C342.65,-152.08 320.16,-135.68 298.44,-119.84"/>
<polygon fill="none" stroke="#404040" points="298.23,-119.69 291.03,-119.38 288.54,-112.61 295.74,-112.92 298.23,-119.69"/>
<text text-anchor="middle" x="346.48" y="-134" font-family="Helvetica,sans-Serif" font-size="10.00"> &#45;tables</text>
</g>
<!-- Node5 -->
<g id="node5" class="node">
<title>Node5</title>
<g id="a_node5"><a xlink:title=" ">
<polygon fill="none" stroke="#bfbfbf" points="387.98,-298.5 387.98,-355.5 425.98,-355.5 425.98,-298.5 387.98,-298.5"/>
<text text-anchor="middle" x="406.98" y="-343.5" font-family="Helvetica,sans-Serif" font-size="10.00">Map</text>
<polyline fill="none" stroke="#bfbfbf" points="387.98,-336.5 425.98,-336.5 "/>
<text text-anchor="middle" x="406.98" y="-324.5" font-family="Helvetica,sans-Serif" font-size="10.00"> </text>
<polyline fill="none" stroke="#bfbfbf" points="387.98,-317.5 425.98,-317.5 "/>
<text text-anchor="middle" x="406.98" y="-305.5" font-family="Helvetica,sans-Serif" font-size="10.00"> </text>
</a>
</g>
</g>
<!-- Node5&#45;&gt;Node4 -->
<g id="edge5" class="edge">
<title>Node5&#45;&gt;Node4</title>
<path fill="none" stroke="orange" d="M406.98,-288.05C406.98,-270.96 406.98,-250.96 406.98,-234.44"/>
<polygon fill="orange" stroke="orange" points="403.48,-288.26 406.98,-298.26 410.48,-288.26 403.48,-288.26"/>
<text text-anchor="start" x="406.98" y="-272" font-family="Helvetica,sans-Serif" font-size="10.00"> &lt; String, fspm::config</text>
<text text-anchor="middle" x="465.48" y="-261" font-family="Helvetica,sans-Serif" font-size="10.00">::params::ParamTable &gt;</text>
</g>
</g>
</svg>
        <g id="navigator" transform="translate(0 0)" fill="#404254">
                <rect fill="#f2f5e9" fill-opacity="0.5" stroke="#606060" stroke-width=".5" x="0" y="0" width="60" height="60"/>
                <use id="zoomplus" xlink:href="#zoomPlus" x="17" y="9" onmousedown="handleZoom(evt,'in')"/>
                <use id="zoomminus" xlink:href="#zoomMin" x="42" y="9" onmousedown="handleZoom(evt,'out')"/>
                <use id="reset" xlink:href="#resetDef" x="30" y="36" onmousedown="handleReset()"/>
                <g id="arrowUp" xlink:href="#dirArrow" transform="translate(30 24)" onmousedown="handlePan(0,-1)">
                  <use xlink:href="#rim" fill="#404040">
                        <set attributeName="fill" to="#808080" begin="arrowUp.mouseover" end="arrowUp.mouseout"/>
                  </use>
                  <path fill="none" stroke="white" stroke-width="1.5" d="M0,-3.0v7 M-2.5,-0.5L0,-3.0L2.5,-0.5"/>
                </g>
                <g id="arrowRight" xlink:href="#dirArrow" transform="rotate(90) translate(36 -43)" onmousedown="handlePan(1,0)">
                  <use xlink:href="#rim" fill="#404040">
                        <set attributeName="fill" to="#808080" begin="arrowRight.mouseover" end="arrowRight.mouseout"/>
                  </use>
                  <path fill="none" stroke="white" stroke-width="1.5" d="M0,-3.0v7 M-2.5,-0.5L0,-3.0L2.5,-0.5"/>
                </g>
                <g id="arrowDown" xlink:href="#dirArrow" transform="rotate(180) translate(-30 -48)" onmousedown="handlePan(0,1)">
                  <use xlink:href="#rim" fill="#404040">
                        <set attributeName="fill" to="#808080" begin="arrowDown.mouseover" end="arrowDown.mouseout"/>
                  </use>
                  <path fill="none" stroke="white" stroke-width="1.5" d="M0,-3.0v7 M-2.5,-0.5L0,-3.0L2.5,-0.5"/>
                </g>
                <g id="arrowLeft" xlink:href="#dirArrow" transform="rotate(270) translate(-36 17)" onmousedown="handlePan(-1,0)">
                  <use xlink:href="#rim" fill="#404040">
                        <set attributeName="fill" to="#808080" begin="arrowLeft.mouseover" end="arrowLeft.mouseout"/>
                  </use>
                  <path fill="none" stroke="white" stroke-width="1.5" d="M0,-3.0v7 M-2.5,-0.5L0,-3.0L2.5,-0.5"/>
                </g>
        </g>
        <svg viewBox="0 0 15 15" width="100%" height="30px" preserveAspectRatio="xMaxYMin meet">
         <g id="arrow_out" transform="scale(0.3 0.3)">
          <a xlink:href="classfspm_1_1config_1_1params_1_1structures_1_1TableStore__coll__graph_org.svg" target="_base">
           <rect id="button" ry="5" rx="5" y="6" x="6" height="38" width="38"
                fill="#f2f5e9" fill-opacity="0.5" stroke="#606060" stroke-width="1.0"/>
           <path id="arrow"
             d="M 11.500037,31.436501 C 11.940474,20.09759 22.043105,11.32322 32.158766,21.979434 L 37.068811,17.246167 C 37.068811,17.246167 37.088388,32 37.088388,32 L 22.160133,31.978069 C 22.160133,31.978069 26.997745,27.140456 26.997745,27.140456 C 18.528582,18.264221 13.291696,25.230495 11.500037,31.436501 z"
             style="fill:#404040;"/>
          </a>
         </g>
        </svg>
</svg>
