<?xml version="1.0" encoding="UTF-8" standalone="no"?>
<!DOCTYPE svg PUBLIC "-//W3C//DTD SVG 1.1//EN"
 "http://www.w3.org/Graphics/SVG/1.1/DTD/svg11.dtd">
<!-- Generated by graphviz version 2.43.0 (0)
 -->
<!-- Title: io.github.fruitcropxl.config.ConfigTestSuite Pages: 1 -->
<svg width="243pt" height="406pt"
 viewBox="0.00 0.00 243.00 406.00" xmlns="http://www.w3.org/2000/svg" xmlns:xlink="http://www.w3.org/1999/xlink">
<g id="graph0" class="graph" transform="scale(1 1) rotate(0) translate(4 402)">
<title>io.github.fruitcropxl.config.ConfigTestSuite</title>
<!-- Node1 -->
<g id="Node000001" class="node">
<title>Node1</title>
<g id="a_Node000001"><a xlink:title=" ">
<polygon fill="#999999" stroke="transparent" points="168,-75 26,-75 26,0 168,0 168,-75"/>
<text text-anchor="start" x="31" y="-62.5" font-family="Helvetica,sans-Serif" font-size="10.00">io.github.fruitcropxl.config.</text>
<text text-anchor="start" x="59" y="-51.5" font-family="Helvetica,sans-Serif" font-size="10.00">ConfigTestSuite</text>
<text text-anchor="start" x="95" y="-36.5" font-family="Helvetica,sans-Serif" font-size="10.00"> </text>
<text text-anchor="start" x="45" y="-21.5" font-family="Helvetica,sans-Serif" font-size="10.00">+</text>
<text text-anchor="start" x="73" y="-21.5" font-family="Helvetica,sans-Serif" font-size="10.00">println()</text>
<text text-anchor="start" x="45" y="-6.5" font-family="Helvetica,sans-Serif" font-size="10.00">+</text>
<text text-anchor="start" x="73" y="-6.5" font-family="Helvetica,sans-Serif" font-size="10.00">addGroups()</text>
<polygon fill="#666666" stroke="#666666" points="26,-46.5 26,-46.5 168,-46.5 168,-46.5 26,-46.5"/>
<polygon fill="#666666" stroke="#666666" points="26,-31.5 26,-31.5 168,-31.5 168,-31.5 26,-31.5"/>
<polygon fill="none" stroke="#666666" points="26,0 26,-75 168,-75 168,0 26,0"/>
</a>
</g>
</g>
<!-- Node2 -->
<g id="Node000002" class="node">
<title>Node2</title>
<g id="a_Node000002"><a xlink:href="classio_1_1github_1_1fruitcropxl_1_1config_1_1Config.html" target="_top" xlink:title="Configuration class for storing input configurations to be used in simulations.">
<polygon fill="white" stroke="transparent" points="168,-302 26,-302 26,-122 168,-122 168,-302"/>
<text text-anchor="start" x="31" y="-290" font-family="Helvetica,sans-Serif" font-size="10.00">io.github.fruitcropxl.config.</text>
<text text-anchor="start" x="81.5" y="-279" font-family="Helvetica,sans-Serif" font-size="10.00">Config</text>
<text text-anchor="start" x="95" y="-264" font-family="Helvetica,sans-Serif" font-size="10.00"> </text>
<text text-anchor="start" x="41.5" y="-249" font-family="Helvetica,sans-Serif" font-size="10.00">+</text>
<text text-anchor="start" x="66" y="-249" font-family="Helvetica,sans-Serif" font-size="10.00">reset()</text>
<text text-anchor="start" x="41.5" y="-234" font-family="Helvetica,sans-Serif" font-size="10.00">+</text>
<text text-anchor="start" x="66" y="-234" font-family="Helvetica,sans-Serif" font-size="10.00">addGroup()</text>
<text text-anchor="start" x="41.5" y="-219" font-family="Helvetica,sans-Serif" font-size="10.00">+</text>
<text text-anchor="start" x="66" y="-219" font-family="Helvetica,sans-Serif" font-size="10.00">addGroup()</text>
<text text-anchor="start" x="41.5" y="-204" font-family="Helvetica,sans-Serif" font-size="10.00">+</text>
<text text-anchor="start" x="66" y="-204" font-family="Helvetica,sans-Serif" font-size="10.00">addGroup()</text>
<text text-anchor="start" x="41.5" y="-189" font-family="Helvetica,sans-Serif" font-size="10.00">+</text>
<text text-anchor="start" x="66" y="-189" font-family="Helvetica,sans-Serif" font-size="10.00">removeGroup()</text>
<text text-anchor="start" x="41.5" y="-174" font-family="Helvetica,sans-Serif" font-size="10.00">+</text>
<text text-anchor="start" x="66" y="-174" font-family="Helvetica,sans-Serif" font-size="10.00">getInstance()</text>
<text text-anchor="start" x="41.5" y="-159" font-family="Helvetica,sans-Serif" font-size="10.00">~</text>
<text text-anchor="start" x="66" y="-159" font-family="Helvetica,sans-Serif" font-size="10.00">getGroup()</text>
<text text-anchor="start" x="44" y="-144" font-family="Helvetica,sans-Serif" font-size="10.00">&#45;</text>
<text text-anchor="start" x="66" y="-144" font-family="Helvetica,sans-Serif" font-size="10.00">Config()</text>
<text text-anchor="start" x="44" y="-129" font-family="Helvetica,sans-Serif" font-size="10.00">&#45;</text>
<text text-anchor="start" x="66" y="-129" font-family="Helvetica,sans-Serif" font-size="10.00">addGroup()</text>
<polygon fill="#666666" stroke="#666666" points="26,-274 26,-274 168,-274 168,-274 26,-274"/>
<polygon fill="#666666" stroke="#666666" points="26,-259 26,-259 168,-259 168,-259 26,-259"/>
<polygon fill="none" stroke="#666666" points="26,-122 26,-302 168,-302 168,-122 26,-122"/>
</a>
</g>
</g>
<!-- Node2&#45;&gt;Node1 -->
<g id="edge1_Node000001_Node000002" class="edge">
<title>Node2&#45;&gt;Node1</title>
<g id="a_edge1_Node000001_Node000002"><a xlink:title=" ">
<path fill="none" stroke="#63b8ff" d="M97,-121.97C97,-110.13 97,-98.36 97,-87.55"/>
<polygon fill="none" stroke="#63b8ff" points="97,-87.36 93,-81.36 97,-75.36 101,-81.36 97,-87.36"/>
</a>
</g>
<text text-anchor="middle" x="122" y="-96" font-family="Helvetica,sans-Serif" font-size="10.00" fill="grey"> +CONFIG</text>
</g>
<!-- Node2&#45;&gt;Node2 -->
<g id="edge3_Node000002_Node000002" class="edge">
<title>Node2&#45;&gt;Node2</title>
<g id="a_edge3_Node000002_Node000002"><a xlink:title=" ">
<path fill="none" stroke="#63b8ff" d="M168.23,-231.05C178.83,-228.08 186,-221.73 186,-212 186,-206.22 183.47,-201.63 179.2,-198.24"/>
<polygon fill="none" stroke="#63b8ff" points="179.04,-198.16 171.89,-199.16 168.23,-192.95 175.37,-191.95 179.04,-198.16"/>
</a>
</g>
<text text-anchor="middle" x="210.5" y="-209.5" font-family="Helvetica,sans-Serif" font-size="10.00" fill="grey"> &#45;instance</text>
</g>
<!-- Node3 -->
<g id="Node000003" class="node">
<title>Node3</title>
<g id="a_Node000003"><a xlink:href="classSerializable.html" target="_top" xlink:title=" ">
<polygon fill="white" stroke="transparent" points="68,-398 0,-398 0,-349 68,-349 68,-398"/>
<text text-anchor="start" x="5" y="-385.5" font-family="Helvetica,sans-Serif" font-size="10.00">Serializable</text>
<text text-anchor="start" x="32" y="-370.5" font-family="Helvetica,sans-Serif" font-size="10.00"> </text>
<text text-anchor="start" x="32" y="-355.5" font-family="Helvetica,sans-Serif" font-size="10.00"> </text>
<polygon fill="#666666" stroke="#666666" points="0,-380.5 0,-380.5 68,-380.5 68,-380.5 0,-380.5"/>
<polygon fill="#666666" stroke="#666666" points="0,-365.5 0,-365.5 68,-365.5 68,-365.5 0,-365.5"/>
<polygon fill="none" stroke="#666666" points="0,-349 0,-398 68,-398 68,-349 0,-349"/>
</a>
</g>
</g>
<!-- Node3&#45;&gt;Node2 -->
<g id="edge2_Node000002_Node000003" class="edge">
<title>Node3&#45;&gt;Node2</title>
<g id="a_edge2_Node000002_Node000003"><a xlink:title=" ">
<path fill="none" stroke="#63b8ff" d="M47.1,-339.34C51.48,-328.25 56.59,-315.3 61.84,-302"/>
<polygon fill="none" stroke="#63b8ff" points="43.71,-338.38 43.3,-348.97 50.22,-340.95 43.71,-338.38"/>
</a>
</g>
</g>
<!-- Node4 -->
<g id="Node000004" class="node">
<title>Node4</title>
<g id="a_Node000004"><a xlink:title=" ">
<polygon fill="white" stroke="transparent" points="234.5,-398 85.5,-398 85.5,-349 234.5,-349 234.5,-398"/>
<text text-anchor="start" x="91" y="-385.5" font-family="Helvetica,sans-Serif" font-size="10.00">Map&lt; String, ParamGroup &gt;</text>
<text text-anchor="start" x="158.5" y="-370.5" font-family="Helvetica,sans-Serif" font-size="10.00"> </text>
<text text-anchor="start" x="158.5" y="-355.5" font-family="Helvetica,sans-Serif" font-size="10.00"> </text>
<polygon fill="#666666" stroke="#666666" points="86,-380.5 86,-380.5 235,-380.5 235,-380.5 86,-380.5"/>
<polygon fill="#666666" stroke="#666666" points="86,-365.5 86,-365.5 235,-365.5 235,-365.5 86,-365.5"/>
<polygon fill="none" stroke="#666666" points="85.5,-349 85.5,-398 234.5,-398 234.5,-349 85.5,-349"/>
</a>
</g>
</g>
<!-- Node4&#45;&gt;Node2 -->
<g id="edge4_Node000002_Node000004" class="edge">
<title>Node4&#45;&gt;Node2</title>
<g id="a_edge4_Node000002_Node000004"><a xlink:title=" ">
<path fill="none" stroke="#63b8ff" d="M150.7,-348.97C146.75,-338.95 141.84,-326.52 136.61,-313.28"/>
<polygon fill="none" stroke="#63b8ff" points="136.56,-313.17 130.64,-309.05 132.16,-302 138.08,-306.12 136.56,-313.17"/>
</a>
</g>
<text text-anchor="middle" x="179.5" y="-323" font-family="Helvetica,sans-Serif" font-size="10.00" fill="grey"> &#45;paramGroups</text>
</g>
</g>
</svg>
