<?xml version="1.0" encoding="UTF-8" standalone="no"?>
<!DOCTYPE svg PUBLIC "-//W3C//DTD SVG 1.1//EN"
 "http://www.w3.org/Graphics/SVG/1.1/DTD/svg11.dtd">
<!-- Generated by graphviz version 2.43.0 (0)
 -->
<!-- Title: fspm.config.ConfigTestSuite Pages: 1 -->
<svg width="278pt" height="502pt"
 viewBox="0.00 0.00 277.50 502.00" xmlns="http://www.w3.org/2000/svg" xmlns:xlink="http://www.w3.org/1999/xlink">
<g id="graph0" class="graph" transform="scale(1 1) rotate(0) translate(4 498)">
<title>fspm.config.ConfigTestSuite</title>
<!-- Node1 -->
<g id="node1" class="node">
<title>Node1</title>
<g id="a_node1"><a xlink:title=" ">
<polygon fill="#bfbfbf" stroke="black" points="33.5,-0.5 33.5,-68.5 185.5,-68.5 185.5,-0.5 33.5,-0.5"/>
<text text-anchor="middle" x="109.5" y="-56.5" font-family="Helvetica,sans-Serif" font-size="10.00">fspm.config.ConfigTestSuite</text>
<polyline fill="none" stroke="black" points="33.5,-49.5 185.5,-49.5 "/>
<text text-anchor="middle" x="109.5" y="-37.5" font-family="Helvetica,sans-Serif" font-size="10.00"> </text>
<polyline fill="none" stroke="black" points="33.5,-30.5 185.5,-30.5 "/>
<text text-anchor="start" x="41.5" y="-18.5" font-family="Helvetica,sans-Serif" font-size="10.00">+ println()</text>
<text text-anchor="start" x="41.5" y="-7.5" font-family="Helvetica,sans-Serif" font-size="10.00">+ addGroups()</text>
</a>
</g>
</g>
<!-- Node2 -->
<g id="node2" class="node">
<title>Node2</title>
<g id="a_node2"><a xlink:href="classfspm_1_1config_1_1Config.html" target="_top" xlink:title="Configuration class for storing input configurations to be used in simulations.">
<polygon fill="none" stroke="black" points="56,-116.5 56,-261.5 163,-261.5 163,-116.5 56,-116.5"/>
<text text-anchor="middle" x="109.5" y="-249.5" font-family="Helvetica,sans-Serif" font-size="10.00">fspm.config.Config</text>
<polyline fill="none" stroke="black" points="56,-242.5 163,-242.5 "/>
<text text-anchor="middle" x="109.5" y="-230.5" font-family="Helvetica,sans-Serif" font-size="10.00"> </text>
<polyline fill="none" stroke="black" points="56,-223.5 163,-223.5 "/>
<text text-anchor="start" x="64" y="-211.5" font-family="Helvetica,sans-Serif" font-size="10.00">+ reset()</text>
<text text-anchor="start" x="64" y="-200.5" font-family="Helvetica,sans-Serif" font-size="10.00">+ addGroup()</text>
<text text-anchor="start" x="64" y="-189.5" font-family="Helvetica,sans-Serif" font-size="10.00">+ addGroup()</text>
<text text-anchor="start" x="64" y="-178.5" font-family="Helvetica,sans-Serif" font-size="10.00">+ addGroup()</text>
<text text-anchor="start" x="64" y="-167.5" font-family="Helvetica,sans-Serif" font-size="10.00">+ removeGroup()</text>
<text text-anchor="start" x="64" y="-156.5" font-family="Helvetica,sans-Serif" font-size="10.00">+ getInstance()</text>
<text text-anchor="start" x="64" y="-145.5" font-family="Helvetica,sans-Serif" font-size="10.00">~ getGroup()</text>
<text text-anchor="start" x="64" y="-134.5" font-family="Helvetica,sans-Serif" font-size="10.00">&#45; Config()</text>
<text text-anchor="start" x="64" y="-123.5" font-family="Helvetica,sans-Serif" font-size="10.00">&#45; addGroup()</text>
</a>
</g>
</g>
<!-- Node2&#45;&gt;Node1 -->
<g id="edge1" class="edge">
<title>Node2&#45;&gt;Node1</title>
<path fill="none" stroke="#404040" d="M109.5,-116.22C109.5,-104.09 109.5,-91.82 109.5,-80.62"/>
<polygon fill="none" stroke="#404040" points="109.5,-80.51 105.5,-74.51 109.5,-68.51 113.5,-74.51 109.5,-80.51"/>
<text text-anchor="middle" x="134.5" y="-90" font-family="Helvetica,sans-Serif" font-size="10.00"> +CONFIG</text>
</g>
<!-- Node2&#45;&gt;Node2 -->
<g id="edge4" class="edge">
<title>Node2&#45;&gt;Node2</title>
<path fill="none" stroke="#404040" d="M163.13,-206.2C173.58,-204.2 181,-198.47 181,-189 181,-183.53 178.52,-179.3 174.41,-176.32"/>
<polygon fill="none" stroke="#404040" points="174.27,-176.27 167.21,-177.75 163.13,-171.8 170.19,-170.32 174.27,-176.27"/>
<text text-anchor="middle" x="205.5" y="-186.5" font-family="Helvetica,sans-Serif" font-size="10.00"> &#45;instance</text>
</g>
<!-- Node3 -->
<g id="node3" class="node">
<title>Node3</title>
<g id="a_node3"><a xlink:title=" ">
<polygon fill="none" stroke="#bfbfbf" points="0,-309.5 0,-377.5 219,-377.5 219,-309.5 0,-309.5"/>
<text text-anchor="start" x="8" y="-365.5" font-family="Helvetica,sans-Serif" font-size="10.00">Map&lt; String, fspm.config.params.groups.</text>
<text text-anchor="middle" x="109.5" y="-354.5" font-family="Helvetica,sans-Serif" font-size="10.00">ParamGroup &gt;</text>
<polyline fill="none" stroke="#bfbfbf" points="0,-347.5 219,-347.5 "/>
<text text-anchor="middle" x="109.5" y="-335.5" font-family="Helvetica,sans-Serif" font-size="10.00"> </text>
<polyline fill="none" stroke="#bfbfbf" points="0,-328.5 219,-328.5 "/>
<text text-anchor="middle" x="109.5" y="-316.5" font-family="Helvetica,sans-Serif" font-size="10.00"> </text>
</a>
</g>
</g>
<!-- Node3&#45;&gt;Node2 -->
<g id="edge2" class="edge">
<title>Node3&#45;&gt;Node2</title>
<path fill="none" stroke="#404040" d="M109.5,-309.41C109.5,-298.72 109.5,-286.35 109.5,-273.7"/>
<polygon fill="none" stroke="#404040" points="109.5,-273.53 105.5,-267.53 109.5,-261.53 113.5,-267.53 109.5,-273.53"/>
<text text-anchor="middle" x="146" y="-283" font-family="Helvetica,sans-Serif" font-size="10.00"> &#45;paramGroups</text>
</g>
<!-- Node4 -->
<g id="node4" class="node">
<title>Node4</title>
<g id="a_node4"><a xlink:title=" ">
<polygon fill="none" stroke="#bfbfbf" points="90.5,-436.5 90.5,-493.5 128.5,-493.5 128.5,-436.5 90.5,-436.5"/>
<text text-anchor="middle" x="109.5" y="-481.5" font-family="Helvetica,sans-Serif" font-size="10.00">Map</text>
<polyline fill="none" stroke="#bfbfbf" points="90.5,-474.5 128.5,-474.5 "/>
<text text-anchor="middle" x="109.5" y="-462.5" font-family="Helvetica,sans-Serif" font-size="10.00"> </text>
<polyline fill="none" stroke="#bfbfbf" points="90.5,-455.5 128.5,-455.5 "/>
<text text-anchor="middle" x="109.5" y="-443.5" font-family="Helvetica,sans-Serif" font-size="10.00"> </text>
</a>
</g>
</g>
<!-- Node4&#45;&gt;Node3 -->
<g id="edge3" class="edge">
<title>Node4&#45;&gt;Node3</title>
<path fill="none" stroke="orange" d="M109.5,-425.95C109.5,-410.4 109.5,-392.58 109.5,-377.59"/>
<polygon fill="orange" stroke="orange" points="106,-426.28 109.5,-436.28 113,-426.28 106,-426.28"/>
<text text-anchor="start" x="109.5" y="-410" font-family="Helvetica,sans-Serif" font-size="10.00"> &lt; String, fspm::config</text>
<text text-anchor="middle" x="189.5" y="-399" font-family="Helvetica,sans-Serif" font-size="10.00">::params::groups::ParamGroup &gt;</text>
</g>
</g>
</svg>
