<?xml version="1.0" encoding="UTF-8" standalone="no"?>
<!DOCTYPE svg PUBLIC "-//W3C//DTD SVG 1.1//EN"
 "http://www.w3.org/Graphics/SVG/1.1/DTD/svg11.dtd">
<!-- Generated by graphviz version 2.43.0 (0)
 -->
<!-- Title: io.github.fruitcropxl.config.params.groups.DocumentHybridCategoryNameGroup Pages: 1 -->
<svg width="226pt" height="335pt"
 viewBox="0.00 0.00 226.00 335.00" xmlns="http://www.w3.org/2000/svg" xmlns:xlink="http://www.w3.org/1999/xlink">
<g id="graph0" class="graph" transform="scale(1 1) rotate(0) translate(4 331)">
<title>io.github.fruitcropxl.config.params.groups.DocumentHybridCategoryNameGroup</title>
<!-- Node1 -->
<g id="Node000001" class="node">
<title>Node1</title>
<g id="a_Node000001"><a xlink:title="Represents and encapsulates access for the document&#45;hybrid&#45;category&#45;name format.">
<polygon fill="#999999" stroke="transparent" points="218,-146 0,-146 0,0 218,0 218,-146"/>
<text text-anchor="start" x="5" y="-134" font-family="Helvetica,sans-Serif" font-size="10.00">io.github.fruitcropxl.config.params.groups.</text>
<text text-anchor="start" x="16" y="-123" font-family="Helvetica,sans-Serif" font-size="10.00">DocumentHybridCategoryNameGroup</text>
<text text-anchor="start" x="16.5" y="-108" font-family="Helvetica,sans-Serif" font-size="10.00">&#45;</text>
<text text-anchor="start" x="37" y="-108" font-family="Helvetica,sans-Serif" font-size="10.00">categoryStore</text>
<text text-anchor="start" x="16.5" y="-93" font-family="Helvetica,sans-Serif" font-size="10.00">&#45;</text>
<text text-anchor="start" x="37" y="-93" font-family="Helvetica,sans-Serif" font-size="10.00">tableStore</text>
<text text-anchor="start" x="14" y="-78" font-family="Helvetica,sans-Serif" font-size="10.00">+</text>
<text text-anchor="start" x="37" y="-78" font-family="Helvetica,sans-Serif" font-size="10.00">DocumentHybridCategoryName</text>
<text text-anchor="start" x="37" y="-67" font-family="Helvetica,sans-Serif" font-size="10.00">Group()</text>
<text text-anchor="start" x="14" y="-52" font-family="Helvetica,sans-Serif" font-size="10.00">+</text>
<text text-anchor="start" x="37" y="-52" font-family="Helvetica,sans-Serif" font-size="10.00">getCategoryStore()</text>
<text text-anchor="start" x="14" y="-37" font-family="Helvetica,sans-Serif" font-size="10.00">+</text>
<text text-anchor="start" x="37" y="-37" font-family="Helvetica,sans-Serif" font-size="10.00">getTableStore()</text>
<text text-anchor="start" x="14" y="-22" font-family="Helvetica,sans-Serif" font-size="10.00">+</text>
<text text-anchor="start" x="37" y="-22" font-family="Helvetica,sans-Serif" font-size="10.00">toString()</text>
<text text-anchor="start" x="14" y="-7" font-family="Helvetica,sans-Serif" font-size="10.00">+</text>
<text text-anchor="start" x="37" y="-7" font-family="Helvetica,sans-Serif" font-size="10.00">parse()</text>
<polygon fill="#666666" stroke="#666666" points="0,-118 0,-118 218,-118 218,-118 0,-118"/>
<polygon fill="#666666" stroke="#666666" points="0,-88 0,-88 35,-88 35,-88 0,-88"/>
<polygon fill="#666666" stroke="#666666" points="35,-88 35,-88 218,-88 218,-88 35,-88"/>
<polygon fill="none" stroke="#666666" points="0,0 0,-146 218,-146 218,0 0,0"/>
</a>
</g>
</g>
<!-- Node2 -->
<g id="Node000002" class="node">
<title>Node2</title>
<g id="a_Node000002"><a xlink:href="classio_1_1github_1_1fruitcropxl_1_1config_1_1params_1_1groups_1_1ParamGroup.html" target="_top" xlink:title="Parameter configuration class for storing parameter categories.">
<polygon fill="white" stroke="transparent" points="218,-242 0,-242 0,-182 218,-182 218,-242"/>
<text text-anchor="start" x="5" y="-230" font-family="Helvetica,sans-Serif" font-size="10.00">io.github.fruitcropxl.config.params.groups.</text>
<text text-anchor="start" x="78.5" y="-219" font-family="Helvetica,sans-Serif" font-size="10.00">ParamGroup</text>
<text text-anchor="start" x="107" y="-204" font-family="Helvetica,sans-Serif" font-size="10.00"> </text>
<text text-anchor="start" x="36" y="-189" font-family="Helvetica,sans-Serif" font-size="10.00">#</text>
<text text-anchor="start" x="81" y="-189" font-family="Helvetica,sans-Serif" font-size="10.00">ParamGroup()</text>
<polygon fill="#666666" stroke="#666666" points="0,-214 0,-214 218,-214 218,-214 0,-214"/>
<polygon fill="#666666" stroke="#666666" points="0,-199 0,-199 218,-199 218,-199 0,-199"/>
<polygon fill="none" stroke="#666666" points="0,-182 0,-242 218,-242 218,-182 0,-182"/>
</a>
</g>
</g>
<!-- Node2&#45;&gt;Node1 -->
<g id="edge1_Node000001_Node000002" class="edge">
<title>Node2&#45;&gt;Node1</title>
<g id="a_edge1_Node000001_Node000002"><a xlink:title=" ">
<path fill="none" stroke="#63b8ff" d="M109,-171.77C109,-163.7 109,-154.96 109,-146.14"/>
<polygon fill="none" stroke="#63b8ff" points="105.5,-171.95 109,-181.95 112.5,-171.95 105.5,-171.95"/>
</a>
</g>
</g>
<!-- Node3 -->
<g id="Node000003" class="node">
<title>Node3</title>
<g id="a_Node000003"><a xlink:href="classKeyElement.html" target="_top" xlink:title=" ">
<polygon fill="white" stroke="transparent" points="143.5,-327 74.5,-327 74.5,-278 143.5,-278 143.5,-327"/>
<text text-anchor="start" x="80" y="-314.5" font-family="Helvetica,sans-Serif" font-size="10.00">KeyElement</text>
<text text-anchor="start" x="107.5" y="-299.5" font-family="Helvetica,sans-Serif" font-size="10.00"> </text>
<text text-anchor="start" x="107.5" y="-284.5" font-family="Helvetica,sans-Serif" font-size="10.00"> </text>
<polygon fill="#666666" stroke="#666666" points="75,-309.5 75,-309.5 144,-309.5 144,-309.5 75,-309.5"/>
<polygon fill="#666666" stroke="#666666" points="75,-294.5 75,-294.5 144,-294.5 144,-294.5 75,-294.5"/>
<polygon fill="none" stroke="#666666" points="74.5,-278 74.5,-327 143.5,-327 143.5,-278 74.5,-278"/>
</a>
</g>
</g>
<!-- Node3&#45;&gt;Node2 -->
<g id="edge2_Node000002_Node000003" class="edge">
<title>Node3&#45;&gt;Node2</title>
<g id="a_edge2_Node000002_Node000003"><a xlink:title=" ">
<path fill="none" stroke="#63b8ff" d="M109,-267.55C109,-259.18 109,-250.28 109,-242.16"/>
<polygon fill="none" stroke="#63b8ff" points="105.5,-267.78 109,-277.78 112.5,-267.78 105.5,-267.78"/>
</a>
</g>
</g>
</g>
</svg>
