<?xml version="1.0" encoding="UTF-8" standalone="no"?>
<!DOCTYPE svg PUBLIC "-//W3C//DTD SVG 1.1//EN"
 "http://www.w3.org/Graphics/SVG/1.1/DTD/svg11.dtd">
<!-- Generated by graphviz version 2.43.0 (0)
 -->
<!-- Title: fspm.config.Config.checkContextsExists Pages: 1 -->
<svg width="712pt" height="176pt"
 viewBox="0.00 0.00 712.00 176.00" xmlns="http://www.w3.org/2000/svg" xmlns:xlink="http://www.w3.org/1999/xlink">
<g id="graph0" class="graph" transform="scale(1 1) rotate(0) translate(4 172)">
<title>fspm.config.Config.checkContextsExists</title>
<!-- Node1 -->
<g id="node1" class="node">
<title>Node1</title>
<g id="a_node1"><a xlink:title=" ">
<polygon fill="#bfbfbf" stroke="black" points="0,-71.5 0,-101.5 139,-101.5 139,-71.5 0,-71.5"/>
<text text-anchor="start" x="8" y="-89.5" font-family="Helvetica,sans-Serif" font-size="10.00">fspm.config.Config.check</text>
<text text-anchor="middle" x="69.5" y="-78.5" font-family="Helvetica,sans-Serif" font-size="10.00">ContextsExists</text>
</a>
</g>
</g>
<!-- Node2 -->
<g id="node2" class="node">
<title>Node2</title>
<g id="a_node2"><a xlink:href="classfspm_1_1config_1_1Config_a3024c037d3ee426c410cb46ee2cd3497.html#a3024c037d3ee426c410cb46ee2cd3497" target="_top" xlink:title=" ">
<polygon fill="none" stroke="black" points="187,-137.5 187,-167.5 326,-167.5 326,-137.5 187,-137.5"/>
<text text-anchor="start" x="195" y="-155.5" font-family="Helvetica,sans-Serif" font-size="10.00">fspm.config.Config.check</text>
<text text-anchor="middle" x="256.5" y="-144.5" font-family="Helvetica,sans-Serif" font-size="10.00">GroupContextExists</text>
</a>
</g>
</g>
<!-- Node1&#45;&gt;Node2 -->
<g id="edge1" class="edge">
<title>Node1&#45;&gt;Node2</title>
<path fill="none" stroke="midnightblue" d="M112.94,-101.64C139.97,-111.28 175.16,-123.84 203.81,-134.06"/>
<polygon fill="midnightblue" stroke="midnightblue" points="202.66,-137.37 213.25,-137.43 205.01,-130.77 202.66,-137.37"/>
</g>
<!-- Node3 -->
<g id="node3" class="node">
<title>Node3</title>
<g id="a_node3"><a xlink:href="classfspm_1_1config_1_1params_1_1ParamCategory_a4e9b4d10f0f293ae181dd272d302d9b4.html#a4e9b4d10f0f293ae181dd272d302d9b4" target="_top" xlink:title="Get generic Parameter with the given key.">
<polygon fill="none" stroke="black" points="374,-93.5 374,-123.5 521,-123.5 521,-93.5 374,-93.5"/>
<text text-anchor="start" x="382" y="-111.5" font-family="Helvetica,sans-Serif" font-size="10.00">fspm.config.params.Param</text>
<text text-anchor="middle" x="447.5" y="-100.5" font-family="Helvetica,sans-Serif" font-size="10.00">Category.get</text>
</a>
</g>
</g>
<!-- Node1&#45;&gt;Node3 -->
<g id="edge2" class="edge">
<title>Node1&#45;&gt;Node3</title>
<path fill="none" stroke="midnightblue" d="M139.03,-90.51C202.29,-94.21 296.37,-99.72 363.79,-103.66"/>
<polygon fill="midnightblue" stroke="midnightblue" points="363.77,-107.17 373.96,-104.26 364.18,-100.18 363.77,-107.17"/>
</g>
<!-- Node5 -->
<g id="node5" class="node">
<title>Node5</title>
<g id="a_node5"><a xlink:href="classfspm_1_1config_1_1params_1_1ParamGroup_a4ac641bb901b13ad2186c3d4fe0a75c9.html#a4ac641bb901b13ad2186c3d4fe0a75c9" target="_top" xlink:title=" ">
<polygon fill="none" stroke="black" points="175.5,-49.5 175.5,-79.5 337.5,-79.5 337.5,-49.5 175.5,-49.5"/>
<text text-anchor="start" x="183.5" y="-67.5" font-family="Helvetica,sans-Serif" font-size="10.00">fspm.config.params.Param</text>
<text text-anchor="middle" x="256.5" y="-56.5" font-family="Helvetica,sans-Serif" font-size="10.00">Group.getCategoryWithParam</text>
</a>
</g>
</g>
<!-- Node1&#45;&gt;Node5 -->
<g id="edge4" class="edge">
<title>Node1&#45;&gt;Node5</title>
<path fill="none" stroke="midnightblue" d="M139.12,-78.34C147.72,-77.32 156.6,-76.26 165.46,-75.21"/>
<polygon fill="midnightblue" stroke="midnightblue" points="165.91,-78.68 175.43,-74.02 165.09,-71.73 165.91,-78.68"/>
</g>
<!-- Node7 -->
<g id="node7" class="node">
<title>Node7</title>
<g id="a_node7"><a xlink:href="classfspm_1_1config_1_1Config_aa3784bee8f29e4340b60735055eb41a6.html#aa3784bee8f29e4340b60735055eb41a6" target="_top" xlink:title=" ">
<polygon fill="none" stroke="black" points="175,-0.5 175,-30.5 338,-30.5 338,-0.5 175,-0.5"/>
<text text-anchor="start" x="183" y="-18.5" font-family="Helvetica,sans-Serif" font-size="10.00">fspm.config.Config.isCategory</text>
<text text-anchor="middle" x="256.5" y="-7.5" font-family="Helvetica,sans-Serif" font-size="10.00">ContextExists</text>
</a>
</g>
</g>
<!-- Node1&#45;&gt;Node7 -->
<g id="edge7" class="edge">
<title>Node1&#45;&gt;Node7</title>
<path fill="none" stroke="midnightblue" d="M101.14,-71.42C121.74,-61.61 149.64,-48.93 175,-39.5 180.43,-37.48 186.11,-35.51 191.84,-33.62"/>
<polygon fill="midnightblue" stroke="midnightblue" points="193.03,-36.92 201.48,-30.53 190.89,-30.25 193.03,-36.92"/>
</g>
<!-- Node4 -->
<g id="node4" class="node">
<title>Node4</title>
<g id="a_node4"><a xlink:href="classfspm_1_1config_1_1params_1_1ParamCategory_aac7a0ce7ab7fafe895ba689f644818ab.html#aac7a0ce7ab7fafe895ba689f644818ab" target="_top" xlink:title=" ">
<polygon fill="none" stroke="black" points="557,-93.5 557,-123.5 704,-123.5 704,-93.5 557,-93.5"/>
<text text-anchor="start" x="565" y="-111.5" font-family="Helvetica,sans-Serif" font-size="10.00">fspm.config.params.Param</text>
<text text-anchor="middle" x="630.5" y="-100.5" font-family="Helvetica,sans-Serif" font-size="10.00">Category.getKey</text>
</a>
</g>
</g>
<!-- Node3&#45;&gt;Node4 -->
<g id="edge3" class="edge">
<title>Node3&#45;&gt;Node4</title>
<path fill="none" stroke="midnightblue" d="M521.08,-108.5C529.56,-108.5 538.26,-108.5 546.87,-108.5"/>
<polygon fill="midnightblue" stroke="midnightblue" points="546.91,-112 556.91,-108.5 546.91,-105 546.91,-112"/>
</g>
<!-- Node5&#45;&gt;Node3 -->
<g id="edge5" class="edge">
<title>Node5&#45;&gt;Node3</title>
<path fill="none" stroke="midnightblue" d="M322.01,-79.52C338.04,-83.25 355.36,-87.28 371.83,-91.12"/>
<polygon fill="midnightblue" stroke="midnightblue" points="371.42,-94.62 381.96,-93.47 373.01,-87.8 371.42,-94.62"/>
</g>
<!-- Node6 -->
<g id="node6" class="node">
<title>Node6</title>
<g id="a_node6"><a xlink:href="classfspm_1_1config_1_1params_1_1ParamGroup_a87d9e7182014d1d981c4067083815878.html#a87d9e7182014d1d981c4067083815878" target="_top" xlink:title=" ">
<polygon fill="none" stroke="black" points="374,-44.5 374,-74.5 521,-74.5 521,-44.5 374,-44.5"/>
<text text-anchor="start" x="382" y="-62.5" font-family="Helvetica,sans-Serif" font-size="10.00">fspm.config.params.Param</text>
<text text-anchor="middle" x="447.5" y="-51.5" font-family="Helvetica,sans-Serif" font-size="10.00">Group.getKey</text>
</a>
</g>
</g>
<!-- Node5&#45;&gt;Node6 -->
<g id="edge6" class="edge">
<title>Node5&#45;&gt;Node6</title>
<path fill="none" stroke="midnightblue" d="M337.65,-62.38C346.26,-62.15 355.03,-61.92 363.66,-61.69"/>
<polygon fill="midnightblue" stroke="midnightblue" points="363.82,-65.19 373.72,-61.43 363.63,-58.19 363.82,-65.19"/>
</g>
</g>
</svg>
