<?xml version="1.0" encoding="UTF-8" standalone="no"?>
<!DOCTYPE svg PUBLIC "-//W3C//DTD SVG 1.1//EN"
 "http://www.w3.org/Graphics/SVG/1.1/DTD/svg11.dtd">
<!-- Generated by graphviz version 2.43.0 (0)
 -->
<!-- Title: fspm.config.params.Parameter.asArray Pages: 1 -->
<!--zoomable 372 -->
<svg id="main" version="1.1" xmlns="http://www.w3.org/2000/svg" xmlns:xlink="http://www.w3.org/1999/xlink" xml:space="preserve" onload="init(evt)">
<style type="text/css"><![CDATA[
.edge:hover path { stroke: red; }
.edge:hover polygon { stroke: red; fill: red; }
]]></style>
<script type="text/javascript"><![CDATA[
var edges = document.getElementsByTagName('g');
if (edges && edges.length) {
  for (var i=0;i<edges.length;i++) {
    if (edges[i].id.substr(0,4)=='edge') {
      edges[i].setAttribute('class','edge');
    }
  }
}
]]></script>
        <defs>
                <circle id="rim" cx="0" cy="0" r="7"/>
                <circle id="rim2" cx="0" cy="0" r="3.5"/>
                <g id="zoomPlus">
                        <use xlink:href="#rim" fill="#404040">
                                <set attributeName="fill" to="#808080" begin="zoomplus.mouseover" end="zoomplus.mouseout"/>
                        </use>
                        <path d="M-4,0h8M0,-4v8" fill="none" stroke="white" stroke-width="1.5" pointer-events="none"/>
                </g>
                <g id="zoomMin">
                        <use xlink:href="#rim" fill="#404040">
                                <set attributeName="fill" to="#808080" begin="zoomminus.mouseover" end="zoomminus.mouseout"/>
                        </use>
                        <path d="M-4,0h8" fill="none" stroke="white" stroke-width="1.5" pointer-events="none"/>
                </g>
                <g id="dirArrow">
                        <path fill="none" stroke="white" stroke-width="1.5" d="M0,-3.0v7 M-2.5,-0.5L0,-3.0L2.5,-0.5"/>
                </g>
               <g id="resetDef">
                       <use xlink:href="#rim2" fill="#404040">
                               <set attributeName="fill" to="#808080" begin="reset.mouseover" end="reset.mouseout"/>
                       </use>
               </g>
        </defs>

<script type="text/javascript">
var viewWidth = 1047;
var viewHeight = 372;
var sectionId = 'dynsection-1';
</script>
<script xlink:href="svgpan.js"/>
<svg id="graph" class="graph">
<g id="viewport">
<title>fspm.config.params.Parameter.asArray</title>
<!-- Node1 -->
<g id="node1" class="node">
<title>Node1</title>
<g id="a_node1"><a xlink:title="Generic method for getting arrays of a given type.">
<polygon fill="#bfbfbf" stroke="black" points="859,-161.5 859,-191.5 1039,-191.5 1039,-161.5 859,-161.5"/>
<text text-anchor="start" x="867" y="-179.5" font-family="Helvetica,sans-Serif" font-size="10.00">fspm.config.params.Parameter.as</text>
<text text-anchor="middle" x="949" y="-168.5" font-family="Helvetica,sans-Serif" font-size="10.00">Array</text>
</a>
</g>
</g>
<!-- Node2 -->
<g id="node2" class="node">
<title>Node2</title>
<g id="a_node2"><a xlink:href="classfspm_1_1config_1_1params_1_1Parameter_a7bd98e842e2c8e7283b17017707da9be.html#a7bd98e842e2c8e7283b17017707da9be" target="_top" xlink:title=" ">
<polygon fill="none" stroke="black" points="643,-308.5 643,-338.5 823,-338.5 823,-308.5 643,-308.5"/>
<text text-anchor="start" x="651" y="-326.5" font-family="Helvetica,sans-Serif" font-size="10.00">fspm.config.params.Parameter.as</text>
<text text-anchor="middle" x="733" y="-315.5" font-family="Helvetica,sans-Serif" font-size="10.00">BooleanArray</text>
</a>
</g>
</g>
<!-- Node1&#45;&gt;Node2 -->
<g id="edge1" class="edge">
<title>Node1&#45;&gt;Node2</title>
<path fill="none" stroke="midnightblue" d="M923.19,-198.29C898.65,-219.32 859.56,-251.43 823,-275.5 804.52,-287.66 782.68,-299.48 765.25,-308.35"/>
<polygon fill="midnightblue" stroke="midnightblue" points="925.65,-200.8 930.93,-191.61 921.07,-195.5 925.65,-200.8"/>
</g>
<!-- Node6 -->
<g id="node6" class="node">
<title>Node6</title>
<g id="a_node6"><a xlink:href="classfspm_1_1config_1_1params_1_1Parameter_a9602723e39e140c1a5188f3f6bafacfa.html#a9602723e39e140c1a5188f3f6bafacfa" target="_top" xlink:title=" ">
<polygon fill="none" stroke="black" points="643,-235.5 643,-265.5 823,-265.5 823,-235.5 643,-235.5"/>
<text text-anchor="start" x="651" y="-253.5" font-family="Helvetica,sans-Serif" font-size="10.00">fspm.config.params.Parameter.as</text>
<text text-anchor="middle" x="733" y="-242.5" font-family="Helvetica,sans-Serif" font-size="10.00">DoubleArray</text>
</a>
</g>
</g>
<!-- Node1&#45;&gt;Node6 -->
<g id="edge5" class="edge">
<title>Node1&#45;&gt;Node6</title>
<path fill="none" stroke="midnightblue" d="M904.2,-195.48C880.43,-205.41 850.38,-217.37 823,-226.5 813.59,-229.64 803.51,-232.67 793.65,-235.45"/>
<polygon fill="midnightblue" stroke="midnightblue" points="905.79,-198.61 913.65,-191.5 903.08,-192.16 905.79,-198.61"/>
</g>
<!-- Node10 -->
<g id="node10" class="node">
<title>Node10</title>
<g id="a_node10"><a xlink:href="classfspm_1_1config_1_1params_1_1Parameter_a05e8bc0ef3f057f90004b4ec4b3d0efe.html#a05e8bc0ef3f057f90004b4ec4b3d0efe" target="_top" xlink:title=" ">
<polygon fill="none" stroke="black" points="643,-186.5 643,-216.5 823,-216.5 823,-186.5 643,-186.5"/>
<text text-anchor="start" x="651" y="-204.5" font-family="Helvetica,sans-Serif" font-size="10.00">fspm.config.params.Parameter.as</text>
<text text-anchor="middle" x="733" y="-193.5" font-family="Helvetica,sans-Serif" font-size="10.00">IntegerArray</text>
</a>
</g>
</g>
<!-- Node1&#45;&gt;Node10 -->
<g id="edge9" class="edge">
<title>Node1&#45;&gt;Node10</title>
<path fill="none" stroke="midnightblue" d="M848.77,-188.09C840.19,-189.09 831.55,-190.1 823.06,-191.1"/>
<polygon fill="midnightblue" stroke="midnightblue" points="849.27,-191.56 858.79,-186.92 848.46,-184.61 849.27,-191.56"/>
</g>
<!-- Node14 -->
<g id="node14" class="node">
<title>Node14</title>
<g id="a_node14"><a xlink:href="classfspm_1_1config_1_1params_1_1Parameter_a80c0cb3ad8030dd29fdc38382dffbb61.html#a80c0cb3ad8030dd29fdc38382dffbb61" target="_top" xlink:title=" ">
<polygon fill="none" stroke="black" points="643,-137.5 643,-167.5 823,-167.5 823,-137.5 643,-137.5"/>
<text text-anchor="start" x="651" y="-155.5" font-family="Helvetica,sans-Serif" font-size="10.00">fspm.config.params.Parameter.as</text>
<text text-anchor="middle" x="733" y="-144.5" font-family="Helvetica,sans-Serif" font-size="10.00">StringArray</text>
</a>
</g>
</g>
<!-- Node1&#45;&gt;Node14 -->
<g id="edge13" class="edge">
<title>Node1&#45;&gt;Node14</title>
<path fill="none" stroke="midnightblue" d="M848.77,-165.37C840.19,-164.41 831.55,-163.44 823.06,-162.49"/>
<polygon fill="midnightblue" stroke="midnightblue" points="848.47,-168.86 858.79,-166.5 849.25,-161.9 848.47,-168.86"/>
</g>
<!-- Node17 -->
<g id="node17" class="node">
<title>Node17</title>
<g id="a_node17"><a xlink:href="classfspm_1_1config_1_1params_1_1ParamCategory_addcc002dbf650fbc675a1ef472dfa088.html#addcc002dbf650fbc675a1ef472dfa088" target="_top" xlink:title=" ">
<polygon fill="none" stroke="black" points="659.5,-88.5 659.5,-118.5 806.5,-118.5 806.5,-88.5 659.5,-88.5"/>
<text text-anchor="start" x="667.5" y="-106.5" font-family="Helvetica,sans-Serif" font-size="10.00">fspm.config.params.Param</text>
<text text-anchor="middle" x="733" y="-95.5" font-family="Helvetica,sans-Serif" font-size="10.00">Category.getArray</text>
</a>
</g>
</g>
<!-- Node1&#45;&gt;Node17 -->
<g id="edge16" class="edge">
<title>Node1&#45;&gt;Node17</title>
<path fill="none" stroke="midnightblue" d="M903.15,-157.53C879.53,-147.9 849.95,-136.38 823,-127.5 813.58,-124.39 803.5,-121.38 793.63,-118.61"/>
<polygon fill="midnightblue" stroke="midnightblue" points="901.97,-160.83 912.55,-161.4 904.63,-154.36 901.97,-160.83"/>
</g>
<!-- Node21 -->
<g id="node21" class="node">
<title>Node21</title>
<g id="a_node21"><a xlink:href="classfspm_1_1config_1_1params_1_1ParamTable_a941e459792096daaec6f6525f4e130df.html#a941e459792096daaec6f6525f4e130df" target="_top" xlink:title=" ">
<polygon fill="none" stroke="black" points="659.5,-39.5 659.5,-69.5 806.5,-69.5 806.5,-39.5 659.5,-39.5"/>
<text text-anchor="start" x="667.5" y="-57.5" font-family="Helvetica,sans-Serif" font-size="10.00">fspm.config.params.Param</text>
<text text-anchor="middle" x="733" y="-46.5" font-family="Helvetica,sans-Serif" font-size="10.00">Table.getArray</text>
</a>
</g>
</g>
<!-- Node1&#45;&gt;Node21 -->
<g id="edge21" class="edge">
<title>Node1&#45;&gt;Node21</title>
<path fill="none" stroke="midnightblue" d="M925.46,-154.17C901.82,-131.94 862.66,-98.35 823,-78.5 816.27,-75.13 809.02,-72.19 801.65,-69.64"/>
<polygon fill="midnightblue" stroke="midnightblue" points="923.21,-156.86 932.86,-161.23 928.04,-151.8 923.21,-156.86"/>
</g>
<!-- Node3 -->
<g id="node3" class="node">
<title>Node3</title>
<g id="a_node3"><a xlink:href="classfspm_1_1config_1_1params_1_1ParamCategory_a13e0ff70b1e28c8f3533eaee62c6abf3.html#a13e0ff70b1e28c8f3533eaee62c6abf3" target="_top" xlink:title=" ">
<polygon fill="none" stroke="black" points="449.5,-320.5 449.5,-350.5 596.5,-350.5 596.5,-320.5 449.5,-320.5"/>
<text text-anchor="start" x="457.5" y="-338.5" font-family="Helvetica,sans-Serif" font-size="10.00">fspm.config.params.Param</text>
<text text-anchor="middle" x="523" y="-327.5" font-family="Helvetica,sans-Serif" font-size="10.00">Category.getBooleanArray</text>
</a>
</g>
</g>
<!-- Node2&#45;&gt;Node3 -->
<g id="edge2" class="edge">
<title>Node2&#45;&gt;Node3</title>
<path fill="none" stroke="midnightblue" d="M632.7,-329.23C620.54,-329.93 608.3,-330.64 596.63,-331.31"/>
<polygon fill="midnightblue" stroke="midnightblue" points="633.1,-332.71 642.88,-328.64 632.7,-325.72 633.1,-332.71"/>
</g>
<!-- Node4 -->
<g id="node4" class="node">
<title>Node4</title>
<g id="a_node4"><a xlink:href="classfspm_1_1config_1_1params_1_1structures_1_1CategoryStore_aca9abcc056b90dadb0c476b829f77f92.html#aca9abcc056b90dadb0c476b829f77f92" target="_top" xlink:title=" ">
<polygon fill="none" stroke="black" points="222,-333.5 222,-363.5 393,-363.5 393,-333.5 222,-333.5"/>
<text text-anchor="start" x="230" y="-351.5" font-family="Helvetica,sans-Serif" font-size="10.00">fspm.config.params.structures.</text>
<text text-anchor="middle" x="307.5" y="-340.5" font-family="Helvetica,sans-Serif" font-size="10.00">CategoryStore.getBooleanArray</text>
</a>
</g>
</g>
<!-- Node3&#45;&gt;Node4 -->
<g id="edge3" class="edge">
<title>Node3&#45;&gt;Node4</title>
<path fill="none" stroke="midnightblue" d="M439.08,-340.55C423.97,-341.47 408.19,-342.43 393.03,-343.35"/>
<polygon fill="midnightblue" stroke="midnightblue" points="439.65,-344.02 449.42,-339.92 439.23,-337.03 439.65,-344.02"/>
</g>
<!-- Node5 -->
<g id="node5" class="node">
<title>Node5</title>
<g id="a_node5"><a xlink:href="classfspm_1_1config_1_1tests_1_1ParamAccess_1_1ArrayTest_aa473b3f7e16319b82590bc9558a94bd4.html#aa473b3f7e16319b82590bc9558a94bd4" target="_top" xlink:title=" ">
<polygon fill="none" stroke="black" points="0,-333.5 0,-363.5 176,-363.5 176,-333.5 0,-333.5"/>
<text text-anchor="start" x="8" y="-351.5" font-family="Helvetica,sans-Serif" font-size="10.00">fspm.config.tests.ParamAccess.</text>
<text text-anchor="middle" x="88" y="-340.5" font-family="Helvetica,sans-Serif" font-size="10.00">ArrayTest.testIncorrectArrayType</text>
</a>
</g>
</g>
<!-- Node4&#45;&gt;Node5 -->
<g id="edge4" class="edge">
<title>Node4&#45;&gt;Node5</title>
<path fill="none" stroke="midnightblue" d="M211.57,-348.5C199.86,-348.5 187.94,-348.5 176.35,-348.5"/>
<polygon fill="midnightblue" stroke="midnightblue" points="211.79,-352 221.79,-348.5 211.79,-345 211.79,-352"/>
</g>
<!-- Node7 -->
<g id="node7" class="node">
<title>Node7</title>
<g id="a_node7"><a xlink:href="classfspm_1_1config_1_1params_1_1ParamCategory_a480fdf398400180423780ae25a3c4656.html#a480fdf398400180423780ae25a3c4656" target="_top" xlink:title=" ">
<polygon fill="none" stroke="black" points="449.5,-235.5 449.5,-265.5 596.5,-265.5 596.5,-235.5 449.5,-235.5"/>
<text text-anchor="start" x="457.5" y="-253.5" font-family="Helvetica,sans-Serif" font-size="10.00">fspm.config.params.Param</text>
<text text-anchor="middle" x="523" y="-242.5" font-family="Helvetica,sans-Serif" font-size="10.00">Category.getDoubleArray</text>
</a>
</g>
</g>
<!-- Node6&#45;&gt;Node7 -->
<g id="edge6" class="edge">
<title>Node6&#45;&gt;Node7</title>
<path fill="none" stroke="midnightblue" d="M632.7,-250.5C620.54,-250.5 608.3,-250.5 596.63,-250.5"/>
<polygon fill="midnightblue" stroke="midnightblue" points="632.88,-254 642.88,-250.5 632.88,-247 632.88,-254"/>
</g>
<!-- Node8 -->
<g id="node8" class="node">
<title>Node8</title>
<g id="a_node8"><a xlink:href="classfspm_1_1config_1_1params_1_1structures_1_1CategoryStore_a9950176b2d1474857fac4ca1f0cb58ea.html#a9950176b2d1474857fac4ca1f0cb58ea" target="_top" xlink:title=" ">
<polygon fill="none" stroke="black" points="223.5,-284.5 223.5,-314.5 391.5,-314.5 391.5,-284.5 223.5,-284.5"/>
<text text-anchor="start" x="231.5" y="-302.5" font-family="Helvetica,sans-Serif" font-size="10.00">fspm.config.params.structures.</text>
<text text-anchor="middle" x="307.5" y="-291.5" font-family="Helvetica,sans-Serif" font-size="10.00">CategoryStore.getDoubleArray</text>
</a>
</g>
</g>
<!-- Node7&#45;&gt;Node8 -->
<g id="edge7" class="edge">
<title>Node7&#45;&gt;Node8</title>
<path fill="none" stroke="midnightblue" d="M446.49,-267.83C422.78,-273.27 396.83,-279.23 373.88,-284.49"/>
<polygon fill="midnightblue" stroke="midnightblue" points="447.53,-271.18 456.49,-265.53 445.96,-264.36 447.53,-271.18"/>
</g>
<!-- Node9 -->
<g id="node9" class="node">
<title>Node9</title>
<g id="a_node9"><a xlink:href="classfspm_1_1config_1_1tests_1_1ParamAccess_1_1ArrayTest_afdf9d3f4bfbd8e16cf4f4b46dfe3047b.html#afdf9d3f4bfbd8e16cf4f4b46dfe3047b" target="_top" xlink:title=" ">
<polygon fill="none" stroke="black" points="212,-235.5 212,-265.5 403,-265.5 403,-235.5 212,-235.5"/>
<text text-anchor="start" x="220" y="-253.5" font-family="Helvetica,sans-Serif" font-size="10.00">fspm.config.tests.ParamAccess.</text>
<text text-anchor="middle" x="307.5" y="-242.5" font-family="Helvetica,sans-Serif" font-size="10.00">ArrayTest.testGetDoubleArrayCases</text>
</a>
</g>
</g>
<!-- Node7&#45;&gt;Node9 -->
<g id="edge8" class="edge">
<title>Node7&#45;&gt;Node9</title>
<path fill="none" stroke="midnightblue" d="M439.18,-250.5C427.38,-250.5 415.18,-250.5 403.18,-250.5"/>
<polygon fill="midnightblue" stroke="midnightblue" points="439.42,-254 449.42,-250.5 439.42,-247 439.42,-254"/>
</g>
<!-- Node11 -->
<g id="node11" class="node">
<title>Node11</title>
<g id="a_node11"><a xlink:href="classfspm_1_1config_1_1params_1_1ParamCategory_a38b2d59e68a994758753fbe4e590a9d8.html#a38b2d59e68a994758753fbe4e590a9d8" target="_top" xlink:title=" ">
<polygon fill="none" stroke="black" points="449.5,-186.5 449.5,-216.5 596.5,-216.5 596.5,-186.5 449.5,-186.5"/>
<text text-anchor="start" x="457.5" y="-204.5" font-family="Helvetica,sans-Serif" font-size="10.00">fspm.config.params.Param</text>
<text text-anchor="middle" x="523" y="-193.5" font-family="Helvetica,sans-Serif" font-size="10.00">Category.getIntegerArray</text>
</a>
</g>
</g>
<!-- Node10&#45;&gt;Node11 -->
<g id="edge10" class="edge">
<title>Node10&#45;&gt;Node11</title>
<path fill="none" stroke="midnightblue" d="M632.7,-201.5C620.54,-201.5 608.3,-201.5 596.63,-201.5"/>
<polygon fill="midnightblue" stroke="midnightblue" points="632.88,-205 642.88,-201.5 632.88,-198 632.88,-205"/>
</g>
<!-- Node12 -->
<g id="node12" class="node">
<title>Node12</title>
<g id="a_node12"><a xlink:href="classfspm_1_1config_1_1params_1_1structures_1_1CategoryStore_a6759242817483869cfef2820dfb8afe4.html#a6759242817483869cfef2820dfb8afe4" target="_top" xlink:title=" ">
<polygon fill="none" stroke="black" points="223.5,-186.5 223.5,-216.5 391.5,-216.5 391.5,-186.5 223.5,-186.5"/>
<text text-anchor="start" x="231.5" y="-204.5" font-family="Helvetica,sans-Serif" font-size="10.00">fspm.config.params.structures.</text>
<text text-anchor="middle" x="307.5" y="-193.5" font-family="Helvetica,sans-Serif" font-size="10.00">CategoryStore.getIntegerArray</text>
</a>
</g>
</g>
<!-- Node11&#45;&gt;Node12 -->
<g id="edge11" class="edge">
<title>Node11&#45;&gt;Node12</title>
<path fill="none" stroke="midnightblue" d="M439.25,-201.5C423.59,-201.5 407.21,-201.5 391.54,-201.5"/>
<polygon fill="midnightblue" stroke="midnightblue" points="439.42,-205 449.42,-201.5 439.42,-198 439.42,-205"/>
</g>
<!-- Node13 -->
<g id="node13" class="node">
<title>Node13</title>
<g id="a_node13"><a xlink:href="classfspm_1_1config_1_1tests_1_1ParamAccess_1_1ArrayTest_a7f034099689706d2e263f1d7d04b0f9a.html#a7f034099689706d2e263f1d7d04b0f9a" target="_top" xlink:title=" ">
<polygon fill="none" stroke="black" points="2.5,-140.5 2.5,-170.5 173.5,-170.5 173.5,-140.5 2.5,-140.5"/>
<text text-anchor="start" x="10.5" y="-158.5" font-family="Helvetica,sans-Serif" font-size="10.00">fspm.config.tests.ParamAccess.</text>
<text text-anchor="middle" x="88" y="-147.5" font-family="Helvetica,sans-Serif" font-size="10.00">ArrayTest.testGetArrays</text>
</a>
</g>
</g>
<!-- Node12&#45;&gt;Node13 -->
<g id="edge12" class="edge">
<title>Node12&#45;&gt;Node13</title>
<path fill="none" stroke="midnightblue" d="M225.23,-184.31C203.8,-179.78 180.85,-174.93 160.01,-170.52"/>
<polygon fill="midnightblue" stroke="midnightblue" points="224.77,-187.79 235.28,-186.44 226.22,-180.94 224.77,-187.79"/>
</g>
<!-- Node15 -->
<g id="node15" class="node">
<title>Node15</title>
<g id="a_node15"><a xlink:href="classfspm_1_1config_1_1params_1_1ParamCategory_acfe96862fe8cea782cd628ff73071ed5.html#acfe96862fe8cea782cd628ff73071ed5" target="_top" xlink:title=" ">
<polygon fill="none" stroke="black" points="449.5,-137.5 449.5,-167.5 596.5,-167.5 596.5,-137.5 449.5,-137.5"/>
<text text-anchor="start" x="457.5" y="-155.5" font-family="Helvetica,sans-Serif" font-size="10.00">fspm.config.params.Param</text>
<text text-anchor="middle" x="523" y="-144.5" font-family="Helvetica,sans-Serif" font-size="10.00">Category.getStringArray</text>
</a>
</g>
</g>
<!-- Node14&#45;&gt;Node15 -->
<g id="edge14" class="edge">
<title>Node14&#45;&gt;Node15</title>
<path fill="none" stroke="midnightblue" d="M632.7,-152.5C620.54,-152.5 608.3,-152.5 596.63,-152.5"/>
<polygon fill="midnightblue" stroke="midnightblue" points="632.88,-156 642.88,-152.5 632.88,-149 632.88,-156"/>
</g>
<!-- Node16 -->
<g id="node16" class="node">
<title>Node16</title>
<g id="a_node16"><a xlink:href="classfspm_1_1config_1_1params_1_1structures_1_1CategoryStore_a9061f43fab298f2399489236e31c198d.html#a9061f43fab298f2399489236e31c198d" target="_top" xlink:title=" ">
<polygon fill="none" stroke="black" points="223.5,-137.5 223.5,-167.5 391.5,-167.5 391.5,-137.5 223.5,-137.5"/>
<text text-anchor="start" x="231.5" y="-155.5" font-family="Helvetica,sans-Serif" font-size="10.00">fspm.config.params.structures.</text>
<text text-anchor="middle" x="307.5" y="-144.5" font-family="Helvetica,sans-Serif" font-size="10.00">CategoryStore.getStringArray</text>
</a>
</g>
</g>
<!-- Node15&#45;&gt;Node16 -->
<g id="edge15" class="edge">
<title>Node15&#45;&gt;Node16</title>
<path fill="none" stroke="midnightblue" d="M439.25,-152.5C423.59,-152.5 407.21,-152.5 391.54,-152.5"/>
<polygon fill="midnightblue" stroke="midnightblue" points="439.42,-156 449.42,-152.5 439.42,-149 439.42,-156"/>
</g>
<!-- Node18 -->
<g id="node18" class="node">
<title>Node18</title>
<g id="a_node18"><a xlink:href="classfspm_1_1config_1_1params_1_1structures_1_1CategoryStore_ac2aa1d4fec9c78f0e9433016759c39e0.html#ac2aa1d4fec9c78f0e9433016759c39e0" target="_top" xlink:title=" ">
<polygon fill="none" stroke="black" points="439,-69.5 439,-99.5 607,-99.5 607,-69.5 439,-69.5"/>
<text text-anchor="start" x="447" y="-87.5" font-family="Helvetica,sans-Serif" font-size="10.00">fspm.config.params.structures.</text>
<text text-anchor="middle" x="523" y="-76.5" font-family="Helvetica,sans-Serif" font-size="10.00">CategoryStore.getArray</text>
</a>
</g>
</g>
<!-- Node17&#45;&gt;Node18 -->
<g id="edge17" class="edge">
<title>Node17&#45;&gt;Node18</title>
<path fill="none" stroke="midnightblue" d="M649.24,-95.94C635.35,-94.67 620.93,-93.35 607.03,-92.08"/>
<polygon fill="midnightblue" stroke="midnightblue" points="648.97,-99.43 659.25,-96.85 649.61,-92.46 648.97,-99.43"/>
</g>
<!-- Node18&#45;&gt;Node13 -->
<g id="edge19" class="edge">
<title>Node18&#45;&gt;Node13</title>
<path fill="none" stroke="midnightblue" d="M428.69,-95.32C366.98,-103 284.4,-114.26 212,-127.5 191.86,-131.18 170.02,-135.91 150.41,-140.43"/>
<polygon fill="midnightblue" stroke="midnightblue" points="429.3,-98.77 438.8,-94.07 428.44,-91.82 429.3,-98.77"/>
</g>
<!-- Node19 -->
<g id="node19" class="node">
<title>Node19</title>
<g id="a_node19"><a xlink:href="classfspm_1_1config_1_1params_1_1structures_1_1CategoryStore_a4131c35940f4f94adc66a52f714c31bb.html#a4131c35940f4f94adc66a52f714c31bb" target="_top" xlink:title=" ">
<polygon fill="none" stroke="black" points="223.5,-49.5 223.5,-79.5 391.5,-79.5 391.5,-49.5 223.5,-49.5"/>
<text text-anchor="start" x="231.5" y="-67.5" font-family="Helvetica,sans-Serif" font-size="10.00">fspm.config.params.structures.</text>
<text text-anchor="middle" x="307.5" y="-56.5" font-family="Helvetica,sans-Serif" font-size="10.00">CategoryStore.getArray</text>
</a>
</g>
</g>
<!-- Node18&#45;&gt;Node19 -->
<g id="edge18" class="edge">
<title>Node18&#45;&gt;Node19</title>
<path fill="none" stroke="midnightblue" d="M428.62,-75.75C416.36,-74.6 403.86,-73.43 391.78,-72.3"/>
<polygon fill="midnightblue" stroke="midnightblue" points="428.56,-79.26 438.84,-76.71 429.21,-72.29 428.56,-79.26"/>
</g>
<!-- Node20 -->
<g id="node20" class="node">
<title>Node20</title>
<g id="a_node20"><a xlink:href="classfspm_1_1config_1_1tests_1_1ParamAccess_1_1ArrayTest_aeb939f25bb8cc9702e5a4ad8d2cdbc2c.html#aeb939f25bb8cc9702e5a4ad8d2cdbc2c" target="_top" xlink:title=" ">
<polygon fill="none" stroke="black" points="222,-0.5 222,-30.5 393,-30.5 393,-0.5 222,-0.5"/>
<text text-anchor="start" x="230" y="-18.5" font-family="Helvetica,sans-Serif" font-size="10.00">fspm.config.tests.ParamAccess.</text>
<text text-anchor="middle" x="307.5" y="-7.5" font-family="Helvetica,sans-Serif" font-size="10.00">ArrayTest.testPhenology</text>
</a>
</g>
</g>
<!-- Node18&#45;&gt;Node20 -->
<g id="edge20" class="edge">
<title>Node18&#45;&gt;Node20</title>
<path fill="none" stroke="midnightblue" d="M476,-65.72C454.1,-57.13 427.41,-47.19 403,-39.5 392.99,-36.35 382.29,-33.31 371.81,-30.53"/>
<polygon fill="midnightblue" stroke="midnightblue" points="474.8,-69.01 485.39,-69.43 477.38,-62.5 474.8,-69.01"/>
</g>
</g>
</svg>
        <g id="navigator" transform="translate(0 0)" fill="#404254">
                <rect fill="#f2f5e9" fill-opacity="0.5" stroke="#606060" stroke-width=".5" x="0" y="0" width="60" height="60"/>
                <use id="zoomplus" xlink:href="#zoomPlus" x="17" y="9" onmousedown="handleZoom(evt,'in')"/>
                <use id="zoomminus" xlink:href="#zoomMin" x="42" y="9" onmousedown="handleZoom(evt,'out')"/>
                <use id="reset" xlink:href="#resetDef" x="30" y="36" onmousedown="handleReset()"/>
                <g id="arrowUp" xlink:href="#dirArrow" transform="translate(30 24)" onmousedown="handlePan(0,-1)">
                  <use xlink:href="#rim" fill="#404040">
                        <set attributeName="fill" to="#808080" begin="arrowUp.mouseover" end="arrowUp.mouseout"/>
                  </use>
                  <path fill="none" stroke="white" stroke-width="1.5" d="M0,-3.0v7 M-2.5,-0.5L0,-3.0L2.5,-0.5"/>
                </g>
                <g id="arrowRight" xlink:href="#dirArrow" transform="rotate(90) translate(36 -43)" onmousedown="handlePan(1,0)">
                  <use xlink:href="#rim" fill="#404040">
                        <set attributeName="fill" to="#808080" begin="arrowRight.mouseover" end="arrowRight.mouseout"/>
                  </use>
                  <path fill="none" stroke="white" stroke-width="1.5" d="M0,-3.0v7 M-2.5,-0.5L0,-3.0L2.5,-0.5"/>
                </g>
                <g id="arrowDown" xlink:href="#dirArrow" transform="rotate(180) translate(-30 -48)" onmousedown="handlePan(0,1)">
                  <use xlink:href="#rim" fill="#404040">
                        <set attributeName="fill" to="#808080" begin="arrowDown.mouseover" end="arrowDown.mouseout"/>
                  </use>
                  <path fill="none" stroke="white" stroke-width="1.5" d="M0,-3.0v7 M-2.5,-0.5L0,-3.0L2.5,-0.5"/>
                </g>
                <g id="arrowLeft" xlink:href="#dirArrow" transform="rotate(270) translate(-36 17)" onmousedown="handlePan(-1,0)">
                  <use xlink:href="#rim" fill="#404040">
                        <set attributeName="fill" to="#808080" begin="arrowLeft.mouseover" end="arrowLeft.mouseout"/>
                  </use>
                  <path fill="none" stroke="white" stroke-width="1.5" d="M0,-3.0v7 M-2.5,-0.5L0,-3.0L2.5,-0.5"/>
                </g>
        </g>
        <svg viewBox="0 0 15 15" width="100%" height="30px" preserveAspectRatio="xMaxYMin meet">
         <g id="arrow_out" transform="scale(0.3 0.3)">
          <a xlink:href="classfspm_1_1config_1_1params_1_1Parameter_a2dced470a20701940042f6dacad7f78e_a2dced470a20701940042f6dacad7f78e_icgraph_org.svg" target="_base">
           <rect id="button" ry="5" rx="5" y="6" x="6" height="38" width="38"
                fill="#f2f5e9" fill-opacity="0.5" stroke="#606060" stroke-width="1.0"/>
           <path id="arrow"
             d="M 11.500037,31.436501 C 11.940474,20.09759 22.043105,11.32322 32.158766,21.979434 L 37.068811,17.246167 C 37.068811,17.246167 37.088388,32 37.088388,32 L 22.160133,31.978069 C 22.160133,31.978069 26.997745,27.140456 26.997745,27.140456 C 18.528582,18.264221 13.291696,25.230495 11.500037,31.436501 z"
             style="fill:#404040;"/>
          </a>
         </g>
        </svg>
</svg>
