<?xml version="1.0" encoding="UTF-8" standalone="no"?>
<!DOCTYPE svg PUBLIC "-//W3C//DTD SVG 1.1//EN"
 "http://www.w3.org/Graphics/SVG/1.1/DTD/svg11.dtd">
<!-- Generated by graphviz version 2.43.0 (0)
 -->
<!-- Title: fspm.config.adapters.handlers.DocumentCategoryNameHandler.parse Pages: 1 -->
<svg width="847pt" height="235pt"
 viewBox="0.00 0.00 847.00 235.00" xmlns="http://www.w3.org/2000/svg" xmlns:xlink="http://www.w3.org/1999/xlink">
<g id="graph0" class="graph" transform="scale(1 1) rotate(0) translate(4 231)">
<title>fspm.config.adapters.handlers.DocumentCategoryNameHandler.parse</title>
<!-- Node1 -->
<g id="node1" class="node">
<title>Node1</title>
<g id="a_node1"><a xlink:title=" ">
<polygon fill="#bfbfbf" stroke="black" points="0,-98.5 0,-128.5 208,-128.5 208,-98.5 0,-98.5"/>
<text text-anchor="start" x="8" y="-116.5" font-family="Helvetica,sans-Serif" font-size="10.00">fspm.config.adapters.handlers.</text>
<text text-anchor="middle" x="104" y="-105.5" font-family="Helvetica,sans-Serif" font-size="10.00">DocumentCategoryNameHandler.parse</text>
</a>
</g>
</g>
<!-- Node2 -->
<g id="node2" class="node">
<title>Node2</title>
<g id="a_node2"><a xlink:href="classfspm_1_1config_1_1params_1_1hierarchy_1_1CategoryHierarchy_ace6e5895f31f542bd87cd5b9650577b8.html#ace6e5895f31f542bd87cd5b9650577b8" target="_top" xlink:title=" ">
<polygon fill="none" stroke="black" points="244,-98.5 244,-128.5 408,-128.5 408,-98.5 244,-98.5"/>
<text text-anchor="start" x="252" y="-116.5" font-family="Helvetica,sans-Serif" font-size="10.00">fspm.config.params.hierarchy.</text>
<text text-anchor="middle" x="326" y="-105.5" font-family="Helvetica,sans-Serif" font-size="10.00">CategoryHierarchy.parse</text>
</a>
</g>
</g>
<!-- Node1&#45;&gt;Node2 -->
<g id="edge1" class="edge">
<title>Node1&#45;&gt;Node2</title>
<path fill="none" stroke="midnightblue" d="M208.24,-113.5C216.73,-113.5 225.28,-113.5 233.67,-113.5"/>
<polygon fill="midnightblue" stroke="midnightblue" points="233.83,-117 243.83,-113.5 233.83,-110 233.83,-117"/>
</g>
<!-- Node3 -->
<g id="node3" class="node">
<title>Node3</title>
<g id="a_node3"><a xlink:href="classfspm_1_1config_1_1params_1_1hierarchy_1_1CategoryHierarchy_a1749c4a4dba84b42cc2abdab39aa0e3e.html#a1749c4a4dba84b42cc2abdab39aa0e3e" target="_top" xlink:title="Adds a new category.">
<polygon fill="none" stroke="black" points="458.5,-196.5 458.5,-226.5 630.5,-226.5 630.5,-196.5 458.5,-196.5"/>
<text text-anchor="start" x="466.5" y="-214.5" font-family="Helvetica,sans-Serif" font-size="10.00">fspm.config.params.hierarchy.</text>
<text text-anchor="middle" x="544.5" y="-203.5" font-family="Helvetica,sans-Serif" font-size="10.00">CategoryHierarchy.addCategory</text>
</a>
</g>
</g>
<!-- Node2&#45;&gt;Node3 -->
<g id="edge2" class="edge">
<title>Node2&#45;&gt;Node3</title>
<path fill="none" stroke="midnightblue" d="M346.59,-128.74C368.97,-145.45 407.26,-171.95 444,-187.5 449.01,-189.62 454.25,-191.58 459.58,-193.38"/>
<polygon fill="midnightblue" stroke="midnightblue" points="458.68,-196.76 469.27,-196.46 460.8,-190.09 458.68,-196.76"/>
</g>
<!-- Node5 -->
<g id="node5" class="node">
<title>Node5</title>
<g id="a_node5"><a xlink:href="classfspm_1_1config_1_1params_1_1ParamCategory_a142ca4734877ac3625b6b95d8b81055a.html#a142ca4734877ac3625b6b95d8b81055a" target="_top" xlink:title="Adds a new Parameter to the category.">
<polygon fill="none" stroke="black" points="471,-147.5 471,-177.5 618,-177.5 618,-147.5 471,-147.5"/>
<text text-anchor="start" x="479" y="-165.5" font-family="Helvetica,sans-Serif" font-size="10.00">fspm.config.params.Param</text>
<text text-anchor="middle" x="544.5" y="-154.5" font-family="Helvetica,sans-Serif" font-size="10.00">Category.addParameter</text>
</a>
</g>
</g>
<!-- Node2&#45;&gt;Node5 -->
<g id="edge4" class="edge">
<title>Node2&#45;&gt;Node5</title>
<path fill="none" stroke="midnightblue" d="M393.43,-128.53C416.81,-133.83 443.26,-139.81 467.38,-145.27"/>
<polygon fill="midnightblue" stroke="midnightblue" points="466.67,-148.7 477.2,-147.49 468.22,-141.87 466.67,-148.7"/>
</g>
<!-- Node6 -->
<g id="node6" class="node">
<title>Node6</title>
<g id="a_node6"><a xlink:href="classfspm_1_1config_1_1params_1_1hierarchy_1_1CategoryHierarchy_aaee7106d64014154be33e5ec077c7a89.html#aaee7106d64014154be33e5ec077c7a89" target="_top" xlink:title=" ">
<polygon fill="none" stroke="black" points="444,-98.5 444,-128.5 645,-128.5 645,-98.5 444,-98.5"/>
<text text-anchor="start" x="452" y="-116.5" font-family="Helvetica,sans-Serif" font-size="10.00">fspm.config.params.hierarchy.</text>
<text text-anchor="middle" x="544.5" y="-105.5" font-family="Helvetica,sans-Serif" font-size="10.00">CategoryHierarchy.CategoryHierarchy</text>
</a>
</g>
</g>
<!-- Node2&#45;&gt;Node6 -->
<g id="edge6" class="edge">
<title>Node2&#45;&gt;Node6</title>
<path fill="none" stroke="midnightblue" d="M408.23,-113.5C416.6,-113.5 425.19,-113.5 433.8,-113.5"/>
<polygon fill="midnightblue" stroke="midnightblue" points="433.9,-117 443.9,-113.5 433.9,-110 433.9,-117"/>
</g>
<!-- Node7 -->
<g id="node7" class="node">
<title>Node7</title>
<g id="a_node7"><a xlink:href="classfspm_1_1config_1_1adapters_1_1JsonFileReader_ade656b5e0e5d950b9997ee04ec01964d.html#ade656b5e0e5d950b9997ee04ec01964d" target="_top" xlink:title="Helper function for getting root/tree node from a JSON file.">
<polygon fill="none" stroke="black" points="470,-49.5 470,-79.5 619,-79.5 619,-49.5 470,-49.5"/>
<text text-anchor="start" x="478" y="-67.5" font-family="Helvetica,sans-Serif" font-size="10.00">fspm.config.adapters.Json</text>
<text text-anchor="middle" x="544.5" y="-56.5" font-family="Helvetica,sans-Serif" font-size="10.00">FileReader.getTreeFromFile</text>
</a>
</g>
</g>
<!-- Node2&#45;&gt;Node7 -->
<g id="edge7" class="edge">
<title>Node2&#45;&gt;Node7</title>
<path fill="none" stroke="midnightblue" d="M393.43,-98.47C416.81,-93.17 443.26,-87.19 467.38,-81.73"/>
<polygon fill="midnightblue" stroke="midnightblue" points="468.22,-85.13 477.2,-79.51 466.67,-78.3 468.22,-85.13"/>
</g>
<!-- Node8 -->
<g id="node8" class="node">
<title>Node8</title>
<g id="a_node8"><a xlink:href="classfspm_1_1config_1_1params_1_1ParamFactory_aadcecc67803da778c697f1b6683cd5c7.html#aadcecc67803da778c697f1b6683cd5c7" target="_top" xlink:title="Returns a concrete Parameter instance depending on the data type of the JsonNode passed in.">
<polygon fill="none" stroke="black" points="471,-0.5 471,-30.5 618,-30.5 618,-0.5 471,-0.5"/>
<text text-anchor="start" x="479" y="-18.5" font-family="Helvetica,sans-Serif" font-size="10.00">fspm.config.params.Param</text>
<text text-anchor="middle" x="544.5" y="-7.5" font-family="Helvetica,sans-Serif" font-size="10.00">Factory.parseParameter</text>
</a>
</g>
</g>
<!-- Node2&#45;&gt;Node8 -->
<g id="edge8" class="edge">
<title>Node2&#45;&gt;Node8</title>
<path fill="none" stroke="midnightblue" d="M347.06,-98.24C369.55,-81.81 407.64,-55.96 444,-40.5 449.86,-38.01 456.03,-35.72 462.3,-33.64"/>
<polygon fill="midnightblue" stroke="midnightblue" points="463.72,-36.86 472.21,-30.52 461.62,-30.18 463.72,-36.86"/>
</g>
<!-- Node4 -->
<g id="node4" class="node">
<title>Node4</title>
<g id="a_node4"><a xlink:href="classfspm_1_1util_1_1KeyElement_a653aac67328f98c1201974736671fe0d.html#a653aac67328f98c1201974736671fe0d" target="_top" xlink:title=" ">
<polygon fill="none" stroke="black" points="681,-177 681,-196 839,-196 839,-177 681,-177"/>
<text text-anchor="middle" x="760" y="-184" font-family="Helvetica,sans-Serif" font-size="10.00">fspm.util.KeyElement.getKey</text>
</a>
</g>
</g>
<!-- Node3&#45;&gt;Node4 -->
<g id="edge3" class="edge">
<title>Node3&#45;&gt;Node4</title>
<path fill="none" stroke="midnightblue" d="M630.8,-201.51C643.94,-199.97 657.54,-198.38 670.75,-196.83"/>
<polygon fill="midnightblue" stroke="midnightblue" points="671.23,-200.3 680.75,-195.66 670.41,-193.35 671.23,-200.3"/>
</g>
<!-- Node5&#45;&gt;Node4 -->
<g id="edge5" class="edge">
<title>Node5&#45;&gt;Node4</title>
<path fill="none" stroke="midnightblue" d="M618.08,-170.66C634.96,-172.56 653.1,-174.6 670.58,-176.56"/>
<polygon fill="midnightblue" stroke="midnightblue" points="670.45,-180.07 680.77,-177.71 671.23,-173.11 670.45,-180.07"/>
</g>
</g>
</svg>
