<?xml version="1.0" encoding="UTF-8" standalone="no"?>
<!DOCTYPE svg PUBLIC "-//W3C//DTD SVG 1.1//EN"
 "http://www.w3.org/Graphics/SVG/1.1/DTD/svg11.dtd">
<!-- Generated by graphviz version 2.43.0 (0)
 -->
<!-- Title: fspm.config.params.groups.DocumentHybridCategoryNameGroup Pages: 1 -->
<!--zoomable 1031 -->
<svg id="main" version="1.1" xmlns="http://www.w3.org/2000/svg" xmlns:xlink="http://www.w3.org/1999/xlink" xml:space="preserve" onload="init(evt)">
<style type="text/css"><![CDATA[
.edge:hover path { stroke: red; }
.edge:hover polygon { stroke: red; fill: red; }
]]></style>
<script type="text/javascript"><![CDATA[
var edges = document.getElementsByTagName('g');
if (edges && edges.length) {
  for (var i=0;i<edges.length;i++) {
    if (edges[i].id.substr(0,4)=='edge') {
      edges[i].setAttribute('class','edge');
    }
  }
}
]]></script>
        <defs>
                <circle id="rim" cx="0" cy="0" r="7"/>
                <circle id="rim2" cx="0" cy="0" r="3.5"/>
                <g id="zoomPlus">
                        <use xlink:href="#rim" fill="#404040">
                                <set attributeName="fill" to="#808080" begin="zoomplus.mouseover" end="zoomplus.mouseout"/>
                        </use>
                        <path d="M-4,0h8M0,-4v8" fill="none" stroke="white" stroke-width="1.5" pointer-events="none"/>
                </g>
                <g id="zoomMin">
                        <use xlink:href="#rim" fill="#404040">
                                <set attributeName="fill" to="#808080" begin="zoomminus.mouseover" end="zoomminus.mouseout"/>
                        </use>
                        <path d="M-4,0h8" fill="none" stroke="white" stroke-width="1.5" pointer-events="none"/>
                </g>
                <g id="dirArrow">
                        <path fill="none" stroke="white" stroke-width="1.5" d="M0,-3.0v7 M-2.5,-0.5L0,-3.0L2.5,-0.5"/>
                </g>
               <g id="resetDef">
                       <use xlink:href="#rim2" fill="#404040">
                               <set attributeName="fill" to="#808080" begin="reset.mouseover" end="reset.mouseout"/>
                       </use>
               </g>
        </defs>

<script type="text/javascript">
var viewWidth = 1010;
var viewHeight = 1031;
var sectionId = 'dynsection-1';
</script>
<script xlink:href="svgpan.js"/>
<svg id="graph" class="graph">
<g id="viewport">
<title>fspm.config.params.groups.DocumentHybridCategoryNameGroup</title>
<!-- Node1 -->
<g id="node1" class="node">
<title>Node1</title>
<g id="a_node1"><a xlink:title=" ">
<polygon fill="#bfbfbf" stroke="black" points="599.5,-0.5 599.5,-123.5 801.5,-123.5 801.5,-0.5 599.5,-0.5"/>
<text text-anchor="start" x="607.5" y="-111.5" font-family="Helvetica,sans-Serif" font-size="10.00">fspm.config.params.groups.</text>
<text text-anchor="middle" x="700.5" y="-100.5" font-family="Helvetica,sans-Serif" font-size="10.00">DocumentHybridCategoryNameGroup</text>
<polyline fill="none" stroke="black" points="599.5,-93.5 801.5,-93.5 "/>
<text text-anchor="middle" x="700.5" y="-81.5" font-family="Helvetica,sans-Serif" font-size="10.00"> </text>
<polyline fill="none" stroke="black" points="599.5,-74.5 801.5,-74.5 "/>
<text text-anchor="start" x="607.5" y="-62.5" font-family="Helvetica,sans-Serif" font-size="10.00">+ DocumentHybridCategoryName</text>
<text text-anchor="start" x="607.5" y="-51.5" font-family="Helvetica,sans-Serif" font-size="10.00">Group()</text>
<text text-anchor="start" x="607.5" y="-40.5" font-family="Helvetica,sans-Serif" font-size="10.00">+ getCategoryStore()</text>
<text text-anchor="start" x="607.5" y="-29.5" font-family="Helvetica,sans-Serif" font-size="10.00">+ getTableStore()</text>
<text text-anchor="start" x="607.5" y="-18.5" font-family="Helvetica,sans-Serif" font-size="10.00">+ toString()</text>
<text text-anchor="start" x="607.5" y="-7.5" font-family="Helvetica,sans-Serif" font-size="10.00">+ parse()</text>
</a>
</g>
</g>
<!-- Node2 -->
<g id="node2" class="node">
<title>Node2</title>
<g id="a_node2"><a xlink:href="classfspm_1_1config_1_1params_1_1groups_1_1ParamGroup.html" target="_top" xlink:title="Parameter configuration class for storing parameter categories.">
<polygon fill="none" stroke="black" points="624.5,-412.5 624.5,-480.5 776.5,-480.5 776.5,-412.5 624.5,-412.5"/>
<text text-anchor="start" x="632.5" y="-468.5" font-family="Helvetica,sans-Serif" font-size="10.00">fspm.config.params.groups.</text>
<text text-anchor="middle" x="700.5" y="-457.5" font-family="Helvetica,sans-Serif" font-size="10.00">ParamGroup</text>
<polyline fill="none" stroke="black" points="624.5,-450.5 776.5,-450.5 "/>
<text text-anchor="middle" x="700.5" y="-438.5" font-family="Helvetica,sans-Serif" font-size="10.00"> </text>
<polyline fill="none" stroke="black" points="624.5,-431.5 776.5,-431.5 "/>
<text text-anchor="start" x="632.5" y="-419.5" font-family="Helvetica,sans-Serif" font-size="10.00"># ParamGroup()</text>
</a>
</g>
</g>
<!-- Node2&#45;&gt;Node1 -->
<g id="edge1" class="edge">
<title>Node2&#45;&gt;Node1</title>
<path fill="none" stroke="midnightblue" d="M700.5,-401.82C700.5,-333.46 700.5,-201.02 700.5,-123.52"/>
<polygon fill="none" stroke="midnightblue" points="697,-402.22 700.5,-412.22 704,-402.22 697,-402.22"/>
</g>
<!-- Node3 -->
<g id="node3" class="node">
<title>Node3</title>
<g id="a_node3"><a xlink:href="classfspm_1_1util_1_1KeyElement.html" target="_top" xlink:title=" ">
<polygon fill="none" stroke="black" points="363.5,-833 363.5,-901 485.5,-901 485.5,-833 363.5,-833"/>
<text text-anchor="middle" x="424.5" y="-889" font-family="Helvetica,sans-Serif" font-size="10.00">fspm.util.KeyElement</text>
<polyline fill="none" stroke="black" points="363.5,-882 485.5,-882 "/>
<text text-anchor="middle" x="424.5" y="-870" font-family="Helvetica,sans-Serif" font-size="10.00"> </text>
<polyline fill="none" stroke="black" points="363.5,-863 485.5,-863 "/>
<text text-anchor="start" x="371.5" y="-851" font-family="Helvetica,sans-Serif" font-size="10.00">+ KeyElement()</text>
<text text-anchor="start" x="371.5" y="-840" font-family="Helvetica,sans-Serif" font-size="10.00">+ getKey()</text>
</a>
</g>
</g>
<!-- Node3&#45;&gt;Node2 -->
<g id="edge2" class="edge">
<title>Node3&#45;&gt;Node2</title>
<path fill="none" stroke="midnightblue" d="M451.95,-824.38C506.75,-741.28 628.74,-556.32 678.61,-480.69"/>
<polygon fill="none" stroke="midnightblue" points="448.97,-822.54 446.39,-832.81 454.82,-826.39 448.97,-822.54"/>
</g>
<!-- Node8 -->
<g id="node8" class="node">
<title>Node8</title>
<g id="a_node8"><a xlink:href="classfspm_1_1config_1_1params_1_1ParamCategory.html" target="_top" xlink:title="A ParamCategory stores Parameters that belong to a common category.">
<polygon fill="none" stroke="black" points="281,-499.5 281,-721.5 428,-721.5 428,-499.5 281,-499.5"/>
<text text-anchor="start" x="289" y="-709.5" font-family="Helvetica,sans-Serif" font-size="10.00">fspm.config.params.Param</text>
<text text-anchor="middle" x="354.5" y="-698.5" font-family="Helvetica,sans-Serif" font-size="10.00">Category</text>
<polyline fill="none" stroke="black" points="281,-691.5 428,-691.5 "/>
<text text-anchor="middle" x="354.5" y="-679.5" font-family="Helvetica,sans-Serif" font-size="10.00"> </text>
<polyline fill="none" stroke="black" points="281,-672.5 428,-672.5 "/>
<text text-anchor="start" x="289" y="-660.5" font-family="Helvetica,sans-Serif" font-size="10.00">+ ParamCategory()</text>
<text text-anchor="start" x="289" y="-649.5" font-family="Helvetica,sans-Serif" font-size="10.00">+ addParameter()</text>
<text text-anchor="start" x="289" y="-638.5" font-family="Helvetica,sans-Serif" font-size="10.00">+ setParameter()</text>
<text text-anchor="start" x="289" y="-627.5" font-family="Helvetica,sans-Serif" font-size="10.00">+ getBoolean()</text>
<text text-anchor="start" x="289" y="-616.5" font-family="Helvetica,sans-Serif" font-size="10.00">+ getString()</text>
<text text-anchor="start" x="289" y="-605.5" font-family="Helvetica,sans-Serif" font-size="10.00">+ getInteger()</text>
<text text-anchor="start" x="289" y="-594.5" font-family="Helvetica,sans-Serif" font-size="10.00">+ getDouble()</text>
<text text-anchor="start" x="289" y="-583.5" font-family="Helvetica,sans-Serif" font-size="10.00">+ getBooleanArray()</text>
<text text-anchor="start" x="289" y="-572.5" font-family="Helvetica,sans-Serif" font-size="10.00">+ getStringArray()</text>
<text text-anchor="start" x="289" y="-561.5" font-family="Helvetica,sans-Serif" font-size="10.00">+ getIntegerArray()</text>
<text text-anchor="start" x="289" y="-550.5" font-family="Helvetica,sans-Serif" font-size="10.00">+ getDoubleArray()</text>
<text text-anchor="start" x="289" y="-539.5" font-family="Helvetica,sans-Serif" font-size="10.00">+ isNull()</text>
<text text-anchor="start" x="289" y="-528.5" font-family="Helvetica,sans-Serif" font-size="10.00">+ getParameter()</text>
<text text-anchor="start" x="289" y="-517.5" font-family="Helvetica,sans-Serif" font-size="10.00">+ toString()</text>
<text text-anchor="start" x="289" y="-506.5" font-family="Helvetica,sans-Serif" font-size="10.00">~ getArray()</text>
</a>
</g>
</g>
<!-- Node3&#45;&gt;Node8 -->
<g id="edge9" class="edge">
<title>Node3&#45;&gt;Node8</title>
<path fill="none" stroke="midnightblue" d="M412.72,-823.19C405.06,-795.32 394.68,-757.6 384.82,-721.72"/>
<polygon fill="none" stroke="midnightblue" points="409.39,-824.28 415.42,-832.99 416.14,-822.42 409.39,-824.28"/>
</g>
<!-- Node4 -->
<g id="node4" class="node">
<title>Node4</title>
<g id="a_node4"><a xlink:title=" ">
<polygon fill="none" stroke="#bfbfbf" points="767,-965.5 767,-1022.5 812,-1022.5 812,-965.5 767,-965.5"/>
<text text-anchor="middle" x="789.5" y="-1010.5" font-family="Helvetica,sans-Serif" font-size="10.00">String</text>
<polyline fill="none" stroke="#bfbfbf" points="767,-1003.5 812,-1003.5 "/>
<text text-anchor="middle" x="789.5" y="-991.5" font-family="Helvetica,sans-Serif" font-size="10.00"> </text>
<polyline fill="none" stroke="#bfbfbf" points="767,-984.5 812,-984.5 "/>
<text text-anchor="middle" x="789.5" y="-972.5" font-family="Helvetica,sans-Serif" font-size="10.00"> </text>
</a>
</g>
</g>
<!-- Node4&#45;&gt;Node3 -->
<g id="edge3" class="edge">
<title>Node4&#45;&gt;Node3</title>
<path fill="none" stroke="#404040" d="M766.67,-992.78C699.46,-991.68 504.02,-985.2 455.5,-947 444.69,-938.49 437.64,-925.67 433.04,-912.82"/>
<polygon fill="none" stroke="#404040" points="432.98,-912.61 427.4,-908.04 429.48,-901.14 435.06,-905.71 432.98,-912.61"/>
<text text-anchor="middle" x="468" y="-933.5" font-family="Helvetica,sans-Serif" font-size="10.00"> &#45;key</text>
</g>
<!-- Node6 -->
<g id="node6" class="node">
<title>Node6</title>
<g id="a_node6"><a xlink:href="classfspm_1_1config_1_1params_1_1structures_1_1ParamStructure.html" target="_top" xlink:title="Represents a structure found in ParamGroups that store parameters.">
<polygon fill="none" stroke="black" points="705.5,-827.5 705.5,-906.5 873.5,-906.5 873.5,-827.5 705.5,-827.5"/>
<text text-anchor="start" x="713.5" y="-894.5" font-family="Helvetica,sans-Serif" font-size="10.00">fspm.config.params.structures.</text>
<text text-anchor="middle" x="789.5" y="-883.5" font-family="Helvetica,sans-Serif" font-size="10.00">ParamStructure</text>
<polyline fill="none" stroke="black" points="705.5,-876.5 873.5,-876.5 "/>
<text text-anchor="middle" x="789.5" y="-864.5" font-family="Helvetica,sans-Serif" font-size="10.00"> </text>
<polyline fill="none" stroke="black" points="705.5,-857.5 873.5,-857.5 "/>
<text text-anchor="start" x="713.5" y="-845.5" font-family="Helvetica,sans-Serif" font-size="10.00">+ ParamStructure()</text>
<text text-anchor="start" x="713.5" y="-834.5" font-family="Helvetica,sans-Serif" font-size="10.00">+ getGroupKey()</text>
</a>
</g>
</g>
<!-- Node4&#45;&gt;Node6 -->
<g id="edge6" class="edge">
<title>Node4&#45;&gt;Node6</title>
<path fill="none" stroke="#404040" d="M789.5,-965.26C789.5,-951.64 789.5,-934.79 789.5,-918.96"/>
<polygon fill="none" stroke="#404040" points="789.5,-918.57 785.5,-912.57 789.5,-906.57 793.5,-912.57 789.5,-918.57"/>
<text text-anchor="middle" x="816" y="-933.5" font-family="Helvetica,sans-Serif" font-size="10.00"> &#45;groupKey</text>
</g>
<!-- Node13 -->
<g id="node13" class="node">
<title>Node13</title>
<g id="a_node13"><a xlink:href="classfspm_1_1config_1_1params_1_1structures_1_1TableStore.html" target="_top" xlink:title=" ">
<polygon fill="none" stroke="black" points="706.5,-554.5 706.5,-666.5 874.5,-666.5 874.5,-554.5 706.5,-554.5"/>
<text text-anchor="start" x="714.5" y="-654.5" font-family="Helvetica,sans-Serif" font-size="10.00">fspm.config.params.structures.</text>
<text text-anchor="middle" x="790.5" y="-643.5" font-family="Helvetica,sans-Serif" font-size="10.00">TableStore</text>
<polyline fill="none" stroke="black" points="706.5,-636.5 874.5,-636.5 "/>
<text text-anchor="middle" x="790.5" y="-624.5" font-family="Helvetica,sans-Serif" font-size="10.00"> </text>
<polyline fill="none" stroke="black" points="706.5,-617.5 874.5,-617.5 "/>
<text text-anchor="start" x="714.5" y="-605.5" font-family="Helvetica,sans-Serif" font-size="10.00">+ TableStore()</text>
<text text-anchor="start" x="714.5" y="-594.5" font-family="Helvetica,sans-Serif" font-size="10.00">+ addTable()</text>
<text text-anchor="start" x="714.5" y="-583.5" font-family="Helvetica,sans-Serif" font-size="10.00">+ getTable()</text>
<text text-anchor="start" x="714.5" y="-572.5" font-family="Helvetica,sans-Serif" font-size="10.00">+ toString()</text>
<text text-anchor="start" x="714.5" y="-561.5" font-family="Helvetica,sans-Serif" font-size="10.00">+ parse()</text>
</a>
</g>
</g>
<!-- Node4&#45;&gt;Node13 -->
<g id="edge17" class="edge">
<title>Node4&#45;&gt;Node13</title>
<path fill="none" stroke="#404040" d="M812.32,-980.45C835.47,-966.18 869.66,-940.47 882.5,-907 912.28,-829.39 872.47,-737.66 836.3,-677.22"/>
<polygon fill="none" stroke="#404040" points="836.11,-676.92 829.56,-673.89 829.84,-666.69 836.38,-669.71 836.11,-676.92"/>
<text text-anchor="middle" x="947" y="-864.5" font-family="Helvetica,sans-Serif" font-size="10.00"> +ROW_PREFIX_FIELD</text>
</g>
<!-- Node5 -->
<g id="node5" class="node">
<title>Node5</title>
<g id="a_node5"><a xlink:href="classfspm_1_1config_1_1params_1_1structures_1_1CategoryStore.html" target="_top" xlink:title=" ">
<polygon fill="none" stroke="black" points="327.5,-171.5 327.5,-393.5 495.5,-393.5 495.5,-171.5 327.5,-171.5"/>
<text text-anchor="start" x="335.5" y="-381.5" font-family="Helvetica,sans-Serif" font-size="10.00">fspm.config.params.structures.</text>
<text text-anchor="middle" x="411.5" y="-370.5" font-family="Helvetica,sans-Serif" font-size="10.00">CategoryStore</text>
<polyline fill="none" stroke="black" points="327.5,-363.5 495.5,-363.5 "/>
<text text-anchor="middle" x="411.5" y="-351.5" font-family="Helvetica,sans-Serif" font-size="10.00"> </text>
<polyline fill="none" stroke="black" points="327.5,-344.5 495.5,-344.5 "/>
<text text-anchor="start" x="335.5" y="-332.5" font-family="Helvetica,sans-Serif" font-size="10.00">+ CategoryStore()</text>
<text text-anchor="start" x="335.5" y="-321.5" font-family="Helvetica,sans-Serif" font-size="10.00">+ addCategory()</text>
<text text-anchor="start" x="335.5" y="-310.5" font-family="Helvetica,sans-Serif" font-size="10.00">+ getCategory()</text>
<text text-anchor="start" x="335.5" y="-299.5" font-family="Helvetica,sans-Serif" font-size="10.00">+ getCategoryWithParam()</text>
<text text-anchor="start" x="335.5" y="-288.5" font-family="Helvetica,sans-Serif" font-size="10.00">+ setCategoryContext()</text>
<text text-anchor="start" x="335.5" y="-277.5" font-family="Helvetica,sans-Serif" font-size="10.00">+ getBoolean()</text>
<text text-anchor="start" x="335.5" y="-266.5" font-family="Helvetica,sans-Serif" font-size="10.00">+ getString()</text>
<text text-anchor="start" x="335.5" y="-255.5" font-family="Helvetica,sans-Serif" font-size="10.00">+ getInteger()</text>
<text text-anchor="start" x="335.5" y="-244.5" font-family="Helvetica,sans-Serif" font-size="10.00">+ getDouble()</text>
<text text-anchor="start" x="335.5" y="-233.5" font-family="Helvetica,sans-Serif" font-size="10.00">+ getBooleanArray()</text>
<text text-anchor="start" x="335.5" y="-222.5" font-family="Helvetica,sans-Serif" font-size="10.00">and 18 more...</text>
<text text-anchor="start" x="335.5" y="-211.5" font-family="Helvetica,sans-Serif" font-size="10.00">+ parse()</text>
<text text-anchor="start" x="335.5" y="-200.5" font-family="Helvetica,sans-Serif" font-size="10.00">~ getArray()</text>
<text text-anchor="start" x="335.5" y="-189.5" font-family="Helvetica,sans-Serif" font-size="10.00">~ getArray()</text>
<text text-anchor="start" x="335.5" y="-178.5" font-family="Helvetica,sans-Serif" font-size="10.00">&#45; validateFlattenedAccess()</text>
</a>
</g>
</g>
<!-- Node5&#45;&gt;Node1 -->
<g id="edge4" class="edge">
<title>Node5&#45;&gt;Node1</title>
<path fill="none" stroke="#404040" d="M495.87,-217.71C531.81,-190.54 573.79,-158.8 610.34,-131.17"/>
<polygon fill="none" stroke="#404040" points="610.43,-131.1 612.8,-124.29 620,-123.86 617.63,-130.67 610.43,-131.1"/>
<text text-anchor="middle" x="627.5" y="-145" font-family="Helvetica,sans-Serif" font-size="10.00"> &#45;categoryStore</text>
</g>
<!-- Node6&#45;&gt;Node5 -->
<g id="edge5" class="edge">
<title>Node6&#45;&gt;Node5</title>
<path fill="none" stroke="midnightblue" d="M695.95,-827.31C668.13,-819.78 654.17,-827.65 638.5,-809 524.06,-672.8 678.04,-565.13 587.5,-412 566.03,-375.69 529.88,-346.63 495.9,-325.4"/>
<polygon fill="none" stroke="midnightblue" points="694.9,-830.65 705.49,-830.35 697.03,-823.98 694.9,-830.65"/>
</g>
<!-- Node6&#45;&gt;Node13 -->
<g id="edge16" class="edge">
<title>Node6&#45;&gt;Node13</title>
<path fill="none" stroke="midnightblue" d="M789.69,-817.12C789.86,-774.07 790.11,-711.41 790.28,-666.6"/>
<polygon fill="none" stroke="midnightblue" points="786.19,-817.33 789.65,-827.35 793.19,-817.36 786.19,-817.33"/>
</g>
<!-- Node7 -->
<g id="node7" class="node">
<title>Node7</title>
<g id="a_node7"><a xlink:title=" ">
<polygon fill="none" stroke="#bfbfbf" points="164,-582 164,-639 263,-639 263,-582 164,-582"/>
<text text-anchor="middle" x="213.5" y="-627" font-family="Helvetica,sans-Serif" font-size="10.00">static final String</text>
<polyline fill="none" stroke="#bfbfbf" points="164,-620 263,-620 "/>
<text text-anchor="middle" x="213.5" y="-608" font-family="Helvetica,sans-Serif" font-size="10.00"> </text>
<polyline fill="none" stroke="#bfbfbf" points="164,-601 263,-601 "/>
<text text-anchor="middle" x="213.5" y="-589" font-family="Helvetica,sans-Serif" font-size="10.00"> </text>
</a>
</g>
</g>
<!-- Node7&#45;&gt;Node5 -->
<g id="edge7" class="edge">
<title>Node7&#45;&gt;Node5</title>
<path fill="none" stroke="#404040" d="M208.01,-581.86C201.53,-541.62 195.13,-465.86 225.5,-412 246.12,-375.44 281.96,-347 316.72,-326.28"/>
<polygon fill="none" stroke="#404040" points="317.06,-326.09 320.26,-319.63 327.46,-320.1 324.25,-326.56 317.06,-326.09"/>
<text text-anchor="middle" x="285" y="-444" font-family="Helvetica,sans-Serif" font-size="10.00"> +CATEGORIES_HEADER</text>
</g>
<!-- Node8&#45;&gt;Node5 -->
<g id="edge8" class="edge">
<title>Node8&#45;&gt;Node5</title>
<path fill="none" stroke="#404040" d="M347.97,-499.49C348.35,-470.77 350.61,-440.02 356.5,-412 356.96,-409.82 357.45,-407.64 357.98,-405.45"/>
<polygon fill="none" stroke="#404040" points="358.02,-405.29 355.71,-398.46 361.13,-393.7 363.44,-400.53 358.02,-405.29"/>
<text text-anchor="middle" x="400.5" y="-444" font-family="Helvetica,sans-Serif" font-size="10.00"> &#45;categoryContext</text>
</g>
<!-- Node9 -->
<g id="node9" class="node">
<title>Node9</title>
<g id="a_node9"><a xlink:title=" ">
<polygon fill="none" stroke="#bfbfbf" points="162,-833 162,-901 345,-901 345,-833 162,-833"/>
<text text-anchor="start" x="170" y="-889" font-family="Helvetica,sans-Serif" font-size="10.00">Map&lt; String, fspm.config.params.</text>
<text text-anchor="middle" x="253.5" y="-878" font-family="Helvetica,sans-Serif" font-size="10.00">Parameter &gt;</text>
<polyline fill="none" stroke="#bfbfbf" points="162,-871 345,-871 "/>
<text text-anchor="middle" x="253.5" y="-859" font-family="Helvetica,sans-Serif" font-size="10.00"> </text>
<polyline fill="none" stroke="#bfbfbf" points="162,-852 345,-852 "/>
<text text-anchor="middle" x="253.5" y="-840" font-family="Helvetica,sans-Serif" font-size="10.00"> </text>
</a>
</g>
</g>
<!-- Node9&#45;&gt;Node8 -->
<g id="edge10" class="edge">
<title>Node9&#45;&gt;Node8</title>
<path fill="none" stroke="#404040" d="M266.6,-832.99C276.81,-807.27 291.65,-769.87 306.24,-733.1"/>
<polygon fill="none" stroke="#404040" points="306.33,-732.87 304.83,-725.82 310.76,-721.72 312.26,-728.77 306.33,-732.87"/>
<text text-anchor="middle" x="322.5" y="-772" font-family="Helvetica,sans-Serif" font-size="10.00"> &#45;params</text>
</g>
<!-- Node10 -->
<g id="node10" class="node">
<title>Node10</title>
<g id="a_node10"><a xlink:title=" ">
<polygon fill="none" stroke="#bfbfbf" points="234.5,-965.5 234.5,-1022.5 272.5,-1022.5 272.5,-965.5 234.5,-965.5"/>
<text text-anchor="middle" x="253.5" y="-1010.5" font-family="Helvetica,sans-Serif" font-size="10.00">Map</text>
<polyline fill="none" stroke="#bfbfbf" points="234.5,-1003.5 272.5,-1003.5 "/>
<text text-anchor="middle" x="253.5" y="-991.5" font-family="Helvetica,sans-Serif" font-size="10.00"> </text>
<polyline fill="none" stroke="#bfbfbf" points="234.5,-984.5 272.5,-984.5 "/>
<text text-anchor="middle" x="253.5" y="-972.5" font-family="Helvetica,sans-Serif" font-size="10.00"> </text>
</a>
</g>
</g>
<!-- Node10&#45;&gt;Node9 -->
<g id="edge11" class="edge">
<title>Node10&#45;&gt;Node9</title>
<path fill="none" stroke="orange" d="M253.5,-955.05C253.5,-937.96 253.5,-917.96 253.5,-901.44"/>
<polygon fill="orange" stroke="orange" points="250,-955.26 253.5,-965.26 257,-955.26 250,-955.26"/>
<text text-anchor="start" x="253.5" y="-939" font-family="Helvetica,sans-Serif" font-size="10.00"> &lt; String, fspm::config</text>
<text text-anchor="middle" x="309" y="-928" font-family="Helvetica,sans-Serif" font-size="10.00">::params::Parameter &gt;</text>
</g>
<!-- Node11 -->
<g id="node11" class="node">
<title>Node11</title>
<g id="a_node11"><a xlink:title=" ">
<polygon fill="none" stroke="#bfbfbf" points="0,-740.5 0,-808.5 183,-808.5 183,-740.5 0,-740.5"/>
<text text-anchor="start" x="8" y="-796.5" font-family="Helvetica,sans-Serif" font-size="10.00">Map&lt; String, fspm.config.params.</text>
<text text-anchor="middle" x="91.5" y="-785.5" font-family="Helvetica,sans-Serif" font-size="10.00">ParamCategory &gt;</text>
<polyline fill="none" stroke="#bfbfbf" points="0,-778.5 183,-778.5 "/>
<text text-anchor="middle" x="91.5" y="-766.5" font-family="Helvetica,sans-Serif" font-size="10.00"> </text>
<polyline fill="none" stroke="#bfbfbf" points="0,-759.5 183,-759.5 "/>
<text text-anchor="middle" x="91.5" y="-747.5" font-family="Helvetica,sans-Serif" font-size="10.00"> </text>
</a>
</g>
</g>
<!-- Node10&#45;&gt;Node11 -->
<g id="edge13" class="edge">
<title>Node10&#45;&gt;Node11</title>
<path fill="none" stroke="orange" d="M223.91,-992.09C191.51,-989.39 140.58,-979.78 113.5,-947 81.38,-908.12 81.94,-846.41 86.13,-808.58"/>
<polygon fill="orange" stroke="orange" points="223.91,-995.6 234.12,-992.77 224.38,-988.62 223.91,-995.6"/>
<text text-anchor="start" x="113.5" y="-939" font-family="Helvetica,sans-Serif" font-size="10.00"> &lt; String, fspm::config</text>
<text text-anchor="middle" x="181.5" y="-928" font-family="Helvetica,sans-Serif" font-size="10.00">::params::ParamCategory &gt;</text>
</g>
<!-- Node14 -->
<g id="node14" class="node">
<title>Node14</title>
<g id="a_node14"><a xlink:title=" ">
<polygon fill="none" stroke="#bfbfbf" points="504,-833 504,-901 687,-901 687,-833 504,-833"/>
<text text-anchor="start" x="512" y="-889" font-family="Helvetica,sans-Serif" font-size="10.00">Map&lt; String, fspm.config.params.</text>
<text text-anchor="middle" x="595.5" y="-878" font-family="Helvetica,sans-Serif" font-size="10.00">ParamTable &gt;</text>
<polyline fill="none" stroke="#bfbfbf" points="504,-871 687,-871 "/>
<text text-anchor="middle" x="595.5" y="-859" font-family="Helvetica,sans-Serif" font-size="10.00"> </text>
<polyline fill="none" stroke="#bfbfbf" points="504,-852 687,-852 "/>
<text text-anchor="middle" x="595.5" y="-840" font-family="Helvetica,sans-Serif" font-size="10.00"> </text>
</a>
</g>
</g>
<!-- Node10&#45;&gt;Node14 -->
<g id="edge19" class="edge">
<title>Node10&#45;&gt;Node14</title>
<path fill="none" stroke="orange" d="M282.78,-991.11C327.8,-987.36 416,-976.57 484.5,-947 510.88,-935.61 537.23,-917.24 557.63,-901.07"/>
<polygon fill="orange" stroke="orange" points="282.26,-987.64 272.56,-991.91 282.8,-994.62 282.26,-987.64"/>
<text text-anchor="start" x="523.5" y="-939" font-family="Helvetica,sans-Serif" font-size="10.00"> &lt; String, fspm::config</text>
<text text-anchor="middle" x="582" y="-928" font-family="Helvetica,sans-Serif" font-size="10.00">::params::ParamTable &gt;</text>
</g>
<!-- Node11&#45;&gt;Node5 -->
<g id="edge12" class="edge">
<title>Node11&#45;&gt;Node5</title>
<path fill="none" stroke="#404040" d="M83.66,-740.22C72.78,-686.48 58.45,-578.55 96.5,-499 139.42,-409.27 240.32,-350.67 316.44,-317.55"/>
<polygon fill="none" stroke="#404040" points="316.45,-317.55 320.4,-311.52 327.49,-312.85 323.53,-318.88 316.45,-317.55"/>
<text text-anchor="middle" x="125.5" y="-608" font-family="Helvetica,sans-Serif" font-size="10.00"> &#45;categories</text>
</g>
<!-- Node12 -->
<g id="node12" class="node">
<title>Node12</title>
<g id="a_node12"><a xlink:title=" ">
<polygon fill="none" stroke="#bfbfbf" points="446.5,-582 446.5,-639 502.5,-639 502.5,-582 446.5,-582"/>
<text text-anchor="middle" x="474.5" y="-627" font-family="Helvetica,sans-Serif" font-size="10.00">boolean</text>
<polyline fill="none" stroke="#bfbfbf" points="446.5,-620 502.5,-620 "/>
<text text-anchor="middle" x="474.5" y="-608" font-family="Helvetica,sans-Serif" font-size="10.00"> </text>
<polyline fill="none" stroke="#bfbfbf" points="446.5,-601 502.5,-601 "/>
<text text-anchor="middle" x="474.5" y="-589" font-family="Helvetica,sans-Serif" font-size="10.00"> </text>
</a>
</g>
</g>
<!-- Node12&#45;&gt;Node5 -->
<g id="edge14" class="edge">
<title>Node12&#45;&gt;Node5</title>
<path fill="none" stroke="#404040" d="M471.19,-581.87C466.41,-543.54 456.76,-472.15 444.5,-412 444.06,-409.85 443.61,-407.68 443.15,-405.5"/>
<polygon fill="none" stroke="#404040" points="443.14,-405.46 437.95,-400.45 440.57,-393.73 445.76,-398.74 443.14,-405.46"/>
<text text-anchor="middle" x="519.5" y="-444" font-family="Helvetica,sans-Serif" font-size="10.00"> +useFlattenedCategories</text>
</g>
<!-- Node13&#45;&gt;Node1 -->
<g id="edge15" class="edge">
<title>Node13&#45;&gt;Node1</title>
<path fill="none" stroke="#404040" d="M789.11,-554.36C787.56,-514.62 784.31,-459.8 777.5,-412 763.73,-315.32 737.79,-205.59 719.84,-135.41"/>
<polygon fill="none" stroke="#404040" points="719.8,-135.26 714.44,-130.45 716.81,-123.64 722.18,-128.46 719.8,-135.26"/>
<text text-anchor="middle" x="802.5" y="-280" font-family="Helvetica,sans-Serif" font-size="10.00"> &#45;tableStore</text>
</g>
<!-- Node14&#45;&gt;Node13 -->
<g id="edge18" class="edge">
<title>Node14&#45;&gt;Node13</title>
<path fill="none" stroke="#404040" d="M620.79,-832.99C651.03,-793.52 702.35,-726.54 740.66,-676.55"/>
<polygon fill="none" stroke="#404040" points="740.84,-676.32 741.31,-669.12 748.14,-666.79 747.66,-673.99 740.84,-676.32"/>
<text text-anchor="middle" x="705" y="-772" font-family="Helvetica,sans-Serif" font-size="10.00"> &#45;tables</text>
</g>
</g>
</svg>
        <g id="navigator" transform="translate(0 0)" fill="#404254">
                <rect fill="#f2f5e9" fill-opacity="0.5" stroke="#606060" stroke-width=".5" x="0" y="0" width="60" height="60"/>
                <use id="zoomplus" xlink:href="#zoomPlus" x="17" y="9" onmousedown="handleZoom(evt,'in')"/>
                <use id="zoomminus" xlink:href="#zoomMin" x="42" y="9" onmousedown="handleZoom(evt,'out')"/>
                <use id="reset" xlink:href="#resetDef" x="30" y="36" onmousedown="handleReset()"/>
                <g id="arrowUp" xlink:href="#dirArrow" transform="translate(30 24)" onmousedown="handlePan(0,-1)">
                  <use xlink:href="#rim" fill="#404040">
                        <set attributeName="fill" to="#808080" begin="arrowUp.mouseover" end="arrowUp.mouseout"/>
                  </use>
                  <path fill="none" stroke="white" stroke-width="1.5" d="M0,-3.0v7 M-2.5,-0.5L0,-3.0L2.5,-0.5"/>
                </g>
                <g id="arrowRight" xlink:href="#dirArrow" transform="rotate(90) translate(36 -43)" onmousedown="handlePan(1,0)">
                  <use xlink:href="#rim" fill="#404040">
                        <set attributeName="fill" to="#808080" begin="arrowRight.mouseover" end="arrowRight.mouseout"/>
                  </use>
                  <path fill="none" stroke="white" stroke-width="1.5" d="M0,-3.0v7 M-2.5,-0.5L0,-3.0L2.5,-0.5"/>
                </g>
                <g id="arrowDown" xlink:href="#dirArrow" transform="rotate(180) translate(-30 -48)" onmousedown="handlePan(0,1)">
                  <use xlink:href="#rim" fill="#404040">
                        <set attributeName="fill" to="#808080" begin="arrowDown.mouseover" end="arrowDown.mouseout"/>
                  </use>
                  <path fill="none" stroke="white" stroke-width="1.5" d="M0,-3.0v7 M-2.5,-0.5L0,-3.0L2.5,-0.5"/>
                </g>
                <g id="arrowLeft" xlink:href="#dirArrow" transform="rotate(270) translate(-36 17)" onmousedown="handlePan(-1,0)">
                  <use xlink:href="#rim" fill="#404040">
                        <set attributeName="fill" to="#808080" begin="arrowLeft.mouseover" end="arrowLeft.mouseout"/>
                  </use>
                  <path fill="none" stroke="white" stroke-width="1.5" d="M0,-3.0v7 M-2.5,-0.5L0,-3.0L2.5,-0.5"/>
                </g>
        </g>
        <svg viewBox="0 0 15 15" width="100%" height="30px" preserveAspectRatio="xMaxYMin meet">
         <g id="arrow_out" transform="scale(0.3 0.3)">
          <a xlink:href="classfspm_1_1config_1_1params_1_1groups_1_1DocumentHybridCategoryNameGroup__coll__graph_org.svg" target="_base">
           <rect id="button" ry="5" rx="5" y="6" x="6" height="38" width="38"
                fill="#f2f5e9" fill-opacity="0.5" stroke="#606060" stroke-width="1.0"/>
           <path id="arrow"
             d="M 11.500037,31.436501 C 11.940474,20.09759 22.043105,11.32322 32.158766,21.979434 L 37.068811,17.246167 C 37.068811,17.246167 37.088388,32 37.088388,32 L 22.160133,31.978069 C 22.160133,31.978069 26.997745,27.140456 26.997745,27.140456 C 18.528582,18.264221 13.291696,25.230495 11.500037,31.436501 z"
             style="fill:#404040;"/>
          </a>
         </g>
        </svg>
</svg>
