<?xml version="1.0" encoding="UTF-8" standalone="no"?>
<!DOCTYPE svg PUBLIC "-//W3C//DTD SVG 1.1//EN"
 "http://www.w3.org/Graphics/SVG/1.1/DTD/svg11.dtd">
<!-- Generated by graphviz version 2.43.0 (0)
 -->
<!-- Title: io.github.fruitcropxl.config.params.structures.CategoryStore.getArray Pages: 1 -->
<svg width="522pt" height="374pt"
 viewBox="0.00 0.00 522.00 374.00" xmlns="http://www.w3.org/2000/svg" xmlns:xlink="http://www.w3.org/1999/xlink">
<g id="graph0" class="graph" transform="scale(1 1) rotate(0) translate(4 370)">
<title>io.github.fruitcropxl.config.params.structures.CategoryStore.getArray</title>
<!-- Node1 -->
<g id="Node000001" class="node">
<title>Node1</title>
<g id="a_Node000001"><a xlink:title=" ">
<polygon fill="#999999" stroke="#666666" points="514,-198 275,-198 275,-168 514,-168 514,-198"/>
<text text-anchor="start" x="283" y="-186" font-family="Helvetica,sans-Serif" font-size="10.00">io.github.fruitcropxl.config.params.structures.</text>
<text text-anchor="middle" x="394.5" y="-175" font-family="Helvetica,sans-Serif" font-size="10.00">CategoryStore.getArray</text>
</a>
</g>
</g>
<!-- Node2 -->
<g id="Node000002" class="node">
<title>Node2</title>
<g id="a_Node000002"><a xlink:href="classio_1_1github_1_1fruitcropxl_1_1config_1_1params_1_1structures_1_1CategoryStore_af80f30c0abf379359b59730fd50573ba.html#af80f30c0abf379359b59730fd50573ba" target="_top" xlink:title=" ">
<polygon fill="white" stroke="#666666" points="239,-366 0,-366 0,-336 239,-336 239,-366"/>
<text text-anchor="start" x="8" y="-354" font-family="Helvetica,sans-Serif" font-size="10.00">io.github.fruitcropxl.config.params.structures.</text>
<text text-anchor="middle" x="119.5" y="-343" font-family="Helvetica,sans-Serif" font-size="10.00">CategoryStore.getBooleanArray</text>
</a>
</g>
</g>
<!-- Node1&#45;&gt;Node2 -->
<g id="edge1_Node000001_Node000002" class="edge">
<title>Node1&#45;&gt;Node2</title>
<g id="a_edge1_Node000001_Node000002"><a xlink:title=" ">
<path fill="none" stroke="#63b8ff" d="M375.82,-206.1C349.65,-238.54 297.37,-296.98 239,-327 232.28,-330.46 225.11,-333.41 217.74,-335.95"/>
<polygon fill="#63b8ff" stroke="#63b8ff" points="378.72,-208.07 382.19,-198.06 373.24,-203.72 378.72,-208.07"/>
</a>
</g>
</g>
<!-- Node3 -->
<g id="Node000003" class="node">
<title>Node3</title>
<g id="a_Node000003"><a xlink:href="classio_1_1github_1_1fruitcropxl_1_1config_1_1params_1_1structures_1_1CategoryStore_a3f20ca6dad620b86d619f5f913d54c1b.html#a3f20ca6dad620b86d619f5f913d54c1b" target="_top" xlink:title=" ">
<polygon fill="white" stroke="#666666" points="239,-318 0,-318 0,-288 239,-288 239,-318"/>
<text text-anchor="start" x="8" y="-306" font-family="Helvetica,sans-Serif" font-size="10.00">io.github.fruitcropxl.config.params.structures.</text>
<text text-anchor="middle" x="119.5" y="-295" font-family="Helvetica,sans-Serif" font-size="10.00">CategoryStore.getBooleanArray</text>
</a>
</g>
</g>
<!-- Node1&#45;&gt;Node3 -->
<g id="edge2_Node000001_Node000003" class="edge">
<title>Node1&#45;&gt;Node3</title>
<g id="a_edge2_Node000001_Node000003"><a xlink:title=" ">
<path fill="none" stroke="#63b8ff" d="M366.04,-204.32C336.35,-226.32 286.82,-260.02 239,-279 230.32,-282.45 221.07,-285.42 211.73,-287.98"/>
<polygon fill="#63b8ff" stroke="#63b8ff" points="368.34,-206.97 374.24,-198.17 364.14,-201.37 368.34,-206.97"/>
</a>
</g>
</g>
<!-- Node4 -->
<g id="Node000004" class="node">
<title>Node4</title>
<g id="a_Node000004"><a xlink:href="classio_1_1github_1_1fruitcropxl_1_1config_1_1params_1_1structures_1_1CategoryStore_a44f2652477aa97d9b03517bcf8d1d8b7.html#a44f2652477aa97d9b03517bcf8d1d8b7" target="_top" xlink:title=" ">
<polygon fill="white" stroke="#666666" points="239,-270 0,-270 0,-240 239,-240 239,-270"/>
<text text-anchor="start" x="8" y="-258" font-family="Helvetica,sans-Serif" font-size="10.00">io.github.fruitcropxl.config.params.structures.</text>
<text text-anchor="middle" x="119.5" y="-247" font-family="Helvetica,sans-Serif" font-size="10.00">CategoryStore.getDoubleArray</text>
</a>
</g>
</g>
<!-- Node1&#45;&gt;Node4 -->
<g id="edge3_Node000001_Node000004" class="edge">
<title>Node1&#45;&gt;Node4</title>
<g id="a_edge3_Node000001_Node000004"><a xlink:title=" ">
<path fill="none" stroke="#63b8ff" d="M339.53,-201.24C310.04,-210.84 272.74,-222.37 239,-231 226.6,-234.17 213.37,-237.2 200.43,-239.96"/>
<polygon fill="#63b8ff" stroke="#63b8ff" points="340.81,-204.51 349.22,-198.07 338.63,-197.85 340.81,-204.51"/>
</a>
</g>
</g>
<!-- Node5 -->
<g id="Node000005" class="node">
<title>Node5</title>
<g id="a_Node000005"><a xlink:href="classio_1_1github_1_1fruitcropxl_1_1config_1_1params_1_1structures_1_1CategoryStore_ad68a65330093c84406367b533bd742dc.html#ad68a65330093c84406367b533bd742dc" target="_top" xlink:title=" ">
<polygon fill="white" stroke="#666666" points="239,-222 0,-222 0,-192 239,-192 239,-222"/>
<text text-anchor="start" x="8" y="-210" font-family="Helvetica,sans-Serif" font-size="10.00">io.github.fruitcropxl.config.params.structures.</text>
<text text-anchor="middle" x="119.5" y="-199" font-family="Helvetica,sans-Serif" font-size="10.00">CategoryStore.getDoubleArray</text>
</a>
</g>
</g>
<!-- Node1&#45;&gt;Node5 -->
<g id="edge4_Node000001_Node000005" class="edge">
<title>Node1&#45;&gt;Node5</title>
<g id="a_edge4_Node000001_Node000005"><a xlink:title=" ">
<path fill="none" stroke="#63b8ff" d="M264.96,-194.3C256.42,-195.05 247.85,-195.8 239.37,-196.55"/>
<polygon fill="#63b8ff" stroke="#63b8ff" points="265.29,-197.78 274.95,-193.42 264.68,-190.81 265.29,-197.78"/>
</a>
</g>
</g>
<!-- Node6 -->
<g id="Node000006" class="node">
<title>Node6</title>
<g id="a_Node000006"><a xlink:href="classio_1_1github_1_1fruitcropxl_1_1config_1_1params_1_1structures_1_1CategoryStore_a1640aa8fbd2902ddd7341ed39783eb1e.html#a1640aa8fbd2902ddd7341ed39783eb1e" target="_top" xlink:title=" ">
<polygon fill="white" stroke="#666666" points="239,-174 0,-174 0,-144 239,-144 239,-174"/>
<text text-anchor="start" x="8" y="-162" font-family="Helvetica,sans-Serif" font-size="10.00">io.github.fruitcropxl.config.params.structures.</text>
<text text-anchor="middle" x="119.5" y="-151" font-family="Helvetica,sans-Serif" font-size="10.00">CategoryStore.getIntegerArray</text>
</a>
</g>
</g>
<!-- Node1&#45;&gt;Node6 -->
<g id="edge5_Node000001_Node000006" class="edge">
<title>Node1&#45;&gt;Node6</title>
<g id="a_edge5_Node000001_Node000006"><a xlink:title=" ">
<path fill="none" stroke="#63b8ff" d="M264.96,-171.7C256.42,-170.95 247.85,-170.2 239.37,-169.45"/>
<polygon fill="#63b8ff" stroke="#63b8ff" points="264.68,-175.19 274.95,-172.58 265.29,-168.22 264.68,-175.19"/>
</a>
</g>
</g>
<!-- Node7 -->
<g id="Node000007" class="node">
<title>Node7</title>
<g id="a_Node000007"><a xlink:href="classio_1_1github_1_1fruitcropxl_1_1config_1_1params_1_1structures_1_1CategoryStore_a33d6cd04f1d908bfe44d61824e8a9aed.html#a33d6cd04f1d908bfe44d61824e8a9aed" target="_top" xlink:title=" ">
<polygon fill="white" stroke="#666666" points="239,-126 0,-126 0,-96 239,-96 239,-126"/>
<text text-anchor="start" x="8" y="-114" font-family="Helvetica,sans-Serif" font-size="10.00">io.github.fruitcropxl.config.params.structures.</text>
<text text-anchor="middle" x="119.5" y="-103" font-family="Helvetica,sans-Serif" font-size="10.00">CategoryStore.getIntegerArray</text>
</a>
</g>
</g>
<!-- Node1&#45;&gt;Node7 -->
<g id="edge6_Node000001_Node000007" class="edge">
<title>Node1&#45;&gt;Node7</title>
<g id="a_edge6_Node000001_Node000007"><a xlink:title=" ">
<path fill="none" stroke="#63b8ff" d="M339.53,-164.76C310.04,-155.16 272.74,-143.63 239,-135 226.6,-131.83 213.37,-128.8 200.43,-126.04"/>
<polygon fill="#63b8ff" stroke="#63b8ff" points="338.63,-168.15 349.22,-167.93 340.81,-161.49 338.63,-168.15"/>
</a>
</g>
</g>
<!-- Node8 -->
<g id="Node000008" class="node">
<title>Node8</title>
<g id="a_Node000008"><a xlink:href="classio_1_1github_1_1fruitcropxl_1_1config_1_1params_1_1structures_1_1CategoryStore_ac1c0346a1e128fce0e74842c375fff39.html#ac1c0346a1e128fce0e74842c375fff39" target="_top" xlink:title=" ">
<polygon fill="white" stroke="#666666" points="239,-78 0,-78 0,-48 239,-48 239,-78"/>
<text text-anchor="start" x="8" y="-66" font-family="Helvetica,sans-Serif" font-size="10.00">io.github.fruitcropxl.config.params.structures.</text>
<text text-anchor="middle" x="119.5" y="-55" font-family="Helvetica,sans-Serif" font-size="10.00">CategoryStore.getStringArray</text>
</a>
</g>
</g>
<!-- Node1&#45;&gt;Node8 -->
<g id="edge7_Node000001_Node000008" class="edge">
<title>Node1&#45;&gt;Node8</title>
<g id="a_edge7_Node000001_Node000008"><a xlink:title=" ">
<path fill="none" stroke="#63b8ff" d="M366.04,-161.68C336.35,-139.68 286.82,-105.98 239,-87 230.32,-83.55 221.07,-80.58 211.73,-78.02"/>
<polygon fill="#63b8ff" stroke="#63b8ff" points="364.14,-164.63 374.24,-167.83 368.34,-159.03 364.14,-164.63"/>
</a>
</g>
</g>
<!-- Node9 -->
<g id="Node000009" class="node">
<title>Node9</title>
<g id="a_Node000009"><a xlink:href="classio_1_1github_1_1fruitcropxl_1_1config_1_1params_1_1structures_1_1CategoryStore_ab975d7039f5845cea6393d10c729989a.html#ab975d7039f5845cea6393d10c729989a" target="_top" xlink:title=" ">
<polygon fill="white" stroke="#666666" points="239,-30 0,-30 0,0 239,0 239,-30"/>
<text text-anchor="start" x="8" y="-18" font-family="Helvetica,sans-Serif" font-size="10.00">io.github.fruitcropxl.config.params.structures.</text>
<text text-anchor="middle" x="119.5" y="-7" font-family="Helvetica,sans-Serif" font-size="10.00">CategoryStore.getStringArray</text>
</a>
</g>
</g>
<!-- Node1&#45;&gt;Node9 -->
<g id="edge8_Node000001_Node000009" class="edge">
<title>Node1&#45;&gt;Node9</title>
<g id="a_edge8_Node000001_Node000009"><a xlink:title=" ">
<path fill="none" stroke="#63b8ff" d="M375.82,-159.9C349.65,-127.46 297.37,-69.02 239,-39 232.28,-35.54 225.11,-32.59 217.74,-30.05"/>
<polygon fill="#63b8ff" stroke="#63b8ff" points="373.24,-162.28 382.19,-167.94 378.72,-157.93 373.24,-162.28"/>
</a>
</g>
</g>
</g>
</svg>
