<?xml version="1.0" encoding="UTF-8" standalone="no"?>
<!DOCTYPE svg PUBLIC "-//W3C//DTD SVG 1.1//EN"
 "http://www.w3.org/Graphics/SVG/1.1/DTD/svg11.dtd">
<!-- Generated by graphviz version 2.43.0 (0)
 -->
<!-- Title: fspm.config.Config.getInstance Pages: 1 -->
<svg width="523pt" height="28pt"
 viewBox="0.00 0.00 523.00 28.00" xmlns="http://www.w3.org/2000/svg" xmlns:xlink="http://www.w3.org/1999/xlink">
<g id="graph0" class="graph" transform="scale(1 1) rotate(0) translate(4 24)">
<title>fspm.config.Config.getInstance</title>
<!-- Node1 -->
<g id="node1" class="node">
<title>Node1</title>
<g id="a_node1"><a xlink:title="Gets the singleton instance of the simulation fspm.config.Config.">
<polygon fill="#bfbfbf" stroke="black" points="0,-0.5 0,-19.5 167,-19.5 167,-0.5 0,-0.5"/>
<text text-anchor="middle" x="83.5" y="-7.5" font-family="Helvetica,sans-Serif" font-size="10.00">fspm.config.Config.getInstance</text>
</a>
</g>
</g>
<!-- Node2 -->
<g id="node2" class="node">
<title>Node2</title>
<g id="a_node2"><a xlink:href="classfspm_1_1config_1_1Config_a0884d2ba03a515e43bfcdced93fd31ba.html#a0884d2ba03a515e43bfcdced93fd31ba" target="_top" xlink:title="Class constructor.">
<polygon fill="none" stroke="black" points="203,-0.5 203,-19.5 344,-19.5 344,-0.5 203,-0.5"/>
<text text-anchor="middle" x="273.5" y="-7.5" font-family="Helvetica,sans-Serif" font-size="10.00">fspm.config.Config.Config</text>
</a>
</g>
</g>
<!-- Node1&#45;&gt;Node2 -->
<g id="edge1" class="edge">
<title>Node1&#45;&gt;Node2</title>
<path fill="none" stroke="midnightblue" d="M167.23,-10C175.71,-10 184.31,-10 192.75,-10"/>
<polygon fill="midnightblue" stroke="midnightblue" points="192.95,-13.5 202.95,-10 192.95,-6.5 192.95,-13.5"/>
</g>
<!-- Node3 -->
<g id="node3" class="node">
<title>Node3</title>
<g id="a_node3"><a xlink:href="classfspm_1_1config_1_1Config_a6069a78eec5ca1610f69d9556802e8a5.html#a6069a78eec5ca1610f69d9556802e8a5" target="_top" xlink:title=" ">
<polygon fill="none" stroke="black" points="380,-0.5 380,-19.5 515,-19.5 515,-0.5 380,-0.5"/>
<text text-anchor="middle" x="447.5" y="-7.5" font-family="Helvetica,sans-Serif" font-size="10.00">fspm.config.Config.reset</text>
</a>
</g>
</g>
<!-- Node2&#45;&gt;Node3 -->
<g id="edge2" class="edge">
<title>Node2&#45;&gt;Node3</title>
<path fill="none" stroke="midnightblue" d="M344.46,-10C352.79,-10 361.33,-10 369.75,-10"/>
<polygon fill="midnightblue" stroke="midnightblue" points="369.94,-13.5 379.94,-10 369.94,-6.5 369.94,-13.5"/>
</g>
</g>
</svg>
