<?xml version="1.0" encoding="UTF-8" standalone="no"?>
<!DOCTYPE svg PUBLIC "-//W3C//DTD SVG 1.1//EN"
 "http://www.w3.org/Graphics/SVG/1.1/DTD/svg11.dtd">
<!-- Generated by graphviz version 2.43.0 (0)
 -->
<!-- Title: fspm.config.Config.addGroup Pages: 1 -->
<svg width="375pt" height="78pt"
 viewBox="0.00 0.00 375.00 77.50" xmlns="http://www.w3.org/2000/svg" xmlns:xlink="http://www.w3.org/1999/xlink">
<g id="graph0" class="graph" transform="scale(1 1) rotate(0) translate(4 73.5)">
<title>fspm.config.Config.addGroup</title>
<!-- Node1 -->
<g id="node1" class="node">
<title>Node1</title>
<g id="a_node1"><a xlink:title=" ">
<polygon fill="#bfbfbf" stroke="black" points="209,-28 209,-47 367,-47 367,-28 209,-28"/>
<text text-anchor="middle" x="288" y="-35" font-family="Helvetica,sans-Serif" font-size="10.00">fspm.config.Config.addGroup</text>
</a>
</g>
</g>
<!-- Node2 -->
<g id="node2" class="node">
<title>Node2</title>
<g id="a_node2"><a xlink:href="classfspm_1_1config_1_1Config_a381d7c4f91bba726f1dc19d493fd3ef8.html#a381d7c4f91bba726f1dc19d493fd3ef8" target="_top" xlink:title=" ">
<polygon fill="none" stroke="black" points="7.5,-50 7.5,-69 165.5,-69 165.5,-50 7.5,-50"/>
<text text-anchor="middle" x="86.5" y="-57" font-family="Helvetica,sans-Serif" font-size="10.00">fspm.config.Config.addGroup</text>
</a>
</g>
</g>
<!-- Node1&#45;&gt;Node2 -->
<g id="edge1" class="edge">
<title>Node1&#45;&gt;Node2</title>
<path fill="none" stroke="midnightblue" d="M198.66,-47.24C187.63,-48.46 176.41,-49.7 165.55,-50.89"/>
<polygon fill="midnightblue" stroke="midnightblue" points="199.17,-50.71 208.72,-46.13 198.4,-43.75 199.17,-50.71"/>
</g>
<!-- Node3 -->
<g id="node3" class="node">
<title>Node3</title>
<g id="a_node3"><a xlink:href="classfspm_1_1config_1_1ConfigTestSuite_aa88a76c679af01aa7f7a1f61c22f85aa.html#aa88a76c679af01aa7f7a1f61c22f85aa" target="_top" xlink:title="Note: does not work when running tests in parallel.">
<polygon fill="none" stroke="black" points="0,-0.5 0,-30.5 173,-30.5 173,-0.5 0,-0.5"/>
<text text-anchor="start" x="8" y="-18.5" font-family="Helvetica,sans-Serif" font-size="10.00">fspm.config.ConfigTestSuite.add</text>
<text text-anchor="middle" x="86.5" y="-7.5" font-family="Helvetica,sans-Serif" font-size="10.00">Groups</text>
</a>
</g>
</g>
<!-- Node1&#45;&gt;Node3 -->
<g id="edge2" class="edge">
<title>Node1&#45;&gt;Node3</title>
<path fill="none" stroke="midnightblue" d="M198.51,-27.74C190.08,-26.81 181.53,-25.87 173.13,-24.94"/>
<polygon fill="midnightblue" stroke="midnightblue" points="198.4,-31.25 208.72,-28.87 199.17,-24.29 198.4,-31.25"/>
</g>
</g>
</svg>
