<?xml version="1.0" encoding="UTF-8" standalone="no"?>
<!DOCTYPE svg PUBLIC "-//W3C//DTD SVG 1.1//EN"
 "http://www.w3.org/Graphics/SVG/1.1/DTD/svg11.dtd">
<!-- Generated by graphviz version 2.43.0 (0)
 -->
<!-- Title: fspm.config.params.Parameter.asArray Pages: 1 -->
<!--zoomable 284 -->
<svg id="main" version="1.1" xmlns="http://www.w3.org/2000/svg" xmlns:xlink="http://www.w3.org/1999/xlink" xml:space="preserve" onload="init(evt)">
<style type="text/css"><![CDATA[
.edge:hover path { stroke: red; }
.edge:hover polygon { stroke: red; fill: red; }
]]></style>
<script type="text/javascript"><![CDATA[
var edges = document.getElementsByTagName('g');
if (edges && edges.length) {
  for (var i=0;i<edges.length;i++) {
    if (edges[i].id.substr(0,4)=='edge') {
      edges[i].setAttribute('class','edge');
    }
  }
}
]]></script>
        <defs>
                <circle id="rim" cx="0" cy="0" r="7"/>
                <circle id="rim2" cx="0" cy="0" r="3.5"/>
                <g id="zoomPlus">
                        <use xlink:href="#rim" fill="#404040">
                                <set attributeName="fill" to="#808080" begin="zoomplus.mouseover" end="zoomplus.mouseout"/>
                        </use>
                        <path d="M-4,0h8M0,-4v8" fill="none" stroke="white" stroke-width="1.5" pointer-events="none"/>
                </g>
                <g id="zoomMin">
                        <use xlink:href="#rim" fill="#404040">
                                <set attributeName="fill" to="#808080" begin="zoomminus.mouseover" end="zoomminus.mouseout"/>
                        </use>
                        <path d="M-4,0h8" fill="none" stroke="white" stroke-width="1.5" pointer-events="none"/>
                </g>
                <g id="dirArrow">
                        <path fill="none" stroke="white" stroke-width="1.5" d="M0,-3.0v7 M-2.5,-0.5L0,-3.0L2.5,-0.5"/>
                </g>
               <g id="resetDef">
                       <use xlink:href="#rim2" fill="#404040">
                               <set attributeName="fill" to="#808080" begin="reset.mouseover" end="reset.mouseout"/>
                       </use>
               </g>
        </defs>

<script type="text/javascript">
var viewWidth = 1026;
var viewHeight = 284;
var sectionId = 'dynsection-1';
</script>
<script xlink:href="svgpan.js"/>
<svg id="graph" class="graph">
<g id="viewport">
<title>fspm.config.params.Parameter.asArray</title>
<!-- Node1 -->
<g id="node1" class="node">
<title>Node1</title>
<g id="a_node1"><a xlink:title=" ">
<polygon fill="#bfbfbf" stroke="black" points="838,-122.5 838,-152.5 1018,-152.5 1018,-122.5 838,-122.5"/>
<text text-anchor="start" x="846" y="-140.5" font-family="Helvetica,sans-Serif" font-size="10.00">fspm.config.params.Parameter.as</text>
<text text-anchor="middle" x="928" y="-129.5" font-family="Helvetica,sans-Serif" font-size="10.00">Array</text>
</a>
</g>
</g>
<!-- Node2 -->
<g id="node2" class="node">
<title>Node2</title>
<g id="a_node2"><a xlink:href="classfspm_1_1config_1_1params_1_1Parameter_a7bd98e842e2c8e7283b17017707da9be.html#a7bd98e842e2c8e7283b17017707da9be" target="_top" xlink:title=" ">
<polygon fill="none" stroke="black" points="622,-245.5 622,-275.5 802,-275.5 802,-245.5 622,-245.5"/>
<text text-anchor="start" x="630" y="-263.5" font-family="Helvetica,sans-Serif" font-size="10.00">fspm.config.params.Parameter.as</text>
<text text-anchor="middle" x="712" y="-252.5" font-family="Helvetica,sans-Serif" font-size="10.00">BooleanArray</text>
</a>
</g>
</g>
<!-- Node1&#45;&gt;Node2 -->
<g id="edge1" class="edge">
<title>Node1&#45;&gt;Node2</title>
<path fill="none" stroke="midnightblue" d="M904.89,-159.7C881.33,-182.16 841.98,-216.36 802,-236.5 795.28,-239.88 788.03,-242.83 780.67,-245.4"/>
<polygon fill="midnightblue" stroke="midnightblue" points="907.51,-162.04 912.26,-152.57 902.64,-157.01 907.51,-162.04"/>
</g>
<!-- Node5 -->
<g id="node5" class="node">
<title>Node5</title>
<g id="a_node5"><a xlink:href="classfspm_1_1config_1_1params_1_1Parameter_a9602723e39e140c1a5188f3f6bafacfa.html#a9602723e39e140c1a5188f3f6bafacfa" target="_top" xlink:title=" ">
<polygon fill="none" stroke="black" points="622,-196.5 622,-226.5 802,-226.5 802,-196.5 622,-196.5"/>
<text text-anchor="start" x="630" y="-214.5" font-family="Helvetica,sans-Serif" font-size="10.00">fspm.config.params.Parameter.as</text>
<text text-anchor="middle" x="712" y="-203.5" font-family="Helvetica,sans-Serif" font-size="10.00">DoubleArray</text>
</a>
</g>
</g>
<!-- Node1&#45;&gt;Node5 -->
<g id="edge4" class="edge">
<title>Node1&#45;&gt;Node5</title>
<path fill="none" stroke="midnightblue" d="M883.2,-156.48C859.43,-166.41 829.38,-178.37 802,-187.5 792.59,-190.64 782.51,-193.67 772.65,-196.45"/>
<polygon fill="midnightblue" stroke="midnightblue" points="884.79,-159.61 892.65,-152.5 882.08,-153.16 884.79,-159.61"/>
</g>
<!-- Node9 -->
<g id="node9" class="node">
<title>Node9</title>
<g id="a_node9"><a xlink:href="classfspm_1_1config_1_1params_1_1Parameter_a05e8bc0ef3f057f90004b4ec4b3d0efe.html#a05e8bc0ef3f057f90004b4ec4b3d0efe" target="_top" xlink:title=" ">
<polygon fill="none" stroke="black" points="622,-98.5 622,-128.5 802,-128.5 802,-98.5 622,-98.5"/>
<text text-anchor="start" x="630" y="-116.5" font-family="Helvetica,sans-Serif" font-size="10.00">fspm.config.params.Parameter.as</text>
<text text-anchor="middle" x="712" y="-105.5" font-family="Helvetica,sans-Serif" font-size="10.00">IntegerArray</text>
</a>
</g>
</g>
<!-- Node1&#45;&gt;Node9 -->
<g id="edge8" class="edge">
<title>Node1&#45;&gt;Node9</title>
<path fill="none" stroke="midnightblue" d="M827.77,-126.37C819.19,-125.41 810.55,-124.44 802.06,-123.49"/>
<polygon fill="midnightblue" stroke="midnightblue" points="827.47,-129.86 837.79,-127.5 828.25,-122.9 827.47,-129.86"/>
</g>
<!-- Node13 -->
<g id="node13" class="node">
<title>Node13</title>
<g id="a_node13"><a xlink:href="classfspm_1_1config_1_1params_1_1Parameter_a80c0cb3ad8030dd29fdc38382dffbb61.html#a80c0cb3ad8030dd29fdc38382dffbb61" target="_top" xlink:title=" ">
<polygon fill="none" stroke="black" points="622,-49.5 622,-79.5 802,-79.5 802,-49.5 622,-49.5"/>
<text text-anchor="start" x="630" y="-67.5" font-family="Helvetica,sans-Serif" font-size="10.00">fspm.config.params.Parameter.as</text>
<text text-anchor="middle" x="712" y="-56.5" font-family="Helvetica,sans-Serif" font-size="10.00">StringArray</text>
</a>
</g>
</g>
<!-- Node1&#45;&gt;Node13 -->
<g id="edge12" class="edge">
<title>Node1&#45;&gt;Node13</title>
<path fill="none" stroke="midnightblue" d="M882.15,-118.53C858.53,-108.9 828.95,-97.38 802,-88.5 792.58,-85.39 782.5,-82.38 772.63,-79.61"/>
<polygon fill="midnightblue" stroke="midnightblue" points="880.97,-121.83 891.55,-122.4 883.63,-115.36 880.97,-121.83"/>
</g>
<!-- Node16 -->
<g id="node16" class="node">
<title>Node16</title>
<g id="a_node16"><a xlink:href="classfspm_1_1config_1_1params_1_1ParamCategory_addcc002dbf650fbc675a1ef472dfa088.html#addcc002dbf650fbc675a1ef472dfa088" target="_top" xlink:title=" ">
<polygon fill="none" stroke="black" points="638.5,-147.5 638.5,-177.5 785.5,-177.5 785.5,-147.5 638.5,-147.5"/>
<text text-anchor="start" x="646.5" y="-165.5" font-family="Helvetica,sans-Serif" font-size="10.00">fspm.config.params.Param</text>
<text text-anchor="middle" x="712" y="-154.5" font-family="Helvetica,sans-Serif" font-size="10.00">Category.getArray</text>
</a>
</g>
</g>
<!-- Node1&#45;&gt;Node16 -->
<g id="edge15" class="edge">
<title>Node1&#45;&gt;Node16</title>
<path fill="none" stroke="midnightblue" d="M827.59,-149.11C813.51,-150.76 799.26,-152.42 785.81,-153.99"/>
<polygon fill="midnightblue" stroke="midnightblue" points="828.27,-152.56 837.79,-147.92 827.46,-145.61 828.27,-152.56"/>
</g>
<!-- Node20 -->
<g id="node20" class="node">
<title>Node20</title>
<g id="a_node20"><a xlink:href="classfspm_1_1config_1_1params_1_1ParamTable_a941e459792096daaec6f6525f4e130df.html#a941e459792096daaec6f6525f4e130df" target="_top" xlink:title=" ">
<polygon fill="none" stroke="black" points="638.5,-0.5 638.5,-30.5 785.5,-30.5 785.5,-0.5 638.5,-0.5"/>
<text text-anchor="start" x="646.5" y="-18.5" font-family="Helvetica,sans-Serif" font-size="10.00">fspm.config.params.Param</text>
<text text-anchor="middle" x="712" y="-7.5" font-family="Helvetica,sans-Serif" font-size="10.00">Table.getArray</text>
</a>
</g>
</g>
<!-- Node1&#45;&gt;Node20 -->
<g id="edge21" class="edge">
<title>Node1&#45;&gt;Node20</title>
<path fill="none" stroke="midnightblue" d="M904.46,-115.17C880.82,-92.94 841.66,-59.35 802,-39.5 795.27,-36.13 788.02,-33.19 780.65,-30.64"/>
<polygon fill="midnightblue" stroke="midnightblue" points="902.21,-117.86 911.86,-122.23 907.04,-112.8 902.21,-117.86"/>
</g>
<!-- Node3 -->
<g id="node3" class="node">
<title>Node3</title>
<g id="a_node3"><a xlink:href="classfspm_1_1config_1_1params_1_1ParamCategory_a13e0ff70b1e28c8f3533eaee62c6abf3.html#a13e0ff70b1e28c8f3533eaee62c6abf3" target="_top" xlink:title=" ">
<polygon fill="none" stroke="black" points="439,-245.5 439,-275.5 586,-275.5 586,-245.5 439,-245.5"/>
<text text-anchor="start" x="447" y="-263.5" font-family="Helvetica,sans-Serif" font-size="10.00">fspm.config.params.Param</text>
<text text-anchor="middle" x="512.5" y="-252.5" font-family="Helvetica,sans-Serif" font-size="10.00">Category.getBooleanArray</text>
</a>
</g>
</g>
<!-- Node2&#45;&gt;Node3 -->
<g id="edge2" class="edge">
<title>Node2&#45;&gt;Node3</title>
<path fill="none" stroke="midnightblue" d="M611.66,-260.5C603.03,-260.5 594.41,-260.5 586.05,-260.5"/>
<polygon fill="midnightblue" stroke="midnightblue" points="611.78,-264 621.78,-260.5 611.78,-257 611.78,-264"/>
</g>
<!-- Node4 -->
<g id="node4" class="node">
<title>Node4</title>
<g id="a_node4"><a xlink:href="classfspm_1_1config_1_1params_1_1hierarchy_1_1CategoryHierarchy_a7970892fcc03921063891466f26ddbb0.html#a7970892fcc03921063891466f26ddbb0" target="_top" xlink:title=" ">
<polygon fill="none" stroke="black" points="212,-245.5 212,-275.5 403,-275.5 403,-245.5 212,-245.5"/>
<text text-anchor="start" x="220" y="-263.5" font-family="Helvetica,sans-Serif" font-size="10.00">fspm.config.params.hierarchy.</text>
<text text-anchor="middle" x="307.5" y="-252.5" font-family="Helvetica,sans-Serif" font-size="10.00">CategoryHierarchy.getBooleanArray</text>
</a>
</g>
</g>
<!-- Node3&#45;&gt;Node4 -->
<g id="edge3" class="edge">
<title>Node3&#45;&gt;Node4</title>
<path fill="none" stroke="midnightblue" d="M428.6,-260.5C420.17,-260.5 411.56,-260.5 403.01,-260.5"/>
<polygon fill="midnightblue" stroke="midnightblue" points="428.79,-264 438.79,-260.5 428.79,-257 428.79,-264"/>
</g>
<!-- Node6 -->
<g id="node6" class="node">
<title>Node6</title>
<g id="a_node6"><a xlink:href="classfspm_1_1config_1_1params_1_1ParamCategory_a480fdf398400180423780ae25a3c4656.html#a480fdf398400180423780ae25a3c4656" target="_top" xlink:title=" ">
<polygon fill="none" stroke="black" points="439,-196.5 439,-226.5 586,-226.5 586,-196.5 439,-196.5"/>
<text text-anchor="start" x="447" y="-214.5" font-family="Helvetica,sans-Serif" font-size="10.00">fspm.config.params.Param</text>
<text text-anchor="middle" x="512.5" y="-203.5" font-family="Helvetica,sans-Serif" font-size="10.00">Category.getDoubleArray</text>
</a>
</g>
</g>
<!-- Node5&#45;&gt;Node6 -->
<g id="edge5" class="edge">
<title>Node5&#45;&gt;Node6</title>
<path fill="none" stroke="midnightblue" d="M611.66,-211.5C603.03,-211.5 594.41,-211.5 586.05,-211.5"/>
<polygon fill="midnightblue" stroke="midnightblue" points="611.78,-215 621.78,-211.5 611.78,-208 611.78,-215"/>
</g>
<!-- Node7 -->
<g id="node7" class="node">
<title>Node7</title>
<g id="a_node7"><a xlink:href="classfspm_1_1config_1_1params_1_1hierarchy_1_1CategoryHierarchy_aa00dcf6e501990ed32745e4befe7986c.html#aa00dcf6e501990ed32745e4befe7986c" target="_top" xlink:title=" ">
<polygon fill="none" stroke="black" points="214.5,-196.5 214.5,-226.5 400.5,-226.5 400.5,-196.5 214.5,-196.5"/>
<text text-anchor="start" x="222.5" y="-214.5" font-family="Helvetica,sans-Serif" font-size="10.00">fspm.config.params.hierarchy.</text>
<text text-anchor="middle" x="307.5" y="-203.5" font-family="Helvetica,sans-Serif" font-size="10.00">CategoryHierarchy.getDoubleArray</text>
</a>
</g>
</g>
<!-- Node6&#45;&gt;Node7 -->
<g id="edge6" class="edge">
<title>Node6&#45;&gt;Node7</title>
<path fill="none" stroke="midnightblue" d="M428.49,-211.5C419.28,-211.5 409.85,-211.5 400.54,-211.5"/>
<polygon fill="midnightblue" stroke="midnightblue" points="428.79,-215 438.79,-211.5 428.79,-208 428.79,-215"/>
</g>
<!-- Node8 -->
<g id="node8" class="node">
<title>Node8</title>
<g id="a_node8"><a xlink:href="classfspm_1_1config_1_1tests_1_1ParamAccess_1_1ArrayTest_aa473b3f7e16319b82590bc9558a94bd4.html#aa473b3f7e16319b82590bc9558a94bd4" target="_top" xlink:title=" ">
<polygon fill="none" stroke="black" points="0,-221.5 0,-251.5 176,-251.5 176,-221.5 0,-221.5"/>
<text text-anchor="start" x="8" y="-239.5" font-family="Helvetica,sans-Serif" font-size="10.00">fspm.config.tests.ParamAccess.</text>
<text text-anchor="middle" x="88" y="-228.5" font-family="Helvetica,sans-Serif" font-size="10.00">ArrayTest.testIncorrectArrayType</text>
</a>
</g>
</g>
<!-- Node7&#45;&gt;Node8 -->
<g id="edge7" class="edge">
<title>Node7&#45;&gt;Node8</title>
<path fill="none" stroke="midnightblue" d="M204.15,-223.26C194.8,-224.34 185.39,-225.42 176.19,-226.48"/>
<polygon fill="midnightblue" stroke="midnightblue" points="204.73,-226.72 214.26,-222.1 203.93,-219.77 204.73,-226.72"/>
</g>
<!-- Node10 -->
<g id="node10" class="node">
<title>Node10</title>
<g id="a_node10"><a xlink:href="classfspm_1_1config_1_1params_1_1ParamCategory_a38b2d59e68a994758753fbe4e590a9d8.html#a38b2d59e68a994758753fbe4e590a9d8" target="_top" xlink:title=" ">
<polygon fill="none" stroke="black" points="439,-98.5 439,-128.5 586,-128.5 586,-98.5 439,-98.5"/>
<text text-anchor="start" x="447" y="-116.5" font-family="Helvetica,sans-Serif" font-size="10.00">fspm.config.params.Param</text>
<text text-anchor="middle" x="512.5" y="-105.5" font-family="Helvetica,sans-Serif" font-size="10.00">Category.getIntegerArray</text>
</a>
</g>
</g>
<!-- Node9&#45;&gt;Node10 -->
<g id="edge9" class="edge">
<title>Node9&#45;&gt;Node10</title>
<path fill="none" stroke="midnightblue" d="M611.66,-113.5C603.03,-113.5 594.41,-113.5 586.05,-113.5"/>
<polygon fill="midnightblue" stroke="midnightblue" points="611.78,-117 621.78,-113.5 611.78,-110 611.78,-117"/>
</g>
<!-- Node11 -->
<g id="node11" class="node">
<title>Node11</title>
<g id="a_node11"><a xlink:href="classfspm_1_1config_1_1params_1_1hierarchy_1_1CategoryHierarchy_a768fd7434215517760d2f4dd066cac99.html#a768fd7434215517760d2f4dd066cac99" target="_top" xlink:title=" ">
<polygon fill="none" stroke="black" points="214.5,-98.5 214.5,-128.5 400.5,-128.5 400.5,-98.5 214.5,-98.5"/>
<text text-anchor="start" x="222.5" y="-116.5" font-family="Helvetica,sans-Serif" font-size="10.00">fspm.config.params.hierarchy.</text>
<text text-anchor="middle" x="307.5" y="-105.5" font-family="Helvetica,sans-Serif" font-size="10.00">CategoryHierarchy.getIntegerArray</text>
</a>
</g>
</g>
<!-- Node10&#45;&gt;Node11 -->
<g id="edge10" class="edge">
<title>Node10&#45;&gt;Node11</title>
<path fill="none" stroke="midnightblue" d="M428.49,-113.5C419.28,-113.5 409.85,-113.5 400.54,-113.5"/>
<polygon fill="midnightblue" stroke="midnightblue" points="428.79,-117 438.79,-113.5 428.79,-110 428.79,-117"/>
</g>
<!-- Node12 -->
<g id="node12" class="node">
<title>Node12</title>
<g id="a_node12"><a xlink:href="classfspm_1_1config_1_1tests_1_1ParamAccess_1_1ArrayTest_a7f034099689706d2e263f1d7d04b0f9a.html#a7f034099689706d2e263f1d7d04b0f9a" target="_top" xlink:title=" ">
<polygon fill="none" stroke="black" points="2.5,-74.5 2.5,-104.5 173.5,-104.5 173.5,-74.5 2.5,-74.5"/>
<text text-anchor="start" x="10.5" y="-92.5" font-family="Helvetica,sans-Serif" font-size="10.00">fspm.config.tests.ParamAccess.</text>
<text text-anchor="middle" x="88" y="-81.5" font-family="Helvetica,sans-Serif" font-size="10.00">ArrayTest.testGetArrays</text>
</a>
</g>
</g>
<!-- Node11&#45;&gt;Node12 -->
<g id="edge11" class="edge">
<title>Node11&#45;&gt;Node12</title>
<path fill="none" stroke="midnightblue" d="M204.14,-102.2C193.97,-101.08 183.74,-99.95 173.78,-98.86"/>
<polygon fill="midnightblue" stroke="midnightblue" points="203.94,-105.7 214.26,-103.32 204.7,-98.75 203.94,-105.7"/>
</g>
<!-- Node14 -->
<g id="node14" class="node">
<title>Node14</title>
<g id="a_node14"><a xlink:href="classfspm_1_1config_1_1params_1_1ParamCategory_acfe96862fe8cea782cd628ff73071ed5.html#acfe96862fe8cea782cd628ff73071ed5" target="_top" xlink:title=" ">
<polygon fill="none" stroke="black" points="439,-49.5 439,-79.5 586,-79.5 586,-49.5 439,-49.5"/>
<text text-anchor="start" x="447" y="-67.5" font-family="Helvetica,sans-Serif" font-size="10.00">fspm.config.params.Param</text>
<text text-anchor="middle" x="512.5" y="-56.5" font-family="Helvetica,sans-Serif" font-size="10.00">Category.getStringArray</text>
</a>
</g>
</g>
<!-- Node13&#45;&gt;Node14 -->
<g id="edge13" class="edge">
<title>Node13&#45;&gt;Node14</title>
<path fill="none" stroke="midnightblue" d="M611.66,-64.5C603.03,-64.5 594.41,-64.5 586.05,-64.5"/>
<polygon fill="midnightblue" stroke="midnightblue" points="611.78,-68 621.78,-64.5 611.78,-61 611.78,-68"/>
</g>
<!-- Node15 -->
<g id="node15" class="node">
<title>Node15</title>
<g id="a_node15"><a xlink:href="classfspm_1_1config_1_1params_1_1hierarchy_1_1CategoryHierarchy_a2a14d7bc7abfd46799c79393a1fd4354.html#a2a14d7bc7abfd46799c79393a1fd4354" target="_top" xlink:title=" ">
<polygon fill="none" stroke="black" points="217.5,-49.5 217.5,-79.5 397.5,-79.5 397.5,-49.5 217.5,-49.5"/>
<text text-anchor="start" x="225.5" y="-67.5" font-family="Helvetica,sans-Serif" font-size="10.00">fspm.config.params.hierarchy.</text>
<text text-anchor="middle" x="307.5" y="-56.5" font-family="Helvetica,sans-Serif" font-size="10.00">CategoryHierarchy.getStringArray</text>
</a>
</g>
</g>
<!-- Node14&#45;&gt;Node15 -->
<g id="edge14" class="edge">
<title>Node14&#45;&gt;Node15</title>
<path fill="none" stroke="midnightblue" d="M428.68,-64.5C418.48,-64.5 408.01,-64.5 397.72,-64.5"/>
<polygon fill="midnightblue" stroke="midnightblue" points="428.79,-68 438.79,-64.5 428.79,-61 428.79,-68"/>
</g>
<!-- Node17 -->
<g id="node17" class="node">
<title>Node17</title>
<g id="a_node17"><a xlink:href="classfspm_1_1config_1_1params_1_1hierarchy_1_1CategoryHierarchy_acac58ead81a0e7ce29fc33e0ccfb95b4.html#acac58ead81a0e7ce29fc33e0ccfb95b4" target="_top" xlink:title=" ">
<polygon fill="none" stroke="black" points="225.5,-147.5 225.5,-177.5 389.5,-177.5 389.5,-147.5 225.5,-147.5"/>
<text text-anchor="start" x="233.5" y="-165.5" font-family="Helvetica,sans-Serif" font-size="10.00">fspm.config.params.hierarchy.</text>
<text text-anchor="middle" x="307.5" y="-154.5" font-family="Helvetica,sans-Serif" font-size="10.00">CategoryHierarchy.getArray</text>
</a>
</g>
</g>
<!-- Node16&#45;&gt;Node17 -->
<g id="edge16" class="edge">
<title>Node16&#45;&gt;Node17</title>
<path fill="none" stroke="midnightblue" d="M628.04,-162.5C558.28,-162.5 459.14,-162.5 389.84,-162.5"/>
<polygon fill="midnightblue" stroke="midnightblue" points="628.11,-166 638.11,-162.5 628.11,-159 628.11,-166"/>
</g>
<!-- Node17&#45;&gt;Node8 -->
<g id="edge19" class="edge">
<title>Node17&#45;&gt;Node8</title>
<path fill="none" stroke="midnightblue" d="M228.51,-180.79C222.84,-182.83 217.28,-185.06 212,-187.5 194.32,-195.67 193.64,-204.24 176,-212.5 168.76,-215.89 160.96,-218.88 153.1,-221.5"/>
<polygon fill="midnightblue" stroke="midnightblue" points="229.78,-184.05 238.13,-177.53 227.53,-177.42 229.78,-184.05"/>
</g>
<!-- Node17&#45;&gt;Node12 -->
<g id="edge18" class="edge">
<title>Node17&#45;&gt;Node12</title>
<path fill="none" stroke="midnightblue" d="M228.88,-144.21C223.09,-142.17 217.4,-139.93 212,-137.5 194.47,-129.6 193.49,-121.49 176,-113.5 168.73,-110.18 160.91,-107.23 153.04,-104.63"/>
<polygon fill="midnightblue" stroke="midnightblue" points="228.1,-147.64 238.7,-147.48 230.31,-141 228.1,-147.64"/>
</g>
<!-- Node18 -->
<g id="node18" class="node">
<title>Node18</title>
<g id="a_node18"><a xlink:href="classfspm_1_1config_1_1params_1_1hierarchy_1_1CategoryHierarchy_ad3b6d28c086ea8df8940cbfd35a72022.html#ad3b6d28c086ea8df8940cbfd35a72022" target="_top" xlink:title=" ">
<polygon fill="none" stroke="black" points="6,-172.5 6,-202.5 170,-202.5 170,-172.5 6,-172.5"/>
<text text-anchor="start" x="14" y="-190.5" font-family="Helvetica,sans-Serif" font-size="10.00">fspm.config.params.hierarchy.</text>
<text text-anchor="middle" x="88" y="-179.5" font-family="Helvetica,sans-Serif" font-size="10.00">CategoryHierarchy.getArray</text>
</a>
</g>
</g>
<!-- Node17&#45;&gt;Node18 -->
<g id="edge17" class="edge">
<title>Node17&#45;&gt;Node18</title>
<path fill="none" stroke="midnightblue" d="M214.99,-173.02C200.12,-174.73 184.8,-176.49 170.2,-178.17"/>
<polygon fill="midnightblue" stroke="midnightblue" points="215.67,-176.46 225.2,-171.84 214.87,-169.51 215.67,-176.46"/>
</g>
<!-- Node19 -->
<g id="node19" class="node">
<title>Node19</title>
<g id="a_node19"><a xlink:href="classfspm_1_1config_1_1tests_1_1ParamAccess_1_1ArrayTest_aeb939f25bb8cc9702e5a4ad8d2cdbc2c.html#aeb939f25bb8cc9702e5a4ad8d2cdbc2c" target="_top" xlink:title=" ">
<polygon fill="none" stroke="black" points="2.5,-123.5 2.5,-153.5 173.5,-153.5 173.5,-123.5 2.5,-123.5"/>
<text text-anchor="start" x="10.5" y="-141.5" font-family="Helvetica,sans-Serif" font-size="10.00">fspm.config.tests.ParamAccess.</text>
<text text-anchor="middle" x="88" y="-130.5" font-family="Helvetica,sans-Serif" font-size="10.00">ArrayTest.testPhenology</text>
</a>
</g>
</g>
<!-- Node17&#45;&gt;Node19 -->
<g id="edge20" class="edge">
<title>Node17&#45;&gt;Node19</title>
<path fill="none" stroke="midnightblue" d="M214.88,-152.39C201.27,-150.89 187.29,-149.35 173.83,-147.86"/>
<polygon fill="midnightblue" stroke="midnightblue" points="214.88,-155.91 225.2,-153.53 215.65,-148.95 214.88,-155.91"/>
</g>
</g>
</svg>
        <g id="navigator" transform="translate(0 0)" fill="#404254">
                <rect fill="#f2f5e9" fill-opacity="0.5" stroke="#606060" stroke-width=".5" x="0" y="0" width="60" height="60"/>
                <use id="zoomplus" xlink:href="#zoomPlus" x="17" y="9" onmousedown="handleZoom(evt,'in')"/>
                <use id="zoomminus" xlink:href="#zoomMin" x="42" y="9" onmousedown="handleZoom(evt,'out')"/>
                <use id="reset" xlink:href="#resetDef" x="30" y="36" onmousedown="handleReset()"/>
                <g id="arrowUp" xlink:href="#dirArrow" transform="translate(30 24)" onmousedown="handlePan(0,-1)">
                  <use xlink:href="#rim" fill="#404040">
                        <set attributeName="fill" to="#808080" begin="arrowUp.mouseover" end="arrowUp.mouseout"/>
                  </use>
                  <path fill="none" stroke="white" stroke-width="1.5" d="M0,-3.0v7 M-2.5,-0.5L0,-3.0L2.5,-0.5"/>
                </g>
                <g id="arrowRight" xlink:href="#dirArrow" transform="rotate(90) translate(36 -43)" onmousedown="handlePan(1,0)">
                  <use xlink:href="#rim" fill="#404040">
                        <set attributeName="fill" to="#808080" begin="arrowRight.mouseover" end="arrowRight.mouseout"/>
                  </use>
                  <path fill="none" stroke="white" stroke-width="1.5" d="M0,-3.0v7 M-2.5,-0.5L0,-3.0L2.5,-0.5"/>
                </g>
                <g id="arrowDown" xlink:href="#dirArrow" transform="rotate(180) translate(-30 -48)" onmousedown="handlePan(0,1)">
                  <use xlink:href="#rim" fill="#404040">
                        <set attributeName="fill" to="#808080" begin="arrowDown.mouseover" end="arrowDown.mouseout"/>
                  </use>
                  <path fill="none" stroke="white" stroke-width="1.5" d="M0,-3.0v7 M-2.5,-0.5L0,-3.0L2.5,-0.5"/>
                </g>
                <g id="arrowLeft" xlink:href="#dirArrow" transform="rotate(270) translate(-36 17)" onmousedown="handlePan(-1,0)">
                  <use xlink:href="#rim" fill="#404040">
                        <set attributeName="fill" to="#808080" begin="arrowLeft.mouseover" end="arrowLeft.mouseout"/>
                  </use>
                  <path fill="none" stroke="white" stroke-width="1.5" d="M0,-3.0v7 M-2.5,-0.5L0,-3.0L2.5,-0.5"/>
                </g>
        </g>
        <svg viewBox="0 0 15 15" width="100%" height="30px" preserveAspectRatio="xMaxYMin meet">
         <g id="arrow_out" transform="scale(0.3 0.3)">
          <a xlink:href="classfspm_1_1config_1_1params_1_1Parameter_a2dced470a20701940042f6dacad7f78e_a2dced470a20701940042f6dacad7f78e_icgraph_org.svg" target="_base">
           <rect id="button" ry="5" rx="5" y="6" x="6" height="38" width="38"
                fill="#f2f5e9" fill-opacity="0.5" stroke="#606060" stroke-width="1.0"/>
           <path id="arrow"
             d="M 11.500037,31.436501 C 11.940474,20.09759 22.043105,11.32322 32.158766,21.979434 L 37.068811,17.246167 C 37.068811,17.246167 37.088388,32 37.088388,32 L 22.160133,31.978069 C 22.160133,31.978069 26.997745,27.140456 26.997745,27.140456 C 18.528582,18.264221 13.291696,25.230495 11.500037,31.436501 z"
             style="fill:#404040;"/>
          </a>
         </g>
        </svg>
</svg>
