<?xml version="1.0" encoding="UTF-8" standalone="no"?>
<!DOCTYPE svg PUBLIC "-//W3C//DTD SVG 1.1//EN"
 "http://www.w3.org/Graphics/SVG/1.1/DTD/svg11.dtd">
<!-- Generated by graphviz version 2.43.0 (0)
 -->
<!-- Title: fspm.config.params.groups.DocumentCategoryNameGroup Pages: 1 -->
<svg width="196pt" height="320pt"
 viewBox="0.00 0.00 196.00 320.00" xmlns="http://www.w3.org/2000/svg" xmlns:xlink="http://www.w3.org/1999/xlink">
<g id="graph0" class="graph" transform="scale(1 1) rotate(0) translate(4 316)">
<title>fspm.config.params.groups.DocumentCategoryNameGroup</title>
<!-- Node1 -->
<g id="node1" class="node">
<title>Node1</title>
<g id="a_node1"><a xlink:title=" ">
<polygon fill="#bfbfbf" stroke="black" points="0,-0.5 0,-101.5 188,-101.5 188,-0.5 0,-0.5"/>
<text text-anchor="start" x="8" y="-89.5" font-family="Helvetica,sans-Serif" font-size="10.00">fspm.config.params.groups.</text>
<text text-anchor="middle" x="94" y="-78.5" font-family="Helvetica,sans-Serif" font-size="10.00">DocumentCategoryNameGroup</text>
<polyline fill="none" stroke="black" points="0,-71.5 188,-71.5 "/>
<text text-anchor="start" x="8" y="-59.5" font-family="Helvetica,sans-Serif" font-size="10.00">&#45; categoryStore</text>
<polyline fill="none" stroke="black" points="0,-52.5 188,-52.5 "/>
<text text-anchor="start" x="8" y="-40.5" font-family="Helvetica,sans-Serif" font-size="10.00">+ DocumentCategoryNameGroup()</text>
<text text-anchor="start" x="8" y="-29.5" font-family="Helvetica,sans-Serif" font-size="10.00">+ getCategoryHierarchy()</text>
<text text-anchor="start" x="8" y="-18.5" font-family="Helvetica,sans-Serif" font-size="10.00">+ toString()</text>
<text text-anchor="start" x="8" y="-7.5" font-family="Helvetica,sans-Serif" font-size="10.00">+ parse()</text>
</a>
</g>
</g>
<!-- Node2 -->
<g id="node2" class="node">
<title>Node2</title>
<g id="a_node2"><a xlink:href="classfspm_1_1config_1_1params_1_1groups_1_1ParamGroup.html" target="_top" xlink:title="Parameter configuration class for storing parameter categories.">
<polygon fill="none" stroke="black" points="18,-138.5 18,-206.5 170,-206.5 170,-138.5 18,-138.5"/>
<text text-anchor="start" x="26" y="-194.5" font-family="Helvetica,sans-Serif" font-size="10.00">fspm.config.params.groups.</text>
<text text-anchor="middle" x="94" y="-183.5" font-family="Helvetica,sans-Serif" font-size="10.00">ParamGroup</text>
<polyline fill="none" stroke="black" points="18,-176.5 170,-176.5 "/>
<text text-anchor="middle" x="94" y="-164.5" font-family="Helvetica,sans-Serif" font-size="10.00"> </text>
<polyline fill="none" stroke="black" points="18,-157.5 170,-157.5 "/>
<text text-anchor="start" x="26" y="-145.5" font-family="Helvetica,sans-Serif" font-size="10.00"># ParamGroup()</text>
</a>
</g>
</g>
<!-- Node2&#45;&gt;Node1 -->
<g id="edge1" class="edge">
<title>Node2&#45;&gt;Node1</title>
<path fill="none" stroke="midnightblue" d="M94,-128.05C94,-119.47 94,-110.41 94,-101.65"/>
<polygon fill="none" stroke="midnightblue" points="90.5,-128.21 94,-138.21 97.5,-128.21 90.5,-128.21"/>
</g>
<!-- Node3 -->
<g id="node3" class="node">
<title>Node3</title>
<g id="a_node3"><a xlink:href="classfspm_1_1util_1_1KeyElement.html" target="_top" xlink:title=" ">
<polygon fill="none" stroke="black" points="33,-243.5 33,-311.5 155,-311.5 155,-243.5 33,-243.5"/>
<text text-anchor="middle" x="94" y="-299.5" font-family="Helvetica,sans-Serif" font-size="10.00">fspm.util.KeyElement</text>
<polyline fill="none" stroke="black" points="33,-292.5 155,-292.5 "/>
<text text-anchor="start" x="41" y="-280.5" font-family="Helvetica,sans-Serif" font-size="10.00">&#45; key</text>
<polyline fill="none" stroke="black" points="33,-273.5 155,-273.5 "/>
<text text-anchor="start" x="41" y="-261.5" font-family="Helvetica,sans-Serif" font-size="10.00">+ KeyElement()</text>
<text text-anchor="start" x="41" y="-250.5" font-family="Helvetica,sans-Serif" font-size="10.00">+ getKey()</text>
</a>
</g>
</g>
<!-- Node3&#45;&gt;Node2 -->
<g id="edge2" class="edge">
<title>Node3&#45;&gt;Node2</title>
<path fill="none" stroke="midnightblue" d="M94,-233.14C94,-224.26 94,-215.04 94,-206.59"/>
<polygon fill="none" stroke="midnightblue" points="90.5,-233.34 94,-243.34 97.5,-233.34 90.5,-233.34"/>
</g>
</g>
</svg>
