<?xml version="1.0" encoding="UTF-8" standalone="no"?>
<!DOCTYPE svg PUBLIC "-//W3C//DTD SVG 1.1//EN"
 "http://www.w3.org/Graphics/SVG/1.1/DTD/svg11.dtd">
<!-- Generated by graphviz version 2.43.0 (0)
 -->
<!-- Title: io.github.fruitcropxl.config.params.Parameter.isNull Pages: 1 -->
<svg width="1245pt" height="1070pt"
 viewBox="0.00 0.00 1245.00 1070.00" xmlns="http://www.w3.org/2000/svg" xmlns:xlink="http://www.w3.org/1999/xlink">
<g id="graph0" class="graph" transform="scale(1 1) rotate(0) translate(4 1066)">
<title>io.github.fruitcropxl.config.params.Parameter.isNull</title>
<!-- Node1 -->
<g id="Node000001" class="node">
<title>Node1</title>
<g id="a_Node000001"><a xlink:title=" ">
<polygon fill="#999999" stroke="#666666" points="1237,-366 1049,-366 1049,-336 1237,-336 1237,-366"/>
<text text-anchor="start" x="1057" y="-354" font-family="Helvetica,sans-Serif" font-size="10.00">io.github.fruitcropxl.config.params.</text>
<text text-anchor="middle" x="1143" y="-343" font-family="Helvetica,sans-Serif" font-size="10.00">Parameter.isNull</text>
</a>
</g>
</g>
<!-- Node2 -->
<g id="Node000002" class="node">
<title>Node2</title>
<g id="a_Node000002"><a xlink:href="classio_1_1github_1_1fruitcropxl_1_1config_1_1params_1_1Parameter_af214f779c4a3550b86aef81d1aca6317.html#af214f779c4a3550b86aef81d1aca6317" target="_top" xlink:title="Generic method for getting arrays of a given type.">
<polygon fill="white" stroke="#666666" points="1013,-606 825,-606 825,-576 1013,-576 1013,-606"/>
<text text-anchor="start" x="833" y="-594" font-family="Helvetica,sans-Serif" font-size="10.00">io.github.fruitcropxl.config.params.</text>
<text text-anchor="middle" x="919" y="-583" font-family="Helvetica,sans-Serif" font-size="10.00">Parameter.asArray</text>
</a>
</g>
</g>
<!-- Node1&#45;&gt;Node2 -->
<g id="edge1_Node000001_Node000002" class="edge">
<title>Node1&#45;&gt;Node2</title>
<g id="a_edge1_Node000001_Node000002"><a xlink:title=" ">
<path fill="none" stroke="#63b8ff" d="M1121.2,-373.48C1076.38,-421.94 971.64,-535.17 933.88,-575.99"/>
<polygon fill="#63b8ff" stroke="#63b8ff" points="1123.89,-375.73 1128.11,-366.01 1118.75,-370.98 1123.89,-375.73"/>
</a>
</g>
</g>
<!-- Node37 -->
<g id="Node000037" class="node">
<title>Node37</title>
<g id="a_Node000037"><a xlink:href="classio_1_1github_1_1fruitcropxl_1_1config_1_1params_1_1Parameter_a384875fa7614c4e87f8643ed57a59580.html#a384875fa7614c4e87f8643ed57a59580" target="_top" xlink:title=" ">
<polygon fill="white" stroke="#666666" points="1013,-462 825,-462 825,-432 1013,-432 1013,-462"/>
<text text-anchor="start" x="833" y="-450" font-family="Helvetica,sans-Serif" font-size="10.00">io.github.fruitcropxl.config.params.</text>
<text text-anchor="middle" x="919" y="-439" font-family="Helvetica,sans-Serif" font-size="10.00">Parameter.asBoolean</text>
</a>
</g>
</g>
<!-- Node1&#45;&gt;Node37 -->
<g id="edge36_Node000001_Node000037" class="edge">
<title>Node1&#45;&gt;Node37</title>
<g id="a_edge36_Node000001_Node000037"><a xlink:title=" ">
<path fill="none" stroke="#63b8ff" d="M1110.64,-371.52C1085.19,-387.41 1047.93,-409.02 1013,-423 1004.8,-426.28 996,-429.24 987.22,-431.86"/>
<polygon fill="#63b8ff" stroke="#63b8ff" points="1112.54,-374.46 1119.12,-366.16 1108.8,-368.54 1112.54,-374.46"/>
</a>
</g>
</g>
<!-- Node38 -->
<g id="Node000038" class="node">
<title>Node38</title>
<g id="a_Node000038"><a xlink:href="classio_1_1github_1_1fruitcropxl_1_1config_1_1params_1_1Parameter_a73ccffc07cfc7897705914df907d5528.html#a73ccffc07cfc7897705914df907d5528" target="_top" xlink:title=" ">
<polygon fill="white" stroke="#666666" points="1013,-414 825,-414 825,-384 1013,-384 1013,-414"/>
<text text-anchor="start" x="833" y="-402" font-family="Helvetica,sans-Serif" font-size="10.00">io.github.fruitcropxl.config.params.</text>
<text text-anchor="middle" x="919" y="-391" font-family="Helvetica,sans-Serif" font-size="10.00">Parameter.asDouble</text>
</a>
</g>
</g>
<!-- Node1&#45;&gt;Node38 -->
<g id="edge37_Node000001_Node000038" class="edge">
<title>Node1&#45;&gt;Node38</title>
<g id="a_edge37_Node000001_Node000038"><a xlink:title=" ">
<path fill="none" stroke="#63b8ff" d="M1062.29,-368.23C1038.45,-373.39 1012.51,-379 989.39,-384"/>
<polygon fill="#63b8ff" stroke="#63b8ff" points="1063.33,-371.59 1072.37,-366.06 1061.85,-364.75 1063.33,-371.59"/>
</a>
</g>
</g>
<!-- Node39 -->
<g id="Node000039" class="node">
<title>Node39</title>
<g id="a_Node000039"><a xlink:href="classio_1_1github_1_1fruitcropxl_1_1config_1_1params_1_1Parameter_a8855a6e235018ca9c3b02dac38ffb8cc.html#a8855a6e235018ca9c3b02dac38ffb8cc" target="_top" xlink:title=" ">
<polygon fill="white" stroke="#666666" points="1013,-366 825,-366 825,-336 1013,-336 1013,-366"/>
<text text-anchor="start" x="833" y="-354" font-family="Helvetica,sans-Serif" font-size="10.00">io.github.fruitcropxl.config.params.</text>
<text text-anchor="middle" x="919" y="-343" font-family="Helvetica,sans-Serif" font-size="10.00">Parameter.asInteger</text>
</a>
</g>
</g>
<!-- Node1&#45;&gt;Node39 -->
<g id="edge38_Node000001_Node000039" class="edge">
<title>Node1&#45;&gt;Node39</title>
<g id="a_edge38_Node000001_Node000039"><a xlink:title=" ">
<path fill="none" stroke="#63b8ff" d="M1038.57,-351C1030.14,-351 1021.65,-351 1013.3,-351"/>
<polygon fill="#63b8ff" stroke="#63b8ff" points="1038.82,-354.5 1048.82,-351 1038.82,-347.5 1038.82,-354.5"/>
</a>
</g>
</g>
<!-- Node40 -->
<g id="Node000040" class="node">
<title>Node40</title>
<g id="a_Node000040"><a xlink:href="classio_1_1github_1_1fruitcropxl_1_1config_1_1params_1_1Parameter_a4418bb0ec7c1e398485499d59351de64.html#a4418bb0ec7c1e398485499d59351de64" target="_top" xlink:title=" ">
<polygon fill="white" stroke="#666666" points="1013,-318 825,-318 825,-288 1013,-288 1013,-318"/>
<text text-anchor="start" x="833" y="-306" font-family="Helvetica,sans-Serif" font-size="10.00">io.github.fruitcropxl.config.params.</text>
<text text-anchor="middle" x="919" y="-295" font-family="Helvetica,sans-Serif" font-size="10.00">Parameter.asString</text>
</a>
</g>
</g>
<!-- Node1&#45;&gt;Node40 -->
<g id="edge39_Node000001_Node000040" class="edge">
<title>Node1&#45;&gt;Node40</title>
<g id="a_edge39_Node000001_Node000040"><a xlink:title=" ">
<path fill="none" stroke="#63b8ff" d="M1062.29,-333.77C1038.45,-328.61 1012.51,-323 989.39,-318"/>
<polygon fill="#63b8ff" stroke="#63b8ff" points="1061.85,-337.25 1072.37,-335.94 1063.33,-330.41 1061.85,-337.25"/>
</a>
</g>
</g>
<!-- Node41 -->
<g id="Node000041" class="node">
<title>Node41</title>
<g id="a_Node000041"><a xlink:href="classio_1_1github_1_1fruitcropxl_1_1config_1_1params_1_1ParamCategory_a51ea686cc7549745dfb4a69fc64d4230.html#a51ea686cc7549745dfb4a69fc64d4230" target="_top" xlink:title=" ">
<polygon fill="white" stroke="#666666" points="1013,-270 825,-270 825,-240 1013,-240 1013,-270"/>
<text text-anchor="start" x="833" y="-258" font-family="Helvetica,sans-Serif" font-size="10.00">io.github.fruitcropxl.config.params.</text>
<text text-anchor="middle" x="919" y="-247" font-family="Helvetica,sans-Serif" font-size="10.00">ParamCategory.isNull</text>
</a>
</g>
</g>
<!-- Node1&#45;&gt;Node41 -->
<g id="edge40_Node000001_Node000041" class="edge">
<title>Node1&#45;&gt;Node41</title>
<g id="a_edge40_Node000001_Node000041"><a xlink:title=" ">
<path fill="none" stroke="#63b8ff" d="M1110.64,-330.48C1085.19,-314.59 1047.93,-292.98 1013,-279 1004.8,-275.72 996,-272.76 987.22,-270.14"/>
<polygon fill="#63b8ff" stroke="#63b8ff" points="1108.8,-333.46 1119.12,-335.84 1112.54,-327.54 1108.8,-333.46"/>
</a>
</g>
</g>
<!-- Node43 -->
<g id="Node000043" class="node">
<title>Node43</title>
<g id="a_Node000043"><a xlink:href="classio_1_1github_1_1fruitcropxl_1_1config_1_1params_1_1ParamTable_abdd16b1d912142017f265779be37f9ec.html#abdd16b1d912142017f265779be37f9ec" target="_top" xlink:title=" ">
<polygon fill="white" stroke="#666666" points="1013,-222 825,-222 825,-192 1013,-192 1013,-222"/>
<text text-anchor="start" x="833" y="-210" font-family="Helvetica,sans-Serif" font-size="10.00">io.github.fruitcropxl.config.params.</text>
<text text-anchor="middle" x="919" y="-199" font-family="Helvetica,sans-Serif" font-size="10.00">ParamTable.isNull</text>
</a>
</g>
</g>
<!-- Node1&#45;&gt;Node43 -->
<g id="edge42_Node000001_Node000043" class="edge">
<title>Node1&#45;&gt;Node43</title>
<g id="a_edge42_Node000001_Node000043"><a xlink:title=" ">
<path fill="none" stroke="#63b8ff" d="M1123.7,-328.11C1100.72,-300.89 1058.71,-256.03 1013,-231 1006.71,-227.56 999.91,-224.59 992.95,-222.04"/>
<polygon fill="#63b8ff" stroke="#63b8ff" points="1121.13,-330.48 1130.21,-335.94 1126.51,-326.01 1121.13,-330.48"/>
</a>
</g>
</g>
<!-- Node3 -->
<g id="Node000003" class="node">
<title>Node3</title>
<g id="a_Node000003"><a xlink:href="classio_1_1github_1_1fruitcropxl_1_1config_1_1params_1_1Parameter_ac8fb660e61218d5c311de69cefdcdf12.html#ac8fb660e61218d5c311de69cefdcdf12" target="_top" xlink:title=" ">
<polygon fill="white" stroke="#666666" points="763.5,-774 575.5,-774 575.5,-744 763.5,-744 763.5,-774"/>
<text text-anchor="start" x="583.5" y="-762" font-family="Helvetica,sans-Serif" font-size="10.00">io.github.fruitcropxl.config.params.</text>
<text text-anchor="middle" x="669.5" y="-751" font-family="Helvetica,sans-Serif" font-size="10.00">Parameter.asBooleanArray</text>
</a>
</g>
</g>
<!-- Node2&#45;&gt;Node3 -->
<g id="edge2_Node000002_Node000003" class="edge">
<title>Node2&#45;&gt;Node3</title>
<g id="a_edge2_Node000002_Node000003"><a xlink:title=" ">
<path fill="none" stroke="#63b8ff" d="M903.63,-614.98C882.71,-647.63 840.69,-705.4 789,-735 781.08,-739.54 772.42,-743.23 763.52,-746.22"/>
<polygon fill="#63b8ff" stroke="#63b8ff" points="906.85,-616.42 909.19,-606.09 900.92,-612.71 906.85,-616.42"/>
</a>
</g>
</g>
<!-- Node4 -->
<g id="Node000004" class="node">
<title>Node4</title>
<g id="a_Node000004"><a xlink:href="classio_1_1github_1_1fruitcropxl_1_1config_1_1params_1_1Parameter_a3b0d365c9f37381d4ffe632100566349.html#a3b0d365c9f37381d4ffe632100566349" target="_top" xlink:title=" ">
<polygon fill="white" stroke="#666666" points="763.5,-726 575.5,-726 575.5,-696 763.5,-696 763.5,-726"/>
<text text-anchor="start" x="583.5" y="-714" font-family="Helvetica,sans-Serif" font-size="10.00">io.github.fruitcropxl.config.params.</text>
<text text-anchor="middle" x="669.5" y="-703" font-family="Helvetica,sans-Serif" font-size="10.00">Parameter.asDoubleArray</text>
</a>
</g>
</g>
<!-- Node2&#45;&gt;Node4 -->
<g id="edge3_Node000002_Node000004" class="edge">
<title>Node2&#45;&gt;Node4</title>
<g id="a_edge3_Node000002_Node000004"><a xlink:title=" ">
<path fill="none" stroke="#63b8ff" d="M894.77,-613.35C870.39,-635.51 830,-668.7 789,-687 780.95,-690.59 772.35,-693.65 763.6,-696.26"/>
<polygon fill="#63b8ff" stroke="#63b8ff" points="897.43,-615.66 902.39,-606.3 892.67,-610.52 897.43,-615.66"/>
</a>
</g>
</g>
<!-- Node5 -->
<g id="Node000005" class="node">
<title>Node5</title>
<g id="a_Node000005"><a xlink:href="classio_1_1github_1_1fruitcropxl_1_1config_1_1params_1_1Parameter_a6a53eca6da34ecb292ef13349dfc0867.html#a6a53eca6da34ecb292ef13349dfc0867" target="_top" xlink:title=" ">
<polygon fill="white" stroke="#666666" points="763.5,-678 575.5,-678 575.5,-648 763.5,-648 763.5,-678"/>
<text text-anchor="start" x="583.5" y="-666" font-family="Helvetica,sans-Serif" font-size="10.00">io.github.fruitcropxl.config.params.</text>
<text text-anchor="middle" x="669.5" y="-655" font-family="Helvetica,sans-Serif" font-size="10.00">Parameter.asIntegerArray</text>
</a>
</g>
</g>
<!-- Node2&#45;&gt;Node5 -->
<g id="edge4_Node000002_Node000005" class="edge">
<title>Node2&#45;&gt;Node5</title>
<g id="a_edge4_Node000002_Node000005"><a xlink:title=" ">
<path fill="none" stroke="#63b8ff" d="M872.7,-609.84C848.22,-619.51 817.3,-630.92 789,-639 777.49,-642.28 765.24,-645.3 753.14,-647.99"/>
<polygon fill="#63b8ff" stroke="#63b8ff" points="874.1,-613.05 882.08,-606.09 871.5,-606.55 874.1,-613.05"/>
</a>
</g>
</g>
<!-- Node6 -->
<g id="Node000006" class="node">
<title>Node6</title>
<g id="a_Node000006"><a xlink:href="classio_1_1github_1_1fruitcropxl_1_1config_1_1params_1_1Parameter_a9ff2c7334a7fce6a24f6996e304ddb73.html#a9ff2c7334a7fce6a24f6996e304ddb73" target="_top" xlink:title=" ">
<polygon fill="white" stroke="#666666" points="763.5,-630 575.5,-630 575.5,-600 763.5,-600 763.5,-630"/>
<text text-anchor="start" x="583.5" y="-618" font-family="Helvetica,sans-Serif" font-size="10.00">io.github.fruitcropxl.config.params.</text>
<text text-anchor="middle" x="669.5" y="-607" font-family="Helvetica,sans-Serif" font-size="10.00">Parameter.asStringArray</text>
</a>
</g>
</g>
<!-- Node2&#45;&gt;Node6 -->
<g id="edge5_Node000002_Node000006" class="edge">
<title>Node2&#45;&gt;Node6</title>
<g id="a_edge5_Node000002_Node000006"><a xlink:title=" ">
<path fill="none" stroke="#63b8ff" d="M814.38,-601.05C797.54,-602.68 780.2,-604.36 763.63,-605.97"/>
<polygon fill="#63b8ff" stroke="#63b8ff" points="815.17,-604.49 824.78,-600.04 814.49,-597.52 815.17,-604.49"/>
</a>
</g>
</g>
<!-- Node7 -->
<g id="Node000007" class="node">
<title>Node7</title>
<g id="a_Node000007"><a xlink:href="classio_1_1github_1_1fruitcropxl_1_1config_1_1params_1_1ParamCategory_ac64ba4716a6f5a7cbbe77b5b8154dd7d.html#ac64ba4716a6f5a7cbbe77b5b8154dd7d" target="_top" xlink:title=" ">
<polygon fill="white" stroke="#666666" points="763.5,-582 575.5,-582 575.5,-552 763.5,-552 763.5,-582"/>
<text text-anchor="start" x="583.5" y="-570" font-family="Helvetica,sans-Serif" font-size="10.00">io.github.fruitcropxl.config.params.</text>
<text text-anchor="middle" x="669.5" y="-559" font-family="Helvetica,sans-Serif" font-size="10.00">ParamCategory.getArray</text>
</a>
</g>
</g>
<!-- Node2&#45;&gt;Node7 -->
<g id="edge6_Node000002_Node000007" class="edge">
<title>Node2&#45;&gt;Node7</title>
<g id="a_edge6_Node000002_Node000007"><a xlink:title=" ">
<path fill="none" stroke="#63b8ff" d="M814.38,-580.95C797.54,-579.32 780.2,-577.64 763.63,-576.03"/>
<polygon fill="#63b8ff" stroke="#63b8ff" points="814.49,-584.48 824.78,-581.96 815.17,-577.51 814.49,-584.48"/>
</a>
</g>
</g>
<!-- Node27 -->
<g id="Node000027" class="node">
<title>Node27</title>
<g id="a_Node000027"><a xlink:href="classio_1_1github_1_1fruitcropxl_1_1config_1_1params_1_1ParamTable_a252c4fcfb67474d2bb200b1618341a14.html#a252c4fcfb67474d2bb200b1618341a14" target="_top" xlink:title=" ">
<polygon fill="white" stroke="#666666" points="763.5,-270 575.5,-270 575.5,-240 763.5,-240 763.5,-270"/>
<text text-anchor="start" x="583.5" y="-258" font-family="Helvetica,sans-Serif" font-size="10.00">io.github.fruitcropxl.config.params.</text>
<text text-anchor="middle" x="669.5" y="-247" font-family="Helvetica,sans-Serif" font-size="10.00">ParamTable.getArray</text>
</a>
</g>
</g>
<!-- Node2&#45;&gt;Node27 -->
<g id="edge26_Node000002_Node000027" class="edge">
<title>Node2&#45;&gt;Node27</title>
<g id="a_edge26_Node000002_Node000027"><a xlink:title=" ">
<path fill="none" stroke="#63b8ff" d="M899.63,-567.84C880.67,-543.82 850.38,-505.08 825,-471 769.51,-396.49 705.65,-305.45 680.98,-270.07"/>
<polygon fill="#63b8ff" stroke="#63b8ff" points="897.12,-570.31 906.07,-575.99 902.61,-565.97 897.12,-570.31"/>
</a>
</g>
</g>
<!-- Node36 -->
<g id="Node000036" class="node">
<title>Node36</title>
<g id="a_Node000036"><a xlink:href="classio_1_1github_1_1fruitcropxl_1_1config_1_1params_1_1ParamTable_a16664982e899fd609cf7af0558b32374.html#a16664982e899fd609cf7af0558b32374" target="_top" xlink:title=" ">
<polygon fill="white" stroke="#666666" points="763.5,-222 575.5,-222 575.5,-192 763.5,-192 763.5,-222"/>
<text text-anchor="start" x="583.5" y="-210" font-family="Helvetica,sans-Serif" font-size="10.00">io.github.fruitcropxl.config.params.</text>
<text text-anchor="middle" x="669.5" y="-199" font-family="Helvetica,sans-Serif" font-size="10.00">ParamTable.getArray</text>
</a>
</g>
</g>
<!-- Node2&#45;&gt;Node36 -->
<g id="edge35_Node000002_Node000036" class="edge">
<title>Node2&#45;&gt;Node36</title>
<g id="a_edge35_Node000002_Node000036"><a xlink:title=" ">
<path fill="none" stroke="#63b8ff" d="M894.51,-568.3C872.74,-545.77 841.32,-509.15 825,-471 782.59,-371.83 863.3,-309.19 789,-231 781.91,-223.54 773.2,-218.06 763.74,-214.07"/>
<polygon fill="#63b8ff" stroke="#63b8ff" points="892.26,-571 901.77,-575.66 897.25,-566.09 892.26,-571"/>
</a>
</g>
</g>
<!-- Node8 -->
<g id="Node000008" class="node">
<title>Node8</title>
<g id="a_Node000008"><a xlink:href="classio_1_1github_1_1fruitcropxl_1_1config_1_1params_1_1structures_1_1CategoryStore_a67390ee277336b6472d8ec095298f722.html#a67390ee277336b6472d8ec095298f722" target="_top" xlink:title=" ">
<polygon fill="white" stroke="#666666" points="514,-894 275,-894 275,-864 514,-864 514,-894"/>
<text text-anchor="start" x="283" y="-882" font-family="Helvetica,sans-Serif" font-size="10.00">io.github.fruitcropxl.config.params.structures.</text>
<text text-anchor="middle" x="394.5" y="-871" font-family="Helvetica,sans-Serif" font-size="10.00">CategoryStore.getArray</text>
</a>
</g>
</g>
<!-- Node7&#45;&gt;Node8 -->
<g id="edge7_Node000007_Node000008" class="edge">
<title>Node7&#45;&gt;Node8</title>
<g id="a_edge7_Node000007_Node000008"><a xlink:title=" ">
<path fill="none" stroke="#63b8ff" d="M566.33,-578.32C560.31,-581.73 554.78,-585.91 550,-591 469,-677.38 595,-768.62 514,-855 510.84,-858.37 507.35,-861.34 503.61,-863.94"/>
<polygon fill="#63b8ff" stroke="#63b8ff" points="568.01,-581.4 575.45,-573.86 564.93,-575.11 568.01,-581.4"/>
</a>
</g>
</g>
<!-- Node17 -->
<g id="Node000017" class="node">
<title>Node17</title>
<g id="a_Node000017"><a xlink:href="classio_1_1github_1_1fruitcropxl_1_1config_1_1params_1_1ParamCategory_af59b1d417f8e3f90df5148c96b8faf43.html#af59b1d417f8e3f90df5148c96b8faf43" target="_top" xlink:title=" ">
<polygon fill="white" stroke="#666666" points="488.5,-846 300.5,-846 300.5,-816 488.5,-816 488.5,-846"/>
<text text-anchor="start" x="308.5" y="-834" font-family="Helvetica,sans-Serif" font-size="10.00">io.github.fruitcropxl.config.params.</text>
<text text-anchor="middle" x="394.5" y="-823" font-family="Helvetica,sans-Serif" font-size="10.00">ParamCategory.getArray</text>
</a>
</g>
</g>
<!-- Node7&#45;&gt;Node17 -->
<g id="edge16_Node000007_Node000017" class="edge">
<title>Node7&#45;&gt;Node17</title>
<g id="a_edge16_Node000007_Node000017"><a xlink:title=" ">
<path fill="none" stroke="#63b8ff" d="M566.31,-578.59C560.33,-581.94 554.8,-586.03 550,-591 482.38,-661 581.62,-737 514,-807 506.85,-814.4 498.1,-819.84 488.62,-823.81"/>
<polygon fill="#63b8ff" stroke="#63b8ff" points="567.91,-581.7 575.38,-574.19 564.85,-575.41 567.91,-581.7"/>
</a>
</g>
</g>
<!-- Node18 -->
<g id="Node000018" class="node">
<title>Node18</title>
<g id="a_Node000018"><a xlink:href="classio_1_1github_1_1fruitcropxl_1_1config_1_1params_1_1structures_1_1CategoryStore_ac6258c35307415d9c7adeaeeab4095fb.html#ac6258c35307415d9c7adeaeeab4095fb" target="_top" xlink:title=" ">
<polygon fill="white" stroke="#666666" points="514,-798 275,-798 275,-768 514,-768 514,-798"/>
<text text-anchor="start" x="283" y="-786" font-family="Helvetica,sans-Serif" font-size="10.00">io.github.fruitcropxl.config.params.structures.</text>
<text text-anchor="middle" x="394.5" y="-775" font-family="Helvetica,sans-Serif" font-size="10.00">CategoryStore.getArray</text>
</a>
</g>
</g>
<!-- Node7&#45;&gt;Node18 -->
<g id="edge17_Node000007_Node000018" class="edge">
<title>Node7&#45;&gt;Node18</title>
<g id="a_edge17_Node000007_Node000018"><a xlink:title=" ">
<path fill="none" stroke="#63b8ff" d="M566.38,-578.94C560.41,-582.22 554.86,-586.19 550,-591 495.7,-644.69 568.3,-705.31 514,-759 510.57,-762.39 506.79,-765.37 502.77,-767.98"/>
<polygon fill="#63b8ff" stroke="#63b8ff" points="567.9,-582.1 575.42,-574.63 564.88,-575.78 567.9,-582.1"/>
</a>
</g>
</g>
<!-- Node19 -->
<g id="Node000019" class="node">
<title>Node19</title>
<g id="a_Node000019"><a xlink:href="classio_1_1github_1_1fruitcropxl_1_1config_1_1params_1_1ParamCategory_aaf8155a895956c8317c04e6a7c4cc516.html#aaf8155a895956c8317c04e6a7c4cc516" target="_top" xlink:title=" ">
<polygon fill="white" stroke="#666666" points="488.5,-750 300.5,-750 300.5,-720 488.5,-720 488.5,-750"/>
<text text-anchor="start" x="308.5" y="-738" font-family="Helvetica,sans-Serif" font-size="10.00">io.github.fruitcropxl.config.params.</text>
<text text-anchor="middle" x="394.5" y="-727" font-family="Helvetica,sans-Serif" font-size="10.00">ParamCategory.getBooleanArray</text>
</a>
</g>
</g>
<!-- Node7&#45;&gt;Node19 -->
<g id="edge18_Node000007_Node000019" class="edge">
<title>Node7&#45;&gt;Node19</title>
<g id="a_edge18_Node000007_Node000019"><a xlink:title=" ">
<path fill="none" stroke="#63b8ff" d="M566.03,-579.81C560.25,-582.9 554.83,-586.59 550,-591 508.87,-628.53 555.13,-673.47 514,-711 506.63,-717.72 497.92,-722.77 488.62,-726.54"/>
<polygon fill="#63b8ff" stroke="#63b8ff" points="567.8,-582.85 575.38,-575.46 564.84,-576.51 567.8,-582.85"/>
</a>
</g>
</g>
<!-- Node20 -->
<g id="Node000020" class="node">
<title>Node20</title>
<g id="a_Node000020"><a xlink:href="classio_1_1github_1_1fruitcropxl_1_1config_1_1params_1_1ParamCategory_a9b67eef8c274baaee12610d89da6ecc8.html#a9b67eef8c274baaee12610d89da6ecc8" target="_top" xlink:title=" ">
<polygon fill="white" stroke="#666666" points="488.5,-702 300.5,-702 300.5,-672 488.5,-672 488.5,-702"/>
<text text-anchor="start" x="308.5" y="-690" font-family="Helvetica,sans-Serif" font-size="10.00">io.github.fruitcropxl.config.params.</text>
<text text-anchor="middle" x="394.5" y="-679" font-family="Helvetica,sans-Serif" font-size="10.00">ParamCategory.getBooleanArray</text>
</a>
</g>
</g>
<!-- Node7&#45;&gt;Node20 -->
<g id="edge19_Node000007_Node000020" class="edge">
<title>Node7&#45;&gt;Node20</title>
<g id="a_edge19_Node000007_Node000020"><a xlink:title=" ">
<path fill="none" stroke="#63b8ff" d="M565.7,-581.37C560.15,-584.1 554.86,-587.28 550,-591 521.59,-612.75 542.41,-641.25 514,-663 506.42,-668.81 497.79,-673.31 488.72,-676.78"/>
<polygon fill="#63b8ff" stroke="#63b8ff" points="567.5,-584.41 575.28,-577.22 564.71,-577.99 567.5,-584.41"/>
</a>
</g>
</g>
<!-- Node21 -->
<g id="Node000021" class="node">
<title>Node21</title>
<g id="a_Node000021"><a xlink:href="classio_1_1github_1_1fruitcropxl_1_1config_1_1params_1_1ParamCategory_a082992e09866698509ecf8d4852be693.html#a082992e09866698509ecf8d4852be693" target="_top" xlink:title=" ">
<polygon fill="white" stroke="#666666" points="488.5,-654 300.5,-654 300.5,-624 488.5,-624 488.5,-654"/>
<text text-anchor="start" x="308.5" y="-642" font-family="Helvetica,sans-Serif" font-size="10.00">io.github.fruitcropxl.config.params.</text>
<text text-anchor="middle" x="394.5" y="-631" font-family="Helvetica,sans-Serif" font-size="10.00">ParamCategory.getDoubleArray</text>
</a>
</g>
</g>
<!-- Node7&#45;&gt;Node21 -->
<g id="edge20_Node000007_Node000021" class="edge">
<title>Node7&#45;&gt;Node21</title>
<g id="a_edge20_Node000007_Node000021"><a xlink:title=" ">
<path fill="none" stroke="#63b8ff" d="M566.58,-584.92C560.9,-586.76 555.34,-588.78 550,-591 532.24,-598.38 531.76,-607.62 514,-615 505.67,-618.46 496.79,-621.44 487.78,-624"/>
<polygon fill="#63b8ff" stroke="#63b8ff" points="567.66,-588.25 576.22,-582 565.63,-581.55 567.66,-588.25"/>
</a>
</g>
</g>
<!-- Node22 -->
<g id="Node000022" class="node">
<title>Node22</title>
<g id="a_Node000022"><a xlink:href="classio_1_1github_1_1fruitcropxl_1_1config_1_1params_1_1ParamCategory_a1bbc211bcd60c919616d9845d292b472.html#a1bbc211bcd60c919616d9845d292b472" target="_top" xlink:title=" ">
<polygon fill="white" stroke="#666666" points="488.5,-606 300.5,-606 300.5,-576 488.5,-576 488.5,-606"/>
<text text-anchor="start" x="308.5" y="-594" font-family="Helvetica,sans-Serif" font-size="10.00">io.github.fruitcropxl.config.params.</text>
<text text-anchor="middle" x="394.5" y="-583" font-family="Helvetica,sans-Serif" font-size="10.00">ParamCategory.getDoubleArray</text>
</a>
</g>
</g>
<!-- Node7&#45;&gt;Node22 -->
<g id="edge21_Node000007_Node000022" class="edge">
<title>Node7&#45;&gt;Node22</title>
<g id="a_edge21_Node000007_Node000022"><a xlink:title=" ">
<path fill="none" stroke="#63b8ff" d="M565.05,-576.09C539.97,-578.3 513.31,-580.64 488.73,-582.8"/>
<polygon fill="#63b8ff" stroke="#63b8ff" points="565.66,-579.55 575.31,-575.19 565.04,-572.58 565.66,-579.55"/>
</a>
</g>
</g>
<!-- Node23 -->
<g id="Node000023" class="node">
<title>Node23</title>
<g id="a_Node000023"><a xlink:href="classio_1_1github_1_1fruitcropxl_1_1config_1_1params_1_1ParamCategory_a90e58112bcc533598bb9f1a73e9d4d5d.html#a90e58112bcc533598bb9f1a73e9d4d5d" target="_top" xlink:title=" ">
<polygon fill="white" stroke="#666666" points="488.5,-558 300.5,-558 300.5,-528 488.5,-528 488.5,-558"/>
<text text-anchor="start" x="308.5" y="-546" font-family="Helvetica,sans-Serif" font-size="10.00">io.github.fruitcropxl.config.params.</text>
<text text-anchor="middle" x="394.5" y="-535" font-family="Helvetica,sans-Serif" font-size="10.00">ParamCategory.getIntegerArray</text>
</a>
</g>
</g>
<!-- Node7&#45;&gt;Node23 -->
<g id="edge22_Node000007_Node000023" class="edge">
<title>Node7&#45;&gt;Node23</title>
<g id="a_edge22_Node000007_Node000023"><a xlink:title=" ">
<path fill="none" stroke="#63b8ff" d="M565.05,-557.91C539.97,-555.7 513.31,-553.36 488.73,-551.2"/>
<polygon fill="#63b8ff" stroke="#63b8ff" points="565.04,-561.42 575.31,-558.81 565.66,-554.45 565.04,-561.42"/>
</a>
</g>
</g>
<!-- Node24 -->
<g id="Node000024" class="node">
<title>Node24</title>
<g id="a_Node000024"><a xlink:href="classio_1_1github_1_1fruitcropxl_1_1config_1_1params_1_1ParamCategory_a5dcc6f9b68264d7527c4934201912002.html#a5dcc6f9b68264d7527c4934201912002" target="_top" xlink:title=" ">
<polygon fill="white" stroke="#666666" points="488.5,-510 300.5,-510 300.5,-480 488.5,-480 488.5,-510"/>
<text text-anchor="start" x="308.5" y="-498" font-family="Helvetica,sans-Serif" font-size="10.00">io.github.fruitcropxl.config.params.</text>
<text text-anchor="middle" x="394.5" y="-487" font-family="Helvetica,sans-Serif" font-size="10.00">ParamCategory.getIntegerArray</text>
</a>
</g>
</g>
<!-- Node7&#45;&gt;Node24 -->
<g id="edge23_Node000007_Node000024" class="edge">
<title>Node7&#45;&gt;Node24</title>
<g id="a_edge23_Node000007_Node000024"><a xlink:title=" ">
<path fill="none" stroke="#63b8ff" d="M614.53,-548.76C585.04,-539.16 547.74,-527.63 514,-519 501.6,-515.83 488.37,-512.8 475.43,-510.04"/>
<polygon fill="#63b8ff" stroke="#63b8ff" points="613.63,-552.15 624.22,-551.93 615.81,-545.49 613.63,-552.15"/>
</a>
</g>
</g>
<!-- Node25 -->
<g id="Node000025" class="node">
<title>Node25</title>
<g id="a_Node000025"><a xlink:href="classio_1_1github_1_1fruitcropxl_1_1config_1_1params_1_1ParamCategory_aee6721bdcb2d4ff2ec2142f2845a0065.html#aee6721bdcb2d4ff2ec2142f2845a0065" target="_top" xlink:title=" ">
<polygon fill="white" stroke="#666666" points="488.5,-462 300.5,-462 300.5,-432 488.5,-432 488.5,-462"/>
<text text-anchor="start" x="308.5" y="-450" font-family="Helvetica,sans-Serif" font-size="10.00">io.github.fruitcropxl.config.params.</text>
<text text-anchor="middle" x="394.5" y="-439" font-family="Helvetica,sans-Serif" font-size="10.00">ParamCategory.getStringArray</text>
</a>
</g>
</g>
<!-- Node7&#45;&gt;Node25 -->
<g id="edge24_Node000007_Node000025" class="edge">
<title>Node7&#45;&gt;Node25</title>
<g id="a_edge24_Node000007_Node000025"><a xlink:title=" ">
<path fill="none" stroke="#63b8ff" d="M641.04,-545.68C611.35,-523.68 561.82,-489.98 514,-471 505.32,-467.55 496.07,-464.58 486.73,-462.02"/>
<polygon fill="#63b8ff" stroke="#63b8ff" points="639.14,-548.63 649.24,-551.83 643.34,-543.03 639.14,-548.63"/>
</a>
</g>
</g>
<!-- Node26 -->
<g id="Node000026" class="node">
<title>Node26</title>
<g id="a_Node000026"><a xlink:href="classio_1_1github_1_1fruitcropxl_1_1config_1_1params_1_1ParamCategory_ae35b663298256f3b048b4e5f81ca33f3.html#ae35b663298256f3b048b4e5f81ca33f3" target="_top" xlink:title=" ">
<polygon fill="white" stroke="#666666" points="488.5,-414 300.5,-414 300.5,-384 488.5,-384 488.5,-414"/>
<text text-anchor="start" x="308.5" y="-402" font-family="Helvetica,sans-Serif" font-size="10.00">io.github.fruitcropxl.config.params.</text>
<text text-anchor="middle" x="394.5" y="-391" font-family="Helvetica,sans-Serif" font-size="10.00">ParamCategory.getStringArray</text>
</a>
</g>
</g>
<!-- Node7&#45;&gt;Node26 -->
<g id="edge25_Node000007_Node000026" class="edge">
<title>Node7&#45;&gt;Node26</title>
<g id="a_edge25_Node000007_Node000026"><a xlink:title=" ">
<path fill="none" stroke="#63b8ff" d="M650.82,-543.9C624.65,-511.46 572.37,-453.02 514,-423 506.07,-418.92 497.5,-415.53 488.73,-412.72"/>
<polygon fill="#63b8ff" stroke="#63b8ff" points="648.24,-546.28 657.19,-551.94 653.72,-541.93 648.24,-546.28"/>
</a>
</g>
</g>
<!-- Node9 -->
<g id="Node000009" class="node">
<title>Node9</title>
<g id="a_Node000009"><a xlink:href="classio_1_1github_1_1fruitcropxl_1_1config_1_1params_1_1structures_1_1CategoryStore_af80f30c0abf379359b59730fd50573ba.html#af80f30c0abf379359b59730fd50573ba" target="_top" xlink:title=" ">
<polygon fill="white" stroke="#666666" points="239,-1062 0,-1062 0,-1032 239,-1032 239,-1062"/>
<text text-anchor="start" x="8" y="-1050" font-family="Helvetica,sans-Serif" font-size="10.00">io.github.fruitcropxl.config.params.structures.</text>
<text text-anchor="middle" x="119.5" y="-1039" font-family="Helvetica,sans-Serif" font-size="10.00">CategoryStore.getBooleanArray</text>
</a>
</g>
</g>
<!-- Node8&#45;&gt;Node9 -->
<g id="edge8_Node000008_Node000009" class="edge">
<title>Node8&#45;&gt;Node9</title>
<g id="a_edge8_Node000008_Node000009"><a xlink:title=" ">
<path fill="none" stroke="#63b8ff" d="M375.82,-902.1C349.65,-934.54 297.37,-992.98 239,-1023 232.28,-1026.46 225.11,-1029.41 217.74,-1031.95"/>
<polygon fill="#63b8ff" stroke="#63b8ff" points="378.72,-904.07 382.19,-894.06 373.24,-899.72 378.72,-904.07"/>
</a>
</g>
</g>
<!-- Node10 -->
<g id="Node000010" class="node">
<title>Node10</title>
<g id="a_Node000010"><a xlink:href="classio_1_1github_1_1fruitcropxl_1_1config_1_1params_1_1structures_1_1CategoryStore_a3f20ca6dad620b86d619f5f913d54c1b.html#a3f20ca6dad620b86d619f5f913d54c1b" target="_top" xlink:title=" ">
<polygon fill="white" stroke="#666666" points="239,-1014 0,-1014 0,-984 239,-984 239,-1014"/>
<text text-anchor="start" x="8" y="-1002" font-family="Helvetica,sans-Serif" font-size="10.00">io.github.fruitcropxl.config.params.structures.</text>
<text text-anchor="middle" x="119.5" y="-991" font-family="Helvetica,sans-Serif" font-size="10.00">CategoryStore.getBooleanArray</text>
</a>
</g>
</g>
<!-- Node8&#45;&gt;Node10 -->
<g id="edge9_Node000008_Node000010" class="edge">
<title>Node8&#45;&gt;Node10</title>
<g id="a_edge9_Node000008_Node000010"><a xlink:title=" ">
<path fill="none" stroke="#63b8ff" d="M366.04,-900.32C336.35,-922.32 286.82,-956.02 239,-975 230.32,-978.45 221.07,-981.42 211.73,-983.98"/>
<polygon fill="#63b8ff" stroke="#63b8ff" points="368.34,-902.97 374.24,-894.17 364.14,-897.37 368.34,-902.97"/>
</a>
</g>
</g>
<!-- Node11 -->
<g id="Node000011" class="node">
<title>Node11</title>
<g id="a_Node000011"><a xlink:href="classio_1_1github_1_1fruitcropxl_1_1config_1_1params_1_1structures_1_1CategoryStore_a44f2652477aa97d9b03517bcf8d1d8b7.html#a44f2652477aa97d9b03517bcf8d1d8b7" target="_top" xlink:title=" ">
<polygon fill="white" stroke="#666666" points="239,-966 0,-966 0,-936 239,-936 239,-966"/>
<text text-anchor="start" x="8" y="-954" font-family="Helvetica,sans-Serif" font-size="10.00">io.github.fruitcropxl.config.params.structures.</text>
<text text-anchor="middle" x="119.5" y="-943" font-family="Helvetica,sans-Serif" font-size="10.00">CategoryStore.getDoubleArray</text>
</a>
</g>
</g>
<!-- Node8&#45;&gt;Node11 -->
<g id="edge10_Node000008_Node000011" class="edge">
<title>Node8&#45;&gt;Node11</title>
<g id="a_edge10_Node000008_Node000011"><a xlink:title=" ">
<path fill="none" stroke="#63b8ff" d="M339.53,-897.24C310.04,-906.84 272.74,-918.37 239,-927 226.6,-930.17 213.37,-933.2 200.43,-935.96"/>
<polygon fill="#63b8ff" stroke="#63b8ff" points="340.81,-900.51 349.22,-894.07 338.63,-893.85 340.81,-900.51"/>
</a>
</g>
</g>
<!-- Node12 -->
<g id="Node000012" class="node">
<title>Node12</title>
<g id="a_Node000012"><a xlink:href="classio_1_1github_1_1fruitcropxl_1_1config_1_1params_1_1structures_1_1CategoryStore_ad68a65330093c84406367b533bd742dc.html#ad68a65330093c84406367b533bd742dc" target="_top" xlink:title=" ">
<polygon fill="white" stroke="#666666" points="239,-918 0,-918 0,-888 239,-888 239,-918"/>
<text text-anchor="start" x="8" y="-906" font-family="Helvetica,sans-Serif" font-size="10.00">io.github.fruitcropxl.config.params.structures.</text>
<text text-anchor="middle" x="119.5" y="-895" font-family="Helvetica,sans-Serif" font-size="10.00">CategoryStore.getDoubleArray</text>
</a>
</g>
</g>
<!-- Node8&#45;&gt;Node12 -->
<g id="edge11_Node000008_Node000012" class="edge">
<title>Node8&#45;&gt;Node12</title>
<g id="a_edge11_Node000008_Node000012"><a xlink:title=" ">
<path fill="none" stroke="#63b8ff" d="M264.96,-890.3C256.42,-891.05 247.85,-891.8 239.37,-892.55"/>
<polygon fill="#63b8ff" stroke="#63b8ff" points="265.29,-893.78 274.95,-889.42 264.68,-886.81 265.29,-893.78"/>
</a>
</g>
</g>
<!-- Node13 -->
<g id="Node000013" class="node">
<title>Node13</title>
<g id="a_Node000013"><a xlink:href="classio_1_1github_1_1fruitcropxl_1_1config_1_1params_1_1structures_1_1CategoryStore_a1640aa8fbd2902ddd7341ed39783eb1e.html#a1640aa8fbd2902ddd7341ed39783eb1e" target="_top" xlink:title=" ">
<polygon fill="white" stroke="#666666" points="239,-870 0,-870 0,-840 239,-840 239,-870"/>
<text text-anchor="start" x="8" y="-858" font-family="Helvetica,sans-Serif" font-size="10.00">io.github.fruitcropxl.config.params.structures.</text>
<text text-anchor="middle" x="119.5" y="-847" font-family="Helvetica,sans-Serif" font-size="10.00">CategoryStore.getIntegerArray</text>
</a>
</g>
</g>
<!-- Node8&#45;&gt;Node13 -->
<g id="edge12_Node000008_Node000013" class="edge">
<title>Node8&#45;&gt;Node13</title>
<g id="a_edge12_Node000008_Node000013"><a xlink:title=" ">
<path fill="none" stroke="#63b8ff" d="M264.96,-867.7C256.42,-866.95 247.85,-866.2 239.37,-865.45"/>
<polygon fill="#63b8ff" stroke="#63b8ff" points="264.68,-871.19 274.95,-868.58 265.29,-864.22 264.68,-871.19"/>
</a>
</g>
</g>
<!-- Node14 -->
<g id="Node000014" class="node">
<title>Node14</title>
<g id="a_Node000014"><a xlink:href="classio_1_1github_1_1fruitcropxl_1_1config_1_1params_1_1structures_1_1CategoryStore_a33d6cd04f1d908bfe44d61824e8a9aed.html#a33d6cd04f1d908bfe44d61824e8a9aed" target="_top" xlink:title=" ">
<polygon fill="white" stroke="#666666" points="239,-822 0,-822 0,-792 239,-792 239,-822"/>
<text text-anchor="start" x="8" y="-810" font-family="Helvetica,sans-Serif" font-size="10.00">io.github.fruitcropxl.config.params.structures.</text>
<text text-anchor="middle" x="119.5" y="-799" font-family="Helvetica,sans-Serif" font-size="10.00">CategoryStore.getIntegerArray</text>
</a>
</g>
</g>
<!-- Node8&#45;&gt;Node14 -->
<g id="edge13_Node000008_Node000014" class="edge">
<title>Node8&#45;&gt;Node14</title>
<g id="a_edge13_Node000008_Node000014"><a xlink:title=" ">
<path fill="none" stroke="#63b8ff" d="M291.58,-861.08C285.9,-859.24 280.34,-857.22 275,-855 257.24,-847.62 256.76,-838.38 239,-831 230.67,-827.54 221.79,-824.56 212.78,-822"/>
<polygon fill="#63b8ff" stroke="#63b8ff" points="290.63,-864.45 301.22,-864 292.66,-857.75 290.63,-864.45"/>
</a>
</g>
</g>
<!-- Node15 -->
<g id="Node000015" class="node">
<title>Node15</title>
<g id="a_Node000015"><a xlink:href="classio_1_1github_1_1fruitcropxl_1_1config_1_1params_1_1structures_1_1CategoryStore_ac1c0346a1e128fce0e74842c375fff39.html#ac1c0346a1e128fce0e74842c375fff39" target="_top" xlink:title=" ">
<polygon fill="white" stroke="#666666" points="239,-774 0,-774 0,-744 239,-744 239,-774"/>
<text text-anchor="start" x="8" y="-762" font-family="Helvetica,sans-Serif" font-size="10.00">io.github.fruitcropxl.config.params.structures.</text>
<text text-anchor="middle" x="119.5" y="-751" font-family="Helvetica,sans-Serif" font-size="10.00">CategoryStore.getStringArray</text>
</a>
</g>
</g>
<!-- Node8&#45;&gt;Node15 -->
<g id="edge14_Node000008_Node000015" class="edge">
<title>Node8&#45;&gt;Node15</title>
<g id="a_edge14_Node000008_Node000015"><a xlink:title=" ">
<path fill="none" stroke="#63b8ff" d="M280.11,-858.62C278.36,-857.47 276.66,-856.27 275,-855 246.59,-833.25 267.41,-804.75 239,-783 234.58,-779.62 229.81,-776.68 224.81,-774.13"/>
<polygon fill="#63b8ff" stroke="#63b8ff" points="278.79,-861.9 289.19,-863.87 282.29,-855.84 278.79,-861.9"/>
</a>
</g>
</g>
<!-- Node16 -->
<g id="Node000016" class="node">
<title>Node16</title>
<g id="a_Node000016"><a xlink:href="classio_1_1github_1_1fruitcropxl_1_1config_1_1params_1_1structures_1_1CategoryStore_ab975d7039f5845cea6393d10c729989a.html#ab975d7039f5845cea6393d10c729989a" target="_top" xlink:title=" ">
<polygon fill="white" stroke="#666666" points="239,-726 0,-726 0,-696 239,-696 239,-726"/>
<text text-anchor="start" x="8" y="-714" font-family="Helvetica,sans-Serif" font-size="10.00">io.github.fruitcropxl.config.params.structures.</text>
<text text-anchor="middle" x="119.5" y="-703" font-family="Helvetica,sans-Serif" font-size="10.00">CategoryStore.getStringArray</text>
</a>
</g>
</g>
<!-- Node8&#45;&gt;Node16 -->
<g id="edge15_Node000008_Node000016" class="edge">
<title>Node8&#45;&gt;Node16</title>
<g id="a_edge15_Node000008_Node000016"><a xlink:title=" ">
<path fill="none" stroke="#63b8ff" d="M278.59,-858.06C277.36,-857.08 276.16,-856.06 275,-855 233.87,-817.47 280.13,-772.53 239,-735 235.28,-731.6 231.21,-728.63 226.9,-726.04"/>
<polygon fill="#63b8ff" stroke="#63b8ff" points="276.89,-861.14 287.1,-863.96 280.87,-855.39 276.89,-861.14"/>
</a>
</g>
</g>
<!-- Node28 -->
<g id="Node000028" class="node">
<title>Node28</title>
<g id="a_Node000028"><a xlink:href="classio_1_1github_1_1fruitcropxl_1_1config_1_1params_1_1ParamTable_aee39335ddac2d95ec227b532a0474213.html#aee39335ddac2d95ec227b532a0474213" target="_top" xlink:title=" ">
<polygon fill="white" stroke="#666666" points="488.5,-366 300.5,-366 300.5,-336 488.5,-336 488.5,-366"/>
<text text-anchor="start" x="308.5" y="-354" font-family="Helvetica,sans-Serif" font-size="10.00">io.github.fruitcropxl.config.params.</text>
<text text-anchor="middle" x="394.5" y="-343" font-family="Helvetica,sans-Serif" font-size="10.00">ParamTable.getBooleanArray</text>
</a>
</g>
</g>
<!-- Node27&#45;&gt;Node28 -->
<g id="edge27_Node000027_Node000028" class="edge">
<title>Node27&#45;&gt;Node28</title>
<g id="a_edge27_Node000027_Node000028"><a xlink:title=" ">
<path fill="none" stroke="#63b8ff" d="M632.37,-274.82C601.67,-290.93 556.03,-313.17 514,-327 503.73,-330.38 492.8,-333.37 481.88,-335.99"/>
<polygon fill="#63b8ff" stroke="#63b8ff" points="634.2,-277.82 641.39,-270.04 630.92,-271.63 634.2,-277.82"/>
</a>
</g>
</g>
<!-- Node29 -->
<g id="Node000029" class="node">
<title>Node29</title>
<g id="a_Node000029"><a xlink:href="classio_1_1github_1_1fruitcropxl_1_1config_1_1params_1_1ParamTable_aebfe4ec1cc8de3b7c3968c4cc9769d3d.html#aebfe4ec1cc8de3b7c3968c4cc9769d3d" target="_top" xlink:title=" ">
<polygon fill="white" stroke="#666666" points="488.5,-318 300.5,-318 300.5,-288 488.5,-288 488.5,-318"/>
<text text-anchor="start" x="308.5" y="-306" font-family="Helvetica,sans-Serif" font-size="10.00">io.github.fruitcropxl.config.params.</text>
<text text-anchor="middle" x="394.5" y="-295" font-family="Helvetica,sans-Serif" font-size="10.00">ParamTable.getBooleanArray</text>
</a>
</g>
</g>
<!-- Node27&#45;&gt;Node29 -->
<g id="edge28_Node000027_Node000029" class="edge">
<title>Node27&#45;&gt;Node29</title>
<g id="a_edge28_Node000027_Node000029"><a xlink:title=" ">
<path fill="none" stroke="#63b8ff" d="M572.83,-271.82C542.87,-277.09 510.02,-282.86 480.83,-288"/>
<polygon fill="#63b8ff" stroke="#63b8ff" points="573.63,-275.23 582.87,-270.06 572.42,-268.34 573.63,-275.23"/>
</a>
</g>
</g>
<!-- Node30 -->
<g id="Node000030" class="node">
<title>Node30</title>
<g id="a_Node000030"><a xlink:href="classio_1_1github_1_1fruitcropxl_1_1config_1_1params_1_1ParamTable_ac8e6b95fdac66911b5a1f7c4ad2b1c60.html#ac8e6b95fdac66911b5a1f7c4ad2b1c60" target="_top" xlink:title=" ">
<polygon fill="white" stroke="#666666" points="488.5,-270 300.5,-270 300.5,-240 488.5,-240 488.5,-270"/>
<text text-anchor="start" x="308.5" y="-258" font-family="Helvetica,sans-Serif" font-size="10.00">io.github.fruitcropxl.config.params.</text>
<text text-anchor="middle" x="394.5" y="-247" font-family="Helvetica,sans-Serif" font-size="10.00">ParamTable.getDoubleArray</text>
</a>
</g>
</g>
<!-- Node27&#45;&gt;Node30 -->
<g id="edge29_Node000027_Node000030" class="edge">
<title>Node27&#45;&gt;Node30</title>
<g id="a_edge29_Node000027_Node000030"><a xlink:title=" ">
<path fill="none" stroke="#63b8ff" d="M565.05,-255C539.97,-255 513.31,-255 488.73,-255"/>
<polygon fill="#63b8ff" stroke="#63b8ff" points="565.31,-258.5 575.31,-255 565.31,-251.5 565.31,-258.5"/>
</a>
</g>
</g>
<!-- Node31 -->
<g id="Node000031" class="node">
<title>Node31</title>
<g id="a_Node000031"><a xlink:href="classio_1_1github_1_1fruitcropxl_1_1config_1_1params_1_1ParamTable_a3498ead7efa149dd1d2bbad5007c1403.html#a3498ead7efa149dd1d2bbad5007c1403" target="_top" xlink:title=" ">
<polygon fill="white" stroke="#666666" points="488.5,-222 300.5,-222 300.5,-192 488.5,-192 488.5,-222"/>
<text text-anchor="start" x="308.5" y="-210" font-family="Helvetica,sans-Serif" font-size="10.00">io.github.fruitcropxl.config.params.</text>
<text text-anchor="middle" x="394.5" y="-199" font-family="Helvetica,sans-Serif" font-size="10.00">ParamTable.getDoubleArray</text>
</a>
</g>
</g>
<!-- Node27&#45;&gt;Node31 -->
<g id="edge30_Node000027_Node000031" class="edge">
<title>Node27&#45;&gt;Node31</title>
<g id="a_edge30_Node000027_Node000031"><a xlink:title=" ">
<path fill="none" stroke="#63b8ff" d="M572.83,-238.18C542.87,-232.91 510.02,-227.14 480.83,-222"/>
<polygon fill="#63b8ff" stroke="#63b8ff" points="572.42,-241.66 582.87,-239.94 573.63,-234.77 572.42,-241.66"/>
</a>
</g>
</g>
<!-- Node32 -->
<g id="Node000032" class="node">
<title>Node32</title>
<g id="a_Node000032"><a xlink:href="classio_1_1github_1_1fruitcropxl_1_1config_1_1params_1_1ParamTable_a7902e1e5fe828371ff64758d9d473aaf.html#a7902e1e5fe828371ff64758d9d473aaf" target="_top" xlink:title=" ">
<polygon fill="white" stroke="#666666" points="488.5,-174 300.5,-174 300.5,-144 488.5,-144 488.5,-174"/>
<text text-anchor="start" x="308.5" y="-162" font-family="Helvetica,sans-Serif" font-size="10.00">io.github.fruitcropxl.config.params.</text>
<text text-anchor="middle" x="394.5" y="-151" font-family="Helvetica,sans-Serif" font-size="10.00">ParamTable.getIntegerArray</text>
</a>
</g>
</g>
<!-- Node27&#45;&gt;Node32 -->
<g id="edge31_Node000027_Node000032" class="edge">
<title>Node27&#45;&gt;Node32</title>
<g id="a_edge31_Node000027_Node000032"><a xlink:title=" ">
<path fill="none" stroke="#63b8ff" d="M565.88,-239.32C560.34,-236.92 555,-234.16 550,-231 527.46,-216.75 536.54,-197.25 514,-183 506.19,-178.07 497.57,-174.12 488.64,-170.97"/>
<polygon fill="#63b8ff" stroke="#63b8ff" points="564.77,-242.64 575.36,-243.03 567.33,-236.13 564.77,-242.64"/>
</a>
</g>
</g>
<!-- Node33 -->
<g id="Node000033" class="node">
<title>Node33</title>
<g id="a_Node000033"><a xlink:href="classio_1_1github_1_1fruitcropxl_1_1config_1_1params_1_1ParamTable_aa04cedb31288a1f6d60afd6d802e61d7.html#aa04cedb31288a1f6d60afd6d802e61d7" target="_top" xlink:title=" ">
<polygon fill="white" stroke="#666666" points="488.5,-126 300.5,-126 300.5,-96 488.5,-96 488.5,-126"/>
<text text-anchor="start" x="308.5" y="-114" font-family="Helvetica,sans-Serif" font-size="10.00">io.github.fruitcropxl.config.params.</text>
<text text-anchor="middle" x="394.5" y="-103" font-family="Helvetica,sans-Serif" font-size="10.00">ParamTable.getIntegerArray</text>
</a>
</g>
</g>
<!-- Node27&#45;&gt;Node33 -->
<g id="edge32_Node000027_Node000033" class="edge">
<title>Node27&#45;&gt;Node33</title>
<g id="a_edge32_Node000027_Node000033"><a xlink:title=" ">
<path fill="none" stroke="#63b8ff" d="M566,-241.61C560.27,-238.66 554.87,-235.16 550,-231 515.32,-201.44 548.68,-164.56 514,-135 506.57,-128.67 497.93,-123.84 488.77,-120.19"/>
<polygon fill="#63b8ff" stroke="#63b8ff" points="564.68,-244.86 575.23,-245.81 567.58,-238.49 564.68,-244.86"/>
</a>
</g>
</g>
<!-- Node34 -->
<g id="Node000034" class="node">
<title>Node34</title>
<g id="a_Node000034"><a xlink:href="classio_1_1github_1_1fruitcropxl_1_1config_1_1params_1_1ParamTable_a2565a85e38144656726cef5422b3fdd9.html#a2565a85e38144656726cef5422b3fdd9" target="_top" xlink:title=" ">
<polygon fill="white" stroke="#666666" points="488.5,-78 300.5,-78 300.5,-48 488.5,-48 488.5,-78"/>
<text text-anchor="start" x="308.5" y="-66" font-family="Helvetica,sans-Serif" font-size="10.00">io.github.fruitcropxl.config.params.</text>
<text text-anchor="middle" x="394.5" y="-55" font-family="Helvetica,sans-Serif" font-size="10.00">ParamTable.getStringArray</text>
</a>
</g>
</g>
<!-- Node27&#45;&gt;Node34 -->
<g id="edge33_Node000027_Node000034" class="edge">
<title>Node27&#45;&gt;Node34</title>
<g id="a_edge33_Node000027_Node000034"><a xlink:title=" ">
<path fill="none" stroke="#63b8ff" d="M565.97,-242.54C560.18,-239.38 554.78,-235.57 550,-231 502.31,-185.42 561.69,-132.58 514,-87 506.72,-80.04 498,-74.84 488.64,-71"/>
<polygon fill="#63b8ff" stroke="#63b8ff" points="564.83,-245.87 575.36,-247 567.83,-239.55 564.83,-245.87"/>
</a>
</g>
</g>
<!-- Node35 -->
<g id="Node000035" class="node">
<title>Node35</title>
<g id="a_Node000035"><a xlink:href="classio_1_1github_1_1fruitcropxl_1_1config_1_1params_1_1ParamTable_a3f1163fc8de55f388e38c5efdf259ba9.html#a3f1163fc8de55f388e38c5efdf259ba9" target="_top" xlink:title=" ">
<polygon fill="white" stroke="#666666" points="488.5,-30 300.5,-30 300.5,0 488.5,0 488.5,-30"/>
<text text-anchor="start" x="308.5" y="-18" font-family="Helvetica,sans-Serif" font-size="10.00">io.github.fruitcropxl.config.params.</text>
<text text-anchor="middle" x="394.5" y="-7" font-family="Helvetica,sans-Serif" font-size="10.00">ParamTable.getStringArray</text>
</a>
</g>
</g>
<!-- Node27&#45;&gt;Node35 -->
<g id="edge34_Node000027_Node000035" class="edge">
<title>Node27&#45;&gt;Node35</title>
<g id="a_edge34_Node000027_Node000035"><a xlink:title=" ">
<path fill="none" stroke="#63b8ff" d="M565.83,-242.97C560.05,-239.7 554.69,-235.76 550,-231 489.05,-169.17 574.95,-100.83 514,-39 506.85,-31.75 498.16,-26.38 488.77,-22.45"/>
<polygon fill="#63b8ff" stroke="#63b8ff" points="564.71,-246.32 575.23,-247.55 567.78,-240.02 564.71,-246.32"/>
</a>
</g>
</g>
<!-- Node42 -->
<g id="Node000042" class="node">
<title>Node42</title>
<g id="a_Node000042"><a xlink:href="classio_1_1github_1_1fruitcropxl_1_1config_1_1params_1_1structures_1_1CategoryStore_aa919e1da5add99d3dab6a7fec5bbe311.html#aa919e1da5add99d3dab6a7fec5bbe311" target="_top" xlink:title=" ">
<polygon fill="white" stroke="#666666" points="789,-174 550,-174 550,-144 789,-144 789,-174"/>
<text text-anchor="start" x="558" y="-162" font-family="Helvetica,sans-Serif" font-size="10.00">io.github.fruitcropxl.config.params.structures.</text>
<text text-anchor="middle" x="669.5" y="-151" font-family="Helvetica,sans-Serif" font-size="10.00">CategoryStore.isNull</text>
</a>
</g>
</g>
<!-- Node41&#45;&gt;Node42 -->
<g id="edge41_Node000041_Node000042" class="edge">
<title>Node41&#45;&gt;Node42</title>
<g id="a_edge41_Node000041_Node000042"><a xlink:title=" ">
<path fill="none" stroke="#63b8ff" d="M832.49,-235.51C829.91,-234.11 827.4,-232.61 825,-231 802.84,-216.17 811.54,-197.25 789,-183 783.59,-179.58 777.78,-176.63 771.76,-174.1"/>
<polygon fill="#63b8ff" stroke="#63b8ff" points="831,-238.68 841.52,-239.89 834.05,-232.38 831,-238.68"/>
</a>
</g>
</g>
</g>
</svg>
