<?xml version="1.0" encoding="UTF-8" standalone="no"?>
<!DOCTYPE svg PUBLIC "-//W3C//DTD SVG 1.1//EN"
 "http://www.w3.org/Graphics/SVG/1.1/DTD/svg11.dtd">
<!-- Generated by graphviz version 2.43.0 (0)
 -->
<!-- Title: fspm.config.Config.getInteger Pages: 1 -->
<svg width="551pt" height="78pt"
 viewBox="0.00 0.00 551.00 77.50" xmlns="http://www.w3.org/2000/svg" xmlns:xlink="http://www.w3.org/1999/xlink">
<g id="graph0" class="graph" transform="scale(1 1) rotate(0) translate(4 73.5)">
<title>fspm.config.Config.getInteger</title>
<!-- Node1 -->
<g id="node1" class="node">
<title>Node1</title>
<g id="a_node1"><a xlink:title=" ">
<polygon fill="#bfbfbf" stroke="black" points="382,-28 382,-47 543,-47 543,-28 382,-28"/>
<text text-anchor="middle" x="462.5" y="-35" font-family="Helvetica,sans-Serif" font-size="10.00">fspm.config.Config.getInteger</text>
</a>
</g>
</g>
<!-- Node2 -->
<g id="node2" class="node">
<title>Node2</title>
<g id="a_node2"><a xlink:href="classfspm_1_1config_1_1Config_ab43ca088e354eed9af2d74c813e08ff8.html#ab43ca088e354eed9af2d74c813e08ff8" target="_top" xlink:title=" ">
<polygon fill="none" stroke="black" points="185,-50 185,-69 346,-69 346,-50 185,-50"/>
<text text-anchor="middle" x="265.5" y="-57" font-family="Helvetica,sans-Serif" font-size="10.00">fspm.config.Config.getInteger</text>
</a>
</g>
</g>
<!-- Node1&#45;&gt;Node2 -->
<g id="edge1" class="edge">
<title>Node1&#45;&gt;Node2</title>
<path fill="none" stroke="midnightblue" d="M371.88,-47.61C363.3,-48.58 354.64,-49.56 346.16,-50.51"/>
<polygon fill="midnightblue" stroke="midnightblue" points="372.36,-51.08 381.9,-46.48 371.58,-44.12 372.36,-51.08"/>
</g>
<!-- Node3 -->
<g id="node3" class="node">
<title>Node3</title>
<g id="a_node3"><a xlink:href="classfspm_1_1config_1_1ConfigTest_aa9e41d045f61b82c742edbd88424aff3.html#aa9e41d045f61b82c742edbd88424aff3" target="_top" xlink:title=" ">
<polygon fill="none" stroke="black" points="191,-0.5 191,-30.5 340,-30.5 340,-0.5 191,-0.5"/>
<text text-anchor="start" x="199" y="-18.5" font-family="Helvetica,sans-Serif" font-size="10.00">fspm.config.ConfigTest.test</text>
<text text-anchor="middle" x="265.5" y="-7.5" font-family="Helvetica,sans-Serif" font-size="10.00">_getNullAsTypes</text>
</a>
</g>
</g>
<!-- Node1&#45;&gt;Node3 -->
<g id="edge2" class="edge">
<title>Node1&#45;&gt;Node3</title>
<path fill="none" stroke="midnightblue" d="M371.81,-27.38C361.23,-26.19 350.52,-24.98 340.19,-23.81"/>
<polygon fill="midnightblue" stroke="midnightblue" points="371.58,-30.88 381.9,-28.52 372.36,-23.92 371.58,-30.88"/>
</g>
<!-- Node4 -->
<g id="node4" class="node">
<title>Node4</title>
<g id="a_node4"><a xlink:href="classfspm_1_1config_1_1ConfigTest_a0ace3587e0462f748617e279d4d0c659.html#a0ace3587e0462f748617e279d4d0c659" target="_top" xlink:title=" ">
<polygon fill="none" stroke="black" points="0,-0.5 0,-30.5 149,-30.5 149,-0.5 0,-0.5"/>
<text text-anchor="start" x="8" y="-18.5" font-family="Helvetica,sans-Serif" font-size="10.00">fspm.config.ConfigTest.test</text>
<text text-anchor="middle" x="74.5" y="-7.5" font-family="Helvetica,sans-Serif" font-size="10.00">_types</text>
</a>
</g>
</g>
<!-- Node3&#45;&gt;Node4 -->
<g id="edge3" class="edge">
<title>Node3&#45;&gt;Node4</title>
<path fill="none" stroke="midnightblue" d="M180.86,-15.5C170.32,-15.5 159.59,-15.5 149.22,-15.5"/>
<polygon fill="midnightblue" stroke="midnightblue" points="180.89,-19 190.89,-15.5 180.89,-12 180.89,-19"/>
</g>
</g>
</svg>
