<?xml version="1.0" encoding="UTF-8" standalone="no"?>
<!DOCTYPE svg PUBLIC "-//W3C//DTD SVG 1.1//EN"
 "http://www.w3.org/Graphics/SVG/1.1/DTD/svg11.dtd">
<!-- Generated by graphviz version 2.43.0 (0)
 -->
<!-- Title: fspm.config.params.hierarchy.TableHierarchy.parse Pages: 1 -->
<svg width="566pt" height="235pt"
 viewBox="0.00 0.00 566.00 235.00" xmlns="http://www.w3.org/2000/svg" xmlns:xlink="http://www.w3.org/1999/xlink">
<g id="graph0" class="graph" transform="scale(1 1) rotate(0) translate(4 231)">
<title>fspm.config.params.hierarchy.TableHierarchy.parse</title>
<!-- Node1 -->
<g id="node1" class="node">
<title>Node1</title>
<g id="a_node1"><a xlink:title=" ">
<polygon fill="#bfbfbf" stroke="black" points="0,-98.5 0,-128.5 164,-128.5 164,-98.5 0,-98.5"/>
<text text-anchor="start" x="8" y="-116.5" font-family="Helvetica,sans-Serif" font-size="10.00">fspm.config.params.hierarchy.</text>
<text text-anchor="middle" x="82" y="-105.5" font-family="Helvetica,sans-Serif" font-size="10.00">TableHierarchy.parse</text>
</a>
</g>
</g>
<!-- Node2 -->
<g id="node2" class="node">
<title>Node2</title>
<g id="a_node2"><a xlink:href="classfspm_1_1config_1_1params_1_1ParamTable_a399e39364c1efcbbe169e6373e722c2f.html#a399e39364c1efcbbe169e6373e722c2f" target="_top" xlink:title=" ">
<polygon fill="none" stroke="black" points="208.5,-196.5 208.5,-226.5 355.5,-226.5 355.5,-196.5 208.5,-196.5"/>
<text text-anchor="start" x="216.5" y="-214.5" font-family="Helvetica,sans-Serif" font-size="10.00">fspm.config.params.Param</text>
<text text-anchor="middle" x="282" y="-203.5" font-family="Helvetica,sans-Serif" font-size="10.00">Table.add</text>
</a>
</g>
</g>
<!-- Node1&#45;&gt;Node2 -->
<g id="edge1" class="edge">
<title>Node1&#45;&gt;Node2</title>
<path fill="none" stroke="midnightblue" d="M103.15,-128.69C125.72,-145.11 163.89,-171.11 200,-187.5 204.28,-189.44 208.76,-191.28 213.32,-193"/>
<polygon fill="midnightblue" stroke="midnightblue" points="212.17,-196.3 222.76,-196.37 214.52,-189.71 212.17,-196.3"/>
</g>
<!-- Node3 -->
<g id="node3" class="node">
<title>Node3</title>
<g id="a_node3"><a xlink:href="classfspm_1_1config_1_1params_1_1hierarchy_1_1TableHierarchy_abc2eae14dccf78994e72a387599192dd.html#abc2eae14dccf78994e72a387599192dd" target="_top" xlink:title=" ">
<polygon fill="none" stroke="black" points="200,-147.5 200,-177.5 364,-177.5 364,-147.5 200,-147.5"/>
<text text-anchor="start" x="208" y="-165.5" font-family="Helvetica,sans-Serif" font-size="10.00">fspm.config.params.hierarchy.</text>
<text text-anchor="middle" x="282" y="-154.5" font-family="Helvetica,sans-Serif" font-size="10.00">TableHierarchy.addTable</text>
</a>
</g>
</g>
<!-- Node1&#45;&gt;Node3 -->
<g id="edge2" class="edge">
<title>Node1&#45;&gt;Node3</title>
<path fill="none" stroke="midnightblue" d="M143.75,-128.53C164.85,-133.76 188.68,-139.65 210.5,-145.05"/>
<polygon fill="midnightblue" stroke="midnightblue" points="209.81,-148.49 220.36,-147.49 211.5,-141.69 209.81,-148.49"/>
</g>
<!-- Node5 -->
<g id="node5" class="node">
<title>Node5</title>
<g id="a_node5"><a xlink:href="classfspm_1_1config_1_1adapters_1_1JsonFileReader_ade656b5e0e5d950b9997ee04ec01964d.html#ade656b5e0e5d950b9997ee04ec01964d" target="_top" xlink:title="Helper function for getting root/tree node from a JSON file.">
<polygon fill="none" stroke="black" points="207.5,-98.5 207.5,-128.5 356.5,-128.5 356.5,-98.5 207.5,-98.5"/>
<text text-anchor="start" x="215.5" y="-116.5" font-family="Helvetica,sans-Serif" font-size="10.00">fspm.config.adapters.Json</text>
<text text-anchor="middle" x="282" y="-105.5" font-family="Helvetica,sans-Serif" font-size="10.00">FileReader.getTreeFromFile</text>
</a>
</g>
</g>
<!-- Node1&#45;&gt;Node5 -->
<g id="edge4" class="edge">
<title>Node1&#45;&gt;Node5</title>
<path fill="none" stroke="midnightblue" d="M164.11,-113.5C175.06,-113.5 186.32,-113.5 197.32,-113.5"/>
<polygon fill="midnightblue" stroke="midnightblue" points="197.34,-117 207.34,-113.5 197.34,-110 197.34,-117"/>
</g>
<!-- Node6 -->
<g id="node6" class="node">
<title>Node6</title>
<g id="a_node6"><a xlink:href="classfspm_1_1config_1_1params_1_1ParamFactory_aadcecc67803da778c697f1b6683cd5c7.html#aadcecc67803da778c697f1b6683cd5c7" target="_top" xlink:title="Returns a concrete Parameter instance depending on the data type of the JsonNode passed in.">
<polygon fill="none" stroke="black" points="208.5,-49.5 208.5,-79.5 355.5,-79.5 355.5,-49.5 208.5,-49.5"/>
<text text-anchor="start" x="216.5" y="-67.5" font-family="Helvetica,sans-Serif" font-size="10.00">fspm.config.params.Param</text>
<text text-anchor="middle" x="282" y="-56.5" font-family="Helvetica,sans-Serif" font-size="10.00">Factory.parseParameter</text>
</a>
</g>
</g>
<!-- Node1&#45;&gt;Node6 -->
<g id="edge5" class="edge">
<title>Node1&#45;&gt;Node6</title>
<path fill="none" stroke="midnightblue" d="M143.75,-98.47C164.85,-93.24 188.68,-87.35 210.5,-81.95"/>
<polygon fill="midnightblue" stroke="midnightblue" points="211.5,-85.31 220.36,-79.51 209.81,-78.51 211.5,-85.31"/>
</g>
<!-- Node7 -->
<g id="node7" class="node">
<title>Node7</title>
<g id="a_node7"><a xlink:href="classfspm_1_1config_1_1params_1_1hierarchy_1_1TableHierarchy_a8e7d715c59f3acf3e79fb53f9d1ef884.html#a8e7d715c59f3acf3e79fb53f9d1ef884" target="_top" xlink:title=" ">
<polygon fill="none" stroke="black" points="200,-0.5 200,-30.5 364,-30.5 364,-0.5 200,-0.5"/>
<text text-anchor="start" x="208" y="-18.5" font-family="Helvetica,sans-Serif" font-size="10.00">fspm.config.params.hierarchy.</text>
<text text-anchor="middle" x="282" y="-7.5" font-family="Helvetica,sans-Serif" font-size="10.00">TableHierarchy.TableHierarchy</text>
</a>
</g>
</g>
<!-- Node1&#45;&gt;Node7 -->
<g id="edge6" class="edge">
<title>Node1&#45;&gt;Node7</title>
<path fill="none" stroke="midnightblue" d="M103.63,-98.31C126.31,-82.19 164.29,-56.82 200,-40.5 205.02,-38.21 210.31,-36.05 215.68,-34.04"/>
<polygon fill="midnightblue" stroke="midnightblue" points="217.14,-37.23 225.39,-30.57 214.79,-30.63 217.14,-37.23"/>
</g>
<!-- Node4 -->
<g id="node4" class="node">
<title>Node4</title>
<g id="a_node4"><a xlink:href="classfspm_1_1util_1_1KeyElement_a653aac67328f98c1201974736671fe0d.html#a653aac67328f98c1201974736671fe0d" target="_top" xlink:title=" ">
<polygon fill="none" stroke="black" points="400,-153 400,-172 558,-172 558,-153 400,-153"/>
<text text-anchor="middle" x="479" y="-160" font-family="Helvetica,sans-Serif" font-size="10.00">fspm.util.KeyElement.getKey</text>
</a>
</g>
</g>
<!-- Node3&#45;&gt;Node4 -->
<g id="edge3" class="edge">
<title>Node3&#45;&gt;Node4</title>
<path fill="none" stroke="midnightblue" d="M364,-162.5C372.5,-162.5 381.17,-162.5 389.75,-162.5"/>
<polygon fill="midnightblue" stroke="midnightblue" points="389.75,-166 399.75,-162.5 389.75,-159 389.75,-166"/>
</g>
</g>
</svg>
