<?xml version="1.0" encoding="UTF-8" standalone="no"?>
<!DOCTYPE svg PUBLIC "-//W3C//DTD SVG 1.1//EN"
 "http://www.w3.org/Graphics/SVG/1.1/DTD/svg11.dtd">
<!-- Generated by graphviz version 2.43.0 (0)
 -->
<!-- Title: fspm.config.params.hierarchy.CategoryHierarchy.getBooleanArray Pages: 1 -->
<svg width="1139pt" height="165pt"
 viewBox="0.00 0.00 1139.00 165.00" xmlns="http://www.w3.org/2000/svg" xmlns:xlink="http://www.w3.org/1999/xlink">
<g id="graph0" class="graph" transform="scale(1 1) rotate(0) translate(4 161)">
<title>fspm.config.params.hierarchy.CategoryHierarchy.getBooleanArray</title>
<!-- Node1 -->
<g id="node1" class="node">
<title>Node1</title>
<g id="a_node1"><a xlink:title=" ">
<polygon fill="#bfbfbf" stroke="black" points="0,-62.5 0,-92.5 191,-92.5 191,-62.5 0,-62.5"/>
<text text-anchor="start" x="8" y="-80.5" font-family="Helvetica,sans-Serif" font-size="10.00">fspm.config.params.hierarchy.</text>
<text text-anchor="middle" x="95.5" y="-69.5" font-family="Helvetica,sans-Serif" font-size="10.00">CategoryHierarchy.getBooleanArray</text>
</a>
</g>
</g>
<!-- Node2 -->
<g id="node2" class="node">
<title>Node2</title>
<g id="a_node2"><a xlink:href="classfspm_1_1config_1_1params_1_1ParamCategory_a13e0ff70b1e28c8f3533eaee62c6abf3.html#a13e0ff70b1e28c8f3533eaee62c6abf3" target="_top" xlink:title=" ">
<polygon fill="none" stroke="black" points="251.5,-90.5 251.5,-120.5 398.5,-120.5 398.5,-90.5 251.5,-90.5"/>
<text text-anchor="start" x="259.5" y="-108.5" font-family="Helvetica,sans-Serif" font-size="10.00">fspm.config.params.Param</text>
<text text-anchor="middle" x="325" y="-97.5" font-family="Helvetica,sans-Serif" font-size="10.00">Category.getBooleanArray</text>
</a>
</g>
</g>
<!-- Node1&#45;&gt;Node2 -->
<g id="edge1" class="edge">
<title>Node1&#45;&gt;Node2</title>
<path fill="none" stroke="midnightblue" d="M191,-89.13C207.69,-91.18 224.94,-93.31 241.26,-95.32"/>
<polygon fill="midnightblue" stroke="midnightblue" points="240.94,-98.8 251.3,-96.55 241.8,-91.86 240.94,-98.8"/>
</g>
<!-- Node8 -->
<g id="node8" class="node">
<title>Node8</title>
<g id="a_node8"><a xlink:href="classfspm_1_1config_1_1params_1_1hierarchy_1_1CategoryHierarchy_a97a3787601b2a1964f925a5509267602.html#a97a3787601b2a1964f925a5509267602" target="_top" xlink:title=" ">
<polygon fill="none" stroke="black" points="227,-30 227,-71 423,-71 423,-30 227,-30"/>
<text text-anchor="start" x="235" y="-59" font-family="Helvetica,sans-Serif" font-size="10.00">fspm.config.params.hierarchy.</text>
<text text-anchor="start" x="235" y="-48" font-family="Helvetica,sans-Serif" font-size="10.00">CategoryHierarchy.validateFlattened</text>
<text text-anchor="middle" x="325" y="-37" font-family="Helvetica,sans-Serif" font-size="10.00">Access</text>
</a>
</g>
</g>
<!-- Node1&#45;&gt;Node8 -->
<g id="edge8" class="edge">
<title>Node1&#45;&gt;Node8</title>
<path fill="none" stroke="midnightblue" d="M191,-66.28C199.52,-65.27 208.17,-64.25 216.78,-63.22"/>
<polygon fill="midnightblue" stroke="midnightblue" points="217.34,-66.68 226.86,-62.03 216.51,-59.73 217.34,-66.68"/>
</g>
<!-- Node3 -->
<g id="node3" class="node">
<title>Node3</title>
<g id="a_node3"><a xlink:href="classfspm_1_1config_1_1params_1_1Parameter_a7bd98e842e2c8e7283b17017707da9be.html#a7bd98e842e2c8e7283b17017707da9be" target="_top" xlink:title=" ">
<polygon fill="none" stroke="black" points="480.5,-126.5 480.5,-156.5 660.5,-156.5 660.5,-126.5 480.5,-126.5"/>
<text text-anchor="start" x="488.5" y="-144.5" font-family="Helvetica,sans-Serif" font-size="10.00">fspm.config.params.Parameter.as</text>
<text text-anchor="middle" x="570.5" y="-133.5" font-family="Helvetica,sans-Serif" font-size="10.00">BooleanArray</text>
</a>
</g>
</g>
<!-- Node2&#45;&gt;Node3 -->
<g id="edge2" class="edge">
<title>Node2&#45;&gt;Node3</title>
<path fill="none" stroke="midnightblue" d="M398.73,-116.25C421.17,-119.57 446.27,-123.28 470.19,-126.82"/>
<polygon fill="midnightblue" stroke="midnightblue" points="469.94,-130.32 480.35,-128.32 470.97,-123.39 469.94,-130.32"/>
</g>
<!-- Node7 -->
<g id="node7" class="node">
<title>Node7</title>
<g id="a_node7"><a xlink:href="classfspm_1_1config_1_1params_1_1ParamCategory_ac81e6b98fa48fc3426eed6f60e81da5b.html#ac81e6b98fa48fc3426eed6f60e81da5b" target="_top" xlink:title="Get generic Parameter with the given key.">
<polygon fill="none" stroke="black" points="734.5,-60.5 734.5,-90.5 881.5,-90.5 881.5,-60.5 734.5,-60.5"/>
<text text-anchor="start" x="742.5" y="-78.5" font-family="Helvetica,sans-Serif" font-size="10.00">fspm.config.params.Param</text>
<text text-anchor="middle" x="808" y="-67.5" font-family="Helvetica,sans-Serif" font-size="10.00">Category.getParameter</text>
</a>
</g>
</g>
<!-- Node2&#45;&gt;Node7 -->
<g id="edge6" class="edge">
<title>Node2&#45;&gt;Node7</title>
<path fill="none" stroke="midnightblue" d="M398.53,-100.98C485.93,-95.53 632.44,-86.39 724.19,-80.66"/>
<polygon fill="midnightblue" stroke="midnightblue" points="724.51,-84.15 734.27,-80.04 724.07,-77.17 724.51,-84.15"/>
</g>
<!-- Node4 -->
<g id="node4" class="node">
<title>Node4</title>
<g id="a_node4"><a xlink:href="classfspm_1_1config_1_1params_1_1Parameter_a2dced470a20701940042f6dacad7f78e.html#a2dced470a20701940042f6dacad7f78e" target="_top" xlink:title=" ">
<polygon fill="none" stroke="black" points="718,-117.5 718,-147.5 898,-147.5 898,-117.5 718,-117.5"/>
<text text-anchor="start" x="726" y="-135.5" font-family="Helvetica,sans-Serif" font-size="10.00">fspm.config.params.Parameter.as</text>
<text text-anchor="middle" x="808" y="-124.5" font-family="Helvetica,sans-Serif" font-size="10.00">Array</text>
</a>
</g>
</g>
<!-- Node3&#45;&gt;Node4 -->
<g id="edge3" class="edge">
<title>Node3&#45;&gt;Node4</title>
<path fill="none" stroke="midnightblue" d="M660.53,-138.1C675.92,-137.51 692,-136.89 707.64,-136.3"/>
<polygon fill="midnightblue" stroke="midnightblue" points="707.98,-139.79 717.84,-135.91 707.72,-132.79 707.98,-139.79"/>
</g>
<!-- Node5 -->
<g id="node5" class="node">
<title>Node5</title>
<g id="a_node5"><a xlink:href="classfspm_1_1util_1_1KeyElement_a653aac67328f98c1201974736671fe0d.html#a653aac67328f98c1201974736671fe0d" target="_top" xlink:title=" ">
<polygon fill="none" stroke="black" points="953.5,-80 953.5,-99 1111.5,-99 1111.5,-80 953.5,-80"/>
<text text-anchor="middle" x="1032.5" y="-87" font-family="Helvetica,sans-Serif" font-size="10.00">fspm.util.KeyElement.getKey</text>
</a>
</g>
</g>
<!-- Node4&#45;&gt;Node5 -->
<g id="edge4" class="edge">
<title>Node4&#45;&gt;Node5</title>
<path fill="none" stroke="midnightblue" d="M886.82,-117.46C914.81,-112.05 945.91,-106.04 972.08,-100.98"/>
<polygon fill="midnightblue" stroke="midnightblue" points="973.07,-104.36 982.23,-99.02 971.75,-97.48 973.07,-104.36"/>
</g>
<!-- Node6 -->
<g id="node6" class="node">
<title>Node6</title>
<g id="a_node6"><a xlink:href="classfspm_1_1config_1_1params_1_1Parameter_a2fd72835a908354fea23f92e3f3b1800.html#a2fd72835a908354fea23f92e3f3b1800" target="_top" xlink:title=" ">
<polygon fill="none" stroke="black" points="934,-123 934,-142 1131,-142 1131,-123 934,-123"/>
<text text-anchor="middle" x="1032.5" y="-130" font-family="Helvetica,sans-Serif" font-size="10.00">fspm.config.params.Parameter.isNull</text>
</a>
</g>
</g>
<!-- Node4&#45;&gt;Node6 -->
<g id="edge5" class="edge">
<title>Node4&#45;&gt;Node6</title>
<path fill="none" stroke="midnightblue" d="M898.22,-132.5C906.65,-132.5 915.25,-132.5 923.83,-132.5"/>
<polygon fill="midnightblue" stroke="midnightblue" points="923.87,-136 933.87,-132.5 923.87,-129 923.87,-136"/>
</g>
<!-- Node7&#45;&gt;Node5 -->
<g id="edge7" class="edge">
<title>Node7&#45;&gt;Node5</title>
<path fill="none" stroke="midnightblue" d="M881.55,-80.06C901.18,-81.3 922.66,-82.65 943.06,-83.94"/>
<polygon fill="midnightblue" stroke="midnightblue" points="943.1,-87.44 953.3,-84.58 943.54,-80.46 943.1,-87.44"/>
</g>
<!-- Node8&#45;&gt;Node7 -->
<g id="edge11" class="edge">
<title>Node8&#45;&gt;Node7</title>
<path fill="none" stroke="midnightblue" d="M423.05,-55.54C511.43,-60.14 640.55,-66.85 724.18,-71.2"/>
<polygon fill="midnightblue" stroke="midnightblue" points="724.23,-74.7 734.4,-71.73 724.59,-67.71 724.23,-74.7"/>
</g>
<!-- Node9 -->
<g id="node9" class="node">
<title>Node9</title>
<g id="a_node9"><a xlink:href="classfspm_1_1config_1_1params_1_1hierarchy_1_1CategoryHierarchy_a9c1b08f5e63a4e2ae1092e048db34237.html#a9c1b08f5e63a4e2ae1092e048db34237" target="_top" xlink:title=" ">
<polygon fill="none" stroke="black" points="459,-0.5 459,-30.5 682,-30.5 682,-0.5 459,-0.5"/>
<text text-anchor="start" x="467" y="-18.5" font-family="Helvetica,sans-Serif" font-size="10.00">fspm.config.params.hierarchy.</text>
<text text-anchor="middle" x="570.5" y="-7.5" font-family="Helvetica,sans-Serif" font-size="10.00">CategoryHierarchy.getCategoryWithParam</text>
</a>
</g>
</g>
<!-- Node8&#45;&gt;Node9 -->
<g id="edge9" class="edge">
<title>Node8&#45;&gt;Node9</title>
<path fill="none" stroke="midnightblue" d="M423.29,-36.52C433.63,-35.03 444.21,-33.51 454.73,-32"/>
<polygon fill="midnightblue" stroke="midnightblue" points="455.38,-35.44 464.78,-30.55 454.38,-28.51 455.38,-35.44"/>
</g>
<!-- Node9&#45;&gt;Node7 -->
<g id="edge10" class="edge">
<title>Node9&#45;&gt;Node7</title>
<path fill="none" stroke="midnightblue" d="M630.62,-30.56C663.24,-38.87 703.91,-49.23 737.97,-57.91"/>
<polygon fill="midnightblue" stroke="midnightblue" points="737.3,-61.35 747.85,-60.43 739.03,-54.57 737.3,-61.35"/>
</g>
</g>
</svg>
