<?xml version="1.0" encoding="UTF-8" standalone="no"?>
<!DOCTYPE svg PUBLIC "-//W3C//DTD SVG 1.1//EN"
 "http://www.w3.org/Graphics/SVG/1.1/DTD/svg11.dtd">
<!-- Generated by graphviz version 2.43.0 (0)
 -->
<!-- Title: fspm.config.params.ParamCategory.get Pages: 1 -->
<!--zoomable 537 -->
<svg id="main" version="1.1" xmlns="http://www.w3.org/2000/svg" xmlns:xlink="http://www.w3.org/1999/xlink" xml:space="preserve" onload="init(evt)">
<style type="text/css"><![CDATA[
.edge:hover path { stroke: red; }
.edge:hover polygon { stroke: red; fill: red; }
]]></style>
<script type="text/javascript"><![CDATA[
var edges = document.getElementsByTagName('g');
if (edges && edges.length) {
  for (var i=0;i<edges.length;i++) {
    if (edges[i].id.substr(0,4)=='edge') {
      edges[i].setAttribute('class','edge');
    }
  }
}
]]></script>
        <defs>
                <circle id="rim" cx="0" cy="0" r="7"/>
                <circle id="rim2" cx="0" cy="0" r="3.5"/>
                <g id="zoomPlus">
                        <use xlink:href="#rim" fill="#404040">
                                <set attributeName="fill" to="#808080" begin="zoomplus.mouseover" end="zoomplus.mouseout"/>
                        </use>
                        <path d="M-4,0h8M0,-4v8" fill="none" stroke="white" stroke-width="1.5" pointer-events="none"/>
                </g>
                <g id="zoomMin">
                        <use xlink:href="#rim" fill="#404040">
                                <set attributeName="fill" to="#808080" begin="zoomminus.mouseover" end="zoomminus.mouseout"/>
                        </use>
                        <path d="M-4,0h8" fill="none" stroke="white" stroke-width="1.5" pointer-events="none"/>
                </g>
                <g id="dirArrow">
                        <path fill="none" stroke="white" stroke-width="1.5" d="M0,-3.0v7 M-2.5,-0.5L0,-3.0L2.5,-0.5"/>
                </g>
               <g id="resetDef">
                       <use xlink:href="#rim2" fill="#404040">
                               <set attributeName="fill" to="#808080" begin="reset.mouseover" end="reset.mouseout"/>
                       </use>
               </g>
        </defs>

<script type="text/javascript">
var viewWidth = 1138;
var viewHeight = 537;
var sectionId = 'dynsection-1';
</script>
<script xlink:href="svgpan.js"/>
<svg id="graph" class="graph">
<g id="viewport">
<title>fspm.config.params.ParamCategory.get</title>
<!-- Node1 -->
<g id="node1" class="node">
<title>Node1</title>
<g id="a_node1"><a xlink:title="Get generic Parameter with the given key.">
<polygon fill="#bfbfbf" stroke="black" points="983,-156.5 983,-186.5 1130,-186.5 1130,-156.5 983,-156.5"/>
<text text-anchor="start" x="991" y="-174.5" font-family="Helvetica,sans-Serif" font-size="10.00">fspm.config.params.Param</text>
<text text-anchor="middle" x="1056.5" y="-163.5" font-family="Helvetica,sans-Serif" font-size="10.00">Category.get</text>
</a>
</g>
</g>
<!-- Node2 -->
<g id="node2" class="node">
<title>Node2</title>
<g id="a_node2"><a xlink:href="classfspm_1_1config_1_1Config_abce61aaf26cf14b4ae2204ff22c27b57.html#abce61aaf26cf14b4ae2204ff22c27b57" target="_top" xlink:title=" ">
<polygon fill="none" stroke="black" points="610,-156.5 610,-186.5 749,-186.5 749,-156.5 610,-156.5"/>
<text text-anchor="start" x="618" y="-174.5" font-family="Helvetica,sans-Serif" font-size="10.00">fspm.config.Config.check</text>
<text text-anchor="middle" x="679.5" y="-163.5" font-family="Helvetica,sans-Serif" font-size="10.00">ContextsExists</text>
</a>
</g>
</g>
<!-- Node1&#45;&gt;Node2 -->
<g id="edge1" class="edge">
<title>Node1&#45;&gt;Node2</title>
<path fill="none" stroke="midnightblue" d="M972.69,-174.03C964.02,-174.22 955.33,-174.38 947,-174.5 875.01,-175.5 856.99,-175.53 785,-174.5 773.39,-174.33 761.05,-174.06 749.07,-173.75"/>
<polygon fill="midnightblue" stroke="midnightblue" points="972.93,-177.52 982.84,-173.79 972.76,-170.52 972.93,-177.52"/>
</g>
<!-- Node24 -->
<g id="node24" class="node">
<title>Node24</title>
<g id="a_node24"><a xlink:href="classfspm_1_1config_1_1params_1_1ParamGroup_a4ac641bb901b13ad2186c3d4fe0a75c9.html#a4ac641bb901b13ad2186c3d4fe0a75c9" target="_top" xlink:title=" ">
<polygon fill="none" stroke="black" points="785,-134.5 785,-164.5 947,-164.5 947,-134.5 785,-134.5"/>
<text text-anchor="start" x="793" y="-152.5" font-family="Helvetica,sans-Serif" font-size="10.00">fspm.config.params.Param</text>
<text text-anchor="middle" x="866" y="-141.5" font-family="Helvetica,sans-Serif" font-size="10.00">Group.getCategoryWithParam</text>
</a>
</g>
</g>
<!-- Node1&#45;&gt;Node24 -->
<g id="edge29" class="edge">
<title>Node1&#45;&gt;Node24</title>
<path fill="none" stroke="midnightblue" d="M972.91,-161.86C964.34,-160.86 955.64,-159.84 947.1,-158.85"/>
<polygon fill="midnightblue" stroke="midnightblue" points="972.55,-165.34 982.89,-163.03 973.36,-158.39 972.55,-165.34"/>
</g>
<!-- Node3 -->
<g id="node3" class="node">
<title>Node3</title>
<g id="a_node3"><a xlink:href="classfspm_1_1config_1_1Config_ae827f35da2e09b1d18f5a82538db57bc.html#ae827f35da2e09b1d18f5a82538db57bc" target="_top" xlink:title=" ">
<polygon fill="none" stroke="black" points="408,-440 408,-459 574,-459 574,-440 408,-440"/>
<text text-anchor="middle" x="491" y="-447" font-family="Helvetica,sans-Serif" font-size="10.00">fspm.config.Config.getBoolean</text>
</a>
</g>
</g>
<!-- Node2&#45;&gt;Node3 -->
<g id="edge2" class="edge">
<title>Node2&#45;&gt;Node3</title>
<path fill="none" stroke="midnightblue" d="M672.42,-196.47C660.35,-241.74 629.59,-338.4 574,-400.5 557.96,-418.42 533.78,-431.76 515.83,-439.96"/>
<polygon fill="midnightblue" stroke="midnightblue" points="675.86,-197.18 674.97,-186.62 669.08,-195.42 675.86,-197.18"/>
</g>
<!-- Node8 -->
<g id="node8" class="node">
<title>Node8</title>
<g id="a_node8"><a xlink:href="classfspm_1_1config_1_1Config_ae462a8b94814530c25f796f0b4f48115.html#ae462a8b94814530c25f796f0b4f48115" target="_top" xlink:title=" ">
<polygon fill="none" stroke="black" points="410.5,-241 410.5,-260 571.5,-260 571.5,-241 410.5,-241"/>
<text text-anchor="middle" x="491" y="-248" font-family="Helvetica,sans-Serif" font-size="10.00">fspm.config.Config.getDouble</text>
</a>
</g>
</g>
<!-- Node2&#45;&gt;Node8 -->
<g id="edge7" class="edge">
<title>Node2&#45;&gt;Node8</title>
<path fill="none" stroke="midnightblue" d="M633.75,-190.45C596.13,-206.39 543.91,-228.51 514.49,-240.97"/>
<polygon fill="midnightblue" stroke="midnightblue" points="635.14,-193.67 642.98,-186.55 632.41,-187.22 635.14,-193.67"/>
</g>
<!-- Node15 -->
<g id="node15" class="node">
<title>Node15</title>
<g id="a_node15"><a xlink:href="classfspm_1_1config_1_1Config_afa630b4bdff20121abd94ef706423f27.html#afa630b4bdff20121abd94ef706423f27" target="_top" xlink:title=" ">
<polygon fill="none" stroke="black" points="410.5,-71.5 410.5,-101.5 571.5,-101.5 571.5,-71.5 410.5,-71.5"/>
<text text-anchor="start" x="418.5" y="-89.5" font-family="Helvetica,sans-Serif" font-size="10.00">fspm.config.Config.getDouble</text>
<text text-anchor="middle" x="491" y="-78.5" font-family="Helvetica,sans-Serif" font-size="10.00">Array</text>
</a>
</g>
</g>
<!-- Node2&#45;&gt;Node15 -->
<g id="edge15" class="edge">
<title>Node2&#45;&gt;Node15</title>
<path fill="none" stroke="midnightblue" d="M644.98,-151.31C624.83,-139.67 598.44,-125.25 574,-114.5 563.4,-109.84 551.75,-105.45 540.65,-101.59"/>
<polygon fill="midnightblue" stroke="midnightblue" points="643.37,-154.42 653.77,-156.45 646.9,-148.38 643.37,-154.42"/>
</g>
<!-- Node18 -->
<g id="node18" class="node">
<title>Node18</title>
<g id="a_node18"><a xlink:href="classfspm_1_1config_1_1Config_a5e0b8f5ad9a3ead9ec4c4ab031918b94.html#a5e0b8f5ad9a3ead9ec4c4ab031918b94" target="_top" xlink:title=" ">
<polygon fill="none" stroke="black" points="410.5,-124 410.5,-143 571.5,-143 571.5,-124 410.5,-124"/>
<text text-anchor="middle" x="491" y="-131" font-family="Helvetica,sans-Serif" font-size="10.00">fspm.config.Config.getInteger</text>
</a>
</g>
</g>
<!-- Node2&#45;&gt;Node18 -->
<g id="edge18" class="edge">
<title>Node2&#45;&gt;Node18</title>
<path fill="none" stroke="midnightblue" d="M600.03,-155.51C579.15,-151.26 557.27,-146.8 538.7,-143.01"/>
<polygon fill="midnightblue" stroke="midnightblue" points="599.35,-158.95 609.85,-157.51 600.75,-152.09 599.35,-158.95"/>
</g>
<!-- Node20 -->
<g id="node20" class="node">
<title>Node20</title>
<g id="a_node20"><a xlink:href="classfspm_1_1config_1_1Config_a3be13c8aecc91ab1cd95692ec65df305.html#a3be13c8aecc91ab1cd95692ec65df305" target="_top" xlink:title=" ">
<polygon fill="none" stroke="black" points="413.5,-372 413.5,-391 568.5,-391 568.5,-372 413.5,-372"/>
<text text-anchor="middle" x="491" y="-379" font-family="Helvetica,sans-Serif" font-size="10.00">fspm.config.Config.getString</text>
</a>
</g>
</g>
<!-- Node2&#45;&gt;Node20 -->
<g id="edge21" class="edge">
<title>Node2&#45;&gt;Node20</title>
<path fill="none" stroke="midnightblue" d="M658.38,-194.15C618.08,-239.54 528.9,-339.95 500.71,-371.69"/>
<polygon fill="midnightblue" stroke="midnightblue" points="661.06,-196.4 665.09,-186.6 655.83,-191.76 661.06,-196.4"/>
</g>
<!-- Node22 -->
<g id="node22" class="node">
<title>Node22</title>
<g id="a_node22"><a xlink:href="classfspm_1_1config_1_1Config_a23eaad13093f0089ec76d726607956b5.html#a23eaad13093f0089ec76d726607956b5" target="_top" xlink:title=" ">
<polygon fill="none" stroke="black" points="422,-162 422,-181 560,-181 560,-162 422,-162"/>
<text text-anchor="middle" x="491" y="-169" font-family="Helvetica,sans-Serif" font-size="10.00">fspm.config.Config.isNull</text>
</a>
</g>
</g>
<!-- Node2&#45;&gt;Node22 -->
<g id="edge26" class="edge">
<title>Node2&#45;&gt;Node22</title>
<path fill="none" stroke="midnightblue" d="M599.47,-171.5C586.41,-171.5 572.96,-171.5 560.19,-171.5"/>
<polygon fill="midnightblue" stroke="midnightblue" points="599.85,-175 609.85,-171.5 599.85,-168 599.85,-175"/>
</g>
<!-- Node23 -->
<g id="node23" class="node">
<title>Node23</title>
<g id="a_node23"><a xlink:href="classfspm_1_1config_1_1Config_a76b9187eaa8f4b269601af74195b565f.html#a76b9187eaa8f4b269601af74195b565f" target="_top" xlink:title=" ">
<polygon fill="none" stroke="black" points="428.5,-33 428.5,-52 553.5,-52 553.5,-33 428.5,-33"/>
<text text-anchor="middle" x="491" y="-40" font-family="Helvetica,sans-Serif" font-size="10.00">fspm.config.Config.set</text>
</a>
</g>
</g>
<!-- Node2&#45;&gt;Node23 -->
<g id="edge28" class="edge">
<title>Node2&#45;&gt;Node23</title>
<path fill="none" stroke="midnightblue" d="M662.74,-148.09C644.43,-122.77 611.84,-83.14 574,-61.5 567.15,-57.58 559.54,-54.47 551.8,-52"/>
<polygon fill="midnightblue" stroke="midnightblue" points="659.98,-150.24 668.61,-156.39 665.7,-146.2 659.98,-150.24"/>
</g>
<!-- Node4 -->
<g id="node4" class="node">
<title>Node4</title>
<g id="a_node4"><a xlink:href="classfspm_1_1config_1_1ConfigTest_a586a428c43c00668f273133c28ddd635.html#a586a428c43c00668f273133c28ddd635" target="_top" xlink:title=" ">
<polygon fill="none" stroke="black" points="207.5,-459.5 207.5,-489.5 370.5,-489.5 370.5,-459.5 207.5,-459.5"/>
<text text-anchor="start" x="215.5" y="-477.5" font-family="Helvetica,sans-Serif" font-size="10.00">fspm.config.ConfigTest.access</text>
<text text-anchor="middle" x="289" y="-466.5" font-family="Helvetica,sans-Serif" font-size="10.00">Examples</text>
</a>
</g>
</g>
<!-- Node3&#45;&gt;Node4 -->
<g id="edge3" class="edge">
<title>Node3&#45;&gt;Node4</title>
<path fill="none" stroke="midnightblue" d="M403.79,-460.28C392.78,-461.65 381.54,-463.06 370.63,-464.42"/>
<polygon fill="midnightblue" stroke="midnightblue" points="404.33,-463.74 413.82,-459.02 403.46,-456.79 404.33,-463.74"/>
</g>
<!-- Node5 -->
<g id="node5" class="node">
<title>Node5</title>
<g id="a_node5"><a xlink:href="classfspm_1_1config_1_1Config_a7ea65e4b8e2ba486cc4dca0c4e1eb234.html#a7ea65e4b8e2ba486cc4dca0c4e1eb234" target="_top" xlink:title=" ">
<polygon fill="none" stroke="black" points="206,-509 206,-528 372,-528 372,-509 206,-509"/>
<text text-anchor="middle" x="289" y="-516" font-family="Helvetica,sans-Serif" font-size="10.00">fspm.config.Config.getBoolean</text>
</a>
</g>
</g>
<!-- Node3&#45;&gt;Node5 -->
<g id="edge4" class="edge">
<title>Node3&#45;&gt;Node5</title>
<path fill="none" stroke="midnightblue" d="M461.27,-463.33C437.7,-474.27 403.24,-489.35 372,-499.5 361.02,-503.07 349.01,-506.24 337.65,-508.93"/>
<polygon fill="midnightblue" stroke="midnightblue" points="462.79,-466.48 470.36,-459.07 459.82,-460.15 462.79,-466.48"/>
</g>
<!-- Node6 -->
<g id="node6" class="node">
<title>Node6</title>
<g id="a_node6"><a xlink:href="classfspm_1_1config_1_1ConfigTest_a09a38b5eee655b088e4e144df5ad5a85.html#a09a38b5eee655b088e4e144df5ad5a85" target="_top" xlink:title=" ">
<polygon fill="none" stroke="black" points="214.5,-410.5 214.5,-440.5 363.5,-440.5 363.5,-410.5 214.5,-410.5"/>
<text text-anchor="start" x="222.5" y="-428.5" font-family="Helvetica,sans-Serif" font-size="10.00">fspm.config.ConfigTest.test</text>
<text text-anchor="middle" x="289" y="-417.5" font-family="Helvetica,sans-Serif" font-size="10.00">_flatCategories</text>
</a>
</g>
</g>
<!-- Node3&#45;&gt;Node6 -->
<g id="edge5" class="edge">
<title>Node3&#45;&gt;Node6</title>
<path fill="none" stroke="midnightblue" d="M400.42,-438.75C388.15,-437.28 375.66,-435.78 363.71,-434.34"/>
<polygon fill="midnightblue" stroke="midnightblue" points="400.32,-442.26 410.67,-439.98 401.16,-435.31 400.32,-442.26"/>
</g>
<!-- Node7 -->
<g id="node7" class="node">
<title>Node7</title>
<g id="a_node7"><a xlink:href="classfspm_1_1config_1_1ConfigTest_aacca92fc43946c5a3d4613a1085d59f9.html#aacca92fc43946c5a3d4613a1085d59f9" target="_top" xlink:title=" ">
<polygon fill="none" stroke="black" points="0,-416 0,-435 170,-435 170,-416 0,-416"/>
<text text-anchor="middle" x="85" y="-423" font-family="Helvetica,sans-Serif" font-size="10.00">fspm.config.ConfigTest.runMain</text>
</a>
</g>
</g>
<!-- Node6&#45;&gt;Node7 -->
<g id="edge6" class="edge">
<title>Node6&#45;&gt;Node7</title>
<path fill="none" stroke="midnightblue" d="M204.04,-425.5C192.85,-425.5 181.38,-425.5 170.18,-425.5"/>
<polygon fill="midnightblue" stroke="midnightblue" points="204.22,-429 214.22,-425.5 204.22,-422 204.22,-429"/>
</g>
<!-- Node8&#45;&gt;Node6 -->
<g id="edge10" class="edge">
<title>Node8&#45;&gt;Node6</title>
<path fill="none" stroke="midnightblue" d="M476.74,-268.57C448.85,-306.4 385.55,-391.23 372,-400.5 366.35,-404.37 360.08,-407.65 353.6,-410.44"/>
<polygon fill="midnightblue" stroke="midnightblue" points="479.91,-270.17 483.02,-260.04 474.27,-266.02 479.91,-270.17"/>
</g>
<!-- Node9 -->
<g id="node9" class="node">
<title>Node9</title>
<g id="a_node9"><a xlink:href="classfspm_1_1config_1_1Config_a75f0ff59af54ebe3b864a01dc59b1663.html#a75f0ff59af54ebe3b864a01dc59b1663" target="_top" xlink:title=" ">
<polygon fill="none" stroke="black" points="208.5,-334 208.5,-353 369.5,-353 369.5,-334 208.5,-334"/>
<text text-anchor="middle" x="289" y="-341" font-family="Helvetica,sans-Serif" font-size="10.00">fspm.config.Config.getDouble</text>
</a>
</g>
</g>
<!-- Node8&#45;&gt;Node9 -->
<g id="edge8" class="edge">
<title>Node8&#45;&gt;Node9</title>
<path fill="none" stroke="midnightblue" d="M469.51,-266.34C446.84,-283.13 408.67,-309.26 372,-324.5 362.82,-328.31 352.74,-331.44 342.87,-333.98"/>
<polygon fill="midnightblue" stroke="midnightblue" points="471.79,-269.01 477.67,-260.2 467.58,-263.41 471.79,-269.01"/>
</g>
<!-- Node10 -->
<g id="node10" class="node">
<title>Node10</title>
<g id="a_node10"><a xlink:href="classfspm_1_1config_1_1ConfigTest_ab639b7af67e947577db2ab2c9bc95a87.html#ab639b7af67e947577db2ab2c9bc95a87" target="_top" xlink:title=" ">
<polygon fill="none" stroke="black" points="214.5,-284.5 214.5,-314.5 363.5,-314.5 363.5,-284.5 214.5,-284.5"/>
<text text-anchor="start" x="222.5" y="-302.5" font-family="Helvetica,sans-Serif" font-size="10.00">fspm.config.ConfigTest.test</text>
<text text-anchor="middle" x="289" y="-291.5" font-family="Helvetica,sans-Serif" font-size="10.00">_default</text>
</a>
</g>
</g>
<!-- Node8&#45;&gt;Node10 -->
<g id="edge9" class="edge">
<title>Node8&#45;&gt;Node10</title>
<path fill="none" stroke="midnightblue" d="M440.96,-262.51C413.94,-269.14 380.14,-277.42 351.38,-284.46"/>
<polygon fill="midnightblue" stroke="midnightblue" points="442.08,-265.84 450.96,-260.06 440.42,-259.04 442.08,-265.84"/>
</g>
<!-- Node11 -->
<g id="node11" class="node">
<title>Node11</title>
<g id="a_node11"><a xlink:href="classfspm_1_1config_1_1ConfigTest_a0ff566e57202c3f9bf2125d70d9c6b41.html#a0ff566e57202c3f9bf2125d70d9c6b41" target="_top" xlink:title=" ">
<polygon fill="none" stroke="black" points="214.5,-235.5 214.5,-265.5 363.5,-265.5 363.5,-235.5 214.5,-235.5"/>
<text text-anchor="start" x="222.5" y="-253.5" font-family="Helvetica,sans-Serif" font-size="10.00">fspm.config.ConfigTest.test</text>
<text text-anchor="middle" x="289" y="-242.5" font-family="Helvetica,sans-Serif" font-size="10.00">_getFloatAsDouble</text>
</a>
</g>
</g>
<!-- Node8&#45;&gt;Node11 -->
<g id="edge11" class="edge">
<title>Node8&#45;&gt;Node11</title>
<path fill="none" stroke="midnightblue" d="M400.15,-250.5C387.89,-250.5 375.43,-250.5 363.5,-250.5"/>
<polygon fill="midnightblue" stroke="midnightblue" points="400.38,-254 410.38,-250.5 400.38,-247 400.38,-254"/>
</g>
<!-- Node12 -->
<g id="node12" class="node">
<title>Node12</title>
<g id="a_node12"><a xlink:href="classfspm_1_1config_1_1ConfigTest_a08a6bb001d92ffa4a466c0b0b816a878.html#a08a6bb001d92ffa4a466c0b0b816a878" target="_top" xlink:title=" ">
<polygon fill="none" stroke="black" points="214.5,-186.5 214.5,-216.5 363.5,-216.5 363.5,-186.5 214.5,-186.5"/>
<text text-anchor="start" x="222.5" y="-204.5" font-family="Helvetica,sans-Serif" font-size="10.00">fspm.config.ConfigTest.test</text>
<text text-anchor="middle" x="289" y="-193.5" font-family="Helvetica,sans-Serif" font-size="10.00">_getIntAsDouble</text>
</a>
</g>
</g>
<!-- Node8&#45;&gt;Node12 -->
<g id="edge12" class="edge">
<title>Node8&#45;&gt;Node12</title>
<path fill="none" stroke="midnightblue" d="M440.96,-238.49C413.94,-231.86 380.14,-223.58 351.38,-216.54"/>
<polygon fill="midnightblue" stroke="midnightblue" points="440.42,-241.96 450.96,-240.94 442.08,-235.16 440.42,-241.96"/>
</g>
<!-- Node13 -->
<g id="node13" class="node">
<title>Node13</title>
<g id="a_node13"><a xlink:href="classfspm_1_1config_1_1ConfigTest_aa9e41d045f61b82c742edbd88424aff3.html#aa9e41d045f61b82c742edbd88424aff3" target="_top" xlink:title=" ">
<polygon fill="none" stroke="black" points="214.5,-137.5 214.5,-167.5 363.5,-167.5 363.5,-137.5 214.5,-137.5"/>
<text text-anchor="start" x="222.5" y="-155.5" font-family="Helvetica,sans-Serif" font-size="10.00">fspm.config.ConfigTest.test</text>
<text text-anchor="middle" x="289" y="-144.5" font-family="Helvetica,sans-Serif" font-size="10.00">_getNullAsTypes</text>
</a>
</g>
</g>
<!-- Node8&#45;&gt;Node13 -->
<g id="edge13" class="edge">
<title>Node8&#45;&gt;Node13</title>
<path fill="none" stroke="midnightblue" d="M468.52,-234.84C445.57,-218.68 407.65,-193.63 372,-177.5 363.86,-173.82 355.04,-170.49 346.29,-167.55"/>
<polygon fill="midnightblue" stroke="midnightblue" points="466.66,-237.81 476.83,-240.76 470.72,-232.11 466.66,-237.81"/>
</g>
<!-- Node14 -->
<g id="node14" class="node">
<title>Node14</title>
<g id="a_node14"><a xlink:href="classfspm_1_1config_1_1ConfigTest_a0ace3587e0462f748617e279d4d0c659.html#a0ace3587e0462f748617e279d4d0c659" target="_top" xlink:title=" ">
<polygon fill="none" stroke="black" points="10.5,-137.5 10.5,-167.5 159.5,-167.5 159.5,-137.5 10.5,-137.5"/>
<text text-anchor="start" x="18.5" y="-155.5" font-family="Helvetica,sans-Serif" font-size="10.00">fspm.config.ConfigTest.test</text>
<text text-anchor="middle" x="85" y="-144.5" font-family="Helvetica,sans-Serif" font-size="10.00">_types</text>
</a>
</g>
</g>
<!-- Node13&#45;&gt;Node14 -->
<g id="edge14" class="edge">
<title>Node13&#45;&gt;Node14</title>
<path fill="none" stroke="midnightblue" d="M204.09,-152.5C189.32,-152.5 174.04,-152.5 159.58,-152.5"/>
<polygon fill="midnightblue" stroke="midnightblue" points="204.22,-156 214.22,-152.5 204.22,-149 204.22,-156"/>
</g>
<!-- Node16 -->
<g id="node16" class="node">
<title>Node16</title>
<g id="a_node16"><a xlink:href="classfspm_1_1config_1_1Config_ab63abbac8c043b0cd64927d084bd4c49.html#ab63abbac8c043b0cd64927d084bd4c49" target="_top" xlink:title=" ">
<polygon fill="none" stroke="black" points="208.5,-49.5 208.5,-79.5 369.5,-79.5 369.5,-49.5 208.5,-49.5"/>
<text text-anchor="start" x="216.5" y="-67.5" font-family="Helvetica,sans-Serif" font-size="10.00">fspm.config.Config.getDouble</text>
<text text-anchor="middle" x="289" y="-56.5" font-family="Helvetica,sans-Serif" font-size="10.00">Array</text>
</a>
</g>
</g>
<!-- Node15&#45;&gt;Node16 -->
<g id="edge16" class="edge">
<title>Node15&#45;&gt;Node16</title>
<path fill="none" stroke="midnightblue" d="M400.25,-76.63C390.06,-75.51 379.72,-74.37 369.67,-73.26"/>
<polygon fill="midnightblue" stroke="midnightblue" points="400.06,-80.13 410.38,-77.74 400.82,-73.17 400.06,-80.13"/>
</g>
<!-- Node17 -->
<g id="node17" class="node">
<title>Node17</title>
<g id="a_node17"><a xlink:href="classfspm_1_1config_1_1ConfigTest_a06c9116c21e1df253ca6b4056a187bad.html#a06c9116c21e1df253ca6b4056a187bad" target="_top" xlink:title=" ">
<polygon fill="none" stroke="black" points="214.5,-0.5 214.5,-30.5 363.5,-30.5 363.5,-0.5 214.5,-0.5"/>
<text text-anchor="start" x="222.5" y="-18.5" font-family="Helvetica,sans-Serif" font-size="10.00">fspm.config.ConfigTest.test</text>
<text text-anchor="middle" x="289" y="-7.5" font-family="Helvetica,sans-Serif" font-size="10.00">_phenology</text>
</a>
</g>
</g>
<!-- Node15&#45;&gt;Node17 -->
<g id="edge17" class="edge">
<title>Node15&#45;&gt;Node17</title>
<path fill="none" stroke="midnightblue" d="M423.89,-67.95C418.45,-65.94 413.09,-63.79 408,-61.5 390.9,-53.82 389.15,-47.09 372,-39.5 364.54,-36.2 356.5,-33.21 348.47,-30.55"/>
<polygon fill="midnightblue" stroke="midnightblue" points="423.13,-71.39 433.73,-71.41 425.45,-64.79 423.13,-71.39"/>
</g>
<!-- Node18&#45;&gt;Node13 -->
<g id="edge20" class="edge">
<title>Node18&#45;&gt;Node13</title>
<path fill="none" stroke="midnightblue" d="M400.15,-142.04C387.89,-143.2 375.43,-144.38 363.5,-145.52"/>
<polygon fill="midnightblue" stroke="midnightblue" points="400.76,-145.49 410.38,-141.06 400.09,-138.53 400.76,-145.49"/>
</g>
<!-- Node19 -->
<g id="node19" class="node">
<title>Node19</title>
<g id="a_node19"><a xlink:href="classfspm_1_1config_1_1Config_ab43ca088e354eed9af2d74c813e08ff8.html#ab43ca088e354eed9af2d74c813e08ff8" target="_top" xlink:title=" ">
<polygon fill="none" stroke="black" points="208.5,-99 208.5,-118 369.5,-118 369.5,-99 208.5,-99"/>
<text text-anchor="middle" x="289" y="-106" font-family="Helvetica,sans-Serif" font-size="10.00">fspm.config.Config.getInteger</text>
</a>
</g>
</g>
<!-- Node18&#45;&gt;Node19 -->
<g id="edge19" class="edge">
<title>Node18&#45;&gt;Node19</title>
<path fill="none" stroke="midnightblue" d="M403.87,-122.73C391.38,-121.17 378.59,-119.57 366.3,-118.04"/>
<polygon fill="midnightblue" stroke="midnightblue" points="403.46,-126.21 413.82,-123.98 404.33,-119.26 403.46,-126.21"/>
</g>
<!-- Node20&#45;&gt;Node4 -->
<g id="edge22" class="edge">
<title>Node20&#45;&gt;Node4</title>
<path fill="none" stroke="midnightblue" d="M465.26,-396.4C433.57,-415.42 381.57,-446.38 372,-450.5 364.37,-453.79 356.16,-456.79 347.98,-459.46"/>
<polygon fill="midnightblue" stroke="midnightblue" points="467.22,-399.31 473.99,-391.16 463.61,-393.31 467.22,-399.31"/>
</g>
<!-- Node20&#45;&gt;Node6 -->
<g id="edge24" class="edge">
<title>Node20&#45;&gt;Node6</title>
<path fill="none" stroke="midnightblue" d="M436.63,-393.24C412.63,-398.52 384.03,-404.81 358.48,-410.43"/>
<polygon fill="midnightblue" stroke="midnightblue" points="437.59,-396.61 446.6,-391.05 436.08,-389.78 437.59,-396.61"/>
</g>
<!-- Node20&#45;&gt;Node13 -->
<g id="edge25" class="edge">
<title>Node20&#45;&gt;Node13</title>
<path fill="none" stroke="midnightblue" d="M475.02,-364.09C457.29,-342.85 427.69,-305.33 408,-269.5 386.85,-231.02 404.22,-207.33 372,-177.5 367.85,-173.66 363.12,-170.41 358.09,-167.65"/>
<polygon fill="midnightblue" stroke="midnightblue" points="472.49,-366.52 481.62,-371.9 477.83,-362 472.49,-366.52"/>
</g>
<!-- Node21 -->
<g id="node21" class="node">
<title>Node21</title>
<g id="a_node21"><a xlink:href="classfspm_1_1config_1_1Config_af23cb05ac69ea93fa48ed533f677ff1d.html#af23cb05ac69ea93fa48ed533f677ff1d" target="_top" xlink:title=" ">
<polygon fill="none" stroke="black" points="211.5,-372 211.5,-391 366.5,-391 366.5,-372 211.5,-372"/>
<text text-anchor="middle" x="289" y="-379" font-family="Helvetica,sans-Serif" font-size="10.00">fspm.config.Config.getString</text>
</a>
</g>
</g>
<!-- Node20&#45;&gt;Node21 -->
<g id="edge23" class="edge">
<title>Node20&#45;&gt;Node21</title>
<path fill="none" stroke="midnightblue" d="M403.1,-381.5C390.94,-381.5 378.5,-381.5 366.55,-381.5"/>
<polygon fill="midnightblue" stroke="midnightblue" points="403.25,-385 413.25,-381.5 403.25,-378 403.25,-385"/>
</g>
<!-- Node22&#45;&gt;Node13 -->
<g id="edge27" class="edge">
<title>Node22&#45;&gt;Node13</title>
<path fill="none" stroke="midnightblue" d="M411.52,-164.04C395.8,-162.55 379.33,-160.99 363.78,-159.51"/>
<polygon fill="midnightblue" stroke="midnightblue" points="411.44,-167.55 421.73,-165.01 412.11,-160.58 411.44,-167.55"/>
</g>
<!-- Node24&#45;&gt;Node2 -->
<g id="edge30" class="edge">
<title>Node24&#45;&gt;Node2</title>
<path fill="none" stroke="midnightblue" d="M774.82,-160.25C766.23,-161.28 757.62,-162.3 749.27,-163.3"/>
<polygon fill="midnightblue" stroke="midnightblue" points="775.37,-163.71 784.88,-159.05 774.54,-156.76 775.37,-163.71"/>
</g>
</g>
</svg>
        <g id="navigator" transform="translate(0 0)" fill="#404254">
                <rect fill="#f2f5e9" fill-opacity="0.5" stroke="#606060" stroke-width=".5" x="0" y="0" width="60" height="60"/>
                <use id="zoomplus" xlink:href="#zoomPlus" x="17" y="9" onmousedown="handleZoom(evt,'in')"/>
                <use id="zoomminus" xlink:href="#zoomMin" x="42" y="9" onmousedown="handleZoom(evt,'out')"/>
                <use id="reset" xlink:href="#resetDef" x="30" y="36" onmousedown="handleReset()"/>
                <g id="arrowUp" xlink:href="#dirArrow" transform="translate(30 24)" onmousedown="handlePan(0,-1)">
                  <use xlink:href="#rim" fill="#404040">
                        <set attributeName="fill" to="#808080" begin="arrowUp.mouseover" end="arrowUp.mouseout"/>
                  </use>
                  <path fill="none" stroke="white" stroke-width="1.5" d="M0,-3.0v7 M-2.5,-0.5L0,-3.0L2.5,-0.5"/>
                </g>
                <g id="arrowRight" xlink:href="#dirArrow" transform="rotate(90) translate(36 -43)" onmousedown="handlePan(1,0)">
                  <use xlink:href="#rim" fill="#404040">
                        <set attributeName="fill" to="#808080" begin="arrowRight.mouseover" end="arrowRight.mouseout"/>
                  </use>
                  <path fill="none" stroke="white" stroke-width="1.5" d="M0,-3.0v7 M-2.5,-0.5L0,-3.0L2.5,-0.5"/>
                </g>
                <g id="arrowDown" xlink:href="#dirArrow" transform="rotate(180) translate(-30 -48)" onmousedown="handlePan(0,1)">
                  <use xlink:href="#rim" fill="#404040">
                        <set attributeName="fill" to="#808080" begin="arrowDown.mouseover" end="arrowDown.mouseout"/>
                  </use>
                  <path fill="none" stroke="white" stroke-width="1.5" d="M0,-3.0v7 M-2.5,-0.5L0,-3.0L2.5,-0.5"/>
                </g>
                <g id="arrowLeft" xlink:href="#dirArrow" transform="rotate(270) translate(-36 17)" onmousedown="handlePan(-1,0)">
                  <use xlink:href="#rim" fill="#404040">
                        <set attributeName="fill" to="#808080" begin="arrowLeft.mouseover" end="arrowLeft.mouseout"/>
                  </use>
                  <path fill="none" stroke="white" stroke-width="1.5" d="M0,-3.0v7 M-2.5,-0.5L0,-3.0L2.5,-0.5"/>
                </g>
        </g>
        <svg viewBox="0 0 15 15" width="100%" height="30px" preserveAspectRatio="xMaxYMin meet">
         <g id="arrow_out" transform="scale(0.3 0.3)">
          <a xlink:href="classfspm_1_1config_1_1params_1_1ParamCategory_a4e9b4d10f0f293ae181dd272d302d9b4_a4e9b4d10f0f293ae181dd272d302d9b4_icgraph_org.svg" target="_base">
           <rect id="button" ry="5" rx="5" y="6" x="6" height="38" width="38"
                fill="#f2f5e9" fill-opacity="0.5" stroke="#606060" stroke-width="1.0"/>
           <path id="arrow"
             d="M 11.500037,31.436501 C 11.940474,20.09759 22.043105,11.32322 32.158766,21.979434 L 37.068811,17.246167 C 37.068811,17.246167 37.088388,32 37.088388,32 L 22.160133,31.978069 C 22.160133,31.978069 26.997745,27.140456 26.997745,27.140456 C 18.528582,18.264221 13.291696,25.230495 11.500037,31.436501 z"
             style="fill:#404040;"/>
          </a>
         </g>
        </svg>
</svg>
