<?xml version="1.0" encoding="UTF-8" standalone="no"?>
<!DOCTYPE svg PUBLIC "-//W3C//DTD SVG 1.1//EN"
 "http://www.w3.org/Graphics/SVG/1.1/DTD/svg11.dtd">
<!-- Generated by graphviz version 2.43.0 (0)
 -->
<!-- Title: fspm.config.params.ParamTable.getParameter Pages: 1 -->
<!--zoomable 284 -->
<svg id="main" version="1.1" xmlns="http://www.w3.org/2000/svg" xmlns:xlink="http://www.w3.org/1999/xlink" xml:space="preserve" onload="init(evt)">
<style type="text/css"><![CDATA[
.edge:hover path { stroke: red; }
.edge:hover polygon { stroke: red; fill: red; }
]]></style>
<script type="text/javascript"><![CDATA[
var edges = document.getElementsByTagName('g');
if (edges && edges.length) {
  for (var i=0;i<edges.length;i++) {
    if (edges[i].id.substr(0,4)=='edge') {
      edges[i].setAttribute('class','edge');
    }
  }
}
]]></script>
        <defs>
                <circle id="rim" cx="0" cy="0" r="7"/>
                <circle id="rim2" cx="0" cy="0" r="3.5"/>
                <g id="zoomPlus">
                        <use xlink:href="#rim" fill="#404040">
                                <set attributeName="fill" to="#808080" begin="zoomplus.mouseover" end="zoomplus.mouseout"/>
                        </use>
                        <path d="M-4,0h8M0,-4v8" fill="none" stroke="white" stroke-width="1.5" pointer-events="none"/>
                </g>
                <g id="zoomMin">
                        <use xlink:href="#rim" fill="#404040">
                                <set attributeName="fill" to="#808080" begin="zoomminus.mouseover" end="zoomminus.mouseout"/>
                        </use>
                        <path d="M-4,0h8" fill="none" stroke="white" stroke-width="1.5" pointer-events="none"/>
                </g>
                <g id="dirArrow">
                        <path fill="none" stroke="white" stroke-width="1.5" d="M0,-3.0v7 M-2.5,-0.5L0,-3.0L2.5,-0.5"/>
                </g>
               <g id="resetDef">
                       <use xlink:href="#rim2" fill="#404040">
                               <set attributeName="fill" to="#808080" begin="reset.mouseover" end="reset.mouseout"/>
                       </use>
               </g>
        </defs>

<script type="text/javascript">
var viewWidth = 526;
var viewHeight = 284;
var sectionId = 'dynsection-0';
</script>
<script xlink:href="svgpan.js"/>
<svg id="graph" class="graph">
<g id="viewport">
<title>fspm.config.params.ParamTable.getParameter</title>
<!-- Node1 -->
<g id="node1" class="node">
<title>Node1</title>
<g id="a_node1"><a xlink:title=" ">
<polygon fill="#bfbfbf" stroke="black" points="371,-122.5 371,-152.5 518,-152.5 518,-122.5 371,-122.5"/>
<text text-anchor="start" x="379" y="-140.5" font-family="Helvetica,sans-Serif" font-size="10.00">fspm.config.params.Param</text>
<text text-anchor="middle" x="444.5" y="-129.5" font-family="Helvetica,sans-Serif" font-size="10.00">Table.getParameter</text>
</a>
</g>
</g>
<!-- Node2 -->
<g id="node2" class="node">
<title>Node2</title>
<g id="a_node2"><a xlink:href="classfspm_1_1config_1_1params_1_1ParamTable_a941e459792096daaec6f6525f4e130df.html#a941e459792096daaec6f6525f4e130df" target="_top" xlink:title=" ">
<polygon fill="none" stroke="black" points="188,-245.5 188,-275.5 335,-275.5 335,-245.5 188,-245.5"/>
<text text-anchor="start" x="196" y="-263.5" font-family="Helvetica,sans-Serif" font-size="10.00">fspm.config.params.Param</text>
<text text-anchor="middle" x="261.5" y="-252.5" font-family="Helvetica,sans-Serif" font-size="10.00">Table.getArray</text>
</a>
</g>
</g>
<!-- Node1&#45;&gt;Node2 -->
<g id="edge1" class="edge">
<title>Node1&#45;&gt;Node2</title>
<path fill="none" stroke="midnightblue" d="M423.8,-160.37C403.55,-182.61 370.08,-215.96 335,-236.5 329.28,-239.85 323.03,-242.81 316.67,-245.4"/>
<polygon fill="midnightblue" stroke="midnightblue" points="426.59,-162.51 430.65,-152.72 421.37,-157.84 426.59,-162.51"/>
</g>
<!-- Node3 -->
<g id="node3" class="node">
<title>Node3</title>
<g id="a_node3"><a xlink:href="classfspm_1_1config_1_1params_1_1ParamTable_a6c7f5fd02b6afd26ffa508198a382f06.html#a6c7f5fd02b6afd26ffa508198a382f06" target="_top" xlink:title=" ">
<polygon fill="none" stroke="black" points="188,-196.5 188,-226.5 335,-226.5 335,-196.5 188,-196.5"/>
<text text-anchor="start" x="196" y="-214.5" font-family="Helvetica,sans-Serif" font-size="10.00">fspm.config.params.Param</text>
<text text-anchor="middle" x="261.5" y="-203.5" font-family="Helvetica,sans-Serif" font-size="10.00">Table.getBoolean</text>
</a>
</g>
</g>
<!-- Node1&#45;&gt;Node3 -->
<g id="edge2" class="edge">
<title>Node1&#45;&gt;Node3</title>
<path fill="none" stroke="midnightblue" d="M403.77,-157.11C383.44,-166.81 358.15,-178.37 335,-187.5 327.23,-190.57 318.89,-193.58 310.74,-196.37"/>
<polygon fill="midnightblue" stroke="midnightblue" points="405.54,-160.14 413.03,-152.66 402.5,-153.84 405.54,-160.14"/>
</g>
<!-- Node4 -->
<g id="node4" class="node">
<title>Node4</title>
<g id="a_node4"><a xlink:href="classfspm_1_1config_1_1params_1_1ParamTable_a36883c5705a953d8309e9d26fcdf7275.html#a36883c5705a953d8309e9d26fcdf7275" target="_top" xlink:title=" ">
<polygon fill="none" stroke="black" points="188,-147.5 188,-177.5 335,-177.5 335,-147.5 188,-147.5"/>
<text text-anchor="start" x="196" y="-165.5" font-family="Helvetica,sans-Serif" font-size="10.00">fspm.config.params.Param</text>
<text text-anchor="middle" x="261.5" y="-154.5" font-family="Helvetica,sans-Serif" font-size="10.00">Table.getDouble</text>
</a>
</g>
</g>
<!-- Node1&#45;&gt;Node4 -->
<g id="edge3" class="edge">
<title>Node1&#45;&gt;Node4</title>
<path fill="none" stroke="midnightblue" d="M360.88,-148.91C352.28,-150.1 343.58,-151.3 335.09,-152.47"/>
<polygon fill="midnightblue" stroke="midnightblue" points="361.5,-152.36 370.92,-147.52 360.54,-145.43 361.5,-152.36"/>
</g>
<!-- Node6 -->
<g id="node6" class="node">
<title>Node6</title>
<g id="a_node6"><a xlink:href="classfspm_1_1config_1_1params_1_1ParamTable_aa6854cca7478b055f97462947e8d2422.html#aa6854cca7478b055f97462947e8d2422" target="_top" xlink:title=" ">
<polygon fill="none" stroke="black" points="188,-98.5 188,-128.5 335,-128.5 335,-98.5 188,-98.5"/>
<text text-anchor="start" x="196" y="-116.5" font-family="Helvetica,sans-Serif" font-size="10.00">fspm.config.params.Param</text>
<text text-anchor="middle" x="261.5" y="-105.5" font-family="Helvetica,sans-Serif" font-size="10.00">Table.getInteger</text>
</a>
</g>
</g>
<!-- Node1&#45;&gt;Node6 -->
<g id="edge5" class="edge">
<title>Node1&#45;&gt;Node6</title>
<path fill="none" stroke="midnightblue" d="M360.88,-126.55C352.28,-125.4 343.58,-124.25 335.09,-123.13"/>
<polygon fill="midnightblue" stroke="midnightblue" points="360.55,-130.03 370.92,-127.88 361.47,-123.09 360.55,-130.03"/>
</g>
<!-- Node7 -->
<g id="node7" class="node">
<title>Node7</title>
<g id="a_node7"><a xlink:href="classfspm_1_1config_1_1params_1_1ParamTable_ade875bcbf685842c7abb9008f8352134.html#ade875bcbf685842c7abb9008f8352134" target="_top" xlink:title=" ">
<polygon fill="none" stroke="black" points="188,-49.5 188,-79.5 335,-79.5 335,-49.5 188,-49.5"/>
<text text-anchor="start" x="196" y="-67.5" font-family="Helvetica,sans-Serif" font-size="10.00">fspm.config.params.Param</text>
<text text-anchor="middle" x="261.5" y="-56.5" font-family="Helvetica,sans-Serif" font-size="10.00">Table.getString</text>
</a>
</g>
</g>
<!-- Node1&#45;&gt;Node7 -->
<g id="edge7" class="edge">
<title>Node1&#45;&gt;Node7</title>
<path fill="none" stroke="midnightblue" d="M402.32,-118.3C382.19,-109.17 357.51,-98.34 335,-89.5 326.33,-86.09 316.97,-82.68 307.96,-79.52"/>
<polygon fill="midnightblue" stroke="midnightblue" points="400.97,-121.53 411.52,-122.5 403.87,-115.16 400.97,-121.53"/>
</g>
<!-- Node8 -->
<g id="node8" class="node">
<title>Node8</title>
<g id="a_node8"><a xlink:href="classfspm_1_1config_1_1params_1_1ParamTable_a04d377878033879e2de46a6a02761d4a.html#a04d377878033879e2de46a6a02761d4a" target="_top" xlink:title=" ">
<polygon fill="none" stroke="black" points="188,-0.5 188,-30.5 335,-30.5 335,-0.5 188,-0.5"/>
<text text-anchor="start" x="196" y="-18.5" font-family="Helvetica,sans-Serif" font-size="10.00">fspm.config.params.Param</text>
<text text-anchor="middle" x="261.5" y="-7.5" font-family="Helvetica,sans-Serif" font-size="10.00">Table.isNull</text>
</a>
</g>
</g>
<!-- Node1&#45;&gt;Node8 -->
<g id="edge8" class="edge">
<title>Node1&#45;&gt;Node8</title>
<path fill="none" stroke="midnightblue" d="M423.31,-114.84C402.91,-93.14 369.54,-60.78 335,-40.5 328.57,-36.73 321.48,-33.41 314.34,-30.52"/>
<polygon fill="midnightblue" stroke="midnightblue" points="420.86,-117.35 430.22,-122.31 426,-112.59 420.86,-117.35"/>
</g>
<!-- Node5 -->
<g id="node5" class="node">
<title>Node5</title>
<g id="a_node5"><a xlink:href="classfspm_1_1config_1_1tests_1_1Structure_1_1TableStoreTest_ae0ee4dcb8470b2e8fb2d14bd57eb6f7e.html#ae0ee4dcb8470b2e8fb2d14bd57eb6f7e" target="_top" xlink:title=" ">
<polygon fill="none" stroke="black" points="0,-122.5 0,-152.5 152,-152.5 152,-122.5 0,-122.5"/>
<text text-anchor="start" x="8" y="-140.5" font-family="Helvetica,sans-Serif" font-size="10.00">fspm.config.tests.Structure.</text>
<text text-anchor="middle" x="76" y="-129.5" font-family="Helvetica,sans-Serif" font-size="10.00">TableStoreTest.testGetTable</text>
</a>
</g>
</g>
<!-- Node4&#45;&gt;Node5 -->
<g id="edge4" class="edge">
<title>Node4&#45;&gt;Node5</title>
<path fill="none" stroke="midnightblue" d="M177.91,-151.25C169.29,-150.07 160.55,-148.88 152.01,-147.72"/>
<polygon fill="midnightblue" stroke="midnightblue" points="177.59,-154.74 187.98,-152.62 178.54,-147.8 177.59,-154.74"/>
</g>
<!-- Node6&#45;&gt;Node5 -->
<g id="edge6" class="edge">
<title>Node6&#45;&gt;Node5</title>
<path fill="none" stroke="midnightblue" d="M177.91,-124.3C169.29,-125.43 160.55,-126.57 152.01,-127.69"/>
<polygon fill="midnightblue" stroke="midnightblue" points="178.51,-127.75 187.98,-122.99 177.61,-120.81 178.51,-127.75"/>
</g>
</g>
</svg>
        <g id="navigator" transform="translate(0 0)" fill="#404254">
                <rect fill="#f2f5e9" fill-opacity="0.5" stroke="#606060" stroke-width=".5" x="0" y="0" width="60" height="60"/>
                <use id="zoomplus" xlink:href="#zoomPlus" x="17" y="9" onmousedown="handleZoom(evt,'in')"/>
                <use id="zoomminus" xlink:href="#zoomMin" x="42" y="9" onmousedown="handleZoom(evt,'out')"/>
                <use id="reset" xlink:href="#resetDef" x="30" y="36" onmousedown="handleReset()"/>
                <g id="arrowUp" xlink:href="#dirArrow" transform="translate(30 24)" onmousedown="handlePan(0,-1)">
                  <use xlink:href="#rim" fill="#404040">
                        <set attributeName="fill" to="#808080" begin="arrowUp.mouseover" end="arrowUp.mouseout"/>
                  </use>
                  <path fill="none" stroke="white" stroke-width="1.5" d="M0,-3.0v7 M-2.5,-0.5L0,-3.0L2.5,-0.5"/>
                </g>
                <g id="arrowRight" xlink:href="#dirArrow" transform="rotate(90) translate(36 -43)" onmousedown="handlePan(1,0)">
                  <use xlink:href="#rim" fill="#404040">
                        <set attributeName="fill" to="#808080" begin="arrowRight.mouseover" end="arrowRight.mouseout"/>
                  </use>
                  <path fill="none" stroke="white" stroke-width="1.5" d="M0,-3.0v7 M-2.5,-0.5L0,-3.0L2.5,-0.5"/>
                </g>
                <g id="arrowDown" xlink:href="#dirArrow" transform="rotate(180) translate(-30 -48)" onmousedown="handlePan(0,1)">
                  <use xlink:href="#rim" fill="#404040">
                        <set attributeName="fill" to="#808080" begin="arrowDown.mouseover" end="arrowDown.mouseout"/>
                  </use>
                  <path fill="none" stroke="white" stroke-width="1.5" d="M0,-3.0v7 M-2.5,-0.5L0,-3.0L2.5,-0.5"/>
                </g>
                <g id="arrowLeft" xlink:href="#dirArrow" transform="rotate(270) translate(-36 17)" onmousedown="handlePan(-1,0)">
                  <use xlink:href="#rim" fill="#404040">
                        <set attributeName="fill" to="#808080" begin="arrowLeft.mouseover" end="arrowLeft.mouseout"/>
                  </use>
                  <path fill="none" stroke="white" stroke-width="1.5" d="M0,-3.0v7 M-2.5,-0.5L0,-3.0L2.5,-0.5"/>
                </g>
        </g>
        <svg viewBox="0 0 15 15" width="100%" height="30px" preserveAspectRatio="xMaxYMin meet">
         <g id="arrow_out" transform="scale(0.3 0.3)">
          <a xlink:href="classfspm_1_1config_1_1params_1_1ParamTable_a0cd54f7d2fd850005f50a930425e7dff_a0cd54f7d2fd850005f50a930425e7dff_icgraph_org.svg" target="_base">
           <rect id="button" ry="5" rx="5" y="6" x="6" height="38" width="38"
                fill="#f2f5e9" fill-opacity="0.5" stroke="#606060" stroke-width="1.0"/>
           <path id="arrow"
             d="M 11.500037,31.436501 C 11.940474,20.09759 22.043105,11.32322 32.158766,21.979434 L 37.068811,17.246167 C 37.068811,17.246167 37.088388,32 37.088388,32 L 22.160133,31.978069 C 22.160133,31.978069 26.997745,27.140456 26.997745,27.140456 C 18.528582,18.264221 13.291696,25.230495 11.500037,31.436501 z"
             style="fill:#404040;"/>
          </a>
         </g>
        </svg>
</svg>
