<?xml version="1.0" encoding="UTF-8" standalone="no"?>
<!DOCTYPE svg PUBLIC "-//W3C//DTD SVG 1.1//EN"
 "http://www.w3.org/Graphics/SVG/1.1/DTD/svg11.dtd">
<!-- Generated by graphviz version 2.43.0 (0)
 -->
<!-- Title: fspm.config.params.ParamTable.getParameter Pages: 1 -->
<svg width="547pt" height="284pt"
 viewBox="0.00 0.00 547.00 284.00" xmlns="http://www.w3.org/2000/svg" xmlns:xlink="http://www.w3.org/1999/xlink">
<g id="graph0" class="graph" transform="scale(1 1) rotate(0) translate(4 280)">
<title>fspm.config.params.ParamTable.getParameter</title>
<!-- Node1 -->
<g id="node1" class="node">
<title>Node1</title>
<g id="a_node1"><a xlink:title=" ">
<polygon fill="#bfbfbf" stroke="black" points="392,-122.5 392,-152.5 539,-152.5 539,-122.5 392,-122.5"/>
<text text-anchor="start" x="400" y="-140.5" font-family="Helvetica,sans-Serif" font-size="10.00">fspm.config.params.Param</text>
<text text-anchor="middle" x="465.5" y="-129.5" font-family="Helvetica,sans-Serif" font-size="10.00">Table.getParameter</text>
</a>
</g>
</g>
<!-- Node2 -->
<g id="node2" class="node">
<title>Node2</title>
<g id="a_node2"><a xlink:href="classfspm_1_1config_1_1params_1_1ParamTable_a941e459792096daaec6f6525f4e130df.html#a941e459792096daaec6f6525f4e130df" target="_top" xlink:title=" ">
<polygon fill="none" stroke="black" points="209,-245.5 209,-275.5 356,-275.5 356,-245.5 209,-245.5"/>
<text text-anchor="start" x="217" y="-263.5" font-family="Helvetica,sans-Serif" font-size="10.00">fspm.config.params.Param</text>
<text text-anchor="middle" x="282.5" y="-252.5" font-family="Helvetica,sans-Serif" font-size="10.00">Table.getArray</text>
</a>
</g>
</g>
<!-- Node1&#45;&gt;Node2 -->
<g id="edge1" class="edge">
<title>Node1&#45;&gt;Node2</title>
<path fill="none" stroke="midnightblue" d="M444.8,-160.37C424.55,-182.61 391.08,-215.96 356,-236.5 350.28,-239.85 344.03,-242.81 337.67,-245.4"/>
<polygon fill="midnightblue" stroke="midnightblue" points="447.59,-162.51 451.65,-152.72 442.37,-157.84 447.59,-162.51"/>
</g>
<!-- Node3 -->
<g id="node3" class="node">
<title>Node3</title>
<g id="a_node3"><a xlink:href="classfspm_1_1config_1_1params_1_1ParamTable_a6c7f5fd02b6afd26ffa508198a382f06.html#a6c7f5fd02b6afd26ffa508198a382f06" target="_top" xlink:title=" ">
<polygon fill="none" stroke="black" points="209,-196.5 209,-226.5 356,-226.5 356,-196.5 209,-196.5"/>
<text text-anchor="start" x="217" y="-214.5" font-family="Helvetica,sans-Serif" font-size="10.00">fspm.config.params.Param</text>
<text text-anchor="middle" x="282.5" y="-203.5" font-family="Helvetica,sans-Serif" font-size="10.00">Table.getBoolean</text>
</a>
</g>
</g>
<!-- Node1&#45;&gt;Node3 -->
<g id="edge2" class="edge">
<title>Node1&#45;&gt;Node3</title>
<path fill="none" stroke="midnightblue" d="M424.77,-157.11C404.44,-166.81 379.15,-178.37 356,-187.5 348.23,-190.57 339.89,-193.58 331.74,-196.37"/>
<polygon fill="midnightblue" stroke="midnightblue" points="426.54,-160.14 434.03,-152.66 423.5,-153.84 426.54,-160.14"/>
</g>
<!-- Node4 -->
<g id="node4" class="node">
<title>Node4</title>
<g id="a_node4"><a xlink:href="classfspm_1_1config_1_1params_1_1ParamTable_a36883c5705a953d8309e9d26fcdf7275.html#a36883c5705a953d8309e9d26fcdf7275" target="_top" xlink:title=" ">
<polygon fill="none" stroke="black" points="209,-147.5 209,-177.5 356,-177.5 356,-147.5 209,-147.5"/>
<text text-anchor="start" x="217" y="-165.5" font-family="Helvetica,sans-Serif" font-size="10.00">fspm.config.params.Param</text>
<text text-anchor="middle" x="282.5" y="-154.5" font-family="Helvetica,sans-Serif" font-size="10.00">Table.getDouble</text>
</a>
</g>
</g>
<!-- Node1&#45;&gt;Node4 -->
<g id="edge3" class="edge">
<title>Node1&#45;&gt;Node4</title>
<path fill="none" stroke="midnightblue" d="M381.88,-148.91C373.28,-150.1 364.58,-151.3 356.09,-152.47"/>
<polygon fill="midnightblue" stroke="midnightblue" points="382.5,-152.36 391.92,-147.52 381.54,-145.43 382.5,-152.36"/>
</g>
<!-- Node6 -->
<g id="node6" class="node">
<title>Node6</title>
<g id="a_node6"><a xlink:href="classfspm_1_1config_1_1params_1_1ParamTable_aa6854cca7478b055f97462947e8d2422.html#aa6854cca7478b055f97462947e8d2422" target="_top" xlink:title=" ">
<polygon fill="none" stroke="black" points="209,-98.5 209,-128.5 356,-128.5 356,-98.5 209,-98.5"/>
<text text-anchor="start" x="217" y="-116.5" font-family="Helvetica,sans-Serif" font-size="10.00">fspm.config.params.Param</text>
<text text-anchor="middle" x="282.5" y="-105.5" font-family="Helvetica,sans-Serif" font-size="10.00">Table.getInteger</text>
</a>
</g>
</g>
<!-- Node1&#45;&gt;Node6 -->
<g id="edge5" class="edge">
<title>Node1&#45;&gt;Node6</title>
<path fill="none" stroke="midnightblue" d="M381.88,-126.55C373.28,-125.4 364.58,-124.25 356.09,-123.13"/>
<polygon fill="midnightblue" stroke="midnightblue" points="381.55,-130.03 391.92,-127.88 382.47,-123.09 381.55,-130.03"/>
</g>
<!-- Node7 -->
<g id="node7" class="node">
<title>Node7</title>
<g id="a_node7"><a xlink:href="classfspm_1_1config_1_1params_1_1ParamTable_ade875bcbf685842c7abb9008f8352134.html#ade875bcbf685842c7abb9008f8352134" target="_top" xlink:title=" ">
<polygon fill="none" stroke="black" points="209,-49.5 209,-79.5 356,-79.5 356,-49.5 209,-49.5"/>
<text text-anchor="start" x="217" y="-67.5" font-family="Helvetica,sans-Serif" font-size="10.00">fspm.config.params.Param</text>
<text text-anchor="middle" x="282.5" y="-56.5" font-family="Helvetica,sans-Serif" font-size="10.00">Table.getString</text>
</a>
</g>
</g>
<!-- Node1&#45;&gt;Node7 -->
<g id="edge7" class="edge">
<title>Node1&#45;&gt;Node7</title>
<path fill="none" stroke="midnightblue" d="M423.32,-118.3C403.19,-109.17 378.51,-98.34 356,-89.5 347.33,-86.09 337.97,-82.68 328.96,-79.52"/>
<polygon fill="midnightblue" stroke="midnightblue" points="421.97,-121.53 432.52,-122.5 424.87,-115.16 421.97,-121.53"/>
</g>
<!-- Node8 -->
<g id="node8" class="node">
<title>Node8</title>
<g id="a_node8"><a xlink:href="classfspm_1_1config_1_1params_1_1ParamTable_a04d377878033879e2de46a6a02761d4a.html#a04d377878033879e2de46a6a02761d4a" target="_top" xlink:title=" ">
<polygon fill="none" stroke="black" points="209,-0.5 209,-30.5 356,-30.5 356,-0.5 209,-0.5"/>
<text text-anchor="start" x="217" y="-18.5" font-family="Helvetica,sans-Serif" font-size="10.00">fspm.config.params.Param</text>
<text text-anchor="middle" x="282.5" y="-7.5" font-family="Helvetica,sans-Serif" font-size="10.00">Table.isNull</text>
</a>
</g>
</g>
<!-- Node1&#45;&gt;Node8 -->
<g id="edge8" class="edge">
<title>Node1&#45;&gt;Node8</title>
<path fill="none" stroke="midnightblue" d="M444.31,-114.84C423.91,-93.14 390.54,-60.78 356,-40.5 349.57,-36.73 342.48,-33.41 335.34,-30.52"/>
<polygon fill="midnightblue" stroke="midnightblue" points="441.86,-117.35 451.22,-122.31 447,-112.59 441.86,-117.35"/>
</g>
<!-- Node5 -->
<g id="node5" class="node">
<title>Node5</title>
<g id="a_node5"><a xlink:href="classfspm_1_1config_1_1tests_1_1Hierarchy_1_1TableHierarchyTest_a957da330e9da76a2feed42e0a689d65e.html#a957da330e9da76a2feed42e0a689d65e" target="_top" xlink:title=" ">
<polygon fill="none" stroke="black" points="0,-122.5 0,-152.5 173,-152.5 173,-122.5 0,-122.5"/>
<text text-anchor="start" x="8" y="-140.5" font-family="Helvetica,sans-Serif" font-size="10.00">fspm.config.tests.Hierarchy.</text>
<text text-anchor="middle" x="86.5" y="-129.5" font-family="Helvetica,sans-Serif" font-size="10.00">TableHierarchyTest.testGetTable</text>
</a>
</g>
</g>
<!-- Node4&#45;&gt;Node5 -->
<g id="edge4" class="edge">
<title>Node4&#45;&gt;Node5</title>
<path fill="none" stroke="midnightblue" d="M198.98,-151.87C190.39,-150.76 181.64,-149.63 173.01,-148.52"/>
<polygon fill="midnightblue" stroke="midnightblue" points="198.62,-155.35 208.99,-153.16 199.52,-148.41 198.62,-155.35"/>
</g>
<!-- Node6&#45;&gt;Node5 -->
<g id="edge6" class="edge">
<title>Node6&#45;&gt;Node5</title>
<path fill="none" stroke="midnightblue" d="M198.98,-123.71C190.39,-124.77 181.64,-125.85 173.01,-126.92"/>
<polygon fill="midnightblue" stroke="midnightblue" points="199.49,-127.17 208.99,-122.47 198.63,-120.23 199.49,-127.17"/>
</g>
</g>
</svg>
