<?xml version="1.0" encoding="UTF-8" standalone="no"?>
<!DOCTYPE svg PUBLIC "-//W3C//DTD SVG 1.1//EN"
 "http://www.w3.org/Graphics/SVG/1.1/DTD/svg11.dtd">
<!-- Generated by graphviz version 2.43.0 (0)
 -->
<!-- Title: fspm.config.Config.addGroup Pages: 1 -->
<svg width="360pt" height="78pt"
 viewBox="0.00 0.00 360.00 77.50" xmlns="http://www.w3.org/2000/svg" xmlns:xlink="http://www.w3.org/1999/xlink">
<g id="graph0" class="graph" transform="scale(1 1) rotate(0) translate(4 73.5)">
<title>fspm.config.Config.addGroup</title>
<!-- Node1 -->
<g id="node1" class="node">
<title>Node1</title>
<g id="a_node1"><a xlink:title="Add a new group with a unique key.">
<polygon fill="#bfbfbf" stroke="black" points="0,-28 0,-47 158,-47 158,-28 0,-28"/>
<text text-anchor="middle" x="79" y="-35" font-family="Helvetica,sans-Serif" font-size="10.00">fspm.config.Config.addGroup</text>
</a>
</g>
</g>
<!-- Node2 -->
<g id="node2" class="node">
<title>Node2</title>
<g id="a_node2"><a xlink:href="classfspm_1_1config_1_1Config_a42612499256e159a84e5244fcae25b31.html#a42612499256e159a84e5244fcae25b31" target="_top" xlink:title=" ">
<polygon fill="none" stroke="black" points="194,-50 194,-69 352,-69 352,-50 194,-50"/>
<text text-anchor="middle" x="273" y="-57" font-family="Helvetica,sans-Serif" font-size="10.00">fspm.config.Config.addGroup</text>
</a>
</g>
</g>
<!-- Node1&#45;&gt;Node2 -->
<g id="edge1" class="edge">
<title>Node1&#45;&gt;Node2</title>
<path fill="none" stroke="midnightblue" d="M158.09,-46.45C166.6,-47.42 175.3,-48.42 183.92,-49.41"/>
<polygon fill="midnightblue" stroke="midnightblue" points="183.64,-52.9 193.98,-50.56 184.44,-45.94 183.64,-52.9"/>
</g>
<!-- Node3 -->
<g id="node3" class="node">
<title>Node3</title>
<g id="a_node3"><a xlink:href="classfspm_1_1config_1_1params_1_1ParamGroup_a87d9e7182014d1d981c4067083815878.html#a87d9e7182014d1d981c4067083815878" target="_top" xlink:title=" ">
<polygon fill="none" stroke="black" points="199.5,-0.5 199.5,-30.5 346.5,-30.5 346.5,-0.5 199.5,-0.5"/>
<text text-anchor="start" x="207.5" y="-18.5" font-family="Helvetica,sans-Serif" font-size="10.00">fspm.config.params.Param</text>
<text text-anchor="middle" x="273" y="-7.5" font-family="Helvetica,sans-Serif" font-size="10.00">Group.getKey</text>
</a>
</g>
</g>
<!-- Node1&#45;&gt;Node3 -->
<g id="edge2" class="edge">
<title>Node1&#45;&gt;Node3</title>
<path fill="none" stroke="midnightblue" d="M158.09,-28.55C168.29,-27.38 178.77,-26.18 189.05,-25"/>
<polygon fill="midnightblue" stroke="midnightblue" points="189.71,-28.45 199.24,-23.84 188.91,-21.5 189.71,-28.45"/>
</g>
</g>
</svg>
