<?xml version="1.0" encoding="UTF-8" standalone="no"?>
<!DOCTYPE svg PUBLIC "-//W3C//DTD SVG 1.1//EN"
 "http://www.w3.org/Graphics/SVG/1.1/DTD/svg11.dtd">
<!-- Generated by graphviz version 2.43.0 (0)
 -->
<!-- Title: fspm.config.params.structures.CategoryStore.getArray Pages: 1 -->
<svg width="1109pt" height="170pt"
 viewBox="0.00 0.00 1109.00 170.00" xmlns="http://www.w3.org/2000/svg" xmlns:xlink="http://www.w3.org/1999/xlink">
<g id="graph0" class="graph" transform="scale(1 1) rotate(0) translate(4 166)">
<title>fspm.config.params.structures.CategoryStore.getArray</title>
<!-- Node1 -->
<g id="node1" class="node">
<title>Node1</title>
<g id="a_node1"><a xlink:title=" ">
<polygon fill="#bfbfbf" stroke="black" points="0,-66.5 0,-96.5 168,-96.5 168,-66.5 0,-66.5"/>
<text text-anchor="start" x="8" y="-84.5" font-family="Helvetica,sans-Serif" font-size="10.00">fspm.config.params.structures.</text>
<text text-anchor="middle" x="84" y="-73.5" font-family="Helvetica,sans-Serif" font-size="10.00">CategoryStore.getArray</text>
</a>
</g>
</g>
<!-- Node2 -->
<g id="node2" class="node">
<title>Node2</title>
<g id="a_node2"><a xlink:href="classfspm_1_1config_1_1params_1_1ParamCategory_addcc002dbf650fbc675a1ef472dfa088.html#addcc002dbf650fbc675a1ef472dfa088" target="_top" xlink:title=" ">
<polygon fill="none" stroke="black" points="477,-88.5 477,-118.5 624,-118.5 624,-88.5 477,-88.5"/>
<text text-anchor="start" x="485" y="-106.5" font-family="Helvetica,sans-Serif" font-size="10.00">fspm.config.params.Param</text>
<text text-anchor="middle" x="550.5" y="-95.5" font-family="Helvetica,sans-Serif" font-size="10.00">Category.getArray</text>
</a>
</g>
</g>
<!-- Node1&#45;&gt;Node2 -->
<g id="edge1" class="edge">
<title>Node1&#45;&gt;Node2</title>
<path fill="none" stroke="midnightblue" d="M168.04,-85.43C252.42,-89.43 382.37,-95.58 466.67,-99.58"/>
<polygon fill="midnightblue" stroke="midnightblue" points="466.57,-103.08 476.72,-100.05 466.9,-96.08 466.57,-103.08"/>
</g>
<!-- Node8 -->
<g id="node8" class="node">
<title>Node8</title>
<g id="a_node8"><a xlink:href="classfspm_1_1config_1_1params_1_1structures_1_1CategoryStore_ae066b355d784560a9c277722940d3d4a.html#ae066b355d784560a9c277722940d3d4a" target="_top" xlink:title=" ">
<polygon fill="none" stroke="black" points="204,-44.5 204,-74.5 413,-74.5 413,-44.5 204,-44.5"/>
<text text-anchor="start" x="212" y="-62.5" font-family="Helvetica,sans-Serif" font-size="10.00">fspm.config.params.structures.</text>
<text text-anchor="middle" x="308.5" y="-51.5" font-family="Helvetica,sans-Serif" font-size="10.00">CategoryStore.validateFlattenedAccess</text>
</a>
</g>
</g>
<!-- Node1&#45;&gt;Node8 -->
<g id="edge8" class="edge">
<title>Node1&#45;&gt;Node8</title>
<path fill="none" stroke="midnightblue" d="M168.17,-73.28C176.51,-72.45 185.07,-71.61 193.66,-70.76"/>
<polygon fill="midnightblue" stroke="midnightblue" points="194.13,-74.23 203.73,-69.76 193.44,-67.26 194.13,-74.23"/>
</g>
<!-- Node3 -->
<g id="node3" class="node">
<title>Node3</title>
<g id="a_node3"><a xlink:href="classfspm_1_1config_1_1params_1_1Parameter_a2dced470a20701940042f6dacad7f78e.html#a2dced470a20701940042f6dacad7f78e" target="_top" xlink:title="Generic method for getting arrays of a given type.">
<polygon fill="none" stroke="black" points="688,-90.5 688,-120.5 868,-120.5 868,-90.5 688,-90.5"/>
<text text-anchor="start" x="696" y="-108.5" font-family="Helvetica,sans-Serif" font-size="10.00">fspm.config.params.Parameter.as</text>
<text text-anchor="middle" x="778" y="-97.5" font-family="Helvetica,sans-Serif" font-size="10.00">Array</text>
</a>
</g>
</g>
<!-- Node2&#45;&gt;Node3 -->
<g id="edge2" class="edge">
<title>Node2&#45;&gt;Node3</title>
<path fill="none" stroke="midnightblue" d="M624.09,-104.14C641.26,-104.3 659.85,-104.46 677.96,-104.62"/>
<polygon fill="midnightblue" stroke="midnightblue" points="677.93,-108.12 687.96,-104.71 677.99,-101.12 677.93,-108.12"/>
</g>
<!-- Node7 -->
<g id="node7" class="node">
<title>Node7</title>
<g id="a_node7"><a xlink:href="classfspm_1_1config_1_1params_1_1ParamCategory_ac81e6b98fa48fc3426eed6f60e81da5b.html#ac81e6b98fa48fc3426eed6f60e81da5b" target="_top" xlink:title="Get generic Parameter with the given key.">
<polygon fill="none" stroke="black" points="704.5,-41.5 704.5,-71.5 851.5,-71.5 851.5,-41.5 704.5,-41.5"/>
<text text-anchor="start" x="712.5" y="-59.5" font-family="Helvetica,sans-Serif" font-size="10.00">fspm.config.params.Param</text>
<text text-anchor="middle" x="778" y="-48.5" font-family="Helvetica,sans-Serif" font-size="10.00">Category.getParameter</text>
</a>
</g>
</g>
<!-- Node2&#45;&gt;Node7 -->
<g id="edge6" class="edge">
<title>Node2&#45;&gt;Node7</title>
<path fill="none" stroke="midnightblue" d="M623.47,-88.5C646.25,-83.75 671.6,-78.47 695.03,-73.58"/>
<polygon fill="midnightblue" stroke="midnightblue" points="695.87,-76.99 704.94,-71.52 694.44,-70.13 695.87,-76.99"/>
</g>
<!-- Node4 -->
<g id="node4" class="node">
<title>Node4</title>
<g id="a_node4"><a xlink:href="classfspm_1_1config_1_1params_1_1Parameter_a54e9dcffe048d38566416b7bf8e09fe1.html#a54e9dcffe048d38566416b7bf8e09fe1" target="_top" xlink:title=" ">
<polygon fill="none" stroke="black" points="910,-131.5 910,-161.5 1095,-161.5 1095,-131.5 910,-131.5"/>
<text text-anchor="start" x="918" y="-149.5" font-family="Helvetica,sans-Serif" font-size="10.00">fspm.config.params.Parameter.get</text>
<text text-anchor="middle" x="1002.5" y="-138.5" font-family="Helvetica,sans-Serif" font-size="10.00">DoubleType</text>
</a>
</g>
</g>
<!-- Node3&#45;&gt;Node4 -->
<g id="edge3" class="edge">
<title>Node3&#45;&gt;Node4</title>
<path fill="none" stroke="midnightblue" d="M860.59,-120.53C876.61,-123.49 893.52,-126.6 909.84,-129.61"/>
<polygon fill="midnightblue" stroke="midnightblue" points="909.45,-133.1 919.92,-131.47 910.72,-126.21 909.45,-133.1"/>
</g>
<!-- Node5 -->
<g id="node5" class="node">
<title>Node5</title>
<g id="a_node5"><a xlink:href="classfspm_1_1util_1_1KeyElement_a653aac67328f98c1201974736671fe0d.html#a653aac67328f98c1201974736671fe0d" target="_top" xlink:title=" ">
<polygon fill="none" stroke="black" points="923.5,-52 923.5,-71 1081.5,-71 1081.5,-52 923.5,-52"/>
<text text-anchor="middle" x="1002.5" y="-59" font-family="Helvetica,sans-Serif" font-size="10.00">fspm.util.KeyElement.getKey</text>
</a>
</g>
</g>
<!-- Node3&#45;&gt;Node5 -->
<g id="edge4" class="edge">
<title>Node3&#45;&gt;Node5</title>
<path fill="none" stroke="midnightblue" d="M854.95,-90.48C883.86,-84.76 916.32,-78.34 943.33,-73"/>
<polygon fill="midnightblue" stroke="midnightblue" points="944.27,-76.39 953.4,-71.01 942.91,-69.52 944.27,-76.39"/>
</g>
<!-- Node6 -->
<g id="node6" class="node">
<title>Node6</title>
<g id="a_node6"><a xlink:href="classfspm_1_1config_1_1params_1_1Parameter_a2fd72835a908354fea23f92e3f3b1800.html#a2fd72835a908354fea23f92e3f3b1800" target="_top" xlink:title=" ">
<polygon fill="none" stroke="black" points="904,-93 904,-112 1101,-112 1101,-93 904,-93"/>
<text text-anchor="middle" x="1002.5" y="-100" font-family="Helvetica,sans-Serif" font-size="10.00">fspm.config.params.Parameter.isNull</text>
</a>
</g>
</g>
<!-- Node3&#45;&gt;Node6 -->
<g id="edge5" class="edge">
<title>Node3&#45;&gt;Node6</title>
<path fill="none" stroke="midnightblue" d="M868.22,-104.3C876.65,-104.18 885.25,-104.07 893.83,-103.95"/>
<polygon fill="midnightblue" stroke="midnightblue" points="893.92,-107.45 903.87,-103.82 893.82,-100.45 893.92,-107.45"/>
</g>
<!-- Node7&#45;&gt;Node5 -->
<g id="edge7" class="edge">
<title>Node7&#45;&gt;Node5</title>
<path fill="none" stroke="midnightblue" d="M851.55,-58.13C871.18,-58.57 892.66,-59.05 913.06,-59.51"/>
<polygon fill="midnightblue" stroke="midnightblue" points="913.22,-63.02 923.3,-59.74 913.38,-56.02 913.22,-63.02"/>
</g>
<!-- Node8&#45;&gt;Node7 -->
<g id="edge11" class="edge">
<title>Node8&#45;&gt;Node7</title>
<path fill="none" stroke="midnightblue" d="M413.25,-58.83C497.82,-58.29 615.68,-57.54 694.06,-57.03"/>
<polygon fill="midnightblue" stroke="midnightblue" points="694.4,-60.53 704.37,-56.97 694.35,-53.53 694.4,-60.53"/>
</g>
<!-- Node9 -->
<g id="node9" class="node">
<title>Node9</title>
<g id="a_node9"><a xlink:href="classfspm_1_1config_1_1params_1_1structures_1_1CategoryStore_a05635b1745cfdb9ed85c076ee762cbdf.html#a05635b1745cfdb9ed85c076ee762cbdf" target="_top" xlink:title=" ">
<polygon fill="none" stroke="black" points="449,-0.5 449,-30.5 652,-30.5 652,-0.5 449,-0.5"/>
<text text-anchor="start" x="457" y="-18.5" font-family="Helvetica,sans-Serif" font-size="10.00">fspm.config.params.structures.</text>
<text text-anchor="middle" x="550.5" y="-7.5" font-family="Helvetica,sans-Serif" font-size="10.00">CategoryStore.getCategoryWithParam</text>
</a>
</g>
</g>
<!-- Node8&#45;&gt;Node9 -->
<g id="edge9" class="edge">
<title>Node8&#45;&gt;Node9</title>
<path fill="none" stroke="midnightblue" d="M391.42,-44.48C412.74,-40.57 435.84,-36.34 457.63,-32.34"/>
<polygon fill="midnightblue" stroke="midnightblue" points="458.33,-35.77 467.54,-30.53 457.07,-28.89 458.33,-35.77"/>
</g>
<!-- Node9&#45;&gt;Node7 -->
<g id="edge10" class="edge">
<title>Node9&#45;&gt;Node7</title>
<path fill="none" stroke="midnightblue" d="M634.19,-30.53C653.87,-34.11 674.86,-37.93 694.53,-41.51"/>
<polygon fill="midnightblue" stroke="midnightblue" points="693.91,-44.95 704.37,-43.3 695.16,-38.06 693.91,-44.95"/>
</g>
</g>
</svg>
