<?xml version="1.0" encoding="UTF-8" standalone="no"?>
<!DOCTYPE svg PUBLIC "-//W3C//DTD SVG 1.1//EN"
 "http://www.w3.org/Graphics/SVG/1.1/DTD/svg11.dtd">
<!-- Generated by graphviz version 2.43.0 (0)
 -->
<!-- Title: fspm.config.params.ParamCategory.getKey Pages: 1 -->
<!--zoomable 563 -->
<svg id="main" version="1.1" xmlns="http://www.w3.org/2000/svg" xmlns:xlink="http://www.w3.org/1999/xlink" xml:space="preserve" onload="init(evt)">
<style type="text/css"><![CDATA[
.edge:hover path { stroke: red; }
.edge:hover polygon { stroke: red; fill: red; }
]]></style>
<script type="text/javascript"><![CDATA[
var edges = document.getElementsByTagName('g');
if (edges && edges.length) {
  for (var i=0;i<edges.length;i++) {
    if (edges[i].id.substr(0,4)=='edge') {
      edges[i].setAttribute('class','edge');
    }
  }
}
]]></script>
        <defs>
                <circle id="rim" cx="0" cy="0" r="7"/>
                <circle id="rim2" cx="0" cy="0" r="3.5"/>
                <g id="zoomPlus">
                        <use xlink:href="#rim" fill="#404040">
                                <set attributeName="fill" to="#808080" begin="zoomplus.mouseover" end="zoomplus.mouseout"/>
                        </use>
                        <path d="M-4,0h8M0,-4v8" fill="none" stroke="white" stroke-width="1.5" pointer-events="none"/>
                </g>
                <g id="zoomMin">
                        <use xlink:href="#rim" fill="#404040">
                                <set attributeName="fill" to="#808080" begin="zoomminus.mouseover" end="zoomminus.mouseout"/>
                        </use>
                        <path d="M-4,0h8" fill="none" stroke="white" stroke-width="1.5" pointer-events="none"/>
                </g>
                <g id="dirArrow">
                        <path fill="none" stroke="white" stroke-width="1.5" d="M0,-3.0v7 M-2.5,-0.5L0,-3.0L2.5,-0.5"/>
                </g>
               <g id="resetDef">
                       <use xlink:href="#rim2" fill="#404040">
                               <set attributeName="fill" to="#808080" begin="reset.mouseover" end="reset.mouseout"/>
                       </use>
               </g>
        </defs>

<script type="text/javascript">
var viewWidth = 1329;
var viewHeight = 563;
var sectionId = 'dynsection-0';
</script>
<script xlink:href="svgpan.js"/>
<svg id="graph" class="graph">
<g id="viewport">
<title>fspm.config.params.ParamCategory.getKey</title>
<!-- Node1 -->
<g id="node1" class="node">
<title>Node1</title>
<g id="a_node1"><a xlink:title=" ">
<polygon fill="#bfbfbf" stroke="black" points="1174,-416.5 1174,-446.5 1321,-446.5 1321,-416.5 1174,-416.5"/>
<text text-anchor="start" x="1182" y="-434.5" font-family="Helvetica,sans-Serif" font-size="10.00">fspm.config.params.Param</text>
<text text-anchor="middle" x="1247.5" y="-423.5" font-family="Helvetica,sans-Serif" font-size="10.00">Category.getKey</text>
</a>
</g>
</g>
<!-- Node2 -->
<g id="node2" class="node">
<title>Node2</title>
<g id="a_node2"><a xlink:href="classfspm_1_1config_1_1params_1_1ParamGroup_ac83104c7751a96252a45ca014d3a7630.html#ac83104c7751a96252a45ca014d3a7630" target="_top" xlink:title="Adds a new category.">
<polygon fill="none" stroke="black" points="610,-455.5 610,-485.5 757,-485.5 757,-455.5 610,-455.5"/>
<text text-anchor="start" x="618" y="-473.5" font-family="Helvetica,sans-Serif" font-size="10.00">fspm.config.params.Param</text>
<text text-anchor="middle" x="683.5" y="-462.5" font-family="Helvetica,sans-Serif" font-size="10.00">Group.addCategory</text>
</a>
</g>
</g>
<!-- Node1&#45;&gt;Node2 -->
<g id="edge1" class="edge">
<title>Node1&#45;&gt;Node2</title>
<path fill="none" stroke="midnightblue" d="M1163.86,-437.23C1054.1,-444.85 861.94,-458.19 757.35,-465.44"/>
<polygon fill="midnightblue" stroke="midnightblue" points="1164.16,-440.72 1173.89,-436.54 1163.67,-433.74 1164.16,-440.72"/>
</g>
<!-- Node7 -->
<g id="node7" class="node">
<title>Node7</title>
<g id="a_node7"><a xlink:href="classfspm_1_1config_1_1params_1_1ParamCategory_a4e9b4d10f0f293ae181dd272d302d9b4.html#a4e9b4d10f0f293ae181dd272d302d9b4" target="_top" xlink:title="Get generic Parameter with the given key.">
<polygon fill="none" stroke="black" points="991,-348.5 991,-378.5 1138,-378.5 1138,-348.5 991,-348.5"/>
<text text-anchor="start" x="999" y="-366.5" font-family="Helvetica,sans-Serif" font-size="10.00">fspm.config.params.Param</text>
<text text-anchor="middle" x="1064.5" y="-355.5" font-family="Helvetica,sans-Serif" font-size="10.00">Category.get</text>
</a>
</g>
</g>
<!-- Node1&#45;&gt;Node7 -->
<g id="edge7" class="edge">
<title>Node1&#45;&gt;Node7</title>
<path fill="none" stroke="midnightblue" d="M1196.88,-412.86C1168.16,-402.07 1132.48,-388.66 1105.56,-378.55"/>
<polygon fill="midnightblue" stroke="midnightblue" points="1195.74,-416.17 1206.33,-416.41 1198.2,-409.62 1195.74,-416.17"/>
</g>
<!-- Node3 -->
<g id="node3" class="node">
<title>Node3</title>
<g id="a_node3"><a xlink:href="classfspm_1_1config_1_1ConfigTest_ad96b864581ccf61453d97330a34958f8.html#ad96b864581ccf61453d97330a34958f8" target="_top" xlink:title=" ">
<polygon fill="none" stroke="black" points="417,-455.5 417,-485.5 565,-485.5 565,-455.5 417,-455.5"/>
<text text-anchor="start" x="425" y="-473.5" font-family="Helvetica,sans-Serif" font-size="10.00">fspm.config.ConfigTest.add</text>
<text text-anchor="middle" x="491" y="-462.5" font-family="Helvetica,sans-Serif" font-size="10.00">Groups</text>
</a>
</g>
</g>
<!-- Node2&#45;&gt;Node3 -->
<g id="edge2" class="edge">
<title>Node2&#45;&gt;Node3</title>
<path fill="none" stroke="midnightblue" d="M599.9,-470.5C588.39,-470.5 576.63,-470.5 565.31,-470.5"/>
<polygon fill="midnightblue" stroke="midnightblue" points="599.94,-474 609.94,-470.5 599.94,-467 599.94,-474"/>
</g>
<!-- Node6 -->
<g id="node6" class="node">
<title>Node6</title>
<g id="a_node6"><a xlink:href="classfspm_1_1config_1_1adapters_1_1JsonFileReader_a66baa6fc9e08972e7a71cac73d560312.html#a66baa6fc9e08972e7a71cac73d560312" target="_top" xlink:title="Parses and returns a ParamGroup with the parameter contents of the provided file.">
<polygon fill="none" stroke="black" points="419.5,-504.5 419.5,-534.5 562.5,-534.5 562.5,-504.5 419.5,-504.5"/>
<text text-anchor="start" x="427.5" y="-522.5" font-family="Helvetica,sans-Serif" font-size="10.00">fspm.config.adapters.Json</text>
<text text-anchor="middle" x="491" y="-511.5" font-family="Helvetica,sans-Serif" font-size="10.00">FileReader.parse</text>
</a>
</g>
</g>
<!-- Node2&#45;&gt;Node6 -->
<g id="edge6" class="edge">
<title>Node2&#45;&gt;Node6</title>
<path fill="none" stroke="midnightblue" d="M614.27,-488.05C593.35,-493.43 570.54,-499.3 550.34,-504.49"/>
<polygon fill="midnightblue" stroke="midnightblue" points="615.24,-491.42 624.05,-485.53 613.49,-484.64 615.24,-491.42"/>
</g>
<!-- Node4 -->
<g id="node4" class="node">
<title>Node4</title>
<g id="a_node4"><a xlink:href="classfspm_1_1config_1_1ConfigTest_aacca92fc43946c5a3d4613a1085d59f9.html#aacca92fc43946c5a3d4613a1085d59f9" target="_top" xlink:title=" ">
<polygon fill="none" stroke="black" points="0,-482 0,-501 170,-501 170,-482 0,-482"/>
<text text-anchor="middle" x="85" y="-489" font-family="Helvetica,sans-Serif" font-size="10.00">fspm.config.ConfigTest.runMain</text>
</a>
</g>
</g>
<!-- Node3&#45;&gt;Node4 -->
<g id="edge3" class="edge">
<title>Node3&#45;&gt;Node4</title>
<path fill="none" stroke="midnightblue" d="M417.76,-489.82C414.37,-491.56 411.1,-493.45 408,-495.5 387.22,-509.26 394.58,-527.95 372,-538.5 277.85,-582.47 149.5,-524.92 103.38,-501.02"/>
<polygon fill="midnightblue" stroke="midnightblue" points="419.34,-492.94 426.94,-485.56 416.4,-486.59 419.34,-492.94"/>
</g>
<!-- Node5 -->
<g id="node5" class="node">
<title>Node5</title>
<g id="a_node5"><a xlink:href="classfspm_1_1config_1_1ConfigTest_a09a38b5eee655b088e4e144df5ad5a85.html#a09a38b5eee655b088e4e144df5ad5a85" target="_top" xlink:title=" ">
<polygon fill="none" stroke="black" points="214.5,-411.5 214.5,-441.5 363.5,-441.5 363.5,-411.5 214.5,-411.5"/>
<text text-anchor="start" x="222.5" y="-429.5" font-family="Helvetica,sans-Serif" font-size="10.00">fspm.config.ConfigTest.test</text>
<text text-anchor="middle" x="289" y="-418.5" font-family="Helvetica,sans-Serif" font-size="10.00">_flatCategories</text>
</a>
</g>
</g>
<!-- Node3&#45;&gt;Node5 -->
<g id="edge4" class="edge">
<title>Node3&#45;&gt;Node5</title>
<path fill="none" stroke="midnightblue" d="M411.51,-453.23C393.93,-449.36 375.42,-445.29 358.3,-441.53"/>
<polygon fill="midnightblue" stroke="midnightblue" points="411.21,-456.75 421.73,-455.48 412.72,-449.91 411.21,-456.75"/>
</g>
<!-- Node5&#45;&gt;Node4 -->
<g id="edge5" class="edge">
<title>Node5&#45;&gt;Node4</title>
<path fill="none" stroke="midnightblue" d="M227.71,-444.69C220.39,-446.95 213.02,-449.26 206,-451.5 174.41,-461.58 138.34,-473.68 114.06,-481.92"/>
<polygon fill="midnightblue" stroke="midnightblue" points="229.1,-447.92 237.63,-441.63 227.04,-441.23 229.1,-447.92"/>
</g>
<!-- Node8 -->
<g id="node8" class="node">
<title>Node8</title>
<g id="a_node8"><a xlink:href="classfspm_1_1config_1_1Config_abce61aaf26cf14b4ae2204ff22c27b57.html#abce61aaf26cf14b4ae2204ff22c27b57" target="_top" xlink:title=" ">
<polygon fill="none" stroke="black" points="614,-304.5 614,-334.5 753,-334.5 753,-304.5 614,-304.5"/>
<text text-anchor="start" x="622" y="-322.5" font-family="Helvetica,sans-Serif" font-size="10.00">fspm.config.Config.check</text>
<text text-anchor="middle" x="683.5" y="-311.5" font-family="Helvetica,sans-Serif" font-size="10.00">ContextsExists</text>
</a>
</g>
</g>
<!-- Node7&#45;&gt;Node8 -->
<g id="edge8" class="edge">
<title>Node7&#45;&gt;Node8</title>
<path fill="none" stroke="midnightblue" d="M980.7,-360.47C926.98,-357.74 855.59,-352.69 793,-343.5 777.35,-341.2 760.59,-337.91 745.04,-334.51"/>
<polygon fill="midnightblue" stroke="midnightblue" points="980.7,-363.97 990.86,-360.97 981.04,-356.98 980.7,-363.97"/>
</g>
<!-- Node28 -->
<g id="node28" class="node">
<title>Node28</title>
<g id="a_node28"><a xlink:href="classfspm_1_1config_1_1params_1_1ParamGroup_a4ac641bb901b13ad2186c3d4fe0a75c9.html#a4ac641bb901b13ad2186c3d4fe0a75c9" target="_top" xlink:title=" ">
<polygon fill="none" stroke="black" points="793,-304.5 793,-334.5 955,-334.5 955,-304.5 793,-304.5"/>
<text text-anchor="start" x="801" y="-322.5" font-family="Helvetica,sans-Serif" font-size="10.00">fspm.config.params.Param</text>
<text text-anchor="middle" x="874" y="-311.5" font-family="Helvetica,sans-Serif" font-size="10.00">Group.getCategoryWithParam</text>
</a>
</g>
</g>
<!-- Node7&#45;&gt;Node28 -->
<g id="edge35" class="edge">
<title>Node7&#45;&gt;Node28</title>
<path fill="none" stroke="midnightblue" d="M989.06,-346.12C972.63,-342.29 955.36,-338.26 939.37,-334.53"/>
<polygon fill="midnightblue" stroke="midnightblue" points="988.62,-349.62 999.16,-348.48 990.21,-342.8 988.62,-349.62"/>
</g>
<!-- Node9 -->
<g id="node9" class="node">
<title>Node9</title>
<g id="a_node9"><a xlink:href="classfspm_1_1config_1_1Config_ae827f35da2e09b1d18f5a82538db57bc.html#ae827f35da2e09b1d18f5a82538db57bc" target="_top" xlink:title=" ">
<polygon fill="none" stroke="black" points="408,-417 408,-436 574,-436 574,-417 408,-417"/>
<text text-anchor="middle" x="491" y="-424" font-family="Helvetica,sans-Serif" font-size="10.00">fspm.config.Config.getBoolean</text>
</a>
</g>
</g>
<!-- Node8&#45;&gt;Node9 -->
<g id="edge9" class="edge">
<title>Node8&#45;&gt;Node9</title>
<path fill="none" stroke="midnightblue" d="M656.39,-341.05C635.18,-357.8 603.96,-380.75 574,-396.5 558.3,-404.75 539.82,-411.73 524.39,-416.87"/>
<polygon fill="midnightblue" stroke="midnightblue" points="658.66,-343.72 664.28,-334.74 654.29,-338.25 658.66,-343.72"/>
</g>
<!-- Node12 -->
<g id="node12" class="node">
<title>Node12</title>
<g id="a_node12"><a xlink:href="classfspm_1_1config_1_1Config_ae462a8b94814530c25f796f0b4f48115.html#ae462a8b94814530c25f796f0b4f48115" target="_top" xlink:title=" ">
<polygon fill="none" stroke="black" points="410.5,-280 410.5,-299 571.5,-299 571.5,-280 410.5,-280"/>
<text text-anchor="middle" x="491" y="-287" font-family="Helvetica,sans-Serif" font-size="10.00">fspm.config.Config.getDouble</text>
</a>
</g>
</g>
<!-- Node8&#45;&gt;Node12 -->
<g id="edge13" class="edge">
<title>Node8&#45;&gt;Node12</title>
<path fill="none" stroke="midnightblue" d="M603.95,-307.13C586.71,-304.41 568.72,-301.58 552.33,-299"/>
<polygon fill="midnightblue" stroke="midnightblue" points="603.57,-310.61 613.99,-308.71 604.66,-303.7 603.57,-310.61"/>
</g>
<!-- Node19 -->
<g id="node19" class="node">
<title>Node19</title>
<g id="a_node19"><a xlink:href="classfspm_1_1config_1_1Config_afa630b4bdff20121abd94ef706423f27.html#afa630b4bdff20121abd94ef706423f27" target="_top" xlink:title=" ">
<polygon fill="none" stroke="black" points="410.5,-49.5 410.5,-79.5 571.5,-79.5 571.5,-49.5 410.5,-49.5"/>
<text text-anchor="start" x="418.5" y="-67.5" font-family="Helvetica,sans-Serif" font-size="10.00">fspm.config.Config.getDouble</text>
<text text-anchor="middle" x="491" y="-56.5" font-family="Helvetica,sans-Serif" font-size="10.00">Array</text>
</a>
</g>
</g>
<!-- Node8&#45;&gt;Node19 -->
<g id="edge21" class="edge">
<title>Node8&#45;&gt;Node19</title>
<path fill="none" stroke="midnightblue" d="M671.5,-294.85C654.13,-257.52 617.79,-185.52 574,-133.5 556.27,-112.43 531.63,-92.66 514,-79.73"/>
<polygon fill="midnightblue" stroke="midnightblue" points="668.53,-296.78 675.88,-304.41 674.9,-293.86 668.53,-296.78"/>
</g>
<!-- Node22 -->
<g id="node22" class="node">
<title>Node22</title>
<g id="a_node22"><a xlink:href="classfspm_1_1config_1_1Config_a5e0b8f5ad9a3ead9ec4c4ab031918b94.html#a5e0b8f5ad9a3ead9ec4c4ab031918b94" target="_top" xlink:title=" ">
<polygon fill="none" stroke="black" points="410.5,-143 410.5,-162 571.5,-162 571.5,-143 410.5,-143"/>
<text text-anchor="middle" x="491" y="-150" font-family="Helvetica,sans-Serif" font-size="10.00">fspm.config.Config.getInteger</text>
</a>
</g>
</g>
<!-- Node8&#45;&gt;Node22 -->
<g id="edge24" class="edge">
<title>Node8&#45;&gt;Node22</title>
<path fill="none" stroke="midnightblue" d="M664.32,-296.36C643.98,-271.39 609.26,-231.33 574,-202.5 553.99,-186.14 528.15,-171.26 510.88,-162.07"/>
<polygon fill="midnightblue" stroke="midnightblue" points="661.64,-298.62 670.64,-304.21 667.09,-294.23 661.64,-298.62"/>
</g>
<!-- Node24 -->
<g id="node24" class="node">
<title>Node24</title>
<g id="a_node24"><a xlink:href="classfspm_1_1config_1_1Config_a3be13c8aecc91ab1cd95692ec65df305.html#a3be13c8aecc91ab1cd95692ec65df305" target="_top" xlink:title=" ">
<polygon fill="none" stroke="black" points="413.5,-330 413.5,-349 568.5,-349 568.5,-330 413.5,-330"/>
<text text-anchor="middle" x="491" y="-337" font-family="Helvetica,sans-Serif" font-size="10.00">fspm.config.Config.getString</text>
</a>
</g>
</g>
<!-- Node8&#45;&gt;Node24 -->
<g id="edge27" class="edge">
<title>Node8&#45;&gt;Node24</title>
<path fill="none" stroke="midnightblue" d="M603.86,-327.76C592.22,-328.98 580.23,-330.24 568.62,-331.46"/>
<polygon fill="midnightblue" stroke="midnightblue" points="604.41,-331.22 613.99,-326.69 603.68,-324.26 604.41,-331.22"/>
</g>
<!-- Node26 -->
<g id="node26" class="node">
<title>Node26</title>
<g id="a_node26"><a xlink:href="classfspm_1_1config_1_1Config_a23eaad13093f0089ec76d726607956b5.html#a23eaad13093f0089ec76d726607956b5" target="_top" xlink:title=" ">
<polygon fill="none" stroke="black" points="422,-212 422,-231 560,-231 560,-212 422,-212"/>
<text text-anchor="middle" x="491" y="-219" font-family="Helvetica,sans-Serif" font-size="10.00">fspm.config.Config.isNull</text>
</a>
</g>
</g>
<!-- Node8&#45;&gt;Node26 -->
<g id="edge32" class="edge">
<title>Node8&#45;&gt;Node26</title>
<path fill="none" stroke="midnightblue" d="M644.11,-299.75C603.63,-278.93 541.53,-246.98 510.7,-231.12"/>
<polygon fill="midnightblue" stroke="midnightblue" points="642.66,-302.94 653.15,-304.4 645.86,-296.72 642.66,-302.94"/>
</g>
<!-- Node27 -->
<g id="node27" class="node">
<title>Node27</title>
<g id="a_node27"><a xlink:href="classfspm_1_1config_1_1Config_a76b9187eaa8f4b269601af74195b565f.html#a76b9187eaa8f4b269601af74195b565f" target="_top" xlink:title=" ">
<polygon fill="none" stroke="black" points="428.5,-368 428.5,-387 553.5,-387 553.5,-368 428.5,-368"/>
<text text-anchor="middle" x="491" y="-375" font-family="Helvetica,sans-Serif" font-size="10.00">fspm.config.Config.set</text>
</a>
</g>
</g>
<!-- Node8&#45;&gt;Node27 -->
<g id="edge34" class="edge">
<title>Node8&#45;&gt;Node27</title>
<path fill="none" stroke="midnightblue" d="M634.69,-338.05C615.93,-344.97 594.11,-352.58 574,-358.5 562.22,-361.97 549.35,-365.21 537.36,-367.99"/>
<polygon fill="midnightblue" stroke="midnightblue" points="636.05,-341.28 644.2,-334.51 633.6,-334.72 636.05,-341.28"/>
</g>
<!-- Node9&#45;&gt;Node5 -->
<g id="edge12" class="edge">
<title>Node9&#45;&gt;Node5</title>
<path fill="none" stroke="midnightblue" d="M397.76,-426.5C386.3,-426.5 374.69,-426.5 363.56,-426.5"/>
<polygon fill="midnightblue" stroke="midnightblue" points="397.79,-430 407.79,-426.5 397.79,-423 397.79,-430"/>
</g>
<!-- Node10 -->
<g id="node10" class="node">
<title>Node10</title>
<g id="a_node10"><a xlink:href="classfspm_1_1config_1_1ConfigTest_a586a428c43c00668f273133c28ddd635.html#a586a428c43c00668f273133c28ddd635" target="_top" xlink:title=" ">
<polygon fill="none" stroke="black" points="207.5,-460.5 207.5,-490.5 370.5,-490.5 370.5,-460.5 207.5,-460.5"/>
<text text-anchor="start" x="215.5" y="-478.5" font-family="Helvetica,sans-Serif" font-size="10.00">fspm.config.ConfigTest.access</text>
<text text-anchor="middle" x="289" y="-467.5" font-family="Helvetica,sans-Serif" font-size="10.00">Examples</text>
</a>
</g>
</g>
<!-- Node9&#45;&gt;Node10 -->
<g id="edge10" class="edge">
<title>Node9&#45;&gt;Node10</title>
<path fill="none" stroke="midnightblue" d="M441.01,-438.43C430.14,-441.09 418.68,-443.89 408,-446.5 389.56,-451.02 369.5,-455.94 351.24,-460.43"/>
<polygon fill="midnightblue" stroke="midnightblue" points="441.9,-441.82 450.79,-436.05 440.24,-435.02 441.9,-441.82"/>
</g>
<!-- Node11 -->
<g id="node11" class="node">
<title>Node11</title>
<g id="a_node11"><a xlink:href="classfspm_1_1config_1_1Config_a7ea65e4b8e2ba486cc4dca0c4e1eb234.html#a7ea65e4b8e2ba486cc4dca0c4e1eb234" target="_top" xlink:title=" ">
<polygon fill="none" stroke="black" points="206,-510 206,-529 372,-529 372,-510 206,-510"/>
<text text-anchor="middle" x="289" y="-517" font-family="Helvetica,sans-Serif" font-size="10.00">fspm.config.Config.getBoolean</text>
</a>
</g>
</g>
<!-- Node9&#45;&gt;Node11 -->
<g id="edge11" class="edge">
<title>Node9&#45;&gt;Node11</title>
<path fill="none" stroke="midnightblue" d="M419.23,-439.99C415.29,-441.88 411.51,-444.04 408,-446.5 384.37,-463.05 395.72,-484.09 372,-500.5 366.35,-504.41 360.01,-507.52 353.43,-510"/>
<polygon fill="midnightblue" stroke="midnightblue" points="420.8,-443.13 428.66,-436.03 418.09,-436.67 420.8,-443.13"/>
</g>
<!-- Node12&#45;&gt;Node5 -->
<g id="edge16" class="edge">
<title>Node12&#45;&gt;Node5</title>
<path fill="none" stroke="midnightblue" d="M436.47,-302.73C426.14,-307.11 416.05,-312.9 408,-320.5 379.36,-347.55 401.51,-375.4 372,-401.5 367.65,-405.35 362.73,-408.6 357.5,-411.35"/>
<polygon fill="midnightblue" stroke="midnightblue" points="437.89,-305.93 445.97,-299.08 435.38,-299.4 437.89,-305.93"/>
</g>
<!-- Node13 -->
<g id="node13" class="node">
<title>Node13</title>
<g id="a_node13"><a xlink:href="classfspm_1_1config_1_1Config_a75f0ff59af54ebe3b864a01dc59b1663.html#a75f0ff59af54ebe3b864a01dc59b1663" target="_top" xlink:title=" ">
<polygon fill="none" stroke="black" points="208.5,-236 208.5,-255 369.5,-255 369.5,-236 208.5,-236"/>
<text text-anchor="middle" x="289" y="-243" font-family="Helvetica,sans-Serif" font-size="10.00">fspm.config.Config.getDouble</text>
</a>
</g>
</g>
<!-- Node12&#45;&gt;Node13 -->
<g id="edge14" class="edge">
<title>Node12&#45;&gt;Node13</title>
<path fill="none" stroke="midnightblue" d="M436.44,-277.72C404.15,-270.61 363.56,-261.68 333.31,-255.03"/>
<polygon fill="midnightblue" stroke="midnightblue" points="436.08,-281.22 446.6,-279.95 437.59,-274.39 436.08,-281.22"/>
</g>
<!-- Node14 -->
<g id="node14" class="node">
<title>Node14</title>
<g id="a_node14"><a xlink:href="classfspm_1_1config_1_1ConfigTest_ab639b7af67e947577db2ab2c9bc95a87.html#ab639b7af67e947577db2ab2c9bc95a87" target="_top" xlink:title=" ">
<polygon fill="none" stroke="black" points="214.5,-186.5 214.5,-216.5 363.5,-216.5 363.5,-186.5 214.5,-186.5"/>
<text text-anchor="start" x="222.5" y="-204.5" font-family="Helvetica,sans-Serif" font-size="10.00">fspm.config.ConfigTest.test</text>
<text text-anchor="middle" x="289" y="-193.5" font-family="Helvetica,sans-Serif" font-size="10.00">_default</text>
</a>
</g>
</g>
<!-- Node12&#45;&gt;Node14 -->
<g id="edge15" class="edge">
<title>Node12&#45;&gt;Node14</title>
<path fill="none" stroke="midnightblue" d="M465.57,-274.64C442.17,-260.85 405.56,-240.42 372,-226.5 363.34,-222.91 353.97,-219.57 344.78,-216.58"/>
<polygon fill="midnightblue" stroke="midnightblue" points="464.06,-277.82 474.45,-279.93 467.65,-271.8 464.06,-277.82"/>
</g>
<!-- Node15 -->
<g id="node15" class="node">
<title>Node15</title>
<g id="a_node15"><a xlink:href="classfspm_1_1config_1_1ConfigTest_a0ff566e57202c3f9bf2125d70d9c6b41.html#a0ff566e57202c3f9bf2125d70d9c6b41" target="_top" xlink:title=" ">
<polygon fill="none" stroke="black" points="214.5,-323.5 214.5,-353.5 363.5,-353.5 363.5,-323.5 214.5,-323.5"/>
<text text-anchor="start" x="222.5" y="-341.5" font-family="Helvetica,sans-Serif" font-size="10.00">fspm.config.ConfigTest.test</text>
<text text-anchor="middle" x="289" y="-330.5" font-family="Helvetica,sans-Serif" font-size="10.00">_getFloatAsDouble</text>
</a>
</g>
</g>
<!-- Node12&#45;&gt;Node15 -->
<g id="edge17" class="edge">
<title>Node12&#45;&gt;Node15</title>
<path fill="none" stroke="midnightblue" d="M440.96,-301.51C413.94,-308.14 380.14,-316.42 351.38,-323.46"/>
<polygon fill="midnightblue" stroke="midnightblue" points="442.08,-304.84 450.96,-299.06 440.42,-298.04 442.08,-304.84"/>
</g>
<!-- Node16 -->
<g id="node16" class="node">
<title>Node16</title>
<g id="a_node16"><a xlink:href="classfspm_1_1config_1_1ConfigTest_a08a6bb001d92ffa4a466c0b0b816a878.html#a08a6bb001d92ffa4a466c0b0b816a878" target="_top" xlink:title=" ">
<polygon fill="none" stroke="black" points="214.5,-274.5 214.5,-304.5 363.5,-304.5 363.5,-274.5 214.5,-274.5"/>
<text text-anchor="start" x="222.5" y="-292.5" font-family="Helvetica,sans-Serif" font-size="10.00">fspm.config.ConfigTest.test</text>
<text text-anchor="middle" x="289" y="-281.5" font-family="Helvetica,sans-Serif" font-size="10.00">_getIntAsDouble</text>
</a>
</g>
</g>
<!-- Node12&#45;&gt;Node16 -->
<g id="edge18" class="edge">
<title>Node12&#45;&gt;Node16</title>
<path fill="none" stroke="midnightblue" d="M400.15,-289.5C387.89,-289.5 375.43,-289.5 363.5,-289.5"/>
<polygon fill="midnightblue" stroke="midnightblue" points="400.38,-293 410.38,-289.5 400.38,-286 400.38,-293"/>
</g>
<!-- Node17 -->
<g id="node17" class="node">
<title>Node17</title>
<g id="a_node17"><a xlink:href="classfspm_1_1config_1_1ConfigTest_aa9e41d045f61b82c742edbd88424aff3.html#aa9e41d045f61b82c742edbd88424aff3" target="_top" xlink:title=" ">
<polygon fill="none" stroke="black" points="214.5,-137.5 214.5,-167.5 363.5,-167.5 363.5,-137.5 214.5,-137.5"/>
<text text-anchor="start" x="222.5" y="-155.5" font-family="Helvetica,sans-Serif" font-size="10.00">fspm.config.ConfigTest.test</text>
<text text-anchor="middle" x="289" y="-144.5" font-family="Helvetica,sans-Serif" font-size="10.00">_getNullAsTypes</text>
</a>
</g>
</g>
<!-- Node12&#45;&gt;Node17 -->
<g id="edge19" class="edge">
<title>Node12&#45;&gt;Node17</title>
<path fill="none" stroke="midnightblue" d="M458.08,-275.37C441.68,-266.97 422.22,-255.1 408,-240.5 385.23,-217.12 397.55,-196.81 372,-176.5 367.7,-173.09 362.94,-170.16 357.92,-167.64"/>
<polygon fill="midnightblue" stroke="midnightblue" points="456.8,-278.64 467.31,-279.91 459.88,-272.36 456.8,-278.64"/>
</g>
<!-- Node18 -->
<g id="node18" class="node">
<title>Node18</title>
<g id="a_node18"><a xlink:href="classfspm_1_1config_1_1ConfigTest_a0ace3587e0462f748617e279d4d0c659.html#a0ace3587e0462f748617e279d4d0c659" target="_top" xlink:title=" ">
<polygon fill="none" stroke="black" points="10.5,-137.5 10.5,-167.5 159.5,-167.5 159.5,-137.5 10.5,-137.5"/>
<text text-anchor="start" x="18.5" y="-155.5" font-family="Helvetica,sans-Serif" font-size="10.00">fspm.config.ConfigTest.test</text>
<text text-anchor="middle" x="85" y="-144.5" font-family="Helvetica,sans-Serif" font-size="10.00">_types</text>
</a>
</g>
</g>
<!-- Node17&#45;&gt;Node18 -->
<g id="edge20" class="edge">
<title>Node17&#45;&gt;Node18</title>
<path fill="none" stroke="midnightblue" d="M204.09,-152.5C189.32,-152.5 174.04,-152.5 159.58,-152.5"/>
<polygon fill="midnightblue" stroke="midnightblue" points="204.22,-156 214.22,-152.5 204.22,-149 204.22,-156"/>
</g>
<!-- Node20 -->
<g id="node20" class="node">
<title>Node20</title>
<g id="a_node20"><a xlink:href="classfspm_1_1config_1_1Config_ab63abbac8c043b0cd64927d084bd4c49.html#ab63abbac8c043b0cd64927d084bd4c49" target="_top" xlink:title=" ">
<polygon fill="none" stroke="black" points="208.5,-49.5 208.5,-79.5 369.5,-79.5 369.5,-49.5 208.5,-49.5"/>
<text text-anchor="start" x="216.5" y="-67.5" font-family="Helvetica,sans-Serif" font-size="10.00">fspm.config.Config.getDouble</text>
<text text-anchor="middle" x="289" y="-56.5" font-family="Helvetica,sans-Serif" font-size="10.00">Array</text>
</a>
</g>
</g>
<!-- Node19&#45;&gt;Node20 -->
<g id="edge22" class="edge">
<title>Node19&#45;&gt;Node20</title>
<path fill="none" stroke="midnightblue" d="M400.25,-64.5C390.06,-64.5 379.72,-64.5 369.67,-64.5"/>
<polygon fill="midnightblue" stroke="midnightblue" points="400.38,-68 410.38,-64.5 400.38,-61 400.38,-68"/>
</g>
<!-- Node21 -->
<g id="node21" class="node">
<title>Node21</title>
<g id="a_node21"><a xlink:href="classfspm_1_1config_1_1ConfigTest_a06c9116c21e1df253ca6b4056a187bad.html#a06c9116c21e1df253ca6b4056a187bad" target="_top" xlink:title=" ">
<polygon fill="none" stroke="black" points="214.5,-0.5 214.5,-30.5 363.5,-30.5 363.5,-0.5 214.5,-0.5"/>
<text text-anchor="start" x="222.5" y="-18.5" font-family="Helvetica,sans-Serif" font-size="10.00">fspm.config.ConfigTest.test</text>
<text text-anchor="middle" x="289" y="-7.5" font-family="Helvetica,sans-Serif" font-size="10.00">_phenology</text>
</a>
</g>
</g>
<!-- Node19&#45;&gt;Node21 -->
<g id="edge23" class="edge">
<title>Node19&#45;&gt;Node21</title>
<path fill="none" stroke="midnightblue" d="M418.67,-47.02C396.62,-41.62 372.55,-35.72 351.25,-30.51"/>
<polygon fill="midnightblue" stroke="midnightblue" points="418.09,-50.49 428.63,-49.47 419.75,-43.69 418.09,-50.49"/>
</g>
<!-- Node22&#45;&gt;Node17 -->
<g id="edge26" class="edge">
<title>Node22&#45;&gt;Node17</title>
<path fill="none" stroke="midnightblue" d="M400.15,-152.5C387.89,-152.5 375.43,-152.5 363.5,-152.5"/>
<polygon fill="midnightblue" stroke="midnightblue" points="400.38,-156 410.38,-152.5 400.38,-149 400.38,-156"/>
</g>
<!-- Node23 -->
<g id="node23" class="node">
<title>Node23</title>
<g id="a_node23"><a xlink:href="classfspm_1_1config_1_1Config_ab43ca088e354eed9af2d74c813e08ff8.html#ab43ca088e354eed9af2d74c813e08ff8" target="_top" xlink:title=" ">
<polygon fill="none" stroke="black" points="208.5,-99 208.5,-118 369.5,-118 369.5,-99 208.5,-99"/>
<text text-anchor="middle" x="289" y="-106" font-family="Helvetica,sans-Serif" font-size="10.00">fspm.config.Config.getInteger</text>
</a>
</g>
</g>
<!-- Node22&#45;&gt;Node23 -->
<g id="edge25" class="edge">
<title>Node22&#45;&gt;Node23</title>
<path fill="none" stroke="midnightblue" d="M436.44,-140.72C404.15,-133.61 363.56,-124.68 333.31,-118.03"/>
<polygon fill="midnightblue" stroke="midnightblue" points="436.08,-144.22 446.6,-142.95 437.59,-137.39 436.08,-144.22"/>
</g>
<!-- Node24&#45;&gt;Node5 -->
<g id="edge30" class="edge">
<title>Node24&#45;&gt;Node5</title>
<path fill="none" stroke="midnightblue" d="M419.31,-352.65C415.37,-354.37 411.57,-356.31 408,-358.5 386.76,-371.54 392.78,-387.74 372,-401.5 366.17,-405.36 359.71,-408.65 353.06,-411.44"/>
<polygon fill="midnightblue" stroke="midnightblue" points="420.61,-355.9 428.68,-349.04 418.09,-349.37 420.61,-355.9"/>
</g>
<!-- Node24&#45;&gt;Node10 -->
<g id="edge28" class="edge">
<title>Node24&#45;&gt;Node10</title>
<path fill="none" stroke="midnightblue" d="M413.67,-354.19C411.69,-355.51 409.79,-356.94 408,-358.5 374.52,-387.54 404.64,-421.51 372,-451.5 368.29,-454.91 364.11,-457.84 359.67,-460.36"/>
<polygon fill="midnightblue" stroke="midnightblue" points="415.79,-357.01 422.81,-349.07 412.37,-350.9 415.79,-357.01"/>
</g>
<!-- Node24&#45;&gt;Node17 -->
<g id="edge31" class="edge">
<title>Node24&#45;&gt;Node17</title>
<path fill="none" stroke="midnightblue" d="M433.02,-326.05C423.68,-321.72 414.83,-316.02 408,-308.5 367.1,-263.5 414.6,-219.89 372,-176.5 368.67,-173.11 364.9,-170.2 360.84,-167.69"/>
<polygon fill="midnightblue" stroke="midnightblue" points="431.89,-329.37 442.47,-329.93 434.55,-322.89 431.89,-329.37"/>
</g>
<!-- Node25 -->
<g id="node25" class="node">
<title>Node25</title>
<g id="a_node25"><a xlink:href="classfspm_1_1config_1_1Config_af23cb05ac69ea93fa48ed533f677ff1d.html#af23cb05ac69ea93fa48ed533f677ff1d" target="_top" xlink:title=" ">
<polygon fill="none" stroke="black" points="211.5,-373 211.5,-392 366.5,-392 366.5,-373 211.5,-373"/>
<text text-anchor="middle" x="289" y="-380" font-family="Helvetica,sans-Serif" font-size="10.00">fspm.config.Config.getString</text>
</a>
</g>
</g>
<!-- Node24&#45;&gt;Node25 -->
<g id="edge29" class="edge">
<title>Node24&#45;&gt;Node25</title>
<path fill="none" stroke="midnightblue" d="M435.58,-351.2C403.78,-358.04 364.14,-366.56 334.26,-372.98"/>
<polygon fill="midnightblue" stroke="midnightblue" points="436.57,-354.57 445.61,-349.04 435.1,-347.72 436.57,-354.57"/>
</g>
<!-- Node26&#45;&gt;Node17 -->
<g id="edge33" class="edge">
<title>Node26&#45;&gt;Node17</title>
<path fill="none" stroke="midnightblue" d="M457.19,-208.18C433.66,-198.83 401.09,-186.29 372,-176.5 362.86,-173.43 353.08,-170.37 343.56,-167.51"/>
<polygon fill="midnightblue" stroke="midnightblue" points="456.11,-211.52 466.69,-211.98 458.7,-205.02 456.11,-211.52"/>
</g>
<!-- Node28&#45;&gt;Node8 -->
<g id="edge36" class="edge">
<title>Node28&#45;&gt;Node8</title>
<path fill="none" stroke="midnightblue" d="M782.5,-319.5C772.59,-319.5 762.63,-319.5 753.05,-319.5"/>
<polygon fill="midnightblue" stroke="midnightblue" points="782.79,-323 792.79,-319.5 782.79,-316 782.79,-323"/>
</g>
</g>
</svg>
        <g id="navigator" transform="translate(0 0)" fill="#404254">
                <rect fill="#f2f5e9" fill-opacity="0.5" stroke="#606060" stroke-width=".5" x="0" y="0" width="60" height="60"/>
                <use id="zoomplus" xlink:href="#zoomPlus" x="17" y="9" onmousedown="handleZoom(evt,'in')"/>
                <use id="zoomminus" xlink:href="#zoomMin" x="42" y="9" onmousedown="handleZoom(evt,'out')"/>
                <use id="reset" xlink:href="#resetDef" x="30" y="36" onmousedown="handleReset()"/>
                <g id="arrowUp" xlink:href="#dirArrow" transform="translate(30 24)" onmousedown="handlePan(0,-1)">
                  <use xlink:href="#rim" fill="#404040">
                        <set attributeName="fill" to="#808080" begin="arrowUp.mouseover" end="arrowUp.mouseout"/>
                  </use>
                  <path fill="none" stroke="white" stroke-width="1.5" d="M0,-3.0v7 M-2.5,-0.5L0,-3.0L2.5,-0.5"/>
                </g>
                <g id="arrowRight" xlink:href="#dirArrow" transform="rotate(90) translate(36 -43)" onmousedown="handlePan(1,0)">
                  <use xlink:href="#rim" fill="#404040">
                        <set attributeName="fill" to="#808080" begin="arrowRight.mouseover" end="arrowRight.mouseout"/>
                  </use>
                  <path fill="none" stroke="white" stroke-width="1.5" d="M0,-3.0v7 M-2.5,-0.5L0,-3.0L2.5,-0.5"/>
                </g>
                <g id="arrowDown" xlink:href="#dirArrow" transform="rotate(180) translate(-30 -48)" onmousedown="handlePan(0,1)">
                  <use xlink:href="#rim" fill="#404040">
                        <set attributeName="fill" to="#808080" begin="arrowDown.mouseover" end="arrowDown.mouseout"/>
                  </use>
                  <path fill="none" stroke="white" stroke-width="1.5" d="M0,-3.0v7 M-2.5,-0.5L0,-3.0L2.5,-0.5"/>
                </g>
                <g id="arrowLeft" xlink:href="#dirArrow" transform="rotate(270) translate(-36 17)" onmousedown="handlePan(-1,0)">
                  <use xlink:href="#rim" fill="#404040">
                        <set attributeName="fill" to="#808080" begin="arrowLeft.mouseover" end="arrowLeft.mouseout"/>
                  </use>
                  <path fill="none" stroke="white" stroke-width="1.5" d="M0,-3.0v7 M-2.5,-0.5L0,-3.0L2.5,-0.5"/>
                </g>
        </g>
        <svg viewBox="0 0 15 15" width="100%" height="30px" preserveAspectRatio="xMaxYMin meet">
         <g id="arrow_out" transform="scale(0.3 0.3)">
          <a xlink:href="classfspm_1_1config_1_1params_1_1ParamCategory_aac7a0ce7ab7fafe895ba689f644818ab_aac7a0ce7ab7fafe895ba689f644818ab_icgraph_org.svg" target="_base">
           <rect id="button" ry="5" rx="5" y="6" x="6" height="38" width="38"
                fill="#f2f5e9" fill-opacity="0.5" stroke="#606060" stroke-width="1.0"/>
           <path id="arrow"
             d="M 11.500037,31.436501 C 11.940474,20.09759 22.043105,11.32322 32.158766,21.979434 L 37.068811,17.246167 C 37.068811,17.246167 37.088388,32 37.088388,32 L 22.160133,31.978069 C 22.160133,31.978069 26.997745,27.140456 26.997745,27.140456 C 18.528582,18.264221 13.291696,25.230495 11.500037,31.436501 z"
             style="fill:#404040;"/>
          </a>
         </g>
        </svg>
</svg>
