<?xml version="1.0" encoding="UTF-8" standalone="no"?>
<!DOCTYPE svg PUBLIC "-//W3C//DTD SVG 1.1//EN"
 "http://www.w3.org/Graphics/SVG/1.1/DTD/svg11.dtd">
<!-- Generated by graphviz version 2.43.0 (0)
 -->
<!-- Title: fspm.config.params.ParamFactory Pages: 1 -->
<svg width="161pt" height="193pt"
 viewBox="0.00 0.00 160.50 193.00" xmlns="http://www.w3.org/2000/svg" xmlns:xlink="http://www.w3.org/1999/xlink">
<g id="graph0" class="graph" transform="scale(1 1) rotate(0) translate(4 189)">
<title>fspm.config.params.ParamFactory</title>
<!-- Node1 -->
<g id="node1" class="node">
<title>Node1</title>
<g id="a_node1"><a xlink:title="ParamFactory creates instances of Parameters depending on the data type of the field being read.">
<polygon fill="#bfbfbf" stroke="black" points="0,-0.5 0,-79.5 147,-79.5 147,-0.5 0,-0.5"/>
<text text-anchor="start" x="8" y="-67.5" font-family="Helvetica,sans-Serif" font-size="10.00">fspm.config.params.Param</text>
<text text-anchor="middle" x="73.5" y="-56.5" font-family="Helvetica,sans-Serif" font-size="10.00">Factory</text>
<polyline fill="none" stroke="black" points="0,-49.5 147,-49.5 "/>
<text text-anchor="middle" x="73.5" y="-37.5" font-family="Helvetica,sans-Serif" font-size="10.00"> </text>
<polyline fill="none" stroke="black" points="0,-30.5 147,-30.5 "/>
<text text-anchor="start" x="8" y="-18.5" font-family="Helvetica,sans-Serif" font-size="10.00">+ parseParameter()</text>
<text text-anchor="start" x="8" y="-7.5" font-family="Helvetica,sans-Serif" font-size="10.00">~ createParameter()</text>
</a>
</g>
</g>
<!-- Node2 -->
<g id="node2" class="node">
<title>Node2</title>
<g id="a_node2"><a xlink:title=" ">
<polygon fill="none" stroke="#bfbfbf" points="24,-127.5 24,-184.5 123,-184.5 123,-127.5 24,-127.5"/>
<text text-anchor="middle" x="73.5" y="-172.5" font-family="Helvetica,sans-Serif" font-size="10.00">static final String</text>
<polyline fill="none" stroke="#bfbfbf" points="24,-165.5 123,-165.5 "/>
<text text-anchor="middle" x="73.5" y="-153.5" font-family="Helvetica,sans-Serif" font-size="10.00"> </text>
<polyline fill="none" stroke="#bfbfbf" points="24,-146.5 123,-146.5 "/>
<text text-anchor="middle" x="73.5" y="-134.5" font-family="Helvetica,sans-Serif" font-size="10.00"> </text>
</a>
</g>
</g>
<!-- Node2&#45;&gt;Node1 -->
<g id="edge1" class="edge">
<title>Node2&#45;&gt;Node1</title>
<path fill="none" stroke="#404040" d="M73.5,-127.4C73.5,-116.63 73.5,-103.93 73.5,-91.62"/>
<polygon fill="none" stroke="#404040" points="73.5,-91.54 69.5,-85.54 73.5,-79.54 77.5,-85.54 73.5,-91.54"/>
<text text-anchor="middle" x="113" y="-101" font-family="Helvetica,sans-Serif" font-size="10.00"> +NULL_STRING</text>
</g>
</g>
</svg>
