<?xml version="1.0" encoding="UTF-8" standalone="no"?>
<!DOCTYPE svg PUBLIC "-//W3C//DTD SVG 1.1//EN"
 "http://www.w3.org/Graphics/SVG/1.1/DTD/svg11.dtd">
<!-- Generated by graphviz version 2.43.0 (0)
 -->
<!-- Title: fspm.config.ConfigTest.test_flatCategories Pages: 1 -->
<svg width="1158pt" height="443pt"
 viewBox="0.00 0.00 1158.00 443.14" xmlns="http://www.w3.org/2000/svg" xmlns:xlink="http://www.w3.org/1999/xlink">
<g id="graph0" class="graph" transform="scale(1 1) rotate(0) translate(4 439.14)">
<title>fspm.config.ConfigTest.test_flatCategories</title>
<!-- Node1 -->
<g id="node1" class="node">
<title>Node1</title>
<g id="a_node1"><a xlink:title=" ">
<polygon fill="#bfbfbf" stroke="black" points="0,-150.64 0,-180.64 149,-180.64 149,-150.64 0,-150.64"/>
<text text-anchor="start" x="8" y="-168.64" font-family="Helvetica,sans-Serif" font-size="10.00">fspm.config.ConfigTest.test</text>
<text text-anchor="middle" x="74.5" y="-157.64" font-family="Helvetica,sans-Serif" font-size="10.00">_flatCategories</text>
</a>
</g>
</g>
<!-- Node2 -->
<g id="node2" class="node">
<title>Node2</title>
<g id="a_node2"><a xlink:href="classfspm_1_1config_1_1ConfigTest_ad96b864581ccf61453d97330a34958f8.html#ad96b864581ccf61453d97330a34958f8" target="_top" xlink:title=" ">
<polygon fill="none" stroke="black" points="194,-341.64 194,-371.64 342,-371.64 342,-341.64 194,-341.64"/>
<text text-anchor="start" x="202" y="-359.64" font-family="Helvetica,sans-Serif" font-size="10.00">fspm.config.ConfigTest.add</text>
<text text-anchor="middle" x="268" y="-348.64" font-family="Helvetica,sans-Serif" font-size="10.00">Groups</text>
</a>
</g>
</g>
<!-- Node1&#45;&gt;Node2 -->
<g id="edge1" class="edge">
<title>Node1&#45;&gt;Node2</title>
<path fill="none" stroke="midnightblue" d="M89.78,-181C110.45,-203.12 150.07,-245.1 185,-279.64 204.09,-298.52 226.33,-319.33 242.83,-334.55"/>
<polygon fill="midnightblue" stroke="midnightblue" points="240.7,-337.35 250.43,-341.54 245.44,-332.2 240.7,-337.35"/>
</g>
<!-- Node8 -->
<g id="node8" class="node">
<title>Node8</title>
<g id="a_node8"><a xlink:href="classfspm_1_1config_1_1Config_ae827f35da2e09b1d18f5a82538db57bc.html#ae827f35da2e09b1d18f5a82538db57bc" target="_top" xlink:title=" ">
<polygon fill="none" stroke="black" points="185,-175.14 185,-194.14 351,-194.14 351,-175.14 185,-175.14"/>
<text text-anchor="middle" x="268" y="-182.14" font-family="Helvetica,sans-Serif" font-size="10.00">fspm.config.Config.getBoolean</text>
</a>
</g>
</g>
<!-- Node1&#45;&gt;Node8 -->
<g id="edge7" class="edge">
<title>Node1&#45;&gt;Node8</title>
<path fill="none" stroke="midnightblue" d="M149.26,-172.96C157.67,-173.79 166.32,-174.65 174.92,-175.5"/>
<polygon fill="midnightblue" stroke="midnightblue" points="174.69,-179 184.99,-176.5 175.38,-172.03 174.69,-179"/>
</g>
<!-- Node18 -->
<g id="node18" class="node">
<title>Node18</title>
<g id="a_node18"><a xlink:href="classfspm_1_1config_1_1Config_ae462a8b94814530c25f796f0b4f48115.html#ae462a8b94814530c25f796f0b4f48115" target="_top" xlink:title=" ">
<polygon fill="none" stroke="black" points="187.5,-251.14 187.5,-270.14 348.5,-270.14 348.5,-251.14 187.5,-251.14"/>
<text text-anchor="middle" x="268" y="-258.14" font-family="Helvetica,sans-Serif" font-size="10.00">fspm.config.Config.getDouble</text>
</a>
</g>
</g>
<!-- Node1&#45;&gt;Node18 -->
<g id="edge20" class="edge">
<title>Node1&#45;&gt;Node18</title>
<path fill="none" stroke="midnightblue" d="M92.82,-180.82C113.41,-198.08 149.46,-225.88 185,-241.64 190.7,-244.16 196.78,-246.37 202.94,-248.31"/>
<polygon fill="midnightblue" stroke="midnightblue" points="202.1,-251.71 212.68,-251.12 204.04,-244.98 202.1,-251.71"/>
</g>
<!-- Node20 -->
<g id="node20" class="node">
<title>Node20</title>
<g id="a_node20"><a xlink:href="classfspm_1_1config_1_1Config_a8ef1527d11b0866fcd366c9fc2b84306.html#a8ef1527d11b0866fcd366c9fc2b84306" target="_top" xlink:title="Gets the parameter group with the given key.">
<polygon fill="none" stroke="black" points="388.5,-93.14 388.5,-112.14 543.5,-112.14 543.5,-93.14 388.5,-93.14"/>
<text text-anchor="middle" x="466" y="-100.14" font-family="Helvetica,sans-Serif" font-size="10.00">fspm.config.Config.getGroup</text>
</a>
</g>
</g>
<!-- Node1&#45;&gt;Node20 -->
<g id="edge25" class="edge">
<title>Node1&#45;&gt;Node20</title>
<path fill="none" stroke="midnightblue" d="M149.09,-156.58C204.7,-149.41 282.85,-138.62 351,-126.64 371.44,-123.04 393.81,-118.47 413.28,-114.29"/>
<polygon fill="midnightblue" stroke="midnightblue" points="414.14,-117.68 423.17,-112.14 412.66,-110.84 414.14,-117.68"/>
</g>
<!-- Node21 -->
<g id="node21" class="node">
<title>Node21</title>
<g id="a_node21"><a xlink:href="classfspm_1_1config_1_1Config_a3be13c8aecc91ab1cd95692ec65df305.html#a3be13c8aecc91ab1cd95692ec65df305" target="_top" xlink:title=" ">
<polygon fill="none" stroke="black" points="190.5,-213.14 190.5,-232.14 345.5,-232.14 345.5,-213.14 190.5,-213.14"/>
<text text-anchor="middle" x="268" y="-220.14" font-family="Helvetica,sans-Serif" font-size="10.00">fspm.config.Config.getString</text>
</a>
</g>
</g>
<!-- Node1&#45;&gt;Node21 -->
<g id="edge26" class="edge">
<title>Node1&#45;&gt;Node21</title>
<path fill="none" stroke="midnightblue" d="M115.48,-180.66C136.08,-188.1 161.7,-196.92 185,-203.64 193.57,-206.11 202.71,-208.48 211.67,-210.66"/>
<polygon fill="midnightblue" stroke="midnightblue" points="211.13,-214.13 221.66,-213.04 212.74,-207.32 211.13,-214.13"/>
</g>
<!-- Node23 -->
<g id="node23" class="node">
<title>Node23</title>
<g id="a_node23"><a xlink:href="classfspm_1_1config_1_1ConfigTest_a1f7ba3e24b4e27a319db83eb75e9f691.html#a1f7ba3e24b4e27a319db83eb75e9f691" target="_top" xlink:title=" ">
<polygon fill="none" stroke="black" points="187.5,-49.14 187.5,-68.14 348.5,-68.14 348.5,-49.14 187.5,-49.14"/>
<text text-anchor="middle" x="268" y="-56.14" font-family="Helvetica,sans-Serif" font-size="10.00">fspm.config.ConfigTest.println</text>
</a>
</g>
</g>
<!-- Node1&#45;&gt;Node23 -->
<g id="edge31" class="edge">
<title>Node1&#45;&gt;Node23</title>
<path fill="none" stroke="midnightblue" d="M89.92,-150.38C109.54,-130.56 146.61,-96.29 185,-77.64 189.93,-75.24 195.17,-73.14 200.53,-71.3"/>
<polygon fill="midnightblue" stroke="midnightblue" points="201.77,-74.58 210.27,-68.26 199.68,-67.9 201.77,-74.58"/>
</g>
<!-- Node24 -->
<g id="node24" class="node">
<title>Node24</title>
<g id="a_node24"><a xlink:href="classfspm_1_1config_1_1Config_a6069a78eec5ca1610f69d9556802e8a5.html#a6069a78eec5ca1610f69d9556802e8a5" target="_top" xlink:title=" ">
<polygon fill="none" stroke="black" points="200.5,-11.14 200.5,-30.14 335.5,-30.14 335.5,-11.14 200.5,-11.14"/>
<text text-anchor="middle" x="268" y="-18.14" font-family="Helvetica,sans-Serif" font-size="10.00">fspm.config.Config.reset</text>
</a>
</g>
</g>
<!-- Node1&#45;&gt;Node24 -->
<g id="edge32" class="edge">
<title>Node1&#45;&gt;Node24</title>
<path fill="none" stroke="midnightblue" d="M84.17,-150.49C100.35,-123.68 137.81,-68.02 185,-39.64 188.66,-37.43 192.56,-35.49 196.59,-33.76"/>
<polygon fill="midnightblue" stroke="midnightblue" points="198.06,-36.95 206.18,-30.14 195.59,-30.4 198.06,-36.95"/>
</g>
<!-- Node25 -->
<g id="node25" class="node">
<title>Node25</title>
<g id="a_node25"><a xlink:href="classfspm_1_1config_1_1Config_a97ddea0bf83d5ca1c6c42e8edf12bf7c.html#a97ddea0bf83d5ca1c6c42e8edf12bf7c" target="_top" xlink:title=" ">
<polygon fill="none" stroke="black" points="190.5,-87.64 190.5,-117.64 345.5,-117.64 345.5,-87.64 190.5,-87.64"/>
<text text-anchor="start" x="198.5" y="-105.64" font-family="Helvetica,sans-Serif" font-size="10.00">fspm.config.Config.setGroup</text>
<text text-anchor="middle" x="268" y="-94.64" font-family="Helvetica,sans-Serif" font-size="10.00">Context</text>
</a>
</g>
</g>
<!-- Node1&#45;&gt;Node25 -->
<g id="edge33" class="edge">
<title>Node1&#45;&gt;Node25</title>
<path fill="none" stroke="midnightblue" d="M121.37,-150.55C148.39,-141.66 182.77,-130.35 211.33,-120.95"/>
<polygon fill="midnightblue" stroke="midnightblue" points="212.77,-124.16 221.17,-117.71 210.58,-117.51 212.77,-124.16"/>
</g>
<!-- Node3 -->
<g id="node3" class="node">
<title>Node3</title>
<g id="a_node3"><a xlink:href="classfspm_1_1config_1_1params_1_1ParamCategory_ad03625c20e319546f4f20eec30de6aba.html#ad03625c20e319546f4f20eec30de6aba" target="_top" xlink:title="Adds a new Parameter to the category.">
<polygon fill="none" stroke="black" points="392.5,-404.64 392.5,-434.64 539.5,-434.64 539.5,-404.64 392.5,-404.64"/>
<text text-anchor="start" x="400.5" y="-422.64" font-family="Helvetica,sans-Serif" font-size="10.00">fspm.config.params.Param</text>
<text text-anchor="middle" x="466" y="-411.64" font-family="Helvetica,sans-Serif" font-size="10.00">Category.add</text>
</a>
</g>
</g>
<!-- Node2&#45;&gt;Node3 -->
<g id="edge2" class="edge">
<title>Node2&#45;&gt;Node3</title>
<path fill="none" stroke="midnightblue" d="M315.95,-371.73C343.72,-380.66 379.09,-392.02 408.41,-401.45"/>
<polygon fill="midnightblue" stroke="midnightblue" points="407.51,-404.83 418.1,-404.56 409.65,-398.17 407.51,-404.83"/>
</g>
<!-- Node5 -->
<g id="node5" class="node">
<title>Node5</title>
<g id="a_node5"><a xlink:href="classfspm_1_1config_1_1params_1_1ParamGroup_ac83104c7751a96252a45ca014d3a7630.html#ac83104c7751a96252a45ca014d3a7630" target="_top" xlink:title="Adds a new category.">
<polygon fill="none" stroke="black" points="820,-339.64 820,-369.64 967,-369.64 967,-339.64 820,-339.64"/>
<text text-anchor="start" x="828" y="-357.64" font-family="Helvetica,sans-Serif" font-size="10.00">fspm.config.params.Param</text>
<text text-anchor="middle" x="893.5" y="-346.64" font-family="Helvetica,sans-Serif" font-size="10.00">Group.addCategory</text>
</a>
</g>
</g>
<!-- Node2&#45;&gt;Node5 -->
<g id="edge4" class="edge">
<title>Node2&#45;&gt;Node5</title>
<path fill="none" stroke="midnightblue" d="M342.22,-356.75C397.84,-356.81 476.24,-356.84 545,-356.64 635.57,-356.38 739.41,-355.73 809.81,-355.25"/>
<polygon fill="midnightblue" stroke="midnightblue" points="809.98,-358.75 819.95,-355.18 809.93,-351.75 809.98,-358.75"/>
</g>
<!-- Node7 -->
<g id="node7" class="node">
<title>Node7</title>
<g id="a_node7"><a xlink:href="classfspm_1_1config_1_1Config_a42612499256e159a84e5244fcae25b31.html#a42612499256e159a84e5244fcae25b31" target="_top" xlink:title=" ">
<polygon fill="none" stroke="black" points="387,-328.14 387,-347.14 545,-347.14 545,-328.14 387,-328.14"/>
<text text-anchor="middle" x="466" y="-335.14" font-family="Helvetica,sans-Serif" font-size="10.00">fspm.config.Config.addGroup</text>
</a>
</g>
</g>
<!-- Node2&#45;&gt;Node7 -->
<g id="edge6" class="edge">
<title>Node2&#45;&gt;Node7</title>
<path fill="none" stroke="midnightblue" d="M342.26,-349.54C353.53,-348.44 365.27,-347.31 376.82,-346.19"/>
<polygon fill="midnightblue" stroke="midnightblue" points="377.29,-349.66 386.91,-345.21 376.62,-342.69 377.29,-349.66"/>
</g>
<!-- Node4 -->
<g id="node4" class="node">
<title>Node4</title>
<g id="a_node4"><a xlink:href="classfspm_1_1config_1_1params_1_1Parameter_ad5a60f676f454623b049f41637274ea6.html#ad5a60f676f454623b049f41637274ea6" target="_top" xlink:title=" ">
<polygon fill="none" stroke="black" points="581,-410.14 581,-429.14 784,-429.14 784,-410.14 581,-410.14"/>
<text text-anchor="middle" x="682.5" y="-417.14" font-family="Helvetica,sans-Serif" font-size="10.00">fspm.config.params.Parameter.getKey</text>
</a>
</g>
</g>
<!-- Node3&#45;&gt;Node4 -->
<g id="edge3" class="edge">
<title>Node3&#45;&gt;Node4</title>
<path fill="none" stroke="midnightblue" d="M539.62,-419.64C549.66,-419.64 560.15,-419.64 570.69,-419.64"/>
<polygon fill="midnightblue" stroke="midnightblue" points="570.8,-423.14 580.8,-419.64 570.8,-416.14 570.8,-423.14"/>
</g>
<!-- Node6 -->
<g id="node6" class="node">
<title>Node6</title>
<g id="a_node6"><a xlink:href="classfspm_1_1config_1_1params_1_1ParamCategory_aac7a0ce7ab7fafe895ba689f644818ab.html#aac7a0ce7ab7fafe895ba689f644818ab" target="_top" xlink:title=" ">
<polygon fill="none" stroke="black" points="1003,-138.64 1003,-168.64 1150,-168.64 1150,-138.64 1003,-138.64"/>
<text text-anchor="start" x="1011" y="-156.64" font-family="Helvetica,sans-Serif" font-size="10.00">fspm.config.params.Param</text>
<text text-anchor="middle" x="1076.5" y="-145.64" font-family="Helvetica,sans-Serif" font-size="10.00">Category.getKey</text>
</a>
</g>
</g>
<!-- Node5&#45;&gt;Node6 -->
<g id="edge5" class="edge">
<title>Node5&#45;&gt;Node6</title>
<path fill="none" stroke="midnightblue" d="M913.15,-339.41C928.28,-326.71 949.82,-307.83 967,-289.64 1001.99,-252.58 1037.99,-205.29 1058.47,-177.35"/>
<polygon fill="midnightblue" stroke="midnightblue" points="1061.49,-179.14 1064.55,-169 1055.84,-175.02 1061.49,-179.14"/>
</g>
<!-- Node9 -->
<g id="node9" class="node">
<title>Node9</title>
<g id="a_node9"><a xlink:href="classfspm_1_1config_1_1Config_abce61aaf26cf14b4ae2204ff22c27b57.html#abce61aaf26cf14b4ae2204ff22c27b57" target="_top" xlink:title=" ">
<polygon fill="none" stroke="black" points="396.5,-131.64 396.5,-161.64 535.5,-161.64 535.5,-131.64 396.5,-131.64"/>
<text text-anchor="start" x="404.5" y="-149.64" font-family="Helvetica,sans-Serif" font-size="10.00">fspm.config.Config.check</text>
<text text-anchor="middle" x="466" y="-138.64" font-family="Helvetica,sans-Serif" font-size="10.00">ContextsExists</text>
</a>
</g>
</g>
<!-- Node8&#45;&gt;Node9 -->
<g id="edge8" class="edge">
<title>Node8&#45;&gt;Node9</title>
<path fill="none" stroke="midnightblue" d="M318.21,-175.1C338.75,-171.11 363.14,-166.39 386.08,-161.94"/>
<polygon fill="midnightblue" stroke="midnightblue" points="387,-165.33 396.15,-159.99 385.66,-158.45 387,-165.33"/>
</g>
<!-- Node15 -->
<g id="node15" class="node">
<title>Node15</title>
<g id="a_node15"><a xlink:href="classfspm_1_1config_1_1params_1_1ParamCategory_afa61ab695415b052569467d379bf4a07.html#afa61ab695415b052569467d379bf4a07" target="_top" xlink:title=" ">
<polygon fill="none" stroke="black" points="392.5,-180.64 392.5,-210.64 539.5,-210.64 539.5,-180.64 392.5,-180.64"/>
<text text-anchor="start" x="400.5" y="-198.64" font-family="Helvetica,sans-Serif" font-size="10.00">fspm.config.params.Param</text>
<text text-anchor="middle" x="466" y="-187.64" font-family="Helvetica,sans-Serif" font-size="10.00">Category.getBoolean</text>
</a>
</g>
</g>
<!-- Node8&#45;&gt;Node15 -->
<g id="edge16" class="edge">
<title>Node8&#45;&gt;Node15</title>
<path fill="none" stroke="midnightblue" d="M351.27,-189.25C361.48,-189.83 371.93,-190.41 382.15,-190.99"/>
<polygon fill="midnightblue" stroke="midnightblue" points="382.11,-194.49 392.29,-191.56 382.5,-187.5 382.11,-194.49"/>
</g>
<!-- Node10 -->
<g id="node10" class="node">
<title>Node10</title>
<g id="a_node10"><a xlink:href="classfspm_1_1config_1_1Config_a3024c037d3ee426c410cb46ee2cd3497.html#a3024c037d3ee426c410cb46ee2cd3497" target="_top" xlink:title=" ">
<polygon fill="none" stroke="black" points="613,-141.64 613,-171.64 752,-171.64 752,-141.64 613,-141.64"/>
<text text-anchor="start" x="621" y="-159.64" font-family="Helvetica,sans-Serif" font-size="10.00">fspm.config.Config.check</text>
<text text-anchor="middle" x="682.5" y="-148.64" font-family="Helvetica,sans-Serif" font-size="10.00">GroupContextExists</text>
</a>
</g>
</g>
<!-- Node9&#45;&gt;Node10 -->
<g id="edge9" class="edge">
<title>Node9&#45;&gt;Node10</title>
<path fill="none" stroke="midnightblue" d="M535.75,-149.84C557.02,-150.83 580.61,-151.93 602.51,-152.95"/>
<polygon fill="midnightblue" stroke="midnightblue" points="602.61,-156.46 612.77,-153.43 602.94,-149.47 602.61,-156.46"/>
</g>
<!-- Node11 -->
<g id="node11" class="node">
<title>Node11</title>
<g id="a_node11"><a xlink:href="classfspm_1_1config_1_1params_1_1ParamCategory_a4e9b4d10f0f293ae181dd272d302d9b4.html#a4e9b4d10f0f293ae181dd272d302d9b4" target="_top" xlink:title="Get generic Parameter with the given key.">
<polygon fill="none" stroke="black" points="820,-21.64 820,-51.64 967,-51.64 967,-21.64 820,-21.64"/>
<text text-anchor="start" x="828" y="-39.64" font-family="Helvetica,sans-Serif" font-size="10.00">fspm.config.params.Param</text>
<text text-anchor="middle" x="893.5" y="-28.64" font-family="Helvetica,sans-Serif" font-size="10.00">Category.get</text>
</a>
</g>
</g>
<!-- Node9&#45;&gt;Node11 -->
<g id="edge10" class="edge">
<title>Node9&#45;&gt;Node11</title>
<path fill="none" stroke="midnightblue" d="M530.96,-131.53C536.05,-128.76 540.82,-125.5 545,-121.64 576.02,-92.95 545.92,-57.19 581,-33.64 657.77,17.9 770.94,-0.74 837.64,-18.81"/>
<polygon fill="midnightblue" stroke="midnightblue" points="836.97,-22.25 847.54,-21.58 838.85,-15.51 836.97,-22.25"/>
</g>
<!-- Node12 -->
<g id="node12" class="node">
<title>Node12</title>
<g id="a_node12"><a xlink:href="classfspm_1_1config_1_1params_1_1ParamGroup_a4ac641bb901b13ad2186c3d4fe0a75c9.html#a4ac641bb901b13ad2186c3d4fe0a75c9" target="_top" xlink:title=" ">
<polygon fill="none" stroke="black" points="601.5,-43.64 601.5,-73.64 763.5,-73.64 763.5,-43.64 601.5,-43.64"/>
<text text-anchor="start" x="609.5" y="-61.64" font-family="Helvetica,sans-Serif" font-size="10.00">fspm.config.params.Param</text>
<text text-anchor="middle" x="682.5" y="-50.64" font-family="Helvetica,sans-Serif" font-size="10.00">Group.getCategoryWithParam</text>
</a>
</g>
</g>
<!-- Node9&#45;&gt;Node12 -->
<g id="edge12" class="edge">
<title>Node9&#45;&gt;Node12</title>
<path fill="none" stroke="midnightblue" d="M525.59,-131.55C532.38,-128.74 539.01,-125.46 545,-121.64 564.89,-108.95 560.65,-94.56 581,-82.64 584.47,-80.6 588.1,-78.74 591.85,-77.04"/>
<polygon fill="midnightblue" stroke="midnightblue" points="593.43,-80.17 601.34,-73.12 590.76,-73.7 593.43,-80.17"/>
</g>
<!-- Node14 -->
<g id="node14" class="node">
<title>Node14</title>
<g id="a_node14"><a xlink:href="classfspm_1_1config_1_1Config_aa3784bee8f29e4340b60735055eb41a6.html#aa3784bee8f29e4340b60735055eb41a6" target="_top" xlink:title=" ">
<polygon fill="none" stroke="black" points="601,-92.64 601,-122.64 764,-122.64 764,-92.64 601,-92.64"/>
<text text-anchor="start" x="609" y="-110.64" font-family="Helvetica,sans-Serif" font-size="10.00">fspm.config.Config.isCategory</text>
<text text-anchor="middle" x="682.5" y="-99.64" font-family="Helvetica,sans-Serif" font-size="10.00">ContextExists</text>
</a>
</g>
</g>
<!-- Node9&#45;&gt;Node14 -->
<g id="edge15" class="edge">
<title>Node9&#45;&gt;Node14</title>
<path fill="none" stroke="midnightblue" d="M535.75,-134.14C553.31,-130.94 572.45,-127.46 590.91,-124.11"/>
<polygon fill="midnightblue" stroke="midnightblue" points="591.58,-127.54 600.79,-122.31 590.33,-120.66 591.58,-127.54"/>
</g>
<!-- Node11&#45;&gt;Node6 -->
<g id="edge11" class="edge">
<title>Node11&#45;&gt;Node6</title>
<path fill="none" stroke="midnightblue" d="M948.19,-51.76C954.69,-54.36 961.11,-57.31 967,-60.64 1000.86,-79.76 1033.93,-110.33 1054.49,-131.16"/>
<polygon fill="midnightblue" stroke="midnightblue" points="1052,-133.62 1061.47,-138.36 1057.02,-128.75 1052,-133.62"/>
</g>
<!-- Node12&#45;&gt;Node11 -->
<g id="edge13" class="edge">
<title>Node12&#45;&gt;Node11</title>
<path fill="none" stroke="midnightblue" d="M763.71,-50.19C778.67,-48.62 794.34,-46.97 809.39,-45.39"/>
<polygon fill="midnightblue" stroke="midnightblue" points="810.12,-48.83 819.7,-44.3 809.38,-41.87 810.12,-48.83"/>
</g>
<!-- Node13 -->
<g id="node13" class="node">
<title>Node13</title>
<g id="a_node13"><a xlink:href="classfspm_1_1config_1_1params_1_1ParamGroup_a87d9e7182014d1d981c4067083815878.html#a87d9e7182014d1d981c4067083815878" target="_top" xlink:title=" ">
<polygon fill="none" stroke="black" points="820,-70.64 820,-100.64 967,-100.64 967,-70.64 820,-70.64"/>
<text text-anchor="start" x="828" y="-88.64" font-family="Helvetica,sans-Serif" font-size="10.00">fspm.config.params.Param</text>
<text text-anchor="middle" x="893.5" y="-77.64" font-family="Helvetica,sans-Serif" font-size="10.00">Group.getKey</text>
</a>
</g>
</g>
<!-- Node12&#45;&gt;Node13 -->
<g id="edge14" class="edge">
<title>Node12&#45;&gt;Node13</title>
<path fill="none" stroke="midnightblue" d="M763.71,-69C778.67,-70.93 794.34,-72.96 809.39,-74.9"/>
<polygon fill="midnightblue" stroke="midnightblue" points="809.33,-78.42 819.7,-76.23 810.23,-71.48 809.33,-78.42"/>
</g>
<!-- Node16 -->
<g id="node16" class="node">
<title>Node16</title>
<g id="a_node16"><a xlink:href="classfspm_1_1config_1_1params_1_1ParamCategory_aa2e79c693bd5784e3397c328d6363ba9.html#aa2e79c693bd5784e3397c328d6363ba9" target="_top" xlink:title="Helper method to get the parameter of a given key, if it is an instance of the Parameter type class p...">
<polygon fill="none" stroke="black" points="820,-249.64 820,-279.64 967,-279.64 967,-249.64 820,-249.64"/>
<text text-anchor="start" x="828" y="-267.64" font-family="Helvetica,sans-Serif" font-size="10.00">fspm.config.params.Param</text>
<text text-anchor="middle" x="893.5" y="-256.64" font-family="Helvetica,sans-Serif" font-size="10.00">Category.getIfInstanceOf</text>
</a>
</g>
</g>
<!-- Node15&#45;&gt;Node16 -->
<g id="edge17" class="edge">
<title>Node15&#45;&gt;Node16</title>
<path fill="none" stroke="midnightblue" d="M539.73,-195.09C604.62,-196.08 701.8,-201.22 784,-220.64 807.74,-226.24 833.06,-236.26 853.27,-245.32"/>
<polygon fill="midnightblue" stroke="midnightblue" points="851.91,-248.55 862.46,-249.54 854.82,-242.19 851.91,-248.55"/>
</g>
<!-- Node17 -->
<g id="node17" class="node">
<title>Node17</title>
<g id="a_node17"><a xlink:href="classfspm_1_1config_1_1params_1_1ParamCategory_a9df71240a840aa7875fdd8834c4cdbde.html#a9df71240a840aa7875fdd8834c4cdbde" target="_top" xlink:title="Check and return if is NullParam.">
<polygon fill="none" stroke="black" points="609,-229.64 609,-259.64 756,-259.64 756,-229.64 609,-229.64"/>
<text text-anchor="start" x="617" y="-247.64" font-family="Helvetica,sans-Serif" font-size="10.00">fspm.config.params.Param</text>
<text text-anchor="middle" x="682.5" y="-236.64" font-family="Helvetica,sans-Serif" font-size="10.00">Category.isNull</text>
</a>
</g>
</g>
<!-- Node15&#45;&gt;Node17 -->
<g id="edge18" class="edge">
<title>Node15&#45;&gt;Node17</title>
<path fill="none" stroke="midnightblue" d="M532.81,-210.67C555.87,-215.94 581.95,-221.9 605.76,-227.34"/>
<polygon fill="midnightblue" stroke="midnightblue" points="605.28,-230.82 615.81,-229.63 606.84,-223.99 605.28,-230.82"/>
</g>
<!-- Node17&#45;&gt;Node16 -->
<g id="edge19" class="edge">
<title>Node17&#45;&gt;Node16</title>
<path fill="none" stroke="midnightblue" d="M756.01,-251.58C773.26,-253.23 791.79,-255 809.47,-256.69"/>
<polygon fill="midnightblue" stroke="midnightblue" points="809.47,-260.21 819.76,-257.68 810.14,-253.24 809.47,-260.21"/>
</g>
<!-- Node18&#45;&gt;Node9 -->
<g id="edge21" class="edge">
<title>Node18&#45;&gt;Node9</title>
<path fill="none" stroke="midnightblue" d="M334.56,-251.11C340.46,-248.62 346.05,-245.51 351,-241.64 378.85,-219.82 359.94,-193.43 387,-170.64 388.54,-169.34 390.16,-168.11 391.83,-166.94"/>
<polygon fill="midnightblue" stroke="midnightblue" points="393.84,-169.82 400.6,-161.66 390.23,-163.82 393.84,-169.82"/>
</g>
<!-- Node19 -->
<g id="node19" class="node">
<title>Node19</title>
<g id="a_node19"><a xlink:href="classfspm_1_1config_1_1params_1_1ParamCategory_ad9163381c1dfed699d3d74b2d36c1893.html#ad9163381c1dfed699d3d74b2d36c1893" target="_top" xlink:title=" ">
<polygon fill="none" stroke="black" points="392.5,-278.64 392.5,-308.64 539.5,-308.64 539.5,-278.64 392.5,-278.64"/>
<text text-anchor="start" x="400.5" y="-296.64" font-family="Helvetica,sans-Serif" font-size="10.00">fspm.config.params.Param</text>
<text text-anchor="middle" x="466" y="-285.64" font-family="Helvetica,sans-Serif" font-size="10.00">Category.getDouble</text>
</a>
</g>
</g>
<!-- Node18&#45;&gt;Node19 -->
<g id="edge22" class="edge">
<title>Node18&#45;&gt;Node19</title>
<path fill="none" stroke="midnightblue" d="M325.43,-270.14C343.15,-273.12 363.09,-276.48 382.24,-279.7"/>
<polygon fill="midnightblue" stroke="midnightblue" points="381.73,-283.17 392.17,-281.37 382.89,-276.26 381.73,-283.17"/>
</g>
<!-- Node19&#45;&gt;Node16 -->
<g id="edge23" class="edge">
<title>Node19&#45;&gt;Node16</title>
<path fill="none" stroke="midnightblue" d="M539.62,-295.22C604.02,-295.81 700.54,-294.7 784,-285.64 793.8,-284.57 804.04,-283.09 814.14,-281.4"/>
<polygon fill="midnightblue" stroke="midnightblue" points="814.93,-284.81 824.17,-279.65 813.72,-277.92 814.93,-284.81"/>
</g>
<!-- Node19&#45;&gt;Node17 -->
<g id="edge24" class="edge">
<title>Node19&#45;&gt;Node17</title>
<path fill="none" stroke="midnightblue" d="M532.81,-278.6C555.87,-273.33 581.95,-267.38 605.76,-261.94"/>
<polygon fill="midnightblue" stroke="midnightblue" points="606.84,-265.28 615.81,-259.64 605.28,-258.46 606.84,-265.28"/>
</g>
<!-- Node21&#45;&gt;Node9 -->
<g id="edge27" class="edge">
<title>Node21&#45;&gt;Node9</title>
<path fill="none" stroke="midnightblue" d="M327.25,-213.08C335.48,-210.61 343.63,-207.52 351,-203.64 370.2,-193.52 368.17,-181.43 387,-170.64 390.04,-168.89 393.23,-167.26 396.49,-165.74"/>
<polygon fill="midnightblue" stroke="midnightblue" points="398.07,-168.88 405.89,-161.73 395.31,-162.44 398.07,-168.88"/>
</g>
<!-- Node22 -->
<g id="node22" class="node">
<title>Node22</title>
<g id="a_node22"><a xlink:href="classfspm_1_1config_1_1params_1_1ParamCategory_a18b0a3b2a74f69aa936eaecf40927c5a.html#a18b0a3b2a74f69aa936eaecf40927c5a" target="_top" xlink:title=" ">
<polygon fill="none" stroke="black" points="392.5,-229.64 392.5,-259.64 539.5,-259.64 539.5,-229.64 392.5,-229.64"/>
<text text-anchor="start" x="400.5" y="-247.64" font-family="Helvetica,sans-Serif" font-size="10.00">fspm.config.params.Param</text>
<text text-anchor="middle" x="466" y="-236.64" font-family="Helvetica,sans-Serif" font-size="10.00">Category.getString</text>
</a>
</g>
</g>
<!-- Node21&#45;&gt;Node22 -->
<g id="edge28" class="edge">
<title>Node21&#45;&gt;Node22</title>
<path fill="none" stroke="midnightblue" d="M345.62,-231.24C357.62,-232.58 370.06,-233.98 382.19,-235.34"/>
<polygon fill="midnightblue" stroke="midnightblue" points="381.95,-238.84 392.28,-236.47 382.73,-231.88 381.95,-238.84"/>
</g>
<!-- Node22&#45;&gt;Node16 -->
<g id="edge29" class="edge">
<title>Node22&#45;&gt;Node16</title>
<path fill="none" stroke="midnightblue" d="M524.01,-259.67C542.1,-263.75 562.27,-267.61 581,-269.64 658.17,-278 746.71,-275.41 809.62,-271.53"/>
<polygon fill="midnightblue" stroke="midnightblue" points="810.13,-275 819.88,-270.87 809.68,-268.02 810.13,-275"/>
</g>
<!-- Node22&#45;&gt;Node17 -->
<g id="edge30" class="edge">
<title>Node22&#45;&gt;Node17</title>
<path fill="none" stroke="midnightblue" d="M539.62,-244.64C558.66,-244.64 579.34,-244.64 598.86,-244.64"/>
<polygon fill="midnightblue" stroke="midnightblue" points="598.95,-248.14 608.95,-244.64 598.95,-241.14 598.95,-248.14"/>
</g>
<!-- Node25&#45;&gt;Node20 -->
<g id="edge34" class="edge">
<title>Node25&#45;&gt;Node20</title>
<path fill="none" stroke="midnightblue" d="M345.62,-102.64C356.28,-102.64 367.29,-102.64 378.12,-102.64"/>
<polygon fill="midnightblue" stroke="midnightblue" points="378.43,-106.14 388.43,-102.64 378.43,-99.14 378.43,-106.14"/>
</g>
</g>
</svg>
