<?xml version="1.0" encoding="UTF-8" standalone="no"?>
<!DOCTYPE svg PUBLIC "-//W3C//DTD SVG 1.1//EN"
 "http://www.w3.org/Graphics/SVG/1.1/DTD/svg11.dtd">
<!-- Generated by graphviz version 2.43.0 (0)
 -->
<!-- Title: fspm.config.params.ParamCategory.getIfInstanceOf Pages: 1 -->
<svg width="1131pt" height="537pt"
 viewBox="0.00 0.00 1131.00 536.50" xmlns="http://www.w3.org/2000/svg" xmlns:xlink="http://www.w3.org/1999/xlink">
<g id="graph0" class="graph" transform="scale(1 1) rotate(0) translate(4 532.5)">
<title>fspm.config.params.ParamCategory.getIfInstanceOf</title>
<!-- Node1 -->
<g id="node1" class="node">
<title>Node1</title>
<g id="a_node1"><a xlink:title="Helper method to get the parameter of a given key, if it is an instance of the Parameter type class p...">
<polygon fill="#bfbfbf" stroke="black" points="976,-186.5 976,-216.5 1123,-216.5 1123,-186.5 976,-186.5"/>
<text text-anchor="start" x="984" y="-204.5" font-family="Helvetica,sans-Serif" font-size="10.00">fspm.config.params.Param</text>
<text text-anchor="middle" x="1049.5" y="-193.5" font-family="Helvetica,sans-Serif" font-size="10.00">Category.getIfInstanceOf</text>
</a>
</g>
</g>
<!-- Node2 -->
<g id="node2" class="node">
<title>Node2</title>
<g id="a_node2"><a xlink:href="classfspm_1_1config_1_1params_1_1ParamCategory_afa61ab695415b052569467d379bf4a07.html#afa61ab695415b052569467d379bf4a07" target="_top" xlink:title=" ">
<polygon fill="none" stroke="black" points="610,-328.5 610,-358.5 757,-358.5 757,-328.5 610,-328.5"/>
<text text-anchor="start" x="618" y="-346.5" font-family="Helvetica,sans-Serif" font-size="10.00">fspm.config.params.Param</text>
<text text-anchor="middle" x="683.5" y="-335.5" font-family="Helvetica,sans-Serif" font-size="10.00">Category.getBoolean</text>
</a>
</g>
</g>
<!-- Node1&#45;&gt;Node2 -->
<g id="edge1" class="edge">
<title>Node1&#45;&gt;Node2</title>
<path fill="none" stroke="midnightblue" d="M1023.06,-222.92C1002.01,-239.67 970.68,-262.41 940,-276.5 881.14,-303.54 809.45,-321.14 757.01,-331.48"/>
<polygon fill="midnightblue" stroke="midnightblue" points="1025.3,-225.61 1030.88,-216.6 1020.9,-220.17 1025.3,-225.61"/>
</g>
<!-- Node8 -->
<g id="node8" class="node">
<title>Node8</title>
<g id="a_node8"><a xlink:href="classfspm_1_1config_1_1params_1_1ParamCategory_ad9163381c1dfed699d3d74b2d36c1893.html#ad9163381c1dfed699d3d74b2d36c1893" target="_top" xlink:title=" ">
<polygon fill="none" stroke="black" points="610,-230.5 610,-260.5 757,-260.5 757,-230.5 610,-230.5"/>
<text text-anchor="start" x="618" y="-248.5" font-family="Helvetica,sans-Serif" font-size="10.00">fspm.config.params.Param</text>
<text text-anchor="middle" x="683.5" y="-237.5" font-family="Helvetica,sans-Serif" font-size="10.00">Category.getDouble</text>
</a>
</g>
</g>
<!-- Node1&#45;&gt;Node8 -->
<g id="edge7" class="edge">
<title>Node1&#45;&gt;Node8</title>
<path fill="none" stroke="midnightblue" d="M980.7,-218.79C967.28,-221.74 953.25,-224.49 940,-226.5 878.76,-235.78 808.55,-240.58 757.24,-243.04"/>
<polygon fill="midnightblue" stroke="midnightblue" points="981.83,-222.12 990.82,-216.51 980.29,-215.29 981.83,-222.12"/>
</g>
<!-- Node16 -->
<g id="node16" class="node">
<title>Node16</title>
<g id="a_node16"><a xlink:href="classfspm_1_1config_1_1params_1_1ParamCategory_a480fdf398400180423780ae25a3c4656.html#a480fdf398400180423780ae25a3c4656" target="_top" xlink:title=" ">
<polygon fill="none" stroke="black" points="610,-93.5 610,-123.5 757,-123.5 757,-93.5 610,-93.5"/>
<text text-anchor="start" x="618" y="-111.5" font-family="Helvetica,sans-Serif" font-size="10.00">fspm.config.params.Param</text>
<text text-anchor="middle" x="683.5" y="-100.5" font-family="Helvetica,sans-Serif" font-size="10.00">Category.getDoubleArray</text>
</a>
</g>
</g>
<!-- Node1&#45;&gt;Node16 -->
<g id="edge16" class="edge">
<title>Node1&#45;&gt;Node16</title>
<path fill="none" stroke="midnightblue" d="M1005.55,-182.37C985.87,-174.15 962.06,-164.97 940,-158.5 879.39,-140.72 808.81,-127.45 757.21,-119.07"/>
<polygon fill="midnightblue" stroke="midnightblue" points="1004.28,-185.63 1014.86,-186.31 1007.01,-179.18 1004.28,-185.63"/>
</g>
<!-- Node20 -->
<g id="node20" class="node">
<title>Node20</title>
<g id="a_node20"><a xlink:href="classfspm_1_1config_1_1params_1_1ParamCategory_a176eab656e051784323f2132a4994fc6.html#a176eab656e051784323f2132a4994fc6" target="_top" xlink:title=" ">
<polygon fill="none" stroke="black" points="610,-142.5 610,-172.5 757,-172.5 757,-142.5 610,-142.5"/>
<text text-anchor="start" x="618" y="-160.5" font-family="Helvetica,sans-Serif" font-size="10.00">fspm.config.params.Param</text>
<text text-anchor="middle" x="683.5" y="-149.5" font-family="Helvetica,sans-Serif" font-size="10.00">Category.getInteger</text>
</a>
</g>
</g>
<!-- Node1&#45;&gt;Node20 -->
<g id="edge20" class="edge">
<title>Node1&#45;&gt;Node20</title>
<path fill="none" stroke="midnightblue" d="M977.74,-184.36C965.22,-181.75 952.27,-179.33 940,-177.5 878.72,-168.37 808.51,-163.25 757.21,-160.49"/>
<polygon fill="midnightblue" stroke="midnightblue" points="977.15,-187.81 987.67,-186.48 978.62,-180.97 977.15,-187.81"/>
</g>
<!-- Node23 -->
<g id="node23" class="node">
<title>Node23</title>
<g id="a_node23"><a xlink:href="classfspm_1_1config_1_1params_1_1ParamCategory_a18b0a3b2a74f69aa936eaecf40927c5a.html#a18b0a3b2a74f69aa936eaecf40927c5a" target="_top" xlink:title=" ">
<polygon fill="none" stroke="black" points="610,-279.5 610,-309.5 757,-309.5 757,-279.5 610,-279.5"/>
<text text-anchor="start" x="618" y="-297.5" font-family="Helvetica,sans-Serif" font-size="10.00">fspm.config.params.Param</text>
<text text-anchor="middle" x="683.5" y="-286.5" font-family="Helvetica,sans-Serif" font-size="10.00">Category.getString</text>
</a>
</g>
</g>
<!-- Node1&#45;&gt;Node23 -->
<g id="edge24" class="edge">
<title>Node1&#45;&gt;Node23</title>
<path fill="none" stroke="midnightblue" d="M1008.64,-220.88C988.46,-230.05 963.35,-240.5 940,-247.5 879.52,-265.64 808.78,-278 757.08,-285.47"/>
<polygon fill="midnightblue" stroke="midnightblue" points="1010.22,-224.01 1017.83,-216.64 1007.29,-217.65 1010.22,-224.01"/>
</g>
<!-- Node26 -->
<g id="node26" class="node">
<title>Node26</title>
<g id="a_node26"><a xlink:href="classfspm_1_1config_1_1params_1_1ParamCategory_a9df71240a840aa7875fdd8834c4cdbde.html#a9df71240a840aa7875fdd8834c4cdbde" target="_top" xlink:title="Check and return if is NullParam.">
<polygon fill="none" stroke="black" points="793,-186.5 793,-216.5 940,-216.5 940,-186.5 793,-186.5"/>
<text text-anchor="start" x="801" y="-204.5" font-family="Helvetica,sans-Serif" font-size="10.00">fspm.config.params.Param</text>
<text text-anchor="middle" x="866.5" y="-193.5" font-family="Helvetica,sans-Serif" font-size="10.00">Category.isNull</text>
</a>
</g>
</g>
<!-- Node1&#45;&gt;Node26 -->
<g id="edge30" class="edge">
<title>Node1&#45;&gt;Node26</title>
<path fill="none" stroke="midnightblue" d="M965.88,-201.5C957.28,-201.5 948.58,-201.5 940.09,-201.5"/>
<polygon fill="midnightblue" stroke="midnightblue" points="965.92,-205 975.92,-201.5 965.92,-198 965.92,-205"/>
</g>
<!-- Node28 -->
<g id="node28" class="node">
<title>Node28</title>
<g id="a_node28"><a xlink:href="classfspm_1_1config_1_1params_1_1ParamCategory_aca342184087a77447cc4f81cbf631681.html#aca342184087a77447cc4f81cbf631681" target="_top" xlink:title=" ">
<polygon fill="none" stroke="black" points="793,-60.5 793,-90.5 940,-90.5 940,-60.5 793,-60.5"/>
<text text-anchor="start" x="801" y="-78.5" font-family="Helvetica,sans-Serif" font-size="10.00">fspm.config.params.Param</text>
<text text-anchor="middle" x="866.5" y="-67.5" font-family="Helvetica,sans-Serif" font-size="10.00">Category.set</text>
</a>
</g>
</g>
<!-- Node1&#45;&gt;Node28 -->
<g id="edge38" class="edge">
<title>Node1&#45;&gt;Node28</title>
<path fill="none" stroke="midnightblue" d="M1027.65,-179.18C1006.98,-158.04 973.63,-126.51 940,-105.5 930.87,-99.8 920.47,-94.76 910.46,-90.52"/>
<polygon fill="midnightblue" stroke="midnightblue" points="1025.21,-181.69 1034.67,-186.45 1030.24,-176.83 1025.21,-181.69"/>
</g>
<!-- Node3 -->
<g id="node3" class="node">
<title>Node3</title>
<g id="a_node3"><a xlink:href="classfspm_1_1config_1_1Config_ae827f35da2e09b1d18f5a82538db57bc.html#ae827f35da2e09b1d18f5a82538db57bc" target="_top" xlink:title=" ">
<polygon fill="none" stroke="black" points="408,-440 408,-459 574,-459 574,-440 408,-440"/>
<text text-anchor="middle" x="491" y="-447" font-family="Helvetica,sans-Serif" font-size="10.00">fspm.config.Config.getBoolean</text>
</a>
</g>
</g>
<!-- Node2&#45;&gt;Node3 -->
<g id="edge2" class="edge">
<title>Node2&#45;&gt;Node3</title>
<path fill="none" stroke="midnightblue" d="M646.34,-363.62C605.34,-386.43 540.19,-422.69 509.31,-439.87"/>
<polygon fill="midnightblue" stroke="midnightblue" points="648.17,-366.61 655.21,-358.69 644.77,-360.49 648.17,-366.61"/>
</g>
<!-- Node4 -->
<g id="node4" class="node">
<title>Node4</title>
<g id="a_node4"><a xlink:href="classfspm_1_1config_1_1ConfigTest_a586a428c43c00668f273133c28ddd635.html#a586a428c43c00668f273133c28ddd635" target="_top" xlink:title=" ">
<polygon fill="none" stroke="black" points="207.5,-459.5 207.5,-489.5 370.5,-489.5 370.5,-459.5 207.5,-459.5"/>
<text text-anchor="start" x="215.5" y="-477.5" font-family="Helvetica,sans-Serif" font-size="10.00">fspm.config.ConfigTest.access</text>
<text text-anchor="middle" x="289" y="-466.5" font-family="Helvetica,sans-Serif" font-size="10.00">Examples</text>
</a>
</g>
</g>
<!-- Node3&#45;&gt;Node4 -->
<g id="edge3" class="edge">
<title>Node3&#45;&gt;Node4</title>
<path fill="none" stroke="midnightblue" d="M403.79,-460.28C392.78,-461.65 381.54,-463.06 370.63,-464.42"/>
<polygon fill="midnightblue" stroke="midnightblue" points="404.33,-463.74 413.82,-459.02 403.46,-456.79 404.33,-463.74"/>
</g>
<!-- Node5 -->
<g id="node5" class="node">
<title>Node5</title>
<g id="a_node5"><a xlink:href="classfspm_1_1config_1_1Config_a7ea65e4b8e2ba486cc4dca0c4e1eb234.html#a7ea65e4b8e2ba486cc4dca0c4e1eb234" target="_top" xlink:title=" ">
<polygon fill="none" stroke="black" points="206,-509 206,-528 372,-528 372,-509 206,-509"/>
<text text-anchor="middle" x="289" y="-516" font-family="Helvetica,sans-Serif" font-size="10.00">fspm.config.Config.getBoolean</text>
</a>
</g>
</g>
<!-- Node3&#45;&gt;Node5 -->
<g id="edge4" class="edge">
<title>Node3&#45;&gt;Node5</title>
<path fill="none" stroke="midnightblue" d="M461.27,-463.33C437.7,-474.27 403.24,-489.35 372,-499.5 361.02,-503.07 349.01,-506.24 337.65,-508.93"/>
<polygon fill="midnightblue" stroke="midnightblue" points="462.79,-466.48 470.36,-459.07 459.82,-460.15 462.79,-466.48"/>
</g>
<!-- Node6 -->
<g id="node6" class="node">
<title>Node6</title>
<g id="a_node6"><a xlink:href="classfspm_1_1config_1_1ConfigTest_a09a38b5eee655b088e4e144df5ad5a85.html#a09a38b5eee655b088e4e144df5ad5a85" target="_top" xlink:title=" ">
<polygon fill="none" stroke="black" points="214.5,-410.5 214.5,-440.5 363.5,-440.5 363.5,-410.5 214.5,-410.5"/>
<text text-anchor="start" x="222.5" y="-428.5" font-family="Helvetica,sans-Serif" font-size="10.00">fspm.config.ConfigTest.test</text>
<text text-anchor="middle" x="289" y="-417.5" font-family="Helvetica,sans-Serif" font-size="10.00">_flatCategories</text>
</a>
</g>
</g>
<!-- Node3&#45;&gt;Node6 -->
<g id="edge5" class="edge">
<title>Node3&#45;&gt;Node6</title>
<path fill="none" stroke="midnightblue" d="M400.42,-438.75C388.15,-437.28 375.66,-435.78 363.71,-434.34"/>
<polygon fill="midnightblue" stroke="midnightblue" points="400.32,-442.26 410.67,-439.98 401.16,-435.31 400.32,-442.26"/>
</g>
<!-- Node7 -->
<g id="node7" class="node">
<title>Node7</title>
<g id="a_node7"><a xlink:href="classfspm_1_1config_1_1ConfigTest_aacca92fc43946c5a3d4613a1085d59f9.html#aacca92fc43946c5a3d4613a1085d59f9" target="_top" xlink:title=" ">
<polygon fill="none" stroke="black" points="0,-416 0,-435 170,-435 170,-416 0,-416"/>
<text text-anchor="middle" x="85" y="-423" font-family="Helvetica,sans-Serif" font-size="10.00">fspm.config.ConfigTest.runMain</text>
</a>
</g>
</g>
<!-- Node6&#45;&gt;Node7 -->
<g id="edge6" class="edge">
<title>Node6&#45;&gt;Node7</title>
<path fill="none" stroke="midnightblue" d="M204.04,-425.5C192.85,-425.5 181.38,-425.5 170.18,-425.5"/>
<polygon fill="midnightblue" stroke="midnightblue" points="204.22,-429 214.22,-425.5 204.22,-422 204.22,-429"/>
</g>
<!-- Node9 -->
<g id="node9" class="node">
<title>Node9</title>
<g id="a_node9"><a xlink:href="classfspm_1_1config_1_1Config_ae462a8b94814530c25f796f0b4f48115.html#ae462a8b94814530c25f796f0b4f48115" target="_top" xlink:title=" ">
<polygon fill="none" stroke="black" points="410.5,-241 410.5,-260 571.5,-260 571.5,-241 410.5,-241"/>
<text text-anchor="middle" x="491" y="-248" font-family="Helvetica,sans-Serif" font-size="10.00">fspm.config.Config.getDouble</text>
</a>
</g>
</g>
<!-- Node8&#45;&gt;Node9 -->
<g id="edge8" class="edge">
<title>Node8&#45;&gt;Node9</title>
<path fill="none" stroke="midnightblue" d="M599.87,-247.67C590.51,-247.91 580.99,-248.16 571.67,-248.41"/>
<polygon fill="midnightblue" stroke="midnightblue" points="600.03,-251.17 609.94,-247.4 599.85,-244.17 600.03,-251.17"/>
</g>
<!-- Node9&#45;&gt;Node6 -->
<g id="edge11" class="edge">
<title>Node9&#45;&gt;Node6</title>
<path fill="none" stroke="midnightblue" d="M476.74,-268.57C448.85,-306.4 385.55,-391.23 372,-400.5 366.35,-404.37 360.08,-407.65 353.6,-410.44"/>
<polygon fill="midnightblue" stroke="midnightblue" points="479.91,-270.17 483.02,-260.04 474.27,-266.02 479.91,-270.17"/>
</g>
<!-- Node10 -->
<g id="node10" class="node">
<title>Node10</title>
<g id="a_node10"><a xlink:href="classfspm_1_1config_1_1Config_a75f0ff59af54ebe3b864a01dc59b1663.html#a75f0ff59af54ebe3b864a01dc59b1663" target="_top" xlink:title=" ">
<polygon fill="none" stroke="black" points="208.5,-334 208.5,-353 369.5,-353 369.5,-334 208.5,-334"/>
<text text-anchor="middle" x="289" y="-341" font-family="Helvetica,sans-Serif" font-size="10.00">fspm.config.Config.getDouble</text>
</a>
</g>
</g>
<!-- Node9&#45;&gt;Node10 -->
<g id="edge9" class="edge">
<title>Node9&#45;&gt;Node10</title>
<path fill="none" stroke="midnightblue" d="M469.51,-266.34C446.84,-283.13 408.67,-309.26 372,-324.5 362.82,-328.31 352.74,-331.44 342.87,-333.98"/>
<polygon fill="midnightblue" stroke="midnightblue" points="471.79,-269.01 477.67,-260.2 467.58,-263.41 471.79,-269.01"/>
</g>
<!-- Node11 -->
<g id="node11" class="node">
<title>Node11</title>
<g id="a_node11"><a xlink:href="classfspm_1_1config_1_1ConfigTest_ab639b7af67e947577db2ab2c9bc95a87.html#ab639b7af67e947577db2ab2c9bc95a87" target="_top" xlink:title=" ">
<polygon fill="none" stroke="black" points="214.5,-284.5 214.5,-314.5 363.5,-314.5 363.5,-284.5 214.5,-284.5"/>
<text text-anchor="start" x="222.5" y="-302.5" font-family="Helvetica,sans-Serif" font-size="10.00">fspm.config.ConfigTest.test</text>
<text text-anchor="middle" x="289" y="-291.5" font-family="Helvetica,sans-Serif" font-size="10.00">_default</text>
</a>
</g>
</g>
<!-- Node9&#45;&gt;Node11 -->
<g id="edge10" class="edge">
<title>Node9&#45;&gt;Node11</title>
<path fill="none" stroke="midnightblue" d="M440.96,-262.51C413.94,-269.14 380.14,-277.42 351.38,-284.46"/>
<polygon fill="midnightblue" stroke="midnightblue" points="442.08,-265.84 450.96,-260.06 440.42,-259.04 442.08,-265.84"/>
</g>
<!-- Node12 -->
<g id="node12" class="node">
<title>Node12</title>
<g id="a_node12"><a xlink:href="classfspm_1_1config_1_1ConfigTest_a0ff566e57202c3f9bf2125d70d9c6b41.html#a0ff566e57202c3f9bf2125d70d9c6b41" target="_top" xlink:title=" ">
<polygon fill="none" stroke="black" points="214.5,-235.5 214.5,-265.5 363.5,-265.5 363.5,-235.5 214.5,-235.5"/>
<text text-anchor="start" x="222.5" y="-253.5" font-family="Helvetica,sans-Serif" font-size="10.00">fspm.config.ConfigTest.test</text>
<text text-anchor="middle" x="289" y="-242.5" font-family="Helvetica,sans-Serif" font-size="10.00">_getFloatAsDouble</text>
</a>
</g>
</g>
<!-- Node9&#45;&gt;Node12 -->
<g id="edge12" class="edge">
<title>Node9&#45;&gt;Node12</title>
<path fill="none" stroke="midnightblue" d="M400.15,-250.5C387.89,-250.5 375.43,-250.5 363.5,-250.5"/>
<polygon fill="midnightblue" stroke="midnightblue" points="400.38,-254 410.38,-250.5 400.38,-247 400.38,-254"/>
</g>
<!-- Node13 -->
<g id="node13" class="node">
<title>Node13</title>
<g id="a_node13"><a xlink:href="classfspm_1_1config_1_1ConfigTest_a08a6bb001d92ffa4a466c0b0b816a878.html#a08a6bb001d92ffa4a466c0b0b816a878" target="_top" xlink:title=" ">
<polygon fill="none" stroke="black" points="214.5,-186.5 214.5,-216.5 363.5,-216.5 363.5,-186.5 214.5,-186.5"/>
<text text-anchor="start" x="222.5" y="-204.5" font-family="Helvetica,sans-Serif" font-size="10.00">fspm.config.ConfigTest.test</text>
<text text-anchor="middle" x="289" y="-193.5" font-family="Helvetica,sans-Serif" font-size="10.00">_getIntAsDouble</text>
</a>
</g>
</g>
<!-- Node9&#45;&gt;Node13 -->
<g id="edge13" class="edge">
<title>Node9&#45;&gt;Node13</title>
<path fill="none" stroke="midnightblue" d="M440.96,-238.49C413.94,-231.86 380.14,-223.58 351.38,-216.54"/>
<polygon fill="midnightblue" stroke="midnightblue" points="440.42,-241.96 450.96,-240.94 442.08,-235.16 440.42,-241.96"/>
</g>
<!-- Node14 -->
<g id="node14" class="node">
<title>Node14</title>
<g id="a_node14"><a xlink:href="classfspm_1_1config_1_1ConfigTest_aa9e41d045f61b82c742edbd88424aff3.html#aa9e41d045f61b82c742edbd88424aff3" target="_top" xlink:title=" ">
<polygon fill="none" stroke="black" points="214.5,-137.5 214.5,-167.5 363.5,-167.5 363.5,-137.5 214.5,-137.5"/>
<text text-anchor="start" x="222.5" y="-155.5" font-family="Helvetica,sans-Serif" font-size="10.00">fspm.config.ConfigTest.test</text>
<text text-anchor="middle" x="289" y="-144.5" font-family="Helvetica,sans-Serif" font-size="10.00">_getNullAsTypes</text>
</a>
</g>
</g>
<!-- Node9&#45;&gt;Node14 -->
<g id="edge14" class="edge">
<title>Node9&#45;&gt;Node14</title>
<path fill="none" stroke="midnightblue" d="M450.23,-237.32C436.23,-231.72 420.8,-224.41 408,-215.5 388.9,-202.21 391.78,-189.74 372,-177.5 365.8,-173.66 358.97,-170.38 351.97,-167.58"/>
<polygon fill="midnightblue" stroke="midnightblue" points="449.05,-240.62 459.64,-240.92 451.55,-234.08 449.05,-240.62"/>
</g>
<!-- Node15 -->
<g id="node15" class="node">
<title>Node15</title>
<g id="a_node15"><a xlink:href="classfspm_1_1config_1_1ConfigTest_a0ace3587e0462f748617e279d4d0c659.html#a0ace3587e0462f748617e279d4d0c659" target="_top" xlink:title=" ">
<polygon fill="none" stroke="black" points="10.5,-137.5 10.5,-167.5 159.5,-167.5 159.5,-137.5 10.5,-137.5"/>
<text text-anchor="start" x="18.5" y="-155.5" font-family="Helvetica,sans-Serif" font-size="10.00">fspm.config.ConfigTest.test</text>
<text text-anchor="middle" x="85" y="-144.5" font-family="Helvetica,sans-Serif" font-size="10.00">_types</text>
</a>
</g>
</g>
<!-- Node14&#45;&gt;Node15 -->
<g id="edge15" class="edge">
<title>Node14&#45;&gt;Node15</title>
<path fill="none" stroke="midnightblue" d="M204.09,-152.5C189.32,-152.5 174.04,-152.5 159.58,-152.5"/>
<polygon fill="midnightblue" stroke="midnightblue" points="204.22,-156 214.22,-152.5 204.22,-149 204.22,-156"/>
</g>
<!-- Node17 -->
<g id="node17" class="node">
<title>Node17</title>
<g id="a_node17"><a xlink:href="classfspm_1_1config_1_1Config_afa630b4bdff20121abd94ef706423f27.html#afa630b4bdff20121abd94ef706423f27" target="_top" xlink:title=" ">
<polygon fill="none" stroke="black" points="410.5,-49.5 410.5,-79.5 571.5,-79.5 571.5,-49.5 410.5,-49.5"/>
<text text-anchor="start" x="418.5" y="-67.5" font-family="Helvetica,sans-Serif" font-size="10.00">fspm.config.Config.getDouble</text>
<text text-anchor="middle" x="491" y="-56.5" font-family="Helvetica,sans-Serif" font-size="10.00">Array</text>
</a>
</g>
</g>
<!-- Node16&#45;&gt;Node17 -->
<g id="edge17" class="edge">
<title>Node16&#45;&gt;Node17</title>
<path fill="none" stroke="midnightblue" d="M607.27,-91.12C590.66,-87.29 573.21,-83.26 557.06,-79.53"/>
<polygon fill="midnightblue" stroke="midnightblue" points="606.94,-94.64 617.47,-93.48 608.52,-87.82 606.94,-94.64"/>
</g>
<!-- Node18 -->
<g id="node18" class="node">
<title>Node18</title>
<g id="a_node18"><a xlink:href="classfspm_1_1config_1_1Config_ab63abbac8c043b0cd64927d084bd4c49.html#ab63abbac8c043b0cd64927d084bd4c49" target="_top" xlink:title=" ">
<polygon fill="none" stroke="black" points="208.5,-49.5 208.5,-79.5 369.5,-79.5 369.5,-49.5 208.5,-49.5"/>
<text text-anchor="start" x="216.5" y="-67.5" font-family="Helvetica,sans-Serif" font-size="10.00">fspm.config.Config.getDouble</text>
<text text-anchor="middle" x="289" y="-56.5" font-family="Helvetica,sans-Serif" font-size="10.00">Array</text>
</a>
</g>
</g>
<!-- Node17&#45;&gt;Node18 -->
<g id="edge18" class="edge">
<title>Node17&#45;&gt;Node18</title>
<path fill="none" stroke="midnightblue" d="M400.25,-64.5C390.06,-64.5 379.72,-64.5 369.67,-64.5"/>
<polygon fill="midnightblue" stroke="midnightblue" points="400.38,-68 410.38,-64.5 400.38,-61 400.38,-68"/>
</g>
<!-- Node19 -->
<g id="node19" class="node">
<title>Node19</title>
<g id="a_node19"><a xlink:href="classfspm_1_1config_1_1ConfigTest_a06c9116c21e1df253ca6b4056a187bad.html#a06c9116c21e1df253ca6b4056a187bad" target="_top" xlink:title=" ">
<polygon fill="none" stroke="black" points="214.5,-0.5 214.5,-30.5 363.5,-30.5 363.5,-0.5 214.5,-0.5"/>
<text text-anchor="start" x="222.5" y="-18.5" font-family="Helvetica,sans-Serif" font-size="10.00">fspm.config.ConfigTest.test</text>
<text text-anchor="middle" x="289" y="-7.5" font-family="Helvetica,sans-Serif" font-size="10.00">_phenology</text>
</a>
</g>
</g>
<!-- Node17&#45;&gt;Node19 -->
<g id="edge19" class="edge">
<title>Node17&#45;&gt;Node19</title>
<path fill="none" stroke="midnightblue" d="M418.67,-47.02C396.62,-41.62 372.55,-35.72 351.25,-30.51"/>
<polygon fill="midnightblue" stroke="midnightblue" points="418.09,-50.49 428.63,-49.47 419.75,-43.69 418.09,-50.49"/>
</g>
<!-- Node21 -->
<g id="node21" class="node">
<title>Node21</title>
<g id="a_node21"><a xlink:href="classfspm_1_1config_1_1Config_a5e0b8f5ad9a3ead9ec4c4ab031918b94.html#a5e0b8f5ad9a3ead9ec4c4ab031918b94" target="_top" xlink:title=" ">
<polygon fill="none" stroke="black" points="410.5,-143 410.5,-162 571.5,-162 571.5,-143 410.5,-143"/>
<text text-anchor="middle" x="491" y="-150" font-family="Helvetica,sans-Serif" font-size="10.00">fspm.config.Config.getInteger</text>
</a>
</g>
</g>
<!-- Node20&#45;&gt;Node21 -->
<g id="edge21" class="edge">
<title>Node20&#45;&gt;Node21</title>
<path fill="none" stroke="midnightblue" d="M599.87,-155.33C590.51,-155.09 580.99,-154.84 571.67,-154.59"/>
<polygon fill="midnightblue" stroke="midnightblue" points="599.85,-158.83 609.94,-155.6 600.03,-151.83 599.85,-158.83"/>
</g>
<!-- Node21&#45;&gt;Node14 -->
<g id="edge23" class="edge">
<title>Node21&#45;&gt;Node14</title>
<path fill="none" stroke="midnightblue" d="M400.15,-152.5C387.89,-152.5 375.43,-152.5 363.5,-152.5"/>
<polygon fill="midnightblue" stroke="midnightblue" points="400.38,-156 410.38,-152.5 400.38,-149 400.38,-156"/>
</g>
<!-- Node22 -->
<g id="node22" class="node">
<title>Node22</title>
<g id="a_node22"><a xlink:href="classfspm_1_1config_1_1Config_ab43ca088e354eed9af2d74c813e08ff8.html#ab43ca088e354eed9af2d74c813e08ff8" target="_top" xlink:title=" ">
<polygon fill="none" stroke="black" points="208.5,-99 208.5,-118 369.5,-118 369.5,-99 208.5,-99"/>
<text text-anchor="middle" x="289" y="-106" font-family="Helvetica,sans-Serif" font-size="10.00">fspm.config.Config.getInteger</text>
</a>
</g>
</g>
<!-- Node21&#45;&gt;Node22 -->
<g id="edge22" class="edge">
<title>Node21&#45;&gt;Node22</title>
<path fill="none" stroke="midnightblue" d="M436.44,-140.72C404.15,-133.61 363.56,-124.68 333.31,-118.03"/>
<polygon fill="midnightblue" stroke="midnightblue" points="436.08,-144.22 446.6,-142.95 437.59,-137.39 436.08,-144.22"/>
</g>
<!-- Node24 -->
<g id="node24" class="node">
<title>Node24</title>
<g id="a_node24"><a xlink:href="classfspm_1_1config_1_1Config_a3be13c8aecc91ab1cd95692ec65df305.html#a3be13c8aecc91ab1cd95692ec65df305" target="_top" xlink:title=" ">
<polygon fill="none" stroke="black" points="413.5,-372 413.5,-391 568.5,-391 568.5,-372 413.5,-372"/>
<text text-anchor="middle" x="491" y="-379" font-family="Helvetica,sans-Serif" font-size="10.00">fspm.config.Config.getString</text>
</a>
</g>
</g>
<!-- Node23&#45;&gt;Node24 -->
<g id="edge25" class="edge">
<title>Node23&#45;&gt;Node24</title>
<path fill="none" stroke="midnightblue" d="M625.68,-313.16C620.34,-315.2 615.04,-317.32 610,-319.5 572.61,-335.66 530.86,-358.9 508.41,-371.85"/>
<polygon fill="midnightblue" stroke="midnightblue" points="627.13,-316.36 635.3,-309.61 624.71,-309.79 627.13,-316.36"/>
</g>
<!-- Node24&#45;&gt;Node4 -->
<g id="edge26" class="edge">
<title>Node24&#45;&gt;Node4</title>
<path fill="none" stroke="midnightblue" d="M465.26,-396.4C433.57,-415.42 381.57,-446.38 372,-450.5 364.37,-453.79 356.16,-456.79 347.98,-459.46"/>
<polygon fill="midnightblue" stroke="midnightblue" points="467.22,-399.31 473.99,-391.16 463.61,-393.31 467.22,-399.31"/>
</g>
<!-- Node24&#45;&gt;Node6 -->
<g id="edge28" class="edge">
<title>Node24&#45;&gt;Node6</title>
<path fill="none" stroke="midnightblue" d="M436.63,-393.24C412.63,-398.52 384.03,-404.81 358.48,-410.43"/>
<polygon fill="midnightblue" stroke="midnightblue" points="437.59,-396.61 446.6,-391.05 436.08,-389.78 437.59,-396.61"/>
</g>
<!-- Node24&#45;&gt;Node14 -->
<g id="edge29" class="edge">
<title>Node24&#45;&gt;Node14</title>
<path fill="none" stroke="midnightblue" d="M475.02,-364.09C457.29,-342.85 427.69,-305.33 408,-269.5 386.85,-231.02 404.22,-207.33 372,-177.5 367.85,-173.66 363.12,-170.41 358.09,-167.65"/>
<polygon fill="midnightblue" stroke="midnightblue" points="472.49,-366.52 481.62,-371.9 477.83,-362 472.49,-366.52"/>
</g>
<!-- Node25 -->
<g id="node25" class="node">
<title>Node25</title>
<g id="a_node25"><a xlink:href="classfspm_1_1config_1_1Config_af23cb05ac69ea93fa48ed533f677ff1d.html#af23cb05ac69ea93fa48ed533f677ff1d" target="_top" xlink:title=" ">
<polygon fill="none" stroke="black" points="211.5,-372 211.5,-391 366.5,-391 366.5,-372 211.5,-372"/>
<text text-anchor="middle" x="289" y="-379" font-family="Helvetica,sans-Serif" font-size="10.00">fspm.config.Config.getString</text>
</a>
</g>
</g>
<!-- Node24&#45;&gt;Node25 -->
<g id="edge27" class="edge">
<title>Node24&#45;&gt;Node25</title>
<path fill="none" stroke="midnightblue" d="M403.1,-381.5C390.94,-381.5 378.5,-381.5 366.55,-381.5"/>
<polygon fill="midnightblue" stroke="midnightblue" points="403.25,-385 413.25,-381.5 403.25,-378 403.25,-385"/>
</g>
<!-- Node26&#45;&gt;Node2 -->
<g id="edge31" class="edge">
<title>Node26&#45;&gt;Node2</title>
<path fill="none" stroke="midnightblue" d="M849.47,-225.17C830.36,-251.7 796.07,-294.27 757,-319.5 751.77,-322.88 746.01,-325.83 740.1,-328.39"/>
<polygon fill="midnightblue" stroke="midnightblue" points="852.44,-227.03 855.35,-216.84 846.73,-222.99 852.44,-227.03"/>
</g>
<!-- Node26&#45;&gt;Node8 -->
<g id="edge32" class="edge">
<title>Node26&#45;&gt;Node8</title>
<path fill="none" stroke="midnightblue" d="M793.57,-218.99C777.93,-222.79 761.52,-226.78 746.31,-230.47"/>
<polygon fill="midnightblue" stroke="midnightblue" points="794.83,-222.28 803.72,-216.52 793.17,-215.48 794.83,-222.28"/>
</g>
<!-- Node26&#45;&gt;Node16 -->
<g id="edge33" class="edge">
<title>Node26&#45;&gt;Node16</title>
<path fill="none" stroke="midnightblue" d="M836.93,-180.57C815.68,-165.69 785.54,-146.04 757,-132.5 750.17,-129.26 742.79,-126.27 735.44,-123.59"/>
<polygon fill="midnightblue" stroke="midnightblue" points="835,-183.49 845.18,-186.41 839.04,-177.77 835,-183.49"/>
</g>
<!-- Node26&#45;&gt;Node20 -->
<g id="edge34" class="edge">
<title>Node26&#45;&gt;Node20</title>
<path fill="none" stroke="midnightblue" d="M793.57,-184.01C777.93,-180.21 761.52,-176.22 746.31,-172.53"/>
<polygon fill="midnightblue" stroke="midnightblue" points="793.17,-187.52 803.72,-186.48 794.83,-180.72 793.17,-187.52"/>
</g>
<!-- Node26&#45;&gt;Node23 -->
<g id="edge35" class="edge">
<title>Node26&#45;&gt;Node23</title>
<path fill="none" stroke="midnightblue" d="M836.93,-222.43C815.68,-237.31 785.54,-256.96 757,-270.5 750.17,-273.74 742.79,-276.73 735.44,-279.41"/>
<polygon fill="midnightblue" stroke="midnightblue" points="839.04,-225.23 845.18,-216.59 835,-219.51 839.04,-225.23"/>
</g>
<!-- Node27 -->
<g id="node27" class="node">
<title>Node27</title>
<g id="a_node27"><a xlink:href="classfspm_1_1config_1_1Config_a23eaad13093f0089ec76d726607956b5.html#a23eaad13093f0089ec76d726607956b5" target="_top" xlink:title=" ">
<polygon fill="none" stroke="black" points="422,-187 422,-206 560,-206 560,-187 422,-187"/>
<text text-anchor="middle" x="491" y="-194" font-family="Helvetica,sans-Serif" font-size="10.00">fspm.config.Config.isNull</text>
</a>
</g>
</g>
<!-- Node26&#45;&gt;Node27 -->
<g id="edge36" class="edge">
<title>Node26&#45;&gt;Node27</title>
<path fill="none" stroke="midnightblue" d="M782.52,-200.39C715.69,-199.49 622.89,-198.25 560.31,-197.41"/>
<polygon fill="midnightblue" stroke="midnightblue" points="782.55,-203.89 792.6,-200.52 782.65,-196.89 782.55,-203.89"/>
</g>
<!-- Node27&#45;&gt;Node14 -->
<g id="edge37" class="edge">
<title>Node27&#45;&gt;Node14</title>
<path fill="none" stroke="midnightblue" d="M436.63,-184.76C412.63,-179.48 384.03,-173.19 358.48,-167.57"/>
<polygon fill="midnightblue" stroke="midnightblue" points="436.08,-188.22 446.6,-186.95 437.59,-181.39 436.08,-188.22"/>
</g>
</g>
</svg>
