<?xml version="1.0" encoding="UTF-8" standalone="no"?>
<!DOCTYPE svg PUBLIC "-//W3C//DTD SVG 1.1//EN"
 "http://www.w3.org/Graphics/SVG/1.1/DTD/svg11.dtd">
<!-- Generated by graphviz version 2.43.0 (0)
 -->
<!-- Title: fspm.config.params.ParamTable.isNull Pages: 1 -->
<svg width="388pt" height="78pt"
 viewBox="0.00 0.00 388.00 77.50" xmlns="http://www.w3.org/2000/svg" xmlns:xlink="http://www.w3.org/1999/xlink">
<g id="graph0" class="graph" transform="scale(1 1) rotate(0) translate(4 73.5)">
<title>fspm.config.params.ParamTable.isNull</title>
<!-- Node1 -->
<g id="node1" class="node">
<title>Node1</title>
<g id="a_node1"><a xlink:title=" ">
<polygon fill="#bfbfbf" stroke="black" points="0,-17 0,-47 147,-47 147,-17 0,-17"/>
<text text-anchor="start" x="8" y="-35" font-family="Helvetica,sans-Serif" font-size="10.00">fspm.config.params.Param</text>
<text text-anchor="middle" x="73.5" y="-24" font-family="Helvetica,sans-Serif" font-size="10.00">Table.isNull</text>
</a>
</g>
</g>
<!-- Node2 -->
<g id="node2" class="node">
<title>Node2</title>
<g id="a_node2"><a xlink:href="classfspm_1_1config_1_1params_1_1ParamTable_a0cd54f7d2fd850005f50a930425e7dff.html#a0cd54f7d2fd850005f50a930425e7dff" target="_top" xlink:title=" ">
<polygon fill="none" stroke="black" points="208,-39 208,-69 355,-69 355,-39 208,-39"/>
<text text-anchor="start" x="216" y="-57" font-family="Helvetica,sans-Serif" font-size="10.00">fspm.config.params.Param</text>
<text text-anchor="middle" x="281.5" y="-46" font-family="Helvetica,sans-Serif" font-size="10.00">Table.getParameter</text>
</a>
</g>
</g>
<!-- Node1&#45;&gt;Node2 -->
<g id="edge1" class="edge">
<title>Node1&#45;&gt;Node2</title>
<path fill="none" stroke="midnightblue" d="M147.13,-39.76C163.44,-41.5 180.86,-43.36 197.55,-45.14"/>
<polygon fill="midnightblue" stroke="midnightblue" points="197.52,-48.66 207.83,-46.24 198.26,-41.7 197.52,-48.66"/>
</g>
<!-- Node3 -->
<g id="node3" class="node">
<title>Node3</title>
<g id="a_node3"><a xlink:href="classfspm_1_1config_1_1params_1_1Parameter_a2fd72835a908354fea23f92e3f3b1800.html#a2fd72835a908354fea23f92e3f3b1800" target="_top" xlink:title=" ">
<polygon fill="none" stroke="black" points="183,-0.5 183,-19.5 380,-19.5 380,-0.5 183,-0.5"/>
<text text-anchor="middle" x="281.5" y="-7.5" font-family="Helvetica,sans-Serif" font-size="10.00">fspm.config.params.Parameter.isNull</text>
</a>
</g>
</g>
<!-- Node1&#45;&gt;Node3 -->
<g id="edge2" class="edge">
<title>Node1&#45;&gt;Node3</title>
<path fill="none" stroke="midnightblue" d="M147.13,-24.24C158.15,-23.07 169.68,-21.84 181.15,-20.61"/>
<polygon fill="midnightblue" stroke="midnightblue" points="181.62,-24.08 191.2,-19.54 180.88,-17.12 181.62,-24.08"/>
</g>
</g>
</svg>
