<?xml version="1.0" encoding="UTF-8" standalone="no"?>
<!DOCTYPE svg PUBLIC "-//W3C//DTD SVG 1.1//EN"
 "http://www.w3.org/Graphics/SVG/1.1/DTD/svg11.dtd">
<!-- Generated by graphviz version 2.43.0 (0)
 -->
<!-- Title: io.github.fruitcropxl.config.params.ParamTable.getArray Pages: 1 -->
<svg width="420pt" height="374pt"
 viewBox="0.00 0.00 420.00 374.00" xmlns="http://www.w3.org/2000/svg" xmlns:xlink="http://www.w3.org/1999/xlink">
<g id="graph0" class="graph" transform="scale(1 1) rotate(0) translate(4 370)">
<title>io.github.fruitcropxl.config.params.ParamTable.getArray</title>
<!-- Node1 -->
<g id="Node000001" class="node">
<title>Node1</title>
<g id="a_Node000001"><a xlink:title=" ">
<polygon fill="#999999" stroke="#666666" points="412,-198 224,-198 224,-168 412,-168 412,-198"/>
<text text-anchor="start" x="232" y="-186" font-family="Helvetica,sans-Serif" font-size="10.00">io.github.fruitcropxl.config.params.</text>
<text text-anchor="middle" x="318" y="-175" font-family="Helvetica,sans-Serif" font-size="10.00">ParamTable.getArray</text>
</a>
</g>
</g>
<!-- Node2 -->
<g id="Node000002" class="node">
<title>Node2</title>
<g id="a_Node000002"><a xlink:href="classio_1_1github_1_1fruitcropxl_1_1config_1_1params_1_1ParamTable_aee39335ddac2d95ec227b532a0474213.html#aee39335ddac2d95ec227b532a0474213" target="_top" xlink:title=" ">
<polygon fill="white" stroke="#666666" points="188,-366 0,-366 0,-336 188,-336 188,-366"/>
<text text-anchor="start" x="8" y="-354" font-family="Helvetica,sans-Serif" font-size="10.00">io.github.fruitcropxl.config.params.</text>
<text text-anchor="middle" x="94" y="-343" font-family="Helvetica,sans-Serif" font-size="10.00">ParamTable.getBooleanArray</text>
</a>
</g>
</g>
<!-- Node1&#45;&gt;Node2 -->
<g id="edge1_Node000001_Node000002" class="edge">
<title>Node1&#45;&gt;Node2</title>
<g id="a_edge1_Node000001_Node000002"><a xlink:title=" ">
<path fill="none" stroke="#63b8ff" d="M302.07,-207.09C280.79,-239.39 238.64,-296.2 188,-327 182.3,-330.47 176.11,-333.43 169.73,-335.98"/>
<polygon fill="#63b8ff" stroke="#63b8ff" points="305.27,-208.59 307.76,-198.29 299.39,-204.8 305.27,-208.59"/>
</a>
</g>
</g>
<!-- Node3 -->
<g id="Node000003" class="node">
<title>Node3</title>
<g id="a_Node000003"><a xlink:href="classio_1_1github_1_1fruitcropxl_1_1config_1_1params_1_1ParamTable_aebfe4ec1cc8de3b7c3968c4cc9769d3d.html#aebfe4ec1cc8de3b7c3968c4cc9769d3d" target="_top" xlink:title=" ">
<polygon fill="white" stroke="#666666" points="188,-318 0,-318 0,-288 188,-288 188,-318"/>
<text text-anchor="start" x="8" y="-306" font-family="Helvetica,sans-Serif" font-size="10.00">io.github.fruitcropxl.config.params.</text>
<text text-anchor="middle" x="94" y="-295" font-family="Helvetica,sans-Serif" font-size="10.00">ParamTable.getBooleanArray</text>
</a>
</g>
</g>
<!-- Node1&#45;&gt;Node3 -->
<g id="edge2_Node000001_Node000003" class="edge">
<title>Node1&#45;&gt;Node3</title>
<g id="a_edge2_Node000001_Node000003"><a xlink:title=" ">
<path fill="none" stroke="#63b8ff" d="M293.15,-205.28C268.57,-227.08 228.27,-259.74 188,-279 180.93,-282.38 173.32,-285.33 165.61,-287.89"/>
<polygon fill="#63b8ff" stroke="#63b8ff" points="295.77,-207.63 300.86,-198.33 291.08,-202.42 295.77,-207.63"/>
</a>
</g>
</g>
<!-- Node4 -->
<g id="Node000004" class="node">
<title>Node4</title>
<g id="a_Node000004"><a xlink:href="classio_1_1github_1_1fruitcropxl_1_1config_1_1params_1_1ParamTable_ac8e6b95fdac66911b5a1f7c4ad2b1c60.html#ac8e6b95fdac66911b5a1f7c4ad2b1c60" target="_top" xlink:title=" ">
<polygon fill="white" stroke="#666666" points="188,-270 0,-270 0,-240 188,-240 188,-270"/>
<text text-anchor="start" x="8" y="-258" font-family="Helvetica,sans-Serif" font-size="10.00">io.github.fruitcropxl.config.params.</text>
<text text-anchor="middle" x="94" y="-247" font-family="Helvetica,sans-Serif" font-size="10.00">ParamTable.getDoubleArray</text>
</a>
</g>
</g>
<!-- Node1&#45;&gt;Node4 -->
<g id="edge3_Node000001_Node000004" class="edge">
<title>Node1&#45;&gt;Node4</title>
<g id="a_edge3_Node000001_Node000004"><a xlink:title=" ">
<path fill="none" stroke="#63b8ff" d="M270.46,-201.65C246.11,-211.07 215.67,-222.31 188,-231 178.14,-234.1 167.6,-237.1 157.28,-239.88"/>
<polygon fill="#63b8ff" stroke="#63b8ff" points="271.77,-204.89 279.82,-198 269.23,-198.37 271.77,-204.89"/>
</a>
</g>
</g>
<!-- Node5 -->
<g id="Node000005" class="node">
<title>Node5</title>
<g id="a_Node000005"><a xlink:href="classio_1_1github_1_1fruitcropxl_1_1config_1_1params_1_1ParamTable_a3498ead7efa149dd1d2bbad5007c1403.html#a3498ead7efa149dd1d2bbad5007c1403" target="_top" xlink:title=" ">
<polygon fill="white" stroke="#666666" points="188,-222 0,-222 0,-192 188,-192 188,-222"/>
<text text-anchor="start" x="8" y="-210" font-family="Helvetica,sans-Serif" font-size="10.00">io.github.fruitcropxl.config.params.</text>
<text text-anchor="middle" x="94" y="-199" font-family="Helvetica,sans-Serif" font-size="10.00">ParamTable.getDoubleArray</text>
</a>
</g>
</g>
<!-- Node1&#45;&gt;Node5 -->
<g id="edge4_Node000001_Node000005" class="edge">
<title>Node1&#45;&gt;Node5</title>
<g id="a_edge4_Node000001_Node000005"><a xlink:title=" ">
<path fill="none" stroke="#63b8ff" d="M213.85,-194.15C205.33,-195.07 196.74,-196 188.3,-196.91"/>
<polygon fill="#63b8ff" stroke="#63b8ff" points="214.25,-197.63 223.82,-193.07 213.5,-190.67 214.25,-197.63"/>
</a>
</g>
</g>
<!-- Node6 -->
<g id="Node000006" class="node">
<title>Node6</title>
<g id="a_Node000006"><a xlink:href="classio_1_1github_1_1fruitcropxl_1_1config_1_1params_1_1ParamTable_a7902e1e5fe828371ff64758d9d473aaf.html#a7902e1e5fe828371ff64758d9d473aaf" target="_top" xlink:title=" ">
<polygon fill="white" stroke="#666666" points="188,-174 0,-174 0,-144 188,-144 188,-174"/>
<text text-anchor="start" x="8" y="-162" font-family="Helvetica,sans-Serif" font-size="10.00">io.github.fruitcropxl.config.params.</text>
<text text-anchor="middle" x="94" y="-151" font-family="Helvetica,sans-Serif" font-size="10.00">ParamTable.getIntegerArray</text>
</a>
</g>
</g>
<!-- Node1&#45;&gt;Node6 -->
<g id="edge5_Node000001_Node000006" class="edge">
<title>Node1&#45;&gt;Node6</title>
<g id="a_edge5_Node000001_Node000006"><a xlink:title=" ">
<path fill="none" stroke="#63b8ff" d="M213.85,-171.85C205.33,-170.93 196.74,-170 188.3,-169.09"/>
<polygon fill="#63b8ff" stroke="#63b8ff" points="213.5,-175.33 223.82,-172.93 214.25,-168.37 213.5,-175.33"/>
</a>
</g>
</g>
<!-- Node7 -->
<g id="Node000007" class="node">
<title>Node7</title>
<g id="a_Node000007"><a xlink:href="classio_1_1github_1_1fruitcropxl_1_1config_1_1params_1_1ParamTable_aa04cedb31288a1f6d60afd6d802e61d7.html#aa04cedb31288a1f6d60afd6d802e61d7" target="_top" xlink:title=" ">
<polygon fill="white" stroke="#666666" points="188,-126 0,-126 0,-96 188,-96 188,-126"/>
<text text-anchor="start" x="8" y="-114" font-family="Helvetica,sans-Serif" font-size="10.00">io.github.fruitcropxl.config.params.</text>
<text text-anchor="middle" x="94" y="-103" font-family="Helvetica,sans-Serif" font-size="10.00">ParamTable.getIntegerArray</text>
</a>
</g>
</g>
<!-- Node1&#45;&gt;Node7 -->
<g id="edge6_Node000001_Node000007" class="edge">
<title>Node1&#45;&gt;Node7</title>
<g id="a_edge6_Node000001_Node000007"><a xlink:title=" ">
<path fill="none" stroke="#63b8ff" d="M270.46,-164.35C246.11,-154.93 215.67,-143.69 188,-135 178.14,-131.9 167.6,-128.9 157.28,-126.12"/>
<polygon fill="#63b8ff" stroke="#63b8ff" points="269.23,-167.63 279.82,-168 271.77,-161.11 269.23,-167.63"/>
</a>
</g>
</g>
<!-- Node8 -->
<g id="Node000008" class="node">
<title>Node8</title>
<g id="a_Node000008"><a xlink:href="classio_1_1github_1_1fruitcropxl_1_1config_1_1params_1_1ParamTable_a2565a85e38144656726cef5422b3fdd9.html#a2565a85e38144656726cef5422b3fdd9" target="_top" xlink:title=" ">
<polygon fill="white" stroke="#666666" points="188,-78 0,-78 0,-48 188,-48 188,-78"/>
<text text-anchor="start" x="8" y="-66" font-family="Helvetica,sans-Serif" font-size="10.00">io.github.fruitcropxl.config.params.</text>
<text text-anchor="middle" x="94" y="-55" font-family="Helvetica,sans-Serif" font-size="10.00">ParamTable.getStringArray</text>
</a>
</g>
</g>
<!-- Node1&#45;&gt;Node8 -->
<g id="edge7_Node000001_Node000008" class="edge">
<title>Node1&#45;&gt;Node8</title>
<g id="a_edge7_Node000001_Node000008"><a xlink:title=" ">
<path fill="none" stroke="#63b8ff" d="M293.15,-160.72C268.57,-138.92 228.27,-106.26 188,-87 180.93,-83.62 173.32,-80.67 165.61,-78.11"/>
<polygon fill="#63b8ff" stroke="#63b8ff" points="291.08,-163.58 300.86,-167.67 295.77,-158.37 291.08,-163.58"/>
</a>
</g>
</g>
<!-- Node9 -->
<g id="Node000009" class="node">
<title>Node9</title>
<g id="a_Node000009"><a xlink:href="classio_1_1github_1_1fruitcropxl_1_1config_1_1params_1_1ParamTable_a3f1163fc8de55f388e38c5efdf259ba9.html#a3f1163fc8de55f388e38c5efdf259ba9" target="_top" xlink:title=" ">
<polygon fill="white" stroke="#666666" points="188,-30 0,-30 0,0 188,0 188,-30"/>
<text text-anchor="start" x="8" y="-18" font-family="Helvetica,sans-Serif" font-size="10.00">io.github.fruitcropxl.config.params.</text>
<text text-anchor="middle" x="94" y="-7" font-family="Helvetica,sans-Serif" font-size="10.00">ParamTable.getStringArray</text>
</a>
</g>
</g>
<!-- Node1&#45;&gt;Node9 -->
<g id="edge8_Node000001_Node000009" class="edge">
<title>Node1&#45;&gt;Node9</title>
<g id="a_edge8_Node000001_Node000009"><a xlink:title=" ">
<path fill="none" stroke="#63b8ff" d="M302.07,-158.91C280.79,-126.61 238.64,-69.8 188,-39 182.3,-35.53 176.11,-32.57 169.73,-30.02"/>
<polygon fill="#63b8ff" stroke="#63b8ff" points="299.39,-161.2 307.76,-167.71 305.27,-157.41 299.39,-161.2"/>
</a>
</g>
</g>
</g>
</svg>
