<?xml version="1.0" encoding="UTF-8" standalone="no"?>
<!DOCTYPE svg PUBLIC "-//W3C//DTD SVG 1.1//EN"
 "http://www.w3.org/Graphics/SVG/1.1/DTD/svg11.dtd">
<!-- Generated by graphviz version 2.43.0 (0)
 -->
<!-- Title: fspm.config.ConfigTestSuite Pages: 1 -->
<svg width="269pt" height="491pt"
 viewBox="0.00 0.00 269.00 491.00" xmlns="http://www.w3.org/2000/svg" xmlns:xlink="http://www.w3.org/1999/xlink">
<g id="graph0" class="graph" transform="scale(1 1) rotate(0) translate(4 487)">
<title>fspm.config.ConfigTestSuite</title>
<!-- Node1 -->
<g id="node1" class="node">
<title>Node1</title>
<g id="a_node1"><a xlink:title=" ">
<polygon fill="#bfbfbf" stroke="black" points="31,-0.5 31,-57.5 183,-57.5 183,-0.5 31,-0.5"/>
<text text-anchor="middle" x="107" y="-45.5" font-family="Helvetica,sans-Serif" font-size="10.00">fspm.config.ConfigTestSuite</text>
<polyline fill="none" stroke="black" points="31,-38.5 183,-38.5 "/>
<text text-anchor="middle" x="107" y="-26.5" font-family="Helvetica,sans-Serif" font-size="10.00"> </text>
<polyline fill="none" stroke="black" points="31,-19.5 183,-19.5 "/>
<text text-anchor="start" x="39" y="-7.5" font-family="Helvetica,sans-Serif" font-size="10.00">+ println()</text>
</a>
</g>
</g>
<!-- Node2 -->
<g id="node2" class="node">
<title>Node2</title>
<g id="a_node2"><a xlink:href="classfspm_1_1config_1_1Config.html" target="_top" xlink:title="Configuration class for storing input configurations to be used in simulations.">
<polygon fill="none" stroke="black" points="53.5,-105.5 53.5,-250.5 160.5,-250.5 160.5,-105.5 53.5,-105.5"/>
<text text-anchor="middle" x="107" y="-238.5" font-family="Helvetica,sans-Serif" font-size="10.00">fspm.config.Config</text>
<polyline fill="none" stroke="black" points="53.5,-231.5 160.5,-231.5 "/>
<text text-anchor="middle" x="107" y="-219.5" font-family="Helvetica,sans-Serif" font-size="10.00"> </text>
<polyline fill="none" stroke="black" points="53.5,-212.5 160.5,-212.5 "/>
<text text-anchor="start" x="61.5" y="-200.5" font-family="Helvetica,sans-Serif" font-size="10.00">+ reset()</text>
<text text-anchor="start" x="61.5" y="-189.5" font-family="Helvetica,sans-Serif" font-size="10.00">+ addGroup()</text>
<text text-anchor="start" x="61.5" y="-178.5" font-family="Helvetica,sans-Serif" font-size="10.00">+ addGroup()</text>
<text text-anchor="start" x="61.5" y="-167.5" font-family="Helvetica,sans-Serif" font-size="10.00">+ addGroup()</text>
<text text-anchor="start" x="61.5" y="-156.5" font-family="Helvetica,sans-Serif" font-size="10.00">+ removeGroup()</text>
<text text-anchor="start" x="61.5" y="-145.5" font-family="Helvetica,sans-Serif" font-size="10.00">+ getInstance()</text>
<text text-anchor="start" x="61.5" y="-134.5" font-family="Helvetica,sans-Serif" font-size="10.00">~ getGroup()</text>
<text text-anchor="start" x="61.5" y="-123.5" font-family="Helvetica,sans-Serif" font-size="10.00">&#45; Config()</text>
<text text-anchor="start" x="61.5" y="-112.5" font-family="Helvetica,sans-Serif" font-size="10.00">&#45; addGroup()</text>
</a>
</g>
</g>
<!-- Node2&#45;&gt;Node1 -->
<g id="edge1" class="edge">
<title>Node2&#45;&gt;Node1</title>
<path fill="none" stroke="#404040" d="M107,-105.22C107,-93.07 107,-80.85 107,-69.91"/>
<polygon fill="none" stroke="#404040" points="107,-69.71 103,-63.71 107,-57.71 111,-63.71 107,-69.71"/>
<text text-anchor="middle" x="132" y="-79" font-family="Helvetica,sans-Serif" font-size="10.00"> +CONFIG</text>
</g>
<!-- Node2&#45;&gt;Node2 -->
<g id="edge4" class="edge">
<title>Node2&#45;&gt;Node2</title>
<path fill="none" stroke="#404040" d="M160.63,-195.2C171.08,-193.2 178.5,-187.47 178.5,-178 178.5,-172.53 176.02,-168.3 171.91,-165.32"/>
<polygon fill="none" stroke="#404040" points="171.77,-165.27 164.71,-166.75 160.63,-160.8 167.69,-159.32 171.77,-165.27"/>
<text text-anchor="middle" x="203" y="-175.5" font-family="Helvetica,sans-Serif" font-size="10.00"> &#45;instance</text>
</g>
<!-- Node3 -->
<g id="node3" class="node">
<title>Node3</title>
<g id="a_node3"><a xlink:title=" ">
<polygon fill="none" stroke="#bfbfbf" points="0,-298.5 0,-366.5 214,-366.5 214,-298.5 0,-298.5"/>
<text text-anchor="start" x="8" y="-354.5" font-family="Helvetica,sans-Serif" font-size="10.00">Map&lt; String, fspm.config.params.group.</text>
<text text-anchor="middle" x="107" y="-343.5" font-family="Helvetica,sans-Serif" font-size="10.00">ParamGroup &gt;</text>
<polyline fill="none" stroke="#bfbfbf" points="0,-336.5 214,-336.5 "/>
<text text-anchor="middle" x="107" y="-324.5" font-family="Helvetica,sans-Serif" font-size="10.00"> </text>
<polyline fill="none" stroke="#bfbfbf" points="0,-317.5 214,-317.5 "/>
<text text-anchor="middle" x="107" y="-305.5" font-family="Helvetica,sans-Serif" font-size="10.00"> </text>
</a>
</g>
</g>
<!-- Node3&#45;&gt;Node2 -->
<g id="edge2" class="edge">
<title>Node3&#45;&gt;Node2</title>
<path fill="none" stroke="#404040" d="M107,-298.41C107,-287.72 107,-275.35 107,-262.7"/>
<polygon fill="none" stroke="#404040" points="107,-262.53 103,-256.53 107,-250.53 111,-256.53 107,-262.53"/>
<text text-anchor="middle" x="143.5" y="-272" font-family="Helvetica,sans-Serif" font-size="10.00"> &#45;paramGroups</text>
</g>
<!-- Node4 -->
<g id="node4" class="node">
<title>Node4</title>
<g id="a_node4"><a xlink:title=" ">
<polygon fill="none" stroke="#bfbfbf" points="88,-425.5 88,-482.5 126,-482.5 126,-425.5 88,-425.5"/>
<text text-anchor="middle" x="107" y="-470.5" font-family="Helvetica,sans-Serif" font-size="10.00">Map</text>
<polyline fill="none" stroke="#bfbfbf" points="88,-463.5 126,-463.5 "/>
<text text-anchor="middle" x="107" y="-451.5" font-family="Helvetica,sans-Serif" font-size="10.00"> </text>
<polyline fill="none" stroke="#bfbfbf" points="88,-444.5 126,-444.5 "/>
<text text-anchor="middle" x="107" y="-432.5" font-family="Helvetica,sans-Serif" font-size="10.00"> </text>
</a>
</g>
</g>
<!-- Node4&#45;&gt;Node3 -->
<g id="edge3" class="edge">
<title>Node4&#45;&gt;Node3</title>
<path fill="none" stroke="orange" d="M107,-414.95C107,-399.4 107,-381.58 107,-366.59"/>
<polygon fill="orange" stroke="orange" points="103.5,-415.28 107,-425.28 110.5,-415.28 103.5,-415.28"/>
<text text-anchor="start" x="107" y="-399" font-family="Helvetica,sans-Serif" font-size="10.00"> &lt; String, fspm::config</text>
<text text-anchor="middle" x="184" y="-388" font-family="Helvetica,sans-Serif" font-size="10.00">::params::group::ParamGroup &gt;</text>
</g>
</g>
</svg>
