<?xml version="1.0" encoding="UTF-8" standalone="no"?>
<!DOCTYPE svg PUBLIC "-//W3C//DTD SVG 1.1//EN"
 "http://www.w3.org/Graphics/SVG/1.1/DTD/svg11.dtd">
<!-- Generated by graphviz version 2.43.0 (0)
 -->
<!-- Title: io.github.fruitcropxl.config.params.ParamTable.getParameter Pages: 1 -->
<svg width="695pt" height="422pt"
 viewBox="0.00 0.00 695.00 422.00" xmlns="http://www.w3.org/2000/svg" xmlns:xlink="http://www.w3.org/1999/xlink">
<g id="graph0" class="graph" transform="scale(1 1) rotate(0) translate(4 418)">
<title>io.github.fruitcropxl.config.params.ParamTable.getParameter</title>
<!-- Node1 -->
<g id="Node000001" class="node">
<title>Node1</title>
<g id="a_Node000001"><a xlink:title=" ">
<polygon fill="#999999" stroke="#666666" points="687,-198 499,-198 499,-168 687,-168 687,-198"/>
<text text-anchor="start" x="507" y="-186" font-family="Helvetica,sans-Serif" font-size="10.00">io.github.fruitcropxl.config.params.</text>
<text text-anchor="middle" x="593" y="-175" font-family="Helvetica,sans-Serif" font-size="10.00">ParamTable.getParameter</text>
</a>
</g>
</g>
<!-- Node2 -->
<g id="Node000002" class="node">
<title>Node2</title>
<g id="a_Node000002"><a xlink:href="classio_1_1github_1_1fruitcropxl_1_1config_1_1params_1_1ParamTable_a9a19ed9d8e338e803e4309b0a6da4ef9.html#a9a19ed9d8e338e803e4309b0a6da4ef9" target="_top" xlink:title=" ">
<polygon fill="white" stroke="#666666" points="463,-342 275,-342 275,-312 463,-312 463,-342"/>
<text text-anchor="start" x="283" y="-330" font-family="Helvetica,sans-Serif" font-size="10.00">io.github.fruitcropxl.config.params.</text>
<text text-anchor="middle" x="369" y="-319" font-family="Helvetica,sans-Serif" font-size="10.00">ParamTable.get</text>
</a>
</g>
</g>
<!-- Node1&#45;&gt;Node2 -->
<g id="edge1_Node000001_Node000002" class="edge">
<title>Node1&#45;&gt;Node2</title>
<g id="a_edge1_Node000001_Node000002"><a xlink:title=" ">
<path fill="none" stroke="#63b8ff" d="M560.14,-203.67C514.96,-232.97 433.34,-285.91 393.36,-311.85"/>
<polygon fill="#63b8ff" stroke="#63b8ff" points="562.18,-206.52 568.66,-198.14 558.37,-200.64 562.18,-206.52"/>
</a>
</g>
</g>
<!-- Node4 -->
<g id="Node000004" class="node">
<title>Node4</title>
<g id="a_Node000004"><a xlink:href="classio_1_1github_1_1fruitcropxl_1_1config_1_1params_1_1ParamTable_a252c4fcfb67474d2bb200b1618341a14.html#a252c4fcfb67474d2bb200b1618341a14" target="_top" xlink:title=" ">
<polygon fill="white" stroke="#666666" points="463,-222 275,-222 275,-192 463,-192 463,-222"/>
<text text-anchor="start" x="283" y="-210" font-family="Helvetica,sans-Serif" font-size="10.00">io.github.fruitcropxl.config.params.</text>
<text text-anchor="middle" x="369" y="-199" font-family="Helvetica,sans-Serif" font-size="10.00">ParamTable.getArray</text>
</a>
</g>
</g>
<!-- Node1&#45;&gt;Node4 -->
<g id="edge3_Node000001_Node000004" class="edge">
<title>Node1&#45;&gt;Node4</title>
<g id="a_edge3_Node000001_Node000004"><a xlink:title=" ">
<path fill="none" stroke="#63b8ff" d="M488.85,-194.15C480.33,-195.07 471.74,-196 463.3,-196.91"/>
<polygon fill="#63b8ff" stroke="#63b8ff" points="489.25,-197.63 498.82,-193.07 488.5,-190.67 489.25,-197.63"/>
</a>
</g>
</g>
<!-- Node13 -->
<g id="Node000013" class="node">
<title>Node13</title>
<g id="a_Node000013"><a xlink:href="classio_1_1github_1_1fruitcropxl_1_1config_1_1params_1_1ParamTable_a16664982e899fd609cf7af0558b32374.html#a16664982e899fd609cf7af0558b32374" target="_top" xlink:title=" ">
<polygon fill="white" stroke="#666666" points="463,-174 275,-174 275,-144 463,-144 463,-174"/>
<text text-anchor="start" x="283" y="-162" font-family="Helvetica,sans-Serif" font-size="10.00">io.github.fruitcropxl.config.params.</text>
<text text-anchor="middle" x="369" y="-151" font-family="Helvetica,sans-Serif" font-size="10.00">ParamTable.getArray</text>
</a>
</g>
</g>
<!-- Node1&#45;&gt;Node13 -->
<g id="edge12_Node000001_Node000013" class="edge">
<title>Node1&#45;&gt;Node13</title>
<g id="a_edge12_Node000001_Node000013"><a xlink:title=" ">
<path fill="none" stroke="#63b8ff" d="M488.85,-171.85C480.33,-170.93 471.74,-170 463.3,-169.09"/>
<polygon fill="#63b8ff" stroke="#63b8ff" points="488.5,-175.33 498.82,-172.93 489.25,-168.37 488.5,-175.33"/>
</a>
</g>
</g>
<!-- Node14 -->
<g id="Node000014" class="node">
<title>Node14</title>
<g id="a_Node000014"><a xlink:href="classio_1_1github_1_1fruitcropxl_1_1config_1_1params_1_1ParamTable_abdd16b1d912142017f265779be37f9ec.html#abdd16b1d912142017f265779be37f9ec" target="_top" xlink:title=" ">
<polygon fill="white" stroke="#666666" points="463,-126 275,-126 275,-96 463,-96 463,-126"/>
<text text-anchor="start" x="283" y="-114" font-family="Helvetica,sans-Serif" font-size="10.00">io.github.fruitcropxl.config.params.</text>
<text text-anchor="middle" x="369" y="-103" font-family="Helvetica,sans-Serif" font-size="10.00">ParamTable.isNull</text>
</a>
</g>
</g>
<!-- Node1&#45;&gt;Node14 -->
<g id="edge13_Node000001_Node000014" class="edge">
<title>Node1&#45;&gt;Node14</title>
<g id="a_edge13_Node000001_Node000014"><a xlink:title=" ">
<path fill="none" stroke="#63b8ff" d="M545.46,-164.35C521.11,-154.93 490.67,-143.69 463,-135 453.14,-131.9 442.6,-128.9 432.28,-126.12"/>
<polygon fill="#63b8ff" stroke="#63b8ff" points="544.23,-167.63 554.82,-168 546.77,-161.11 544.23,-167.63"/>
</a>
</g>
</g>
<!-- Node3 -->
<g id="Node000003" class="node">
<title>Node3</title>
<g id="a_Node000003"><a xlink:href="classio_1_1github_1_1fruitcropxl_1_1config_1_1params_1_1structures_1_1TableStore_a7c08cb50dcc88836cdab9104a0b514a9.html#a7c08cb50dcc88836cdab9104a0b514a9" target="_top" xlink:title=" ">
<polygon fill="white" stroke="#666666" points="239,-414 0,-414 0,-384 239,-384 239,-414"/>
<text text-anchor="start" x="8" y="-402" font-family="Helvetica,sans-Serif" font-size="10.00">io.github.fruitcropxl.config.params.structures.</text>
<text text-anchor="middle" x="119.5" y="-391" font-family="Helvetica,sans-Serif" font-size="10.00">TableStore.getTable</text>
</a>
</g>
</g>
<!-- Node2&#45;&gt;Node3 -->
<g id="edge2_Node000002_Node000003" class="edge">
<title>Node2&#45;&gt;Node3</title>
<g id="a_edge2_Node000002_Node000003"><a xlink:title=" ">
<path fill="none" stroke="#63b8ff" d="M322.7,-345.84C298.22,-355.51 267.3,-366.92 239,-375 227.49,-378.28 215.24,-381.3 203.14,-383.99"/>
<polygon fill="#63b8ff" stroke="#63b8ff" points="324.1,-349.05 332.08,-342.09 321.5,-342.55 324.1,-349.05"/>
</a>
</g>
</g>
<!-- Node5 -->
<g id="Node000005" class="node">
<title>Node5</title>
<g id="a_Node000005"><a xlink:href="classio_1_1github_1_1fruitcropxl_1_1config_1_1params_1_1ParamTable_aee39335ddac2d95ec227b532a0474213.html#aee39335ddac2d95ec227b532a0474213" target="_top" xlink:title=" ">
<polygon fill="white" stroke="#666666" points="213.5,-366 25.5,-366 25.5,-336 213.5,-336 213.5,-366"/>
<text text-anchor="start" x="33.5" y="-354" font-family="Helvetica,sans-Serif" font-size="10.00">io.github.fruitcropxl.config.params.</text>
<text text-anchor="middle" x="119.5" y="-343" font-family="Helvetica,sans-Serif" font-size="10.00">ParamTable.getBooleanArray</text>
</a>
</g>
</g>
<!-- Node4&#45;&gt;Node5 -->
<g id="edge4_Node000004_Node000005" class="edge">
<title>Node4&#45;&gt;Node5</title>
<g id="a_edge4_Node000004_Node000005"><a xlink:title=" ">
<path fill="none" stroke="#63b8ff" d="M346.54,-229.72C316.62,-260.9 263.33,-314.5 239,-327 231.06,-331.08 222.5,-334.46 213.73,-337.27"/>
<polygon fill="#63b8ff" stroke="#63b8ff" points="349.23,-231.97 353.61,-222.32 344.17,-227.14 349.23,-231.97"/>
</a>
</g>
</g>
<!-- Node6 -->
<g id="Node000006" class="node">
<title>Node6</title>
<g id="a_Node000006"><a xlink:href="classio_1_1github_1_1fruitcropxl_1_1config_1_1params_1_1ParamTable_aebfe4ec1cc8de3b7c3968c4cc9769d3d.html#aebfe4ec1cc8de3b7c3968c4cc9769d3d" target="_top" xlink:title=" ">
<polygon fill="white" stroke="#666666" points="213.5,-318 25.5,-318 25.5,-288 213.5,-288 213.5,-318"/>
<text text-anchor="start" x="33.5" y="-306" font-family="Helvetica,sans-Serif" font-size="10.00">io.github.fruitcropxl.config.params.</text>
<text text-anchor="middle" x="119.5" y="-295" font-family="Helvetica,sans-Serif" font-size="10.00">ParamTable.getBooleanArray</text>
</a>
</g>
</g>
<!-- Node4&#45;&gt;Node6 -->
<g id="edge5_Node000004_Node000006" class="edge">
<title>Node4&#45;&gt;Node6</title>
<g id="a_edge5_Node000004_Node000006"><a xlink:title=" ">
<path fill="none" stroke="#63b8ff" d="M337.29,-227.73C311.95,-243.94 274.5,-265.86 239,-279 229.75,-282.42 219.9,-285.4 209.98,-287.98"/>
<polygon fill="#63b8ff" stroke="#63b8ff" points="339.25,-230.64 345.73,-222.26 335.44,-224.76 339.25,-230.64"/>
</a>
</g>
</g>
<!-- Node7 -->
<g id="Node000007" class="node">
<title>Node7</title>
<g id="a_Node000007"><a xlink:href="classio_1_1github_1_1fruitcropxl_1_1config_1_1params_1_1ParamTable_ac8e6b95fdac66911b5a1f7c4ad2b1c60.html#ac8e6b95fdac66911b5a1f7c4ad2b1c60" target="_top" xlink:title=" ">
<polygon fill="white" stroke="#666666" points="213.5,-270 25.5,-270 25.5,-240 213.5,-240 213.5,-270"/>
<text text-anchor="start" x="33.5" y="-258" font-family="Helvetica,sans-Serif" font-size="10.00">io.github.fruitcropxl.config.params.</text>
<text text-anchor="middle" x="119.5" y="-247" font-family="Helvetica,sans-Serif" font-size="10.00">ParamTable.getDoubleArray</text>
</a>
</g>
</g>
<!-- Node4&#45;&gt;Node7 -->
<g id="edge6_Node000004_Node000007" class="edge">
<title>Node4&#45;&gt;Node7</title>
<g id="a_edge6_Node000004_Node000007"><a xlink:title=" ">
<path fill="none" stroke="#63b8ff" d="M280.2,-224.03C253.33,-229.24 223.98,-234.93 197.86,-240"/>
<polygon fill="#63b8ff" stroke="#63b8ff" points="281.22,-227.4 290.37,-222.06 279.89,-220.52 281.22,-227.4"/>
</a>
</g>
</g>
<!-- Node8 -->
<g id="Node000008" class="node">
<title>Node8</title>
<g id="a_Node000008"><a xlink:href="classio_1_1github_1_1fruitcropxl_1_1config_1_1params_1_1ParamTable_a3498ead7efa149dd1d2bbad5007c1403.html#a3498ead7efa149dd1d2bbad5007c1403" target="_top" xlink:title=" ">
<polygon fill="white" stroke="#666666" points="213.5,-222 25.5,-222 25.5,-192 213.5,-192 213.5,-222"/>
<text text-anchor="start" x="33.5" y="-210" font-family="Helvetica,sans-Serif" font-size="10.00">io.github.fruitcropxl.config.params.</text>
<text text-anchor="middle" x="119.5" y="-199" font-family="Helvetica,sans-Serif" font-size="10.00">ParamTable.getDoubleArray</text>
</a>
</g>
</g>
<!-- Node4&#45;&gt;Node8 -->
<g id="edge7_Node000004_Node000008" class="edge">
<title>Node4&#45;&gt;Node8</title>
<g id="a_edge7_Node000004_Node000008"><a xlink:title=" ">
<path fill="none" stroke="#63b8ff" d="M264.38,-207C247.54,-207 230.2,-207 213.63,-207"/>
<polygon fill="#63b8ff" stroke="#63b8ff" points="264.78,-210.5 274.78,-207 264.78,-203.5 264.78,-210.5"/>
</a>
</g>
</g>
<!-- Node9 -->
<g id="Node000009" class="node">
<title>Node9</title>
<g id="a_Node000009"><a xlink:href="classio_1_1github_1_1fruitcropxl_1_1config_1_1params_1_1ParamTable_a7902e1e5fe828371ff64758d9d473aaf.html#a7902e1e5fe828371ff64758d9d473aaf" target="_top" xlink:title=" ">
<polygon fill="white" stroke="#666666" points="213.5,-174 25.5,-174 25.5,-144 213.5,-144 213.5,-174"/>
<text text-anchor="start" x="33.5" y="-162" font-family="Helvetica,sans-Serif" font-size="10.00">io.github.fruitcropxl.config.params.</text>
<text text-anchor="middle" x="119.5" y="-151" font-family="Helvetica,sans-Serif" font-size="10.00">ParamTable.getIntegerArray</text>
</a>
</g>
</g>
<!-- Node4&#45;&gt;Node9 -->
<g id="edge8_Node000004_Node000009" class="edge">
<title>Node4&#45;&gt;Node9</title>
<g id="a_edge8_Node000004_Node000009"><a xlink:title=" ">
<path fill="none" stroke="#63b8ff" d="M280.2,-189.97C253.33,-184.76 223.98,-179.07 197.86,-174"/>
<polygon fill="#63b8ff" stroke="#63b8ff" points="279.89,-193.48 290.37,-191.94 281.22,-186.6 279.89,-193.48"/>
</a>
</g>
</g>
<!-- Node10 -->
<g id="Node000010" class="node">
<title>Node10</title>
<g id="a_Node000010"><a xlink:href="classio_1_1github_1_1fruitcropxl_1_1config_1_1params_1_1ParamTable_aa04cedb31288a1f6d60afd6d802e61d7.html#aa04cedb31288a1f6d60afd6d802e61d7" target="_top" xlink:title=" ">
<polygon fill="white" stroke="#666666" points="213.5,-126 25.5,-126 25.5,-96 213.5,-96 213.5,-126"/>
<text text-anchor="start" x="33.5" y="-114" font-family="Helvetica,sans-Serif" font-size="10.00">io.github.fruitcropxl.config.params.</text>
<text text-anchor="middle" x="119.5" y="-103" font-family="Helvetica,sans-Serif" font-size="10.00">ParamTable.getIntegerArray</text>
</a>
</g>
</g>
<!-- Node4&#45;&gt;Node10 -->
<g id="edge9_Node000004_Node000010" class="edge">
<title>Node4&#45;&gt;Node10</title>
<g id="a_edge9_Node000004_Node000010"><a xlink:title=" ">
<path fill="none" stroke="#63b8ff" d="M282.49,-187.51C279.91,-186.11 277.4,-184.61 275,-183 252.84,-168.17 261.54,-149.25 239,-135 231.19,-130.07 222.57,-126.12 213.64,-122.97"/>
<polygon fill="#63b8ff" stroke="#63b8ff" points="281,-190.68 291.52,-191.89 284.05,-184.38 281,-190.68"/>
</a>
</g>
</g>
<!-- Node11 -->
<g id="Node000011" class="node">
<title>Node11</title>
<g id="a_Node000011"><a xlink:href="classio_1_1github_1_1fruitcropxl_1_1config_1_1params_1_1ParamTable_a2565a85e38144656726cef5422b3fdd9.html#a2565a85e38144656726cef5422b3fdd9" target="_top" xlink:title=" ">
<polygon fill="white" stroke="#666666" points="213.5,-78 25.5,-78 25.5,-48 213.5,-48 213.5,-78"/>
<text text-anchor="start" x="33.5" y="-66" font-family="Helvetica,sans-Serif" font-size="10.00">io.github.fruitcropxl.config.params.</text>
<text text-anchor="middle" x="119.5" y="-55" font-family="Helvetica,sans-Serif" font-size="10.00">ParamTable.getStringArray</text>
</a>
</g>
</g>
<!-- Node4&#45;&gt;Node11 -->
<g id="edge10_Node000004_Node000011" class="edge">
<title>Node4&#45;&gt;Node11</title>
<g id="a_edge10_Node000004_Node000011"><a xlink:title=" ">
<path fill="none" stroke="#63b8ff" d="M279.11,-186.39C277.69,-185.32 276.32,-184.19 275,-183 241.11,-152.53 273.68,-116.56 239,-87 231.57,-80.67 222.93,-75.84 213.77,-72.19"/>
<polygon fill="#63b8ff" stroke="#63b8ff" points="277.38,-189.45 287.67,-191.98 281.21,-183.58 277.38,-189.45"/>
</a>
</g>
</g>
<!-- Node12 -->
<g id="Node000012" class="node">
<title>Node12</title>
<g id="a_Node000012"><a xlink:href="classio_1_1github_1_1fruitcropxl_1_1config_1_1params_1_1ParamTable_a3f1163fc8de55f388e38c5efdf259ba9.html#a3f1163fc8de55f388e38c5efdf259ba9" target="_top" xlink:title=" ">
<polygon fill="white" stroke="#666666" points="213.5,-30 25.5,-30 25.5,0 213.5,0 213.5,-30"/>
<text text-anchor="start" x="33.5" y="-18" font-family="Helvetica,sans-Serif" font-size="10.00">io.github.fruitcropxl.config.params.</text>
<text text-anchor="middle" x="119.5" y="-7" font-family="Helvetica,sans-Serif" font-size="10.00">ParamTable.getStringArray</text>
</a>
</g>
</g>
<!-- Node4&#45;&gt;Node12 -->
<g id="edge11_Node000004_Node000012" class="edge">
<title>Node4&#45;&gt;Node12</title>
<g id="a_edge11_Node000004_Node000012"><a xlink:title=" ">
<path fill="none" stroke="#63b8ff" d="M277.97,-185.79C276.95,-184.89 275.96,-183.97 275,-183 228.53,-136.18 286.69,-84.58 239,-39 231.72,-32.04 223,-26.84 213.64,-23"/>
<polygon fill="#63b8ff" stroke="#63b8ff" points="276.22,-188.84 286.34,-191.95 280.37,-183.2 276.22,-188.84"/>
</a>
</g>
</g>
</g>
</svg>
