<?xml version="1.0" encoding="UTF-8" standalone="no"?>
<!DOCTYPE svg PUBLIC "-//W3C//DTD SVG 1.1//EN"
 "http://www.w3.org/Graphics/SVG/1.1/DTD/svg11.dtd">
<!-- Generated by graphviz version 2.43.0 (0)
 -->
<!-- Title: fspm.config.params.structures.CategoryStore.getDoubleArray Pages: 1 -->
<!--zoomable 189 -->
<svg id="main" version="1.1" xmlns="http://www.w3.org/2000/svg" xmlns:xlink="http://www.w3.org/1999/xlink" xml:space="preserve" onload="init(evt)">
<style type="text/css"><![CDATA[
.edge:hover path { stroke: red; }
.edge:hover polygon { stroke: red; fill: red; }
]]></style>
<script type="text/javascript"><![CDATA[
var edges = document.getElementsByTagName('g');
if (edges && edges.length) {
  for (var i=0;i<edges.length;i++) {
    if (edges[i].id.substr(0,4)=='edge') {
      edges[i].setAttribute('class','edge');
    }
  }
}
]]></script>
        <defs>
                <circle id="rim" cx="0" cy="0" r="7"/>
                <circle id="rim2" cx="0" cy="0" r="3.5"/>
                <g id="zoomPlus">
                        <use xlink:href="#rim" fill="#404040">
                                <set attributeName="fill" to="#808080" begin="zoomplus.mouseover" end="zoomplus.mouseout"/>
                        </use>
                        <path d="M-4,0h8M0,-4v8" fill="none" stroke="white" stroke-width="1.5" pointer-events="none"/>
                </g>
                <g id="zoomMin">
                        <use xlink:href="#rim" fill="#404040">
                                <set attributeName="fill" to="#808080" begin="zoomminus.mouseover" end="zoomminus.mouseout"/>
                        </use>
                        <path d="M-4,0h8" fill="none" stroke="white" stroke-width="1.5" pointer-events="none"/>
                </g>
                <g id="dirArrow">
                        <path fill="none" stroke="white" stroke-width="1.5" d="M0,-3.0v7 M-2.5,-0.5L0,-3.0L2.5,-0.5"/>
                </g>
               <g id="resetDef">
                       <use xlink:href="#rim2" fill="#404040">
                               <set attributeName="fill" to="#808080" begin="reset.mouseover" end="reset.mouseout"/>
                       </use>
               </g>
        </defs>

<script type="text/javascript">
var viewWidth = 1109;
var viewHeight = 189;
var sectionId = 'dynsection-0';
</script>
<script xlink:href="svgpan.js"/>
<svg id="graph" class="graph">
<g id="viewport">
<title>fspm.config.params.structures.CategoryStore.getDoubleArray</title>
<!-- Node1 -->
<g id="node1" class="node">
<title>Node1</title>
<g id="a_node1"><a xlink:title=" ">
<polygon fill="#bfbfbf" stroke="black" points="0,-62.5 0,-92.5 168,-92.5 168,-62.5 0,-62.5"/>
<text text-anchor="start" x="8" y="-80.5" font-family="Helvetica,sans-Serif" font-size="10.00">fspm.config.params.structures.</text>
<text text-anchor="middle" x="84" y="-69.5" font-family="Helvetica,sans-Serif" font-size="10.00">CategoryStore.getDoubleArray</text>
</a>
</g>
</g>
<!-- Node2 -->
<g id="node2" class="node">
<title>Node2</title>
<g id="a_node2"><a xlink:href="classfspm_1_1config_1_1params_1_1ParamCategory_a480fdf398400180423780ae25a3c4656.html#a480fdf398400180423780ae25a3c4656" target="_top" xlink:title=" ">
<polygon fill="none" stroke="black" points="235,-87.5 235,-117.5 382,-117.5 382,-87.5 235,-87.5"/>
<text text-anchor="start" x="243" y="-105.5" font-family="Helvetica,sans-Serif" font-size="10.00">fspm.config.params.Param</text>
<text text-anchor="middle" x="308.5" y="-94.5" font-family="Helvetica,sans-Serif" font-size="10.00">Category.getDoubleArray</text>
</a>
</g>
</g>
<!-- Node1&#45;&gt;Node2 -->
<g id="edge1" class="edge">
<title>Node1&#45;&gt;Node2</title>
<path fill="none" stroke="midnightblue" d="M168.17,-86.84C186.6,-88.92 206.14,-91.11 224.56,-93.18"/>
<polygon fill="midnightblue" stroke="midnightblue" points="224.34,-96.68 234.67,-94.32 225.12,-89.72 224.34,-96.68"/>
</g>
<!-- Node9 -->
<g id="node9" class="node">
<title>Node9</title>
<g id="a_node9"><a xlink:href="classfspm_1_1config_1_1params_1_1structures_1_1CategoryStore_ae066b355d784560a9c277722940d3d4a.html#ae066b355d784560a9c277722940d3d4a" target="_top" xlink:title=" ">
<polygon fill="none" stroke="black" points="204,-38.5 204,-68.5 413,-68.5 413,-38.5 204,-38.5"/>
<text text-anchor="start" x="212" y="-56.5" font-family="Helvetica,sans-Serif" font-size="10.00">fspm.config.params.structures.</text>
<text text-anchor="middle" x="308.5" y="-45.5" font-family="Helvetica,sans-Serif" font-size="10.00">CategoryStore.validateFlattenedAccess</text>
</a>
</g>
</g>
<!-- Node1&#45;&gt;Node9 -->
<g id="edge9" class="edge">
<title>Node1&#45;&gt;Node9</title>
<path fill="none" stroke="midnightblue" d="M168.17,-68.53C176.51,-67.63 185.07,-66.71 193.66,-65.78"/>
<polygon fill="midnightblue" stroke="midnightblue" points="194.17,-69.25 203.73,-64.69 193.41,-62.29 194.17,-69.25"/>
</g>
<!-- Node3 -->
<g id="node3" class="node">
<title>Node3</title>
<g id="a_node3"><a xlink:href="classfspm_1_1config_1_1params_1_1Parameter_a9602723e39e140c1a5188f3f6bafacfa.html#a9602723e39e140c1a5188f3f6bafacfa" target="_top" xlink:title=" ">
<polygon fill="none" stroke="black" points="460.5,-126.5 460.5,-156.5 640.5,-156.5 640.5,-126.5 460.5,-126.5"/>
<text text-anchor="start" x="468.5" y="-144.5" font-family="Helvetica,sans-Serif" font-size="10.00">fspm.config.params.Parameter.as</text>
<text text-anchor="middle" x="550.5" y="-133.5" font-family="Helvetica,sans-Serif" font-size="10.00">DoubleArray</text>
</a>
</g>
</g>
<!-- Node2&#45;&gt;Node3 -->
<g id="edge2" class="edge">
<title>Node2&#45;&gt;Node3</title>
<path fill="none" stroke="midnightblue" d="M382.16,-114.31C403.55,-117.78 427.33,-121.65 450.1,-125.35"/>
<polygon fill="midnightblue" stroke="midnightblue" points="449.69,-128.83 460.12,-126.98 450.82,-121.92 449.69,-128.83"/>
</g>
<!-- Node8 -->
<g id="node8" class="node">
<title>Node8</title>
<g id="a_node8"><a xlink:href="classfspm_1_1config_1_1params_1_1ParamCategory_ac81e6b98fa48fc3426eed6f60e81da5b.html#ac81e6b98fa48fc3426eed6f60e81da5b" target="_top" xlink:title="Get generic Parameter with the given key.">
<polygon fill="none" stroke="black" points="704.5,-60.5 704.5,-90.5 851.5,-90.5 851.5,-60.5 704.5,-60.5"/>
<text text-anchor="start" x="712.5" y="-78.5" font-family="Helvetica,sans-Serif" font-size="10.00">fspm.config.params.Param</text>
<text text-anchor="middle" x="778" y="-67.5" font-family="Helvetica,sans-Serif" font-size="10.00">Category.getParameter</text>
</a>
</g>
</g>
<!-- Node2&#45;&gt;Node8 -->
<g id="edge7" class="edge">
<title>Node2&#45;&gt;Node8</title>
<path fill="none" stroke="midnightblue" d="M382.03,-98.31C466.49,-93.43 605.7,-85.39 694.28,-80.28"/>
<polygon fill="midnightblue" stroke="midnightblue" points="694.51,-83.77 704.3,-79.7 694.11,-76.78 694.51,-83.77"/>
</g>
<!-- Node4 -->
<g id="node4" class="node">
<title>Node4</title>
<g id="a_node4"><a xlink:href="classfspm_1_1config_1_1params_1_1Parameter_a2dced470a20701940042f6dacad7f78e.html#a2dced470a20701940042f6dacad7f78e" target="_top" xlink:title=" ">
<polygon fill="none" stroke="black" points="688,-117.5 688,-147.5 868,-147.5 868,-117.5 688,-117.5"/>
<text text-anchor="start" x="696" y="-135.5" font-family="Helvetica,sans-Serif" font-size="10.00">fspm.config.params.Parameter.as</text>
<text text-anchor="middle" x="778" y="-124.5" font-family="Helvetica,sans-Serif" font-size="10.00">Array</text>
</a>
</g>
</g>
<!-- Node3&#45;&gt;Node4 -->
<g id="edge3" class="edge">
<title>Node3&#45;&gt;Node4</title>
<path fill="none" stroke="midnightblue" d="M640.62,-137.94C652.74,-137.46 665.24,-136.96 677.53,-136.47"/>
<polygon fill="midnightblue" stroke="midnightblue" points="677.93,-139.96 687.79,-136.06 677.65,-132.96 677.93,-139.96"/>
</g>
<!-- Node5 -->
<g id="node5" class="node">
<title>Node5</title>
<g id="a_node5"><a xlink:href="classfspm_1_1config_1_1params_1_1Parameter_a54e9dcffe048d38566416b7bf8e09fe1.html#a54e9dcffe048d38566416b7bf8e09fe1" target="_top" xlink:title=" ">
<polygon fill="none" stroke="black" points="910,-150.5 910,-180.5 1095,-180.5 1095,-150.5 910,-150.5"/>
<text text-anchor="start" x="918" y="-168.5" font-family="Helvetica,sans-Serif" font-size="10.00">fspm.config.params.Parameter.get</text>
<text text-anchor="middle" x="1002.5" y="-157.5" font-family="Helvetica,sans-Serif" font-size="10.00">DoubleType</text>
</a>
</g>
</g>
<!-- Node4&#45;&gt;Node5 -->
<g id="edge4" class="edge">
<title>Node4&#45;&gt;Node5</title>
<path fill="none" stroke="midnightblue" d="M868.22,-145.73C878.57,-147.27 889.19,-148.84 899.69,-150.4"/>
<polygon fill="midnightblue" stroke="midnightblue" points="899.31,-153.88 909.72,-151.89 900.34,-146.96 899.31,-153.88"/>
</g>
<!-- Node6 -->
<g id="node6" class="node">
<title>Node6</title>
<g id="a_node6"><a xlink:href="classfspm_1_1util_1_1KeyElement_a653aac67328f98c1201974736671fe0d.html#a653aac67328f98c1201974736671fe0d" target="_top" xlink:title=" ">
<polygon fill="none" stroke="black" points="923.5,-71 923.5,-90 1081.5,-90 1081.5,-71 923.5,-71"/>
<text text-anchor="middle" x="1002.5" y="-78" font-family="Helvetica,sans-Serif" font-size="10.00">fspm.util.KeyElement.getKey</text>
</a>
</g>
</g>
<!-- Node4&#45;&gt;Node6 -->
<g id="edge5" class="edge">
<title>Node4&#45;&gt;Node6</title>
<path fill="none" stroke="midnightblue" d="M840.95,-117.46C861.05,-112.62 883.46,-107.28 904,-102.5 918.56,-99.11 934.35,-95.51 948.91,-92.23"/>
<polygon fill="midnightblue" stroke="midnightblue" points="949.77,-95.62 958.76,-90.01 948.23,-88.79 949.77,-95.62"/>
</g>
<!-- Node7 -->
<g id="node7" class="node">
<title>Node7</title>
<g id="a_node7"><a xlink:href="classfspm_1_1config_1_1params_1_1Parameter_a2fd72835a908354fea23f92e3f3b1800.html#a2fd72835a908354fea23f92e3f3b1800" target="_top" xlink:title=" ">
<polygon fill="none" stroke="black" points="904,-112 904,-131 1101,-131 1101,-112 904,-112"/>
<text text-anchor="middle" x="1002.5" y="-119" font-family="Helvetica,sans-Serif" font-size="10.00">fspm.config.params.Parameter.isNull</text>
</a>
</g>
</g>
<!-- Node4&#45;&gt;Node7 -->
<g id="edge6" class="edge">
<title>Node4&#45;&gt;Node7</title>
<path fill="none" stroke="midnightblue" d="M868.22,-128.09C876.65,-127.67 885.25,-127.25 893.83,-126.82"/>
<polygon fill="midnightblue" stroke="midnightblue" points="894.06,-130.32 903.87,-126.33 893.71,-123.32 894.06,-130.32"/>
</g>
<!-- Node8&#45;&gt;Node6 -->
<g id="edge8" class="edge">
<title>Node8&#45;&gt;Node6</title>
<path fill="none" stroke="midnightblue" d="M851.55,-77.13C871.18,-77.57 892.66,-78.05 913.06,-78.51"/>
<polygon fill="midnightblue" stroke="midnightblue" points="913.22,-82.02 923.3,-78.74 913.38,-75.02 913.22,-82.02"/>
</g>
<!-- Node9&#45;&gt;Node8 -->
<g id="edge12" class="edge">
<title>Node9&#45;&gt;Node8</title>
<path fill="none" stroke="midnightblue" d="M413.25,-58.38C497.82,-62.36 615.68,-67.91 694.06,-71.6"/>
<polygon fill="midnightblue" stroke="midnightblue" points="694.22,-75.11 704.37,-72.08 694.55,-68.12 694.22,-75.11"/>
</g>
<!-- Node10 -->
<g id="node10" class="node">
<title>Node10</title>
<g id="a_node10"><a xlink:href="classfspm_1_1config_1_1params_1_1structures_1_1CategoryStore_a05635b1745cfdb9ed85c076ee762cbdf.html#a05635b1745cfdb9ed85c076ee762cbdf" target="_top" xlink:title=" ">
<polygon fill="none" stroke="black" points="449,-0.5 449,-30.5 652,-30.5 652,-0.5 449,-0.5"/>
<text text-anchor="start" x="457" y="-18.5" font-family="Helvetica,sans-Serif" font-size="10.00">fspm.config.params.structures.</text>
<text text-anchor="middle" x="550.5" y="-7.5" font-family="Helvetica,sans-Serif" font-size="10.00">CategoryStore.getCategoryWithParam</text>
</a>
</g>
</g>
<!-- Node9&#45;&gt;Node10 -->
<g id="edge10" class="edge">
<title>Node9&#45;&gt;Node10</title>
<path fill="none" stroke="midnightblue" d="M404.35,-38.48C417.51,-36.4 431.09,-34.25 444.42,-32.14"/>
<polygon fill="midnightblue" stroke="midnightblue" points="445.22,-35.55 454.55,-30.53 444.12,-28.64 445.22,-35.55"/>
</g>
<!-- Node10&#45;&gt;Node8 -->
<g id="edge11" class="edge">
<title>Node10&#45;&gt;Node8</title>
<path fill="none" stroke="midnightblue" d="M608.11,-30.56C639.21,-38.84 677.95,-49.15 710.48,-57.8"/>
<polygon fill="midnightblue" stroke="midnightblue" points="709.8,-61.24 720.36,-60.43 711.6,-54.48 709.8,-61.24"/>
</g>
</g>
</svg>
        <g id="navigator" transform="translate(0 0)" fill="#404254">
                <rect fill="#f2f5e9" fill-opacity="0.5" stroke="#606060" stroke-width=".5" x="0" y="0" width="60" height="60"/>
                <use id="zoomplus" xlink:href="#zoomPlus" x="17" y="9" onmousedown="handleZoom(evt,'in')"/>
                <use id="zoomminus" xlink:href="#zoomMin" x="42" y="9" onmousedown="handleZoom(evt,'out')"/>
                <use id="reset" xlink:href="#resetDef" x="30" y="36" onmousedown="handleReset()"/>
                <g id="arrowUp" xlink:href="#dirArrow" transform="translate(30 24)" onmousedown="handlePan(0,-1)">
                  <use xlink:href="#rim" fill="#404040">
                        <set attributeName="fill" to="#808080" begin="arrowUp.mouseover" end="arrowUp.mouseout"/>
                  </use>
                  <path fill="none" stroke="white" stroke-width="1.5" d="M0,-3.0v7 M-2.5,-0.5L0,-3.0L2.5,-0.5"/>
                </g>
                <g id="arrowRight" xlink:href="#dirArrow" transform="rotate(90) translate(36 -43)" onmousedown="handlePan(1,0)">
                  <use xlink:href="#rim" fill="#404040">
                        <set attributeName="fill" to="#808080" begin="arrowRight.mouseover" end="arrowRight.mouseout"/>
                  </use>
                  <path fill="none" stroke="white" stroke-width="1.5" d="M0,-3.0v7 M-2.5,-0.5L0,-3.0L2.5,-0.5"/>
                </g>
                <g id="arrowDown" xlink:href="#dirArrow" transform="rotate(180) translate(-30 -48)" onmousedown="handlePan(0,1)">
                  <use xlink:href="#rim" fill="#404040">
                        <set attributeName="fill" to="#808080" begin="arrowDown.mouseover" end="arrowDown.mouseout"/>
                  </use>
                  <path fill="none" stroke="white" stroke-width="1.5" d="M0,-3.0v7 M-2.5,-0.5L0,-3.0L2.5,-0.5"/>
                </g>
                <g id="arrowLeft" xlink:href="#dirArrow" transform="rotate(270) translate(-36 17)" onmousedown="handlePan(-1,0)">
                  <use xlink:href="#rim" fill="#404040">
                        <set attributeName="fill" to="#808080" begin="arrowLeft.mouseover" end="arrowLeft.mouseout"/>
                  </use>
                  <path fill="none" stroke="white" stroke-width="1.5" d="M0,-3.0v7 M-2.5,-0.5L0,-3.0L2.5,-0.5"/>
                </g>
        </g>
        <svg viewBox="0 0 15 15" width="100%" height="30px" preserveAspectRatio="xMaxYMin meet">
         <g id="arrow_out" transform="scale(0.3 0.3)">
          <a xlink:href="classfspm_1_1config_1_1params_1_1structures_1_1CategoryStore_a4f45fdfbfe248711b2301cd2b1941608_a4f45fdfbfe248711b2301cd2b1941608_cgraph_org.svg" target="_base">
           <rect id="button" ry="5" rx="5" y="6" x="6" height="38" width="38"
                fill="#f2f5e9" fill-opacity="0.5" stroke="#606060" stroke-width="1.0"/>
           <path id="arrow"
             d="M 11.500037,31.436501 C 11.940474,20.09759 22.043105,11.32322 32.158766,21.979434 L 37.068811,17.246167 C 37.068811,17.246167 37.088388,32 37.088388,32 L 22.160133,31.978069 C 22.160133,31.978069 26.997745,27.140456 26.997745,27.140456 C 18.528582,18.264221 13.291696,25.230495 11.500037,31.436501 z"
             style="fill:#404040;"/>
          </a>
         </g>
        </svg>
</svg>
