<?xml version="1.0" encoding="UTF-8" standalone="no"?>
<!DOCTYPE svg PUBLIC "-//W3C//DTD SVG 1.1//EN"
 "http://www.w3.org/Graphics/SVG/1.1/DTD/svg11.dtd">
<!-- Generated by graphviz version 2.43.0 (0)
 -->
<!-- Title: fspm.config.adapters.JsonFileReader Pages: 1 -->
<svg width="161pt" height="321pt"
 viewBox="0.00 0.00 161.00 321.00" xmlns="http://www.w3.org/2000/svg" xmlns:xlink="http://www.w3.org/1999/xlink">
<g id="graph0" class="graph" transform="scale(1 1) rotate(0) translate(4 317)">
<title>fspm.config.adapters.JsonFileReader</title>
<!-- Node1 -->
<g id="node1" class="node">
<title>Node1</title>
<g id="a_node1"><a xlink:title="File reader to parse JSON config files to Config.">
<polygon fill="#bfbfbf" stroke="black" points="5,-0.5 5,-90.5 148,-90.5 148,-0.5 5,-0.5"/>
<text text-anchor="start" x="13" y="-78.5" font-family="Helvetica,sans-Serif" font-size="10.00">fspm.config.adapters.Json</text>
<text text-anchor="middle" x="76.5" y="-67.5" font-family="Helvetica,sans-Serif" font-size="10.00">FileReader</text>
<polyline fill="none" stroke="black" points="5,-60.5 148,-60.5 "/>
<text text-anchor="middle" x="76.5" y="-48.5" font-family="Helvetica,sans-Serif" font-size="10.00"> </text>
<polyline fill="none" stroke="black" points="5,-41.5 148,-41.5 "/>
<text text-anchor="start" x="13" y="-29.5" font-family="Helvetica,sans-Serif" font-size="10.00">+ JsonFileReader()</text>
<text text-anchor="start" x="13" y="-18.5" font-family="Helvetica,sans-Serif" font-size="10.00">+ parse()</text>
<text text-anchor="start" x="13" y="-7.5" font-family="Helvetica,sans-Serif" font-size="10.00">+ getTreeFromFile()</text>
</a>
</g>
</g>
<!-- Node2 -->
<g id="node2" class="node">
<title>Node2</title>
<g id="a_node2"><a xlink:href="classfspm_1_1config_1_1adapters_1_1ConfigAdapter.html" target="_top" xlink:title="Defines the required methods adapters must implement to be compatible with Config.">
<polygon fill="none" stroke="black" points="0,-128.5 0,-207.5 153,-207.5 153,-128.5 0,-128.5"/>
<text text-anchor="start" x="8" y="-195.5" font-family="Helvetica,sans-Serif" font-size="10.00">fspm.config.adapters.Config</text>
<text text-anchor="middle" x="76.5" y="-184.5" font-family="Helvetica,sans-Serif" font-size="10.00">Adapter</text>
<polyline fill="none" stroke="black" points="0,-177.5 153,-177.5 "/>
<text text-anchor="middle" x="76.5" y="-165.5" font-family="Helvetica,sans-Serif" font-size="10.00"> </text>
<polyline fill="none" stroke="black" points="0,-158.5 153,-158.5 "/>
<text text-anchor="start" x="8" y="-146.5" font-family="Helvetica,sans-Serif" font-size="10.00">+ parse()</text>
<text text-anchor="start" x="8" y="-135.5" font-family="Helvetica,sans-Serif" font-size="10.00"># ConfigAdapter()</text>
</a>
</g>
</g>
<!-- Node2&#45;&gt;Node1 -->
<g id="edge1" class="edge">
<title>Node2&#45;&gt;Node1</title>
<path fill="none" stroke="midnightblue" d="M76.5,-118.14C76.5,-109.05 76.5,-99.6 76.5,-90.66"/>
<polygon fill="none" stroke="midnightblue" points="73,-118.21 76.5,-128.21 80,-118.21 73,-118.21"/>
</g>
<!-- Node3 -->
<g id="node3" class="node">
<title>Node3</title>
<g id="a_node3"><a xlink:title=" ">
<polygon fill="none" stroke="#bfbfbf" points="42,-255.5 42,-312.5 111,-312.5 111,-255.5 42,-255.5"/>
<text text-anchor="middle" x="76.5" y="-300.5" font-family="Helvetica,sans-Serif" font-size="10.00">final String</text>
<polyline fill="none" stroke="#bfbfbf" points="42,-293.5 111,-293.5 "/>
<text text-anchor="middle" x="76.5" y="-281.5" font-family="Helvetica,sans-Serif" font-size="10.00"> </text>
<polyline fill="none" stroke="#bfbfbf" points="42,-274.5 111,-274.5 "/>
<text text-anchor="middle" x="76.5" y="-262.5" font-family="Helvetica,sans-Serif" font-size="10.00"> </text>
</a>
</g>
</g>
<!-- Node3&#45;&gt;Node2 -->
<g id="edge2" class="edge">
<title>Node3&#45;&gt;Node2</title>
<path fill="none" stroke="#404040" d="M76.5,-255.4C76.5,-244.63 76.5,-231.93 76.5,-219.62"/>
<polygon fill="none" stroke="#404040" points="76.5,-219.54 72.5,-213.54 76.5,-207.54 80.5,-213.54 76.5,-219.54"/>
<text text-anchor="middle" x="93.5" y="-229" font-family="Helvetica,sans-Serif" font-size="10.00"> #path</text>
</g>
</g>
</svg>
