<?xml version="1.0" encoding="UTF-8" standalone="no"?>
<!DOCTYPE svg PUBLIC "-//W3C//DTD SVG 1.1//EN"
 "http://www.w3.org/Graphics/SVG/1.1/DTD/svg11.dtd">
<!-- Generated by graphviz version 2.43.0 (0)
 -->
<!-- Title: io.github.fruitcropxl.config.Config.getInstance Pages: 1 -->
<svg width="524pt" height="38pt"
 viewBox="0.00 0.00 524.00 38.00" xmlns="http://www.w3.org/2000/svg" xmlns:xlink="http://www.w3.org/1999/xlink">
<g id="graph0" class="graph" transform="scale(1 1) rotate(0) translate(4 34)">
<title>io.github.fruitcropxl.config.Config.getInstance</title>
<!-- Node1 -->
<g id="Node000001" class="node">
<title>Node1</title>
<g id="a_Node000001"><a xlink:title="Gets the singleton instance of the simulation io.github.fruitcropxl.config.Config.">
<polygon fill="#999999" stroke="#666666" points="148,-30 0,-30 0,0 148,0 148,-30"/>
<text text-anchor="start" x="8" y="-18" font-family="Helvetica,sans-Serif" font-size="10.00">io.github.fruitcropxl.config.</text>
<text text-anchor="middle" x="74" y="-7" font-family="Helvetica,sans-Serif" font-size="10.00">Config.getInstance</text>
</a>
</g>
</g>
<!-- Node2 -->
<g id="Node000002" class="node">
<title>Node2</title>
<g id="a_Node000002"><a xlink:href="classio_1_1github_1_1fruitcropxl_1_1config_1_1Config_a3bf0ba06ec419cd1c882710dfc0389df.html#a3bf0ba06ec419cd1c882710dfc0389df" target="_top" xlink:title="Class constructor.">
<polygon fill="white" stroke="#666666" points="332,-30 184,-30 184,0 332,0 332,-30"/>
<text text-anchor="start" x="192" y="-18" font-family="Helvetica,sans-Serif" font-size="10.00">io.github.fruitcropxl.config.</text>
<text text-anchor="middle" x="258" y="-7" font-family="Helvetica,sans-Serif" font-size="10.00">Config.Config</text>
</a>
</g>
</g>
<!-- Node1&#45;&gt;Node2 -->
<g id="edge1_Node000001_Node000002" class="edge">
<title>Node1&#45;&gt;Node2</title>
<g id="a_edge1_Node000001_Node000002"><a xlink:title=" ">
<path fill="none" stroke="#63b8ff" d="M148.24,-15C156.6,-15 165.16,-15 173.64,-15"/>
<polygon fill="#63b8ff" stroke="#63b8ff" points="173.91,-18.5 183.91,-15 173.91,-11.5 173.91,-18.5"/>
</a>
</g>
</g>
<!-- Node3 -->
<g id="Node000003" class="node">
<title>Node3</title>
<g id="a_Node000003"><a xlink:href="classio_1_1github_1_1fruitcropxl_1_1config_1_1Config_a2e2f7b7b76d9ac298b0ca63a1d234d5a.html#a2e2f7b7b76d9ac298b0ca63a1d234d5a" target="_top" xlink:title="Reset the Config Module by clearing all groups.">
<polygon fill="white" stroke="#666666" points="516,-30 368,-30 368,0 516,0 516,-30"/>
<text text-anchor="start" x="376" y="-18" font-family="Helvetica,sans-Serif" font-size="10.00">io.github.fruitcropxl.config.</text>
<text text-anchor="middle" x="442" y="-7" font-family="Helvetica,sans-Serif" font-size="10.00">Config.reset</text>
</a>
</g>
</g>
<!-- Node2&#45;&gt;Node3 -->
<g id="edge2_Node000002_Node000003" class="edge">
<title>Node2&#45;&gt;Node3</title>
<g id="a_edge2_Node000002_Node000003"><a xlink:title=" ">
<path fill="none" stroke="#63b8ff" d="M332.24,-15C340.6,-15 349.16,-15 357.64,-15"/>
<polygon fill="#63b8ff" stroke="#63b8ff" points="357.91,-18.5 367.91,-15 357.91,-11.5 357.91,-18.5"/>
</a>
</g>
</g>
</g>
</svg>
