<?xml version="1.0" encoding="UTF-8" standalone="no"?>
<!DOCTYPE svg PUBLIC "-//W3C//DTD SVG 1.1//EN"
 "http://www.w3.org/Graphics/SVG/1.1/DTD/svg11.dtd">
<!-- Generated by graphviz version 2.43.0 (0)
 -->
<!-- Title: io.github.fruitcropxl.config.params.structures.TableStore.parse Pages: 1 -->
<svg width="746pt" height="134pt"
 viewBox="0.00 0.00 746.00 134.00" xmlns="http://www.w3.org/2000/svg" xmlns:xlink="http://www.w3.org/1999/xlink">
<g id="graph0" class="graph" transform="scale(1 1) rotate(0) translate(4 130)">
<title>io.github.fruitcropxl.config.params.structures.TableStore.parse</title>
<!-- Node1 -->
<g id="Node000001" class="node">
<title>Node1</title>
<g id="a_Node000001"><a xlink:title=" ">
<polygon fill="#999999" stroke="#666666" points="239,-78 0,-78 0,-48 239,-48 239,-78"/>
<text text-anchor="start" x="8" y="-66" font-family="Helvetica,sans-Serif" font-size="10.00">io.github.fruitcropxl.config.params.structures.</text>
<text text-anchor="middle" x="119.5" y="-55" font-family="Helvetica,sans-Serif" font-size="10.00">TableStore.parse</text>
</a>
</g>
</g>
<!-- Node2 -->
<g id="Node000002" class="node">
<title>Node2</title>
<g id="a_Node000002"><a xlink:href="classio_1_1github_1_1fruitcropxl_1_1config_1_1params_1_1ParamTable_a3167184105e936166a5962003c48ad4e.html#a3167184105e936166a5962003c48ad4e" target="_top" xlink:title="Add a row of parameters to the table.">
<polygon fill="white" stroke="#666666" points="488.5,-126 300.5,-126 300.5,-96 488.5,-96 488.5,-126"/>
<text text-anchor="start" x="308.5" y="-114" font-family="Helvetica,sans-Serif" font-size="10.00">io.github.fruitcropxl.config.params.</text>
<text text-anchor="middle" x="394.5" y="-103" font-family="Helvetica,sans-Serif" font-size="10.00">ParamTable.addRow</text>
</a>
</g>
</g>
<!-- Node1&#45;&gt;Node2 -->
<g id="edge1_Node000001_Node000002" class="edge">
<title>Node1&#45;&gt;Node2</title>
<g id="a_edge1_Node000001_Node000002"><a xlink:title=" ">
<path fill="none" stroke="#63b8ff" d="M206.13,-78.06C235.35,-83.19 268.2,-88.97 298.14,-94.23"/>
<polygon fill="#63b8ff" stroke="#63b8ff" points="297.72,-97.71 308.17,-96 298.93,-90.82 297.72,-97.71"/>
</a>
</g>
</g>
<!-- Node4 -->
<g id="Node000004" class="node">
<title>Node4</title>
<g id="a_Node000004"><a xlink:href="classio_1_1github_1_1fruitcropxl_1_1config_1_1params_1_1structures_1_1TableStore_a55dac2a321a0e421b24aa285d3c4c2f8.html#a55dac2a321a0e421b24aa285d3c4c2f8" target="_top" xlink:title=" ">
<polygon fill="white" stroke="#666666" points="514,-78 275,-78 275,-48 514,-48 514,-78"/>
<text text-anchor="start" x="283" y="-66" font-family="Helvetica,sans-Serif" font-size="10.00">io.github.fruitcropxl.config.params.structures.</text>
<text text-anchor="middle" x="394.5" y="-55" font-family="Helvetica,sans-Serif" font-size="10.00">TableStore.addTable</text>
</a>
</g>
</g>
<!-- Node1&#45;&gt;Node4 -->
<g id="edge3_Node000001_Node000004" class="edge">
<title>Node1&#45;&gt;Node4</title>
<g id="a_edge3_Node000001_Node000004"><a xlink:title=" ">
<path fill="none" stroke="#63b8ff" d="M239.05,-63C247.44,-63 255.92,-63 264.36,-63"/>
<polygon fill="#63b8ff" stroke="#63b8ff" points="264.63,-66.5 274.63,-63 264.63,-59.5 264.63,-66.5"/>
</a>
</g>
</g>
<!-- Node5 -->
<g id="Node000005" class="node">
<title>Node5</title>
<g id="a_Node000005"><a xlink:href="classio_1_1github_1_1fruitcropxl_1_1config_1_1params_1_1ParamFactory_a3eb43ef16cc54b880c211ae0faf9f4bc.html#a3eb43ef16cc54b880c211ae0faf9f4bc" target="_top" xlink:title="Returns a Parameter instance which can be used to retrieve the parsed value.">
<polygon fill="white" stroke="#666666" points="488.5,-30 300.5,-30 300.5,0 488.5,0 488.5,-30"/>
<text text-anchor="start" x="308.5" y="-18" font-family="Helvetica,sans-Serif" font-size="10.00">io.github.fruitcropxl.config.params.</text>
<text text-anchor="middle" x="394.5" y="-7" font-family="Helvetica,sans-Serif" font-size="10.00">ParamFactory.parseParameter</text>
</a>
</g>
</g>
<!-- Node1&#45;&gt;Node5 -->
<g id="edge4_Node000001_Node000005" class="edge">
<title>Node1&#45;&gt;Node5</title>
<g id="a_edge4_Node000001_Node000005"><a xlink:title=" ">
<path fill="none" stroke="#63b8ff" d="M206.13,-47.94C235.35,-42.81 268.2,-37.03 298.14,-31.77"/>
<polygon fill="#63b8ff" stroke="#63b8ff" points="298.93,-35.18 308.17,-30 297.72,-28.29 298.93,-35.18"/>
</a>
</g>
</g>
<!-- Node3 -->
<g id="Node000003" class="node">
<title>Node3</title>
<g id="a_Node000003"><a xlink:href="classio_1_1github_1_1fruitcropxl_1_1config_1_1params_1_1ParamTable_a67e8ff0a7cb11e9502d947d801a68451.html#a67e8ff0a7cb11e9502d947d801a68451" target="_top" xlink:title=" ">
<polygon fill="white" stroke="#666666" points="738,-126 550,-126 550,-96 738,-96 738,-126"/>
<text text-anchor="start" x="558" y="-114" font-family="Helvetica,sans-Serif" font-size="10.00">io.github.fruitcropxl.config.params.</text>
<text text-anchor="middle" x="644" y="-103" font-family="Helvetica,sans-Serif" font-size="10.00">ParamTable.setRow</text>
</a>
</g>
</g>
<!-- Node2&#45;&gt;Node3 -->
<g id="edge2_Node000002_Node000003" class="edge">
<title>Node2&#45;&gt;Node3</title>
<g id="a_edge2_Node000002_Node000003"><a xlink:title=" ">
<path fill="none" stroke="#63b8ff" d="M488.72,-111C505.28,-111 522.63,-111 539.46,-111"/>
<polygon fill="#63b8ff" stroke="#63b8ff" points="539.87,-114.5 549.87,-111 539.87,-107.5 539.87,-114.5"/>
</a>
</g>
</g>
</g>
</svg>
