<?xml version="1.0" encoding="UTF-8" standalone="no"?>
<!DOCTYPE svg PUBLIC "-//W3C//DTD SVG 1.1//EN"
 "http://www.w3.org/Graphics/SVG/1.1/DTD/svg11.dtd">
<!-- Generated by graphviz version 2.43.0 (0)
 -->
<!-- Title: fspm.config.params.groups.ParamGroup Pages: 1 -->
<svg width="416pt" height="353pt"
 viewBox="0.00 0.00 416.00 353.00" xmlns="http://www.w3.org/2000/svg" xmlns:xlink="http://www.w3.org/1999/xlink">
<g id="graph0" class="graph" transform="scale(1 1) rotate(0) translate(4 349)">
<title>fspm.config.params.groups.ParamGroup</title>
<!-- Node1 -->
<g id="node1" class="node">
<title>Node1</title>
<g id="a_node1"><a xlink:title="Parameter configuration class for storing parameter categories.">
<polygon fill="#bfbfbf" stroke="black" points="124,-171.5 124,-239.5 276,-239.5 276,-171.5 124,-171.5"/>
<text text-anchor="start" x="132" y="-227.5" font-family="Helvetica,sans-Serif" font-size="10.00">fspm.config.params.groups.</text>
<text text-anchor="middle" x="200" y="-216.5" font-family="Helvetica,sans-Serif" font-size="10.00">ParamGroup</text>
<polyline fill="none" stroke="black" points="124,-209.5 276,-209.5 "/>
<text text-anchor="middle" x="200" y="-197.5" font-family="Helvetica,sans-Serif" font-size="10.00"> </text>
<polyline fill="none" stroke="black" points="124,-190.5 276,-190.5 "/>
<text text-anchor="start" x="132" y="-178.5" font-family="Helvetica,sans-Serif" font-size="10.00"># ParamGroup()</text>
</a>
</g>
</g>
<!-- Node3 -->
<g id="node3" class="node">
<title>Node3</title>
<g id="a_node3"><a xlink:href="classfspm_1_1config_1_1params_1_1groups_1_1DocumentCategoryNameGroup.html" target="_top" xlink:title="Represents and encapsulates access for the document&#45;category&#45;name format.">
<polygon fill="none" stroke="black" points="0,-17 0,-118 188,-118 188,-17 0,-17"/>
<text text-anchor="start" x="8" y="-106" font-family="Helvetica,sans-Serif" font-size="10.00">fspm.config.params.groups.</text>
<text text-anchor="middle" x="94" y="-95" font-family="Helvetica,sans-Serif" font-size="10.00">DocumentCategoryNameGroup</text>
<polyline fill="none" stroke="black" points="0,-88 188,-88 "/>
<text text-anchor="start" x="8" y="-76" font-family="Helvetica,sans-Serif" font-size="10.00">&#45; categoryStore</text>
<polyline fill="none" stroke="black" points="0,-69 188,-69 "/>
<text text-anchor="start" x="8" y="-57" font-family="Helvetica,sans-Serif" font-size="10.00">+ DocumentCategoryNameGroup()</text>
<text text-anchor="start" x="8" y="-46" font-family="Helvetica,sans-Serif" font-size="10.00">+ getCategoryStore()</text>
<text text-anchor="start" x="8" y="-35" font-family="Helvetica,sans-Serif" font-size="10.00">+ toString()</text>
<text text-anchor="start" x="8" y="-24" font-family="Helvetica,sans-Serif" font-size="10.00">+ parse()</text>
</a>
</g>
</g>
<!-- Node1&#45;&gt;Node3 -->
<g id="edge2" class="edge">
<title>Node1&#45;&gt;Node3</title>
<path fill="none" stroke="midnightblue" d="M167.74,-163.12C156.69,-148.93 144.21,-132.91 132.69,-118.15"/>
<polygon fill="none" stroke="midnightblue" points="165.16,-165.49 174.07,-171.23 170.68,-161.19 165.16,-165.49"/>
</g>
<!-- Node4 -->
<g id="node4" class="node">
<title>Node4</title>
<g id="a_node4"><a xlink:href="classfspm_1_1config_1_1params_1_1groups_1_1DocumentHybridCategoryNameGroup.html" target="_top" xlink:title="Represents and encapsulates access for the document&#45;hybrid&#45;category&#45;name format.">
<polygon fill="none" stroke="black" points="206,-0.5 206,-134.5 408,-134.5 408,-0.5 206,-0.5"/>
<text text-anchor="start" x="214" y="-122.5" font-family="Helvetica,sans-Serif" font-size="10.00">fspm.config.params.groups.</text>
<text text-anchor="middle" x="307" y="-111.5" font-family="Helvetica,sans-Serif" font-size="10.00">DocumentHybridCategoryNameGroup</text>
<polyline fill="none" stroke="black" points="206,-104.5 408,-104.5 "/>
<text text-anchor="start" x="214" y="-92.5" font-family="Helvetica,sans-Serif" font-size="10.00">&#45; categoryStore</text>
<text text-anchor="start" x="214" y="-81.5" font-family="Helvetica,sans-Serif" font-size="10.00">&#45; tableStore</text>
<polyline fill="none" stroke="black" points="206,-74.5 408,-74.5 "/>
<text text-anchor="start" x="214" y="-62.5" font-family="Helvetica,sans-Serif" font-size="10.00">+ DocumentHybridCategoryName</text>
<text text-anchor="start" x="214" y="-51.5" font-family="Helvetica,sans-Serif" font-size="10.00">Group()</text>
<text text-anchor="start" x="214" y="-40.5" font-family="Helvetica,sans-Serif" font-size="10.00">+ getCategoryStore()</text>
<text text-anchor="start" x="214" y="-29.5" font-family="Helvetica,sans-Serif" font-size="10.00">+ getTableStore()</text>
<text text-anchor="start" x="214" y="-18.5" font-family="Helvetica,sans-Serif" font-size="10.00">+ toString()</text>
<text text-anchor="start" x="214" y="-7.5" font-family="Helvetica,sans-Serif" font-size="10.00">+ parse()</text>
</a>
</g>
</g>
<!-- Node1&#45;&gt;Node4 -->
<g id="edge3" class="edge">
<title>Node1&#45;&gt;Node4</title>
<path fill="none" stroke="midnightblue" d="M232.51,-163.18C239.61,-154.16 247.29,-144.4 254.93,-134.68"/>
<polygon fill="none" stroke="midnightblue" points="229.61,-161.21 226.18,-171.23 235.11,-165.54 229.61,-161.21"/>
</g>
<!-- Node2 -->
<g id="node2" class="node">
<title>Node2</title>
<g id="a_node2"><a xlink:href="classfspm_1_1util_1_1KeyElement.html" target="_top" xlink:title="Represents an element which contains a key.">
<polygon fill="none" stroke="black" points="139,-276.5 139,-344.5 261,-344.5 261,-276.5 139,-276.5"/>
<text text-anchor="middle" x="200" y="-332.5" font-family="Helvetica,sans-Serif" font-size="10.00">fspm.util.KeyElement</text>
<polyline fill="none" stroke="black" points="139,-325.5 261,-325.5 "/>
<text text-anchor="start" x="147" y="-313.5" font-family="Helvetica,sans-Serif" font-size="10.00">&#45; key</text>
<polyline fill="none" stroke="black" points="139,-306.5 261,-306.5 "/>
<text text-anchor="start" x="147" y="-294.5" font-family="Helvetica,sans-Serif" font-size="10.00">+ KeyElement()</text>
<text text-anchor="start" x="147" y="-283.5" font-family="Helvetica,sans-Serif" font-size="10.00">+ getKey()</text>
</a>
</g>
</g>
<!-- Node2&#45;&gt;Node1 -->
<g id="edge1" class="edge">
<title>Node2&#45;&gt;Node1</title>
<path fill="none" stroke="midnightblue" d="M200,-266.14C200,-257.26 200,-248.04 200,-239.59"/>
<polygon fill="none" stroke="midnightblue" points="196.5,-266.34 200,-276.34 203.5,-266.34 196.5,-266.34"/>
</g>
</g>
</svg>
