<?xml version="1.0" encoding="UTF-8" standalone="no"?>
<!DOCTYPE svg PUBLIC "-//W3C//DTD SVG 1.1//EN"
 "http://www.w3.org/Graphics/SVG/1.1/DTD/svg11.dtd">
<!-- Generated by graphviz version 2.43.0 (0)
 -->
<!-- Title: fspm.config.params.group.DocumentHybridCategoryNameGroup Pages: 1 -->
<svg width="959pt" height="1020pt"
 viewBox="0.00 0.00 958.50 1020.00" xmlns="http://www.w3.org/2000/svg" xmlns:xlink="http://www.w3.org/1999/xlink">
<g id="graph0" class="graph" transform="scale(1 1) rotate(0) translate(4 1016)">
<title>fspm.config.params.group.DocumentHybridCategoryNameGroup</title>
<!-- Node1 -->
<g id="node1" class="node">
<title>Node1</title>
<g id="a_node1"><a xlink:title=" ">
<polygon fill="#bfbfbf" stroke="black" points="501.5,-0.5 501.5,-112.5 703.5,-112.5 703.5,-0.5 501.5,-0.5"/>
<text text-anchor="start" x="509.5" y="-100.5" font-family="Helvetica,sans-Serif" font-size="10.00">fspm.config.params.group.</text>
<text text-anchor="middle" x="602.5" y="-89.5" font-family="Helvetica,sans-Serif" font-size="10.00">DocumentHybridCategoryNameGroup</text>
<polyline fill="none" stroke="black" points="501.5,-82.5 703.5,-82.5 "/>
<text text-anchor="middle" x="602.5" y="-70.5" font-family="Helvetica,sans-Serif" font-size="10.00"> </text>
<polyline fill="none" stroke="black" points="501.5,-63.5 703.5,-63.5 "/>
<text text-anchor="start" x="509.5" y="-51.5" font-family="Helvetica,sans-Serif" font-size="10.00">+ DocumentHybridCategoryName</text>
<text text-anchor="start" x="509.5" y="-40.5" font-family="Helvetica,sans-Serif" font-size="10.00">Group()</text>
<text text-anchor="start" x="509.5" y="-29.5" font-family="Helvetica,sans-Serif" font-size="10.00">+ getCategoryHierarchy()</text>
<text text-anchor="start" x="509.5" y="-18.5" font-family="Helvetica,sans-Serif" font-size="10.00">+ getTableHierarchy()</text>
<text text-anchor="start" x="509.5" y="-7.5" font-family="Helvetica,sans-Serif" font-size="10.00">+ toString()</text>
</a>
</g>
</g>
<!-- Node2 -->
<g id="node2" class="node">
<title>Node2</title>
<g id="a_node2"><a xlink:href="classfspm_1_1config_1_1params_1_1group_1_1ParamGroup.html" target="_top" xlink:title="Parameter configuration class for storing parameter categories.">
<polygon fill="none" stroke="black" points="529,-401.5 529,-469.5 676,-469.5 676,-401.5 529,-401.5"/>
<text text-anchor="start" x="537" y="-457.5" font-family="Helvetica,sans-Serif" font-size="10.00">fspm.config.params.group.</text>
<text text-anchor="middle" x="602.5" y="-446.5" font-family="Helvetica,sans-Serif" font-size="10.00">ParamGroup</text>
<polyline fill="none" stroke="black" points="529,-439.5 676,-439.5 "/>
<text text-anchor="middle" x="602.5" y="-427.5" font-family="Helvetica,sans-Serif" font-size="10.00"> </text>
<polyline fill="none" stroke="black" points="529,-420.5 676,-420.5 "/>
<text text-anchor="start" x="537" y="-408.5" font-family="Helvetica,sans-Serif" font-size="10.00"># ParamGroup()</text>
</a>
</g>
</g>
<!-- Node2&#45;&gt;Node1 -->
<g id="edge1" class="edge">
<title>Node2&#45;&gt;Node1</title>
<path fill="none" stroke="midnightblue" d="M602.5,-391.32C602.5,-322.57 602.5,-188.28 602.5,-112.66"/>
<polygon fill="none" stroke="midnightblue" points="599,-391.37 602.5,-401.37 606,-391.37 599,-391.37"/>
</g>
<!-- Node3 -->
<g id="node3" class="node">
<title>Node3</title>
<g id="a_node3"><a xlink:href="classfspm_1_1util_1_1KeyElement.html" target="_top" xlink:title=" ">
<polygon fill="none" stroke="black" points="319.5,-822 319.5,-890 441.5,-890 441.5,-822 319.5,-822"/>
<text text-anchor="middle" x="380.5" y="-878" font-family="Helvetica,sans-Serif" font-size="10.00">fspm.util.KeyElement</text>
<polyline fill="none" stroke="black" points="319.5,-871 441.5,-871 "/>
<text text-anchor="middle" x="380.5" y="-859" font-family="Helvetica,sans-Serif" font-size="10.00"> </text>
<polyline fill="none" stroke="black" points="319.5,-852 441.5,-852 "/>
<text text-anchor="start" x="327.5" y="-840" font-family="Helvetica,sans-Serif" font-size="10.00">+ KeyElement()</text>
<text text-anchor="start" x="327.5" y="-829" font-family="Helvetica,sans-Serif" font-size="10.00">+ getKey()</text>
</a>
</g>
</g>
<!-- Node3&#45;&gt;Node2 -->
<g id="edge2" class="edge">
<title>Node3&#45;&gt;Node2</title>
<path fill="none" stroke="midnightblue" d="M402.85,-812.88C447.05,-729.54 544.86,-545.16 584.89,-469.69"/>
<polygon fill="none" stroke="midnightblue" points="399.7,-811.34 398.11,-821.81 405.88,-814.62 399.7,-811.34"/>
</g>
<!-- Node7 -->
<g id="node7" class="node">
<title>Node7</title>
<g id="a_node7"><a xlink:href="classfspm_1_1config_1_1params_1_1ParamCategory.html" target="_top" xlink:title="A ParamCategory stores Parameters that belong to a common category.">
<polygon fill="none" stroke="black" points="177,-488.5 177,-710.5 324,-710.5 324,-488.5 177,-488.5"/>
<text text-anchor="start" x="185" y="-698.5" font-family="Helvetica,sans-Serif" font-size="10.00">fspm.config.params.Param</text>
<text text-anchor="middle" x="250.5" y="-687.5" font-family="Helvetica,sans-Serif" font-size="10.00">Category</text>
<polyline fill="none" stroke="black" points="177,-680.5 324,-680.5 "/>
<text text-anchor="middle" x="250.5" y="-668.5" font-family="Helvetica,sans-Serif" font-size="10.00"> </text>
<polyline fill="none" stroke="black" points="177,-661.5 324,-661.5 "/>
<text text-anchor="start" x="185" y="-649.5" font-family="Helvetica,sans-Serif" font-size="10.00">+ ParamCategory()</text>
<text text-anchor="start" x="185" y="-638.5" font-family="Helvetica,sans-Serif" font-size="10.00">+ addParameter()</text>
<text text-anchor="start" x="185" y="-627.5" font-family="Helvetica,sans-Serif" font-size="10.00">+ setParameter()</text>
<text text-anchor="start" x="185" y="-616.5" font-family="Helvetica,sans-Serif" font-size="10.00">+ getBoolean()</text>
<text text-anchor="start" x="185" y="-605.5" font-family="Helvetica,sans-Serif" font-size="10.00">+ getString()</text>
<text text-anchor="start" x="185" y="-594.5" font-family="Helvetica,sans-Serif" font-size="10.00">+ getInteger()</text>
<text text-anchor="start" x="185" y="-583.5" font-family="Helvetica,sans-Serif" font-size="10.00">+ getDouble()</text>
<text text-anchor="start" x="185" y="-572.5" font-family="Helvetica,sans-Serif" font-size="10.00">+ getBooleanArray()</text>
<text text-anchor="start" x="185" y="-561.5" font-family="Helvetica,sans-Serif" font-size="10.00">+ getStringArray()</text>
<text text-anchor="start" x="185" y="-550.5" font-family="Helvetica,sans-Serif" font-size="10.00">+ getIntegerArray()</text>
<text text-anchor="start" x="185" y="-539.5" font-family="Helvetica,sans-Serif" font-size="10.00">+ getDoubleArray()</text>
<text text-anchor="start" x="185" y="-528.5" font-family="Helvetica,sans-Serif" font-size="10.00">+ isNull()</text>
<text text-anchor="start" x="185" y="-517.5" font-family="Helvetica,sans-Serif" font-size="10.00">+ getParameter()</text>
<text text-anchor="start" x="185" y="-506.5" font-family="Helvetica,sans-Serif" font-size="10.00">+ toString()</text>
<text text-anchor="start" x="185" y="-495.5" font-family="Helvetica,sans-Serif" font-size="10.00">~ getArray()</text>
</a>
</g>
</g>
<!-- Node3&#45;&gt;Node7 -->
<g id="edge8" class="edge">
<title>Node3&#45;&gt;Node7</title>
<path fill="none" stroke="midnightblue" d="M359.01,-812.92C344.73,-784.98 325.29,-746.91 306.8,-710.72"/>
<polygon fill="none" stroke="midnightblue" points="355.97,-814.68 363.64,-821.99 362.21,-811.49 355.97,-814.68"/>
</g>
<!-- Node4 -->
<g id="node4" class="node">
<title>Node4</title>
<g id="a_node4"><a xlink:title=" ">
<polygon fill="none" stroke="#bfbfbf" points="721,-954.5 721,-1011.5 766,-1011.5 766,-954.5 721,-954.5"/>
<text text-anchor="middle" x="743.5" y="-999.5" font-family="Helvetica,sans-Serif" font-size="10.00">String</text>
<polyline fill="none" stroke="#bfbfbf" points="721,-992.5 766,-992.5 "/>
<text text-anchor="middle" x="743.5" y="-980.5" font-family="Helvetica,sans-Serif" font-size="10.00"> </text>
<polyline fill="none" stroke="#bfbfbf" points="721,-973.5 766,-973.5 "/>
<text text-anchor="middle" x="743.5" y="-961.5" font-family="Helvetica,sans-Serif" font-size="10.00"> </text>
</a>
</g>
</g>
<!-- Node4&#45;&gt;Node3 -->
<g id="edge3" class="edge">
<title>Node4&#45;&gt;Node3</title>
<path fill="none" stroke="#404040" d="M720.97,-981.69C654.67,-980.35 461.83,-973.26 413.5,-936 402.5,-927.52 395.14,-914.71 390.22,-901.86"/>
<polygon fill="none" stroke="#404040" points="390.12,-901.57 384.44,-897.13 386.36,-890.17 392.04,-894.62 390.12,-901.57"/>
<text text-anchor="middle" x="426" y="-922.5" font-family="Helvetica,sans-Serif" font-size="10.00"> &#45;key</text>
</g>
<!-- Node6 -->
<g id="node6" class="node">
<title>Node6</title>
<g id="a_node6"><a xlink:href="classfspm_1_1config_1_1params_1_1hierarchy_1_1Hierarchy.html" target="_top" xlink:title=" ">
<polygon fill="none" stroke="black" points="661.5,-816.5 661.5,-895.5 825.5,-895.5 825.5,-816.5 661.5,-816.5"/>
<text text-anchor="start" x="669.5" y="-883.5" font-family="Helvetica,sans-Serif" font-size="10.00">fspm.config.params.hierarchy.</text>
<text text-anchor="middle" x="743.5" y="-872.5" font-family="Helvetica,sans-Serif" font-size="10.00">Hierarchy</text>
<polyline fill="none" stroke="black" points="661.5,-865.5 825.5,-865.5 "/>
<text text-anchor="middle" x="743.5" y="-853.5" font-family="Helvetica,sans-Serif" font-size="10.00"> </text>
<polyline fill="none" stroke="black" points="661.5,-846.5 825.5,-846.5 "/>
<text text-anchor="start" x="669.5" y="-834.5" font-family="Helvetica,sans-Serif" font-size="10.00">+ Hierarchy()</text>
<text text-anchor="start" x="669.5" y="-823.5" font-family="Helvetica,sans-Serif" font-size="10.00">+ getGroupKey()</text>
</a>
</g>
</g>
<!-- Node4&#45;&gt;Node6 -->
<g id="edge6" class="edge">
<title>Node4&#45;&gt;Node6</title>
<path fill="none" stroke="#404040" d="M743.5,-954.26C743.5,-940.64 743.5,-923.79 743.5,-907.96"/>
<polygon fill="none" stroke="#404040" points="743.5,-907.57 739.5,-901.57 743.5,-895.57 747.5,-901.57 743.5,-907.57"/>
<text text-anchor="middle" x="770" y="-922.5" font-family="Helvetica,sans-Serif" font-size="10.00"> &#45;groupKey</text>
</g>
<!-- Node12 -->
<g id="node12" class="node">
<title>Node12</title>
<g id="a_node12"><a xlink:href="classfspm_1_1config_1_1params_1_1hierarchy_1_1TableHierarchy.html" target="_top" xlink:title=" ">
<polygon fill="none" stroke="black" points="650.5,-543.5 650.5,-655.5 814.5,-655.5 814.5,-543.5 650.5,-543.5"/>
<text text-anchor="start" x="658.5" y="-643.5" font-family="Helvetica,sans-Serif" font-size="10.00">fspm.config.params.hierarchy.</text>
<text text-anchor="middle" x="732.5" y="-632.5" font-family="Helvetica,sans-Serif" font-size="10.00">TableHierarchy</text>
<polyline fill="none" stroke="black" points="650.5,-625.5 814.5,-625.5 "/>
<text text-anchor="middle" x="732.5" y="-613.5" font-family="Helvetica,sans-Serif" font-size="10.00"> </text>
<polyline fill="none" stroke="black" points="650.5,-606.5 814.5,-606.5 "/>
<text text-anchor="start" x="658.5" y="-594.5" font-family="Helvetica,sans-Serif" font-size="10.00">+ TableHierarchy()</text>
<text text-anchor="start" x="658.5" y="-583.5" font-family="Helvetica,sans-Serif" font-size="10.00">+ addTable()</text>
<text text-anchor="start" x="658.5" y="-572.5" font-family="Helvetica,sans-Serif" font-size="10.00">+ getTable()</text>
<text text-anchor="start" x="658.5" y="-561.5" font-family="Helvetica,sans-Serif" font-size="10.00">+ toString()</text>
<text text-anchor="start" x="658.5" y="-550.5" font-family="Helvetica,sans-Serif" font-size="10.00">+ parse()</text>
</a>
</g>
</g>
<!-- Node4&#45;&gt;Node12 -->
<g id="edge16" class="edge">
<title>Node4&#45;&gt;Node12</title>
<path fill="none" stroke="#404040" d="M766.38,-969.1C789.14,-954.71 822.35,-929.05 834.5,-896 846.77,-862.63 842.3,-850.69 834.5,-816 822.56,-762.87 795.96,-707.44 772.92,-666.1"/>
<polygon fill="none" stroke="#404040" points="772.9,-666.08 766.47,-662.83 766.99,-655.64 773.43,-658.89 772.9,-666.08"/>
<text text-anchor="middle" x="896" y="-853.5" font-family="Helvetica,sans-Serif" font-size="10.00"> +ROW_PREFIX_FIELD</text>
</g>
<!-- Node5 -->
<g id="node5" class="node">
<title>Node5</title>
<g id="a_node5"><a xlink:href="classfspm_1_1config_1_1params_1_1hierarchy_1_1CategoryHierarchy.html" target="_top" xlink:title=" ">
<polygon fill="none" stroke="black" points="288.5,-160.5 288.5,-382.5 452.5,-382.5 452.5,-160.5 288.5,-160.5"/>
<text text-anchor="start" x="296.5" y="-370.5" font-family="Helvetica,sans-Serif" font-size="10.00">fspm.config.params.hierarchy.</text>
<text text-anchor="middle" x="370.5" y="-359.5" font-family="Helvetica,sans-Serif" font-size="10.00">CategoryHierarchy</text>
<polyline fill="none" stroke="black" points="288.5,-352.5 452.5,-352.5 "/>
<text text-anchor="middle" x="370.5" y="-340.5" font-family="Helvetica,sans-Serif" font-size="10.00"> </text>
<polyline fill="none" stroke="black" points="288.5,-333.5 452.5,-333.5 "/>
<text text-anchor="start" x="296.5" y="-321.5" font-family="Helvetica,sans-Serif" font-size="10.00">+ CategoryHierarchy()</text>
<text text-anchor="start" x="296.5" y="-310.5" font-family="Helvetica,sans-Serif" font-size="10.00">+ addCategory()</text>
<text text-anchor="start" x="296.5" y="-299.5" font-family="Helvetica,sans-Serif" font-size="10.00">+ getCategory()</text>
<text text-anchor="start" x="296.5" y="-288.5" font-family="Helvetica,sans-Serif" font-size="10.00">+ getCategoryWithParam()</text>
<text text-anchor="start" x="296.5" y="-277.5" font-family="Helvetica,sans-Serif" font-size="10.00">+ setCategoryContext()</text>
<text text-anchor="start" x="296.5" y="-266.5" font-family="Helvetica,sans-Serif" font-size="10.00">+ getBoolean()</text>
<text text-anchor="start" x="296.5" y="-255.5" font-family="Helvetica,sans-Serif" font-size="10.00">+ getString()</text>
<text text-anchor="start" x="296.5" y="-244.5" font-family="Helvetica,sans-Serif" font-size="10.00">+ getInteger()</text>
<text text-anchor="start" x="296.5" y="-233.5" font-family="Helvetica,sans-Serif" font-size="10.00">+ getDouble()</text>
<text text-anchor="start" x="296.5" y="-222.5" font-family="Helvetica,sans-Serif" font-size="10.00">+ getBooleanArray()</text>
<text text-anchor="start" x="296.5" y="-211.5" font-family="Helvetica,sans-Serif" font-size="10.00">and 18 more...</text>
<text text-anchor="start" x="296.5" y="-200.5" font-family="Helvetica,sans-Serif" font-size="10.00">+ parse()</text>
<text text-anchor="start" x="296.5" y="-189.5" font-family="Helvetica,sans-Serif" font-size="10.00">~ getArray()</text>
<text text-anchor="start" x="296.5" y="-178.5" font-family="Helvetica,sans-Serif" font-size="10.00">~ getArray()</text>
<text text-anchor="start" x="296.5" y="-167.5" font-family="Helvetica,sans-Serif" font-size="10.00">&#45; validateFlattenedAccess()</text>
</a>
</g>
</g>
<!-- Node5&#45;&gt;Node1 -->
<g id="edge4" class="edge">
<title>Node5&#45;&gt;Node1</title>
<path fill="none" stroke="#404040" d="M452.64,-169.07C465.11,-155.71 478.25,-142.63 491.5,-131 495.78,-127.24 500.26,-123.53 504.87,-119.88"/>
<polygon fill="none" stroke="#404040" points="504.97,-119.81 507.29,-112.98 514.49,-112.5 512.16,-119.33 504.97,-119.81"/>
<text text-anchor="middle" x="540" y="-134" font-family="Helvetica,sans-Serif" font-size="10.00"> &#45;categoryHierarchy</text>
</g>
<!-- Node6&#45;&gt;Node5 -->
<g id="edge5" class="edge">
<title>Node6&#45;&gt;Node5</title>
<path fill="none" stroke="midnightblue" d="M651.78,-816.24C622.58,-808.39 608.35,-816.91 590.5,-798 466.21,-666.39 587.29,-559.31 499.5,-401 487.31,-379.02 470.25,-358.3 452.52,-340.18"/>
<polygon fill="none" stroke="midnightblue" points="650.75,-819.59 661.34,-819.25 652.85,-812.91 650.75,-819.59"/>
</g>
<!-- Node6&#45;&gt;Node12 -->
<g id="edge15" class="edge">
<title>Node6&#45;&gt;Node12</title>
<path fill="none" stroke="midnightblue" d="M741.39,-806.12C739.53,-763.07 736.82,-700.41 734.88,-655.6"/>
<polygon fill="none" stroke="midnightblue" points="737.9,-806.51 741.83,-816.35 744.89,-806.21 737.9,-806.51"/>
</g>
<!-- Node7&#45;&gt;Node5 -->
<g id="edge7" class="edge">
<title>Node7&#45;&gt;Node5</title>
<path fill="none" stroke="#404040" d="M256.63,-488.44C260.79,-459.28 267.55,-428.32 278.5,-401 279.88,-397.55 281.38,-394.1 282.97,-390.66"/>
<polygon fill="none" stroke="#404040" points="283.04,-390.51 282.12,-383.36 288.36,-379.75 289.29,-386.91 283.04,-390.51"/>
<text text-anchor="middle" x="322.5" y="-433" font-family="Helvetica,sans-Serif" font-size="10.00"> &#45;categoryContext</text>
</g>
<!-- Node8 -->
<g id="node8" class="node">
<title>Node8</title>
<g id="a_node8"><a xlink:title=" ">
<polygon fill="none" stroke="#bfbfbf" points="118,-822 118,-890 301,-890 301,-822 118,-822"/>
<text text-anchor="start" x="126" y="-878" font-family="Helvetica,sans-Serif" font-size="10.00">Map&lt; String, fspm.config.params.</text>
<text text-anchor="middle" x="209.5" y="-867" font-family="Helvetica,sans-Serif" font-size="10.00">Parameter &gt;</text>
<polyline fill="none" stroke="#bfbfbf" points="118,-860 301,-860 "/>
<text text-anchor="middle" x="209.5" y="-848" font-family="Helvetica,sans-Serif" font-size="10.00"> </text>
<polyline fill="none" stroke="#bfbfbf" points="118,-841 301,-841 "/>
<text text-anchor="middle" x="209.5" y="-829" font-family="Helvetica,sans-Serif" font-size="10.00"> </text>
</a>
</g>
</g>
<!-- Node8&#45;&gt;Node7 -->
<g id="edge9" class="edge">
<title>Node8&#45;&gt;Node7</title>
<path fill="none" stroke="#404040" d="M214.82,-821.99C218.94,-796.38 224.93,-759.19 230.83,-722.57"/>
<polygon fill="none" stroke="#404040" points="230.83,-722.57 227.84,-716.01 232.74,-710.72 235.74,-717.28 230.83,-722.57"/>
<text text-anchor="middle" x="250.5" y="-761" font-family="Helvetica,sans-Serif" font-size="10.00"> &#45;params</text>
</g>
<!-- Node9 -->
<g id="node9" class="node">
<title>Node9</title>
<g id="a_node9"><a xlink:title=" ">
<polygon fill="none" stroke="#bfbfbf" points="229.5,-954.5 229.5,-1011.5 267.5,-1011.5 267.5,-954.5 229.5,-954.5"/>
<text text-anchor="middle" x="248.5" y="-999.5" font-family="Helvetica,sans-Serif" font-size="10.00">Map</text>
<polyline fill="none" stroke="#bfbfbf" points="229.5,-992.5 267.5,-992.5 "/>
<text text-anchor="middle" x="248.5" y="-980.5" font-family="Helvetica,sans-Serif" font-size="10.00"> </text>
<polyline fill="none" stroke="#bfbfbf" points="229.5,-973.5 267.5,-973.5 "/>
<text text-anchor="middle" x="248.5" y="-961.5" font-family="Helvetica,sans-Serif" font-size="10.00"> </text>
</a>
</g>
</g>
<!-- Node9&#45;&gt;Node8 -->
<g id="edge10" class="edge">
<title>Node9&#45;&gt;Node8</title>
<path fill="none" stroke="orange" d="M236.81,-944.53C231.45,-927.34 225.14,-907.12 219.93,-890.44"/>
<polygon fill="orange" stroke="orange" points="233.53,-945.75 239.84,-954.26 240.21,-943.67 233.53,-945.75"/>
<text text-anchor="start" x="233.5" y="-928" font-family="Helvetica,sans-Serif" font-size="10.00"> &lt; String, fspm::config</text>
<text text-anchor="middle" x="289" y="-917" font-family="Helvetica,sans-Serif" font-size="10.00">::params::Parameter &gt;</text>
</g>
<!-- Node10 -->
<g id="node10" class="node">
<title>Node10</title>
<g id="a_node10"><a xlink:title=" ">
<polygon fill="none" stroke="#bfbfbf" points="0,-729.5 0,-797.5 183,-797.5 183,-729.5 0,-729.5"/>
<text text-anchor="start" x="8" y="-785.5" font-family="Helvetica,sans-Serif" font-size="10.00">Map&lt; String, fspm.config.params.</text>
<text text-anchor="middle" x="91.5" y="-774.5" font-family="Helvetica,sans-Serif" font-size="10.00">ParamCategory &gt;</text>
<polyline fill="none" stroke="#bfbfbf" points="0,-767.5 183,-767.5 "/>
<text text-anchor="middle" x="91.5" y="-755.5" font-family="Helvetica,sans-Serif" font-size="10.00"> </text>
<polyline fill="none" stroke="#bfbfbf" points="0,-748.5 183,-748.5 "/>
<text text-anchor="middle" x="91.5" y="-736.5" font-family="Helvetica,sans-Serif" font-size="10.00"> </text>
</a>
</g>
</g>
<!-- Node9&#45;&gt;Node10 -->
<g id="edge12" class="edge">
<title>Node9&#45;&gt;Node10</title>
<path fill="none" stroke="orange" d="M219.32,-977.89C177.39,-971.33 103.36,-957.02 87.5,-936 57.46,-896.17 68.44,-835.04 79.63,-797.54"/>
<polygon fill="orange" stroke="orange" points="218.83,-981.36 229.24,-979.4 219.88,-974.44 218.83,-981.36"/>
<text text-anchor="start" x="87.5" y="-928" font-family="Helvetica,sans-Serif" font-size="10.00"> &lt; String, fspm::config</text>
<text text-anchor="middle" x="155.5" y="-917" font-family="Helvetica,sans-Serif" font-size="10.00">::params::ParamCategory &gt;</text>
</g>
<!-- Node13 -->
<g id="node13" class="node">
<title>Node13</title>
<g id="a_node13"><a xlink:title=" ">
<polygon fill="none" stroke="#bfbfbf" points="460,-822 460,-890 643,-890 643,-822 460,-822"/>
<text text-anchor="start" x="468" y="-878" font-family="Helvetica,sans-Serif" font-size="10.00">Map&lt; String, fspm.config.params.</text>
<text text-anchor="middle" x="551.5" y="-867" font-family="Helvetica,sans-Serif" font-size="10.00">ParamTable &gt;</text>
<polyline fill="none" stroke="#bfbfbf" points="460,-860 643,-860 "/>
<text text-anchor="middle" x="551.5" y="-848" font-family="Helvetica,sans-Serif" font-size="10.00"> </text>
<polyline fill="none" stroke="#bfbfbf" points="460,-841 643,-841 "/>
<text text-anchor="middle" x="551.5" y="-829" font-family="Helvetica,sans-Serif" font-size="10.00"> </text>
</a>
</g>
</g>
<!-- Node9&#45;&gt;Node13 -->
<g id="edge18" class="edge">
<title>Node9&#45;&gt;Node13</title>
<path fill="none" stroke="orange" d="M277.91,-978.69C316.97,-973.48 387.43,-961.26 442.5,-936 467.99,-924.31 493.54,-906.22 513.48,-890.3"/>
<polygon fill="orange" stroke="orange" points="277.25,-975.24 267.77,-979.97 278.13,-982.19 277.25,-975.24"/>
<text text-anchor="start" x="480.5" y="-928" font-family="Helvetica,sans-Serif" font-size="10.00"> &lt; String, fspm::config</text>
<text text-anchor="middle" x="539" y="-917" font-family="Helvetica,sans-Serif" font-size="10.00">::params::ParamTable &gt;</text>
</g>
<!-- Node10&#45;&gt;Node5 -->
<g id="edge11" class="edge">
<title>Node10&#45;&gt;Node5</title>
<path fill="none" stroke="#404040" d="M85.66,-729.46C77.82,-675.57 69.14,-566.86 109.5,-488 146.25,-416.2 218.62,-359.44 277.85,-322.24"/>
<polygon fill="none" stroke="#404040" points="278.16,-322.05 281.16,-315.5 288.37,-315.75 285.36,-322.3 278.16,-322.05"/>
<text text-anchor="middle" x="138.5" y="-597" font-family="Helvetica,sans-Serif" font-size="10.00"> &#45;categories</text>
</g>
<!-- Node11 -->
<g id="node11" class="node">
<title>Node11</title>
<g id="a_node11"><a xlink:title=" ">
<polygon fill="none" stroke="#bfbfbf" points="342.5,-571 342.5,-628 398.5,-628 398.5,-571 342.5,-571"/>
<text text-anchor="middle" x="370.5" y="-616" font-family="Helvetica,sans-Serif" font-size="10.00">boolean</text>
<polyline fill="none" stroke="#bfbfbf" points="342.5,-609 398.5,-609 "/>
<text text-anchor="middle" x="370.5" y="-597" font-family="Helvetica,sans-Serif" font-size="10.00"> </text>
<polyline fill="none" stroke="#bfbfbf" points="342.5,-590 398.5,-590 "/>
<text text-anchor="middle" x="370.5" y="-578" font-family="Helvetica,sans-Serif" font-size="10.00"> </text>
</a>
</g>
</g>
<!-- Node11&#45;&gt;Node5 -->
<g id="edge13" class="edge">
<title>Node11&#45;&gt;Node5</title>
<path fill="none" stroke="#404040" d="M370.5,-570.99C370.5,-532.27 370.5,-459.25 370.5,-395.13"/>
<polygon fill="none" stroke="#404040" points="370.5,-394.85 366.5,-388.85 370.5,-382.85 374.5,-388.85 370.5,-394.85"/>
<text text-anchor="middle" x="434.5" y="-433" font-family="Helvetica,sans-Serif" font-size="10.00"> +useFlattenedCategories</text>
</g>
<!-- Node12&#45;&gt;Node1 -->
<g id="edge14" class="edge">
<title>Node12&#45;&gt;Node1</title>
<path fill="none" stroke="#404040" d="M719.38,-543.15C709.98,-503.55 697.01,-448.98 685.5,-401 662.46,-304.9 635.55,-193.74 618.77,-124.52"/>
<polygon fill="none" stroke="#404040" points="618.68,-124.18 613.38,-119.29 615.86,-112.52 621.16,-117.4 618.68,-124.18"/>
<text text-anchor="middle" x="720" y="-269" font-family="Helvetica,sans-Serif" font-size="10.00"> &#45;tableHierarchy</text>
</g>
<!-- Node13&#45;&gt;Node12 -->
<g id="edge17" class="edge">
<title>Node13&#45;&gt;Node12</title>
<path fill="none" stroke="#404040" d="M574.98,-821.99C602.99,-782.61 650.48,-715.82 686.01,-665.86"/>
<polygon fill="none" stroke="#404040" points="686.22,-665.57 686.44,-658.36 693.18,-655.79 692.96,-663 686.22,-665.57"/>
<text text-anchor="middle" x="655" y="-761" font-family="Helvetica,sans-Serif" font-size="10.00"> &#45;tables</text>
</g>
</g>
</svg>
