<?xml version="1.0" encoding="UTF-8" standalone="no"?>
<!DOCTYPE svg PUBLIC "-//W3C//DTD SVG 1.1//EN"
 "http://www.w3.org/Graphics/SVG/1.1/DTD/svg11.dtd">
<!-- Generated by graphviz version 2.43.0 (0)
 -->
<!-- Title: io.github.fruitcropxl.config.adapters.JsonFileReader Pages: 1 -->
<svg width="342pt" height="316pt"
 viewBox="0.00 0.00 342.00 316.00" xmlns="http://www.w3.org/2000/svg" xmlns:xlink="http://www.w3.org/1999/xlink">

<svg id="main" version="1.1" xmlns="http://www.w3.org/2000/svg" xmlns:xlink="http://www.w3.org/1999/xlink" xml:space="preserve" onload="init(evt)">
<style type="text/css"><![CDATA[
.node, .edge {opacity: 0.7;}
.node.selected, .edge.selected {opacity: 1;}
.edge:hover path { stroke: red; }
.edge:hover polygon { stroke: red; fill: red; }
]]></style>
<script type="application/ecmascript" xlink:href="svg.min.js"/>
<svg id="graph" class="graph">
<g id="graph0" class="graph" transform="scale(1 1) rotate(0) translate(4 312)">
<title>io.github.fruitcropxl.config.adapters.JsonFileReader</title>
<!-- Node1 -->
<g id="Node000001" class="node">
<title>Node1</title>
<g id="a_Node000001"><a xlink:title="File reader to parse JSON config files to io.github.fruitcropxl.config.Config.">
<polygon fill="#999999" stroke="transparent" points="267,-90 79,-90 79,0 267,0 267,-90"/>
<text text-anchor="start" x="84" y="-78" font-family="Helvetica,sans-Serif" font-size="10.00">io.github.fruitcropxl.config.adapters.</text>
<text text-anchor="start" x="136.5" y="-67" font-family="Helvetica,sans-Serif" font-size="10.00">JsonFileReader</text>
<text text-anchor="start" x="171" y="-52" font-family="Helvetica,sans-Serif" font-size="10.00"> </text>
<text text-anchor="start" x="103" y="-37" font-family="Helvetica,sans-Serif" font-size="10.00">+</text>
<text text-anchor="start" x="136" y="-37" font-family="Helvetica,sans-Serif" font-size="10.00">JsonFileReader()</text>
<text text-anchor="start" x="103" y="-22" font-family="Helvetica,sans-Serif" font-size="10.00">+</text>
<text text-anchor="start" x="136" y="-22" font-family="Helvetica,sans-Serif" font-size="10.00">parse()</text>
<text text-anchor="start" x="103" y="-7" font-family="Helvetica,sans-Serif" font-size="10.00">+</text>
<text text-anchor="start" x="136" y="-7" font-family="Helvetica,sans-Serif" font-size="10.00">getTreeFromFile()</text>
<polygon fill="#666666" stroke="#666666" points="79,-62 79,-62 267,-62 267,-62 79,-62"/>
<polygon fill="#666666" stroke="#666666" points="79,-47 79,-47 267,-47 267,-47 79,-47"/>
<polygon fill="none" stroke="#666666" points="79,0 79,-90 267,-90 267,0 79,0"/>
</a>
</g>
</g>
<!-- Node2 -->
<g id="Node000002" class="node">
<title>Node2</title>
<g id="a_Node000002"><a xlink:href="classio_1_1github_1_1fruitcropxl_1_1config_1_1adapters_1_1ConfigAdapter.html" target="_top" xlink:title="ConfigAdapter implementations are responsible for parsing different file types into ParamGroups.">
<polygon fill="white" stroke="transparent" points="188,-212 0,-212 0,-137 188,-137 188,-212"/>
<text text-anchor="start" x="5" y="-199.5" font-family="Helvetica,sans-Serif" font-size="10.00">io.github.fruitcropxl.config.adapters.</text>
<text text-anchor="start" x="59" y="-188.5" font-family="Helvetica,sans-Serif" font-size="10.00">ConfigAdapter</text>
<text text-anchor="start" x="92" y="-173.5" font-family="Helvetica,sans-Serif" font-size="10.00"> </text>
<text text-anchor="start" x="26.5" y="-158.5" font-family="Helvetica,sans-Serif" font-size="10.00">+</text>
<text text-anchor="start" x="62" y="-158.5" font-family="Helvetica,sans-Serif" font-size="10.00">parse()</text>
<text text-anchor="start" x="26.5" y="-143.5" font-family="Helvetica,sans-Serif" font-size="10.00">#</text>
<text text-anchor="start" x="62" y="-143.5" font-family="Helvetica,sans-Serif" font-size="10.00">ConfigAdapter()</text>
<polygon fill="#666666" stroke="#666666" points="0,-183.5 0,-183.5 188,-183.5 188,-183.5 0,-183.5"/>
<polygon fill="#666666" stroke="#666666" points="0,-168.5 0,-168.5 188,-168.5 188,-168.5 0,-168.5"/>
<polygon fill="none" stroke="#666666" points="0,-137 0,-212 188,-212 188,-137 0,-137"/>
</a>
</g>
</g>
<!-- Node2&#45;&gt;Node1 -->
<g id="edge1_Node000001_Node000002" class="edge">
<title>Node2&#45;&gt;Node1</title>
<g id="a_edge1_Node000001_Node000002"><a xlink:title=" ">
<path fill="none" stroke="#63b8ff" d="M122.08,-128.19C129.72,-115.85 137.99,-102.51 145.59,-90.23"/>
<polygon fill="none" stroke="#63b8ff" points="118.93,-126.62 116.64,-136.96 124.88,-130.31 118.93,-126.62"/>
</a>
</g>
</g>
<!-- Node3 -->
<g id="Node000003" class="node">
<title>Node3</title>
<g id="a_Node000003"><a xlink:title=" ">
<polygon fill="white" stroke="transparent" points="125.5,-308 62.5,-308 62.5,-259 125.5,-259 125.5,-308"/>
<text text-anchor="start" x="68" y="-295.5" font-family="Helvetica,sans-Serif" font-size="10.00">final String</text>
<text text-anchor="start" x="92.5" y="-280.5" font-family="Helvetica,sans-Serif" font-size="10.00"> </text>
<text text-anchor="start" x="92.5" y="-265.5" font-family="Helvetica,sans-Serif" font-size="10.00"> </text>
<polygon fill="#666666" stroke="#666666" points="63,-290.5 63,-290.5 126,-290.5 126,-290.5 63,-290.5"/>
<polygon fill="#666666" stroke="#666666" points="63,-275.5 63,-275.5 126,-275.5 126,-275.5 63,-275.5"/>
<polygon fill="none" stroke="#666666" points="62.5,-259 62.5,-308 125.5,-308 125.5,-259 62.5,-259"/>
</a>
</g>
</g>
<!-- Node3&#45;&gt;Node2 -->
<g id="edge2_Node000002_Node000003" class="edge">
<title>Node3&#45;&gt;Node2</title>
<g id="a_edge2_Node000002_Node000003"><a xlink:title=" ">
<path fill="none" stroke="#63b8ff" d="M94,-258.75C94,-248.61 94,-236.37 94,-224.44"/>
<polygon fill="none" stroke="#63b8ff" points="94,-224.22 90,-218.22 94,-212.22 98,-218.22 94,-224.22"/>
</a>
</g>
<text text-anchor="middle" x="111" y="-233" font-family="Helvetica,sans-Serif" font-size="10.00" fill="grey"> #path</text>
</g>
<!-- Node4 -->
<g id="Node000004" class="node">
<title>Node4</title>
<g id="a_Node000004"><a xlink:title=" ">
<polygon fill="white" stroke="transparent" points="299.5,-199 206.5,-199 206.5,-150 299.5,-150 299.5,-199"/>
<text text-anchor="start" x="212" y="-186.5" font-family="Helvetica,sans-Serif" font-size="10.00">static final String</text>
<text text-anchor="start" x="251.5" y="-171.5" font-family="Helvetica,sans-Serif" font-size="10.00"> </text>
<text text-anchor="start" x="251.5" y="-156.5" font-family="Helvetica,sans-Serif" font-size="10.00"> </text>
<polygon fill="#666666" stroke="#666666" points="207,-181.5 207,-181.5 300,-181.5 300,-181.5 207,-181.5"/>
<polygon fill="#666666" stroke="#666666" points="207,-166.5 207,-166.5 300,-166.5 300,-166.5 207,-166.5"/>
<polygon fill="none" stroke="#666666" points="206.5,-150 206.5,-199 299.5,-199 299.5,-150 206.5,-150"/>
</a>
</g>
</g>
<!-- Node4&#45;&gt;Node1 -->
<g id="edge3_Node000001_Node000004" class="edge">
<title>Node4&#45;&gt;Node1</title>
<g id="a_edge3_Node000001_Node000004"><a xlink:title=" ">
<path fill="none" stroke="#63b8ff" d="M238.14,-149.82C229.46,-135.98 218.12,-117.91 207.34,-100.73"/>
<polygon fill="none" stroke="#63b8ff" points="207.11,-100.36 200.53,-97.4 200.73,-90.2 207.31,-93.15 207.11,-100.36"/>
</a>
</g>
<text text-anchor="middle" x="276" y="-111" font-family="Helvetica,sans-Serif" font-size="10.00" fill="grey"> +METACLASS_HEADER</text>
</g>
</g>
</svg>
</svg>

<style type='text/css'>
<![CDATA[
[data-mouse-over-selected='false'] { opacity: 0.7; }
[data-mouse-over-selected='true']  { opacity: 1.0; }
]]>
</style>
<script type="application/ecmascript"><![CDATA[
document.addEventListener('DOMContentLoaded', (event) => {
  highlightEdges();
  highlightAdjacentNodes();
});
]]></script>
</svg>
