<?xml version="1.0" encoding="UTF-8" standalone="no"?>
<!DOCTYPE svg PUBLIC "-//W3C//DTD SVG 1.1//EN"
 "http://www.w3.org/Graphics/SVG/1.1/DTD/svg11.dtd">
<!-- Generated by graphviz version 2.43.0 (0)
 -->
<!-- Title: io.github.fruitcropxl.config.params.ParamTable Pages: 1 -->
<svg width="553pt" height="426pt"
 viewBox="0.00 0.00 553.00 426.00" xmlns="http://www.w3.org/2000/svg" xmlns:xlink="http://www.w3.org/1999/xlink">
<g id="graph0" class="graph" transform="scale(1 1) rotate(0) translate(4 422)">
<title>io.github.fruitcropxl.config.params.ParamTable</title>
<!-- Node1 -->
<g id="Node000001" class="node">
<title>Node1</title>
<g id="a_Node000001"><a xlink:title="Stores Parameters in a tabular format as rows and columns (parameter key).">
<polygon fill="#999999" stroke="transparent" points="298.5,-300 116.5,-300 116.5,0 298.5,0 298.5,-300"/>
<text text-anchor="start" x="121.5" y="-288" font-family="Helvetica,sans-Serif" font-size="10.00">io.github.fruitcropxl.config.params.</text>
<text text-anchor="start" x="179" y="-277" font-family="Helvetica,sans-Serif" font-size="10.00">ParamTable</text>
<text text-anchor="start" x="205.5" y="-262" font-family="Helvetica,sans-Serif" font-size="10.00"> </text>
<text text-anchor="start" x="142" y="-247" font-family="Helvetica,sans-Serif" font-size="10.00">+</text>
<text text-anchor="start" x="176.5" y="-247" font-family="Helvetica,sans-Serif" font-size="10.00">ParamTable()</text>
<text text-anchor="start" x="142" y="-232" font-family="Helvetica,sans-Serif" font-size="10.00">+</text>
<text text-anchor="start" x="176.5" y="-232" font-family="Helvetica,sans-Serif" font-size="10.00">addRow()</text>
<text text-anchor="start" x="142" y="-217" font-family="Helvetica,sans-Serif" font-size="10.00">+</text>
<text text-anchor="start" x="176.5" y="-217" font-family="Helvetica,sans-Serif" font-size="10.00">getBoolean()</text>
<text text-anchor="start" x="142" y="-202" font-family="Helvetica,sans-Serif" font-size="10.00">+</text>
<text text-anchor="start" x="176.5" y="-202" font-family="Helvetica,sans-Serif" font-size="10.00">getBoolean()</text>
<text text-anchor="start" x="142" y="-187" font-family="Helvetica,sans-Serif" font-size="10.00">+</text>
<text text-anchor="start" x="176.5" y="-187" font-family="Helvetica,sans-Serif" font-size="10.00">getString()</text>
<text text-anchor="start" x="142" y="-172" font-family="Helvetica,sans-Serif" font-size="10.00">+</text>
<text text-anchor="start" x="176.5" y="-172" font-family="Helvetica,sans-Serif" font-size="10.00">getString()</text>
<text text-anchor="start" x="142" y="-157" font-family="Helvetica,sans-Serif" font-size="10.00">+</text>
<text text-anchor="start" x="176.5" y="-157" font-family="Helvetica,sans-Serif" font-size="10.00">getInteger()</text>
<text text-anchor="start" x="142" y="-142" font-family="Helvetica,sans-Serif" font-size="10.00">+</text>
<text text-anchor="start" x="176.5" y="-142" font-family="Helvetica,sans-Serif" font-size="10.00">getInteger()</text>
<text text-anchor="start" x="142" y="-127" font-family="Helvetica,sans-Serif" font-size="10.00">+</text>
<text text-anchor="start" x="176.5" y="-127" font-family="Helvetica,sans-Serif" font-size="10.00">getDouble()</text>
<text text-anchor="start" x="142" y="-112" font-family="Helvetica,sans-Serif" font-size="10.00">+</text>
<text text-anchor="start" x="176.5" y="-112" font-family="Helvetica,sans-Serif" font-size="10.00">getDouble()</text>
<text text-anchor="start" x="176.5" y="-97" font-family="Helvetica,sans-Serif" font-size="10.00">and 10 more...</text>
<text text-anchor="start" x="142" y="-82" font-family="Helvetica,sans-Serif" font-size="10.00">~</text>
<text text-anchor="start" x="176.5" y="-82" font-family="Helvetica,sans-Serif" font-size="10.00">get()</text>
<text text-anchor="start" x="142" y="-67" font-family="Helvetica,sans-Serif" font-size="10.00">~</text>
<text text-anchor="start" x="176.5" y="-67" font-family="Helvetica,sans-Serif" font-size="10.00">get()</text>
<text text-anchor="start" x="142" y="-52" font-family="Helvetica,sans-Serif" font-size="10.00">~</text>
<text text-anchor="start" x="176.5" y="-52" font-family="Helvetica,sans-Serif" font-size="10.00">getArray()</text>
<text text-anchor="start" x="142" y="-37" font-family="Helvetica,sans-Serif" font-size="10.00">~</text>
<text text-anchor="start" x="176.5" y="-37" font-family="Helvetica,sans-Serif" font-size="10.00">getArray()</text>
<text text-anchor="start" x="144.5" y="-22" font-family="Helvetica,sans-Serif" font-size="10.00">&#45;</text>
<text text-anchor="start" x="176.5" y="-22" font-family="Helvetica,sans-Serif" font-size="10.00">setRow()</text>
<text text-anchor="start" x="144.5" y="-7" font-family="Helvetica,sans-Serif" font-size="10.00">&#45;</text>
<text text-anchor="start" x="176.5" y="-7" font-family="Helvetica,sans-Serif" font-size="10.00">getParameter()</text>
<polygon fill="#666666" stroke="#666666" points="116.5,-272 116.5,-272 298.5,-272 298.5,-272 116.5,-272"/>
<polygon fill="#666666" stroke="#666666" points="116.5,-257 116.5,-257 298.5,-257 298.5,-257 116.5,-257"/>
<polygon fill="none" stroke="#666666" points="116.5,0 116.5,-300 298.5,-300 298.5,0 116.5,0"/>
</a>
</g>
</g>
<!-- Node2 -->
<g id="Node000002" class="node">
<title>Node2</title>
<g id="a_Node000002"><a xlink:href="classKeyElement.html" target="_top" xlink:title=" ">
<polygon fill="white" stroke="transparent" points="69,-407 0,-407 0,-358 69,-358 69,-407"/>
<text text-anchor="start" x="5.5" y="-394.5" font-family="Helvetica,sans-Serif" font-size="10.00">KeyElement</text>
<text text-anchor="start" x="33" y="-379.5" font-family="Helvetica,sans-Serif" font-size="10.00"> </text>
<text text-anchor="start" x="33" y="-364.5" font-family="Helvetica,sans-Serif" font-size="10.00"> </text>
<polygon fill="#666666" stroke="#666666" points="0.5,-389.5 0.5,-389.5 69.5,-389.5 69.5,-389.5 0.5,-389.5"/>
<polygon fill="#666666" stroke="#666666" points="0.5,-374.5 0.5,-374.5 69.5,-374.5 69.5,-374.5 0.5,-374.5"/>
<polygon fill="none" stroke="#666666" points="0,-358 0,-407 69,-407 69,-358 0,-358"/>
</a>
</g>
</g>
<!-- Node2&#45;&gt;Node1 -->
<g id="edge1_Node000001_Node000002" class="edge">
<title>Node2&#45;&gt;Node1</title>
<g id="a_edge1_Node000001_Node000002"><a xlink:title=" ">
<path fill="none" stroke="#63b8ff" d="M58.39,-349.67C73.8,-329.14 94.92,-301 116.41,-272.36"/>
<polygon fill="none" stroke="#63b8ff" points="55.57,-347.6 52.36,-357.7 61.16,-351.8 55.57,-347.6"/>
</a>
</g>
</g>
<!-- Node3 -->
<g id="Node000003" class="node">
<title>Node3</title>
<g id="a_Node000003"><a xlink:href="classCellParamAccessor.html" target="_top" xlink:title=" ">
<polygon fill="white" stroke="transparent" points="191.5,-407 87.5,-407 87.5,-358 191.5,-358 191.5,-407"/>
<text text-anchor="start" x="92.5" y="-394.5" font-family="Helvetica,sans-Serif" font-size="10.00">CellParamAccessor</text>
<text text-anchor="start" x="137.5" y="-379.5" font-family="Helvetica,sans-Serif" font-size="10.00"> </text>
<text text-anchor="start" x="137.5" y="-364.5" font-family="Helvetica,sans-Serif" font-size="10.00"> </text>
<polygon fill="#666666" stroke="#666666" points="87.5,-389.5 87.5,-389.5 191.5,-389.5 191.5,-389.5 87.5,-389.5"/>
<polygon fill="#666666" stroke="#666666" points="87.5,-374.5 87.5,-374.5 191.5,-374.5 191.5,-374.5 87.5,-374.5"/>
<polygon fill="none" stroke="#666666" points="87.5,-358 87.5,-407 191.5,-407 191.5,-358 87.5,-358"/>
</a>
</g>
</g>
<!-- Node3&#45;&gt;Node1 -->
<g id="edge2_Node000001_Node000003" class="edge">
<title>Node3&#45;&gt;Node1</title>
<g id="a_edge2_Node000001_Node000003"><a xlink:title=" ">
<path fill="none" stroke="#63b8ff" d="M149.39,-347.99C153.38,-334.46 158.28,-317.84 163.53,-300.04"/>
<polygon fill="none" stroke="#63b8ff" points="145.99,-347.12 146.52,-357.7 152.71,-349.1 145.99,-347.12"/>
</a>
</g>
</g>
<!-- Node4 -->
<g id="Node000004" class="node">
<title>Node4</title>
<g id="a_Node000004"><a xlink:href="classTypedCellParamAccessor.html" target="_top" xlink:title=" ">
<polygon fill="white" stroke="transparent" points="341.5,-407 209.5,-407 209.5,-358 341.5,-358 341.5,-407"/>
<text text-anchor="start" x="214.5" y="-394.5" font-family="Helvetica,sans-Serif" font-size="10.00">TypedCellParamAccessor</text>
<text text-anchor="start" x="273.5" y="-379.5" font-family="Helvetica,sans-Serif" font-size="10.00"> </text>
<text text-anchor="start" x="273.5" y="-364.5" font-family="Helvetica,sans-Serif" font-size="10.00"> </text>
<polygon fill="#666666" stroke="#666666" points="209.5,-389.5 209.5,-389.5 341.5,-389.5 341.5,-389.5 209.5,-389.5"/>
<polygon fill="#666666" stroke="#666666" points="209.5,-374.5 209.5,-374.5 341.5,-374.5 341.5,-374.5 209.5,-374.5"/>
<polygon fill="none" stroke="#666666" points="209.5,-358 209.5,-407 341.5,-407 341.5,-358 209.5,-358"/>
</a>
</g>
</g>
<!-- Node4&#45;&gt;Node1 -->
<g id="edge3_Node000001_Node000004" class="edge">
<title>Node4&#45;&gt;Node1</title>
<g id="a_edge3_Node000001_Node000004"><a xlink:title=" ">
<path fill="none" stroke="#63b8ff" d="M265.61,-347.99C261.62,-334.46 256.72,-317.84 251.47,-300.04"/>
<polygon fill="none" stroke="#63b8ff" points="262.29,-349.1 268.48,-357.7 269.01,-347.12 262.29,-349.1"/>
</a>
</g>
</g>
<!-- Node5 -->
<g id="Node000005" class="node">
<title>Node5</title>
<g id="a_Node000005"><a xlink:title=" ">
<polygon fill="white" stroke="transparent" points="545,-418 360,-418 360,-347 545,-347 545,-418"/>
<text text-anchor="start" x="365.5" y="-405.5" font-family="Helvetica,sans-Serif" font-size="10.00">Map&lt; String, List&lt;</text>
<text text-anchor="start" x="365.5" y="-394.5" font-family="Helvetica,sans-Serif" font-size="10.00"> io.github.fruitcropxl.config.params.</text>
<text text-anchor="start" x="416.5" y="-383.5" font-family="Helvetica,sans-Serif" font-size="10.00">Parameter &gt; &gt;</text>
<text text-anchor="start" x="451" y="-368.5" font-family="Helvetica,sans-Serif" font-size="10.00"> </text>
<text text-anchor="start" x="451" y="-353.5" font-family="Helvetica,sans-Serif" font-size="10.00"> </text>
<polygon fill="#666666" stroke="#666666" points="360.5,-378.5 360.5,-378.5 545.5,-378.5 545.5,-378.5 360.5,-378.5"/>
<polygon fill="#666666" stroke="#666666" points="360.5,-363.5 360.5,-363.5 545.5,-363.5 545.5,-363.5 360.5,-363.5"/>
<polygon fill="none" stroke="#666666" points="360,-347 360,-418 545,-418 545,-347 360,-347"/>
</a>
</g>
</g>
<!-- Node5&#45;&gt;Node1 -->
<g id="edge4_Node000001_Node000005" class="edge">
<title>Node5&#45;&gt;Node1</title>
<g id="a_edge4_Node000001_Node000005"><a xlink:title=" ">
<path fill="none" stroke="#63b8ff" d="M415.82,-346.99C387.21,-320.08 346.05,-281.35 307.86,-245.42"/>
<polygon fill="none" stroke="#63b8ff" points="307.48,-245.06 300.37,-243.87 298.74,-236.84 305.85,-238.04 307.48,-245.06"/>
</a>
</g>
<text text-anchor="middle" x="408" y="-321" font-family="Helvetica,sans-Serif" font-size="10.00" fill="grey"> &#45;rows</text>
</g>
</g>
</svg>
