<?xml version="1.0" encoding="UTF-8" standalone="no"?>
<!DOCTYPE svg PUBLIC "-//W3C//DTD SVG 1.1//EN"
 "http://www.w3.org/Graphics/SVG/1.1/DTD/svg11.dtd">
<!-- Generated by graphviz version 2.43.0 (0)
 -->
<!-- Title: fspm.config.Config Pages: 1 -->
<svg width="278pt" height="386pt"
 viewBox="0.00 0.00 277.50 386.00" xmlns="http://www.w3.org/2000/svg" xmlns:xlink="http://www.w3.org/1999/xlink">
<g id="graph0" class="graph" transform="scale(1 1) rotate(0) translate(4 382)">
<title>fspm.config.Config</title>
<!-- Node1 -->
<g id="node1" class="node">
<title>Node1</title>
<g id="a_node1"><a xlink:title="Configuration class for storing input configurations to be used in simulations.">
<polygon fill="#bfbfbf" stroke="black" points="56,-0.5 56,-145.5 163,-145.5 163,-0.5 56,-0.5"/>
<text text-anchor="middle" x="109.5" y="-133.5" font-family="Helvetica,sans-Serif" font-size="10.00">fspm.config.Config</text>
<polyline fill="none" stroke="black" points="56,-126.5 163,-126.5 "/>
<text text-anchor="middle" x="109.5" y="-114.5" font-family="Helvetica,sans-Serif" font-size="10.00"> </text>
<polyline fill="none" stroke="black" points="56,-107.5 163,-107.5 "/>
<text text-anchor="start" x="64" y="-95.5" font-family="Helvetica,sans-Serif" font-size="10.00">+ reset()</text>
<text text-anchor="start" x="64" y="-84.5" font-family="Helvetica,sans-Serif" font-size="10.00">+ addGroup()</text>
<text text-anchor="start" x="64" y="-73.5" font-family="Helvetica,sans-Serif" font-size="10.00">+ addGroup()</text>
<text text-anchor="start" x="64" y="-62.5" font-family="Helvetica,sans-Serif" font-size="10.00">+ addGroup()</text>
<text text-anchor="start" x="64" y="-51.5" font-family="Helvetica,sans-Serif" font-size="10.00">+ removeGroup()</text>
<text text-anchor="start" x="64" y="-40.5" font-family="Helvetica,sans-Serif" font-size="10.00">+ getInstance()</text>
<text text-anchor="start" x="64" y="-29.5" font-family="Helvetica,sans-Serif" font-size="10.00">~ getGroup()</text>
<text text-anchor="start" x="64" y="-18.5" font-family="Helvetica,sans-Serif" font-size="10.00">&#45; Config()</text>
<text text-anchor="start" x="64" y="-7.5" font-family="Helvetica,sans-Serif" font-size="10.00">&#45; addGroup()</text>
</a>
</g>
</g>
<!-- Node1&#45;&gt;Node1 -->
<g id="edge3" class="edge">
<title>Node1&#45;&gt;Node1</title>
<path fill="none" stroke="#404040" d="M163.13,-90.2C173.58,-88.2 181,-82.47 181,-73 181,-67.53 178.52,-63.3 174.41,-60.32"/>
<polygon fill="none" stroke="#404040" points="174.27,-60.27 167.21,-61.75 163.13,-55.8 170.19,-54.32 174.27,-60.27"/>
<text text-anchor="middle" x="205.5" y="-70.5" font-family="Helvetica,sans-Serif" font-size="10.00"> &#45;instance</text>
</g>
<!-- Node2 -->
<g id="node2" class="node">
<title>Node2</title>
<g id="a_node2"><a xlink:title=" ">
<polygon fill="none" stroke="#bfbfbf" points="0,-193.5 0,-261.5 219,-261.5 219,-193.5 0,-193.5"/>
<text text-anchor="start" x="8" y="-249.5" font-family="Helvetica,sans-Serif" font-size="10.00">Map&lt; String, fspm.config.params.groups.</text>
<text text-anchor="middle" x="109.5" y="-238.5" font-family="Helvetica,sans-Serif" font-size="10.00">ParamGroup &gt;</text>
<polyline fill="none" stroke="#bfbfbf" points="0,-231.5 219,-231.5 "/>
<text text-anchor="middle" x="109.5" y="-219.5" font-family="Helvetica,sans-Serif" font-size="10.00"> </text>
<polyline fill="none" stroke="#bfbfbf" points="0,-212.5 219,-212.5 "/>
<text text-anchor="middle" x="109.5" y="-200.5" font-family="Helvetica,sans-Serif" font-size="10.00"> </text>
</a>
</g>
</g>
<!-- Node2&#45;&gt;Node1 -->
<g id="edge1" class="edge">
<title>Node2&#45;&gt;Node1</title>
<path fill="none" stroke="#404040" d="M109.5,-193.41C109.5,-182.72 109.5,-170.35 109.5,-157.7"/>
<polygon fill="none" stroke="#404040" points="109.5,-157.53 105.5,-151.53 109.5,-145.53 113.5,-151.53 109.5,-157.53"/>
<text text-anchor="middle" x="146" y="-167" font-family="Helvetica,sans-Serif" font-size="10.00"> &#45;paramGroups</text>
</g>
<!-- Node3 -->
<g id="node3" class="node">
<title>Node3</title>
<g id="a_node3"><a xlink:title=" ">
<polygon fill="none" stroke="#bfbfbf" points="90.5,-320.5 90.5,-377.5 128.5,-377.5 128.5,-320.5 90.5,-320.5"/>
<text text-anchor="middle" x="109.5" y="-365.5" font-family="Helvetica,sans-Serif" font-size="10.00">Map</text>
<polyline fill="none" stroke="#bfbfbf" points="90.5,-358.5 128.5,-358.5 "/>
<text text-anchor="middle" x="109.5" y="-346.5" font-family="Helvetica,sans-Serif" font-size="10.00"> </text>
<polyline fill="none" stroke="#bfbfbf" points="90.5,-339.5 128.5,-339.5 "/>
<text text-anchor="middle" x="109.5" y="-327.5" font-family="Helvetica,sans-Serif" font-size="10.00"> </text>
</a>
</g>
</g>
<!-- Node3&#45;&gt;Node2 -->
<g id="edge2" class="edge">
<title>Node3&#45;&gt;Node2</title>
<path fill="none" stroke="orange" d="M109.5,-309.95C109.5,-294.4 109.5,-276.58 109.5,-261.59"/>
<polygon fill="orange" stroke="orange" points="106,-310.28 109.5,-320.28 113,-310.28 106,-310.28"/>
<text text-anchor="start" x="109.5" y="-294" font-family="Helvetica,sans-Serif" font-size="10.00"> &lt; String, fspm::config</text>
<text text-anchor="middle" x="189.5" y="-283" font-family="Helvetica,sans-Serif" font-size="10.00">::params::groups::ParamGroup &gt;</text>
</g>
</g>
</svg>
