<?xml version="1.0" encoding="UTF-8" standalone="no"?>
<!DOCTYPE svg PUBLIC "-//W3C//DTD SVG 1.1//EN"
 "http://www.w3.org/Graphics/SVG/1.1/DTD/svg11.dtd">
<!-- Generated by graphviz version 2.43.0 (0)
 -->
<!-- Title: io.github.fruitcropxl.config.params.Parameter Pages: 1 -->
<svg width="190pt" height="374pt"
 viewBox="0.00 0.00 190.00 374.00" xmlns="http://www.w3.org/2000/svg" xmlns:xlink="http://www.w3.org/1999/xlink">

<svg id="main" version="1.1" xmlns="http://www.w3.org/2000/svg" xmlns:xlink="http://www.w3.org/1999/xlink" xml:space="preserve" onload="init(evt)">
<style type="text/css"><![CDATA[
.node, .edge {opacity: 0.7;}
.node.selected, .edge.selected {opacity: 1;}
.edge:hover path { stroke: red; }
.edge:hover polygon { stroke: red; fill: red; }
]]></style>
<script type="application/ecmascript" xlink:href="svg.min.js"/>
<svg id="graph" class="graph">
<g id="graph0" class="graph" transform="scale(1 1) rotate(0) translate(4 370)">
<title>io.github.fruitcropxl.config.params.Parameter</title>
<!-- Node1 -->
<g id="Node000001" class="node">
<title>Node1</title>
<g id="a_Node000001"><a xlink:title="Parameter represents variables that can be stored as Java data types.">
<polygon fill="#999999" stroke="transparent" points="182,-270 0,-270 0,0 182,0 182,-270"/>
<text text-anchor="start" x="5" y="-258" font-family="Helvetica,sans-Serif" font-size="10.00">io.github.fruitcropxl.config.params.</text>
<text text-anchor="start" x="65.5" y="-247" font-family="Helvetica,sans-Serif" font-size="10.00">Parameter</text>
<text text-anchor="start" x="89" y="-232" font-family="Helvetica,sans-Serif" font-size="10.00"> </text>
<text text-anchor="start" x="23" y="-217" font-family="Helvetica,sans-Serif" font-size="10.00">+</text>
<text text-anchor="start" x="55" y="-217" font-family="Helvetica,sans-Serif" font-size="10.00">Parameter()</text>
<text text-anchor="start" x="23" y="-202" font-family="Helvetica,sans-Serif" font-size="10.00">+</text>
<text text-anchor="start" x="55" y="-202" font-family="Helvetica,sans-Serif" font-size="10.00">getType()</text>
<text text-anchor="start" x="23" y="-187" font-family="Helvetica,sans-Serif" font-size="10.00">+</text>
<text text-anchor="start" x="55" y="-187" font-family="Helvetica,sans-Serif" font-size="10.00">asBoolean()</text>
<text text-anchor="start" x="23" y="-172" font-family="Helvetica,sans-Serif" font-size="10.00">+</text>
<text text-anchor="start" x="55" y="-172" font-family="Helvetica,sans-Serif" font-size="10.00">asString()</text>
<text text-anchor="start" x="23" y="-157" font-family="Helvetica,sans-Serif" font-size="10.00">+</text>
<text text-anchor="start" x="55" y="-157" font-family="Helvetica,sans-Serif" font-size="10.00">asInteger()</text>
<text text-anchor="start" x="23" y="-142" font-family="Helvetica,sans-Serif" font-size="10.00">+</text>
<text text-anchor="start" x="55" y="-142" font-family="Helvetica,sans-Serif" font-size="10.00">asDouble()</text>
<text text-anchor="start" x="23" y="-127" font-family="Helvetica,sans-Serif" font-size="10.00">+</text>
<text text-anchor="start" x="55" y="-127" font-family="Helvetica,sans-Serif" font-size="10.00">asBooleanArray()</text>
<text text-anchor="start" x="23" y="-112" font-family="Helvetica,sans-Serif" font-size="10.00">+</text>
<text text-anchor="start" x="55" y="-112" font-family="Helvetica,sans-Serif" font-size="10.00">asStringArray()</text>
<text text-anchor="start" x="23" y="-97" font-family="Helvetica,sans-Serif" font-size="10.00">+</text>
<text text-anchor="start" x="55" y="-97" font-family="Helvetica,sans-Serif" font-size="10.00">asIntegerArray()</text>
<text text-anchor="start" x="23" y="-82" font-family="Helvetica,sans-Serif" font-size="10.00">+</text>
<text text-anchor="start" x="55" y="-82" font-family="Helvetica,sans-Serif" font-size="10.00">asDoubleArray()</text>
<text text-anchor="start" x="23" y="-67" font-family="Helvetica,sans-Serif" font-size="10.00">+</text>
<text text-anchor="start" x="55" y="-67" font-family="Helvetica,sans-Serif" font-size="10.00">isNull()</text>
<text text-anchor="start" x="23" y="-52" font-family="Helvetica,sans-Serif" font-size="10.00">+</text>
<text text-anchor="start" x="55" y="-52" font-family="Helvetica,sans-Serif" font-size="10.00">toString()</text>
<text text-anchor="start" x="23" y="-37" font-family="Helvetica,sans-Serif" font-size="10.00">~</text>
<text text-anchor="start" x="55" y="-37" font-family="Helvetica,sans-Serif" font-size="10.00">getValue()</text>
<text text-anchor="start" x="23" y="-22" font-family="Helvetica,sans-Serif" font-size="10.00">~</text>
<text text-anchor="start" x="55" y="-22" font-family="Helvetica,sans-Serif" font-size="10.00">asArray()</text>
<text text-anchor="start" x="25.5" y="-7" font-family="Helvetica,sans-Serif" font-size="10.00">&#45;</text>
<text text-anchor="start" x="55" y="-7" font-family="Helvetica,sans-Serif" font-size="10.00">getDoubleType()</text>
<polygon fill="#666666" stroke="#666666" points="0,-242 0,-242 182,-242 182,-242 0,-242"/>
<polygon fill="#666666" stroke="#666666" points="0,-227 0,-227 182,-227 182,-227 0,-227"/>
<polygon fill="none" stroke="#666666" points="0,0 0,-270 182,-270 182,0 0,0"/>
</a>
</g>
</g>
<!-- Node2 -->
<g id="Node000002" class="node">
<title>Node2</title>
<g id="a_Node000002"><a xlink:href="classKeyElement.html" target="_top" xlink:title=" ">
<polygon fill="white" stroke="transparent" points="85.5,-366 16.5,-366 16.5,-317 85.5,-317 85.5,-366"/>
<text text-anchor="start" x="22" y="-353.5" font-family="Helvetica,sans-Serif" font-size="10.00">KeyElement</text>
<text text-anchor="start" x="49.5" y="-338.5" font-family="Helvetica,sans-Serif" font-size="10.00"> </text>
<text text-anchor="start" x="49.5" y="-323.5" font-family="Helvetica,sans-Serif" font-size="10.00"> </text>
<polygon fill="#666666" stroke="#666666" points="17,-348.5 17,-348.5 86,-348.5 86,-348.5 17,-348.5"/>
<polygon fill="#666666" stroke="#666666" points="17,-333.5 17,-333.5 86,-333.5 86,-333.5 17,-333.5"/>
<polygon fill="none" stroke="#666666" points="16.5,-317 16.5,-366 85.5,-366 85.5,-317 16.5,-317"/>
</a>
</g>
</g>
<!-- Node2&#45;&gt;Node1 -->
<g id="edge1_Node000001_Node000002" class="edge">
<title>Node2&#45;&gt;Node1</title>
<g id="a_edge1_Node000001_Node000002"><a xlink:title=" ">
<path fill="none" stroke="#63b8ff" d="M57.62,-306.63C59.71,-295.97 62.15,-283.48 64.75,-270.19"/>
<polygon fill="none" stroke="#63b8ff" points="54.15,-306.16 55.67,-316.64 61.02,-307.5 54.15,-306.16"/>
</a>
</g>
</g>
<!-- Node3 -->
<g id="Node000003" class="node">
<title>Node3</title>
<g id="a_Node000003"><a xlink:title=" ">
<polygon fill="white" stroke="transparent" points="160,-366 104,-366 104,-317 160,-317 160,-366"/>
<text text-anchor="start" x="109" y="-353.5" font-family="Helvetica,sans-Serif" font-size="10.00">JsonNode</text>
<text text-anchor="start" x="130" y="-338.5" font-family="Helvetica,sans-Serif" font-size="10.00"> </text>
<text text-anchor="start" x="130" y="-323.5" font-family="Helvetica,sans-Serif" font-size="10.00"> </text>
<polygon fill="#666666" stroke="#666666" points="104,-348.5 104,-348.5 160,-348.5 160,-348.5 104,-348.5"/>
<polygon fill="#666666" stroke="#666666" points="104,-333.5 104,-333.5 160,-333.5 160,-333.5 104,-333.5"/>
<polygon fill="none" stroke="#666666" points="104,-317 104,-366 160,-366 160,-317 104,-317"/>
</a>
</g>
</g>
<!-- Node3&#45;&gt;Node1 -->
<g id="edge2_Node000001_Node000003" class="edge">
<title>Node3&#45;&gt;Node1</title>
<g id="a_edge2_Node000001_Node000003"><a xlink:title=" ">
<path fill="none" stroke="#63b8ff" d="M127.22,-316.64C125.29,-307.03 122.9,-295.1 120.27,-281.99"/>
<polygon fill="none" stroke="#63b8ff" points="120.26,-281.96 115.16,-276.86 117.9,-270.19 123.01,-275.29 120.26,-281.96"/>
</a>
</g>
<text text-anchor="middle" x="138.5" y="-291" font-family="Helvetica,sans-Serif" font-size="10.00" fill="grey"> &#45;node</text>
</g>
</g>
</svg>
</svg>

<style type='text/css'>
<![CDATA[
[data-mouse-over-selected='false'] { opacity: 0.7; }
[data-mouse-over-selected='true']  { opacity: 1.0; }
]]>
</style>
<script type="application/ecmascript"><![CDATA[
document.addEventListener('DOMContentLoaded', (event) => {
  highlightEdges();
  highlightAdjacentNodes();
});
]]></script>
</svg>
