<?xml version="1.0" encoding="UTF-8" standalone="no"?>
<!DOCTYPE svg PUBLIC "-//W3C//DTD SVG 1.1//EN"
 "http://www.w3.org/Graphics/SVG/1.1/DTD/svg11.dtd">
<!-- Generated by graphviz version 2.43.0 (0)
 -->
<!-- Title: Graphical Class Hierarchy Pages: 1 -->
<svg width="338pt" height="78pt"
 viewBox="0.00 0.00 338.00 77.50" xmlns="http://www.w3.org/2000/svg" xmlns:xlink="http://www.w3.org/1999/xlink">
<g id="graph0" class="graph" transform="scale(1 1) rotate(0) translate(4 73.5)">
<title>Graphical Class Hierarchy</title>
<!-- Node0 -->
<g id="node1" class="node">
<title>Node0</title>
<g id="a_node1"><a xlink:href="interfacefspm_1_1config_1_1params_1_1ParamAccessor.html" target="_top" xlink:title="Blueprint for all classes that handles getting and setting of parameters.">
<polygon fill="none" stroke="black" points="0,-22.5 0,-52.5 147,-52.5 147,-22.5 0,-22.5"/>
<text text-anchor="start" x="8" y="-40.5" font-family="Helvetica,sans-Serif" font-size="10.00">fspm.config.params.Param</text>
<text text-anchor="middle" x="73.5" y="-29.5" font-family="Helvetica,sans-Serif" font-size="10.00">Accessor</text>
</a>
</g>
</g>
<!-- Node1 -->
<g id="node2" class="node">
<title>Node1</title>
<g id="a_node2"><a xlink:href="classfspm_1_1config_1_1Config.html" target="_top" xlink:title="Configuration class for storing input configurations to be used in simulations.">
<polygon fill="none" stroke="black" points="203,-50 203,-69 310,-69 310,-50 203,-50"/>
<text text-anchor="middle" x="256.5" y="-57" font-family="Helvetica,sans-Serif" font-size="10.00">fspm.config.Config</text>
</a>
</g>
</g>
<!-- Node0&#45;&gt;Node1 -->
<g id="edge1" class="edge">
<title>Node0&#45;&gt;Node1</title>
<path fill="none" stroke="midnightblue" d="M157.23,-47.56C172.79,-49.45 188.65,-51.37 202.96,-53.11"/>
<polygon fill="midnightblue" stroke="midnightblue" points="157.43,-44.05 147.08,-46.32 156.58,-51 157.43,-44.05"/>
</g>
<!-- Node2 -->
<g id="node3" class="node">
<title>Node2</title>
<g id="a_node3"><a xlink:href="classfspm_1_1config_1_1params_1_1ParamCategory.html" target="_top" xlink:title="A ParamCategory stores Parameters that belong to a common category.">
<polygon fill="none" stroke="black" points="183,-0.5 183,-30.5 330,-30.5 330,-0.5 183,-0.5"/>
<text text-anchor="start" x="191" y="-18.5" font-family="Helvetica,sans-Serif" font-size="10.00">fspm.config.params.Param</text>
<text text-anchor="middle" x="256.5" y="-7.5" font-family="Helvetica,sans-Serif" font-size="10.00">Category</text>
</a>
</g>
</g>
<!-- Node0&#45;&gt;Node2 -->
<g id="edge2" class="edge">
<title>Node0&#45;&gt;Node2</title>
<path fill="none" stroke="midnightblue" d="M157.12,-27.46C165.72,-26.41 174.42,-25.35 182.91,-24.32"/>
<polygon fill="midnightblue" stroke="midnightblue" points="156.58,-24 147.08,-28.68 157.43,-30.95 156.58,-24"/>
</g>
</g>
</svg>
