<?xml version="1.0" encoding="UTF-8" standalone="no"?>
<!DOCTYPE svg PUBLIC "-//W3C//DTD SVG 1.1//EN"
 "http://www.w3.org/Graphics/SVG/1.1/DTD/svg11.dtd">
<!-- Generated by graphviz version 2.43.0 (0)
 -->
<!-- Title: Graphical Class Hierarchy Pages: 1 -->
<svg width="571pt" height="200pt"
 viewBox="0.00 0.00 571.00 200.00" xmlns="http://www.w3.org/2000/svg" xmlns:xlink="http://www.w3.org/1999/xlink">
<g id="graph0" class="graph" transform="scale(1 1) rotate(0) translate(4 196)">
<title>Graphical Class Hierarchy</title>
<!-- Node0 -->
<g id="node1" class="node">
<title>Node0</title>
<g id="a_node1"><a xlink:href="classfspm_1_1util_1_1KeyElement.html" target="_top" xlink:title=" ">
<polygon fill="none" stroke="black" points="0,-96 0,-115 122,-115 122,-96 0,-96"/>
<text text-anchor="middle" x="61" y="-103" font-family="Helvetica,sans-Serif" font-size="10.00">fspm.util.KeyElement</text>
</a>
</g>
</g>
<!-- Node1 -->
<g id="node2" class="node">
<title>Node1</title>
<g id="a_node2"><a xlink:href="classfspm_1_1config_1_1params_1_1ParamCategory.html" target="_top" xlink:title="A ParamCategory stores Parameters that belong to a common category.">
<polygon fill="none" stroke="black" points="168,-161.5 168,-191.5 315,-191.5 315,-161.5 168,-161.5"/>
<text text-anchor="start" x="176" y="-179.5" font-family="Helvetica,sans-Serif" font-size="10.00">fspm.config.params.Param</text>
<text text-anchor="middle" x="241.5" y="-168.5" font-family="Helvetica,sans-Serif" font-size="10.00">Category</text>
</a>
</g>
</g>
<!-- Node0&#45;&gt;Node1 -->
<g id="edge1" class="edge">
<title>Node0&#45;&gt;Node1</title>
<path fill="none" stroke="midnightblue" d="M88.22,-119.87C107.22,-129.89 133.72,-143.11 158,-152.5 166.21,-155.68 175.01,-158.66 183.71,-161.38"/>
<polygon fill="midnightblue" stroke="midnightblue" points="89.76,-116.72 79.29,-115.09 86.46,-122.89 89.76,-116.72"/>
</g>
<!-- Node2 -->
<g id="node3" class="node">
<title>Node2</title>
<g id="a_node3"><a xlink:href="classfspm_1_1config_1_1params_1_1ParamTable.html" target="_top" xlink:title=" ">
<polygon fill="none" stroke="black" points="168,-112.5 168,-142.5 315,-142.5 315,-112.5 168,-112.5"/>
<text text-anchor="start" x="176" y="-130.5" font-family="Helvetica,sans-Serif" font-size="10.00">fspm.config.params.Param</text>
<text text-anchor="middle" x="241.5" y="-119.5" font-family="Helvetica,sans-Serif" font-size="10.00">Table</text>
</a>
</g>
</g>
<!-- Node0&#45;&gt;Node2 -->
<g id="edge2" class="edge">
<title>Node0&#45;&gt;Node2</title>
<path fill="none" stroke="midnightblue" d="M132.49,-114.19C144.08,-115.62 156.12,-117.1 167.77,-118.54"/>
<polygon fill="midnightblue" stroke="midnightblue" points="132.79,-110.7 122.43,-112.95 131.93,-117.65 132.79,-110.7"/>
</g>
<!-- Node3 -->
<g id="node4" class="node">
<title>Node3</title>
<g id="a_node4"><a xlink:href="classfspm_1_1config_1_1params_1_1Parameter.html" target="_top" xlink:title="Parameter represents variables that can be stored using Java data types or other user&#45;defined types.">
<polygon fill="none" stroke="black" points="158,-74 158,-93 325,-93 325,-74 158,-74"/>
<text text-anchor="middle" x="241.5" y="-81" font-family="Helvetica,sans-Serif" font-size="10.00">fspm.config.params.Parameter</text>
</a>
</g>
</g>
<!-- Node0&#45;&gt;Node3 -->
<g id="edge3" class="edge">
<title>Node0&#45;&gt;Node3</title>
<path fill="none" stroke="midnightblue" d="M132.45,-96.82C142.6,-95.57 153.09,-94.27 163.36,-93.01"/>
<polygon fill="midnightblue" stroke="midnightblue" points="131.93,-93.35 122.43,-98.05 132.79,-100.3 131.93,-93.35"/>
</g>
<!-- Node4 -->
<g id="node5" class="node">
<title>Node4</title>
<g id="a_node5"><a xlink:href="classfspm_1_1config_1_1params_1_1group_1_1ParamGroup.html" target="_top" xlink:title="Parameter configuration class for storing parameter categories.">
<polygon fill="none" stroke="black" points="168,-24.5 168,-54.5 315,-54.5 315,-24.5 168,-24.5"/>
<text text-anchor="start" x="176" y="-42.5" font-family="Helvetica,sans-Serif" font-size="10.00">fspm.config.params.group.</text>
<text text-anchor="middle" x="241.5" y="-31.5" font-family="Helvetica,sans-Serif" font-size="10.00">ParamGroup</text>
</a>
</g>
</g>
<!-- Node0&#45;&gt;Node4 -->
<g id="edge4" class="edge">
<title>Node0&#45;&gt;Node4</title>
<path fill="none" stroke="midnightblue" d="M91.93,-91.72C110.7,-83.32 135.52,-72.68 158,-64.5 167.56,-61.02 177.87,-57.63 187.84,-54.52"/>
<polygon fill="midnightblue" stroke="midnightblue" points="90.39,-88.57 82.71,-95.87 93.27,-94.95 90.39,-88.57"/>
</g>
<!-- Node5 -->
<g id="node6" class="node">
<title>Node5</title>
<g id="a_node6"><a xlink:href="classfspm_1_1config_1_1params_1_1group_1_1DocumentCategoryNameGroup.html" target="_top" xlink:title=" ">
<polygon fill="none" stroke="black" points="377,-49.5 377,-79.5 547,-79.5 547,-49.5 377,-49.5"/>
<text text-anchor="start" x="385" y="-67.5" font-family="Helvetica,sans-Serif" font-size="10.00">fspm.config.params.group.</text>
<text text-anchor="middle" x="462" y="-56.5" font-family="Helvetica,sans-Serif" font-size="10.00">DocumentCategoryNameGroup</text>
</a>
</g>
</g>
<!-- Node4&#45;&gt;Node5 -->
<g id="edge5" class="edge">
<title>Node4&#45;&gt;Node5</title>
<path fill="none" stroke="midnightblue" d="M325.58,-49.01C342.36,-50.93 360.02,-52.95 376.84,-54.87"/>
<polygon fill="midnightblue" stroke="midnightblue" points="325.59,-45.48 315.26,-47.82 324.79,-52.44 325.59,-45.48"/>
</g>
<!-- Node6 -->
<g id="node7" class="node">
<title>Node6</title>
<g id="a_node7"><a xlink:href="classfspm_1_1config_1_1params_1_1group_1_1DocumentHybridCategoryNameGroup.html" target="_top" xlink:title=" ">
<polygon fill="none" stroke="black" points="361,-0.5 361,-30.5 563,-30.5 563,-0.5 361,-0.5"/>
<text text-anchor="start" x="369" y="-18.5" font-family="Helvetica,sans-Serif" font-size="10.00">fspm.config.params.group.</text>
<text text-anchor="middle" x="462" y="-7.5" font-family="Helvetica,sans-Serif" font-size="10.00">DocumentHybridCategoryNameGroup</text>
</a>
</g>
</g>
<!-- Node4&#45;&gt;Node6 -->
<g id="edge6" class="edge">
<title>Node4&#45;&gt;Node6</title>
<path fill="none" stroke="midnightblue" d="M325.35,-30.4C336.98,-29.12 349.03,-27.8 360.94,-26.49"/>
<polygon fill="midnightblue" stroke="midnightblue" points="324.82,-26.94 315.26,-31.51 325.58,-33.9 324.82,-26.94"/>
</g>
</g>
</svg>
