<?xml version="1.0" encoding="UTF-8" standalone="no"?>
<!DOCTYPE svg PUBLIC "-//W3C//DTD SVG 1.1//EN"
 "http://www.w3.org/Graphics/SVG/1.1/DTD/svg11.dtd">
<!-- Generated by graphviz version 2.43.0 (0)
 -->
<!-- Title: Graphical Class Hierarchy Pages: 1 -->
<svg width="892pt" height="399pt"
 viewBox="0.00 0.00 892.00 398.50" xmlns="http://www.w3.org/2000/svg" xmlns:xlink="http://www.w3.org/1999/xlink">
<g id="graph0" class="graph" transform="scale(1 1) rotate(0) translate(4 394.5)">
<title>Graphical Class Hierarchy</title>
<!-- Node0 -->
<g id="Node000000" class="node">
<title>Node0</title>
<g id="a_Node000000"><a xlink:href="classCellParamAccessor.html" target="_top" xlink:title=" ">
<polygon fill="white" stroke="#666666" points="284.5,-390.5 174.5,-390.5 174.5,-371.5 284.5,-371.5 284.5,-390.5"/>
<text text-anchor="middle" x="229.5" y="-378.5" font-family="Helvetica,sans-Serif" font-size="10.00">CellParamAccessor</text>
</a>
</g>
</g>
<!-- Node1 -->
<g id="Node000001" class="node">
<title>Node1</title>
<g id="a_Node000001"><a xlink:href="classio_1_1github_1_1fruitcropxl_1_1config_1_1params_1_1ParamTable.html" target="_top" xlink:title="Stores Parameters in a tabular format as rows and columns (parameter key).">
<polygon fill="white" stroke="#666666" points="598.5,-364 410.5,-364 410.5,-334 598.5,-334 598.5,-364"/>
<text text-anchor="start" x="418.5" y="-352" font-family="Helvetica,sans-Serif" font-size="10.00">io.github.fruitcropxl.config.params.</text>
<text text-anchor="middle" x="504.5" y="-341" font-family="Helvetica,sans-Serif" font-size="10.00">ParamTable</text>
</a>
</g>
</g>
<!-- Node0&#45;&gt;Node1 -->
<g id="edge1_Node000000_Node000001" class="edge">
<title>Node0&#45;&gt;Node1</title>
<g id="a_edge1_Node000000_Node000001"><a xlink:title=" ">
<path fill="none" stroke="#63b8ff" d="M294.7,-373.47C329.16,-369.44 372.27,-364.38 410.35,-359.92"/>
<polygon fill="#63b8ff" stroke="#63b8ff" points="294.29,-370 284.76,-374.64 295.1,-376.95 294.29,-370"/>
</a>
</g>
</g>
<!-- Node2 -->
<g id="Node000002" class="node">
<title>Node2</title>
<g id="a_Node000002"><a xlink:href="classKeyElement.html" target="_top" xlink:title=" ">
<polygon fill="white" stroke="#666666" points="267,-286.5 192,-286.5 192,-267.5 267,-267.5 267,-286.5"/>
<text text-anchor="middle" x="229.5" y="-274.5" font-family="Helvetica,sans-Serif" font-size="10.00">KeyElement</text>
</a>
</g>
</g>
<!-- Node2&#45;&gt;Node1 -->
<g id="edge3_Node000002_Node000001" class="edge">
<title>Node2&#45;&gt;Node1</title>
<g id="a_edge3_Node000002_Node000001"><a xlink:title=" ">
<path fill="none" stroke="#63b8ff" d="M267.73,-289.73C298.84,-300.09 344.49,-314.63 385,-325 397.4,-328.17 410.63,-331.2 423.57,-333.96"/>
<polygon fill="#63b8ff" stroke="#63b8ff" points="268.76,-286.39 258.17,-286.53 266.54,-293.02 268.76,-286.39"/>
</a>
</g>
</g>
<!-- Node3 -->
<g id="Node000003" class="node">
<title>Node3</title>
<g id="a_Node000003"><a xlink:href="classio_1_1github_1_1fruitcropxl_1_1config_1_1params_1_1ParamCategory.html" target="_top" xlink:title="Stores Parameters that belong to a common category.">
<polygon fill="white" stroke="#666666" points="598.5,-220 410.5,-220 410.5,-190 598.5,-190 598.5,-220"/>
<text text-anchor="start" x="418.5" y="-208" font-family="Helvetica,sans-Serif" font-size="10.00">io.github.fruitcropxl.config.params.</text>
<text text-anchor="middle" x="504.5" y="-197" font-family="Helvetica,sans-Serif" font-size="10.00">ParamCategory</text>
</a>
</g>
</g>
<!-- Node2&#45;&gt;Node3 -->
<g id="edge2_Node000002_Node000003" class="edge">
<title>Node2&#45;&gt;Node3</title>
<g id="a_edge2_Node000002_Node000003"><a xlink:title=" ">
<path fill="none" stroke="#63b8ff" d="M267.73,-264.27C298.84,-253.91 344.49,-239.37 385,-229 397.4,-225.83 410.63,-222.8 423.57,-220.04"/>
<polygon fill="#63b8ff" stroke="#63b8ff" points="266.54,-260.98 258.17,-267.47 268.76,-267.61 266.54,-260.98"/>
</a>
</g>
</g>
<!-- Node12 -->
<g id="Node000012" class="node">
<title>Node12</title>
<g id="a_Node000012"><a xlink:href="classio_1_1github_1_1fruitcropxl_1_1config_1_1params_1_1Parameter.html" target="_top" xlink:title="Parameter represents variables that can be stored as Java data types.">
<polygon fill="white" stroke="#666666" points="598.5,-316 410.5,-316 410.5,-286 598.5,-286 598.5,-316"/>
<text text-anchor="start" x="418.5" y="-304" font-family="Helvetica,sans-Serif" font-size="10.00">io.github.fruitcropxl.config.params.</text>
<text text-anchor="middle" x="504.5" y="-293" font-family="Helvetica,sans-Serif" font-size="10.00">Parameter</text>
</a>
</g>
</g>
<!-- Node2&#45;&gt;Node12 -->
<g id="edge4_Node000002_Node000012" class="edge">
<title>Node2&#45;&gt;Node12</title>
<g id="a_edge4_Node000002_Node000012"><a xlink:title=" ">
<path fill="none" stroke="#63b8ff" d="M277.35,-281.12C313.78,-284.32 365.46,-288.87 410.23,-292.8"/>
<polygon fill="#63b8ff" stroke="#63b8ff" points="277.3,-277.6 267.03,-280.21 276.69,-284.57 277.3,-277.6"/>
</a>
</g>
</g>
<!-- Node13 -->
<g id="Node000013" class="node">
<title>Node13</title>
<g id="a_Node000013"><a xlink:href="classio_1_1github_1_1fruitcropxl_1_1config_1_1params_1_1groups_1_1ParamGroup.html" target="_top" xlink:title="Parameter configuration class for storing parameter categories.">
<polygon fill="white" stroke="#666666" points="616.5,-268 392.5,-268 392.5,-238 616.5,-238 616.5,-268"/>
<text text-anchor="start" x="400.5" y="-256" font-family="Helvetica,sans-Serif" font-size="10.00">io.github.fruitcropxl.config.params.groups.</text>
<text text-anchor="middle" x="504.5" y="-245" font-family="Helvetica,sans-Serif" font-size="10.00">ParamGroup</text>
</a>
</g>
</g>
<!-- Node2&#45;&gt;Node13 -->
<g id="edge5_Node000002_Node000013" class="edge">
<title>Node2&#45;&gt;Node13</title>
<g id="a_edge5_Node000002_Node000013"><a xlink:title=" ">
<path fill="none" stroke="#63b8ff" d="M277.3,-272.89C308.95,-270.1 352.13,-266.31 392.29,-262.78"/>
<polygon fill="#63b8ff" stroke="#63b8ff" points="276.69,-269.43 267.03,-273.79 277.3,-276.4 276.69,-269.43"/>
</a>
</g>
</g>
<!-- Node14 -->
<g id="Node000014" class="node">
<title>Node14</title>
<g id="a_Node000014"><a xlink:href="classio_1_1github_1_1fruitcropxl_1_1config_1_1params_1_1groups_1_1DocumentCategoryNameGroup.html" target="_top" xlink:title="Represents and encapsulates access for the document&#45;category&#45;name format.">
<polygon fill="white" stroke="#666666" points="884,-292 660,-292 660,-262 884,-262 884,-292"/>
<text text-anchor="start" x="668" y="-280" font-family="Helvetica,sans-Serif" font-size="10.00">io.github.fruitcropxl.config.params.groups.</text>
<text text-anchor="middle" x="772" y="-269" font-family="Helvetica,sans-Serif" font-size="10.00">DocumentCategoryNameGroup</text>
</a>
</g>
</g>
<!-- Node13&#45;&gt;Node14 -->
<g id="edge6_Node000013_Node000014" class="edge">
<title>Node13&#45;&gt;Node14</title>
<g id="a_edge6_Node000013_Node000014"><a xlink:title=" ">
<path fill="none" stroke="#63b8ff" d="M626.7,-263.96C637.78,-264.96 648.97,-265.97 659.96,-266.96"/>
<polygon fill="#63b8ff" stroke="#63b8ff" points="626.83,-260.45 616.56,-263.04 626.2,-267.43 626.83,-260.45"/>
</a>
</g>
</g>
<!-- Node15 -->
<g id="Node000015" class="node">
<title>Node15</title>
<g id="a_Node000015"><a xlink:href="classio_1_1github_1_1fruitcropxl_1_1config_1_1params_1_1groups_1_1DocumentHybridCategoryNameGroup.html" target="_top" xlink:title="Represents and encapsulates access for the document&#45;hybrid&#45;category&#45;name format.">
<polygon fill="white" stroke="#666666" points="884,-244 660,-244 660,-214 884,-214 884,-244"/>
<text text-anchor="start" x="668" y="-232" font-family="Helvetica,sans-Serif" font-size="10.00">io.github.fruitcropxl.config.params.groups.</text>
<text text-anchor="middle" x="772" y="-221" font-family="Helvetica,sans-Serif" font-size="10.00">DocumentHybridCategoryNameGroup</text>
</a>
</g>
</g>
<!-- Node13&#45;&gt;Node15 -->
<g id="edge7_Node000013_Node000015" class="edge">
<title>Node13&#45;&gt;Node15</title>
<g id="a_edge7_Node000013_Node000015"><a xlink:title=" ">
<path fill="none" stroke="#63b8ff" d="M626.7,-242.04C637.78,-241.04 648.97,-240.03 659.96,-239.04"/>
<polygon fill="#63b8ff" stroke="#63b8ff" points="626.2,-238.57 616.56,-242.96 626.83,-245.55 626.2,-238.57"/>
</a>
</g>
</g>
<!-- Node4 -->
<g id="Node000004" class="node">
<title>Node4</title>
<g id="a_Node000004"><a xlink:href="classKeyParamAccessor.html" target="_top" xlink:title=" ">
<polygon fill="white" stroke="#666666" points="284,-212.5 175,-212.5 175,-193.5 284,-193.5 284,-212.5"/>
<text text-anchor="middle" x="229.5" y="-200.5" font-family="Helvetica,sans-Serif" font-size="10.00">KeyParamAccessor</text>
</a>
</g>
</g>
<!-- Node4&#45;&gt;Node3 -->
<g id="edge8_Node000004_Node000003" class="edge">
<title>Node4&#45;&gt;Node3</title>
<g id="a_edge8_Node000004_Node000003"><a xlink:title=" ">
<path fill="none" stroke="#63b8ff" d="M294.53,-203.47C329.06,-203.72 372.3,-204.04 410.47,-204.32"/>
<polygon fill="#63b8ff" stroke="#63b8ff" points="294.14,-199.97 284.11,-203.39 294.08,-206.97 294.14,-199.97"/>
</a>
</g>
</g>
<!-- Node5 -->
<g id="Node000005" class="node">
<title>Node5</title>
<g id="a_Node000005"><a xlink:href="classio_1_1github_1_1fruitcropxl_1_1config_1_1params_1_1structures_1_1CategoryStore.html" target="_top" xlink:title="Represents the collection of categories in a document.">
<polygon fill="white" stroke="#666666" points="624,-172 385,-172 385,-142 624,-142 624,-172"/>
<text text-anchor="start" x="393" y="-160" font-family="Helvetica,sans-Serif" font-size="10.00">io.github.fruitcropxl.config.params.structures.</text>
<text text-anchor="middle" x="504.5" y="-149" font-family="Helvetica,sans-Serif" font-size="10.00">CategoryStore</text>
</a>
</g>
</g>
<!-- Node4&#45;&gt;Node5 -->
<g id="edge9_Node000004_Node000005" class="edge">
<title>Node4&#45;&gt;Node5</title>
<g id="a_edge9_Node000004_Node000005"><a xlink:title=" ">
<path fill="none" stroke="#63b8ff" d="M294.39,-192.23C330.1,-186.22 375.14,-178.63 414.28,-172.03"/>
<polygon fill="#63b8ff" stroke="#63b8ff" points="293.39,-188.85 284.11,-193.97 294.55,-195.76 293.39,-188.85"/>
</a>
</g>
</g>
<!-- Node8 -->
<g id="Node000008" class="node">
<title>Node8</title>
<g id="a_Node000008"><a xlink:href="classSerializable.html" target="_top" xlink:title=" ">
<polygon fill="white" stroke="#666666" points="74,-72.5 0,-72.5 0,-53.5 74,-53.5 74,-72.5"/>
<text text-anchor="middle" x="37" y="-60.5" font-family="Helvetica,sans-Serif" font-size="10.00">Serializable</text>
</a>
</g>
</g>
<!-- Node9 -->
<g id="Node000009" class="node">
<title>Node9</title>
<g id="a_Node000009"><a xlink:href="classio_1_1github_1_1fruitcropxl_1_1config_1_1Config.html" target="_top" xlink:title="Configuration class for storing input configurations to be used in simulations.">
<polygon fill="white" stroke="#666666" points="303.5,-78 155.5,-78 155.5,-48 303.5,-48 303.5,-78"/>
<text text-anchor="start" x="163.5" y="-66" font-family="Helvetica,sans-Serif" font-size="10.00">io.github.fruitcropxl.config.</text>
<text text-anchor="middle" x="229.5" y="-55" font-family="Helvetica,sans-Serif" font-size="10.00">Config</text>
</a>
</g>
</g>
<!-- Node8&#45;&gt;Node9 -->
<g id="edge10_Node000008_Node000009" class="edge">
<title>Node8&#45;&gt;Node9</title>
<g id="a_edge10_Node000008_Node000009"><a xlink:title=" ">
<path fill="none" stroke="#63b8ff" d="M84.35,-63C105.66,-63 131.44,-63 155.28,-63"/>
<polygon fill="#63b8ff" stroke="#63b8ff" points="84.28,-59.5 74.28,-63 84.28,-66.5 84.28,-59.5"/>
</a>
</g>
</g>
<!-- Node6 -->
<g id="Node000006" class="node">
<title>Node6</title>
<g id="a_Node000006"><a xlink:href="classio_1_1github_1_1fruitcropxl_1_1config_1_1params_1_1structures_1_1ParamStructure.html" target="_top" xlink:title="Represents a structure found in ParamGroups that store parameters.">
<polygon fill="white" stroke="#666666" points="349,-126 110,-126 110,-96 349,-96 349,-126"/>
<text text-anchor="start" x="118" y="-114" font-family="Helvetica,sans-Serif" font-size="10.00">io.github.fruitcropxl.config.params.structures.</text>
<text text-anchor="middle" x="229.5" y="-103" font-family="Helvetica,sans-Serif" font-size="10.00">ParamStructure</text>
</a>
</g>
</g>
<!-- Node8&#45;&gt;Node6 -->
<g id="edge11_Node000008_Node000006" class="edge">
<title>Node8&#45;&gt;Node6</title>
<g id="a_edge11_Node000008_Node000006"><a xlink:title=" ">
<path fill="none" stroke="#63b8ff" d="M73.78,-75.88C85.26,-79.76 98.09,-83.82 110,-87 122.07,-90.22 134.93,-93.24 147.56,-95.98"/>
<polygon fill="#63b8ff" stroke="#63b8ff" points="74.69,-72.5 64.1,-72.55 72.42,-79.12 74.69,-72.5"/>
</a>
</g>
</g>
<!-- Node10 -->
<g id="Node000010" class="node">
<title>Node10</title>
<g id="a_Node000010"><a xlink:href="classio_1_1github_1_1fruitcropxl_1_1config_1_1util_1_1KeyElement.html" target="_top" xlink:title="Represents an element which contains a key.">
<polygon fill="white" stroke="#666666" points="313,-30 146,-30 146,0 313,0 313,-30"/>
<text text-anchor="start" x="154" y="-18" font-family="Helvetica,sans-Serif" font-size="10.00">io.github.fruitcropxl.config.util.</text>
<text text-anchor="middle" x="229.5" y="-7" font-family="Helvetica,sans-Serif" font-size="10.00">KeyElement</text>
</a>
</g>
</g>
<!-- Node8&#45;&gt;Node10 -->
<g id="edge14_Node000008_Node000010" class="edge">
<title>Node8&#45;&gt;Node10</title>
<g id="a_edge14_Node000008_Node000010"><a xlink:title=" ">
<path fill="none" stroke="#63b8ff" d="M73.78,-50.12C85.26,-46.24 98.09,-42.18 110,-39 122.07,-35.78 134.93,-32.76 147.56,-30.02"/>
<polygon fill="#63b8ff" stroke="#63b8ff" points="72.42,-46.88 64.1,-53.45 74.69,-53.5 72.42,-46.88"/>
</a>
</g>
</g>
<!-- Node6&#45;&gt;Node5 -->
<g id="edge12_Node000006_Node000005" class="edge">
<title>Node6&#45;&gt;Node5</title>
<g id="a_edge12_Node000006_Node000005"><a xlink:title=" ">
<path fill="none" stroke="#63b8ff" d="M329.96,-127.76C357.58,-132.41 387.39,-137.44 414.38,-141.98"/>
<polygon fill="#63b8ff" stroke="#63b8ff" points="330.33,-124.27 319.89,-126.06 329.17,-131.18 330.33,-124.27"/>
</a>
</g>
</g>
<!-- Node7 -->
<g id="Node000007" class="node">
<title>Node7</title>
<g id="a_Node000007"><a xlink:href="classio_1_1github_1_1fruitcropxl_1_1config_1_1params_1_1structures_1_1TableStore.html" target="_top" xlink:title="Represents the collection of tables in a document.">
<polygon fill="white" stroke="#666666" points="624,-124 385,-124 385,-94 624,-94 624,-124"/>
<text text-anchor="start" x="393" y="-112" font-family="Helvetica,sans-Serif" font-size="10.00">io.github.fruitcropxl.config.params.structures.</text>
<text text-anchor="middle" x="504.5" y="-101" font-family="Helvetica,sans-Serif" font-size="10.00">TableStore</text>
</a>
</g>
</g>
<!-- Node6&#45;&gt;Node7 -->
<g id="edge13_Node000006_Node000007" class="edge">
<title>Node6&#45;&gt;Node7</title>
<g id="a_edge13_Node000006_Node000007"><a xlink:title=" ">
<path fill="none" stroke="#63b8ff" d="M359.32,-110.06C367.76,-109.99 376.24,-109.93 384.63,-109.87"/>
<polygon fill="#63b8ff" stroke="#63b8ff" points="359.02,-106.56 349.05,-110.13 359.08,-113.56 359.02,-106.56"/>
</a>
</g>
</g>
<!-- Node16 -->
<g id="Node000016" class="node">
<title>Node16</title>
<g id="a_Node000016"><a xlink:href="classTypedCellParamAccessor.html" target="_top" xlink:title=" ">
<polygon fill="white" stroke="#666666" points="298.5,-353.5 160.5,-353.5 160.5,-334.5 298.5,-334.5 298.5,-353.5"/>
<text text-anchor="middle" x="229.5" y="-341.5" font-family="Helvetica,sans-Serif" font-size="10.00">TypedCellParamAccessor</text>
</a>
</g>
</g>
<!-- Node16&#45;&gt;Node1 -->
<g id="edge15_Node000016_Node000001" class="edge">
<title>Node16&#45;&gt;Node1</title>
<g id="a_edge15_Node000016_Node000001"><a xlink:title=" ">
<path fill="none" stroke="#63b8ff" d="M308.79,-345.43C340.51,-346.01 377.39,-346.69 410.46,-347.3"/>
<polygon fill="#63b8ff" stroke="#63b8ff" points="308.75,-341.93 298.69,-345.25 308.62,-348.93 308.75,-341.93"/>
</a>
</g>
</g>
<!-- Node11 -->
<g id="Node000011" class="node">
<title>Node11</title>
<g id="a_Node000011"><a xlink:href="classTypedKeyParamAccessor.html" target="_top" xlink:title=" ">
<polygon fill="white" stroke="#666666" points="298,-171.5 161,-171.5 161,-152.5 298,-152.5 298,-171.5"/>
<text text-anchor="middle" x="229.5" y="-159.5" font-family="Helvetica,sans-Serif" font-size="10.00">TypedKeyParamAccessor</text>
</a>
</g>
</g>
<!-- Node11&#45;&gt;Node3 -->
<g id="edge16_Node000011_Node000003" class="edge">
<title>Node11&#45;&gt;Node3</title>
<g id="a_edge16_Node000011_Node000003"><a xlink:title=" ">
<path fill="none" stroke="#63b8ff" d="M301.19,-173.13C334.47,-178.38 374.62,-184.7 410.35,-190.33"/>
<polygon fill="#63b8ff" stroke="#63b8ff" points="301.51,-169.64 291.09,-171.54 300.42,-176.56 301.51,-169.64"/>
</a>
</g>
</g>
<!-- Node11&#45;&gt;Node5 -->
<g id="edge17_Node000011_Node000005" class="edge">
<title>Node11&#45;&gt;Node5</title>
<g id="a_edge17_Node000011_Node000005"><a xlink:title=" ">
<path fill="none" stroke="#63b8ff" d="M308.37,-160.57C332.23,-160.14 359.03,-159.65 384.96,-159.17"/>
<polygon fill="#63b8ff" stroke="#63b8ff" points="308.27,-157.07 298.33,-160.76 308.4,-164.07 308.27,-157.07"/>
</a>
</g>
</g>
</g>
</svg>
