<?xml version="1.0" encoding="UTF-8" standalone="no"?>
<!DOCTYPE svg PUBLIC "-//W3C//DTD SVG 1.1//EN"
 "http://www.w3.org/Graphics/SVG/1.1/DTD/svg11.dtd">
<!-- Generated by graphviz version 2.43.0 (0)
 -->
<!-- Title: Graphical Class Hierarchy Pages: 1 -->
<svg width="352pt" height="284pt"
 viewBox="0.00 0.00 352.00 284.00" xmlns="http://www.w3.org/2000/svg" xmlns:xlink="http://www.w3.org/1999/xlink">
<g id="graph0" class="graph" transform="scale(1 1) rotate(0) translate(4 280)">
<title>Graphical Class Hierarchy</title>
<!-- Node0 -->
<g id="node1" class="node">
<title>Node0</title>
<g id="a_node1"><a xlink:href="classfspm_1_1config_1_1params_1_1Parameter.html" target="_top" xlink:title="Parameter represents variables that can be stored using Java data types or other user&#45;defined types.">
<polygon fill="none" stroke="black" points="0,-128 0,-147 167,-147 167,-128 0,-128"/>
<text text-anchor="middle" x="83.5" y="-135" font-family="Helvetica,sans-Serif" font-size="10.00">fspm.config.params.Parameter</text>
</a>
</g>
</g>
<!-- Node1 -->
<g id="node2" class="node">
<title>Node1</title>
<g id="a_node2"><a xlink:href="classfspm_1_1config_1_1params_1_1type_1_1ArrayParam.html" target="_top" xlink:title=" ">
<polygon fill="none" stroke="black" points="203,-245.5 203,-275.5 344,-275.5 344,-245.5 203,-245.5"/>
<text text-anchor="start" x="211" y="-263.5" font-family="Helvetica,sans-Serif" font-size="10.00">fspm.config.params.type.</text>
<text text-anchor="middle" x="273.5" y="-252.5" font-family="Helvetica,sans-Serif" font-size="10.00">ArrayParam&lt; T &gt;</text>
</a>
</g>
</g>
<!-- Node0&#45;&gt;Node1 -->
<g id="edge1" class="edge">
<title>Node0&#45;&gt;Node1</title>
<path fill="none" stroke="midnightblue" d="M100.48,-154.19C121.98,-175.82 162.26,-213.48 203,-236.5 208.89,-239.83 215.32,-242.81 221.82,-245.44"/>
<polygon fill="midnightblue" stroke="midnightblue" points="102.94,-151.7 93.44,-147.01 97.93,-156.6 102.94,-151.7"/>
</g>
<!-- Node2 -->
<g id="node3" class="node">
<title>Node2</title>
<g id="a_node3"><a xlink:href="classfspm_1_1config_1_1params_1_1type_1_1BooleanParam.html" target="_top" xlink:title="Concrete Parameter implementation for booleans.">
<polygon fill="none" stroke="black" points="203,-196.5 203,-226.5 344,-226.5 344,-196.5 203,-196.5"/>
<text text-anchor="start" x="211" y="-214.5" font-family="Helvetica,sans-Serif" font-size="10.00">fspm.config.params.type.</text>
<text text-anchor="middle" x="273.5" y="-203.5" font-family="Helvetica,sans-Serif" font-size="10.00">BooleanParam</text>
</a>
</g>
</g>
<!-- Node0&#45;&gt;Node2 -->
<g id="edge2" class="edge">
<title>Node0&#45;&gt;Node2</title>
<path fill="none" stroke="midnightblue" d="M115.39,-151.2C139.17,-161.59 172.94,-175.98 203,-187.5 210.87,-190.51 219.3,-193.57 227.48,-196.44"/>
<polygon fill="midnightblue" stroke="midnightblue" points="116.73,-147.97 106.16,-147.15 113.92,-154.38 116.73,-147.97"/>
</g>
<!-- Node3 -->
<g id="node4" class="node">
<title>Node3</title>
<g id="a_node4"><a xlink:href="classfspm_1_1config_1_1params_1_1type_1_1DoubleParam.html" target="_top" xlink:title="Concrete Parameter implementation for doubles.">
<polygon fill="none" stroke="black" points="203,-147.5 203,-177.5 344,-177.5 344,-147.5 203,-147.5"/>
<text text-anchor="start" x="211" y="-165.5" font-family="Helvetica,sans-Serif" font-size="10.00">fspm.config.params.type.</text>
<text text-anchor="middle" x="273.5" y="-154.5" font-family="Helvetica,sans-Serif" font-size="10.00">DoubleParam</text>
</a>
</g>
</g>
<!-- Node0&#45;&gt;Node3 -->
<g id="edge3" class="edge">
<title>Node0&#45;&gt;Node3</title>
<path fill="none" stroke="midnightblue" d="M166.29,-148.38C178.51,-150 191.01,-151.66 202.95,-153.25"/>
<polygon fill="midnightblue" stroke="midnightblue" points="166.49,-144.87 156.11,-147.02 165.56,-151.81 166.49,-144.87"/>
</g>
<!-- Node4 -->
<g id="node5" class="node">
<title>Node4</title>
<g id="a_node5"><a xlink:href="classfspm_1_1config_1_1params_1_1type_1_1IntegerParam.html" target="_top" xlink:title="Concrete Parameter implementation for integers.">
<polygon fill="none" stroke="black" points="203,-98.5 203,-128.5 344,-128.5 344,-98.5 203,-98.5"/>
<text text-anchor="start" x="211" y="-116.5" font-family="Helvetica,sans-Serif" font-size="10.00">fspm.config.params.type.</text>
<text text-anchor="middle" x="273.5" y="-105.5" font-family="Helvetica,sans-Serif" font-size="10.00">IntegerParam</text>
</a>
</g>
</g>
<!-- Node0&#45;&gt;Node4 -->
<g id="edge4" class="edge">
<title>Node0&#45;&gt;Node4</title>
<path fill="none" stroke="midnightblue" d="M169.32,-126.67C180.56,-125.24 191.97,-123.78 202.91,-122.38"/>
<polygon fill="midnightblue" stroke="midnightblue" points="168.55,-123.24 159.07,-127.98 169.44,-130.19 168.55,-123.24"/>
</g>
<!-- Node5 -->
<g id="node6" class="node">
<title>Node5</title>
<g id="a_node6"><a xlink:href="classfspm_1_1config_1_1params_1_1type_1_1NullParam.html" target="_top" xlink:title="Concrete Parameter implementation for Null parameters representing a null value JsonNode.">
<polygon fill="none" stroke="black" points="203,-49.5 203,-79.5 344,-79.5 344,-49.5 203,-49.5"/>
<text text-anchor="start" x="211" y="-67.5" font-family="Helvetica,sans-Serif" font-size="10.00">fspm.config.params.type.</text>
<text text-anchor="middle" x="273.5" y="-56.5" font-family="Helvetica,sans-Serif" font-size="10.00">NullParam</text>
</a>
</g>
</g>
<!-- Node0&#45;&gt;Node5 -->
<g id="edge5" class="edge">
<title>Node0&#45;&gt;Node5</title>
<path fill="none" stroke="midnightblue" d="M116.8,-124.01C140.55,-114.2 173.66,-100.71 203,-89.5 211.62,-86.2 220.89,-82.78 229.77,-79.57"/>
<polygon fill="midnightblue" stroke="midnightblue" points="115.45,-120.78 107.55,-127.85 118.13,-127.25 115.45,-120.78"/>
</g>
<!-- Node6 -->
<g id="node7" class="node">
<title>Node6</title>
<g id="a_node7"><a xlink:href="classfspm_1_1config_1_1params_1_1type_1_1StringParam.html" target="_top" xlink:title="Concrete Parameter implementation for Strings.">
<polygon fill="none" stroke="black" points="203,-0.5 203,-30.5 344,-30.5 344,-0.5 203,-0.5"/>
<text text-anchor="start" x="211" y="-18.5" font-family="Helvetica,sans-Serif" font-size="10.00">fspm.config.params.type.</text>
<text text-anchor="middle" x="273.5" y="-7.5" font-family="Helvetica,sans-Serif" font-size="10.00">StringParam</text>
</a>
</g>
</g>
<!-- Node0&#45;&gt;Node6 -->
<g id="edge6" class="edge">
<title>Node0&#45;&gt;Node6</title>
<path fill="none" stroke="midnightblue" d="M100.92,-120.92C122.63,-99.79 162.83,-63.27 203,-40.5 209.58,-36.77 216.82,-33.43 224.07,-30.5"/>
<polygon fill="midnightblue" stroke="midnightblue" points="98.45,-118.44 93.8,-127.96 103.37,-123.42 98.45,-118.44"/>
</g>
</g>
</svg>
