<?xml version="1.0" encoding="UTF-8" standalone="no"?>
<!DOCTYPE svg PUBLIC "-//W3C//DTD SVG 1.1//EN"
 "http://www.w3.org/Graphics/SVG/1.1/DTD/svg11.dtd">
<!-- Generated by graphviz version 2.43.0 (0)
 -->
<!-- Title: io.github.fruitcropxl.config.params.accessors.KeyParamAccessor Pages: 1 -->
<svg width="241pt" height="128pt"
 viewBox="0.00 0.00 241.00 128.00" xmlns="http://www.w3.org/2000/svg" xmlns:xlink="http://www.w3.org/1999/xlink">
<g id="graph0" class="graph" transform="scale(1 1) rotate(0) translate(4 124)">
<title>io.github.fruitcropxl.config.params.accessors.KeyParamAccessor</title>
<!-- Node1 -->
<g id="Node000001" class="node">
<title>Node1</title>
<g id="a_Node000001"><a xlink:title="Blueprint for all classes that handles getting and setting of parameters.">
<polygon fill="#999999" stroke="transparent" points="233,-120 0,-120 0,0 233,0 233,-120"/>
<text text-anchor="start" x="5.5" y="-108" font-family="Helvetica,sans-Serif" font-size="10.00">io.github.fruitcropxl.config.params.accessors.</text>
<text text-anchor="start" x="70.5" y="-97" font-family="Helvetica,sans-Serif" font-size="10.00">KeyParamAccessor</text>
<text text-anchor="start" x="115" y="-82" font-family="Helvetica,sans-Serif" font-size="10.00"> </text>
<text text-anchor="start" x="45" y="-67" font-family="Helvetica,sans-Serif" font-size="10.00">+</text>
<text text-anchor="start" x="98.5" y="-67" font-family="Helvetica,sans-Serif" font-size="10.00">get()</text>
<text text-anchor="start" x="45" y="-52" font-family="Helvetica,sans-Serif" font-size="10.00">+</text>
<text text-anchor="start" x="98.5" y="-52" font-family="Helvetica,sans-Serif" font-size="10.00">get()</text>
<text text-anchor="start" x="45" y="-37" font-family="Helvetica,sans-Serif" font-size="10.00">+</text>
<text text-anchor="start" x="98.5" y="-37" font-family="Helvetica,sans-Serif" font-size="10.00">getArray()</text>
<text text-anchor="start" x="45" y="-22" font-family="Helvetica,sans-Serif" font-size="10.00">+</text>
<text text-anchor="start" x="98.5" y="-22" font-family="Helvetica,sans-Serif" font-size="10.00">getArray()</text>
<text text-anchor="start" x="45" y="-7" font-family="Helvetica,sans-Serif" font-size="10.00">+</text>
<text text-anchor="start" x="98.5" y="-7" font-family="Helvetica,sans-Serif" font-size="10.00">isNull()</text>
<polygon fill="#666666" stroke="#666666" points="0.5,-92 0.5,-92 233.5,-92 233.5,-92 0.5,-92"/>
<polygon fill="#666666" stroke="#666666" points="0.5,-77 0.5,-77 233.5,-77 233.5,-77 0.5,-77"/>
<polygon fill="none" stroke="#666666" points="0,0 0,-120 233,-120 233,0 0,0"/>
</a>
</g>
</g>
</g>
</svg>
